G04 #@! TF.GenerationSoftware,KiCad,Pcbnew,(5.0.0)*
G04 #@! TF.CreationDate,2018-12-05T18:09:54+00:00*
G04 #@! TF.ProjectId,OpenSpritzer_1.3,4F70656E53707269747A65725F312E33,rev?*
G04 #@! TF.SameCoordinates,Original*
G04 #@! TF.FileFunction,Soldermask,Bot*
G04 #@! TF.FilePolarity,Negative*
%FSLAX46Y46*%
G04 Gerber Fmt 4.6, Leading zero omitted, Abs format (unit mm)*
G04 Created by KiCad (PCBNEW (5.0.0)) date 12/05/18 18:09:54*
%MOMM*%
%LPD*%
G01*
G04 APERTURE LIST*
%ADD10C,2.200000*%
%ADD11O,3.000000X3.000000*%
%ADD12R,3.000000X3.000000*%
%ADD13C,2.000000*%
%ADD14O,2.000000X2.000000*%
%ADD15O,3.410000X1.910000*%
%ADD16C,2.400000*%
%ADD17R,2.000000X2.000000*%
%ADD18C,2.180000*%
%ADD19R,1.900000X1.900000*%
%ADD20C,1.900000*%
%ADD21C,0.100000*%
%ADD22C,3.900000*%
%ADD23C,3.400000*%
%ADD24R,3.900000X3.900000*%
%ADD25C,2.900000*%
%ADD26C,6.800000*%
%ADD27R,3.600000X3.600000*%
%ADD28O,3.600000X3.600000*%
%ADD29R,1.150000X2.150000*%
%ADD30C,2.250000*%
%ADD31C,3.600000*%
%ADD32O,7.400240X3.900120*%
%ADD33O,2.899360X2.000200*%
%ADD34R,2.200000X2.200000*%
%ADD35O,2.200000X2.200000*%
G04 APERTURE END LIST*
D10*
G04 #@! TO.C,*
X145260000Y-143480000D03*
X142760000Y-143480000D03*
X140260000Y-143480000D03*
G04 #@! TD*
D11*
G04 #@! TO.C,*
X153340000Y-100630000D03*
D12*
X153340000Y-115870000D03*
G04 #@! TD*
D13*
G04 #@! TO.C,*
X136500000Y-90950000D03*
D14*
X148680000Y-90950000D03*
G04 #@! TD*
D13*
G04 #@! TO.C,*
X148000000Y-130950000D03*
D14*
X135820000Y-130950000D03*
G04 #@! TD*
D13*
G04 #@! TO.C,*
X148000000Y-135450000D03*
D14*
X135820000Y-135450000D03*
G04 #@! TD*
D13*
G04 #@! TO.C,*
X136500000Y-95950000D03*
D14*
X148680000Y-95950000D03*
G04 #@! TD*
D13*
G04 #@! TO.C,*
X121250000Y-90950000D03*
D14*
X133430000Y-90950000D03*
G04 #@! TD*
D13*
G04 #@! TO.C,*
X133500000Y-95950000D03*
D14*
X121320000Y-95950000D03*
G04 #@! TD*
D15*
G04 #@! TO.C,*
X152500000Y-85450000D03*
X152500000Y-81950000D03*
G04 #@! TD*
D16*
G04 #@! TO.C,*
X146175000Y-122950000D03*
X142175000Y-122950000D03*
G04 #@! TD*
D17*
G04 #@! TO.C,*
X137200000Y-100000000D03*
D14*
X104180000Y-115240000D03*
X134660000Y-100000000D03*
X106720000Y-115240000D03*
X132120000Y-100000000D03*
X109260000Y-115240000D03*
X129580000Y-100000000D03*
X111800000Y-115240000D03*
X127040000Y-100000000D03*
X114340000Y-115240000D03*
X124500000Y-100000000D03*
X116880000Y-115240000D03*
X121960000Y-100000000D03*
X119420000Y-115240000D03*
X119420000Y-100000000D03*
X121960000Y-115240000D03*
X116880000Y-100000000D03*
X124500000Y-115240000D03*
X114340000Y-100000000D03*
X127040000Y-115240000D03*
X111800000Y-100000000D03*
X129580000Y-115240000D03*
X109260000Y-100000000D03*
X132120000Y-115240000D03*
X106720000Y-100000000D03*
X134660000Y-115240000D03*
X104180000Y-100000000D03*
X137200000Y-115240000D03*
X101640000Y-100000000D03*
X101640000Y-115240000D03*
D18*
X139740000Y-100000000D03*
X139740000Y-115240000D03*
X99100000Y-115240000D03*
X99100000Y-100000000D03*
G04 #@! TD*
D19*
G04 #@! TO.C,NPN*
X144750000Y-99950000D03*
D20*
X144750000Y-105030000D03*
X144750000Y-102490000D03*
G04 #@! TD*
D21*
G04 #@! TO.C,*
G36*
X148570567Y-70454695D02*
X148665213Y-70468734D01*
X148758028Y-70491983D01*
X148848116Y-70524217D01*
X148934612Y-70565127D01*
X149016681Y-70614317D01*
X149093533Y-70671315D01*
X149164429Y-70735571D01*
X149228685Y-70806467D01*
X149285683Y-70883319D01*
X149334873Y-70965388D01*
X149375783Y-71051884D01*
X149408017Y-71141972D01*
X149431266Y-71234787D01*
X149445305Y-71329433D01*
X149450000Y-71425000D01*
X149450000Y-73375000D01*
X149445305Y-73470567D01*
X149431266Y-73565213D01*
X149408017Y-73658028D01*
X149375783Y-73748116D01*
X149334873Y-73834612D01*
X149285683Y-73916681D01*
X149228685Y-73993533D01*
X149164429Y-74064429D01*
X149093533Y-74128685D01*
X149016681Y-74185683D01*
X148934612Y-74234873D01*
X148848116Y-74275783D01*
X148758028Y-74308017D01*
X148665213Y-74331266D01*
X148570567Y-74345305D01*
X148475000Y-74350000D01*
X146525000Y-74350000D01*
X146429433Y-74345305D01*
X146334787Y-74331266D01*
X146241972Y-74308017D01*
X146151884Y-74275783D01*
X146065388Y-74234873D01*
X145983319Y-74185683D01*
X145906467Y-74128685D01*
X145835571Y-74064429D01*
X145771315Y-73993533D01*
X145714317Y-73916681D01*
X145665127Y-73834612D01*
X145624217Y-73748116D01*
X145591983Y-73658028D01*
X145568734Y-73565213D01*
X145554695Y-73470567D01*
X145550000Y-73375000D01*
X145550000Y-71425000D01*
X145554695Y-71329433D01*
X145568734Y-71234787D01*
X145591983Y-71141972D01*
X145624217Y-71051884D01*
X145665127Y-70965388D01*
X145714317Y-70883319D01*
X145771315Y-70806467D01*
X145835571Y-70735571D01*
X145906467Y-70671315D01*
X145983319Y-70614317D01*
X146065388Y-70565127D01*
X146151884Y-70524217D01*
X146241972Y-70491983D01*
X146334787Y-70468734D01*
X146429433Y-70454695D01*
X146525000Y-70450000D01*
X148475000Y-70450000D01*
X148570567Y-70454695D01*
X148570567Y-70454695D01*
G37*
D22*
X147500000Y-72400000D03*
D21*
G36*
X153683315Y-67154093D02*
X153765827Y-67166333D01*
X153846742Y-67186601D01*
X153925281Y-67214702D01*
X154000687Y-67250367D01*
X154072235Y-67293251D01*
X154139234Y-67342941D01*
X154201041Y-67398959D01*
X154257059Y-67460766D01*
X154306749Y-67527765D01*
X154349633Y-67599313D01*
X154385298Y-67674719D01*
X154413399Y-67753258D01*
X154433667Y-67834173D01*
X154445907Y-67916685D01*
X154450000Y-68000000D01*
X154450000Y-69700000D01*
X154445907Y-69783315D01*
X154433667Y-69865827D01*
X154413399Y-69946742D01*
X154385298Y-70025281D01*
X154349633Y-70100687D01*
X154306749Y-70172235D01*
X154257059Y-70239234D01*
X154201041Y-70301041D01*
X154139234Y-70357059D01*
X154072235Y-70406749D01*
X154000687Y-70449633D01*
X153925281Y-70485298D01*
X153846742Y-70513399D01*
X153765827Y-70533667D01*
X153683315Y-70545907D01*
X153600000Y-70550000D01*
X151400000Y-70550000D01*
X151316685Y-70545907D01*
X151234173Y-70533667D01*
X151153258Y-70513399D01*
X151074719Y-70485298D01*
X150999313Y-70449633D01*
X150927765Y-70406749D01*
X150860766Y-70357059D01*
X150798959Y-70301041D01*
X150742941Y-70239234D01*
X150693251Y-70172235D01*
X150650367Y-70100687D01*
X150614702Y-70025281D01*
X150586601Y-69946742D01*
X150566333Y-69865827D01*
X150554093Y-69783315D01*
X150550000Y-69700000D01*
X150550000Y-68000000D01*
X150554093Y-67916685D01*
X150566333Y-67834173D01*
X150586601Y-67753258D01*
X150614702Y-67674719D01*
X150650367Y-67599313D01*
X150693251Y-67527765D01*
X150742941Y-67460766D01*
X150798959Y-67398959D01*
X150860766Y-67342941D01*
X150927765Y-67293251D01*
X150999313Y-67250367D01*
X151074719Y-67214702D01*
X151153258Y-67186601D01*
X151234173Y-67166333D01*
X151316685Y-67154093D01*
X151400000Y-67150000D01*
X153600000Y-67150000D01*
X153683315Y-67154093D01*
X153683315Y-67154093D01*
G37*
D23*
X152500000Y-68850000D03*
D24*
X152500000Y-75450000D03*
D25*
X152500000Y-65050000D03*
G04 #@! TD*
D26*
G04 #@! TO.C,*
X100000000Y-65000000D03*
G04 #@! TD*
D27*
G04 #@! TO.C,*
X137800000Y-122950000D03*
D28*
X125100000Y-122950000D03*
G04 #@! TD*
D29*
G04 #@! TO.C,*
X117460000Y-137930000D03*
X120000000Y-137930000D03*
X122540000Y-137930000D03*
X117460000Y-140470000D03*
X120000000Y-140470000D03*
X122540000Y-140470000D03*
D30*
X117300000Y-145550000D03*
X122700000Y-145550000D03*
G04 #@! TD*
D17*
G04 #@! TO.C,*
X130200000Y-146050000D03*
D13*
X130200000Y-142550000D03*
G04 #@! TD*
G04 #@! TO.C,*
X130000000Y-131450000D03*
D17*
X130000000Y-134950000D03*
G04 #@! TD*
D31*
G04 #@! TO.C,*
X118000000Y-93500000D03*
G04 #@! TD*
G04 #@! TO.C,*
X118000000Y-122500000D03*
G04 #@! TD*
D15*
G04 #@! TO.C,*
X152940000Y-131950000D03*
X152940000Y-135450000D03*
G04 #@! TD*
G04 #@! TO.C,*
X153000000Y-144950000D03*
X153000000Y-141450000D03*
G04 #@! TD*
D32*
G04 #@! TO.C,*
X108111600Y-90097780D03*
X108111600Y-79899680D03*
D33*
X112376260Y-85000000D03*
X112376260Y-87499360D03*
G04 #@! TD*
D17*
G04 #@! TO.C,*
X145500000Y-108700000D03*
D14*
X145500000Y-116320000D03*
G04 #@! TD*
D31*
G04 #@! TO.C,*
X154000000Y-93500000D03*
G04 #@! TD*
D34*
G04 #@! TO.C,*
X112400000Y-141150000D03*
D35*
X110700000Y-144850000D03*
X109000000Y-141150000D03*
X107300000Y-144850000D03*
X105600000Y-141150000D03*
G04 #@! TD*
D31*
G04 #@! TO.C,*
X154000000Y-122500000D03*
G04 #@! TD*
D33*
G04 #@! TO.C,*
X112301260Y-132499360D03*
X112301260Y-130000000D03*
D32*
X108036600Y-124899680D03*
X108036600Y-135097780D03*
G04 #@! TD*
D26*
G04 #@! TO.C,*
X100000000Y-150000000D03*
G04 #@! TD*
M02*
