G04 #@! TF.GenerationSoftware,KiCad,Pcbnew,(5.0.0)*
G04 #@! TF.CreationDate,2018-12-05T18:09:54+00:00*
G04 #@! TF.ProjectId,OpenSpritzer_1.3,4F70656E53707269747A65725F312E33,rev?*
G04 #@! TF.SameCoordinates,Original*
G04 #@! TF.FileFunction,Other,Fab,Top*
%FSLAX46Y46*%
G04 Gerber Fmt 4.6, Leading zero omitted, Abs format (unit mm)*
G04 Created by KiCad (PCBNEW (5.0.0)) date 12/05/18 18:09:54*
%MOMM*%
%LPD*%
G01*
G04 APERTURE LIST*
%ADD10C,0.100000*%
%ADD11C,0.150000*%
G04 APERTURE END LIST*
D10*
G04 #@! TO.C,*
X150735000Y-111585500D02*
X155945000Y-111585500D01*
X153340000Y-100630000D02*
X153340000Y-103485000D01*
X153340000Y-115870000D02*
X153340000Y-113015000D01*
X150735000Y-103485000D02*
X150735000Y-113015000D01*
X155945000Y-103485000D02*
X150735000Y-103485000D01*
X155945000Y-113015000D02*
X155945000Y-103485000D01*
X150735000Y-113015000D02*
X155945000Y-113015000D01*
X139620000Y-89350000D02*
X139620000Y-92550000D01*
X139620000Y-92550000D02*
X145560000Y-92550000D01*
X145560000Y-92550000D02*
X145560000Y-89350000D01*
X145560000Y-89350000D02*
X139620000Y-89350000D01*
X136500000Y-90950000D02*
X139620000Y-90950000D01*
X148680000Y-90950000D02*
X145560000Y-90950000D01*
X144880000Y-132550000D02*
X144880000Y-129350000D01*
X144880000Y-129350000D02*
X138940000Y-129350000D01*
X138940000Y-129350000D02*
X138940000Y-132550000D01*
X138940000Y-132550000D02*
X144880000Y-132550000D01*
X148000000Y-130950000D02*
X144880000Y-130950000D01*
X135820000Y-130950000D02*
X138940000Y-130950000D01*
X144880000Y-137050000D02*
X144880000Y-133850000D01*
X144880000Y-133850000D02*
X138940000Y-133850000D01*
X138940000Y-133850000D02*
X138940000Y-137050000D01*
X138940000Y-137050000D02*
X144880000Y-137050000D01*
X148000000Y-135450000D02*
X144880000Y-135450000D01*
X135820000Y-135450000D02*
X138940000Y-135450000D01*
X139620000Y-94350000D02*
X139620000Y-97550000D01*
X139620000Y-97550000D02*
X145560000Y-97550000D01*
X145560000Y-97550000D02*
X145560000Y-94350000D01*
X145560000Y-94350000D02*
X139620000Y-94350000D01*
X136500000Y-95950000D02*
X139620000Y-95950000D01*
X148680000Y-95950000D02*
X145560000Y-95950000D01*
X124370000Y-89350000D02*
X124370000Y-92550000D01*
X124370000Y-92550000D02*
X130310000Y-92550000D01*
X130310000Y-92550000D02*
X130310000Y-89350000D01*
X130310000Y-89350000D02*
X124370000Y-89350000D01*
X121250000Y-90950000D02*
X124370000Y-90950000D01*
X133430000Y-90950000D02*
X130310000Y-90950000D01*
X130380000Y-97550000D02*
X130380000Y-94350000D01*
X130380000Y-94350000D02*
X124440000Y-94350000D01*
X124440000Y-94350000D02*
X124440000Y-97550000D01*
X124440000Y-97550000D02*
X130380000Y-97550000D01*
X133500000Y-95950000D02*
X130380000Y-95950000D01*
X121320000Y-95950000D02*
X124440000Y-95950000D01*
X147175000Y-122950000D02*
G75*
G03X147175000Y-122950000I-3000000J0D01*
G01*
X105450000Y-103810000D02*
X105450000Y-111430000D01*
X105450000Y-111430000D02*
X95290000Y-111430000D01*
X95290000Y-111430000D02*
X95290000Y-103810000D01*
X95290000Y-103810000D02*
X105450000Y-103810000D01*
X97830000Y-116510000D02*
X97830000Y-98730000D01*
X97830000Y-98730000D02*
X139740000Y-98730000D01*
X139740000Y-98730000D02*
X141010000Y-100000000D01*
X141010000Y-100000000D02*
X141010000Y-116510000D01*
X141010000Y-116510000D02*
X97830000Y-116510000D01*
G04 #@! TO.C,NPN*
X143147615Y-100597182D02*
G75*
G02X147230000Y-102490000I1602385J-1892818D01*
G01*
X143157453Y-104391103D02*
G75*
G03X147230000Y-102490000I1592547J1901103D01*
G01*
X143150000Y-100600000D02*
X143150000Y-104350000D01*
G04 #@! TO.C,*
X157000000Y-74970000D02*
X157000000Y-61270000D01*
X148000000Y-76150000D02*
X156250000Y-76150000D01*
X148000000Y-61270000D02*
X148000000Y-76150000D01*
X157000000Y-61270000D02*
X148000000Y-61270000D01*
X157000000Y-64450000D02*
X148000000Y-64450000D01*
X157005425Y-74966787D02*
X156250000Y-76150000D01*
X136200000Y-125550000D02*
X136200000Y-120350000D01*
X136200000Y-120350000D02*
X126700000Y-120350000D01*
X126700000Y-120350000D02*
X126700000Y-125550000D01*
X126700000Y-125550000D02*
X136200000Y-125550000D01*
X137800000Y-122950000D02*
X136200000Y-122950000D01*
X125100000Y-122950000D02*
X126700000Y-122950000D01*
X134775000Y-125550000D02*
X134775000Y-120350000D01*
X134200000Y-144300000D02*
G75*
G03X134200000Y-144300000I-4000000J0D01*
G01*
X130200000Y-148250000D02*
X130200000Y-147050000D01*
X129550000Y-147650000D02*
X130850000Y-147650000D01*
X129350000Y-136550000D02*
X130650000Y-136550000D01*
X130000000Y-137150000D02*
X130000000Y-135950000D01*
X134000000Y-133200000D02*
G75*
G03X134000000Y-133200000I-4000000J0D01*
G01*
X146500000Y-110510000D02*
X144500000Y-110510000D01*
X144500000Y-110510000D02*
X144500000Y-114510000D01*
X144500000Y-114510000D02*
X146500000Y-114510000D01*
X146500000Y-114510000D02*
X146500000Y-110510000D01*
X145500000Y-108700000D02*
X145500000Y-110510000D01*
X145500000Y-116320000D02*
X145500000Y-114510000D01*
X146500000Y-111110000D02*
X144500000Y-111110000D01*
X114000000Y-149350000D02*
X114000000Y-144950000D01*
X114000000Y-144950000D02*
X104000000Y-144950000D01*
X104000000Y-144950000D02*
X104000000Y-149350000D01*
X104000000Y-149350000D02*
X114000000Y-149350000D01*
X114000000Y-148080000D02*
X104000000Y-148080000D01*
X110850000Y-149350000D02*
X110850000Y-148080000D01*
X107150000Y-149350000D02*
X107150000Y-148080000D01*
X112400000Y-144950000D02*
X112400000Y-141150000D01*
X110700000Y-144950000D02*
X110700000Y-144850000D01*
X109000000Y-144950000D02*
X109000000Y-141150000D01*
X107300000Y-144950000D02*
X107300000Y-144850000D01*
X105600000Y-144950000D02*
X105600000Y-141150000D01*
G04 #@! TD*
G04 #@! TO.C,*
D11*
G04 #@! TO.C,NPN*
G04 #@! TO.C,*
X90880952Y-157852380D02*
X90880952Y-156852380D01*
X91214285Y-157566666D01*
X91547619Y-156852380D01*
X91547619Y-157852380D01*
X92166666Y-157852380D02*
X92071428Y-157804761D01*
X92023809Y-157757142D01*
X91976190Y-157661904D01*
X91976190Y-157376190D01*
X92023809Y-157280952D01*
X92071428Y-157233333D01*
X92166666Y-157185714D01*
X92309523Y-157185714D01*
X92404761Y-157233333D01*
X92452380Y-157280952D01*
X92499999Y-157376190D01*
X92499999Y-157661904D01*
X92452380Y-157757142D01*
X92404761Y-157804761D01*
X92309523Y-157852380D01*
X92166666Y-157852380D01*
X93357142Y-157185714D02*
X93357142Y-157852380D01*
X92928571Y-157185714D02*
X92928571Y-157709523D01*
X92976190Y-157804761D01*
X93071428Y-157852380D01*
X93214285Y-157852380D01*
X93309523Y-157804761D01*
X93357142Y-157757142D01*
X93833333Y-157185714D02*
X93833333Y-157852380D01*
X93833333Y-157280952D02*
X93880952Y-157233333D01*
X93976190Y-157185714D01*
X94119047Y-157185714D01*
X94214285Y-157233333D01*
X94261904Y-157328571D01*
X94261904Y-157852380D01*
X94595238Y-157185714D02*
X94976190Y-157185714D01*
X94738095Y-156852380D02*
X94738095Y-157709523D01*
X94785714Y-157804761D01*
X94880952Y-157852380D01*
X94976190Y-157852380D01*
X95309523Y-157852380D02*
X95309523Y-157185714D01*
X95309523Y-156852380D02*
X95261904Y-156900000D01*
X95309523Y-156947619D01*
X95357142Y-156900000D01*
X95309523Y-156852380D01*
X95309523Y-156947619D01*
X95785714Y-157185714D02*
X95785714Y-157852380D01*
X95785714Y-157280952D02*
X95833333Y-157233333D01*
X95928571Y-157185714D01*
X96071428Y-157185714D01*
X96166666Y-157233333D01*
X96214285Y-157328571D01*
X96214285Y-157852380D01*
X97119047Y-157185714D02*
X97119047Y-157995238D01*
X97071428Y-158090476D01*
X97023809Y-158138095D01*
X96928571Y-158185714D01*
X96785714Y-158185714D01*
X96690476Y-158138095D01*
X97119047Y-157804761D02*
X97023809Y-157852380D01*
X96833333Y-157852380D01*
X96738095Y-157804761D01*
X96690476Y-157757142D01*
X96642857Y-157661904D01*
X96642857Y-157376190D01*
X96690476Y-157280952D01*
X96738095Y-157233333D01*
X96833333Y-157185714D01*
X97023809Y-157185714D01*
X97119047Y-157233333D01*
X97595238Y-157852380D02*
X97595238Y-156852380D01*
X97595238Y-157328571D02*
X98166666Y-157328571D01*
X98166666Y-157852380D02*
X98166666Y-156852380D01*
X98785714Y-157852380D02*
X98690476Y-157804761D01*
X98642857Y-157757142D01*
X98595238Y-157661904D01*
X98595238Y-157376190D01*
X98642857Y-157280952D01*
X98690476Y-157233333D01*
X98785714Y-157185714D01*
X98928571Y-157185714D01*
X99023809Y-157233333D01*
X99071428Y-157280952D01*
X99119047Y-157376190D01*
X99119047Y-157661904D01*
X99071428Y-157757142D01*
X99023809Y-157804761D01*
X98928571Y-157852380D01*
X98785714Y-157852380D01*
X99690476Y-157852380D02*
X99595238Y-157804761D01*
X99547619Y-157709523D01*
X99547619Y-156852380D01*
X100452380Y-157804761D02*
X100357142Y-157852380D01*
X100166666Y-157852380D01*
X100071428Y-157804761D01*
X100023809Y-157709523D01*
X100023809Y-157328571D01*
X100071428Y-157233333D01*
X100166666Y-157185714D01*
X100357142Y-157185714D01*
X100452380Y-157233333D01*
X100499999Y-157328571D01*
X100499999Y-157423809D01*
X100023809Y-157519047D01*
X100690476Y-157947619D02*
X101452380Y-157947619D01*
X102119047Y-156852380D02*
X101928571Y-156852380D01*
X101833333Y-156900000D01*
X101785714Y-156947619D01*
X101690476Y-157090476D01*
X101642857Y-157280952D01*
X101642857Y-157661904D01*
X101690476Y-157757142D01*
X101738095Y-157804761D01*
X101833333Y-157852380D01*
X102023809Y-157852380D01*
X102119047Y-157804761D01*
X102166666Y-157757142D01*
X102214285Y-157661904D01*
X102214285Y-157423809D01*
X102166666Y-157328571D01*
X102119047Y-157280952D01*
X102023809Y-157233333D01*
X101833333Y-157233333D01*
X101738095Y-157280952D01*
X101690476Y-157328571D01*
X101642857Y-157423809D01*
X102642857Y-157757142D02*
X102690476Y-157804761D01*
X102642857Y-157852380D01*
X102595238Y-157804761D01*
X102642857Y-157757142D01*
X102642857Y-157852380D01*
X103547619Y-157185714D02*
X103547619Y-157852380D01*
X103309523Y-156804761D02*
X103071428Y-157519047D01*
X103690476Y-157519047D01*
X104071428Y-157852380D02*
X104071428Y-157185714D01*
X104071428Y-157280952D02*
X104119047Y-157233333D01*
X104214285Y-157185714D01*
X104357142Y-157185714D01*
X104452380Y-157233333D01*
X104499999Y-157328571D01*
X104499999Y-157852380D01*
X104499999Y-157328571D02*
X104547619Y-157233333D01*
X104642857Y-157185714D01*
X104785714Y-157185714D01*
X104880952Y-157233333D01*
X104928571Y-157328571D01*
X104928571Y-157852380D01*
X105404761Y-157852380D02*
X105404761Y-157185714D01*
X105404761Y-157280952D02*
X105452380Y-157233333D01*
X105547619Y-157185714D01*
X105690476Y-157185714D01*
X105785714Y-157233333D01*
X105833333Y-157328571D01*
X105833333Y-157852380D01*
X105833333Y-157328571D02*
X105880952Y-157233333D01*
X105976190Y-157185714D01*
X106119047Y-157185714D01*
X106214285Y-157233333D01*
X106261904Y-157328571D01*
X106261904Y-157852380D01*
X106499999Y-157947619D02*
X107261904Y-157947619D01*
X107499999Y-157852380D02*
X107499999Y-156852380D01*
X107833333Y-157566666D01*
X108166666Y-156852380D01*
X108166666Y-157852380D01*
X109071428Y-156852380D02*
X108880952Y-156852380D01*
X108785714Y-156900000D01*
X108738095Y-156947619D01*
X108642857Y-157090476D01*
X108595238Y-157280952D01*
X108595238Y-157661904D01*
X108642857Y-157757142D01*
X108690476Y-157804761D01*
X108785714Y-157852380D01*
X108976190Y-157852380D01*
X109071428Y-157804761D01*
X109119047Y-157757142D01*
X109166666Y-157661904D01*
X109166666Y-157423809D01*
X109119047Y-157328571D01*
X109071428Y-157280952D01*
X108976190Y-157233333D01*
X108785714Y-157233333D01*
X108690476Y-157280952D01*
X108642857Y-157328571D01*
X108595238Y-157423809D01*
G04 #@! TD*
M02*
