G04 #@! TF.GenerationSoftware,KiCad,Pcbnew,(5.0.0)*
G04 #@! TF.CreationDate,2018-07-27T16:18:26+01:00*
G04 #@! TF.ProjectId,OpenSpritzer,4F70656E53707269747A65722E6B6963,rev?*
G04 #@! TF.SameCoordinates,Original*
G04 #@! TF.FileFunction,Copper,L1,Top,Signal*
G04 #@! TF.FilePolarity,Positive*
%FSLAX46Y46*%
G04 Gerber Fmt 4.6, Leading zero omitted, Abs format (unit mm)*
G04 Created by KiCad (PCBNEW (5.0.0)) date 07/27/18 16:18:26*
%MOMM*%
%LPD*%
G01*
G04 APERTURE LIST*
G04 #@! TA.AperFunction,ComponentPad*
%ADD10O,1.400000X2.500000*%
G04 #@! TD*
G04 #@! TA.AperFunction,WasherPad*
%ADD11C,4.000000*%
G04 #@! TD*
G04 #@! TA.AperFunction,ComponentPad*
%ADD12C,1.800000*%
G04 #@! TD*
G04 #@! TA.AperFunction,ComponentPad*
%ADD13C,1.400000*%
G04 #@! TD*
G04 #@! TA.AperFunction,ComponentPad*
%ADD14R,1.400000X1.400000*%
G04 #@! TD*
G04 #@! TA.AperFunction,ComponentPad*
%ADD15O,1.600000X1.600000*%
G04 #@! TD*
G04 #@! TA.AperFunction,ComponentPad*
%ADD16R,1.600000X1.600000*%
G04 #@! TD*
G04 #@! TA.AperFunction,ComponentPad*
%ADD17R,1.800000X1.800000*%
G04 #@! TD*
G04 #@! TA.AperFunction,ComponentPad*
%ADD18O,2.600000X2.600000*%
G04 #@! TD*
G04 #@! TA.AperFunction,ComponentPad*
%ADD19R,2.600000X2.600000*%
G04 #@! TD*
G04 #@! TA.AperFunction,ComponentPad*
%ADD20O,1.510000X3.010000*%
G04 #@! TD*
G04 #@! TA.AperFunction,ComponentPad*
%ADD21O,1.400000X1.400000*%
G04 #@! TD*
G04 #@! TA.AperFunction,ViaPad*
%ADD22C,0.800000*%
G04 #@! TD*
G04 #@! TA.AperFunction,Conductor*
%ADD23C,0.250000*%
G04 #@! TD*
G04 #@! TA.AperFunction,Conductor*
%ADD24C,1.000000*%
G04 #@! TD*
G04 APERTURE END LIST*
D10*
G04 #@! TO.P,Q1,3*
G04 #@! TO.N,Net-(D3-Pad2)*
X106000000Y-98000000D03*
G04 #@! TO.P,Q1,1*
G04 #@! TO.N,GNDREF*
X102000000Y-98000000D03*
G04 #@! TO.P,Q1,2*
G04 #@! TO.N,Net-(Q1-Pad2)*
X104000000Y-98000000D03*
G04 #@! TD*
D11*
G04 #@! TO.P,RV1,0*
G04 #@! TO.N,*
X92000000Y-92400000D03*
X92000000Y-83600000D03*
D12*
G04 #@! TO.P,RV1,1*
G04 #@! TO.N,GNDREF*
X85000000Y-90500000D03*
G04 #@! TO.P,RV1,2*
G04 #@! TO.N,Net-(R1-Pad1)*
X85000000Y-88000000D03*
G04 #@! TO.P,RV1,3*
G04 #@! TO.N,Net-(A1-Pad27)*
X85000000Y-85500000D03*
G04 #@! TD*
D13*
G04 #@! TO.P,SW1,6*
G04 #@! TO.N,Net-(A1-Pad8)*
X84700000Y-111000000D03*
G04 #@! TO.P,SW1,5*
G04 #@! TO.N,Net-(D2-Pad2)*
X84700000Y-108500000D03*
G04 #@! TO.P,SW1,4*
G04 #@! TO.N,Net-(A1-Pad27)*
X84700000Y-106000000D03*
G04 #@! TO.P,SW1,3*
G04 #@! TO.N,Net-(A1-Pad13)*
X88000000Y-111000000D03*
G04 #@! TO.P,SW1,2*
G04 #@! TO.N,Net-(R2-Pad2)*
X88000000Y-108500000D03*
D14*
G04 #@! TO.P,SW1,1*
G04 #@! TO.N,Net-(A1-Pad27)*
X88000000Y-106000000D03*
G04 #@! TD*
D15*
G04 #@! TO.P,A1,16*
G04 #@! TO.N,Net-(A1-Pad16)*
X128240000Y-122560000D03*
G04 #@! TO.P,A1,15*
G04 #@! TO.N,Net-(A1-Pad15)*
X113000000Y-122560000D03*
G04 #@! TO.P,A1,30*
G04 #@! TO.N,Net-(A1-Pad30)*
X128240000Y-87000000D03*
G04 #@! TO.P,A1,14*
G04 #@! TO.N,Net-(A1-Pad14)*
X113000000Y-120020000D03*
G04 #@! TO.P,A1,29*
G04 #@! TO.N,GNDREF*
X128240000Y-89540000D03*
G04 #@! TO.P,A1,13*
G04 #@! TO.N,Net-(A1-Pad13)*
X113000000Y-117480000D03*
G04 #@! TO.P,A1,28*
G04 #@! TO.N,Net-(A1-Pad28)*
X128240000Y-92080000D03*
G04 #@! TO.P,A1,12*
G04 #@! TO.N,Net-(A1-Pad12)*
X113000000Y-114940000D03*
G04 #@! TO.P,A1,27*
G04 #@! TO.N,Net-(A1-Pad27)*
X128240000Y-94620000D03*
G04 #@! TO.P,A1,11*
G04 #@! TO.N,Net-(A1-Pad11)*
X113000000Y-112400000D03*
G04 #@! TO.P,A1,26*
G04 #@! TO.N,Net-(A1-Pad26)*
X128240000Y-97160000D03*
G04 #@! TO.P,A1,10*
G04 #@! TO.N,Net-(A1-Pad10)*
X113000000Y-109860000D03*
G04 #@! TO.P,A1,25*
G04 #@! TO.N,Net-(A1-Pad25)*
X128240000Y-99700000D03*
G04 #@! TO.P,A1,9*
G04 #@! TO.N,Net-(A1-Pad9)*
X113000000Y-107320000D03*
G04 #@! TO.P,A1,24*
G04 #@! TO.N,Net-(A1-Pad24)*
X128240000Y-102240000D03*
G04 #@! TO.P,A1,8*
G04 #@! TO.N,Net-(A1-Pad8)*
X113000000Y-104780000D03*
G04 #@! TO.P,A1,23*
G04 #@! TO.N,Net-(A1-Pad23)*
X128240000Y-104780000D03*
G04 #@! TO.P,A1,7*
G04 #@! TO.N,Net-(A1-Pad7)*
X113000000Y-102240000D03*
G04 #@! TO.P,A1,22*
G04 #@! TO.N,Net-(A1-Pad22)*
X128240000Y-107320000D03*
G04 #@! TO.P,A1,6*
G04 #@! TO.N,Net-(A1-Pad6)*
X113000000Y-99700000D03*
G04 #@! TO.P,A1,21*
G04 #@! TO.N,Net-(A1-Pad21)*
X128240000Y-109860000D03*
G04 #@! TO.P,A1,5*
G04 #@! TO.N,Net-(A1-Pad5)*
X113000000Y-97160000D03*
G04 #@! TO.P,A1,20*
G04 #@! TO.N,Net-(A1-Pad20)*
X128240000Y-112400000D03*
G04 #@! TO.P,A1,4*
G04 #@! TO.N,GNDREF*
X113000000Y-94620000D03*
G04 #@! TO.P,A1,19*
G04 #@! TO.N,Net-(A1-Pad19)*
X128240000Y-114940000D03*
G04 #@! TO.P,A1,3*
G04 #@! TO.N,Net-(A1-Pad3)*
X113000000Y-92080000D03*
G04 #@! TO.P,A1,18*
G04 #@! TO.N,Net-(A1-Pad18)*
X128240000Y-117480000D03*
G04 #@! TO.P,A1,2*
G04 #@! TO.N,Net-(A1-Pad2)*
X113000000Y-89540000D03*
G04 #@! TO.P,A1,17*
G04 #@! TO.N,Net-(A1-Pad17)*
X128240000Y-120020000D03*
D16*
G04 #@! TO.P,A1,1*
G04 #@! TO.N,Net-(A1-Pad1)*
X113000000Y-87000000D03*
G04 #@! TD*
D12*
G04 #@! TO.P,D1,2*
G04 #@! TO.N,Net-(D1-Pad2)*
X87000000Y-100540000D03*
D17*
G04 #@! TO.P,D1,1*
G04 #@! TO.N,GNDREF*
X87000000Y-98000000D03*
G04 #@! TD*
D16*
G04 #@! TO.P,D2,1*
G04 #@! TO.N,Net-(D2-Pad1)*
X101000000Y-105500000D03*
D15*
G04 #@! TO.P,D2,2*
G04 #@! TO.N,Net-(D2-Pad2)*
X93380000Y-105500000D03*
G04 #@! TD*
D18*
G04 #@! TO.P,D3,2*
G04 #@! TO.N,Net-(D3-Pad2)*
X100740000Y-117500000D03*
D19*
G04 #@! TO.P,D3,1*
G04 #@! TO.N,+24V*
X85500000Y-117500000D03*
G04 #@! TD*
D20*
G04 #@! TO.P,J1,2*
G04 #@! TO.N,Net-(A1-Pad27)*
X88540000Y-126000000D03*
G04 #@! TO.P,J1,1*
G04 #@! TO.N,Net-(J1-Pad1)*
X86000000Y-126000000D03*
G04 #@! TD*
G04 #@! TO.P,J2,2*
G04 #@! TO.N,+24V*
X94540000Y-126000000D03*
G04 #@! TO.P,J2,1*
G04 #@! TO.N,GNDREF*
X92000000Y-126000000D03*
G04 #@! TD*
G04 #@! TO.P,J3,1*
G04 #@! TO.N,+24V*
X98000000Y-126000000D03*
G04 #@! TO.P,J3,2*
G04 #@! TO.N,Net-(D3-Pad2)*
X100540000Y-126000000D03*
G04 #@! TD*
D13*
G04 #@! TO.P,R1,1*
G04 #@! TO.N,Net-(R1-Pad1)*
X93000000Y-98000000D03*
D21*
G04 #@! TO.P,R1,2*
G04 #@! TO.N,Net-(A1-Pad19)*
X93000000Y-100540000D03*
G04 #@! TD*
G04 #@! TO.P,R2,2*
G04 #@! TO.N,Net-(R2-Pad2)*
X91000000Y-112040000D03*
D13*
G04 #@! TO.P,R2,1*
G04 #@! TO.N,Net-(D1-Pad2)*
X91000000Y-109500000D03*
G04 #@! TD*
D21*
G04 #@! TO.P,R3,2*
G04 #@! TO.N,Net-(A1-Pad5)*
X94500000Y-109460000D03*
D13*
G04 #@! TO.P,R3,1*
G04 #@! TO.N,Net-(J1-Pad1)*
X94500000Y-112000000D03*
G04 #@! TD*
D21*
G04 #@! TO.P,R4,2*
G04 #@! TO.N,Net-(D2-Pad1)*
X97960000Y-109000000D03*
D13*
G04 #@! TO.P,R4,1*
G04 #@! TO.N,Net-(Q1-Pad2)*
X100500000Y-109000000D03*
G04 #@! TD*
G04 #@! TO.P,R5,1*
G04 #@! TO.N,Net-(J1-Pad1)*
X98000000Y-112000000D03*
D21*
G04 #@! TO.P,R5,2*
G04 #@! TO.N,GNDREF*
X100540000Y-112000000D03*
G04 #@! TD*
G04 #@! TO.P,R6,2*
G04 #@! TO.N,Net-(Q1-Pad2)*
X104500000Y-108960000D03*
D13*
G04 #@! TO.P,R6,1*
G04 #@! TO.N,GNDREF*
X104500000Y-111500000D03*
G04 #@! TD*
D22*
G04 #@! TO.N,Net-(A1-Pad13)*
X92500000Y-115000000D03*
G04 #@! TD*
D23*
G04 #@! TO.N,Net-(A1-Pad13)*
X92500000Y-115000000D02*
X90500000Y-115000000D01*
X88000000Y-112500000D02*
X88000000Y-111000000D01*
X90500000Y-115000000D02*
X88000000Y-112500000D01*
G04 #@! TO.N,Net-(A1-Pad27)*
X84700000Y-106000000D02*
X88000000Y-106000000D01*
X85000000Y-85500000D02*
X85500000Y-85500000D01*
X85500000Y-85500000D02*
X86500000Y-86500000D01*
X86500000Y-86500000D02*
X86500000Y-92000000D01*
X84700000Y-93800000D02*
X84700000Y-106000000D01*
X86500000Y-92000000D02*
X84700000Y-93800000D01*
X127108630Y-94620000D02*
X126488630Y-94000000D01*
X128240000Y-94620000D02*
X127108630Y-94620000D01*
X126488630Y-94000000D02*
X126488630Y-93988630D01*
X126488630Y-93988630D02*
X125500000Y-93000000D01*
X125500000Y-88363590D02*
X119136410Y-82000000D01*
X125500000Y-93000000D02*
X125500000Y-88363590D01*
X119136410Y-82000000D02*
X105500000Y-82000000D01*
X88000000Y-89000000D02*
X87000000Y-90000000D01*
X87000000Y-90000000D02*
X87000000Y-91500000D01*
X87000000Y-91500000D02*
X86500000Y-92000000D01*
X88540000Y-126000000D02*
X88540000Y-126750000D01*
X83500000Y-127500000D02*
X83500000Y-107200000D01*
X83500000Y-107200000D02*
X84700000Y-106000000D01*
X88540000Y-126000000D02*
X88540000Y-126960000D01*
X88540000Y-126960000D02*
X87000000Y-128500000D01*
X87000000Y-128500000D02*
X84500000Y-128500000D01*
X84500000Y-128500000D02*
X83500000Y-127500000D01*
X88000000Y-89000000D02*
X90500000Y-86500000D01*
X90500000Y-86500000D02*
X92500000Y-86500000D01*
X92500000Y-86500000D02*
X93000000Y-86500000D01*
X93000000Y-86500000D02*
X95500000Y-84000000D01*
X95500000Y-84000000D02*
X95500000Y-83000000D01*
X95500000Y-83000000D02*
X96500000Y-82000000D01*
X96500000Y-82000000D02*
X105500000Y-82000000D01*
G04 #@! TO.N,Net-(A1-Pad5)*
X94500000Y-109460000D02*
X100000000Y-103960000D01*
X100000000Y-103960000D02*
X100000000Y-97000000D01*
X100000000Y-97000000D02*
X101000000Y-96000000D01*
X111840000Y-96000000D02*
X113000000Y-97160000D01*
X101000000Y-96000000D02*
X111840000Y-96000000D01*
G04 #@! TO.N,Net-(A1-Pad19)*
X125000000Y-88500000D02*
X125000000Y-111700000D01*
X93000000Y-100540000D02*
X93989949Y-100540000D01*
X93989949Y-100540000D02*
X95000000Y-99529949D01*
X125000000Y-111700000D02*
X128240000Y-114940000D01*
X95000000Y-86000000D02*
X98500000Y-82500000D01*
X95000000Y-99529949D02*
X95000000Y-86000000D01*
X98500000Y-82500000D02*
X119000000Y-82500000D01*
X119000000Y-82500000D02*
X125000000Y-88500000D01*
G04 #@! TO.N,Net-(D1-Pad2)*
X91000000Y-104540000D02*
X87000000Y-100540000D01*
X91000000Y-109500000D02*
X91000000Y-104540000D01*
G04 #@! TO.N,Net-(D2-Pad1)*
X97960000Y-108010051D02*
X97960000Y-109000000D01*
X97960000Y-107490000D02*
X97960000Y-108010051D01*
X99950000Y-105500000D02*
X97960000Y-107490000D01*
X101000000Y-105500000D02*
X99950000Y-105500000D01*
D24*
G04 #@! TO.N,Net-(D3-Pad2)*
X100740000Y-125800000D02*
X100540000Y-126000000D01*
X100740000Y-117500000D02*
X100740000Y-125800000D01*
X106000000Y-98550000D02*
X106000000Y-98000000D01*
X108000000Y-100550000D02*
X106000000Y-98550000D01*
X108000000Y-113500000D02*
X108000000Y-100550000D01*
X105299999Y-116200001D02*
X108000000Y-113500000D01*
X102039999Y-116200001D02*
X105299999Y-116200001D01*
X100740000Y-117500000D02*
X102039999Y-116200001D01*
G04 #@! TO.N,+24V*
X94540000Y-126000000D02*
X98000000Y-126000000D01*
D23*
G04 #@! TO.N,Net-(J1-Pad1)*
X98000000Y-112000000D02*
X94500000Y-112000000D01*
X94500000Y-112989949D02*
X94500000Y-112000000D01*
X94500000Y-115745000D02*
X94500000Y-112989949D01*
X86000000Y-124245000D02*
X94500000Y-115745000D01*
X86000000Y-126000000D02*
X86000000Y-124245000D01*
G04 #@! TO.N,Net-(Q1-Pad2)*
X104460000Y-109000000D02*
X104500000Y-108960000D01*
X100500000Y-109000000D02*
X104460000Y-109000000D01*
X104500000Y-98500000D02*
X104000000Y-98000000D01*
X104500000Y-108960000D02*
X104500000Y-98500000D01*
G04 #@! TD*
M02*
