M48
;DRILL file {KiCad (5.0.0)} date 07/27/18 16:18:22
;FORMAT={-:-/ absolute / metric / decimal}
FMAT,2
METRIC,TZ
T1C0.400
T2C0.700
T3C0.800
T4C0.900
T5C1.000
T6C1.300
%
G90
G05
M71
T1
X92.5Y-115.
T2
X91.Y-109.5
X97.96Y-109.
X100.5Y-109.
X98.Y-112.
X100.54Y-112.
X94.5Y-109.46
X94.5Y-112.
X91.Y-112.04
X104.5Y-108.96
X104.5Y-111.5
X93.Y-98.
X93.Y-100.54
T3
X113.Y-87.
X113.Y-89.54
X113.Y-92.08
X113.Y-94.62
X113.Y-97.16
X113.Y-99.7
X113.Y-102.24
X113.Y-104.78
X113.Y-107.32
X113.Y-109.86
X113.Y-112.4
X113.Y-114.94
X113.Y-117.48
X113.Y-120.02
X113.Y-122.56
X128.24Y-87.
X128.24Y-89.54
X128.24Y-92.08
X128.24Y-94.62
X128.24Y-97.16
X128.24Y-99.7
X128.24Y-102.24
X128.24Y-104.78
X128.24Y-107.32
X128.24Y-109.86
X128.24Y-112.4
X128.24Y-114.94
X128.24Y-117.48
X128.24Y-120.02
X128.24Y-122.56
X102.Y-98.
X104.Y-98.
X106.Y-98.
X93.38Y-105.5
X101.Y-105.5
T4
X87.Y-98.
X87.Y-100.54
X84.7Y-106.
X84.7Y-108.5
X84.7Y-111.
X88.Y-106.
X88.Y-108.5
X88.Y-111.
T5
X98.Y-126.
X100.54Y-126.
X92.Y-126.
X94.54Y-126.
X86.Y-126.
X88.54Y-126.
X85.Y-85.5
X85.Y-88.
X85.Y-90.5
T6
X85.5Y-117.5
X100.74Y-117.5
T0
M30
