G04 #@! TF.GenerationSoftware,KiCad,Pcbnew,(5.0.0)*
G04 #@! TF.CreationDate,2018-07-27T16:18:26+01:00*
G04 #@! TF.ProjectId,OpenSpritzer,4F70656E53707269747A65722E6B6963,rev?*
G04 #@! TF.SameCoordinates,Original*
G04 #@! TF.FileFunction,Legend,Bot*
G04 #@! TF.FilePolarity,Positive*
%FSLAX46Y46*%
G04 Gerber Fmt 4.6, Leading zero omitted, Abs format (unit mm)*
G04 Created by KiCad (PCBNEW (5.0.0)) date 07/27/18 16:18:26*
%MOMM*%
%LPD*%
G01*
G04 APERTURE LIST*
%ADD10C,0.300000*%
G04 APERTURE END LIST*
D10*
X105557142Y-122019285D02*
X105628571Y-121805000D01*
X105628571Y-121447857D01*
X105557142Y-121305000D01*
X105485714Y-121233571D01*
X105342857Y-121162142D01*
X105200000Y-121162142D01*
X105057142Y-121233571D01*
X104985714Y-121305000D01*
X104914285Y-121447857D01*
X104842857Y-121733571D01*
X104771428Y-121876428D01*
X104700000Y-121947857D01*
X104557142Y-122019285D01*
X104414285Y-122019285D01*
X104271428Y-121947857D01*
X104200000Y-121876428D01*
X104128571Y-121733571D01*
X104128571Y-121376428D01*
X104200000Y-121162142D01*
X105628571Y-120305000D02*
X105557142Y-120447857D01*
X105485714Y-120519285D01*
X105342857Y-120590714D01*
X104914285Y-120590714D01*
X104771428Y-120519285D01*
X104700000Y-120447857D01*
X104628571Y-120305000D01*
X104628571Y-120090714D01*
X104700000Y-119947857D01*
X104771428Y-119876428D01*
X104914285Y-119805000D01*
X105342857Y-119805000D01*
X105485714Y-119876428D01*
X105557142Y-119947857D01*
X105628571Y-120090714D01*
X105628571Y-120305000D01*
X104628571Y-118519285D02*
X105628571Y-118519285D01*
X104628571Y-119162142D02*
X105414285Y-119162142D01*
X105557142Y-119090714D01*
X105628571Y-118947857D01*
X105628571Y-118733571D01*
X105557142Y-118590714D01*
X105485714Y-118519285D01*
X105628571Y-117805000D02*
X104628571Y-117805000D01*
X104914285Y-117805000D02*
X104771428Y-117733571D01*
X104700000Y-117662142D01*
X104628571Y-117519285D01*
X104628571Y-117376428D01*
X105557142Y-116233571D02*
X105628571Y-116376428D01*
X105628571Y-116662142D01*
X105557142Y-116805000D01*
X105485714Y-116876428D01*
X105342857Y-116947857D01*
X104914285Y-116947857D01*
X104771428Y-116876428D01*
X104700000Y-116805000D01*
X104628571Y-116662142D01*
X104628571Y-116376428D01*
X104700000Y-116233571D01*
X105557142Y-115019285D02*
X105628571Y-115162142D01*
X105628571Y-115447857D01*
X105557142Y-115590714D01*
X105414285Y-115662142D01*
X104842857Y-115662142D01*
X104700000Y-115590714D01*
X104628571Y-115447857D01*
X104628571Y-115162142D01*
X104700000Y-115019285D01*
X104842857Y-114947857D01*
X104985714Y-114947857D01*
X105128571Y-115662142D01*
X105485714Y-114305000D02*
X105557142Y-114233571D01*
X105628571Y-114305000D01*
X105557142Y-114376428D01*
X105485714Y-114305000D01*
X105628571Y-114305000D01*
X104700000Y-114305000D02*
X104771428Y-114233571D01*
X104842857Y-114305000D01*
X104771428Y-114376428D01*
X104700000Y-114305000D01*
X104842857Y-114305000D01*
X108178571Y-121947857D02*
X106678571Y-121947857D01*
X108178571Y-121305000D02*
X107392857Y-121305000D01*
X107250000Y-121376428D01*
X107178571Y-121519285D01*
X107178571Y-121733571D01*
X107250000Y-121876428D01*
X107321428Y-121947857D01*
X107178571Y-120805000D02*
X107178571Y-120233571D01*
X106678571Y-120590714D02*
X107964285Y-120590714D01*
X108107142Y-120519285D01*
X108178571Y-120376428D01*
X108178571Y-120233571D01*
X107178571Y-119947857D02*
X107178571Y-119376428D01*
X106678571Y-119733571D02*
X107964285Y-119733571D01*
X108107142Y-119662142D01*
X108178571Y-119519285D01*
X108178571Y-119376428D01*
X107178571Y-118876428D02*
X108678571Y-118876428D01*
X107250000Y-118876428D02*
X107178571Y-118733571D01*
X107178571Y-118447857D01*
X107250000Y-118305000D01*
X107321428Y-118233571D01*
X107464285Y-118162142D01*
X107892857Y-118162142D01*
X108035714Y-118233571D01*
X108107142Y-118305000D01*
X108178571Y-118447857D01*
X108178571Y-118733571D01*
X108107142Y-118876428D01*
X108107142Y-117590714D02*
X108178571Y-117447857D01*
X108178571Y-117162142D01*
X108107142Y-117019285D01*
X107964285Y-116947857D01*
X107892857Y-116947857D01*
X107750000Y-117019285D01*
X107678571Y-117162142D01*
X107678571Y-117376428D01*
X107607142Y-117519285D01*
X107464285Y-117590714D01*
X107392857Y-117590714D01*
X107250000Y-117519285D01*
X107178571Y-117376428D01*
X107178571Y-117162142D01*
X107250000Y-117019285D01*
X108035714Y-116305000D02*
X108107142Y-116233571D01*
X108178571Y-116305000D01*
X108107142Y-116376428D01*
X108035714Y-116305000D01*
X108178571Y-116305000D01*
X107250000Y-116305000D02*
X107321428Y-116233571D01*
X107392857Y-116305000D01*
X107321428Y-116376428D01*
X107250000Y-116305000D01*
X107392857Y-116305000D01*
X106607142Y-114519285D02*
X108535714Y-115805000D01*
X106607142Y-112947857D02*
X108535714Y-114233571D01*
X108178571Y-112233571D02*
X108107142Y-112376428D01*
X108035714Y-112447857D01*
X107892857Y-112519285D01*
X107464285Y-112519285D01*
X107321428Y-112447857D01*
X107250000Y-112376428D01*
X107178571Y-112233571D01*
X107178571Y-112019285D01*
X107250000Y-111876428D01*
X107321428Y-111805000D01*
X107464285Y-111733571D01*
X107892857Y-111733571D01*
X108035714Y-111805000D01*
X108107142Y-111876428D01*
X108178571Y-112019285D01*
X108178571Y-112233571D01*
X107178571Y-111090714D02*
X108678571Y-111090714D01*
X107250000Y-111090714D02*
X107178571Y-110947857D01*
X107178571Y-110662142D01*
X107250000Y-110519285D01*
X107321428Y-110447857D01*
X107464285Y-110376428D01*
X107892857Y-110376428D01*
X108035714Y-110447857D01*
X108107142Y-110519285D01*
X108178571Y-110662142D01*
X108178571Y-110947857D01*
X108107142Y-111090714D01*
X108107142Y-109162142D02*
X108178571Y-109305000D01*
X108178571Y-109590714D01*
X108107142Y-109733571D01*
X107964285Y-109805000D01*
X107392857Y-109805000D01*
X107250000Y-109733571D01*
X107178571Y-109590714D01*
X107178571Y-109305000D01*
X107250000Y-109162142D01*
X107392857Y-109090714D01*
X107535714Y-109090714D01*
X107678571Y-109805000D01*
X107178571Y-108447857D02*
X108178571Y-108447857D01*
X107321428Y-108447857D02*
X107250000Y-108376428D01*
X107178571Y-108233571D01*
X107178571Y-108019285D01*
X107250000Y-107876428D01*
X107392857Y-107805000D01*
X108178571Y-107805000D01*
X107607142Y-107090714D02*
X107607142Y-105947857D01*
X108178571Y-105019285D02*
X108107142Y-105162142D01*
X107964285Y-105233571D01*
X106678571Y-105233571D01*
X108178571Y-103805000D02*
X107392857Y-103805000D01*
X107250000Y-103876428D01*
X107178571Y-104019285D01*
X107178571Y-104305000D01*
X107250000Y-104447857D01*
X108107142Y-103805000D02*
X108178571Y-103947857D01*
X108178571Y-104305000D01*
X108107142Y-104447857D01*
X107964285Y-104519285D01*
X107821428Y-104519285D01*
X107678571Y-104447857D01*
X107607142Y-104305000D01*
X107607142Y-103947857D01*
X107535714Y-103805000D01*
X108178571Y-103090714D02*
X106678571Y-103090714D01*
X107250000Y-103090714D02*
X107178571Y-102947857D01*
X107178571Y-102662142D01*
X107250000Y-102519285D01*
X107321428Y-102447857D01*
X107464285Y-102376428D01*
X107892857Y-102376428D01*
X108035714Y-102447857D01*
X108107142Y-102519285D01*
X108178571Y-102662142D01*
X108178571Y-102947857D01*
X108107142Y-103090714D01*
X107178571Y-101876428D02*
X108178571Y-101590714D01*
X107464285Y-101305000D01*
X108178571Y-101019285D01*
X107178571Y-100733571D01*
X108178571Y-99519285D02*
X107392857Y-99519285D01*
X107250000Y-99590714D01*
X107178571Y-99733571D01*
X107178571Y-100019285D01*
X107250000Y-100162142D01*
X108107142Y-99519285D02*
X108178571Y-99662142D01*
X108178571Y-100019285D01*
X108107142Y-100162142D01*
X107964285Y-100233571D01*
X107821428Y-100233571D01*
X107678571Y-100162142D01*
X107607142Y-100019285D01*
X107607142Y-99662142D01*
X107535714Y-99519285D01*
X108178571Y-98805000D02*
X107178571Y-98805000D01*
X107464285Y-98805000D02*
X107321428Y-98733571D01*
X107250000Y-98662142D01*
X107178571Y-98519285D01*
X107178571Y-98376428D01*
X108107142Y-97305000D02*
X108178571Y-97447857D01*
X108178571Y-97733571D01*
X108107142Y-97876428D01*
X107964285Y-97947857D01*
X107392857Y-97947857D01*
X107250000Y-97876428D01*
X107178571Y-97733571D01*
X107178571Y-97447857D01*
X107250000Y-97305000D01*
X107392857Y-97233571D01*
X107535714Y-97233571D01*
X107678571Y-97947857D01*
X108035714Y-96590714D02*
X108107142Y-96519285D01*
X108178571Y-96590714D01*
X108107142Y-96662142D01*
X108035714Y-96590714D01*
X108178571Y-96590714D01*
X107178571Y-95876428D02*
X108178571Y-95876428D01*
X107321428Y-95876428D02*
X107250000Y-95805000D01*
X107178571Y-95662142D01*
X107178571Y-95447857D01*
X107250000Y-95305000D01*
X107392857Y-95233571D01*
X108178571Y-95233571D01*
X108107142Y-93947857D02*
X108178571Y-94090714D01*
X108178571Y-94376428D01*
X108107142Y-94519285D01*
X107964285Y-94590714D01*
X107392857Y-94590714D01*
X107250000Y-94519285D01*
X107178571Y-94376428D01*
X107178571Y-94090714D01*
X107250000Y-93947857D01*
X107392857Y-93876428D01*
X107535714Y-93876428D01*
X107678571Y-94590714D01*
X107178571Y-93447857D02*
X107178571Y-92876428D01*
X106678571Y-93233571D02*
X107964285Y-93233571D01*
X108107142Y-93162142D01*
X108178571Y-93019285D01*
X108178571Y-92876428D01*
X106607142Y-91305000D02*
X108535714Y-92590714D01*
X109728571Y-121947857D02*
X111228571Y-121947857D01*
X109800000Y-121947857D02*
X109728571Y-121805000D01*
X109728571Y-121519285D01*
X109800000Y-121376428D01*
X109871428Y-121305000D01*
X110014285Y-121233571D01*
X110442857Y-121233571D01*
X110585714Y-121305000D01*
X110657142Y-121376428D01*
X110728571Y-121519285D01*
X110728571Y-121805000D01*
X110657142Y-121947857D01*
X110728571Y-120590714D02*
X109728571Y-120590714D01*
X110014285Y-120590714D02*
X109871428Y-120519285D01*
X109800000Y-120447857D01*
X109728571Y-120305000D01*
X109728571Y-120162142D01*
X110728571Y-119447857D02*
X110657142Y-119590714D01*
X110585714Y-119662142D01*
X110442857Y-119733571D01*
X110014285Y-119733571D01*
X109871428Y-119662142D01*
X109800000Y-119590714D01*
X109728571Y-119447857D01*
X109728571Y-119233571D01*
X109800000Y-119090714D01*
X109871428Y-119019285D01*
X110014285Y-118947857D01*
X110442857Y-118947857D01*
X110585714Y-119019285D01*
X110657142Y-119090714D01*
X110728571Y-119233571D01*
X110728571Y-119447857D01*
X109728571Y-118305000D02*
X111014285Y-118305000D01*
X111157142Y-118376428D01*
X111228571Y-118519285D01*
X111228571Y-118590714D01*
X109228571Y-118305000D02*
X109300000Y-118376428D01*
X109371428Y-118305000D01*
X109300000Y-118233571D01*
X109228571Y-118305000D01*
X109371428Y-118305000D01*
X110657142Y-117019285D02*
X110728571Y-117162142D01*
X110728571Y-117447857D01*
X110657142Y-117590714D01*
X110514285Y-117662142D01*
X109942857Y-117662142D01*
X109800000Y-117590714D01*
X109728571Y-117447857D01*
X109728571Y-117162142D01*
X109800000Y-117019285D01*
X109942857Y-116947857D01*
X110085714Y-116947857D01*
X110228571Y-117662142D01*
X110657142Y-115662142D02*
X110728571Y-115805000D01*
X110728571Y-116090714D01*
X110657142Y-116233571D01*
X110585714Y-116305000D01*
X110442857Y-116376428D01*
X110014285Y-116376428D01*
X109871428Y-116305000D01*
X109800000Y-116233571D01*
X109728571Y-116090714D01*
X109728571Y-115805000D01*
X109800000Y-115662142D01*
X109728571Y-115233571D02*
X109728571Y-114662142D01*
X109228571Y-115019285D02*
X110514285Y-115019285D01*
X110657142Y-114947857D01*
X110728571Y-114805000D01*
X110728571Y-114662142D01*
X110657142Y-114233571D02*
X110728571Y-114090714D01*
X110728571Y-113805000D01*
X110657142Y-113662142D01*
X110514285Y-113590714D01*
X110442857Y-113590714D01*
X110300000Y-113662142D01*
X110228571Y-113805000D01*
X110228571Y-114019285D01*
X110157142Y-114162142D01*
X110014285Y-114233571D01*
X109942857Y-114233571D01*
X109800000Y-114162142D01*
X109728571Y-114019285D01*
X109728571Y-113805000D01*
X109800000Y-113662142D01*
X109157142Y-111876428D02*
X111085714Y-113162142D01*
X110728571Y-111162142D02*
X110657142Y-111305000D01*
X110585714Y-111376428D01*
X110442857Y-111447857D01*
X110014285Y-111447857D01*
X109871428Y-111376428D01*
X109800000Y-111305000D01*
X109728571Y-111162142D01*
X109728571Y-110947857D01*
X109800000Y-110805000D01*
X109871428Y-110733571D01*
X110014285Y-110662142D01*
X110442857Y-110662142D01*
X110585714Y-110733571D01*
X110657142Y-110805000D01*
X110728571Y-110947857D01*
X110728571Y-111162142D01*
X109728571Y-110019285D02*
X111228571Y-110019285D01*
X109800000Y-110019285D02*
X109728571Y-109876428D01*
X109728571Y-109590714D01*
X109800000Y-109447857D01*
X109871428Y-109376428D01*
X110014285Y-109305000D01*
X110442857Y-109305000D01*
X110585714Y-109376428D01*
X110657142Y-109447857D01*
X110728571Y-109590714D01*
X110728571Y-109876428D01*
X110657142Y-110019285D01*
X110657142Y-108090714D02*
X110728571Y-108233571D01*
X110728571Y-108519285D01*
X110657142Y-108662142D01*
X110514285Y-108733571D01*
X109942857Y-108733571D01*
X109800000Y-108662142D01*
X109728571Y-108519285D01*
X109728571Y-108233571D01*
X109800000Y-108090714D01*
X109942857Y-108019285D01*
X110085714Y-108019285D01*
X110228571Y-108733571D01*
X109728571Y-107376428D02*
X110728571Y-107376428D01*
X109871428Y-107376428D02*
X109800000Y-107305000D01*
X109728571Y-107162142D01*
X109728571Y-106947857D01*
X109800000Y-106805000D01*
X109942857Y-106733571D01*
X110728571Y-106733571D01*
X110657142Y-106090714D02*
X110728571Y-105947857D01*
X110728571Y-105662142D01*
X110657142Y-105519285D01*
X110514285Y-105447857D01*
X110442857Y-105447857D01*
X110300000Y-105519285D01*
X110228571Y-105662142D01*
X110228571Y-105876428D01*
X110157142Y-106019285D01*
X110014285Y-106090714D01*
X109942857Y-106090714D01*
X109800000Y-106019285D01*
X109728571Y-105876428D01*
X109728571Y-105662142D01*
X109800000Y-105519285D01*
X109728571Y-104805000D02*
X111228571Y-104805000D01*
X109800000Y-104805000D02*
X109728571Y-104662142D01*
X109728571Y-104376428D01*
X109800000Y-104233571D01*
X109871428Y-104162142D01*
X110014285Y-104090714D01*
X110442857Y-104090714D01*
X110585714Y-104162142D01*
X110657142Y-104233571D01*
X110728571Y-104376428D01*
X110728571Y-104662142D01*
X110657142Y-104805000D01*
X110728571Y-103447857D02*
X109728571Y-103447857D01*
X110014285Y-103447857D02*
X109871428Y-103376428D01*
X109800000Y-103305000D01*
X109728571Y-103162142D01*
X109728571Y-103019285D01*
X110728571Y-102519285D02*
X109728571Y-102519285D01*
X109228571Y-102519285D02*
X109300000Y-102590714D01*
X109371428Y-102519285D01*
X109300000Y-102447857D01*
X109228571Y-102519285D01*
X109371428Y-102519285D01*
X109728571Y-102019285D02*
X109728571Y-101447857D01*
X109228571Y-101805000D02*
X110514285Y-101805000D01*
X110657142Y-101733571D01*
X110728571Y-101590714D01*
X110728571Y-101447857D01*
X109728571Y-101090714D02*
X109728571Y-100305000D01*
X110728571Y-101090714D01*
X110728571Y-100305000D01*
X110657142Y-99162142D02*
X110728571Y-99305000D01*
X110728571Y-99590714D01*
X110657142Y-99733571D01*
X110514285Y-99805000D01*
X109942857Y-99805000D01*
X109800000Y-99733571D01*
X109728571Y-99590714D01*
X109728571Y-99305000D01*
X109800000Y-99162142D01*
X109942857Y-99090714D01*
X110085714Y-99090714D01*
X110228571Y-99805000D01*
X110728571Y-98447857D02*
X109728571Y-98447857D01*
X110014285Y-98447857D02*
X109871428Y-98376428D01*
X109800000Y-98305000D01*
X109728571Y-98162142D01*
X109728571Y-98019285D01*
X109157142Y-96447857D02*
X111085714Y-97733571D01*
X115853571Y-116642857D02*
X115853571Y-116357142D01*
X115925000Y-116214285D01*
X116067857Y-116071428D01*
X116353571Y-116000000D01*
X116853571Y-116000000D01*
X117139285Y-116071428D01*
X117282142Y-116214285D01*
X117353571Y-116357142D01*
X117353571Y-116642857D01*
X117282142Y-116785714D01*
X117139285Y-116928571D01*
X116853571Y-117000000D01*
X116353571Y-117000000D01*
X116067857Y-116928571D01*
X115925000Y-116785714D01*
X115853571Y-116642857D01*
X116353571Y-115357142D02*
X117853571Y-115357142D01*
X116425000Y-115357142D02*
X116353571Y-115214285D01*
X116353571Y-114928571D01*
X116425000Y-114785714D01*
X116496428Y-114714285D01*
X116639285Y-114642857D01*
X117067857Y-114642857D01*
X117210714Y-114714285D01*
X117282142Y-114785714D01*
X117353571Y-114928571D01*
X117353571Y-115214285D01*
X117282142Y-115357142D01*
X117282142Y-113428571D02*
X117353571Y-113571428D01*
X117353571Y-113857142D01*
X117282142Y-114000000D01*
X117139285Y-114071428D01*
X116567857Y-114071428D01*
X116425000Y-114000000D01*
X116353571Y-113857142D01*
X116353571Y-113571428D01*
X116425000Y-113428571D01*
X116567857Y-113357142D01*
X116710714Y-113357142D01*
X116853571Y-114071428D01*
X116353571Y-112714285D02*
X117353571Y-112714285D01*
X116496428Y-112714285D02*
X116425000Y-112642857D01*
X116353571Y-112500000D01*
X116353571Y-112285714D01*
X116425000Y-112142857D01*
X116567857Y-112071428D01*
X117353571Y-112071428D01*
X117282142Y-111428571D02*
X117353571Y-111214285D01*
X117353571Y-110857142D01*
X117282142Y-110714285D01*
X117210714Y-110642857D01*
X117067857Y-110571428D01*
X116925000Y-110571428D01*
X116782142Y-110642857D01*
X116710714Y-110714285D01*
X116639285Y-110857142D01*
X116567857Y-111142857D01*
X116496428Y-111285714D01*
X116425000Y-111357142D01*
X116282142Y-111428571D01*
X116139285Y-111428571D01*
X115996428Y-111357142D01*
X115925000Y-111285714D01*
X115853571Y-111142857D01*
X115853571Y-110785714D01*
X115925000Y-110571428D01*
X116353571Y-109928571D02*
X117853571Y-109928571D01*
X116425000Y-109928571D02*
X116353571Y-109785714D01*
X116353571Y-109500000D01*
X116425000Y-109357142D01*
X116496428Y-109285714D01*
X116639285Y-109214285D01*
X117067857Y-109214285D01*
X117210714Y-109285714D01*
X117282142Y-109357142D01*
X117353571Y-109500000D01*
X117353571Y-109785714D01*
X117282142Y-109928571D01*
X117353571Y-108571428D02*
X116353571Y-108571428D01*
X116639285Y-108571428D02*
X116496428Y-108500000D01*
X116425000Y-108428571D01*
X116353571Y-108285714D01*
X116353571Y-108142857D01*
X117353571Y-107642857D02*
X116353571Y-107642857D01*
X115853571Y-107642857D02*
X115925000Y-107714285D01*
X115996428Y-107642857D01*
X115925000Y-107571428D01*
X115853571Y-107642857D01*
X115996428Y-107642857D01*
X116353571Y-107142857D02*
X116353571Y-106571428D01*
X115853571Y-106928571D02*
X117139285Y-106928571D01*
X117282142Y-106857142D01*
X117353571Y-106714285D01*
X117353571Y-106571428D01*
X116353571Y-106214285D02*
X116353571Y-105428571D01*
X117353571Y-106214285D01*
X117353571Y-105428571D01*
X117282142Y-104285714D02*
X117353571Y-104428571D01*
X117353571Y-104714285D01*
X117282142Y-104857142D01*
X117139285Y-104928571D01*
X116567857Y-104928571D01*
X116425000Y-104857142D01*
X116353571Y-104714285D01*
X116353571Y-104428571D01*
X116425000Y-104285714D01*
X116567857Y-104214285D01*
X116710714Y-104214285D01*
X116853571Y-104928571D01*
X117353571Y-103571428D02*
X116353571Y-103571428D01*
X116639285Y-103571428D02*
X116496428Y-103500000D01*
X116425000Y-103428571D01*
X116353571Y-103285714D01*
X116353571Y-103142857D01*
X116353571Y-101642857D02*
X117353571Y-101285714D01*
X116353571Y-100928571D01*
X115853571Y-100071428D02*
X115853571Y-99928571D01*
X115925000Y-99785714D01*
X115996428Y-99714285D01*
X116139285Y-99642857D01*
X116425000Y-99571428D01*
X116782142Y-99571428D01*
X117067857Y-99642857D01*
X117210714Y-99714285D01*
X117282142Y-99785714D01*
X117353571Y-99928571D01*
X117353571Y-100071428D01*
X117282142Y-100214285D01*
X117210714Y-100285714D01*
X117067857Y-100357142D01*
X116782142Y-100428571D01*
X116425000Y-100428571D01*
X116139285Y-100357142D01*
X115996428Y-100285714D01*
X115925000Y-100214285D01*
X115853571Y-100071428D01*
X117210714Y-98928571D02*
X117282142Y-98857142D01*
X117353571Y-98928571D01*
X117282142Y-99000000D01*
X117210714Y-98928571D01*
X117353571Y-98928571D01*
X115853571Y-97928571D02*
X115853571Y-97785714D01*
X115925000Y-97642857D01*
X115996428Y-97571428D01*
X116139285Y-97500000D01*
X116425000Y-97428571D01*
X116782142Y-97428571D01*
X117067857Y-97500000D01*
X117210714Y-97571428D01*
X117282142Y-97642857D01*
X117353571Y-97785714D01*
X117353571Y-97928571D01*
X117282142Y-98071428D01*
X117210714Y-98142857D01*
X117067857Y-98214285D01*
X116782142Y-98285714D01*
X116425000Y-98285714D01*
X116139285Y-98214285D01*
X115996428Y-98142857D01*
X115925000Y-98071428D01*
X115853571Y-97928571D01*
X117353571Y-96000000D02*
X117353571Y-96857142D01*
X117353571Y-96428571D02*
X115853571Y-96428571D01*
X116067857Y-96571428D01*
X116210714Y-96714285D01*
X116282142Y-96857142D01*
X118546428Y-111928571D02*
X118475000Y-111857142D01*
X118403571Y-111714285D01*
X118403571Y-111357142D01*
X118475000Y-111214285D01*
X118546428Y-111142857D01*
X118689285Y-111071428D01*
X118832142Y-111071428D01*
X119046428Y-111142857D01*
X119903571Y-112000000D01*
X119903571Y-111071428D01*
X118403571Y-110142857D02*
X118403571Y-110000000D01*
X118475000Y-109857142D01*
X118546428Y-109785714D01*
X118689285Y-109714285D01*
X118975000Y-109642857D01*
X119332142Y-109642857D01*
X119617857Y-109714285D01*
X119760714Y-109785714D01*
X119832142Y-109857142D01*
X119903571Y-110000000D01*
X119903571Y-110142857D01*
X119832142Y-110285714D01*
X119760714Y-110357142D01*
X119617857Y-110428571D01*
X119332142Y-110500000D01*
X118975000Y-110500000D01*
X118689285Y-110428571D01*
X118546428Y-110357142D01*
X118475000Y-110285714D01*
X118403571Y-110142857D01*
X119903571Y-108214285D02*
X119903571Y-109071428D01*
X119903571Y-108642857D02*
X118403571Y-108642857D01*
X118617857Y-108785714D01*
X118760714Y-108928571D01*
X118832142Y-109071428D01*
X119046428Y-107357142D02*
X118975000Y-107500000D01*
X118903571Y-107571428D01*
X118760714Y-107642857D01*
X118689285Y-107642857D01*
X118546428Y-107571428D01*
X118475000Y-107500000D01*
X118403571Y-107357142D01*
X118403571Y-107071428D01*
X118475000Y-106928571D01*
X118546428Y-106857142D01*
X118689285Y-106785714D01*
X118760714Y-106785714D01*
X118903571Y-106857142D01*
X118975000Y-106928571D01*
X119046428Y-107071428D01*
X119046428Y-107357142D01*
X119117857Y-107500000D01*
X119189285Y-107571428D01*
X119332142Y-107642857D01*
X119617857Y-107642857D01*
X119760714Y-107571428D01*
X119832142Y-107500000D01*
X119903571Y-107357142D01*
X119903571Y-107071428D01*
X119832142Y-106928571D01*
X119760714Y-106857142D01*
X119617857Y-106785714D01*
X119332142Y-106785714D01*
X119189285Y-106857142D01*
X119117857Y-106928571D01*
X119046428Y-107071428D01*
X118403571Y-105857142D02*
X118403571Y-105714285D01*
X118475000Y-105571428D01*
X118546428Y-105500000D01*
X118689285Y-105428571D01*
X118975000Y-105357142D01*
X119332142Y-105357142D01*
X119617857Y-105428571D01*
X119760714Y-105500000D01*
X119832142Y-105571428D01*
X119903571Y-105714285D01*
X119903571Y-105857142D01*
X119832142Y-106000000D01*
X119760714Y-106071428D01*
X119617857Y-106142857D01*
X119332142Y-106214285D01*
X118975000Y-106214285D01*
X118689285Y-106142857D01*
X118546428Y-106071428D01*
X118475000Y-106000000D01*
X118403571Y-105857142D01*
X118403571Y-104857142D02*
X118403571Y-103857142D01*
X119903571Y-104500000D01*
X118546428Y-103357142D02*
X118475000Y-103285714D01*
X118403571Y-103142857D01*
X118403571Y-102785714D01*
X118475000Y-102642857D01*
X118546428Y-102571428D01*
X118689285Y-102500000D01*
X118832142Y-102500000D01*
X119046428Y-102571428D01*
X119903571Y-103428571D01*
X119903571Y-102500000D01*
X118403571Y-102000000D02*
X118403571Y-101000000D01*
X119903571Y-101642857D01*
X121667857Y-113678571D02*
X121739285Y-113464285D01*
X121810714Y-113392857D01*
X121953571Y-113321428D01*
X122167857Y-113321428D01*
X122310714Y-113392857D01*
X122382142Y-113464285D01*
X122453571Y-113607142D01*
X122453571Y-114178571D01*
X120953571Y-114178571D01*
X120953571Y-113678571D01*
X121025000Y-113535714D01*
X121096428Y-113464285D01*
X121239285Y-113392857D01*
X121382142Y-113392857D01*
X121525000Y-113464285D01*
X121596428Y-113535714D01*
X121667857Y-113678571D01*
X121667857Y-114178571D01*
X121453571Y-112821428D02*
X122453571Y-112464285D01*
X121453571Y-112107142D02*
X122453571Y-112464285D01*
X122810714Y-112607142D01*
X122882142Y-112678571D01*
X122953571Y-112821428D01*
X122025000Y-110464285D02*
X122025000Y-109750000D01*
X122453571Y-110607142D02*
X120953571Y-110107142D01*
X122453571Y-109607142D01*
X122453571Y-109107142D02*
X120953571Y-109107142D01*
X122025000Y-108607142D01*
X120953571Y-108107142D01*
X122453571Y-108107142D01*
X122310714Y-105392857D02*
X122382142Y-105464285D01*
X122453571Y-105678571D01*
X122453571Y-105821428D01*
X122382142Y-106035714D01*
X122239285Y-106178571D01*
X122096428Y-106250000D01*
X121810714Y-106321428D01*
X121596428Y-106321428D01*
X121310714Y-106250000D01*
X121167857Y-106178571D01*
X121025000Y-106035714D01*
X120953571Y-105821428D01*
X120953571Y-105678571D01*
X121025000Y-105464285D01*
X121096428Y-105392857D01*
X122453571Y-104750000D02*
X120953571Y-104750000D01*
X122453571Y-104107142D02*
X121667857Y-104107142D01*
X121525000Y-104178571D01*
X121453571Y-104321428D01*
X121453571Y-104535714D01*
X121525000Y-104678571D01*
X121596428Y-104750000D01*
X122453571Y-102750000D02*
X121667857Y-102750000D01*
X121525000Y-102821428D01*
X121453571Y-102964285D01*
X121453571Y-103250000D01*
X121525000Y-103392857D01*
X122382142Y-102750000D02*
X122453571Y-102892857D01*
X122453571Y-103250000D01*
X122382142Y-103392857D01*
X122239285Y-103464285D01*
X122096428Y-103464285D01*
X121953571Y-103392857D01*
X121882142Y-103250000D01*
X121882142Y-102892857D01*
X121810714Y-102750000D01*
X121453571Y-101392857D02*
X122667857Y-101392857D01*
X122810714Y-101464285D01*
X122882142Y-101535714D01*
X122953571Y-101678571D01*
X122953571Y-101892857D01*
X122882142Y-102035714D01*
X122382142Y-101392857D02*
X122453571Y-101535714D01*
X122453571Y-101821428D01*
X122382142Y-101964285D01*
X122310714Y-102035714D01*
X122167857Y-102107142D01*
X121739285Y-102107142D01*
X121596428Y-102035714D01*
X121525000Y-101964285D01*
X121453571Y-101821428D01*
X121453571Y-101535714D01*
X121525000Y-101392857D01*
X122453571Y-100035714D02*
X121667857Y-100035714D01*
X121525000Y-100107142D01*
X121453571Y-100250000D01*
X121453571Y-100535714D01*
X121525000Y-100678571D01*
X122382142Y-100035714D02*
X122453571Y-100178571D01*
X122453571Y-100535714D01*
X122382142Y-100678571D01*
X122239285Y-100750000D01*
X122096428Y-100750000D01*
X121953571Y-100678571D01*
X121882142Y-100535714D01*
X121882142Y-100178571D01*
X121810714Y-100035714D01*
X122382142Y-99392857D02*
X122453571Y-99250000D01*
X122453571Y-98964285D01*
X122382142Y-98821428D01*
X122239285Y-98750000D01*
X122167857Y-98750000D01*
X122025000Y-98821428D01*
X121953571Y-98964285D01*
X121953571Y-99178571D01*
X121882142Y-99321428D01*
X121739285Y-99392857D01*
X121667857Y-99392857D01*
X121525000Y-99321428D01*
X121453571Y-99178571D01*
X121453571Y-98964285D01*
X121525000Y-98821428D01*
X125003571Y-123250000D02*
X124289285Y-123750000D01*
X125003571Y-124107142D02*
X123503571Y-124107142D01*
X123503571Y-123535714D01*
X123575000Y-123392857D01*
X123646428Y-123321428D01*
X123789285Y-123250000D01*
X124003571Y-123250000D01*
X124146428Y-123321428D01*
X124217857Y-123392857D01*
X124289285Y-123535714D01*
X124289285Y-124107142D01*
X124932142Y-122035714D02*
X125003571Y-122178571D01*
X125003571Y-122464285D01*
X124932142Y-122607142D01*
X124789285Y-122678571D01*
X124217857Y-122678571D01*
X124075000Y-122607142D01*
X124003571Y-122464285D01*
X124003571Y-122178571D01*
X124075000Y-122035714D01*
X124217857Y-121964285D01*
X124360714Y-121964285D01*
X124503571Y-122678571D01*
X125003571Y-121107142D02*
X124932142Y-121250000D01*
X124789285Y-121321428D01*
X123503571Y-121321428D01*
X124932142Y-119964285D02*
X125003571Y-120107142D01*
X125003571Y-120392857D01*
X124932142Y-120535714D01*
X124789285Y-120607142D01*
X124217857Y-120607142D01*
X124075000Y-120535714D01*
X124003571Y-120392857D01*
X124003571Y-120107142D01*
X124075000Y-119964285D01*
X124217857Y-119892857D01*
X124360714Y-119892857D01*
X124503571Y-120607142D01*
X125003571Y-118607142D02*
X124217857Y-118607142D01*
X124075000Y-118678571D01*
X124003571Y-118821428D01*
X124003571Y-119107142D01*
X124075000Y-119250000D01*
X124932142Y-118607142D02*
X125003571Y-118750000D01*
X125003571Y-119107142D01*
X124932142Y-119250000D01*
X124789285Y-119321428D01*
X124646428Y-119321428D01*
X124503571Y-119250000D01*
X124432142Y-119107142D01*
X124432142Y-118750000D01*
X124360714Y-118607142D01*
X124932142Y-117964285D02*
X125003571Y-117821428D01*
X125003571Y-117535714D01*
X124932142Y-117392857D01*
X124789285Y-117321428D01*
X124717857Y-117321428D01*
X124575000Y-117392857D01*
X124503571Y-117535714D01*
X124503571Y-117750000D01*
X124432142Y-117892857D01*
X124289285Y-117964285D01*
X124217857Y-117964285D01*
X124075000Y-117892857D01*
X124003571Y-117750000D01*
X124003571Y-117535714D01*
X124075000Y-117392857D01*
X124932142Y-116107142D02*
X125003571Y-116250000D01*
X125003571Y-116535714D01*
X124932142Y-116678571D01*
X124789285Y-116750000D01*
X124217857Y-116750000D01*
X124075000Y-116678571D01*
X124003571Y-116535714D01*
X124003571Y-116250000D01*
X124075000Y-116107142D01*
X124217857Y-116035714D01*
X124360714Y-116035714D01*
X124503571Y-116750000D01*
X125003571Y-114750000D02*
X123503571Y-114750000D01*
X124932142Y-114750000D02*
X125003571Y-114892857D01*
X125003571Y-115178571D01*
X124932142Y-115321428D01*
X124860714Y-115392857D01*
X124717857Y-115464285D01*
X124289285Y-115464285D01*
X124146428Y-115392857D01*
X124075000Y-115321428D01*
X124003571Y-115178571D01*
X124003571Y-114892857D01*
X124075000Y-114750000D01*
X124003571Y-112250000D02*
X125003571Y-112250000D01*
X124003571Y-112892857D02*
X124789285Y-112892857D01*
X124932142Y-112821428D01*
X125003571Y-112678571D01*
X125003571Y-112464285D01*
X124932142Y-112321428D01*
X124860714Y-112250000D01*
X124003571Y-111535714D02*
X125003571Y-111535714D01*
X124146428Y-111535714D02*
X124075000Y-111464285D01*
X124003571Y-111321428D01*
X124003571Y-111107142D01*
X124075000Y-110964285D01*
X124217857Y-110892857D01*
X125003571Y-110892857D01*
X125003571Y-109535714D02*
X123503571Y-109535714D01*
X124932142Y-109535714D02*
X125003571Y-109678571D01*
X125003571Y-109964285D01*
X124932142Y-110107142D01*
X124860714Y-110178571D01*
X124717857Y-110250000D01*
X124289285Y-110250000D01*
X124146428Y-110178571D01*
X124075000Y-110107142D01*
X124003571Y-109964285D01*
X124003571Y-109678571D01*
X124075000Y-109535714D01*
X124932142Y-108250000D02*
X125003571Y-108392857D01*
X125003571Y-108678571D01*
X124932142Y-108821428D01*
X124789285Y-108892857D01*
X124217857Y-108892857D01*
X124075000Y-108821428D01*
X124003571Y-108678571D01*
X124003571Y-108392857D01*
X124075000Y-108250000D01*
X124217857Y-108178571D01*
X124360714Y-108178571D01*
X124503571Y-108892857D01*
X125003571Y-107535714D02*
X124003571Y-107535714D01*
X124289285Y-107535714D02*
X124146428Y-107464285D01*
X124075000Y-107392857D01*
X124003571Y-107250000D01*
X124003571Y-107107142D01*
X124860714Y-104607142D02*
X124932142Y-104678571D01*
X125003571Y-104892857D01*
X125003571Y-105035714D01*
X124932142Y-105250000D01*
X124789285Y-105392857D01*
X124646428Y-105464285D01*
X124360714Y-105535714D01*
X124146428Y-105535714D01*
X123860714Y-105464285D01*
X123717857Y-105392857D01*
X123575000Y-105250000D01*
X123503571Y-105035714D01*
X123503571Y-104892857D01*
X123575000Y-104678571D01*
X123646428Y-104607142D01*
X124217857Y-103964285D02*
X124217857Y-103464285D01*
X125003571Y-103250000D02*
X125003571Y-103964285D01*
X123503571Y-103964285D01*
X123503571Y-103250000D01*
X125003571Y-101750000D02*
X124289285Y-102250000D01*
X125003571Y-102607142D02*
X123503571Y-102607142D01*
X123503571Y-102035714D01*
X123575000Y-101892857D01*
X123646428Y-101821428D01*
X123789285Y-101750000D01*
X124003571Y-101750000D01*
X124146428Y-101821428D01*
X124217857Y-101892857D01*
X124289285Y-102035714D01*
X124289285Y-102607142D01*
X125003571Y-101107142D02*
X123503571Y-101107142D01*
X125003571Y-100250000D01*
X123503571Y-100250000D01*
X123503571Y-98107142D02*
X123503571Y-97821428D01*
X123575000Y-97678571D01*
X123717857Y-97535714D01*
X124003571Y-97464285D01*
X124503571Y-97464285D01*
X124789285Y-97535714D01*
X124932142Y-97678571D01*
X125003571Y-97821428D01*
X125003571Y-98107142D01*
X124932142Y-98250000D01*
X124789285Y-98392857D01*
X124503571Y-98464285D01*
X124003571Y-98464285D01*
X123717857Y-98392857D01*
X123575000Y-98250000D01*
X123503571Y-98107142D01*
X125003571Y-96821428D02*
X123503571Y-96821428D01*
X124217857Y-96821428D02*
X124217857Y-95964285D01*
X125003571Y-95964285D02*
X123503571Y-95964285D01*
X125003571Y-94535714D02*
X125003571Y-95250000D01*
X123503571Y-95250000D01*
X124003571Y-93035714D02*
X125003571Y-92678571D01*
X124003571Y-92321428D01*
X125003571Y-90964285D02*
X125003571Y-91821428D01*
X125003571Y-91392857D02*
X123503571Y-91392857D01*
X123717857Y-91535714D01*
X123860714Y-91678571D01*
X123932142Y-91821428D01*
X124860714Y-90321428D02*
X124932142Y-90250000D01*
X125003571Y-90321428D01*
X124932142Y-90392857D01*
X124860714Y-90321428D01*
X125003571Y-90321428D01*
X123646428Y-89678571D02*
X123575000Y-89607142D01*
X123503571Y-89464285D01*
X123503571Y-89107142D01*
X123575000Y-88964285D01*
X123646428Y-88892857D01*
X123789285Y-88821428D01*
X123932142Y-88821428D01*
X124146428Y-88892857D01*
X125003571Y-89750000D01*
X125003571Y-88821428D01*
M02*
