G04 #@! TF.GenerationSoftware,KiCad,Pcbnew,(5.0.0)*
G04 #@! TF.CreationDate,2018-09-07T11:03:02+01:00*
G04 #@! TF.ProjectId,OpenSpritzer,4F70656E53707269747A65722E6B6963,rev?*
G04 #@! TF.SameCoordinates,Original*
G04 #@! TF.FileFunction,Other,User*
%FSLAX46Y46*%
G04 Gerber Fmt 4.6, Leading zero omitted, Abs format (unit mm)*
G04 Created by KiCad (PCBNEW (5.0.0)) date 09/07/18 11:03:02*
%MOMM*%
%LPD*%
G01*
G04 APERTURE LIST*
%ADD10C,0.050000*%
%ADD11C,0.150000*%
G04 APERTURE END LIST*
D10*
G04 #@! TO.C,*
X148950000Y-108530000D02*
X148950000Y-101450000D01*
X146850000Y-108530000D02*
X148950000Y-108530000D01*
X146850000Y-101450000D02*
X146850000Y-108530000D01*
X148950000Y-101450000D02*
X146850000Y-101450000D01*
X153550000Y-108530000D02*
X153550000Y-101450000D01*
X151450000Y-108530000D02*
X153550000Y-108530000D01*
X151450000Y-101450000D02*
X151450000Y-108530000D01*
X153550000Y-101450000D02*
X151450000Y-101450000D01*
X156025000Y-101545000D02*
X156025000Y-108625000D01*
X158125000Y-101545000D02*
X156025000Y-101545000D01*
X158125000Y-108625000D02*
X158125000Y-101545000D01*
X156025000Y-108625000D02*
X158125000Y-108625000D01*
X153525000Y-119355000D02*
X153525000Y-112275000D01*
X151425000Y-119355000D02*
X153525000Y-119355000D01*
X151425000Y-112275000D02*
X151425000Y-119355000D01*
X153525000Y-112275000D02*
X151425000Y-112275000D01*
X146850000Y-112345000D02*
X146850000Y-119425000D01*
X148950000Y-112345000D02*
X146850000Y-112345000D01*
X148950000Y-119425000D02*
X148950000Y-112345000D01*
X146850000Y-119425000D02*
X148950000Y-119425000D01*
X115825000Y-136775000D02*
X124525000Y-136775000D01*
X115825000Y-128075000D02*
X115825000Y-136775000D01*
X124525000Y-128075000D02*
X115825000Y-128075000D01*
X124525000Y-136775000D02*
X124525000Y-128075000D01*
X157270000Y-131100000D02*
X164350000Y-131100000D01*
X157270000Y-129000000D02*
X157270000Y-131100000D01*
X164350000Y-129000000D02*
X157270000Y-129000000D01*
X164350000Y-131100000D02*
X164350000Y-129000000D01*
X123450000Y-88000000D02*
G75*
G03X123450000Y-88000000I-3450000J0D01*
G01*
X123450000Y-145000000D02*
G75*
G03X123450000Y-145000000I-3450000J0D01*
G01*
D11*
X138650000Y-130350000D02*
X138650000Y-139785000D01*
X151350000Y-130350000D02*
X151350000Y-139785000D01*
X138650000Y-130350000D02*
X151350000Y-130350000D01*
D10*
X172420000Y-125005000D02*
X172420000Y-131585000D01*
X172420000Y-125005000D02*
X165580000Y-125005000D01*
X165580000Y-131585000D02*
X172420000Y-131585000D01*
X165580000Y-131585000D02*
X165580000Y-125005000D01*
X165125000Y-72820000D02*
X174625000Y-72820000D01*
X165125000Y-82390000D02*
X165125000Y-72820000D01*
X163075000Y-82390000D02*
X165125000Y-82390000D01*
X163075000Y-82390000D02*
X163075000Y-86100000D01*
X165125000Y-86100000D02*
X163125000Y-86100000D01*
X165125000Y-88330000D02*
X165125000Y-86100000D01*
X167875000Y-88330000D02*
X165125000Y-88330000D01*
X167875000Y-89300000D02*
X167875000Y-88330000D01*
X171875000Y-89300000D02*
X167875000Y-89300000D01*
X171875000Y-87820000D02*
X171875000Y-89300000D01*
X174375000Y-87820000D02*
X171875000Y-87820000D01*
X174625000Y-87820000D02*
X174625000Y-72820000D01*
X174375000Y-87820000D02*
X174625000Y-87820000D01*
X165580000Y-118685000D02*
X165580000Y-112105000D01*
X165580000Y-118685000D02*
X172420000Y-118685000D01*
X172420000Y-112105000D02*
X165580000Y-112105000D01*
X172420000Y-112105000D02*
X172420000Y-118685000D01*
X174150000Y-135375000D02*
X160850000Y-135375000D01*
X160850000Y-135375000D02*
X160850000Y-149775000D01*
X160850000Y-149775000D02*
X174150000Y-149775000D01*
X174150000Y-149775000D02*
X174150000Y-135375000D01*
X143760000Y-100970000D02*
X143760000Y-119250000D01*
X143760000Y-100970000D02*
X97540000Y-100970000D01*
X97540000Y-119250000D02*
X143760000Y-119250000D01*
X97540000Y-119250000D02*
X97540000Y-100970000D01*
X155500000Y-122375000D02*
X152800000Y-122375000D01*
X152800000Y-122375000D02*
X152800000Y-132125000D01*
X152800000Y-132125000D02*
X155500000Y-132125000D01*
X155500000Y-132125000D02*
X155500000Y-122375000D01*
X158050000Y-127850000D02*
X163950000Y-127850000D01*
X163950000Y-127850000D02*
X163950000Y-109500000D01*
X163950000Y-109500000D02*
X158050000Y-109500000D01*
X158050000Y-109500000D02*
X158050000Y-127850000D01*
X158450000Y-88000000D02*
G75*
G03X158450000Y-88000000I-3450000J0D01*
G01*
X128475000Y-136875000D02*
X137175000Y-136875000D01*
X137175000Y-136875000D02*
X137175000Y-128175000D01*
X137175000Y-128175000D02*
X128475000Y-128175000D01*
X128475000Y-128175000D02*
X128475000Y-136875000D01*
X132975000Y-127100000D02*
X132975000Y-121200000D01*
X132975000Y-121200000D02*
X116575000Y-121200000D01*
X116575000Y-121200000D02*
X116575000Y-127100000D01*
X116575000Y-127100000D02*
X132975000Y-127100000D01*
X144175000Y-127525000D02*
X144175000Y-120825000D01*
X144175000Y-120825000D02*
X137475000Y-120825000D01*
X137475000Y-120825000D02*
X137475000Y-127525000D01*
X137475000Y-127525000D02*
X144175000Y-127525000D01*
X134675000Y-148575000D02*
X134675000Y-138975000D01*
X134675000Y-138975000D02*
X124175000Y-138975000D01*
X124175000Y-138975000D02*
X124175000Y-148575000D01*
X124175000Y-148575000D02*
X134675000Y-148575000D01*
X158450000Y-145000000D02*
G75*
G03X158450000Y-145000000I-3450000J0D01*
G01*
G04 #@! TD*
M02*
