G04 #@! TF.GenerationSoftware,KiCad,Pcbnew,(5.0.0)*
G04 #@! TF.CreationDate,2018-09-07T11:03:02+01:00*
G04 #@! TF.ProjectId,OpenSpritzer,4F70656E53707269747A65722E6B6963,rev?*
G04 #@! TF.SameCoordinates,Original*
G04 #@! TF.FileFunction,Copper,L2,Bot,Signal*
G04 #@! TF.FilePolarity,Positive*
%FSLAX46Y46*%
G04 Gerber Fmt 4.6, Leading zero omitted, Abs format (unit mm)*
G04 Created by KiCad (PCBNEW (5.0.0)) date 09/07/18 11:03:02*
%MOMM*%
%LPD*%
G01*
G04 APERTURE LIST*
G04 #@! TA.AperFunction,ComponentPad*
%ADD10O,1.400000X1.400000*%
G04 #@! TD*
G04 #@! TA.AperFunction,ComponentPad*
%ADD11C,1.400000*%
G04 #@! TD*
G04 #@! TA.AperFunction,ComponentPad*
%ADD12C,1.600000*%
G04 #@! TD*
G04 #@! TA.AperFunction,ComponentPad*
%ADD13R,1.600000X1.600000*%
G04 #@! TD*
G04 #@! TA.AperFunction,ComponentPad*
%ADD14R,2.250000X2.250000*%
G04 #@! TD*
G04 #@! TA.AperFunction,ComponentPad*
%ADD15C,2.250000*%
G04 #@! TD*
G04 #@! TA.AperFunction,ComponentPad*
%ADD16C,1.850000*%
G04 #@! TD*
G04 #@! TA.AperFunction,ComponentPad*
%ADD17O,3.010000X1.510000*%
G04 #@! TD*
G04 #@! TA.AperFunction,Conductor*
%ADD18C,0.100000*%
G04 #@! TD*
G04 #@! TA.AperFunction,ComponentPad*
%ADD19C,3.500000*%
G04 #@! TD*
G04 #@! TA.AperFunction,ComponentPad*
%ADD20C,3.000000*%
G04 #@! TD*
G04 #@! TA.AperFunction,ComponentPad*
%ADD21R,3.500000X3.500000*%
G04 #@! TD*
G04 #@! TA.AperFunction,ComponentPad*
%ADD22C,2.500000*%
G04 #@! TD*
G04 #@! TA.AperFunction,ComponentPad*
%ADD23O,7.000240X3.500120*%
G04 #@! TD*
G04 #@! TA.AperFunction,ComponentPad*
%ADD24O,2.499360X1.600200*%
G04 #@! TD*
G04 #@! TA.AperFunction,ComponentPad*
%ADD25O,2.500000X1.400000*%
G04 #@! TD*
G04 #@! TA.AperFunction,ComponentPad*
%ADD26C,1.800000*%
G04 #@! TD*
G04 #@! TA.AperFunction,WasherPad*
%ADD27C,4.000000*%
G04 #@! TD*
G04 #@! TA.AperFunction,ComponentPad*
%ADD28O,1.600000X1.600000*%
G04 #@! TD*
G04 #@! TA.AperFunction,ComponentPad*
%ADD29R,2.600000X2.600000*%
G04 #@! TD*
G04 #@! TA.AperFunction,ComponentPad*
%ADD30O,2.600000X2.600000*%
G04 #@! TD*
G04 #@! TA.AperFunction,ComponentPad*
%ADD31R,3.200000X3.200000*%
G04 #@! TD*
G04 #@! TA.AperFunction,ComponentPad*
%ADD32O,3.200000X3.200000*%
G04 #@! TD*
G04 #@! TA.AperFunction,ComponentPad*
%ADD33C,2.000000*%
G04 #@! TD*
G04 #@! TA.AperFunction,ComponentPad*
%ADD34R,1.800000X1.800000*%
G04 #@! TD*
G04 #@! TA.AperFunction,ComponentPad*
%ADD35O,1.800000X1.800000*%
G04 #@! TD*
G04 #@! TA.AperFunction,ViaPad*
%ADD36C,0.800000*%
G04 #@! TD*
G04 #@! TA.AperFunction,Conductor*
%ADD37C,0.250000*%
G04 #@! TD*
G04 #@! TA.AperFunction,Conductor*
%ADD38C,0.254000*%
G04 #@! TD*
G04 APERTURE END LIST*
D10*
G04 #@! TO.P,,2*
G04 #@! TO.N,Net-(A1-Pad5)*
X147900000Y-107580000D03*
D11*
G04 #@! TO.P,,1*
G04 #@! TO.N,Net-(J1-Pad1)*
X147900000Y-102500000D03*
G04 #@! TD*
D10*
G04 #@! TO.P,,2*
G04 #@! TO.N,Net-(Q1-Pad1)*
X152500000Y-107580000D03*
D11*
G04 #@! TO.P,,1*
G04 #@! TO.N,Net-(J1-Pad1)*
X152500000Y-102500000D03*
G04 #@! TD*
D10*
G04 #@! TO.P,,2*
G04 #@! TO.N,Net-(Q1-Pad2)*
X157075000Y-102495000D03*
D11*
G04 #@! TO.P,,1*
G04 #@! TO.N,Net-(Q1-Pad1)*
X157075000Y-107575000D03*
G04 #@! TD*
D10*
G04 #@! TO.P,,2*
G04 #@! TO.N,Net-(D2-Pad1)*
X152475000Y-118405000D03*
D11*
G04 #@! TO.P,,1*
G04 #@! TO.N,Net-(Q1-Pad2)*
X152475000Y-113325000D03*
G04 #@! TD*
D10*
G04 #@! TO.P,,2*
G04 #@! TO.N,Net-(A1-Pad19)*
X147900000Y-113295000D03*
D11*
G04 #@! TO.P,,1*
G04 #@! TO.N,Net-(R1-Pad1)*
X147900000Y-118375000D03*
G04 #@! TD*
D12*
G04 #@! TO.P,,2*
G04 #@! TO.N,GNDREF*
X118425000Y-132425000D03*
D13*
G04 #@! TO.P,,1*
G04 #@! TO.N,Net-(A1-Pad30)*
X121925000Y-132425000D03*
G04 #@! TD*
D10*
G04 #@! TO.P,,2*
G04 #@! TO.N,Net-(R2-Pad2)*
X158220000Y-130050000D03*
D11*
G04 #@! TO.P,,1*
G04 #@! TO.N,Net-(D1-Pad2)*
X163300000Y-130050000D03*
G04 #@! TD*
D14*
G04 #@! TO.P,,1*
G04 #@! TO.N,Net-(J4-Pad1)*
X140300000Y-132350000D03*
D15*
G04 #@! TO.P,,2*
G04 #@! TO.N,Net-(R2-Pad2)*
X145000000Y-132350000D03*
G04 #@! TO.P,,3*
G04 #@! TO.N,Net-(A1-Pad13)*
X149700000Y-132350000D03*
G04 #@! TO.P,,4*
G04 #@! TO.N,Net-(J4-Pad1)*
X140300000Y-136160000D03*
G04 #@! TO.P,,5*
G04 #@! TO.N,Net-(D2-Pad2)*
X145000000Y-136160000D03*
G04 #@! TO.P,,6*
G04 #@! TO.N,Net-(A1-Pad8)*
X149700000Y-136160000D03*
D16*
G04 #@! TO.P,,7*
G04 #@! TO.N,N/C*
X142460000Y-148860000D03*
G04 #@! TO.P,,8*
X147540000Y-148860000D03*
G04 #@! TD*
D17*
G04 #@! TO.P,,1*
G04 #@! TO.N,GNDREF*
X168000000Y-126525000D03*
G04 #@! TO.P,,2*
G04 #@! TO.N,Net-(D1-Pad2)*
X168000000Y-130025000D03*
G04 #@! TD*
D18*
G04 #@! TO.N,N/C*
G04 #@! TO.C,*
G36*
X165835765Y-82504213D02*
X165920704Y-82516813D01*
X166003999Y-82537677D01*
X166084848Y-82566605D01*
X166162472Y-82603319D01*
X166236124Y-82647464D01*
X166305094Y-82698616D01*
X166368718Y-82756282D01*
X166426384Y-82819906D01*
X166477536Y-82888876D01*
X166521681Y-82962528D01*
X166558395Y-83040152D01*
X166587323Y-83121001D01*
X166608187Y-83204296D01*
X166620787Y-83289235D01*
X166625000Y-83375000D01*
X166625000Y-85125000D01*
X166620787Y-85210765D01*
X166608187Y-85295704D01*
X166587323Y-85378999D01*
X166558395Y-85459848D01*
X166521681Y-85537472D01*
X166477536Y-85611124D01*
X166426384Y-85680094D01*
X166368718Y-85743718D01*
X166305094Y-85801384D01*
X166236124Y-85852536D01*
X166162472Y-85896681D01*
X166084848Y-85933395D01*
X166003999Y-85962323D01*
X165920704Y-85983187D01*
X165835765Y-85995787D01*
X165750000Y-86000000D01*
X164000000Y-86000000D01*
X163914235Y-85995787D01*
X163829296Y-85983187D01*
X163746001Y-85962323D01*
X163665152Y-85933395D01*
X163587528Y-85896681D01*
X163513876Y-85852536D01*
X163444906Y-85801384D01*
X163381282Y-85743718D01*
X163323616Y-85680094D01*
X163272464Y-85611124D01*
X163228319Y-85537472D01*
X163191605Y-85459848D01*
X163162677Y-85378999D01*
X163141813Y-85295704D01*
X163129213Y-85210765D01*
X163125000Y-85125000D01*
X163125000Y-83375000D01*
X163129213Y-83289235D01*
X163141813Y-83204296D01*
X163162677Y-83121001D01*
X163191605Y-83040152D01*
X163228319Y-82962528D01*
X163272464Y-82888876D01*
X163323616Y-82819906D01*
X163381282Y-82756282D01*
X163444906Y-82698616D01*
X163513876Y-82647464D01*
X163587528Y-82603319D01*
X163665152Y-82566605D01*
X163746001Y-82537677D01*
X163829296Y-82516813D01*
X163914235Y-82504213D01*
X164000000Y-82500000D01*
X165750000Y-82500000D01*
X165835765Y-82504213D01*
X165835765Y-82504213D01*
G37*
D19*
G04 #@! TD*
G04 #@! TO.P,,3*
G04 #@! TO.N,N/C*
X164875000Y-84250000D03*
D18*
G04 #@! TO.N,Net-(C1-Pad1)*
G04 #@! TO.C,*
G36*
X170948513Y-79203611D02*
X171021318Y-79214411D01*
X171092714Y-79232295D01*
X171162013Y-79257090D01*
X171228548Y-79288559D01*
X171291678Y-79326398D01*
X171350795Y-79370242D01*
X171405330Y-79419670D01*
X171454758Y-79474205D01*
X171498602Y-79533322D01*
X171536441Y-79596452D01*
X171567910Y-79662987D01*
X171592705Y-79732286D01*
X171610589Y-79803682D01*
X171621389Y-79876487D01*
X171625000Y-79950000D01*
X171625000Y-81450000D01*
X171621389Y-81523513D01*
X171610589Y-81596318D01*
X171592705Y-81667714D01*
X171567910Y-81737013D01*
X171536441Y-81803548D01*
X171498602Y-81866678D01*
X171454758Y-81925795D01*
X171405330Y-81980330D01*
X171350795Y-82029758D01*
X171291678Y-82073602D01*
X171228548Y-82111441D01*
X171162013Y-82142910D01*
X171092714Y-82167705D01*
X171021318Y-82185589D01*
X170948513Y-82196389D01*
X170875000Y-82200000D01*
X168875000Y-82200000D01*
X168801487Y-82196389D01*
X168728682Y-82185589D01*
X168657286Y-82167705D01*
X168587987Y-82142910D01*
X168521452Y-82111441D01*
X168458322Y-82073602D01*
X168399205Y-82029758D01*
X168344670Y-81980330D01*
X168295242Y-81925795D01*
X168251398Y-81866678D01*
X168213559Y-81803548D01*
X168182090Y-81737013D01*
X168157295Y-81667714D01*
X168139411Y-81596318D01*
X168128611Y-81523513D01*
X168125000Y-81450000D01*
X168125000Y-79950000D01*
X168128611Y-79876487D01*
X168139411Y-79803682D01*
X168157295Y-79732286D01*
X168182090Y-79662987D01*
X168213559Y-79596452D01*
X168251398Y-79533322D01*
X168295242Y-79474205D01*
X168344670Y-79419670D01*
X168399205Y-79370242D01*
X168458322Y-79326398D01*
X168521452Y-79288559D01*
X168587987Y-79257090D01*
X168657286Y-79232295D01*
X168728682Y-79214411D01*
X168801487Y-79203611D01*
X168875000Y-79200000D01*
X170875000Y-79200000D01*
X170948513Y-79203611D01*
X170948513Y-79203611D01*
G37*
D20*
G04 #@! TD*
G04 #@! TO.P,,2*
G04 #@! TO.N,Net-(C1-Pad1)*
X169875000Y-80700000D03*
D21*
G04 #@! TO.P,,1*
G04 #@! TO.N,GNDREF*
X169875000Y-87300000D03*
D22*
G04 #@! TO.P,,4*
G04 #@! TO.N,N/C*
X169875000Y-76900000D03*
G04 #@! TD*
D17*
G04 #@! TO.P,,2*
G04 #@! TO.N,Net-(D3-Pad2)*
X168000000Y-117125000D03*
G04 #@! TO.P,,1*
G04 #@! TO.N,Net-(C1-Pad1)*
X168000000Y-113625000D03*
G04 #@! TD*
D23*
G04 #@! TO.P,,2*
G04 #@! TO.N,Net-(A1-Pad27)*
X108111600Y-95097780D03*
X108111600Y-84899680D03*
D24*
G04 #@! TO.P,,1*
G04 #@! TO.N,Net-(J1-Pad1)*
X112376260Y-90000000D03*
G04 #@! TO.P,,2*
G04 #@! TO.N,Net-(A1-Pad27)*
X112376260Y-92499360D03*
G04 #@! TD*
D25*
G04 #@! TO.P,,2*
G04 #@! TO.N,Net-(Q1-Pad2)*
X163700000Y-103050000D03*
G04 #@! TO.P,,1*
G04 #@! TO.N,Net-(Q1-Pad1)*
X163700000Y-105050000D03*
G04 #@! TO.P,,3*
G04 #@! TO.N,Net-(D3-Pad2)*
X163700000Y-101050000D03*
G04 #@! TD*
D26*
G04 #@! TO.P,,3*
G04 #@! TO.N,Net-(A1-Pad27)*
X170000000Y-136525000D03*
G04 #@! TO.P,,2*
G04 #@! TO.N,Net-(R1-Pad1)*
X167500000Y-136525000D03*
G04 #@! TO.P,,1*
G04 #@! TO.N,Net-(Q1-Pad1)*
X165000000Y-136525000D03*
D27*
G04 #@! TO.P,,0*
G04 #@! TO.N,*
X171900000Y-143525000D03*
X163100000Y-143525000D03*
G04 #@! TD*
D13*
G04 #@! TO.P,,1*
G04 #@! TO.N,Net-(A1-Pad1)*
X139700000Y-102500000D03*
D28*
G04 #@! TO.P,,17*
G04 #@! TO.N,Net-(A1-Pad17)*
X106680000Y-117740000D03*
G04 #@! TO.P,,2*
G04 #@! TO.N,Net-(A1-Pad2)*
X137160000Y-102500000D03*
G04 #@! TO.P,,18*
G04 #@! TO.N,Net-(A1-Pad18)*
X109220000Y-117740000D03*
G04 #@! TO.P,,3*
G04 #@! TO.N,Net-(A1-Pad3)*
X134620000Y-102500000D03*
G04 #@! TO.P,,19*
G04 #@! TO.N,Net-(A1-Pad19)*
X111760000Y-117740000D03*
G04 #@! TO.P,,4*
G04 #@! TO.N,Net-(A1-Pad4)*
X132080000Y-102500000D03*
G04 #@! TO.P,,20*
G04 #@! TO.N,Net-(A1-Pad20)*
X114300000Y-117740000D03*
G04 #@! TO.P,,5*
G04 #@! TO.N,Net-(A1-Pad5)*
X129540000Y-102500000D03*
G04 #@! TO.P,,21*
G04 #@! TO.N,Net-(A1-Pad21)*
X116840000Y-117740000D03*
G04 #@! TO.P,,6*
G04 #@! TO.N,Net-(A1-Pad6)*
X127000000Y-102500000D03*
G04 #@! TO.P,,22*
G04 #@! TO.N,Net-(A1-Pad22)*
X119380000Y-117740000D03*
G04 #@! TO.P,,7*
G04 #@! TO.N,Net-(A1-Pad7)*
X124460000Y-102500000D03*
G04 #@! TO.P,,23*
G04 #@! TO.N,Net-(A1-Pad23)*
X121920000Y-117740000D03*
G04 #@! TO.P,,8*
G04 #@! TO.N,Net-(A1-Pad8)*
X121920000Y-102500000D03*
G04 #@! TO.P,,24*
G04 #@! TO.N,Net-(A1-Pad24)*
X124460000Y-117740000D03*
G04 #@! TO.P,,9*
G04 #@! TO.N,Net-(A1-Pad9)*
X119380000Y-102500000D03*
G04 #@! TO.P,,25*
G04 #@! TO.N,Net-(A1-Pad25)*
X127000000Y-117740000D03*
G04 #@! TO.P,,10*
G04 #@! TO.N,Net-(A1-Pad10)*
X116840000Y-102500000D03*
G04 #@! TO.P,,26*
G04 #@! TO.N,Net-(A1-Pad26)*
X129540000Y-117740000D03*
G04 #@! TO.P,,11*
G04 #@! TO.N,Net-(A1-Pad11)*
X114300000Y-102500000D03*
G04 #@! TO.P,,27*
G04 #@! TO.N,Net-(A1-Pad27)*
X132080000Y-117740000D03*
G04 #@! TO.P,,12*
G04 #@! TO.N,Net-(A1-Pad12)*
X111760000Y-102500000D03*
G04 #@! TO.P,,28*
G04 #@! TO.N,Net-(A1-Pad28)*
X134620000Y-117740000D03*
G04 #@! TO.P,,13*
G04 #@! TO.N,Net-(A1-Pad13)*
X109220000Y-102500000D03*
G04 #@! TO.P,,29*
G04 #@! TO.N,GNDREF*
X137160000Y-117740000D03*
G04 #@! TO.P,,14*
G04 #@! TO.N,Net-(A1-Pad14)*
X106680000Y-102500000D03*
G04 #@! TO.P,,30*
G04 #@! TO.N,Net-(A1-Pad30)*
X139700000Y-117740000D03*
G04 #@! TO.P,,15*
G04 #@! TO.N,Net-(A1-Pad15)*
X104140000Y-102500000D03*
G04 #@! TO.P,,16*
G04 #@! TO.N,Net-(A1-Pad16)*
X104140000Y-117740000D03*
G04 #@! TD*
D13*
G04 #@! TO.P,,1*
G04 #@! TO.N,Net-(D2-Pad1)*
X154150000Y-123425000D03*
D28*
G04 #@! TO.P,,2*
G04 #@! TO.N,Net-(D2-Pad2)*
X154150000Y-131045000D03*
G04 #@! TD*
D29*
G04 #@! TO.P,,1*
G04 #@! TO.N,Net-(C1-Pad1)*
X161000000Y-126300000D03*
D30*
G04 #@! TO.P,,2*
G04 #@! TO.N,Net-(D3-Pad2)*
X161000000Y-111060000D03*
G04 #@! TD*
D13*
G04 #@! TO.P,,1*
G04 #@! TO.N,Net-(C1-Pad1)*
X132825000Y-134275000D03*
D12*
G04 #@! TO.P,,2*
G04 #@! TO.N,GNDREF*
X132825000Y-130775000D03*
G04 #@! TD*
D31*
G04 #@! TO.P,,1*
G04 #@! TO.N,Net-(D4-Pad1)*
X131125000Y-124150000D03*
D32*
G04 #@! TO.P,,2*
G04 #@! TO.N,GNDREF*
X118425000Y-124150000D03*
G04 #@! TD*
D33*
G04 #@! TO.P,,1*
G04 #@! TO.N,Net-(A1-Pad30)*
X142825000Y-124175000D03*
G04 #@! TO.P,,2*
G04 #@! TO.N,Net-(D4-Pad1)*
X138825000Y-124175000D03*
G04 #@! TD*
D34*
G04 #@! TO.P,,1*
G04 #@! TO.N,Net-(C1-Pad1)*
X132825000Y-140125000D03*
D35*
G04 #@! TO.P,,2*
G04 #@! TO.N,Net-(D4-Pad1)*
X131125000Y-143825000D03*
G04 #@! TO.P,,3*
G04 #@! TO.N,GNDREF*
X129425000Y-140125000D03*
G04 #@! TO.P,,4*
G04 #@! TO.N,Net-(A1-Pad30)*
X127725000Y-143825000D03*
G04 #@! TO.P,,5*
G04 #@! TO.N,GNDREF*
X126025000Y-140125000D03*
G04 #@! TD*
D24*
G04 #@! TO.P,,2*
G04 #@! TO.N,GNDREF*
X112401260Y-137499360D03*
G04 #@! TO.P,,1*
G04 #@! TO.N,Net-(J4-Pad1)*
X112401260Y-135000000D03*
D23*
G04 #@! TO.P,,2*
G04 #@! TO.N,GNDREF*
X108136600Y-129899680D03*
X108136600Y-140097780D03*
G04 #@! TD*
D36*
G04 #@! TO.N,Net-(A1-Pad27)*
X160450000Y-138575000D03*
X142250000Y-112100000D03*
X145025000Y-101875000D03*
X140375000Y-120175000D03*
G04 #@! TO.N,Net-(A1-Pad19)*
X142600000Y-115825000D03*
X133650000Y-115850000D03*
X131025000Y-115850000D03*
G04 #@! TO.N,Net-(R1-Pad1)*
X160675000Y-133750000D03*
G04 #@! TO.N,Net-(J4-Pad1)*
X120425000Y-127500000D03*
X135800000Y-127500000D03*
G04 #@! TD*
D37*
G04 #@! TO.N,GNDREF*
X118425000Y-124150000D02*
X118425000Y-132425000D01*
X126125000Y-140125000D02*
X129425000Y-140125000D01*
X118425000Y-132425000D02*
X126125000Y-140125000D01*
X129425000Y-134175000D02*
X132825000Y-130775000D01*
X129425000Y-140125000D02*
X129425000Y-134175000D01*
X168750000Y-126525000D02*
X172375000Y-122900000D01*
X168000000Y-126525000D02*
X168750000Y-126525000D01*
X169875000Y-89300000D02*
X169875000Y-87300000D01*
X172375000Y-91800000D02*
X169875000Y-89300000D01*
X172375000Y-122900000D02*
X172375000Y-91800000D01*
X118425000Y-124150000D02*
X121650000Y-120925000D01*
X134200000Y-120925000D02*
X137160000Y-117965000D01*
X121650000Y-120925000D02*
X134200000Y-120925000D01*
X138375000Y-116750000D02*
X137160000Y-117965000D01*
X138375000Y-101864998D02*
X138375000Y-116750000D01*
X139714998Y-100525000D02*
X138375000Y-101864998D01*
X169875000Y-89300000D02*
X158650000Y-100525000D01*
X158650000Y-100525000D02*
X139714998Y-100525000D01*
X108136600Y-129899680D02*
X108136600Y-140097780D01*
X108136600Y-138097720D02*
X108136600Y-140097780D01*
X108734960Y-137499360D02*
X108136600Y-138097720D01*
X112401260Y-137499360D02*
X108734960Y-137499360D01*
X117925200Y-132425000D02*
X118425000Y-132425000D01*
X112850840Y-137499360D02*
X117925200Y-132425000D01*
X112401260Y-137499360D02*
X112850840Y-137499360D01*
G04 #@! TO.N,Net-(A1-Pad27)*
X142649999Y-111700001D02*
X142250000Y-112100000D01*
X145025000Y-109325000D02*
X142649999Y-111700001D01*
X145025000Y-101875000D02*
X145025000Y-109325000D01*
X159200000Y-138575000D02*
X160450000Y-138575000D01*
X155700000Y-138575000D02*
X160450000Y-138575000D01*
X152050000Y-134925000D02*
X155700000Y-138575000D01*
X152050000Y-127900000D02*
X152050000Y-134925000D01*
X140375000Y-120175000D02*
X144325000Y-120175000D01*
X144325000Y-120175000D02*
X152050000Y-127900000D01*
G04 #@! TO.N,Net-(A1-Pad19)*
X131025000Y-115850000D02*
X133600000Y-115850000D01*
X147200001Y-113994999D02*
X147900000Y-113295000D01*
X144970001Y-116224999D02*
X147200001Y-113994999D01*
X142999999Y-116224999D02*
X144970001Y-116224999D01*
X142600000Y-115825000D02*
X142999999Y-116224999D01*
G04 #@! TO.N,Net-(R1-Pad1)*
X147900000Y-121600000D02*
X147900000Y-118375000D01*
X158470001Y-132170001D02*
X147900000Y-121600000D01*
X147900000Y-119364949D02*
X147900000Y-118375000D01*
X147900000Y-121540685D02*
X147900000Y-119364949D01*
X160109315Y-133750000D02*
X147900000Y-121540685D01*
X160675000Y-133750000D02*
X160109315Y-133750000D01*
G04 #@! TO.N,Net-(J4-Pad1)*
X135234315Y-127500000D02*
X120425000Y-127500000D01*
X135800000Y-127500000D02*
X135234315Y-127500000D01*
G04 #@! TO.N,Net-(Q1-Pad1)*
X164950000Y-134327208D02*
X164950000Y-107250000D01*
X165000000Y-107300000D02*
X164150000Y-106450000D01*
X165000000Y-136525000D02*
X165000000Y-107300000D01*
X164950000Y-107250000D02*
X164150000Y-106450000D01*
X163700000Y-106000000D02*
X163700000Y-105050000D01*
X164150000Y-106450000D02*
X163700000Y-106000000D01*
G04 #@! TD*
D38*
G04 #@! TO.N,GNDREF*
G36*
X168276974Y-75832233D02*
X167990000Y-76525050D01*
X167990000Y-77274950D01*
X168276974Y-77967767D01*
X168807233Y-78498026D01*
X168938890Y-78552560D01*
X168875000Y-78552560D01*
X168340223Y-78658934D01*
X167886861Y-78961861D01*
X167583934Y-79415223D01*
X167477560Y-79950000D01*
X167477560Y-81450000D01*
X167583934Y-81984777D01*
X167886861Y-82438139D01*
X168340223Y-82741066D01*
X168875000Y-82847440D01*
X170875000Y-82847440D01*
X171409777Y-82741066D01*
X171863139Y-82438139D01*
X172166066Y-81984777D01*
X172272440Y-81450000D01*
X172272440Y-79950000D01*
X172166066Y-79415223D01*
X171863139Y-78961861D01*
X171409777Y-78658934D01*
X170875000Y-78552560D01*
X170811110Y-78552560D01*
X170942767Y-78498026D01*
X171473026Y-77967767D01*
X171760000Y-77274950D01*
X171760000Y-76525050D01*
X171473026Y-75832233D01*
X171375793Y-75735000D01*
X174265000Y-75735000D01*
X174265001Y-142349030D01*
X174133845Y-142032392D01*
X173392608Y-141291155D01*
X172424134Y-140890000D01*
X171375866Y-140890000D01*
X170407392Y-141291155D01*
X169666155Y-142032392D01*
X169265000Y-143000866D01*
X169265000Y-144049134D01*
X169666155Y-145017608D01*
X170407392Y-145758845D01*
X171375866Y-146160000D01*
X172424134Y-146160000D01*
X173392608Y-145758845D01*
X174133845Y-145017608D01*
X174265001Y-144700970D01*
X174265001Y-149265000D01*
X149060775Y-149265000D01*
X149100000Y-149170303D01*
X149100000Y-148549697D01*
X148862504Y-147976331D01*
X148423669Y-147537496D01*
X147850303Y-147300000D01*
X147229697Y-147300000D01*
X146656331Y-147537496D01*
X146217496Y-147976331D01*
X145980000Y-148549697D01*
X145980000Y-149170303D01*
X146019225Y-149265000D01*
X143980775Y-149265000D01*
X144020000Y-149170303D01*
X144020000Y-148549697D01*
X143782504Y-147976331D01*
X143343669Y-147537496D01*
X142770303Y-147300000D01*
X142149697Y-147300000D01*
X141576331Y-147537496D01*
X141137496Y-147976331D01*
X140900000Y-148549697D01*
X140900000Y-149170303D01*
X140939225Y-149265000D01*
X100735000Y-149265000D01*
X100735000Y-144555431D01*
X117765000Y-144555431D01*
X117765000Y-145444569D01*
X118105259Y-146266026D01*
X118733974Y-146894741D01*
X119555431Y-147235000D01*
X120444569Y-147235000D01*
X121266026Y-146894741D01*
X121894741Y-146266026D01*
X122235000Y-145444569D01*
X122235000Y-144555431D01*
X121932446Y-143825000D01*
X126159928Y-143825000D01*
X126279062Y-144423927D01*
X126618327Y-144931673D01*
X127126073Y-145270938D01*
X127573818Y-145360000D01*
X127876182Y-145360000D01*
X128323927Y-145270938D01*
X128831673Y-144931673D01*
X129170938Y-144423927D01*
X129290072Y-143825000D01*
X129559928Y-143825000D01*
X129679062Y-144423927D01*
X130018327Y-144931673D01*
X130526073Y-145270938D01*
X130973818Y-145360000D01*
X131276182Y-145360000D01*
X131723927Y-145270938D01*
X132231673Y-144931673D01*
X132483069Y-144555431D01*
X152765000Y-144555431D01*
X152765000Y-145444569D01*
X153105259Y-146266026D01*
X153733974Y-146894741D01*
X154555431Y-147235000D01*
X155444569Y-147235000D01*
X156266026Y-146894741D01*
X156894741Y-146266026D01*
X157235000Y-145444569D01*
X157235000Y-144555431D01*
X156894741Y-143733974D01*
X156266026Y-143105259D01*
X156014000Y-143000866D01*
X160465000Y-143000866D01*
X160465000Y-144049134D01*
X160866155Y-145017608D01*
X161607392Y-145758845D01*
X162575866Y-146160000D01*
X163624134Y-146160000D01*
X164592608Y-145758845D01*
X165333845Y-145017608D01*
X165735000Y-144049134D01*
X165735000Y-143000866D01*
X165333845Y-142032392D01*
X164592608Y-141291155D01*
X163624134Y-140890000D01*
X162575866Y-140890000D01*
X161607392Y-141291155D01*
X160866155Y-142032392D01*
X160465000Y-143000866D01*
X156014000Y-143000866D01*
X155444569Y-142765000D01*
X154555431Y-142765000D01*
X153733974Y-143105259D01*
X153105259Y-143733974D01*
X152765000Y-144555431D01*
X132483069Y-144555431D01*
X132570938Y-144423927D01*
X132690072Y-143825000D01*
X132570938Y-143226073D01*
X132231673Y-142718327D01*
X131723927Y-142379062D01*
X131276182Y-142290000D01*
X130973818Y-142290000D01*
X130526073Y-142379062D01*
X130018327Y-142718327D01*
X129679062Y-143226073D01*
X129559928Y-143825000D01*
X129290072Y-143825000D01*
X129170938Y-143226073D01*
X128831673Y-142718327D01*
X128323927Y-142379062D01*
X127876182Y-142290000D01*
X127573818Y-142290000D01*
X127126073Y-142379062D01*
X126618327Y-142718327D01*
X126279062Y-143226073D01*
X126159928Y-143825000D01*
X121932446Y-143825000D01*
X121894741Y-143733974D01*
X121266026Y-143105259D01*
X120444569Y-142765000D01*
X119555431Y-142765000D01*
X118733974Y-143105259D01*
X118105259Y-143733974D01*
X117765000Y-144555431D01*
X100735000Y-144555431D01*
X100735000Y-140595793D01*
X104054054Y-140595793D01*
X104134431Y-140893170D01*
X104610245Y-141694469D01*
X105356484Y-142252687D01*
X106259540Y-142482840D01*
X108009600Y-142482840D01*
X108009600Y-140224780D01*
X108263600Y-140224780D01*
X108263600Y-142482840D01*
X110013660Y-142482840D01*
X110916716Y-142252687D01*
X111662955Y-141694469D01*
X112138769Y-140893170D01*
X112219146Y-140595793D01*
X112187760Y-140489740D01*
X124533964Y-140489740D01*
X124712760Y-140921417D01*
X125117424Y-141362966D01*
X125660258Y-141616046D01*
X125898000Y-141495997D01*
X125898000Y-140252000D01*
X126152000Y-140252000D01*
X126152000Y-141495997D01*
X126389742Y-141616046D01*
X126932576Y-141362966D01*
X127337240Y-140921417D01*
X127516036Y-140489740D01*
X127933964Y-140489740D01*
X128112760Y-140921417D01*
X128517424Y-141362966D01*
X129060258Y-141616046D01*
X129298000Y-141495997D01*
X129298000Y-140252000D01*
X129552000Y-140252000D01*
X129552000Y-141495997D01*
X129789742Y-141616046D01*
X130332576Y-141362966D01*
X130737240Y-140921417D01*
X130916036Y-140489740D01*
X130795378Y-140252000D01*
X129552000Y-140252000D01*
X129298000Y-140252000D01*
X128054622Y-140252000D01*
X127933964Y-140489740D01*
X127516036Y-140489740D01*
X127395378Y-140252000D01*
X126152000Y-140252000D01*
X125898000Y-140252000D01*
X124654622Y-140252000D01*
X124533964Y-140489740D01*
X112187760Y-140489740D01*
X112109345Y-140224780D01*
X108263600Y-140224780D01*
X108009600Y-140224780D01*
X104163855Y-140224780D01*
X104054054Y-140595793D01*
X100735000Y-140595793D01*
X100735000Y-139599767D01*
X104054054Y-139599767D01*
X104163855Y-139970780D01*
X108009600Y-139970780D01*
X108009600Y-137712720D01*
X108263600Y-137712720D01*
X108263600Y-139970780D01*
X112109345Y-139970780D01*
X112171648Y-139760260D01*
X124533964Y-139760260D01*
X124654622Y-139998000D01*
X125898000Y-139998000D01*
X125898000Y-138754003D01*
X126152000Y-138754003D01*
X126152000Y-139998000D01*
X127395378Y-139998000D01*
X127516036Y-139760260D01*
X127933964Y-139760260D01*
X128054622Y-139998000D01*
X129298000Y-139998000D01*
X129298000Y-138754003D01*
X129552000Y-138754003D01*
X129552000Y-139998000D01*
X130795378Y-139998000D01*
X130916036Y-139760260D01*
X130737240Y-139328583D01*
X130642310Y-139225000D01*
X131277560Y-139225000D01*
X131277560Y-141025000D01*
X131326843Y-141272765D01*
X131467191Y-141482809D01*
X131677235Y-141623157D01*
X131925000Y-141672440D01*
X133725000Y-141672440D01*
X133972765Y-141623157D01*
X134182809Y-141482809D01*
X134323157Y-141272765D01*
X134372440Y-141025000D01*
X134372440Y-139225000D01*
X134323157Y-138977235D01*
X134182809Y-138767191D01*
X133972765Y-138626843D01*
X133725000Y-138577560D01*
X131925000Y-138577560D01*
X131677235Y-138626843D01*
X131467191Y-138767191D01*
X131326843Y-138977235D01*
X131277560Y-139225000D01*
X130642310Y-139225000D01*
X130332576Y-138887034D01*
X129789742Y-138633954D01*
X129552000Y-138754003D01*
X129298000Y-138754003D01*
X129060258Y-138633954D01*
X128517424Y-138887034D01*
X128112760Y-139328583D01*
X127933964Y-139760260D01*
X127516036Y-139760260D01*
X127337240Y-139328583D01*
X126932576Y-138887034D01*
X126389742Y-138633954D01*
X126152000Y-138754003D01*
X125898000Y-138754003D01*
X125660258Y-138633954D01*
X125117424Y-138887034D01*
X124712760Y-139328583D01*
X124533964Y-139760260D01*
X112171648Y-139760260D01*
X112219146Y-139599767D01*
X112138769Y-139302390D01*
X111920291Y-138934460D01*
X112274260Y-138934460D01*
X112274260Y-137626360D01*
X112528260Y-137626360D01*
X112528260Y-138934460D01*
X112977840Y-138934460D01*
X113517362Y-138776619D01*
X113955412Y-138424327D01*
X114225301Y-137931217D01*
X114242843Y-137848415D01*
X114120856Y-137626360D01*
X112528260Y-137626360D01*
X112274260Y-137626360D01*
X110681664Y-137626360D01*
X110559677Y-137848415D01*
X110560453Y-137852076D01*
X110013660Y-137712720D01*
X108263600Y-137712720D01*
X108009600Y-137712720D01*
X106259540Y-137712720D01*
X105356484Y-137942873D01*
X104610245Y-138501091D01*
X104134431Y-139302390D01*
X104054054Y-139599767D01*
X100735000Y-139599767D01*
X100735000Y-135000000D01*
X110488465Y-135000000D01*
X110599846Y-135559948D01*
X110917031Y-136034649D01*
X111245412Y-136254066D01*
X110847108Y-136574393D01*
X110577219Y-137067503D01*
X110559677Y-137150305D01*
X110681664Y-137372360D01*
X112274260Y-137372360D01*
X112274260Y-137352360D01*
X112528260Y-137352360D01*
X112528260Y-137372360D01*
X114120856Y-137372360D01*
X114242843Y-137150305D01*
X114225301Y-137067503D01*
X113955412Y-136574393D01*
X113557108Y-136254066D01*
X113885489Y-136034649D01*
X114035652Y-135809914D01*
X138540000Y-135809914D01*
X138540000Y-136510086D01*
X138807944Y-137156960D01*
X139303040Y-137652056D01*
X139949914Y-137920000D01*
X140650086Y-137920000D01*
X141296960Y-137652056D01*
X141792056Y-137156960D01*
X142060000Y-136510086D01*
X142060000Y-135809914D01*
X143240000Y-135809914D01*
X143240000Y-136510086D01*
X143507944Y-137156960D01*
X144003040Y-137652056D01*
X144649914Y-137920000D01*
X145350086Y-137920000D01*
X145996960Y-137652056D01*
X146492056Y-137156960D01*
X146760000Y-136510086D01*
X146760000Y-135809914D01*
X147940000Y-135809914D01*
X147940000Y-136510086D01*
X148207944Y-137156960D01*
X148703040Y-137652056D01*
X149349914Y-137920000D01*
X150050086Y-137920000D01*
X150696960Y-137652056D01*
X151192056Y-137156960D01*
X151460000Y-136510086D01*
X151460000Y-135809914D01*
X151192056Y-135163040D01*
X150696960Y-134667944D01*
X150050086Y-134400000D01*
X149349914Y-134400000D01*
X148703040Y-134667944D01*
X148207944Y-135163040D01*
X147940000Y-135809914D01*
X146760000Y-135809914D01*
X146492056Y-135163040D01*
X145996960Y-134667944D01*
X145350086Y-134400000D01*
X144649914Y-134400000D01*
X144003040Y-134667944D01*
X143507944Y-135163040D01*
X143240000Y-135809914D01*
X142060000Y-135809914D01*
X141792056Y-135163040D01*
X141296960Y-134667944D01*
X140650086Y-134400000D01*
X139949914Y-134400000D01*
X139303040Y-134667944D01*
X138807944Y-135163040D01*
X138540000Y-135809914D01*
X114035652Y-135809914D01*
X114202674Y-135559948D01*
X114314055Y-135000000D01*
X114202674Y-134440052D01*
X113885489Y-133965351D01*
X113410788Y-133648166D01*
X112992183Y-133564900D01*
X111810337Y-133564900D01*
X111391732Y-133648166D01*
X110917031Y-133965351D01*
X110599846Y-134440052D01*
X110488465Y-135000000D01*
X100735000Y-135000000D01*
X100735000Y-133432745D01*
X117596861Y-133432745D01*
X117670995Y-133678864D01*
X118208223Y-133871965D01*
X118778454Y-133844778D01*
X119179005Y-133678864D01*
X119253139Y-133432745D01*
X118425000Y-132604605D01*
X117596861Y-133432745D01*
X100735000Y-133432745D01*
X100735000Y-130397693D01*
X104054054Y-130397693D01*
X104134431Y-130695070D01*
X104610245Y-131496369D01*
X105356484Y-132054587D01*
X106259540Y-132284740D01*
X108009600Y-132284740D01*
X108009600Y-130026680D01*
X108263600Y-130026680D01*
X108263600Y-132284740D01*
X110013660Y-132284740D01*
X110313891Y-132208223D01*
X116978035Y-132208223D01*
X117005222Y-132778454D01*
X117171136Y-133179005D01*
X117417255Y-133253139D01*
X118245395Y-132425000D01*
X118604605Y-132425000D01*
X119432745Y-133253139D01*
X119678864Y-133179005D01*
X119871965Y-132641777D01*
X119844778Y-132071546D01*
X119678864Y-131670995D01*
X119526165Y-131625000D01*
X120477560Y-131625000D01*
X120477560Y-133225000D01*
X120526843Y-133472765D01*
X120667191Y-133682809D01*
X120877235Y-133823157D01*
X121125000Y-133872440D01*
X122725000Y-133872440D01*
X122972765Y-133823157D01*
X123182809Y-133682809D01*
X123321663Y-133475000D01*
X131377560Y-133475000D01*
X131377560Y-135075000D01*
X131426843Y-135322765D01*
X131567191Y-135532809D01*
X131777235Y-135673157D01*
X132025000Y-135722440D01*
X133625000Y-135722440D01*
X133872765Y-135673157D01*
X134082809Y-135532809D01*
X134223157Y-135322765D01*
X134272440Y-135075000D01*
X134272440Y-133475000D01*
X134223157Y-133227235D01*
X134082809Y-133017191D01*
X133872765Y-132876843D01*
X133625000Y-132827560D01*
X132025000Y-132827560D01*
X131777235Y-132876843D01*
X131567191Y-133017191D01*
X131426843Y-133227235D01*
X131377560Y-133475000D01*
X123321663Y-133475000D01*
X123323157Y-133472765D01*
X123372440Y-133225000D01*
X123372440Y-131782745D01*
X131996861Y-131782745D01*
X132070995Y-132028864D01*
X132608223Y-132221965D01*
X133178454Y-132194778D01*
X133579005Y-132028864D01*
X133653139Y-131782745D01*
X132825000Y-130954605D01*
X131996861Y-131782745D01*
X123372440Y-131782745D01*
X123372440Y-131625000D01*
X123323157Y-131377235D01*
X123182809Y-131167191D01*
X122972765Y-131026843D01*
X122725000Y-130977560D01*
X121125000Y-130977560D01*
X120877235Y-131026843D01*
X120667191Y-131167191D01*
X120526843Y-131377235D01*
X120477560Y-131625000D01*
X119526165Y-131625000D01*
X119432745Y-131596861D01*
X118604605Y-132425000D01*
X118245395Y-132425000D01*
X117417255Y-131596861D01*
X117171136Y-131670995D01*
X116978035Y-132208223D01*
X110313891Y-132208223D01*
X110916716Y-132054587D01*
X111662955Y-131496369D01*
X111709933Y-131417255D01*
X117596861Y-131417255D01*
X118425000Y-132245395D01*
X119253139Y-131417255D01*
X119179005Y-131171136D01*
X118641777Y-130978035D01*
X118071546Y-131005222D01*
X117670995Y-131171136D01*
X117596861Y-131417255D01*
X111709933Y-131417255D01*
X112138769Y-130695070D01*
X112175756Y-130558223D01*
X131378035Y-130558223D01*
X131405222Y-131128454D01*
X131571136Y-131529005D01*
X131817255Y-131603139D01*
X132645395Y-130775000D01*
X133004605Y-130775000D01*
X133832745Y-131603139D01*
X134078864Y-131529005D01*
X134188135Y-131225000D01*
X138527560Y-131225000D01*
X138527560Y-133475000D01*
X138576843Y-133722765D01*
X138717191Y-133932809D01*
X138927235Y-134073157D01*
X139175000Y-134122440D01*
X141425000Y-134122440D01*
X141672765Y-134073157D01*
X141882809Y-133932809D01*
X142023157Y-133722765D01*
X142072440Y-133475000D01*
X142072440Y-131999914D01*
X143240000Y-131999914D01*
X143240000Y-132700086D01*
X143507944Y-133346960D01*
X144003040Y-133842056D01*
X144649914Y-134110000D01*
X145350086Y-134110000D01*
X145996960Y-133842056D01*
X146492056Y-133346960D01*
X146760000Y-132700086D01*
X146760000Y-131999914D01*
X146492056Y-131353040D01*
X145996960Y-130857944D01*
X145350086Y-130590000D01*
X144649914Y-130590000D01*
X144003040Y-130857944D01*
X143507944Y-131353040D01*
X143240000Y-131999914D01*
X142072440Y-131999914D01*
X142072440Y-131225000D01*
X142023157Y-130977235D01*
X141882809Y-130767191D01*
X141672765Y-130626843D01*
X141425000Y-130577560D01*
X139175000Y-130577560D01*
X138927235Y-130626843D01*
X138717191Y-130767191D01*
X138576843Y-130977235D01*
X138527560Y-131225000D01*
X134188135Y-131225000D01*
X134271965Y-130991777D01*
X134244778Y-130421546D01*
X134078864Y-130020995D01*
X133832745Y-129946861D01*
X133004605Y-130775000D01*
X132645395Y-130775000D01*
X131817255Y-129946861D01*
X131571136Y-130020995D01*
X131378035Y-130558223D01*
X112175756Y-130558223D01*
X112219146Y-130397693D01*
X112109345Y-130026680D01*
X108263600Y-130026680D01*
X108009600Y-130026680D01*
X104163855Y-130026680D01*
X104054054Y-130397693D01*
X100735000Y-130397693D01*
X100735000Y-129401667D01*
X104054054Y-129401667D01*
X104163855Y-129772680D01*
X108009600Y-129772680D01*
X108009600Y-127514620D01*
X108263600Y-127514620D01*
X108263600Y-129772680D01*
X112109345Y-129772680D01*
X112110950Y-129767255D01*
X131996861Y-129767255D01*
X132825000Y-130595395D01*
X133653139Y-129767255D01*
X133579005Y-129521136D01*
X133041777Y-129328035D01*
X132471546Y-129355222D01*
X132070995Y-129521136D01*
X131996861Y-129767255D01*
X112110950Y-129767255D01*
X112219146Y-129401667D01*
X112138769Y-129104290D01*
X111662955Y-128302991D01*
X110916716Y-127744773D01*
X110013660Y-127514620D01*
X108263600Y-127514620D01*
X108009600Y-127514620D01*
X106259540Y-127514620D01*
X105356484Y-127744773D01*
X104610245Y-128302991D01*
X104134431Y-129104290D01*
X104054054Y-129401667D01*
X100735000Y-129401667D01*
X100735000Y-127294126D01*
X119390000Y-127294126D01*
X119390000Y-127705874D01*
X119547569Y-128086280D01*
X119838720Y-128377431D01*
X120219126Y-128535000D01*
X120630874Y-128535000D01*
X121011280Y-128377431D01*
X121128711Y-128260000D01*
X135096289Y-128260000D01*
X135213720Y-128377431D01*
X135594126Y-128535000D01*
X136005874Y-128535000D01*
X136386280Y-128377431D01*
X136677431Y-128086280D01*
X136835000Y-127705874D01*
X136835000Y-127294126D01*
X136677431Y-126913720D01*
X136386280Y-126622569D01*
X136005874Y-126465000D01*
X135594126Y-126465000D01*
X135213720Y-126622569D01*
X135096289Y-126740000D01*
X121128711Y-126740000D01*
X121011280Y-126622569D01*
X120630874Y-126465000D01*
X120219126Y-126465000D01*
X119838720Y-126622569D01*
X119547569Y-126913720D01*
X119390000Y-127294126D01*
X100735000Y-127294126D01*
X100735000Y-124624503D01*
X116240950Y-124624503D01*
X116545114Y-125358836D01*
X117150813Y-125986220D01*
X117950496Y-126334056D01*
X118298000Y-126222645D01*
X118298000Y-124277000D01*
X118552000Y-124277000D01*
X118552000Y-126222645D01*
X118899504Y-126334056D01*
X119699187Y-125986220D01*
X120304886Y-125358836D01*
X120609050Y-124624503D01*
X120497362Y-124277000D01*
X118552000Y-124277000D01*
X118298000Y-124277000D01*
X116352638Y-124277000D01*
X116240950Y-124624503D01*
X100735000Y-124624503D01*
X100735000Y-123675497D01*
X116240950Y-123675497D01*
X116352638Y-124023000D01*
X118298000Y-124023000D01*
X118298000Y-122077355D01*
X118552000Y-122077355D01*
X118552000Y-124023000D01*
X120497362Y-124023000D01*
X120609050Y-123675497D01*
X120304886Y-122941164D01*
X119927243Y-122550000D01*
X128877560Y-122550000D01*
X128877560Y-125750000D01*
X128926843Y-125997765D01*
X129067191Y-126207809D01*
X129277235Y-126348157D01*
X129525000Y-126397440D01*
X132725000Y-126397440D01*
X132972765Y-126348157D01*
X133182809Y-126207809D01*
X133323157Y-125997765D01*
X133372440Y-125750000D01*
X133372440Y-123849778D01*
X137190000Y-123849778D01*
X137190000Y-124500222D01*
X137438914Y-125101153D01*
X137898847Y-125561086D01*
X138499778Y-125810000D01*
X139150222Y-125810000D01*
X139751153Y-125561086D01*
X140211086Y-125101153D01*
X140460000Y-124500222D01*
X140460000Y-123849778D01*
X141190000Y-123849778D01*
X141190000Y-124500222D01*
X141438914Y-125101153D01*
X141898847Y-125561086D01*
X142499778Y-125810000D01*
X143150222Y-125810000D01*
X143751153Y-125561086D01*
X144211086Y-125101153D01*
X144460000Y-124500222D01*
X144460000Y-123849778D01*
X144211086Y-123248847D01*
X143751153Y-122788914D01*
X143150222Y-122540000D01*
X142499778Y-122540000D01*
X141898847Y-122788914D01*
X141438914Y-123248847D01*
X141190000Y-123849778D01*
X140460000Y-123849778D01*
X140211086Y-123248847D01*
X139751153Y-122788914D01*
X139150222Y-122540000D01*
X138499778Y-122540000D01*
X137898847Y-122788914D01*
X137438914Y-123248847D01*
X137190000Y-123849778D01*
X133372440Y-123849778D01*
X133372440Y-122550000D01*
X133323157Y-122302235D01*
X133182809Y-122092191D01*
X132972765Y-121951843D01*
X132725000Y-121902560D01*
X129525000Y-121902560D01*
X129277235Y-121951843D01*
X129067191Y-122092191D01*
X128926843Y-122302235D01*
X128877560Y-122550000D01*
X119927243Y-122550000D01*
X119699187Y-122313780D01*
X118899504Y-121965944D01*
X118552000Y-122077355D01*
X118298000Y-122077355D01*
X117950496Y-121965944D01*
X117150813Y-122313780D01*
X116545114Y-122941164D01*
X116240950Y-123675497D01*
X100735000Y-123675497D01*
X100735000Y-119969126D01*
X139340000Y-119969126D01*
X139340000Y-120380874D01*
X139497569Y-120761280D01*
X139788720Y-121052431D01*
X140169126Y-121210000D01*
X140580874Y-121210000D01*
X140961280Y-121052431D01*
X141078711Y-120935000D01*
X144010199Y-120935000D01*
X151290000Y-128214802D01*
X151290001Y-131589499D01*
X151192056Y-131353040D01*
X150696960Y-130857944D01*
X150050086Y-130590000D01*
X149349914Y-130590000D01*
X148703040Y-130857944D01*
X148207944Y-131353040D01*
X147940000Y-131999914D01*
X147940000Y-132700086D01*
X148207944Y-133346960D01*
X148703040Y-133842056D01*
X149349914Y-134110000D01*
X150050086Y-134110000D01*
X150696960Y-133842056D01*
X151192056Y-133346960D01*
X151290001Y-133110501D01*
X151290001Y-134850148D01*
X151275112Y-134925000D01*
X151290001Y-134999852D01*
X151334097Y-135221537D01*
X151502072Y-135472929D01*
X151565528Y-135515329D01*
X155109671Y-139059473D01*
X155152071Y-139122929D01*
X155403463Y-139290904D01*
X155625148Y-139335000D01*
X155625152Y-139335000D01*
X155700000Y-139349888D01*
X155774848Y-139335000D01*
X159746289Y-139335000D01*
X159863720Y-139452431D01*
X160244126Y-139610000D01*
X160655874Y-139610000D01*
X161036280Y-139452431D01*
X161327431Y-139161280D01*
X161485000Y-138780874D01*
X161485000Y-138369126D01*
X161327431Y-137988720D01*
X161036280Y-137697569D01*
X160655874Y-137540000D01*
X160244126Y-137540000D01*
X159863720Y-137697569D01*
X159746289Y-137815000D01*
X156014802Y-137815000D01*
X152810000Y-134610199D01*
X152810000Y-131622479D01*
X153115423Y-132079577D01*
X153590091Y-132396740D01*
X154008667Y-132480000D01*
X154291333Y-132480000D01*
X154709909Y-132396740D01*
X155184577Y-132079577D01*
X155501740Y-131604909D01*
X155613113Y-131045000D01*
X155501740Y-130485091D01*
X155184577Y-130010423D01*
X154709909Y-129693260D01*
X154291333Y-129610000D01*
X154008667Y-129610000D01*
X153590091Y-129693260D01*
X153115423Y-130010423D01*
X152810000Y-130467521D01*
X152810000Y-127974848D01*
X152824888Y-127900000D01*
X152810000Y-127825152D01*
X152810000Y-127825148D01*
X152765904Y-127603463D01*
X152765904Y-127603462D01*
X152640329Y-127415527D01*
X152639531Y-127414332D01*
X157985528Y-132760330D01*
X158164287Y-132879773D01*
X159518986Y-134234473D01*
X159561386Y-134297929D01*
X159812778Y-134465904D01*
X159955603Y-134494314D01*
X160088720Y-134627431D01*
X160469126Y-134785000D01*
X160880874Y-134785000D01*
X161261280Y-134627431D01*
X161552431Y-134336280D01*
X161710000Y-133955874D01*
X161710000Y-133544126D01*
X161552431Y-133163720D01*
X161261280Y-132872569D01*
X160880874Y-132715000D01*
X160469126Y-132715000D01*
X160242845Y-132808728D01*
X158741351Y-131307234D01*
X159182481Y-131012481D01*
X159477542Y-130570891D01*
X159581154Y-130050000D01*
X159477542Y-129529109D01*
X159182481Y-129087519D01*
X158740891Y-128792458D01*
X158351485Y-128715000D01*
X158088515Y-128715000D01*
X157699109Y-128792458D01*
X157257519Y-129087519D01*
X156962765Y-129528649D01*
X152434116Y-125000000D01*
X159052560Y-125000000D01*
X159052560Y-127600000D01*
X159101843Y-127847765D01*
X159242191Y-128057809D01*
X159452235Y-128198157D01*
X159700000Y-128247440D01*
X162300000Y-128247440D01*
X162547765Y-128198157D01*
X162757809Y-128057809D01*
X162898157Y-127847765D01*
X162947440Y-127600000D01*
X162947440Y-125000000D01*
X162898157Y-124752235D01*
X162757809Y-124542191D01*
X162547765Y-124401843D01*
X162300000Y-124352560D01*
X159700000Y-124352560D01*
X159452235Y-124401843D01*
X159242191Y-124542191D01*
X159101843Y-124752235D01*
X159052560Y-125000000D01*
X152434116Y-125000000D01*
X150059116Y-122625000D01*
X152702560Y-122625000D01*
X152702560Y-124225000D01*
X152751843Y-124472765D01*
X152892191Y-124682809D01*
X153102235Y-124823157D01*
X153350000Y-124872440D01*
X154950000Y-124872440D01*
X155197765Y-124823157D01*
X155407809Y-124682809D01*
X155548157Y-124472765D01*
X155597440Y-124225000D01*
X155597440Y-122625000D01*
X155548157Y-122377235D01*
X155407809Y-122167191D01*
X155197765Y-122026843D01*
X154950000Y-121977560D01*
X153350000Y-121977560D01*
X153102235Y-122026843D01*
X152892191Y-122167191D01*
X152751843Y-122377235D01*
X152702560Y-122625000D01*
X150059116Y-122625000D01*
X148660000Y-121225884D01*
X148660000Y-119502975D01*
X149031758Y-119131217D01*
X149235000Y-118640548D01*
X149235000Y-118405000D01*
X151113846Y-118405000D01*
X151217458Y-118925891D01*
X151512519Y-119367481D01*
X151954109Y-119662542D01*
X152343515Y-119740000D01*
X152606485Y-119740000D01*
X152995891Y-119662542D01*
X153437481Y-119367481D01*
X153732542Y-118925891D01*
X153836154Y-118405000D01*
X153732542Y-117884109D01*
X153437481Y-117442519D01*
X152995891Y-117147458D01*
X152606485Y-117070000D01*
X152343515Y-117070000D01*
X151954109Y-117147458D01*
X151512519Y-117442519D01*
X151217458Y-117884109D01*
X151113846Y-118405000D01*
X149235000Y-118405000D01*
X149235000Y-118109452D01*
X149031758Y-117618783D01*
X148656217Y-117243242D01*
X148165548Y-117040000D01*
X147634452Y-117040000D01*
X147143783Y-117243242D01*
X146768242Y-117618783D01*
X146565000Y-118109452D01*
X146565000Y-118640548D01*
X146768242Y-119131217D01*
X147140001Y-119502976D01*
X147140000Y-121465838D01*
X147125112Y-121540685D01*
X147131011Y-121570343D01*
X147125112Y-121600000D01*
X147140000Y-121674847D01*
X147140000Y-121674851D01*
X147184096Y-121896536D01*
X147310470Y-122085669D01*
X144915331Y-119690530D01*
X144872929Y-119627071D01*
X144621537Y-119459096D01*
X144399852Y-119415000D01*
X144399847Y-119415000D01*
X144325000Y-119400112D01*
X144250153Y-119415000D01*
X141078711Y-119415000D01*
X140961280Y-119297569D01*
X140580874Y-119140000D01*
X140169126Y-119140000D01*
X139788720Y-119297569D01*
X139497569Y-119588720D01*
X139340000Y-119969126D01*
X100735000Y-119969126D01*
X100735000Y-119031676D01*
X100736157Y-119032833D01*
X101296659Y-119265000D01*
X101903341Y-119265000D01*
X102463843Y-119032833D01*
X102892833Y-118603843D01*
X102930531Y-118512832D01*
X103105423Y-118774577D01*
X103580091Y-119091740D01*
X103998667Y-119175000D01*
X104281333Y-119175000D01*
X104699909Y-119091740D01*
X105174577Y-118774577D01*
X105410000Y-118422242D01*
X105645423Y-118774577D01*
X106120091Y-119091740D01*
X106538667Y-119175000D01*
X106821333Y-119175000D01*
X107239909Y-119091740D01*
X107714577Y-118774577D01*
X107950000Y-118422242D01*
X108185423Y-118774577D01*
X108660091Y-119091740D01*
X109078667Y-119175000D01*
X109361333Y-119175000D01*
X109779909Y-119091740D01*
X110254577Y-118774577D01*
X110490000Y-118422242D01*
X110725423Y-118774577D01*
X111200091Y-119091740D01*
X111618667Y-119175000D01*
X111901333Y-119175000D01*
X112319909Y-119091740D01*
X112794577Y-118774577D01*
X113030000Y-118422242D01*
X113265423Y-118774577D01*
X113740091Y-119091740D01*
X114158667Y-119175000D01*
X114441333Y-119175000D01*
X114859909Y-119091740D01*
X115334577Y-118774577D01*
X115570000Y-118422242D01*
X115805423Y-118774577D01*
X116280091Y-119091740D01*
X116698667Y-119175000D01*
X116981333Y-119175000D01*
X117399909Y-119091740D01*
X117874577Y-118774577D01*
X118110000Y-118422242D01*
X118345423Y-118774577D01*
X118820091Y-119091740D01*
X119238667Y-119175000D01*
X119521333Y-119175000D01*
X119939909Y-119091740D01*
X120414577Y-118774577D01*
X120650000Y-118422242D01*
X120885423Y-118774577D01*
X121360091Y-119091740D01*
X121778667Y-119175000D01*
X122061333Y-119175000D01*
X122479909Y-119091740D01*
X122954577Y-118774577D01*
X123190000Y-118422242D01*
X123425423Y-118774577D01*
X123900091Y-119091740D01*
X124318667Y-119175000D01*
X124601333Y-119175000D01*
X125019909Y-119091740D01*
X125494577Y-118774577D01*
X125730000Y-118422242D01*
X125965423Y-118774577D01*
X126440091Y-119091740D01*
X126858667Y-119175000D01*
X127141333Y-119175000D01*
X127559909Y-119091740D01*
X128034577Y-118774577D01*
X128270000Y-118422242D01*
X128505423Y-118774577D01*
X128980091Y-119091740D01*
X129398667Y-119175000D01*
X129681333Y-119175000D01*
X130099909Y-119091740D01*
X130574577Y-118774577D01*
X130810000Y-118422242D01*
X131045423Y-118774577D01*
X131520091Y-119091740D01*
X131938667Y-119175000D01*
X132221333Y-119175000D01*
X132639909Y-119091740D01*
X133114577Y-118774577D01*
X133350000Y-118422242D01*
X133585423Y-118774577D01*
X134060091Y-119091740D01*
X134478667Y-119175000D01*
X134761333Y-119175000D01*
X135179909Y-119091740D01*
X135654577Y-118774577D01*
X135910947Y-118390892D01*
X136007611Y-118595134D01*
X136422577Y-118971041D01*
X136810961Y-119131904D01*
X137033000Y-119009915D01*
X137033000Y-117867000D01*
X137013000Y-117867000D01*
X137013000Y-117613000D01*
X137033000Y-117613000D01*
X137033000Y-116470085D01*
X137287000Y-116470085D01*
X137287000Y-117613000D01*
X137307000Y-117613000D01*
X137307000Y-117867000D01*
X137287000Y-117867000D01*
X137287000Y-119009915D01*
X137509039Y-119131904D01*
X137897423Y-118971041D01*
X138312389Y-118595134D01*
X138409053Y-118390892D01*
X138665423Y-118774577D01*
X139140091Y-119091740D01*
X139558667Y-119175000D01*
X139841333Y-119175000D01*
X140259909Y-119091740D01*
X140734577Y-118774577D01*
X140909469Y-118512832D01*
X140947167Y-118603843D01*
X141376157Y-119032833D01*
X141936659Y-119265000D01*
X142543341Y-119265000D01*
X143103843Y-119032833D01*
X143532833Y-118603843D01*
X143765000Y-118043341D01*
X143765000Y-117436659D01*
X143577917Y-116984999D01*
X144895154Y-116984999D01*
X144970001Y-116999887D01*
X145044848Y-116984999D01*
X145044853Y-116984999D01*
X145266538Y-116940903D01*
X145517930Y-116772928D01*
X145560332Y-116709469D01*
X147661157Y-114608645D01*
X147768515Y-114630000D01*
X148031485Y-114630000D01*
X148420891Y-114552542D01*
X148862481Y-114257481D01*
X149157542Y-113815891D01*
X149261154Y-113295000D01*
X149214301Y-113059452D01*
X151140000Y-113059452D01*
X151140000Y-113590548D01*
X151343242Y-114081217D01*
X151718783Y-114456758D01*
X152209452Y-114660000D01*
X152740548Y-114660000D01*
X153231217Y-114456758D01*
X153606758Y-114081217D01*
X153810000Y-113590548D01*
X153810000Y-113059452D01*
X153606758Y-112568783D01*
X153231217Y-112193242D01*
X152740548Y-111990000D01*
X152209452Y-111990000D01*
X151718783Y-112193242D01*
X151343242Y-112568783D01*
X151140000Y-113059452D01*
X149214301Y-113059452D01*
X149157542Y-112774109D01*
X148862481Y-112332519D01*
X148420891Y-112037458D01*
X148031485Y-111960000D01*
X147768515Y-111960000D01*
X147379109Y-112037458D01*
X146937519Y-112332519D01*
X146642458Y-112774109D01*
X146538846Y-113295000D01*
X146586355Y-113533843D01*
X144655200Y-115464999D01*
X143571159Y-115464999D01*
X143477431Y-115238720D01*
X143186280Y-114947569D01*
X142805874Y-114790000D01*
X142394126Y-114790000D01*
X142013720Y-114947569D01*
X141722569Y-115238720D01*
X141565000Y-115619126D01*
X141565000Y-116030874D01*
X141684526Y-116319437D01*
X141376157Y-116447167D01*
X140947167Y-116876157D01*
X140909469Y-116967168D01*
X140734577Y-116705423D01*
X140259909Y-116388260D01*
X139841333Y-116305000D01*
X139558667Y-116305000D01*
X139140091Y-116388260D01*
X138665423Y-116705423D01*
X138409053Y-117089108D01*
X138312389Y-116884866D01*
X137897423Y-116508959D01*
X137509039Y-116348096D01*
X137287000Y-116470085D01*
X137033000Y-116470085D01*
X136810961Y-116348096D01*
X136422577Y-116508959D01*
X136007611Y-116884866D01*
X135910947Y-117089108D01*
X135654577Y-116705423D01*
X135179909Y-116388260D01*
X134761333Y-116305000D01*
X134581809Y-116305000D01*
X134685000Y-116055874D01*
X134685000Y-115644126D01*
X134527431Y-115263720D01*
X134236280Y-114972569D01*
X133855874Y-114815000D01*
X133444126Y-114815000D01*
X133063720Y-114972569D01*
X132946289Y-115090000D01*
X131728711Y-115090000D01*
X131611280Y-114972569D01*
X131230874Y-114815000D01*
X130819126Y-114815000D01*
X130438720Y-114972569D01*
X130147569Y-115263720D01*
X129990000Y-115644126D01*
X129990000Y-116055874D01*
X130138305Y-116413916D01*
X130099909Y-116388260D01*
X129681333Y-116305000D01*
X129398667Y-116305000D01*
X128980091Y-116388260D01*
X128505423Y-116705423D01*
X128270000Y-117057758D01*
X128034577Y-116705423D01*
X127559909Y-116388260D01*
X127141333Y-116305000D01*
X126858667Y-116305000D01*
X126440091Y-116388260D01*
X125965423Y-116705423D01*
X125730000Y-117057758D01*
X125494577Y-116705423D01*
X125019909Y-116388260D01*
X124601333Y-116305000D01*
X124318667Y-116305000D01*
X123900091Y-116388260D01*
X123425423Y-116705423D01*
X123190000Y-117057758D01*
X122954577Y-116705423D01*
X122479909Y-116388260D01*
X122061333Y-116305000D01*
X121778667Y-116305000D01*
X121360091Y-116388260D01*
X120885423Y-116705423D01*
X120650000Y-117057758D01*
X120414577Y-116705423D01*
X119939909Y-116388260D01*
X119521333Y-116305000D01*
X119238667Y-116305000D01*
X118820091Y-116388260D01*
X118345423Y-116705423D01*
X118110000Y-117057758D01*
X117874577Y-116705423D01*
X117399909Y-116388260D01*
X116981333Y-116305000D01*
X116698667Y-116305000D01*
X116280091Y-116388260D01*
X115805423Y-116705423D01*
X115570000Y-117057758D01*
X115334577Y-116705423D01*
X114859909Y-116388260D01*
X114441333Y-116305000D01*
X114158667Y-116305000D01*
X113740091Y-116388260D01*
X113265423Y-116705423D01*
X113030000Y-117057758D01*
X112794577Y-116705423D01*
X112319909Y-116388260D01*
X111901333Y-116305000D01*
X111618667Y-116305000D01*
X111200091Y-116388260D01*
X110725423Y-116705423D01*
X110490000Y-117057758D01*
X110254577Y-116705423D01*
X109779909Y-116388260D01*
X109361333Y-116305000D01*
X109078667Y-116305000D01*
X108660091Y-116388260D01*
X108185423Y-116705423D01*
X107950000Y-117057758D01*
X107714577Y-116705423D01*
X107239909Y-116388260D01*
X106821333Y-116305000D01*
X106538667Y-116305000D01*
X106120091Y-116388260D01*
X105645423Y-116705423D01*
X105410000Y-117057758D01*
X105174577Y-116705423D01*
X104699909Y-116388260D01*
X104281333Y-116305000D01*
X103998667Y-116305000D01*
X103580091Y-116388260D01*
X103105423Y-116705423D01*
X102930531Y-116967168D01*
X102892833Y-116876157D01*
X102463843Y-116447167D01*
X101903341Y-116215000D01*
X101296659Y-116215000D01*
X100736157Y-116447167D01*
X100735000Y-116448324D01*
X100735000Y-111894126D01*
X141215000Y-111894126D01*
X141215000Y-112305874D01*
X141372569Y-112686280D01*
X141663720Y-112977431D01*
X142044126Y-113135000D01*
X142455874Y-113135000D01*
X142836280Y-112977431D01*
X143127431Y-112686280D01*
X143285000Y-112305874D01*
X143285000Y-112139801D01*
X144364801Y-111060000D01*
X159027092Y-111060000D01*
X159177271Y-111814999D01*
X159604943Y-112455057D01*
X160245001Y-112882729D01*
X160809424Y-112995000D01*
X161190576Y-112995000D01*
X161754999Y-112882729D01*
X162395057Y-112455057D01*
X162822729Y-111814999D01*
X162972908Y-111060000D01*
X162822729Y-110305001D01*
X162395057Y-109664943D01*
X161754999Y-109237271D01*
X161190576Y-109125000D01*
X160809424Y-109125000D01*
X160245001Y-109237271D01*
X159604943Y-109664943D01*
X159177271Y-110305001D01*
X159027092Y-111060000D01*
X144364801Y-111060000D01*
X145509473Y-109915329D01*
X145572929Y-109872929D01*
X145740904Y-109621537D01*
X145785000Y-109399852D01*
X145785000Y-109399848D01*
X145799888Y-109325000D01*
X145785000Y-109250152D01*
X145785000Y-107580000D01*
X146538846Y-107580000D01*
X146642458Y-108100891D01*
X146937519Y-108542481D01*
X147379109Y-108837542D01*
X147768515Y-108915000D01*
X148031485Y-108915000D01*
X148420891Y-108837542D01*
X148862481Y-108542481D01*
X149157542Y-108100891D01*
X149261154Y-107580000D01*
X151138846Y-107580000D01*
X151242458Y-108100891D01*
X151537519Y-108542481D01*
X151979109Y-108837542D01*
X152368515Y-108915000D01*
X152631485Y-108915000D01*
X153020891Y-108837542D01*
X153462481Y-108542481D01*
X153757542Y-108100891D01*
X153861154Y-107580000D01*
X153807339Y-107309452D01*
X155740000Y-107309452D01*
X155740000Y-107840548D01*
X155943242Y-108331217D01*
X156318783Y-108706758D01*
X156809452Y-108910000D01*
X157340548Y-108910000D01*
X157831217Y-108706758D01*
X158206758Y-108331217D01*
X158410000Y-107840548D01*
X158410000Y-107309452D01*
X158206758Y-106818783D01*
X157831217Y-106443242D01*
X157340548Y-106240000D01*
X156809452Y-106240000D01*
X156318783Y-106443242D01*
X155943242Y-106818783D01*
X155740000Y-107309452D01*
X153807339Y-107309452D01*
X153757542Y-107059109D01*
X153462481Y-106617519D01*
X153020891Y-106322458D01*
X152631485Y-106245000D01*
X152368515Y-106245000D01*
X151979109Y-106322458D01*
X151537519Y-106617519D01*
X151242458Y-107059109D01*
X151138846Y-107580000D01*
X149261154Y-107580000D01*
X149157542Y-107059109D01*
X148862481Y-106617519D01*
X148420891Y-106322458D01*
X148031485Y-106245000D01*
X147768515Y-106245000D01*
X147379109Y-106322458D01*
X146937519Y-106617519D01*
X146642458Y-107059109D01*
X146538846Y-107580000D01*
X145785000Y-107580000D01*
X145785000Y-102578711D01*
X145902431Y-102461280D01*
X145996386Y-102234452D01*
X146565000Y-102234452D01*
X146565000Y-102765548D01*
X146768242Y-103256217D01*
X147143783Y-103631758D01*
X147634452Y-103835000D01*
X148165548Y-103835000D01*
X148656217Y-103631758D01*
X149031758Y-103256217D01*
X149235000Y-102765548D01*
X149235000Y-102234452D01*
X151165000Y-102234452D01*
X151165000Y-102765548D01*
X151368242Y-103256217D01*
X151743783Y-103631758D01*
X152234452Y-103835000D01*
X152765548Y-103835000D01*
X153256217Y-103631758D01*
X153631758Y-103256217D01*
X153835000Y-102765548D01*
X153835000Y-102495000D01*
X155713846Y-102495000D01*
X155817458Y-103015891D01*
X156112519Y-103457481D01*
X156554109Y-103752542D01*
X156943515Y-103830000D01*
X157206485Y-103830000D01*
X157595891Y-103752542D01*
X158037481Y-103457481D01*
X158332542Y-103015891D01*
X158436154Y-102495000D01*
X158332542Y-101974109D01*
X158037481Y-101532519D01*
X157595891Y-101237458D01*
X157206485Y-101160000D01*
X156943515Y-101160000D01*
X156554109Y-101237458D01*
X156112519Y-101532519D01*
X155817458Y-101974109D01*
X155713846Y-102495000D01*
X153835000Y-102495000D01*
X153835000Y-102234452D01*
X153631758Y-101743783D01*
X153256217Y-101368242D01*
X152765548Y-101165000D01*
X152234452Y-101165000D01*
X151743783Y-101368242D01*
X151368242Y-101743783D01*
X151165000Y-102234452D01*
X149235000Y-102234452D01*
X149031758Y-101743783D01*
X148656217Y-101368242D01*
X148165548Y-101165000D01*
X147634452Y-101165000D01*
X147143783Y-101368242D01*
X146768242Y-101743783D01*
X146565000Y-102234452D01*
X145996386Y-102234452D01*
X146060000Y-102080874D01*
X146060000Y-101669126D01*
X145902431Y-101288720D01*
X145663711Y-101050000D01*
X161788846Y-101050000D01*
X161892458Y-101570891D01*
X162187519Y-102012481D01*
X162243670Y-102050000D01*
X162187519Y-102087519D01*
X161892458Y-102529109D01*
X161788846Y-103050000D01*
X161892458Y-103570891D01*
X162187519Y-104012481D01*
X162243670Y-104050000D01*
X162187519Y-104087519D01*
X161892458Y-104529109D01*
X161788846Y-105050000D01*
X161892458Y-105570891D01*
X162187519Y-106012481D01*
X162629109Y-106307542D01*
X163018515Y-106385000D01*
X163043206Y-106385000D01*
X163152071Y-106547929D01*
X163215530Y-106590331D01*
X163559671Y-106934472D01*
X164190001Y-107564803D01*
X164190000Y-129052025D01*
X164056217Y-128918242D01*
X163565548Y-128715000D01*
X163034452Y-128715000D01*
X162543783Y-128918242D01*
X162168242Y-129293783D01*
X161965000Y-129784452D01*
X161965000Y-130315548D01*
X162168242Y-130806217D01*
X162543783Y-131181758D01*
X163034452Y-131385000D01*
X163565548Y-131385000D01*
X164056217Y-131181758D01*
X164190000Y-131047975D01*
X164190000Y-134402059D01*
X164234096Y-134623744D01*
X164240000Y-134632580D01*
X164240000Y-135178331D01*
X164130493Y-135223690D01*
X163698690Y-135655493D01*
X163465000Y-136219670D01*
X163465000Y-136830330D01*
X163698690Y-137394507D01*
X164130493Y-137826310D01*
X164694670Y-138060000D01*
X165305330Y-138060000D01*
X165869507Y-137826310D01*
X166250000Y-137445817D01*
X166630493Y-137826310D01*
X167194670Y-138060000D01*
X167805330Y-138060000D01*
X168369507Y-137826310D01*
X168750000Y-137445817D01*
X169130493Y-137826310D01*
X169694670Y-138060000D01*
X170305330Y-138060000D01*
X170869507Y-137826310D01*
X171301310Y-137394507D01*
X171535000Y-136830330D01*
X171535000Y-136219670D01*
X171301310Y-135655493D01*
X170869507Y-135223690D01*
X170305330Y-134990000D01*
X169694670Y-134990000D01*
X169130493Y-135223690D01*
X168750000Y-135604183D01*
X168369507Y-135223690D01*
X167805330Y-134990000D01*
X167194670Y-134990000D01*
X166630493Y-135223690D01*
X166250000Y-135604183D01*
X165869507Y-135223690D01*
X165760000Y-135178331D01*
X165760000Y-130025000D01*
X165832769Y-130025000D01*
X165940649Y-130567351D01*
X166247866Y-131027134D01*
X166707649Y-131334351D01*
X167113100Y-131415000D01*
X168886900Y-131415000D01*
X169292351Y-131334351D01*
X169752134Y-131027134D01*
X170059351Y-130567351D01*
X170167231Y-130025000D01*
X170059351Y-129482649D01*
X169752134Y-129022866D01*
X169292351Y-128715649D01*
X168886900Y-128635000D01*
X167113100Y-128635000D01*
X166707649Y-128715649D01*
X166247866Y-129022866D01*
X165940649Y-129482649D01*
X165832769Y-130025000D01*
X165760000Y-130025000D01*
X165760000Y-126866971D01*
X165902723Y-126866971D01*
X165917207Y-126939597D01*
X166177319Y-127418076D01*
X166600737Y-127760592D01*
X167123000Y-127915000D01*
X167873000Y-127915000D01*
X167873000Y-126652000D01*
X168127000Y-126652000D01*
X168127000Y-127915000D01*
X168877000Y-127915000D01*
X169399263Y-127760592D01*
X169822681Y-127418076D01*
X170082793Y-126939597D01*
X170097277Y-126866971D01*
X169974683Y-126652000D01*
X168127000Y-126652000D01*
X167873000Y-126652000D01*
X166025317Y-126652000D01*
X165902723Y-126866971D01*
X165760000Y-126866971D01*
X165760000Y-126183029D01*
X165902723Y-126183029D01*
X166025317Y-126398000D01*
X167873000Y-126398000D01*
X167873000Y-125135000D01*
X168127000Y-125135000D01*
X168127000Y-126398000D01*
X169974683Y-126398000D01*
X170097277Y-126183029D01*
X170082793Y-126110403D01*
X169822681Y-125631924D01*
X169399263Y-125289408D01*
X168877000Y-125135000D01*
X168127000Y-125135000D01*
X167873000Y-125135000D01*
X167123000Y-125135000D01*
X166600737Y-125289408D01*
X166177319Y-125631924D01*
X165917207Y-126110403D01*
X165902723Y-126183029D01*
X165760000Y-126183029D01*
X165760000Y-117125000D01*
X165832769Y-117125000D01*
X165940649Y-117667351D01*
X166247866Y-118127134D01*
X166707649Y-118434351D01*
X167113100Y-118515000D01*
X168886900Y-118515000D01*
X169292351Y-118434351D01*
X169752134Y-118127134D01*
X170059351Y-117667351D01*
X170167231Y-117125000D01*
X170059351Y-116582649D01*
X169752134Y-116122866D01*
X169292351Y-115815649D01*
X168886900Y-115735000D01*
X167113100Y-115735000D01*
X166707649Y-115815649D01*
X166247866Y-116122866D01*
X165940649Y-116582649D01*
X165832769Y-117125000D01*
X165760000Y-117125000D01*
X165760000Y-113625000D01*
X165832769Y-113625000D01*
X165940649Y-114167351D01*
X166247866Y-114627134D01*
X166707649Y-114934351D01*
X167113100Y-115015000D01*
X168886900Y-115015000D01*
X169292351Y-114934351D01*
X169752134Y-114627134D01*
X170059351Y-114167351D01*
X170167231Y-113625000D01*
X170059351Y-113082649D01*
X169752134Y-112622866D01*
X169292351Y-112315649D01*
X168886900Y-112235000D01*
X167113100Y-112235000D01*
X166707649Y-112315649D01*
X166247866Y-112622866D01*
X165940649Y-113082649D01*
X165832769Y-113625000D01*
X165760000Y-113625000D01*
X165760000Y-107374848D01*
X165774888Y-107300000D01*
X165760000Y-107225152D01*
X165760000Y-107225148D01*
X165715904Y-107003463D01*
X165547929Y-106752071D01*
X165517956Y-106732044D01*
X165497929Y-106702071D01*
X165434472Y-106659671D01*
X165097260Y-106322458D01*
X164957593Y-106182792D01*
X165212481Y-106012481D01*
X165507542Y-105570891D01*
X165611154Y-105050000D01*
X165507542Y-104529109D01*
X165212481Y-104087519D01*
X165156330Y-104050000D01*
X165212481Y-104012481D01*
X165507542Y-103570891D01*
X165611154Y-103050000D01*
X165507542Y-102529109D01*
X165212481Y-102087519D01*
X165156330Y-102050000D01*
X165212481Y-102012481D01*
X165507542Y-101570891D01*
X165611154Y-101050000D01*
X165507542Y-100529109D01*
X165212481Y-100087519D01*
X164770891Y-99792458D01*
X164381485Y-99715000D01*
X163018515Y-99715000D01*
X162629109Y-99792458D01*
X162187519Y-100087519D01*
X161892458Y-100529109D01*
X161788846Y-101050000D01*
X145663711Y-101050000D01*
X145611280Y-100997569D01*
X145230874Y-100840000D01*
X144819126Y-100840000D01*
X144438720Y-100997569D01*
X144147569Y-101288720D01*
X143990000Y-101669126D01*
X143990000Y-102080874D01*
X144147569Y-102461280D01*
X144265000Y-102578711D01*
X144265001Y-109010197D01*
X142210199Y-111065000D01*
X142044126Y-111065000D01*
X141663720Y-111222569D01*
X141372569Y-111513720D01*
X141215000Y-111894126D01*
X100735000Y-111894126D01*
X100735000Y-103791676D01*
X100736157Y-103792833D01*
X101296659Y-104025000D01*
X101903341Y-104025000D01*
X102463843Y-103792833D01*
X102892833Y-103363843D01*
X102930531Y-103272832D01*
X103105423Y-103534577D01*
X103580091Y-103851740D01*
X103998667Y-103935000D01*
X104281333Y-103935000D01*
X104699909Y-103851740D01*
X105174577Y-103534577D01*
X105410000Y-103182242D01*
X105645423Y-103534577D01*
X106120091Y-103851740D01*
X106538667Y-103935000D01*
X106821333Y-103935000D01*
X107239909Y-103851740D01*
X107714577Y-103534577D01*
X107950000Y-103182242D01*
X108185423Y-103534577D01*
X108660091Y-103851740D01*
X109078667Y-103935000D01*
X109361333Y-103935000D01*
X109779909Y-103851740D01*
X110254577Y-103534577D01*
X110490000Y-103182242D01*
X110725423Y-103534577D01*
X111200091Y-103851740D01*
X111618667Y-103935000D01*
X111901333Y-103935000D01*
X112319909Y-103851740D01*
X112794577Y-103534577D01*
X113030000Y-103182242D01*
X113265423Y-103534577D01*
X113740091Y-103851740D01*
X114158667Y-103935000D01*
X114441333Y-103935000D01*
X114859909Y-103851740D01*
X115334577Y-103534577D01*
X115570000Y-103182242D01*
X115805423Y-103534577D01*
X116280091Y-103851740D01*
X116698667Y-103935000D01*
X116981333Y-103935000D01*
X117399909Y-103851740D01*
X117874577Y-103534577D01*
X118110000Y-103182242D01*
X118345423Y-103534577D01*
X118820091Y-103851740D01*
X119238667Y-103935000D01*
X119521333Y-103935000D01*
X119939909Y-103851740D01*
X120414577Y-103534577D01*
X120650000Y-103182242D01*
X120885423Y-103534577D01*
X121360091Y-103851740D01*
X121778667Y-103935000D01*
X122061333Y-103935000D01*
X122479909Y-103851740D01*
X122954577Y-103534577D01*
X123190000Y-103182242D01*
X123425423Y-103534577D01*
X123900091Y-103851740D01*
X124318667Y-103935000D01*
X124601333Y-103935000D01*
X125019909Y-103851740D01*
X125494577Y-103534577D01*
X125730000Y-103182242D01*
X125965423Y-103534577D01*
X126440091Y-103851740D01*
X126858667Y-103935000D01*
X127141333Y-103935000D01*
X127559909Y-103851740D01*
X128034577Y-103534577D01*
X128270000Y-103182242D01*
X128505423Y-103534577D01*
X128980091Y-103851740D01*
X129398667Y-103935000D01*
X129681333Y-103935000D01*
X130099909Y-103851740D01*
X130574577Y-103534577D01*
X130810000Y-103182242D01*
X131045423Y-103534577D01*
X131520091Y-103851740D01*
X131938667Y-103935000D01*
X132221333Y-103935000D01*
X132639909Y-103851740D01*
X133114577Y-103534577D01*
X133350000Y-103182242D01*
X133585423Y-103534577D01*
X134060091Y-103851740D01*
X134478667Y-103935000D01*
X134761333Y-103935000D01*
X135179909Y-103851740D01*
X135654577Y-103534577D01*
X135890000Y-103182242D01*
X136125423Y-103534577D01*
X136600091Y-103851740D01*
X137018667Y-103935000D01*
X137301333Y-103935000D01*
X137719909Y-103851740D01*
X138194577Y-103534577D01*
X138275215Y-103413894D01*
X138301843Y-103547765D01*
X138442191Y-103757809D01*
X138652235Y-103898157D01*
X138900000Y-103947440D01*
X140500000Y-103947440D01*
X140747765Y-103898157D01*
X140957809Y-103757809D01*
X141098157Y-103547765D01*
X141103621Y-103520297D01*
X141376157Y-103792833D01*
X141936659Y-104025000D01*
X142543341Y-104025000D01*
X143103843Y-103792833D01*
X143532833Y-103363843D01*
X143765000Y-102803341D01*
X143765000Y-102196659D01*
X143532833Y-101636157D01*
X143103843Y-101207167D01*
X142543341Y-100975000D01*
X141936659Y-100975000D01*
X141376157Y-101207167D01*
X141103621Y-101479703D01*
X141098157Y-101452235D01*
X140957809Y-101242191D01*
X140747765Y-101101843D01*
X140500000Y-101052560D01*
X138900000Y-101052560D01*
X138652235Y-101101843D01*
X138442191Y-101242191D01*
X138301843Y-101452235D01*
X138275215Y-101586106D01*
X138194577Y-101465423D01*
X137719909Y-101148260D01*
X137301333Y-101065000D01*
X137018667Y-101065000D01*
X136600091Y-101148260D01*
X136125423Y-101465423D01*
X135890000Y-101817758D01*
X135654577Y-101465423D01*
X135179909Y-101148260D01*
X134761333Y-101065000D01*
X134478667Y-101065000D01*
X134060091Y-101148260D01*
X133585423Y-101465423D01*
X133350000Y-101817758D01*
X133114577Y-101465423D01*
X132639909Y-101148260D01*
X132221333Y-101065000D01*
X131938667Y-101065000D01*
X131520091Y-101148260D01*
X131045423Y-101465423D01*
X130810000Y-101817758D01*
X130574577Y-101465423D01*
X130099909Y-101148260D01*
X129681333Y-101065000D01*
X129398667Y-101065000D01*
X128980091Y-101148260D01*
X128505423Y-101465423D01*
X128270000Y-101817758D01*
X128034577Y-101465423D01*
X127559909Y-101148260D01*
X127141333Y-101065000D01*
X126858667Y-101065000D01*
X126440091Y-101148260D01*
X125965423Y-101465423D01*
X125730000Y-101817758D01*
X125494577Y-101465423D01*
X125019909Y-101148260D01*
X124601333Y-101065000D01*
X124318667Y-101065000D01*
X123900091Y-101148260D01*
X123425423Y-101465423D01*
X123190000Y-101817758D01*
X122954577Y-101465423D01*
X122479909Y-101148260D01*
X122061333Y-101065000D01*
X121778667Y-101065000D01*
X121360091Y-101148260D01*
X120885423Y-101465423D01*
X120650000Y-101817758D01*
X120414577Y-101465423D01*
X119939909Y-101148260D01*
X119521333Y-101065000D01*
X119238667Y-101065000D01*
X118820091Y-101148260D01*
X118345423Y-101465423D01*
X118110000Y-101817758D01*
X117874577Y-101465423D01*
X117399909Y-101148260D01*
X116981333Y-101065000D01*
X116698667Y-101065000D01*
X116280091Y-101148260D01*
X115805423Y-101465423D01*
X115570000Y-101817758D01*
X115334577Y-101465423D01*
X114859909Y-101148260D01*
X114441333Y-101065000D01*
X114158667Y-101065000D01*
X113740091Y-101148260D01*
X113265423Y-101465423D01*
X113030000Y-101817758D01*
X112794577Y-101465423D01*
X112319909Y-101148260D01*
X111901333Y-101065000D01*
X111618667Y-101065000D01*
X111200091Y-101148260D01*
X110725423Y-101465423D01*
X110490000Y-101817758D01*
X110254577Y-101465423D01*
X109779909Y-101148260D01*
X109361333Y-101065000D01*
X109078667Y-101065000D01*
X108660091Y-101148260D01*
X108185423Y-101465423D01*
X107950000Y-101817758D01*
X107714577Y-101465423D01*
X107239909Y-101148260D01*
X106821333Y-101065000D01*
X106538667Y-101065000D01*
X106120091Y-101148260D01*
X105645423Y-101465423D01*
X105410000Y-101817758D01*
X105174577Y-101465423D01*
X104699909Y-101148260D01*
X104281333Y-101065000D01*
X103998667Y-101065000D01*
X103580091Y-101148260D01*
X103105423Y-101465423D01*
X102930531Y-101727168D01*
X102892833Y-101636157D01*
X102463843Y-101207167D01*
X101903341Y-100975000D01*
X101296659Y-100975000D01*
X100736157Y-101207167D01*
X100735000Y-101208324D01*
X100735000Y-95097780D01*
X103929754Y-95097780D01*
X104114863Y-96028384D01*
X104642008Y-96817312D01*
X105430936Y-97344457D01*
X106126633Y-97482840D01*
X110096567Y-97482840D01*
X110792264Y-97344457D01*
X111581192Y-96817312D01*
X112108337Y-96028384D01*
X112293446Y-95097780D01*
X112108337Y-94167176D01*
X111952841Y-93934460D01*
X112967183Y-93934460D01*
X113385788Y-93851194D01*
X113860489Y-93534009D01*
X114177674Y-93059308D01*
X114289055Y-92499360D01*
X114177674Y-91939412D01*
X113860489Y-91464711D01*
X113538672Y-91249680D01*
X113860489Y-91034649D01*
X114177674Y-90559948D01*
X114289055Y-90000000D01*
X114177674Y-89440052D01*
X113860489Y-88965351D01*
X113385788Y-88648166D01*
X112967183Y-88564900D01*
X111785337Y-88564900D01*
X111366732Y-88648166D01*
X110892031Y-88965351D01*
X110574846Y-89440052D01*
X110463465Y-90000000D01*
X110574846Y-90559948D01*
X110892031Y-91034649D01*
X111213848Y-91249680D01*
X110892031Y-91464711D01*
X110574846Y-91939412D01*
X110463465Y-92499360D01*
X110522768Y-92797497D01*
X110096567Y-92712720D01*
X106126633Y-92712720D01*
X105430936Y-92851103D01*
X104642008Y-93378248D01*
X104114863Y-94167176D01*
X103929754Y-95097780D01*
X100735000Y-95097780D01*
X100735000Y-87555431D01*
X117765000Y-87555431D01*
X117765000Y-88444569D01*
X118105259Y-89266026D01*
X118733974Y-89894741D01*
X119555431Y-90235000D01*
X120444569Y-90235000D01*
X121266026Y-89894741D01*
X121894741Y-89266026D01*
X122235000Y-88444569D01*
X122235000Y-87555431D01*
X152765000Y-87555431D01*
X152765000Y-88444569D01*
X153105259Y-89266026D01*
X153733974Y-89894741D01*
X154555431Y-90235000D01*
X155444569Y-90235000D01*
X156266026Y-89894741D01*
X156894741Y-89266026D01*
X157235000Y-88444569D01*
X157235000Y-87585750D01*
X167490000Y-87585750D01*
X167490000Y-89176309D01*
X167586673Y-89409698D01*
X167765301Y-89588327D01*
X167998690Y-89685000D01*
X169589250Y-89685000D01*
X169748000Y-89526250D01*
X169748000Y-87427000D01*
X170002000Y-87427000D01*
X170002000Y-89526250D01*
X170160750Y-89685000D01*
X171751310Y-89685000D01*
X171984699Y-89588327D01*
X172163327Y-89409698D01*
X172260000Y-89176309D01*
X172260000Y-87585750D01*
X172101250Y-87427000D01*
X170002000Y-87427000D01*
X169748000Y-87427000D01*
X167648750Y-87427000D01*
X167490000Y-87585750D01*
X157235000Y-87585750D01*
X157235000Y-87555431D01*
X156894741Y-86733974D01*
X156266026Y-86105259D01*
X155444569Y-85765000D01*
X154555431Y-85765000D01*
X153733974Y-86105259D01*
X153105259Y-86733974D01*
X152765000Y-87555431D01*
X122235000Y-87555431D01*
X121894741Y-86733974D01*
X121266026Y-86105259D01*
X120444569Y-85765000D01*
X119555431Y-85765000D01*
X118733974Y-86105259D01*
X118105259Y-86733974D01*
X117765000Y-87555431D01*
X100735000Y-87555431D01*
X100735000Y-84899680D01*
X103929754Y-84899680D01*
X104114863Y-85830284D01*
X104642008Y-86619212D01*
X105430936Y-87146357D01*
X106126633Y-87284740D01*
X110096567Y-87284740D01*
X110792264Y-87146357D01*
X111581192Y-86619212D01*
X112108337Y-85830284D01*
X112293446Y-84899680D01*
X112108337Y-83969076D01*
X111711388Y-83375000D01*
X162477560Y-83375000D01*
X162477560Y-85125000D01*
X162593449Y-85707613D01*
X162923472Y-86201528D01*
X163417387Y-86531551D01*
X164000000Y-86647440D01*
X165750000Y-86647440D01*
X166332613Y-86531551D01*
X166826528Y-86201528D01*
X167156551Y-85707613D01*
X167213026Y-85423691D01*
X167490000Y-85423691D01*
X167490000Y-87014250D01*
X167648750Y-87173000D01*
X169748000Y-87173000D01*
X169748000Y-85073750D01*
X170002000Y-85073750D01*
X170002000Y-87173000D01*
X172101250Y-87173000D01*
X172260000Y-87014250D01*
X172260000Y-85423691D01*
X172163327Y-85190302D01*
X171984699Y-85011673D01*
X171751310Y-84915000D01*
X170160750Y-84915000D01*
X170002000Y-85073750D01*
X169748000Y-85073750D01*
X169589250Y-84915000D01*
X167998690Y-84915000D01*
X167765301Y-85011673D01*
X167586673Y-85190302D01*
X167490000Y-85423691D01*
X167213026Y-85423691D01*
X167272440Y-85125000D01*
X167272440Y-83375000D01*
X167156551Y-82792387D01*
X166826528Y-82298472D01*
X166332613Y-81968449D01*
X165750000Y-81852560D01*
X164000000Y-81852560D01*
X163417387Y-81968449D01*
X162923472Y-82298472D01*
X162593449Y-82792387D01*
X162477560Y-83375000D01*
X111711388Y-83375000D01*
X111581192Y-83180148D01*
X110792264Y-82653003D01*
X110096567Y-82514620D01*
X106126633Y-82514620D01*
X105430936Y-82653003D01*
X104642008Y-83180148D01*
X104114863Y-83969076D01*
X103929754Y-84899680D01*
X100735000Y-84899680D01*
X100735000Y-75735000D01*
X168374207Y-75735000D01*
X168276974Y-75832233D01*
X168276974Y-75832233D01*
G37*
X168276974Y-75832233D02*
X167990000Y-76525050D01*
X167990000Y-77274950D01*
X168276974Y-77967767D01*
X168807233Y-78498026D01*
X168938890Y-78552560D01*
X168875000Y-78552560D01*
X168340223Y-78658934D01*
X167886861Y-78961861D01*
X167583934Y-79415223D01*
X167477560Y-79950000D01*
X167477560Y-81450000D01*
X167583934Y-81984777D01*
X167886861Y-82438139D01*
X168340223Y-82741066D01*
X168875000Y-82847440D01*
X170875000Y-82847440D01*
X171409777Y-82741066D01*
X171863139Y-82438139D01*
X172166066Y-81984777D01*
X172272440Y-81450000D01*
X172272440Y-79950000D01*
X172166066Y-79415223D01*
X171863139Y-78961861D01*
X171409777Y-78658934D01*
X170875000Y-78552560D01*
X170811110Y-78552560D01*
X170942767Y-78498026D01*
X171473026Y-77967767D01*
X171760000Y-77274950D01*
X171760000Y-76525050D01*
X171473026Y-75832233D01*
X171375793Y-75735000D01*
X174265000Y-75735000D01*
X174265001Y-142349030D01*
X174133845Y-142032392D01*
X173392608Y-141291155D01*
X172424134Y-140890000D01*
X171375866Y-140890000D01*
X170407392Y-141291155D01*
X169666155Y-142032392D01*
X169265000Y-143000866D01*
X169265000Y-144049134D01*
X169666155Y-145017608D01*
X170407392Y-145758845D01*
X171375866Y-146160000D01*
X172424134Y-146160000D01*
X173392608Y-145758845D01*
X174133845Y-145017608D01*
X174265001Y-144700970D01*
X174265001Y-149265000D01*
X149060775Y-149265000D01*
X149100000Y-149170303D01*
X149100000Y-148549697D01*
X148862504Y-147976331D01*
X148423669Y-147537496D01*
X147850303Y-147300000D01*
X147229697Y-147300000D01*
X146656331Y-147537496D01*
X146217496Y-147976331D01*
X145980000Y-148549697D01*
X145980000Y-149170303D01*
X146019225Y-149265000D01*
X143980775Y-149265000D01*
X144020000Y-149170303D01*
X144020000Y-148549697D01*
X143782504Y-147976331D01*
X143343669Y-147537496D01*
X142770303Y-147300000D01*
X142149697Y-147300000D01*
X141576331Y-147537496D01*
X141137496Y-147976331D01*
X140900000Y-148549697D01*
X140900000Y-149170303D01*
X140939225Y-149265000D01*
X100735000Y-149265000D01*
X100735000Y-144555431D01*
X117765000Y-144555431D01*
X117765000Y-145444569D01*
X118105259Y-146266026D01*
X118733974Y-146894741D01*
X119555431Y-147235000D01*
X120444569Y-147235000D01*
X121266026Y-146894741D01*
X121894741Y-146266026D01*
X122235000Y-145444569D01*
X122235000Y-144555431D01*
X121932446Y-143825000D01*
X126159928Y-143825000D01*
X126279062Y-144423927D01*
X126618327Y-144931673D01*
X127126073Y-145270938D01*
X127573818Y-145360000D01*
X127876182Y-145360000D01*
X128323927Y-145270938D01*
X128831673Y-144931673D01*
X129170938Y-144423927D01*
X129290072Y-143825000D01*
X129559928Y-143825000D01*
X129679062Y-144423927D01*
X130018327Y-144931673D01*
X130526073Y-145270938D01*
X130973818Y-145360000D01*
X131276182Y-145360000D01*
X131723927Y-145270938D01*
X132231673Y-144931673D01*
X132483069Y-144555431D01*
X152765000Y-144555431D01*
X152765000Y-145444569D01*
X153105259Y-146266026D01*
X153733974Y-146894741D01*
X154555431Y-147235000D01*
X155444569Y-147235000D01*
X156266026Y-146894741D01*
X156894741Y-146266026D01*
X157235000Y-145444569D01*
X157235000Y-144555431D01*
X156894741Y-143733974D01*
X156266026Y-143105259D01*
X156014000Y-143000866D01*
X160465000Y-143000866D01*
X160465000Y-144049134D01*
X160866155Y-145017608D01*
X161607392Y-145758845D01*
X162575866Y-146160000D01*
X163624134Y-146160000D01*
X164592608Y-145758845D01*
X165333845Y-145017608D01*
X165735000Y-144049134D01*
X165735000Y-143000866D01*
X165333845Y-142032392D01*
X164592608Y-141291155D01*
X163624134Y-140890000D01*
X162575866Y-140890000D01*
X161607392Y-141291155D01*
X160866155Y-142032392D01*
X160465000Y-143000866D01*
X156014000Y-143000866D01*
X155444569Y-142765000D01*
X154555431Y-142765000D01*
X153733974Y-143105259D01*
X153105259Y-143733974D01*
X152765000Y-144555431D01*
X132483069Y-144555431D01*
X132570938Y-144423927D01*
X132690072Y-143825000D01*
X132570938Y-143226073D01*
X132231673Y-142718327D01*
X131723927Y-142379062D01*
X131276182Y-142290000D01*
X130973818Y-142290000D01*
X130526073Y-142379062D01*
X130018327Y-142718327D01*
X129679062Y-143226073D01*
X129559928Y-143825000D01*
X129290072Y-143825000D01*
X129170938Y-143226073D01*
X128831673Y-142718327D01*
X128323927Y-142379062D01*
X127876182Y-142290000D01*
X127573818Y-142290000D01*
X127126073Y-142379062D01*
X126618327Y-142718327D01*
X126279062Y-143226073D01*
X126159928Y-143825000D01*
X121932446Y-143825000D01*
X121894741Y-143733974D01*
X121266026Y-143105259D01*
X120444569Y-142765000D01*
X119555431Y-142765000D01*
X118733974Y-143105259D01*
X118105259Y-143733974D01*
X117765000Y-144555431D01*
X100735000Y-144555431D01*
X100735000Y-140595793D01*
X104054054Y-140595793D01*
X104134431Y-140893170D01*
X104610245Y-141694469D01*
X105356484Y-142252687D01*
X106259540Y-142482840D01*
X108009600Y-142482840D01*
X108009600Y-140224780D01*
X108263600Y-140224780D01*
X108263600Y-142482840D01*
X110013660Y-142482840D01*
X110916716Y-142252687D01*
X111662955Y-141694469D01*
X112138769Y-140893170D01*
X112219146Y-140595793D01*
X112187760Y-140489740D01*
X124533964Y-140489740D01*
X124712760Y-140921417D01*
X125117424Y-141362966D01*
X125660258Y-141616046D01*
X125898000Y-141495997D01*
X125898000Y-140252000D01*
X126152000Y-140252000D01*
X126152000Y-141495997D01*
X126389742Y-141616046D01*
X126932576Y-141362966D01*
X127337240Y-140921417D01*
X127516036Y-140489740D01*
X127933964Y-140489740D01*
X128112760Y-140921417D01*
X128517424Y-141362966D01*
X129060258Y-141616046D01*
X129298000Y-141495997D01*
X129298000Y-140252000D01*
X129552000Y-140252000D01*
X129552000Y-141495997D01*
X129789742Y-141616046D01*
X130332576Y-141362966D01*
X130737240Y-140921417D01*
X130916036Y-140489740D01*
X130795378Y-140252000D01*
X129552000Y-140252000D01*
X129298000Y-140252000D01*
X128054622Y-140252000D01*
X127933964Y-140489740D01*
X127516036Y-140489740D01*
X127395378Y-140252000D01*
X126152000Y-140252000D01*
X125898000Y-140252000D01*
X124654622Y-140252000D01*
X124533964Y-140489740D01*
X112187760Y-140489740D01*
X112109345Y-140224780D01*
X108263600Y-140224780D01*
X108009600Y-140224780D01*
X104163855Y-140224780D01*
X104054054Y-140595793D01*
X100735000Y-140595793D01*
X100735000Y-139599767D01*
X104054054Y-139599767D01*
X104163855Y-139970780D01*
X108009600Y-139970780D01*
X108009600Y-137712720D01*
X108263600Y-137712720D01*
X108263600Y-139970780D01*
X112109345Y-139970780D01*
X112171648Y-139760260D01*
X124533964Y-139760260D01*
X124654622Y-139998000D01*
X125898000Y-139998000D01*
X125898000Y-138754003D01*
X126152000Y-138754003D01*
X126152000Y-139998000D01*
X127395378Y-139998000D01*
X127516036Y-139760260D01*
X127933964Y-139760260D01*
X128054622Y-139998000D01*
X129298000Y-139998000D01*
X129298000Y-138754003D01*
X129552000Y-138754003D01*
X129552000Y-139998000D01*
X130795378Y-139998000D01*
X130916036Y-139760260D01*
X130737240Y-139328583D01*
X130642310Y-139225000D01*
X131277560Y-139225000D01*
X131277560Y-141025000D01*
X131326843Y-141272765D01*
X131467191Y-141482809D01*
X131677235Y-141623157D01*
X131925000Y-141672440D01*
X133725000Y-141672440D01*
X133972765Y-141623157D01*
X134182809Y-141482809D01*
X134323157Y-141272765D01*
X134372440Y-141025000D01*
X134372440Y-139225000D01*
X134323157Y-138977235D01*
X134182809Y-138767191D01*
X133972765Y-138626843D01*
X133725000Y-138577560D01*
X131925000Y-138577560D01*
X131677235Y-138626843D01*
X131467191Y-138767191D01*
X131326843Y-138977235D01*
X131277560Y-139225000D01*
X130642310Y-139225000D01*
X130332576Y-138887034D01*
X129789742Y-138633954D01*
X129552000Y-138754003D01*
X129298000Y-138754003D01*
X129060258Y-138633954D01*
X128517424Y-138887034D01*
X128112760Y-139328583D01*
X127933964Y-139760260D01*
X127516036Y-139760260D01*
X127337240Y-139328583D01*
X126932576Y-138887034D01*
X126389742Y-138633954D01*
X126152000Y-138754003D01*
X125898000Y-138754003D01*
X125660258Y-138633954D01*
X125117424Y-138887034D01*
X124712760Y-139328583D01*
X124533964Y-139760260D01*
X112171648Y-139760260D01*
X112219146Y-139599767D01*
X112138769Y-139302390D01*
X111920291Y-138934460D01*
X112274260Y-138934460D01*
X112274260Y-137626360D01*
X112528260Y-137626360D01*
X112528260Y-138934460D01*
X112977840Y-138934460D01*
X113517362Y-138776619D01*
X113955412Y-138424327D01*
X114225301Y-137931217D01*
X114242843Y-137848415D01*
X114120856Y-137626360D01*
X112528260Y-137626360D01*
X112274260Y-137626360D01*
X110681664Y-137626360D01*
X110559677Y-137848415D01*
X110560453Y-137852076D01*
X110013660Y-137712720D01*
X108263600Y-137712720D01*
X108009600Y-137712720D01*
X106259540Y-137712720D01*
X105356484Y-137942873D01*
X104610245Y-138501091D01*
X104134431Y-139302390D01*
X104054054Y-139599767D01*
X100735000Y-139599767D01*
X100735000Y-135000000D01*
X110488465Y-135000000D01*
X110599846Y-135559948D01*
X110917031Y-136034649D01*
X111245412Y-136254066D01*
X110847108Y-136574393D01*
X110577219Y-137067503D01*
X110559677Y-137150305D01*
X110681664Y-137372360D01*
X112274260Y-137372360D01*
X112274260Y-137352360D01*
X112528260Y-137352360D01*
X112528260Y-137372360D01*
X114120856Y-137372360D01*
X114242843Y-137150305D01*
X114225301Y-137067503D01*
X113955412Y-136574393D01*
X113557108Y-136254066D01*
X113885489Y-136034649D01*
X114035652Y-135809914D01*
X138540000Y-135809914D01*
X138540000Y-136510086D01*
X138807944Y-137156960D01*
X139303040Y-137652056D01*
X139949914Y-137920000D01*
X140650086Y-137920000D01*
X141296960Y-137652056D01*
X141792056Y-137156960D01*
X142060000Y-136510086D01*
X142060000Y-135809914D01*
X143240000Y-135809914D01*
X143240000Y-136510086D01*
X143507944Y-137156960D01*
X144003040Y-137652056D01*
X144649914Y-137920000D01*
X145350086Y-137920000D01*
X145996960Y-137652056D01*
X146492056Y-137156960D01*
X146760000Y-136510086D01*
X146760000Y-135809914D01*
X147940000Y-135809914D01*
X147940000Y-136510086D01*
X148207944Y-137156960D01*
X148703040Y-137652056D01*
X149349914Y-137920000D01*
X150050086Y-137920000D01*
X150696960Y-137652056D01*
X151192056Y-137156960D01*
X151460000Y-136510086D01*
X151460000Y-135809914D01*
X151192056Y-135163040D01*
X150696960Y-134667944D01*
X150050086Y-134400000D01*
X149349914Y-134400000D01*
X148703040Y-134667944D01*
X148207944Y-135163040D01*
X147940000Y-135809914D01*
X146760000Y-135809914D01*
X146492056Y-135163040D01*
X145996960Y-134667944D01*
X145350086Y-134400000D01*
X144649914Y-134400000D01*
X144003040Y-134667944D01*
X143507944Y-135163040D01*
X143240000Y-135809914D01*
X142060000Y-135809914D01*
X141792056Y-135163040D01*
X141296960Y-134667944D01*
X140650086Y-134400000D01*
X139949914Y-134400000D01*
X139303040Y-134667944D01*
X138807944Y-135163040D01*
X138540000Y-135809914D01*
X114035652Y-135809914D01*
X114202674Y-135559948D01*
X114314055Y-135000000D01*
X114202674Y-134440052D01*
X113885489Y-133965351D01*
X113410788Y-133648166D01*
X112992183Y-133564900D01*
X111810337Y-133564900D01*
X111391732Y-133648166D01*
X110917031Y-133965351D01*
X110599846Y-134440052D01*
X110488465Y-135000000D01*
X100735000Y-135000000D01*
X100735000Y-133432745D01*
X117596861Y-133432745D01*
X117670995Y-133678864D01*
X118208223Y-133871965D01*
X118778454Y-133844778D01*
X119179005Y-133678864D01*
X119253139Y-133432745D01*
X118425000Y-132604605D01*
X117596861Y-133432745D01*
X100735000Y-133432745D01*
X100735000Y-130397693D01*
X104054054Y-130397693D01*
X104134431Y-130695070D01*
X104610245Y-131496369D01*
X105356484Y-132054587D01*
X106259540Y-132284740D01*
X108009600Y-132284740D01*
X108009600Y-130026680D01*
X108263600Y-130026680D01*
X108263600Y-132284740D01*
X110013660Y-132284740D01*
X110313891Y-132208223D01*
X116978035Y-132208223D01*
X117005222Y-132778454D01*
X117171136Y-133179005D01*
X117417255Y-133253139D01*
X118245395Y-132425000D01*
X118604605Y-132425000D01*
X119432745Y-133253139D01*
X119678864Y-133179005D01*
X119871965Y-132641777D01*
X119844778Y-132071546D01*
X119678864Y-131670995D01*
X119526165Y-131625000D01*
X120477560Y-131625000D01*
X120477560Y-133225000D01*
X120526843Y-133472765D01*
X120667191Y-133682809D01*
X120877235Y-133823157D01*
X121125000Y-133872440D01*
X122725000Y-133872440D01*
X122972765Y-133823157D01*
X123182809Y-133682809D01*
X123321663Y-133475000D01*
X131377560Y-133475000D01*
X131377560Y-135075000D01*
X131426843Y-135322765D01*
X131567191Y-135532809D01*
X131777235Y-135673157D01*
X132025000Y-135722440D01*
X133625000Y-135722440D01*
X133872765Y-135673157D01*
X134082809Y-135532809D01*
X134223157Y-135322765D01*
X134272440Y-135075000D01*
X134272440Y-133475000D01*
X134223157Y-133227235D01*
X134082809Y-133017191D01*
X133872765Y-132876843D01*
X133625000Y-132827560D01*
X132025000Y-132827560D01*
X131777235Y-132876843D01*
X131567191Y-133017191D01*
X131426843Y-133227235D01*
X131377560Y-133475000D01*
X123321663Y-133475000D01*
X123323157Y-133472765D01*
X123372440Y-133225000D01*
X123372440Y-131782745D01*
X131996861Y-131782745D01*
X132070995Y-132028864D01*
X132608223Y-132221965D01*
X133178454Y-132194778D01*
X133579005Y-132028864D01*
X133653139Y-131782745D01*
X132825000Y-130954605D01*
X131996861Y-131782745D01*
X123372440Y-131782745D01*
X123372440Y-131625000D01*
X123323157Y-131377235D01*
X123182809Y-131167191D01*
X122972765Y-131026843D01*
X122725000Y-130977560D01*
X121125000Y-130977560D01*
X120877235Y-131026843D01*
X120667191Y-131167191D01*
X120526843Y-131377235D01*
X120477560Y-131625000D01*
X119526165Y-131625000D01*
X119432745Y-131596861D01*
X118604605Y-132425000D01*
X118245395Y-132425000D01*
X117417255Y-131596861D01*
X117171136Y-131670995D01*
X116978035Y-132208223D01*
X110313891Y-132208223D01*
X110916716Y-132054587D01*
X111662955Y-131496369D01*
X111709933Y-131417255D01*
X117596861Y-131417255D01*
X118425000Y-132245395D01*
X119253139Y-131417255D01*
X119179005Y-131171136D01*
X118641777Y-130978035D01*
X118071546Y-131005222D01*
X117670995Y-131171136D01*
X117596861Y-131417255D01*
X111709933Y-131417255D01*
X112138769Y-130695070D01*
X112175756Y-130558223D01*
X131378035Y-130558223D01*
X131405222Y-131128454D01*
X131571136Y-131529005D01*
X131817255Y-131603139D01*
X132645395Y-130775000D01*
X133004605Y-130775000D01*
X133832745Y-131603139D01*
X134078864Y-131529005D01*
X134188135Y-131225000D01*
X138527560Y-131225000D01*
X138527560Y-133475000D01*
X138576843Y-133722765D01*
X138717191Y-133932809D01*
X138927235Y-134073157D01*
X139175000Y-134122440D01*
X141425000Y-134122440D01*
X141672765Y-134073157D01*
X141882809Y-133932809D01*
X142023157Y-133722765D01*
X142072440Y-133475000D01*
X142072440Y-131999914D01*
X143240000Y-131999914D01*
X143240000Y-132700086D01*
X143507944Y-133346960D01*
X144003040Y-133842056D01*
X144649914Y-134110000D01*
X145350086Y-134110000D01*
X145996960Y-133842056D01*
X146492056Y-133346960D01*
X146760000Y-132700086D01*
X146760000Y-131999914D01*
X146492056Y-131353040D01*
X145996960Y-130857944D01*
X145350086Y-130590000D01*
X144649914Y-130590000D01*
X144003040Y-130857944D01*
X143507944Y-131353040D01*
X143240000Y-131999914D01*
X142072440Y-131999914D01*
X142072440Y-131225000D01*
X142023157Y-130977235D01*
X141882809Y-130767191D01*
X141672765Y-130626843D01*
X141425000Y-130577560D01*
X139175000Y-130577560D01*
X138927235Y-130626843D01*
X138717191Y-130767191D01*
X138576843Y-130977235D01*
X138527560Y-131225000D01*
X134188135Y-131225000D01*
X134271965Y-130991777D01*
X134244778Y-130421546D01*
X134078864Y-130020995D01*
X133832745Y-129946861D01*
X133004605Y-130775000D01*
X132645395Y-130775000D01*
X131817255Y-129946861D01*
X131571136Y-130020995D01*
X131378035Y-130558223D01*
X112175756Y-130558223D01*
X112219146Y-130397693D01*
X112109345Y-130026680D01*
X108263600Y-130026680D01*
X108009600Y-130026680D01*
X104163855Y-130026680D01*
X104054054Y-130397693D01*
X100735000Y-130397693D01*
X100735000Y-129401667D01*
X104054054Y-129401667D01*
X104163855Y-129772680D01*
X108009600Y-129772680D01*
X108009600Y-127514620D01*
X108263600Y-127514620D01*
X108263600Y-129772680D01*
X112109345Y-129772680D01*
X112110950Y-129767255D01*
X131996861Y-129767255D01*
X132825000Y-130595395D01*
X133653139Y-129767255D01*
X133579005Y-129521136D01*
X133041777Y-129328035D01*
X132471546Y-129355222D01*
X132070995Y-129521136D01*
X131996861Y-129767255D01*
X112110950Y-129767255D01*
X112219146Y-129401667D01*
X112138769Y-129104290D01*
X111662955Y-128302991D01*
X110916716Y-127744773D01*
X110013660Y-127514620D01*
X108263600Y-127514620D01*
X108009600Y-127514620D01*
X106259540Y-127514620D01*
X105356484Y-127744773D01*
X104610245Y-128302991D01*
X104134431Y-129104290D01*
X104054054Y-129401667D01*
X100735000Y-129401667D01*
X100735000Y-127294126D01*
X119390000Y-127294126D01*
X119390000Y-127705874D01*
X119547569Y-128086280D01*
X119838720Y-128377431D01*
X120219126Y-128535000D01*
X120630874Y-128535000D01*
X121011280Y-128377431D01*
X121128711Y-128260000D01*
X135096289Y-128260000D01*
X135213720Y-128377431D01*
X135594126Y-128535000D01*
X136005874Y-128535000D01*
X136386280Y-128377431D01*
X136677431Y-128086280D01*
X136835000Y-127705874D01*
X136835000Y-127294126D01*
X136677431Y-126913720D01*
X136386280Y-126622569D01*
X136005874Y-126465000D01*
X135594126Y-126465000D01*
X135213720Y-126622569D01*
X135096289Y-126740000D01*
X121128711Y-126740000D01*
X121011280Y-126622569D01*
X120630874Y-126465000D01*
X120219126Y-126465000D01*
X119838720Y-126622569D01*
X119547569Y-126913720D01*
X119390000Y-127294126D01*
X100735000Y-127294126D01*
X100735000Y-124624503D01*
X116240950Y-124624503D01*
X116545114Y-125358836D01*
X117150813Y-125986220D01*
X117950496Y-126334056D01*
X118298000Y-126222645D01*
X118298000Y-124277000D01*
X118552000Y-124277000D01*
X118552000Y-126222645D01*
X118899504Y-126334056D01*
X119699187Y-125986220D01*
X120304886Y-125358836D01*
X120609050Y-124624503D01*
X120497362Y-124277000D01*
X118552000Y-124277000D01*
X118298000Y-124277000D01*
X116352638Y-124277000D01*
X116240950Y-124624503D01*
X100735000Y-124624503D01*
X100735000Y-123675497D01*
X116240950Y-123675497D01*
X116352638Y-124023000D01*
X118298000Y-124023000D01*
X118298000Y-122077355D01*
X118552000Y-122077355D01*
X118552000Y-124023000D01*
X120497362Y-124023000D01*
X120609050Y-123675497D01*
X120304886Y-122941164D01*
X119927243Y-122550000D01*
X128877560Y-122550000D01*
X128877560Y-125750000D01*
X128926843Y-125997765D01*
X129067191Y-126207809D01*
X129277235Y-126348157D01*
X129525000Y-126397440D01*
X132725000Y-126397440D01*
X132972765Y-126348157D01*
X133182809Y-126207809D01*
X133323157Y-125997765D01*
X133372440Y-125750000D01*
X133372440Y-123849778D01*
X137190000Y-123849778D01*
X137190000Y-124500222D01*
X137438914Y-125101153D01*
X137898847Y-125561086D01*
X138499778Y-125810000D01*
X139150222Y-125810000D01*
X139751153Y-125561086D01*
X140211086Y-125101153D01*
X140460000Y-124500222D01*
X140460000Y-123849778D01*
X141190000Y-123849778D01*
X141190000Y-124500222D01*
X141438914Y-125101153D01*
X141898847Y-125561086D01*
X142499778Y-125810000D01*
X143150222Y-125810000D01*
X143751153Y-125561086D01*
X144211086Y-125101153D01*
X144460000Y-124500222D01*
X144460000Y-123849778D01*
X144211086Y-123248847D01*
X143751153Y-122788914D01*
X143150222Y-122540000D01*
X142499778Y-122540000D01*
X141898847Y-122788914D01*
X141438914Y-123248847D01*
X141190000Y-123849778D01*
X140460000Y-123849778D01*
X140211086Y-123248847D01*
X139751153Y-122788914D01*
X139150222Y-122540000D01*
X138499778Y-122540000D01*
X137898847Y-122788914D01*
X137438914Y-123248847D01*
X137190000Y-123849778D01*
X133372440Y-123849778D01*
X133372440Y-122550000D01*
X133323157Y-122302235D01*
X133182809Y-122092191D01*
X132972765Y-121951843D01*
X132725000Y-121902560D01*
X129525000Y-121902560D01*
X129277235Y-121951843D01*
X129067191Y-122092191D01*
X128926843Y-122302235D01*
X128877560Y-122550000D01*
X119927243Y-122550000D01*
X119699187Y-122313780D01*
X118899504Y-121965944D01*
X118552000Y-122077355D01*
X118298000Y-122077355D01*
X117950496Y-121965944D01*
X117150813Y-122313780D01*
X116545114Y-122941164D01*
X116240950Y-123675497D01*
X100735000Y-123675497D01*
X100735000Y-119969126D01*
X139340000Y-119969126D01*
X139340000Y-120380874D01*
X139497569Y-120761280D01*
X139788720Y-121052431D01*
X140169126Y-121210000D01*
X140580874Y-121210000D01*
X140961280Y-121052431D01*
X141078711Y-120935000D01*
X144010199Y-120935000D01*
X151290000Y-128214802D01*
X151290001Y-131589499D01*
X151192056Y-131353040D01*
X150696960Y-130857944D01*
X150050086Y-130590000D01*
X149349914Y-130590000D01*
X148703040Y-130857944D01*
X148207944Y-131353040D01*
X147940000Y-131999914D01*
X147940000Y-132700086D01*
X148207944Y-133346960D01*
X148703040Y-133842056D01*
X149349914Y-134110000D01*
X150050086Y-134110000D01*
X150696960Y-133842056D01*
X151192056Y-133346960D01*
X151290001Y-133110501D01*
X151290001Y-134850148D01*
X151275112Y-134925000D01*
X151290001Y-134999852D01*
X151334097Y-135221537D01*
X151502072Y-135472929D01*
X151565528Y-135515329D01*
X155109671Y-139059473D01*
X155152071Y-139122929D01*
X155403463Y-139290904D01*
X155625148Y-139335000D01*
X155625152Y-139335000D01*
X155700000Y-139349888D01*
X155774848Y-139335000D01*
X159746289Y-139335000D01*
X159863720Y-139452431D01*
X160244126Y-139610000D01*
X160655874Y-139610000D01*
X161036280Y-139452431D01*
X161327431Y-139161280D01*
X161485000Y-138780874D01*
X161485000Y-138369126D01*
X161327431Y-137988720D01*
X161036280Y-137697569D01*
X160655874Y-137540000D01*
X160244126Y-137540000D01*
X159863720Y-137697569D01*
X159746289Y-137815000D01*
X156014802Y-137815000D01*
X152810000Y-134610199D01*
X152810000Y-131622479D01*
X153115423Y-132079577D01*
X153590091Y-132396740D01*
X154008667Y-132480000D01*
X154291333Y-132480000D01*
X154709909Y-132396740D01*
X155184577Y-132079577D01*
X155501740Y-131604909D01*
X155613113Y-131045000D01*
X155501740Y-130485091D01*
X155184577Y-130010423D01*
X154709909Y-129693260D01*
X154291333Y-129610000D01*
X154008667Y-129610000D01*
X153590091Y-129693260D01*
X153115423Y-130010423D01*
X152810000Y-130467521D01*
X152810000Y-127974848D01*
X152824888Y-127900000D01*
X152810000Y-127825152D01*
X152810000Y-127825148D01*
X152765904Y-127603463D01*
X152765904Y-127603462D01*
X152640329Y-127415527D01*
X152639531Y-127414332D01*
X157985528Y-132760330D01*
X158164287Y-132879773D01*
X159518986Y-134234473D01*
X159561386Y-134297929D01*
X159812778Y-134465904D01*
X159955603Y-134494314D01*
X160088720Y-134627431D01*
X160469126Y-134785000D01*
X160880874Y-134785000D01*
X161261280Y-134627431D01*
X161552431Y-134336280D01*
X161710000Y-133955874D01*
X161710000Y-133544126D01*
X161552431Y-133163720D01*
X161261280Y-132872569D01*
X160880874Y-132715000D01*
X160469126Y-132715000D01*
X160242845Y-132808728D01*
X158741351Y-131307234D01*
X159182481Y-131012481D01*
X159477542Y-130570891D01*
X159581154Y-130050000D01*
X159477542Y-129529109D01*
X159182481Y-129087519D01*
X158740891Y-128792458D01*
X158351485Y-128715000D01*
X158088515Y-128715000D01*
X157699109Y-128792458D01*
X157257519Y-129087519D01*
X156962765Y-129528649D01*
X152434116Y-125000000D01*
X159052560Y-125000000D01*
X159052560Y-127600000D01*
X159101843Y-127847765D01*
X159242191Y-128057809D01*
X159452235Y-128198157D01*
X159700000Y-128247440D01*
X162300000Y-128247440D01*
X162547765Y-128198157D01*
X162757809Y-128057809D01*
X162898157Y-127847765D01*
X162947440Y-127600000D01*
X162947440Y-125000000D01*
X162898157Y-124752235D01*
X162757809Y-124542191D01*
X162547765Y-124401843D01*
X162300000Y-124352560D01*
X159700000Y-124352560D01*
X159452235Y-124401843D01*
X159242191Y-124542191D01*
X159101843Y-124752235D01*
X159052560Y-125000000D01*
X152434116Y-125000000D01*
X150059116Y-122625000D01*
X152702560Y-122625000D01*
X152702560Y-124225000D01*
X152751843Y-124472765D01*
X152892191Y-124682809D01*
X153102235Y-124823157D01*
X153350000Y-124872440D01*
X154950000Y-124872440D01*
X155197765Y-124823157D01*
X155407809Y-124682809D01*
X155548157Y-124472765D01*
X155597440Y-124225000D01*
X155597440Y-122625000D01*
X155548157Y-122377235D01*
X155407809Y-122167191D01*
X155197765Y-122026843D01*
X154950000Y-121977560D01*
X153350000Y-121977560D01*
X153102235Y-122026843D01*
X152892191Y-122167191D01*
X152751843Y-122377235D01*
X152702560Y-122625000D01*
X150059116Y-122625000D01*
X148660000Y-121225884D01*
X148660000Y-119502975D01*
X149031758Y-119131217D01*
X149235000Y-118640548D01*
X149235000Y-118405000D01*
X151113846Y-118405000D01*
X151217458Y-118925891D01*
X151512519Y-119367481D01*
X151954109Y-119662542D01*
X152343515Y-119740000D01*
X152606485Y-119740000D01*
X152995891Y-119662542D01*
X153437481Y-119367481D01*
X153732542Y-118925891D01*
X153836154Y-118405000D01*
X153732542Y-117884109D01*
X153437481Y-117442519D01*
X152995891Y-117147458D01*
X152606485Y-117070000D01*
X152343515Y-117070000D01*
X151954109Y-117147458D01*
X151512519Y-117442519D01*
X151217458Y-117884109D01*
X151113846Y-118405000D01*
X149235000Y-118405000D01*
X149235000Y-118109452D01*
X149031758Y-117618783D01*
X148656217Y-117243242D01*
X148165548Y-117040000D01*
X147634452Y-117040000D01*
X147143783Y-117243242D01*
X146768242Y-117618783D01*
X146565000Y-118109452D01*
X146565000Y-118640548D01*
X146768242Y-119131217D01*
X147140001Y-119502976D01*
X147140000Y-121465838D01*
X147125112Y-121540685D01*
X147131011Y-121570343D01*
X147125112Y-121600000D01*
X147140000Y-121674847D01*
X147140000Y-121674851D01*
X147184096Y-121896536D01*
X147310470Y-122085669D01*
X144915331Y-119690530D01*
X144872929Y-119627071D01*
X144621537Y-119459096D01*
X144399852Y-119415000D01*
X144399847Y-119415000D01*
X144325000Y-119400112D01*
X144250153Y-119415000D01*
X141078711Y-119415000D01*
X140961280Y-119297569D01*
X140580874Y-119140000D01*
X140169126Y-119140000D01*
X139788720Y-119297569D01*
X139497569Y-119588720D01*
X139340000Y-119969126D01*
X100735000Y-119969126D01*
X100735000Y-119031676D01*
X100736157Y-119032833D01*
X101296659Y-119265000D01*
X101903341Y-119265000D01*
X102463843Y-119032833D01*
X102892833Y-118603843D01*
X102930531Y-118512832D01*
X103105423Y-118774577D01*
X103580091Y-119091740D01*
X103998667Y-119175000D01*
X104281333Y-119175000D01*
X104699909Y-119091740D01*
X105174577Y-118774577D01*
X105410000Y-118422242D01*
X105645423Y-118774577D01*
X106120091Y-119091740D01*
X106538667Y-119175000D01*
X106821333Y-119175000D01*
X107239909Y-119091740D01*
X107714577Y-118774577D01*
X107950000Y-118422242D01*
X108185423Y-118774577D01*
X108660091Y-119091740D01*
X109078667Y-119175000D01*
X109361333Y-119175000D01*
X109779909Y-119091740D01*
X110254577Y-118774577D01*
X110490000Y-118422242D01*
X110725423Y-118774577D01*
X111200091Y-119091740D01*
X111618667Y-119175000D01*
X111901333Y-119175000D01*
X112319909Y-119091740D01*
X112794577Y-118774577D01*
X113030000Y-118422242D01*
X113265423Y-118774577D01*
X113740091Y-119091740D01*
X114158667Y-119175000D01*
X114441333Y-119175000D01*
X114859909Y-119091740D01*
X115334577Y-118774577D01*
X115570000Y-118422242D01*
X115805423Y-118774577D01*
X116280091Y-119091740D01*
X116698667Y-119175000D01*
X116981333Y-119175000D01*
X117399909Y-119091740D01*
X117874577Y-118774577D01*
X118110000Y-118422242D01*
X118345423Y-118774577D01*
X118820091Y-119091740D01*
X119238667Y-119175000D01*
X119521333Y-119175000D01*
X119939909Y-119091740D01*
X120414577Y-118774577D01*
X120650000Y-118422242D01*
X120885423Y-118774577D01*
X121360091Y-119091740D01*
X121778667Y-119175000D01*
X122061333Y-119175000D01*
X122479909Y-119091740D01*
X122954577Y-118774577D01*
X123190000Y-118422242D01*
X123425423Y-118774577D01*
X123900091Y-119091740D01*
X124318667Y-119175000D01*
X124601333Y-119175000D01*
X125019909Y-119091740D01*
X125494577Y-118774577D01*
X125730000Y-118422242D01*
X125965423Y-118774577D01*
X126440091Y-119091740D01*
X126858667Y-119175000D01*
X127141333Y-119175000D01*
X127559909Y-119091740D01*
X128034577Y-118774577D01*
X128270000Y-118422242D01*
X128505423Y-118774577D01*
X128980091Y-119091740D01*
X129398667Y-119175000D01*
X129681333Y-119175000D01*
X130099909Y-119091740D01*
X130574577Y-118774577D01*
X130810000Y-118422242D01*
X131045423Y-118774577D01*
X131520091Y-119091740D01*
X131938667Y-119175000D01*
X132221333Y-119175000D01*
X132639909Y-119091740D01*
X133114577Y-118774577D01*
X133350000Y-118422242D01*
X133585423Y-118774577D01*
X134060091Y-119091740D01*
X134478667Y-119175000D01*
X134761333Y-119175000D01*
X135179909Y-119091740D01*
X135654577Y-118774577D01*
X135910947Y-118390892D01*
X136007611Y-118595134D01*
X136422577Y-118971041D01*
X136810961Y-119131904D01*
X137033000Y-119009915D01*
X137033000Y-117867000D01*
X137013000Y-117867000D01*
X137013000Y-117613000D01*
X137033000Y-117613000D01*
X137033000Y-116470085D01*
X137287000Y-116470085D01*
X137287000Y-117613000D01*
X137307000Y-117613000D01*
X137307000Y-117867000D01*
X137287000Y-117867000D01*
X137287000Y-119009915D01*
X137509039Y-119131904D01*
X137897423Y-118971041D01*
X138312389Y-118595134D01*
X138409053Y-118390892D01*
X138665423Y-118774577D01*
X139140091Y-119091740D01*
X139558667Y-119175000D01*
X139841333Y-119175000D01*
X140259909Y-119091740D01*
X140734577Y-118774577D01*
X140909469Y-118512832D01*
X140947167Y-118603843D01*
X141376157Y-119032833D01*
X141936659Y-119265000D01*
X142543341Y-119265000D01*
X143103843Y-119032833D01*
X143532833Y-118603843D01*
X143765000Y-118043341D01*
X143765000Y-117436659D01*
X143577917Y-116984999D01*
X144895154Y-116984999D01*
X144970001Y-116999887D01*
X145044848Y-116984999D01*
X145044853Y-116984999D01*
X145266538Y-116940903D01*
X145517930Y-116772928D01*
X145560332Y-116709469D01*
X147661157Y-114608645D01*
X147768515Y-114630000D01*
X148031485Y-114630000D01*
X148420891Y-114552542D01*
X148862481Y-114257481D01*
X149157542Y-113815891D01*
X149261154Y-113295000D01*
X149214301Y-113059452D01*
X151140000Y-113059452D01*
X151140000Y-113590548D01*
X151343242Y-114081217D01*
X151718783Y-114456758D01*
X152209452Y-114660000D01*
X152740548Y-114660000D01*
X153231217Y-114456758D01*
X153606758Y-114081217D01*
X153810000Y-113590548D01*
X153810000Y-113059452D01*
X153606758Y-112568783D01*
X153231217Y-112193242D01*
X152740548Y-111990000D01*
X152209452Y-111990000D01*
X151718783Y-112193242D01*
X151343242Y-112568783D01*
X151140000Y-113059452D01*
X149214301Y-113059452D01*
X149157542Y-112774109D01*
X148862481Y-112332519D01*
X148420891Y-112037458D01*
X148031485Y-111960000D01*
X147768515Y-111960000D01*
X147379109Y-112037458D01*
X146937519Y-112332519D01*
X146642458Y-112774109D01*
X146538846Y-113295000D01*
X146586355Y-113533843D01*
X144655200Y-115464999D01*
X143571159Y-115464999D01*
X143477431Y-115238720D01*
X143186280Y-114947569D01*
X142805874Y-114790000D01*
X142394126Y-114790000D01*
X142013720Y-114947569D01*
X141722569Y-115238720D01*
X141565000Y-115619126D01*
X141565000Y-116030874D01*
X141684526Y-116319437D01*
X141376157Y-116447167D01*
X140947167Y-116876157D01*
X140909469Y-116967168D01*
X140734577Y-116705423D01*
X140259909Y-116388260D01*
X139841333Y-116305000D01*
X139558667Y-116305000D01*
X139140091Y-116388260D01*
X138665423Y-116705423D01*
X138409053Y-117089108D01*
X138312389Y-116884866D01*
X137897423Y-116508959D01*
X137509039Y-116348096D01*
X137287000Y-116470085D01*
X137033000Y-116470085D01*
X136810961Y-116348096D01*
X136422577Y-116508959D01*
X136007611Y-116884866D01*
X135910947Y-117089108D01*
X135654577Y-116705423D01*
X135179909Y-116388260D01*
X134761333Y-116305000D01*
X134581809Y-116305000D01*
X134685000Y-116055874D01*
X134685000Y-115644126D01*
X134527431Y-115263720D01*
X134236280Y-114972569D01*
X133855874Y-114815000D01*
X133444126Y-114815000D01*
X133063720Y-114972569D01*
X132946289Y-115090000D01*
X131728711Y-115090000D01*
X131611280Y-114972569D01*
X131230874Y-114815000D01*
X130819126Y-114815000D01*
X130438720Y-114972569D01*
X130147569Y-115263720D01*
X129990000Y-115644126D01*
X129990000Y-116055874D01*
X130138305Y-116413916D01*
X130099909Y-116388260D01*
X129681333Y-116305000D01*
X129398667Y-116305000D01*
X128980091Y-116388260D01*
X128505423Y-116705423D01*
X128270000Y-117057758D01*
X128034577Y-116705423D01*
X127559909Y-116388260D01*
X127141333Y-116305000D01*
X126858667Y-116305000D01*
X126440091Y-116388260D01*
X125965423Y-116705423D01*
X125730000Y-117057758D01*
X125494577Y-116705423D01*
X125019909Y-116388260D01*
X124601333Y-116305000D01*
X124318667Y-116305000D01*
X123900091Y-116388260D01*
X123425423Y-116705423D01*
X123190000Y-117057758D01*
X122954577Y-116705423D01*
X122479909Y-116388260D01*
X122061333Y-116305000D01*
X121778667Y-116305000D01*
X121360091Y-116388260D01*
X120885423Y-116705423D01*
X120650000Y-117057758D01*
X120414577Y-116705423D01*
X119939909Y-116388260D01*
X119521333Y-116305000D01*
X119238667Y-116305000D01*
X118820091Y-116388260D01*
X118345423Y-116705423D01*
X118110000Y-117057758D01*
X117874577Y-116705423D01*
X117399909Y-116388260D01*
X116981333Y-116305000D01*
X116698667Y-116305000D01*
X116280091Y-116388260D01*
X115805423Y-116705423D01*
X115570000Y-117057758D01*
X115334577Y-116705423D01*
X114859909Y-116388260D01*
X114441333Y-116305000D01*
X114158667Y-116305000D01*
X113740091Y-116388260D01*
X113265423Y-116705423D01*
X113030000Y-117057758D01*
X112794577Y-116705423D01*
X112319909Y-116388260D01*
X111901333Y-116305000D01*
X111618667Y-116305000D01*
X111200091Y-116388260D01*
X110725423Y-116705423D01*
X110490000Y-117057758D01*
X110254577Y-116705423D01*
X109779909Y-116388260D01*
X109361333Y-116305000D01*
X109078667Y-116305000D01*
X108660091Y-116388260D01*
X108185423Y-116705423D01*
X107950000Y-117057758D01*
X107714577Y-116705423D01*
X107239909Y-116388260D01*
X106821333Y-116305000D01*
X106538667Y-116305000D01*
X106120091Y-116388260D01*
X105645423Y-116705423D01*
X105410000Y-117057758D01*
X105174577Y-116705423D01*
X104699909Y-116388260D01*
X104281333Y-116305000D01*
X103998667Y-116305000D01*
X103580091Y-116388260D01*
X103105423Y-116705423D01*
X102930531Y-116967168D01*
X102892833Y-116876157D01*
X102463843Y-116447167D01*
X101903341Y-116215000D01*
X101296659Y-116215000D01*
X100736157Y-116447167D01*
X100735000Y-116448324D01*
X100735000Y-111894126D01*
X141215000Y-111894126D01*
X141215000Y-112305874D01*
X141372569Y-112686280D01*
X141663720Y-112977431D01*
X142044126Y-113135000D01*
X142455874Y-113135000D01*
X142836280Y-112977431D01*
X143127431Y-112686280D01*
X143285000Y-112305874D01*
X143285000Y-112139801D01*
X144364801Y-111060000D01*
X159027092Y-111060000D01*
X159177271Y-111814999D01*
X159604943Y-112455057D01*
X160245001Y-112882729D01*
X160809424Y-112995000D01*
X161190576Y-112995000D01*
X161754999Y-112882729D01*
X162395057Y-112455057D01*
X162822729Y-111814999D01*
X162972908Y-111060000D01*
X162822729Y-110305001D01*
X162395057Y-109664943D01*
X161754999Y-109237271D01*
X161190576Y-109125000D01*
X160809424Y-109125000D01*
X160245001Y-109237271D01*
X159604943Y-109664943D01*
X159177271Y-110305001D01*
X159027092Y-111060000D01*
X144364801Y-111060000D01*
X145509473Y-109915329D01*
X145572929Y-109872929D01*
X145740904Y-109621537D01*
X145785000Y-109399852D01*
X145785000Y-109399848D01*
X145799888Y-109325000D01*
X145785000Y-109250152D01*
X145785000Y-107580000D01*
X146538846Y-107580000D01*
X146642458Y-108100891D01*
X146937519Y-108542481D01*
X147379109Y-108837542D01*
X147768515Y-108915000D01*
X148031485Y-108915000D01*
X148420891Y-108837542D01*
X148862481Y-108542481D01*
X149157542Y-108100891D01*
X149261154Y-107580000D01*
X151138846Y-107580000D01*
X151242458Y-108100891D01*
X151537519Y-108542481D01*
X151979109Y-108837542D01*
X152368515Y-108915000D01*
X152631485Y-108915000D01*
X153020891Y-108837542D01*
X153462481Y-108542481D01*
X153757542Y-108100891D01*
X153861154Y-107580000D01*
X153807339Y-107309452D01*
X155740000Y-107309452D01*
X155740000Y-107840548D01*
X155943242Y-108331217D01*
X156318783Y-108706758D01*
X156809452Y-108910000D01*
X157340548Y-108910000D01*
X157831217Y-108706758D01*
X158206758Y-108331217D01*
X158410000Y-107840548D01*
X158410000Y-107309452D01*
X158206758Y-106818783D01*
X157831217Y-106443242D01*
X157340548Y-106240000D01*
X156809452Y-106240000D01*
X156318783Y-106443242D01*
X155943242Y-106818783D01*
X155740000Y-107309452D01*
X153807339Y-107309452D01*
X153757542Y-107059109D01*
X153462481Y-106617519D01*
X153020891Y-106322458D01*
X152631485Y-106245000D01*
X152368515Y-106245000D01*
X151979109Y-106322458D01*
X151537519Y-106617519D01*
X151242458Y-107059109D01*
X151138846Y-107580000D01*
X149261154Y-107580000D01*
X149157542Y-107059109D01*
X148862481Y-106617519D01*
X148420891Y-106322458D01*
X148031485Y-106245000D01*
X147768515Y-106245000D01*
X147379109Y-106322458D01*
X146937519Y-106617519D01*
X146642458Y-107059109D01*
X146538846Y-107580000D01*
X145785000Y-107580000D01*
X145785000Y-102578711D01*
X145902431Y-102461280D01*
X145996386Y-102234452D01*
X146565000Y-102234452D01*
X146565000Y-102765548D01*
X146768242Y-103256217D01*
X147143783Y-103631758D01*
X147634452Y-103835000D01*
X148165548Y-103835000D01*
X148656217Y-103631758D01*
X149031758Y-103256217D01*
X149235000Y-102765548D01*
X149235000Y-102234452D01*
X151165000Y-102234452D01*
X151165000Y-102765548D01*
X151368242Y-103256217D01*
X151743783Y-103631758D01*
X152234452Y-103835000D01*
X152765548Y-103835000D01*
X153256217Y-103631758D01*
X153631758Y-103256217D01*
X153835000Y-102765548D01*
X153835000Y-102495000D01*
X155713846Y-102495000D01*
X155817458Y-103015891D01*
X156112519Y-103457481D01*
X156554109Y-103752542D01*
X156943515Y-103830000D01*
X157206485Y-103830000D01*
X157595891Y-103752542D01*
X158037481Y-103457481D01*
X158332542Y-103015891D01*
X158436154Y-102495000D01*
X158332542Y-101974109D01*
X158037481Y-101532519D01*
X157595891Y-101237458D01*
X157206485Y-101160000D01*
X156943515Y-101160000D01*
X156554109Y-101237458D01*
X156112519Y-101532519D01*
X155817458Y-101974109D01*
X155713846Y-102495000D01*
X153835000Y-102495000D01*
X153835000Y-102234452D01*
X153631758Y-101743783D01*
X153256217Y-101368242D01*
X152765548Y-101165000D01*
X152234452Y-101165000D01*
X151743783Y-101368242D01*
X151368242Y-101743783D01*
X151165000Y-102234452D01*
X149235000Y-102234452D01*
X149031758Y-101743783D01*
X148656217Y-101368242D01*
X148165548Y-101165000D01*
X147634452Y-101165000D01*
X147143783Y-101368242D01*
X146768242Y-101743783D01*
X146565000Y-102234452D01*
X145996386Y-102234452D01*
X146060000Y-102080874D01*
X146060000Y-101669126D01*
X145902431Y-101288720D01*
X145663711Y-101050000D01*
X161788846Y-101050000D01*
X161892458Y-101570891D01*
X162187519Y-102012481D01*
X162243670Y-102050000D01*
X162187519Y-102087519D01*
X161892458Y-102529109D01*
X161788846Y-103050000D01*
X161892458Y-103570891D01*
X162187519Y-104012481D01*
X162243670Y-104050000D01*
X162187519Y-104087519D01*
X161892458Y-104529109D01*
X161788846Y-105050000D01*
X161892458Y-105570891D01*
X162187519Y-106012481D01*
X162629109Y-106307542D01*
X163018515Y-106385000D01*
X163043206Y-106385000D01*
X163152071Y-106547929D01*
X163215530Y-106590331D01*
X163559671Y-106934472D01*
X164190001Y-107564803D01*
X164190000Y-129052025D01*
X164056217Y-128918242D01*
X163565548Y-128715000D01*
X163034452Y-128715000D01*
X162543783Y-128918242D01*
X162168242Y-129293783D01*
X161965000Y-129784452D01*
X161965000Y-130315548D01*
X162168242Y-130806217D01*
X162543783Y-131181758D01*
X163034452Y-131385000D01*
X163565548Y-131385000D01*
X164056217Y-131181758D01*
X164190000Y-131047975D01*
X164190000Y-134402059D01*
X164234096Y-134623744D01*
X164240000Y-134632580D01*
X164240000Y-135178331D01*
X164130493Y-135223690D01*
X163698690Y-135655493D01*
X163465000Y-136219670D01*
X163465000Y-136830330D01*
X163698690Y-137394507D01*
X164130493Y-137826310D01*
X164694670Y-138060000D01*
X165305330Y-138060000D01*
X165869507Y-137826310D01*
X166250000Y-137445817D01*
X166630493Y-137826310D01*
X167194670Y-138060000D01*
X167805330Y-138060000D01*
X168369507Y-137826310D01*
X168750000Y-137445817D01*
X169130493Y-137826310D01*
X169694670Y-138060000D01*
X170305330Y-138060000D01*
X170869507Y-137826310D01*
X171301310Y-137394507D01*
X171535000Y-136830330D01*
X171535000Y-136219670D01*
X171301310Y-135655493D01*
X170869507Y-135223690D01*
X170305330Y-134990000D01*
X169694670Y-134990000D01*
X169130493Y-135223690D01*
X168750000Y-135604183D01*
X168369507Y-135223690D01*
X167805330Y-134990000D01*
X167194670Y-134990000D01*
X166630493Y-135223690D01*
X166250000Y-135604183D01*
X165869507Y-135223690D01*
X165760000Y-135178331D01*
X165760000Y-130025000D01*
X165832769Y-130025000D01*
X165940649Y-130567351D01*
X166247866Y-131027134D01*
X166707649Y-131334351D01*
X167113100Y-131415000D01*
X168886900Y-131415000D01*
X169292351Y-131334351D01*
X169752134Y-131027134D01*
X170059351Y-130567351D01*
X170167231Y-130025000D01*
X170059351Y-129482649D01*
X169752134Y-129022866D01*
X169292351Y-128715649D01*
X168886900Y-128635000D01*
X167113100Y-128635000D01*
X166707649Y-128715649D01*
X166247866Y-129022866D01*
X165940649Y-129482649D01*
X165832769Y-130025000D01*
X165760000Y-130025000D01*
X165760000Y-126866971D01*
X165902723Y-126866971D01*
X165917207Y-126939597D01*
X166177319Y-127418076D01*
X166600737Y-127760592D01*
X167123000Y-127915000D01*
X167873000Y-127915000D01*
X167873000Y-126652000D01*
X168127000Y-126652000D01*
X168127000Y-127915000D01*
X168877000Y-127915000D01*
X169399263Y-127760592D01*
X169822681Y-127418076D01*
X170082793Y-126939597D01*
X170097277Y-126866971D01*
X169974683Y-126652000D01*
X168127000Y-126652000D01*
X167873000Y-126652000D01*
X166025317Y-126652000D01*
X165902723Y-126866971D01*
X165760000Y-126866971D01*
X165760000Y-126183029D01*
X165902723Y-126183029D01*
X166025317Y-126398000D01*
X167873000Y-126398000D01*
X167873000Y-125135000D01*
X168127000Y-125135000D01*
X168127000Y-126398000D01*
X169974683Y-126398000D01*
X170097277Y-126183029D01*
X170082793Y-126110403D01*
X169822681Y-125631924D01*
X169399263Y-125289408D01*
X168877000Y-125135000D01*
X168127000Y-125135000D01*
X167873000Y-125135000D01*
X167123000Y-125135000D01*
X166600737Y-125289408D01*
X166177319Y-125631924D01*
X165917207Y-126110403D01*
X165902723Y-126183029D01*
X165760000Y-126183029D01*
X165760000Y-117125000D01*
X165832769Y-117125000D01*
X165940649Y-117667351D01*
X166247866Y-118127134D01*
X166707649Y-118434351D01*
X167113100Y-118515000D01*
X168886900Y-118515000D01*
X169292351Y-118434351D01*
X169752134Y-118127134D01*
X170059351Y-117667351D01*
X170167231Y-117125000D01*
X170059351Y-116582649D01*
X169752134Y-116122866D01*
X169292351Y-115815649D01*
X168886900Y-115735000D01*
X167113100Y-115735000D01*
X166707649Y-115815649D01*
X166247866Y-116122866D01*
X165940649Y-116582649D01*
X165832769Y-117125000D01*
X165760000Y-117125000D01*
X165760000Y-113625000D01*
X165832769Y-113625000D01*
X165940649Y-114167351D01*
X166247866Y-114627134D01*
X166707649Y-114934351D01*
X167113100Y-115015000D01*
X168886900Y-115015000D01*
X169292351Y-114934351D01*
X169752134Y-114627134D01*
X170059351Y-114167351D01*
X170167231Y-113625000D01*
X170059351Y-113082649D01*
X169752134Y-112622866D01*
X169292351Y-112315649D01*
X168886900Y-112235000D01*
X167113100Y-112235000D01*
X166707649Y-112315649D01*
X166247866Y-112622866D01*
X165940649Y-113082649D01*
X165832769Y-113625000D01*
X165760000Y-113625000D01*
X165760000Y-107374848D01*
X165774888Y-107300000D01*
X165760000Y-107225152D01*
X165760000Y-107225148D01*
X165715904Y-107003463D01*
X165547929Y-106752071D01*
X165517956Y-106732044D01*
X165497929Y-106702071D01*
X165434472Y-106659671D01*
X165097260Y-106322458D01*
X164957593Y-106182792D01*
X165212481Y-106012481D01*
X165507542Y-105570891D01*
X165611154Y-105050000D01*
X165507542Y-104529109D01*
X165212481Y-104087519D01*
X165156330Y-104050000D01*
X165212481Y-104012481D01*
X165507542Y-103570891D01*
X165611154Y-103050000D01*
X165507542Y-102529109D01*
X165212481Y-102087519D01*
X165156330Y-102050000D01*
X165212481Y-102012481D01*
X165507542Y-101570891D01*
X165611154Y-101050000D01*
X165507542Y-100529109D01*
X165212481Y-100087519D01*
X164770891Y-99792458D01*
X164381485Y-99715000D01*
X163018515Y-99715000D01*
X162629109Y-99792458D01*
X162187519Y-100087519D01*
X161892458Y-100529109D01*
X161788846Y-101050000D01*
X145663711Y-101050000D01*
X145611280Y-100997569D01*
X145230874Y-100840000D01*
X144819126Y-100840000D01*
X144438720Y-100997569D01*
X144147569Y-101288720D01*
X143990000Y-101669126D01*
X143990000Y-102080874D01*
X144147569Y-102461280D01*
X144265000Y-102578711D01*
X144265001Y-109010197D01*
X142210199Y-111065000D01*
X142044126Y-111065000D01*
X141663720Y-111222569D01*
X141372569Y-111513720D01*
X141215000Y-111894126D01*
X100735000Y-111894126D01*
X100735000Y-103791676D01*
X100736157Y-103792833D01*
X101296659Y-104025000D01*
X101903341Y-104025000D01*
X102463843Y-103792833D01*
X102892833Y-103363843D01*
X102930531Y-103272832D01*
X103105423Y-103534577D01*
X103580091Y-103851740D01*
X103998667Y-103935000D01*
X104281333Y-103935000D01*
X104699909Y-103851740D01*
X105174577Y-103534577D01*
X105410000Y-103182242D01*
X105645423Y-103534577D01*
X106120091Y-103851740D01*
X106538667Y-103935000D01*
X106821333Y-103935000D01*
X107239909Y-103851740D01*
X107714577Y-103534577D01*
X107950000Y-103182242D01*
X108185423Y-103534577D01*
X108660091Y-103851740D01*
X109078667Y-103935000D01*
X109361333Y-103935000D01*
X109779909Y-103851740D01*
X110254577Y-103534577D01*
X110490000Y-103182242D01*
X110725423Y-103534577D01*
X111200091Y-103851740D01*
X111618667Y-103935000D01*
X111901333Y-103935000D01*
X112319909Y-103851740D01*
X112794577Y-103534577D01*
X113030000Y-103182242D01*
X113265423Y-103534577D01*
X113740091Y-103851740D01*
X114158667Y-103935000D01*
X114441333Y-103935000D01*
X114859909Y-103851740D01*
X115334577Y-103534577D01*
X115570000Y-103182242D01*
X115805423Y-103534577D01*
X116280091Y-103851740D01*
X116698667Y-103935000D01*
X116981333Y-103935000D01*
X117399909Y-103851740D01*
X117874577Y-103534577D01*
X118110000Y-103182242D01*
X118345423Y-103534577D01*
X118820091Y-103851740D01*
X119238667Y-103935000D01*
X119521333Y-103935000D01*
X119939909Y-103851740D01*
X120414577Y-103534577D01*
X120650000Y-103182242D01*
X120885423Y-103534577D01*
X121360091Y-103851740D01*
X121778667Y-103935000D01*
X122061333Y-103935000D01*
X122479909Y-103851740D01*
X122954577Y-103534577D01*
X123190000Y-103182242D01*
X123425423Y-103534577D01*
X123900091Y-103851740D01*
X124318667Y-103935000D01*
X124601333Y-103935000D01*
X125019909Y-103851740D01*
X125494577Y-103534577D01*
X125730000Y-103182242D01*
X125965423Y-103534577D01*
X126440091Y-103851740D01*
X126858667Y-103935000D01*
X127141333Y-103935000D01*
X127559909Y-103851740D01*
X128034577Y-103534577D01*
X128270000Y-103182242D01*
X128505423Y-103534577D01*
X128980091Y-103851740D01*
X129398667Y-103935000D01*
X129681333Y-103935000D01*
X130099909Y-103851740D01*
X130574577Y-103534577D01*
X130810000Y-103182242D01*
X131045423Y-103534577D01*
X131520091Y-103851740D01*
X131938667Y-103935000D01*
X132221333Y-103935000D01*
X132639909Y-103851740D01*
X133114577Y-103534577D01*
X133350000Y-103182242D01*
X133585423Y-103534577D01*
X134060091Y-103851740D01*
X134478667Y-103935000D01*
X134761333Y-103935000D01*
X135179909Y-103851740D01*
X135654577Y-103534577D01*
X135890000Y-103182242D01*
X136125423Y-103534577D01*
X136600091Y-103851740D01*
X137018667Y-103935000D01*
X137301333Y-103935000D01*
X137719909Y-103851740D01*
X138194577Y-103534577D01*
X138275215Y-103413894D01*
X138301843Y-103547765D01*
X138442191Y-103757809D01*
X138652235Y-103898157D01*
X138900000Y-103947440D01*
X140500000Y-103947440D01*
X140747765Y-103898157D01*
X140957809Y-103757809D01*
X141098157Y-103547765D01*
X141103621Y-103520297D01*
X141376157Y-103792833D01*
X141936659Y-104025000D01*
X142543341Y-104025000D01*
X143103843Y-103792833D01*
X143532833Y-103363843D01*
X143765000Y-102803341D01*
X143765000Y-102196659D01*
X143532833Y-101636157D01*
X143103843Y-101207167D01*
X142543341Y-100975000D01*
X141936659Y-100975000D01*
X141376157Y-101207167D01*
X141103621Y-101479703D01*
X141098157Y-101452235D01*
X140957809Y-101242191D01*
X140747765Y-101101843D01*
X140500000Y-101052560D01*
X138900000Y-101052560D01*
X138652235Y-101101843D01*
X138442191Y-101242191D01*
X138301843Y-101452235D01*
X138275215Y-101586106D01*
X138194577Y-101465423D01*
X137719909Y-101148260D01*
X137301333Y-101065000D01*
X137018667Y-101065000D01*
X136600091Y-101148260D01*
X136125423Y-101465423D01*
X135890000Y-101817758D01*
X135654577Y-101465423D01*
X135179909Y-101148260D01*
X134761333Y-101065000D01*
X134478667Y-101065000D01*
X134060091Y-101148260D01*
X133585423Y-101465423D01*
X133350000Y-101817758D01*
X133114577Y-101465423D01*
X132639909Y-101148260D01*
X132221333Y-101065000D01*
X131938667Y-101065000D01*
X131520091Y-101148260D01*
X131045423Y-101465423D01*
X130810000Y-101817758D01*
X130574577Y-101465423D01*
X130099909Y-101148260D01*
X129681333Y-101065000D01*
X129398667Y-101065000D01*
X128980091Y-101148260D01*
X128505423Y-101465423D01*
X128270000Y-101817758D01*
X128034577Y-101465423D01*
X127559909Y-101148260D01*
X127141333Y-101065000D01*
X126858667Y-101065000D01*
X126440091Y-101148260D01*
X125965423Y-101465423D01*
X125730000Y-101817758D01*
X125494577Y-101465423D01*
X125019909Y-101148260D01*
X124601333Y-101065000D01*
X124318667Y-101065000D01*
X123900091Y-101148260D01*
X123425423Y-101465423D01*
X123190000Y-101817758D01*
X122954577Y-101465423D01*
X122479909Y-101148260D01*
X122061333Y-101065000D01*
X121778667Y-101065000D01*
X121360091Y-101148260D01*
X120885423Y-101465423D01*
X120650000Y-101817758D01*
X120414577Y-101465423D01*
X119939909Y-101148260D01*
X119521333Y-101065000D01*
X119238667Y-101065000D01*
X118820091Y-101148260D01*
X118345423Y-101465423D01*
X118110000Y-101817758D01*
X117874577Y-101465423D01*
X117399909Y-101148260D01*
X116981333Y-101065000D01*
X116698667Y-101065000D01*
X116280091Y-101148260D01*
X115805423Y-101465423D01*
X115570000Y-101817758D01*
X115334577Y-101465423D01*
X114859909Y-101148260D01*
X114441333Y-101065000D01*
X114158667Y-101065000D01*
X113740091Y-101148260D01*
X113265423Y-101465423D01*
X113030000Y-101817758D01*
X112794577Y-101465423D01*
X112319909Y-101148260D01*
X111901333Y-101065000D01*
X111618667Y-101065000D01*
X111200091Y-101148260D01*
X110725423Y-101465423D01*
X110490000Y-101817758D01*
X110254577Y-101465423D01*
X109779909Y-101148260D01*
X109361333Y-101065000D01*
X109078667Y-101065000D01*
X108660091Y-101148260D01*
X108185423Y-101465423D01*
X107950000Y-101817758D01*
X107714577Y-101465423D01*
X107239909Y-101148260D01*
X106821333Y-101065000D01*
X106538667Y-101065000D01*
X106120091Y-101148260D01*
X105645423Y-101465423D01*
X105410000Y-101817758D01*
X105174577Y-101465423D01*
X104699909Y-101148260D01*
X104281333Y-101065000D01*
X103998667Y-101065000D01*
X103580091Y-101148260D01*
X103105423Y-101465423D01*
X102930531Y-101727168D01*
X102892833Y-101636157D01*
X102463843Y-101207167D01*
X101903341Y-100975000D01*
X101296659Y-100975000D01*
X100736157Y-101207167D01*
X100735000Y-101208324D01*
X100735000Y-95097780D01*
X103929754Y-95097780D01*
X104114863Y-96028384D01*
X104642008Y-96817312D01*
X105430936Y-97344457D01*
X106126633Y-97482840D01*
X110096567Y-97482840D01*
X110792264Y-97344457D01*
X111581192Y-96817312D01*
X112108337Y-96028384D01*
X112293446Y-95097780D01*
X112108337Y-94167176D01*
X111952841Y-93934460D01*
X112967183Y-93934460D01*
X113385788Y-93851194D01*
X113860489Y-93534009D01*
X114177674Y-93059308D01*
X114289055Y-92499360D01*
X114177674Y-91939412D01*
X113860489Y-91464711D01*
X113538672Y-91249680D01*
X113860489Y-91034649D01*
X114177674Y-90559948D01*
X114289055Y-90000000D01*
X114177674Y-89440052D01*
X113860489Y-88965351D01*
X113385788Y-88648166D01*
X112967183Y-88564900D01*
X111785337Y-88564900D01*
X111366732Y-88648166D01*
X110892031Y-88965351D01*
X110574846Y-89440052D01*
X110463465Y-90000000D01*
X110574846Y-90559948D01*
X110892031Y-91034649D01*
X111213848Y-91249680D01*
X110892031Y-91464711D01*
X110574846Y-91939412D01*
X110463465Y-92499360D01*
X110522768Y-92797497D01*
X110096567Y-92712720D01*
X106126633Y-92712720D01*
X105430936Y-92851103D01*
X104642008Y-93378248D01*
X104114863Y-94167176D01*
X103929754Y-95097780D01*
X100735000Y-95097780D01*
X100735000Y-87555431D01*
X117765000Y-87555431D01*
X117765000Y-88444569D01*
X118105259Y-89266026D01*
X118733974Y-89894741D01*
X119555431Y-90235000D01*
X120444569Y-90235000D01*
X121266026Y-89894741D01*
X121894741Y-89266026D01*
X122235000Y-88444569D01*
X122235000Y-87555431D01*
X152765000Y-87555431D01*
X152765000Y-88444569D01*
X153105259Y-89266026D01*
X153733974Y-89894741D01*
X154555431Y-90235000D01*
X155444569Y-90235000D01*
X156266026Y-89894741D01*
X156894741Y-89266026D01*
X157235000Y-88444569D01*
X157235000Y-87585750D01*
X167490000Y-87585750D01*
X167490000Y-89176309D01*
X167586673Y-89409698D01*
X167765301Y-89588327D01*
X167998690Y-89685000D01*
X169589250Y-89685000D01*
X169748000Y-89526250D01*
X169748000Y-87427000D01*
X170002000Y-87427000D01*
X170002000Y-89526250D01*
X170160750Y-89685000D01*
X171751310Y-89685000D01*
X171984699Y-89588327D01*
X172163327Y-89409698D01*
X172260000Y-89176309D01*
X172260000Y-87585750D01*
X172101250Y-87427000D01*
X170002000Y-87427000D01*
X169748000Y-87427000D01*
X167648750Y-87427000D01*
X167490000Y-87585750D01*
X157235000Y-87585750D01*
X157235000Y-87555431D01*
X156894741Y-86733974D01*
X156266026Y-86105259D01*
X155444569Y-85765000D01*
X154555431Y-85765000D01*
X153733974Y-86105259D01*
X153105259Y-86733974D01*
X152765000Y-87555431D01*
X122235000Y-87555431D01*
X121894741Y-86733974D01*
X121266026Y-86105259D01*
X120444569Y-85765000D01*
X119555431Y-85765000D01*
X118733974Y-86105259D01*
X118105259Y-86733974D01*
X117765000Y-87555431D01*
X100735000Y-87555431D01*
X100735000Y-84899680D01*
X103929754Y-84899680D01*
X104114863Y-85830284D01*
X104642008Y-86619212D01*
X105430936Y-87146357D01*
X106126633Y-87284740D01*
X110096567Y-87284740D01*
X110792264Y-87146357D01*
X111581192Y-86619212D01*
X112108337Y-85830284D01*
X112293446Y-84899680D01*
X112108337Y-83969076D01*
X111711388Y-83375000D01*
X162477560Y-83375000D01*
X162477560Y-85125000D01*
X162593449Y-85707613D01*
X162923472Y-86201528D01*
X163417387Y-86531551D01*
X164000000Y-86647440D01*
X165750000Y-86647440D01*
X166332613Y-86531551D01*
X166826528Y-86201528D01*
X167156551Y-85707613D01*
X167213026Y-85423691D01*
X167490000Y-85423691D01*
X167490000Y-87014250D01*
X167648750Y-87173000D01*
X169748000Y-87173000D01*
X169748000Y-85073750D01*
X170002000Y-85073750D01*
X170002000Y-87173000D01*
X172101250Y-87173000D01*
X172260000Y-87014250D01*
X172260000Y-85423691D01*
X172163327Y-85190302D01*
X171984699Y-85011673D01*
X171751310Y-84915000D01*
X170160750Y-84915000D01*
X170002000Y-85073750D01*
X169748000Y-85073750D01*
X169589250Y-84915000D01*
X167998690Y-84915000D01*
X167765301Y-85011673D01*
X167586673Y-85190302D01*
X167490000Y-85423691D01*
X167213026Y-85423691D01*
X167272440Y-85125000D01*
X167272440Y-83375000D01*
X167156551Y-82792387D01*
X166826528Y-82298472D01*
X166332613Y-81968449D01*
X165750000Y-81852560D01*
X164000000Y-81852560D01*
X163417387Y-81968449D01*
X162923472Y-82298472D01*
X162593449Y-82792387D01*
X162477560Y-83375000D01*
X111711388Y-83375000D01*
X111581192Y-83180148D01*
X110792264Y-82653003D01*
X110096567Y-82514620D01*
X106126633Y-82514620D01*
X105430936Y-82653003D01*
X104642008Y-83180148D01*
X104114863Y-83969076D01*
X103929754Y-84899680D01*
X100735000Y-84899680D01*
X100735000Y-75735000D01*
X168374207Y-75735000D01*
X168276974Y-75832233D01*
G04 #@! TD*
M02*
