G04 #@! TF.GenerationSoftware,KiCad,Pcbnew,(5.0.0)*
G04 #@! TF.CreationDate,2018-09-07T11:03:02+01:00*
G04 #@! TF.ProjectId,OpenSpritzer,4F70656E53707269747A65722E6B6963,rev?*
G04 #@! TF.SameCoordinates,Original*
G04 #@! TF.FileFunction,Other,Fab,Top*
%FSLAX46Y46*%
G04 Gerber Fmt 4.6, Leading zero omitted, Abs format (unit mm)*
G04 Created by KiCad (PCBNEW (5.0.0)) date 09/07/18 11:03:02*
%MOMM*%
%LPD*%
G01*
G04 APERTURE LIST*
%ADD10C,0.100000*%
%ADD11C,0.150000*%
G04 APERTURE END LIST*
D10*
G04 #@! TO.C,*
X147900000Y-102500000D02*
X147900000Y-107580000D01*
X148700000Y-102500000D02*
G75*
G03X148700000Y-102500000I-800000J0D01*
G01*
X152500000Y-102500000D02*
X152500000Y-107580000D01*
X153300000Y-102500000D02*
G75*
G03X153300000Y-102500000I-800000J0D01*
G01*
X157075000Y-107575000D02*
X157075000Y-102495000D01*
X157875000Y-107575000D02*
G75*
G03X157875000Y-107575000I-800000J0D01*
G01*
X152475000Y-113325000D02*
X152475000Y-118405000D01*
X153275000Y-113325000D02*
G75*
G03X153275000Y-113325000I-800000J0D01*
G01*
X147900000Y-118375000D02*
X147900000Y-113295000D01*
X148700000Y-118375000D02*
G75*
G03X148700000Y-118375000I-800000J0D01*
G01*
X123525000Y-133075000D02*
X123525000Y-131775000D01*
X124125000Y-132425000D02*
X122925000Y-132425000D01*
X124175000Y-132425000D02*
G75*
G03X124175000Y-132425000I-4000000J0D01*
G01*
X163300000Y-130050000D02*
X158220000Y-130050000D01*
X164100000Y-130050000D02*
G75*
G03X164100000Y-130050000I-800000J0D01*
G01*
D11*
X148110000Y-149785000D02*
X148110000Y-151785000D01*
X141890000Y-151785000D02*
X148110000Y-151785000D01*
X141890000Y-149785000D02*
X141890000Y-151785000D01*
D10*
X174375000Y-86820000D02*
X174375000Y-73120000D01*
X165375000Y-88000000D02*
X173625000Y-88000000D01*
X165375000Y-73120000D02*
X165375000Y-88000000D01*
X174375000Y-73120000D02*
X165375000Y-73120000D01*
X174375000Y-76300000D02*
X165375000Y-76300000D01*
X174380425Y-86816787D02*
X173625000Y-88000000D01*
X170750000Y-144025000D02*
G75*
G03X170750000Y-144025000I-3250000J0D01*
G01*
X170500000Y-144025000D02*
G75*
G03X170500000Y-144025000I-3000000J0D01*
G01*
X172400000Y-137525000D02*
X162600000Y-137525000D01*
X162600000Y-137525000D02*
X162600000Y-149525000D01*
X162600000Y-149525000D02*
X172400000Y-149525000D01*
X172400000Y-149525000D02*
X172400000Y-137525000D01*
X107950000Y-106310000D02*
X107950000Y-113930000D01*
X107950000Y-113930000D02*
X97790000Y-113930000D01*
X97790000Y-113930000D02*
X97790000Y-106310000D01*
X97790000Y-106310000D02*
X107950000Y-106310000D01*
X100330000Y-119010000D02*
X100330000Y-101230000D01*
X100330000Y-101230000D02*
X142240000Y-101230000D01*
X142240000Y-101230000D02*
X143510000Y-102500000D01*
X143510000Y-102500000D02*
X143510000Y-119010000D01*
X143510000Y-119010000D02*
X100330000Y-119010000D01*
X155150000Y-125235000D02*
X153150000Y-125235000D01*
X153150000Y-125235000D02*
X153150000Y-129235000D01*
X153150000Y-129235000D02*
X155150000Y-129235000D01*
X155150000Y-129235000D02*
X155150000Y-125235000D01*
X154150000Y-123425000D02*
X154150000Y-125235000D01*
X154150000Y-131045000D02*
X154150000Y-129235000D01*
X155150000Y-125835000D02*
X153150000Y-125835000D01*
X158395000Y-123445000D02*
X163605000Y-123445000D01*
X163605000Y-123445000D02*
X163605000Y-113915000D01*
X163605000Y-113915000D02*
X158395000Y-113915000D01*
X158395000Y-113915000D02*
X158395000Y-123445000D01*
X161000000Y-126300000D02*
X161000000Y-123445000D01*
X161000000Y-111060000D02*
X161000000Y-113915000D01*
X158395000Y-122015500D02*
X163605000Y-122015500D01*
X136825000Y-132525000D02*
G75*
G03X136825000Y-132525000I-4000000J0D01*
G01*
X132825000Y-136475000D02*
X132825000Y-135275000D01*
X132175000Y-135875000D02*
X133475000Y-135875000D01*
X129525000Y-126750000D02*
X129525000Y-121550000D01*
X129525000Y-121550000D02*
X120025000Y-121550000D01*
X120025000Y-121550000D02*
X120025000Y-126750000D01*
X120025000Y-126750000D02*
X129525000Y-126750000D01*
X131125000Y-124150000D02*
X129525000Y-124150000D01*
X118425000Y-124150000D02*
X120025000Y-124150000D01*
X128100000Y-126750000D02*
X128100000Y-121550000D01*
X143825000Y-124175000D02*
G75*
G03X143825000Y-124175000I-3000000J0D01*
G01*
X134425000Y-148325000D02*
X134425000Y-143925000D01*
X134425000Y-143925000D02*
X124425000Y-143925000D01*
X124425000Y-143925000D02*
X124425000Y-148325000D01*
X124425000Y-148325000D02*
X134425000Y-148325000D01*
X134425000Y-147055000D02*
X124425000Y-147055000D01*
X131275000Y-148325000D02*
X131275000Y-147055000D01*
X127575000Y-148325000D02*
X127575000Y-147055000D01*
X132825000Y-143925000D02*
X132825000Y-140125000D01*
X131125000Y-143925000D02*
X131125000Y-143825000D01*
X129425000Y-143925000D02*
X129425000Y-140125000D01*
X127725000Y-143925000D02*
X127725000Y-143825000D01*
X126025000Y-143925000D02*
X126025000Y-140125000D01*
G04 #@! TD*
G04 #@! TO.C,*
D11*
G04 #@! TD*
M02*
