G04 #@! TF.GenerationSoftware,KiCad,Pcbnew,(5.0.0)*
G04 #@! TF.CreationDate,2018-09-07T11:03:02+01:00*
G04 #@! TF.ProjectId,OpenSpritzer,4F70656E53707269747A65722E6B6963,rev?*
G04 #@! TF.SameCoordinates,Original*
G04 #@! TF.FileFunction,Legend,Top*
G04 #@! TF.FilePolarity,Positive*
%FSLAX46Y46*%
G04 Gerber Fmt 4.6, Leading zero omitted, Abs format (unit mm)*
G04 Created by KiCad (PCBNEW (5.0.0)) date 09/07/18 11:03:02*
%MOMM*%
%LPD*%
G01*
G04 APERTURE LIST*
%ADD10C,0.125000*%
%ADD11C,0.500000*%
%ADD12C,0.300000*%
%ADD13C,0.120000*%
%ADD14C,0.150000*%
%ADD15C,0.010000*%
G04 APERTURE END LIST*
D10*
X131491964Y-82346428D02*
X131563392Y-82275000D01*
X131706250Y-82203571D01*
X132063392Y-82203571D01*
X132206250Y-82275000D01*
X132277678Y-82346428D01*
X132349107Y-82489285D01*
X132349107Y-82632142D01*
X132277678Y-82846428D01*
X131420535Y-83703571D01*
X132349107Y-83703571D01*
X133277678Y-82203571D02*
X133420535Y-82203571D01*
X133563392Y-82275000D01*
X133634821Y-82346428D01*
X133706250Y-82489285D01*
X133777678Y-82775000D01*
X133777678Y-83132142D01*
X133706250Y-83417857D01*
X133634821Y-83560714D01*
X133563392Y-83632142D01*
X133420535Y-83703571D01*
X133277678Y-83703571D01*
X133134821Y-83632142D01*
X133063392Y-83560714D01*
X132991964Y-83417857D01*
X132920535Y-83132142D01*
X132920535Y-82775000D01*
X132991964Y-82489285D01*
X133063392Y-82346428D01*
X133134821Y-82275000D01*
X133277678Y-82203571D01*
X135206250Y-83703571D02*
X134349107Y-83703571D01*
X134777678Y-83703571D02*
X134777678Y-82203571D01*
X134634821Y-82417857D01*
X134491964Y-82560714D01*
X134349107Y-82632142D01*
X136063392Y-82846428D02*
X135920535Y-82775000D01*
X135849107Y-82703571D01*
X135777678Y-82560714D01*
X135777678Y-82489285D01*
X135849107Y-82346428D01*
X135920535Y-82275000D01*
X136063392Y-82203571D01*
X136349107Y-82203571D01*
X136491964Y-82275000D01*
X136563392Y-82346428D01*
X136634821Y-82489285D01*
X136634821Y-82560714D01*
X136563392Y-82703571D01*
X136491964Y-82775000D01*
X136349107Y-82846428D01*
X136063392Y-82846428D01*
X135920535Y-82917857D01*
X135849107Y-82989285D01*
X135777678Y-83132142D01*
X135777678Y-83417857D01*
X135849107Y-83560714D01*
X135920535Y-83632142D01*
X136063392Y-83703571D01*
X136349107Y-83703571D01*
X136491964Y-83632142D01*
X136563392Y-83560714D01*
X136634821Y-83417857D01*
X136634821Y-83132142D01*
X136563392Y-82989285D01*
X136491964Y-82917857D01*
X136349107Y-82846428D01*
X137277678Y-83560714D02*
X137349107Y-83632142D01*
X137277678Y-83703571D01*
X137206250Y-83632142D01*
X137277678Y-83560714D01*
X137277678Y-83703571D01*
X138277678Y-82203571D02*
X138420535Y-82203571D01*
X138563392Y-82275000D01*
X138634821Y-82346428D01*
X138706250Y-82489285D01*
X138777678Y-82775000D01*
X138777678Y-83132142D01*
X138706250Y-83417857D01*
X138634821Y-83560714D01*
X138563392Y-83632142D01*
X138420535Y-83703571D01*
X138277678Y-83703571D01*
X138134821Y-83632142D01*
X138063392Y-83560714D01*
X137991964Y-83417857D01*
X137920535Y-83132142D01*
X137920535Y-82775000D01*
X137991964Y-82489285D01*
X138063392Y-82346428D01*
X138134821Y-82275000D01*
X138277678Y-82203571D01*
X139491964Y-83703571D02*
X139777678Y-83703571D01*
X139920535Y-83632142D01*
X139991964Y-83560714D01*
X140134821Y-83346428D01*
X140206250Y-83060714D01*
X140206250Y-82489285D01*
X140134821Y-82346428D01*
X140063392Y-82275000D01*
X139920535Y-82203571D01*
X139634821Y-82203571D01*
X139491964Y-82275000D01*
X139420535Y-82346428D01*
X139349107Y-82489285D01*
X139349107Y-82846428D01*
X139420535Y-82989285D01*
X139491964Y-83060714D01*
X139634821Y-83132142D01*
X139920535Y-83132142D01*
X140063392Y-83060714D01*
X140134821Y-82989285D01*
X140206250Y-82846428D01*
X140849107Y-83560714D02*
X140920535Y-83632142D01*
X140849107Y-83703571D01*
X140777678Y-83632142D01*
X140849107Y-83560714D01*
X140849107Y-83703571D01*
X141849107Y-82203571D02*
X141991964Y-82203571D01*
X142134821Y-82275000D01*
X142206250Y-82346428D01*
X142277678Y-82489285D01*
X142349107Y-82775000D01*
X142349107Y-83132142D01*
X142277678Y-83417857D01*
X142206250Y-83560714D01*
X142134821Y-83632142D01*
X141991964Y-83703571D01*
X141849107Y-83703571D01*
X141706250Y-83632142D01*
X141634821Y-83560714D01*
X141563392Y-83417857D01*
X141491964Y-83132142D01*
X141491964Y-82775000D01*
X141563392Y-82489285D01*
X141634821Y-82346428D01*
X141706250Y-82275000D01*
X141849107Y-82203571D01*
X143706250Y-82203571D02*
X142991964Y-82203571D01*
X142920535Y-82917857D01*
X142991964Y-82846428D01*
X143134821Y-82775000D01*
X143491964Y-82775000D01*
X143634821Y-82846428D01*
X143706250Y-82917857D01*
X143777678Y-83060714D01*
X143777678Y-83417857D01*
X143706250Y-83560714D01*
X143634821Y-83632142D01*
X143491964Y-83703571D01*
X143134821Y-83703571D01*
X142991964Y-83632142D01*
X142920535Y-83560714D01*
X124419345Y-88139880D02*
X124419345Y-87139880D01*
X124419345Y-87520833D02*
X124514583Y-87473214D01*
X124705059Y-87473214D01*
X124800297Y-87520833D01*
X124847916Y-87568452D01*
X124895535Y-87663690D01*
X124895535Y-87949404D01*
X124847916Y-88044642D01*
X124800297Y-88092261D01*
X124705059Y-88139880D01*
X124514583Y-88139880D01*
X124419345Y-88092261D01*
X125228869Y-87473214D02*
X125466964Y-88139880D01*
X125705059Y-87473214D02*
X125466964Y-88139880D01*
X125371726Y-88377976D01*
X125324107Y-88425595D01*
X125228869Y-88473214D01*
X126800297Y-87854166D02*
X127276488Y-87854166D01*
X126705059Y-88139880D02*
X127038392Y-87139880D01*
X127371726Y-88139880D01*
X127705059Y-88139880D02*
X127705059Y-87139880D01*
X128038392Y-87854166D01*
X128371726Y-87139880D01*
X128371726Y-88139880D01*
X130181250Y-88044642D02*
X130133630Y-88092261D01*
X129990773Y-88139880D01*
X129895535Y-88139880D01*
X129752678Y-88092261D01*
X129657440Y-87997023D01*
X129609821Y-87901785D01*
X129562202Y-87711309D01*
X129562202Y-87568452D01*
X129609821Y-87377976D01*
X129657440Y-87282738D01*
X129752678Y-87187500D01*
X129895535Y-87139880D01*
X129990773Y-87139880D01*
X130133630Y-87187500D01*
X130181250Y-87235119D01*
X130609821Y-88139880D02*
X130609821Y-87139880D01*
X131038392Y-88139880D02*
X131038392Y-87616071D01*
X130990773Y-87520833D01*
X130895535Y-87473214D01*
X130752678Y-87473214D01*
X130657440Y-87520833D01*
X130609821Y-87568452D01*
X131943154Y-88139880D02*
X131943154Y-87616071D01*
X131895535Y-87520833D01*
X131800297Y-87473214D01*
X131609821Y-87473214D01*
X131514583Y-87520833D01*
X131943154Y-88092261D02*
X131847916Y-88139880D01*
X131609821Y-88139880D01*
X131514583Y-88092261D01*
X131466964Y-87997023D01*
X131466964Y-87901785D01*
X131514583Y-87806547D01*
X131609821Y-87758928D01*
X131847916Y-87758928D01*
X131943154Y-87711309D01*
X132847916Y-87473214D02*
X132847916Y-88282738D01*
X132800297Y-88377976D01*
X132752678Y-88425595D01*
X132657440Y-88473214D01*
X132514583Y-88473214D01*
X132419345Y-88425595D01*
X132847916Y-88092261D02*
X132752678Y-88139880D01*
X132562202Y-88139880D01*
X132466964Y-88092261D01*
X132419345Y-88044642D01*
X132371726Y-87949404D01*
X132371726Y-87663690D01*
X132419345Y-87568452D01*
X132466964Y-87520833D01*
X132562202Y-87473214D01*
X132752678Y-87473214D01*
X132847916Y-87520833D01*
X133752678Y-88139880D02*
X133752678Y-87616071D01*
X133705059Y-87520833D01*
X133609821Y-87473214D01*
X133419345Y-87473214D01*
X133324107Y-87520833D01*
X133752678Y-88092261D02*
X133657440Y-88139880D01*
X133419345Y-88139880D01*
X133324107Y-88092261D01*
X133276488Y-87997023D01*
X133276488Y-87901785D01*
X133324107Y-87806547D01*
X133419345Y-87758928D01*
X133657440Y-87758928D01*
X133752678Y-87711309D01*
X134181250Y-88092261D02*
X134276488Y-88139880D01*
X134466964Y-88139880D01*
X134562202Y-88092261D01*
X134609821Y-87997023D01*
X134609821Y-87949404D01*
X134562202Y-87854166D01*
X134466964Y-87806547D01*
X134324107Y-87806547D01*
X134228869Y-87758928D01*
X134181250Y-87663690D01*
X134181250Y-87616071D01*
X134228869Y-87520833D01*
X134324107Y-87473214D01*
X134466964Y-87473214D01*
X134562202Y-87520833D01*
X136609821Y-88139880D02*
X136562202Y-88139880D01*
X136466964Y-88092261D01*
X136324107Y-87949404D01*
X136086011Y-87663690D01*
X135990773Y-87520833D01*
X135943154Y-87377976D01*
X135943154Y-87282738D01*
X135990773Y-87187500D01*
X136086011Y-87139880D01*
X136133630Y-87139880D01*
X136228869Y-87187500D01*
X136276488Y-87282738D01*
X136276488Y-87330357D01*
X136228869Y-87425595D01*
X136181250Y-87473214D01*
X135895535Y-87663690D01*
X135847916Y-87711309D01*
X135800297Y-87806547D01*
X135800297Y-87949404D01*
X135847916Y-88044642D01*
X135895535Y-88092261D01*
X135990773Y-88139880D01*
X136133630Y-88139880D01*
X136228869Y-88092261D01*
X136276488Y-88044642D01*
X136419345Y-87854166D01*
X136466964Y-87711309D01*
X136466964Y-87616071D01*
X137800297Y-88139880D02*
X137800297Y-87139880D01*
X138133630Y-87854166D01*
X138466964Y-87139880D01*
X138466964Y-88139880D01*
X139228869Y-87139880D02*
X139228869Y-87854166D01*
X139181250Y-87997023D01*
X139086011Y-88092261D01*
X138943154Y-88139880D01*
X138847916Y-88139880D01*
X139895535Y-87663690D02*
X139895535Y-88139880D01*
X139562202Y-87139880D02*
X139895535Y-87663690D01*
X140228869Y-87139880D01*
X141228869Y-87139880D02*
X141895535Y-87139880D01*
X141228869Y-88139880D01*
X141895535Y-88139880D01*
X142276488Y-88139880D02*
X142276488Y-87473214D01*
X142276488Y-87139880D02*
X142228869Y-87187500D01*
X142276488Y-87235119D01*
X142324107Y-87187500D01*
X142276488Y-87139880D01*
X142276488Y-87235119D01*
X142752678Y-88139880D02*
X142752678Y-87473214D01*
X142752678Y-87568452D02*
X142800297Y-87520833D01*
X142895535Y-87473214D01*
X143038392Y-87473214D01*
X143133630Y-87520833D01*
X143181250Y-87616071D01*
X143181250Y-88139880D01*
X143181250Y-87616071D02*
X143228869Y-87520833D01*
X143324107Y-87473214D01*
X143466964Y-87473214D01*
X143562202Y-87520833D01*
X143609821Y-87616071D01*
X143609821Y-88139880D01*
X144086011Y-88139880D02*
X144086011Y-87473214D01*
X144086011Y-87568452D02*
X144133630Y-87520833D01*
X144228869Y-87473214D01*
X144371726Y-87473214D01*
X144466964Y-87520833D01*
X144514583Y-87616071D01*
X144514583Y-88139880D01*
X144514583Y-87616071D02*
X144562202Y-87520833D01*
X144657440Y-87473214D01*
X144800297Y-87473214D01*
X144895535Y-87520833D01*
X144943154Y-87616071D01*
X144943154Y-88139880D01*
X145800297Y-88092261D02*
X145705059Y-88139880D01*
X145514583Y-88139880D01*
X145419345Y-88092261D01*
X145371726Y-87997023D01*
X145371726Y-87616071D01*
X145419345Y-87520833D01*
X145514583Y-87473214D01*
X145705059Y-87473214D01*
X145800297Y-87520833D01*
X145847916Y-87616071D01*
X145847916Y-87711309D01*
X145371726Y-87806547D01*
X146276488Y-88139880D02*
X146276488Y-87473214D01*
X146276488Y-87663690D02*
X146324107Y-87568452D01*
X146371726Y-87520833D01*
X146466964Y-87473214D01*
X146562202Y-87473214D01*
X146895535Y-88139880D02*
X146895535Y-87473214D01*
X146895535Y-87568452D02*
X146943154Y-87520833D01*
X147038392Y-87473214D01*
X147181250Y-87473214D01*
X147276488Y-87520833D01*
X147324107Y-87616071D01*
X147324107Y-88139880D01*
X147324107Y-87616071D02*
X147371726Y-87520833D01*
X147466964Y-87473214D01*
X147609821Y-87473214D01*
X147705059Y-87520833D01*
X147752678Y-87616071D01*
X147752678Y-88139880D01*
X148657440Y-88139880D02*
X148657440Y-87616071D01*
X148609821Y-87520833D01*
X148514583Y-87473214D01*
X148324107Y-87473214D01*
X148228869Y-87520833D01*
X148657440Y-88092261D02*
X148562202Y-88139880D01*
X148324107Y-88139880D01*
X148228869Y-88092261D01*
X148181250Y-87997023D01*
X148181250Y-87901785D01*
X148228869Y-87806547D01*
X148324107Y-87758928D01*
X148562202Y-87758928D01*
X148657440Y-87711309D01*
X149133630Y-87473214D02*
X149133630Y-88139880D01*
X149133630Y-87568452D02*
X149181250Y-87520833D01*
X149276488Y-87473214D01*
X149419345Y-87473214D01*
X149514583Y-87520833D01*
X149562202Y-87616071D01*
X149562202Y-88139880D01*
X150038392Y-87473214D02*
X150038392Y-88139880D01*
X150038392Y-87568452D02*
X150086011Y-87520833D01*
X150181250Y-87473214D01*
X150324107Y-87473214D01*
X150419345Y-87520833D01*
X150466964Y-87616071D01*
X150466964Y-88139880D01*
X124990773Y-89764880D02*
X124657440Y-89288690D01*
X124419345Y-89764880D02*
X124419345Y-88764880D01*
X124800297Y-88764880D01*
X124895535Y-88812500D01*
X124943154Y-88860119D01*
X124990773Y-88955357D01*
X124990773Y-89098214D01*
X124943154Y-89193452D01*
X124895535Y-89241071D01*
X124800297Y-89288690D01*
X124419345Y-89288690D01*
X125800297Y-89717261D02*
X125705059Y-89764880D01*
X125514583Y-89764880D01*
X125419345Y-89717261D01*
X125371726Y-89622023D01*
X125371726Y-89241071D01*
X125419345Y-89145833D01*
X125514583Y-89098214D01*
X125705059Y-89098214D01*
X125800297Y-89145833D01*
X125847916Y-89241071D01*
X125847916Y-89336309D01*
X125371726Y-89431547D01*
X126419345Y-89764880D02*
X126324107Y-89717261D01*
X126276488Y-89622023D01*
X126276488Y-88764880D01*
X127181250Y-89717261D02*
X127086011Y-89764880D01*
X126895535Y-89764880D01*
X126800297Y-89717261D01*
X126752678Y-89622023D01*
X126752678Y-89241071D01*
X126800297Y-89145833D01*
X126895535Y-89098214D01*
X127086011Y-89098214D01*
X127181250Y-89145833D01*
X127228869Y-89241071D01*
X127228869Y-89336309D01*
X126752678Y-89431547D01*
X128086011Y-89764880D02*
X128086011Y-89241071D01*
X128038392Y-89145833D01*
X127943154Y-89098214D01*
X127752678Y-89098214D01*
X127657440Y-89145833D01*
X128086011Y-89717261D02*
X127990773Y-89764880D01*
X127752678Y-89764880D01*
X127657440Y-89717261D01*
X127609821Y-89622023D01*
X127609821Y-89526785D01*
X127657440Y-89431547D01*
X127752678Y-89383928D01*
X127990773Y-89383928D01*
X128086011Y-89336309D01*
X128514583Y-89717261D02*
X128609821Y-89764880D01*
X128800297Y-89764880D01*
X128895535Y-89717261D01*
X128943154Y-89622023D01*
X128943154Y-89574404D01*
X128895535Y-89479166D01*
X128800297Y-89431547D01*
X128657440Y-89431547D01*
X128562202Y-89383928D01*
X128514583Y-89288690D01*
X128514583Y-89241071D01*
X128562202Y-89145833D01*
X128657440Y-89098214D01*
X128800297Y-89098214D01*
X128895535Y-89145833D01*
X129752678Y-89717261D02*
X129657440Y-89764880D01*
X129466964Y-89764880D01*
X129371726Y-89717261D01*
X129324107Y-89622023D01*
X129324107Y-89241071D01*
X129371726Y-89145833D01*
X129466964Y-89098214D01*
X129657440Y-89098214D01*
X129752678Y-89145833D01*
X129800297Y-89241071D01*
X129800297Y-89336309D01*
X129324107Y-89431547D01*
X130657440Y-89764880D02*
X130657440Y-88764880D01*
X130657440Y-89717261D02*
X130562202Y-89764880D01*
X130371726Y-89764880D01*
X130276488Y-89717261D01*
X130228869Y-89669642D01*
X130181250Y-89574404D01*
X130181250Y-89288690D01*
X130228869Y-89193452D01*
X130276488Y-89145833D01*
X130371726Y-89098214D01*
X130562202Y-89098214D01*
X130657440Y-89145833D01*
X132324107Y-89098214D02*
X132324107Y-89764880D01*
X131895535Y-89098214D02*
X131895535Y-89622023D01*
X131943154Y-89717261D01*
X132038392Y-89764880D01*
X132181250Y-89764880D01*
X132276488Y-89717261D01*
X132324107Y-89669642D01*
X132800297Y-89098214D02*
X132800297Y-89764880D01*
X132800297Y-89193452D02*
X132847916Y-89145833D01*
X132943154Y-89098214D01*
X133086011Y-89098214D01*
X133181250Y-89145833D01*
X133228869Y-89241071D01*
X133228869Y-89764880D01*
X134133630Y-89764880D02*
X134133630Y-88764880D01*
X134133630Y-89717261D02*
X134038392Y-89764880D01*
X133847916Y-89764880D01*
X133752678Y-89717261D01*
X133705059Y-89669642D01*
X133657440Y-89574404D01*
X133657440Y-89288690D01*
X133705059Y-89193452D01*
X133752678Y-89145833D01*
X133847916Y-89098214D01*
X134038392Y-89098214D01*
X134133630Y-89145833D01*
X134990773Y-89717261D02*
X134895535Y-89764880D01*
X134705059Y-89764880D01*
X134609821Y-89717261D01*
X134562202Y-89622023D01*
X134562202Y-89241071D01*
X134609821Y-89145833D01*
X134705059Y-89098214D01*
X134895535Y-89098214D01*
X134990773Y-89145833D01*
X135038392Y-89241071D01*
X135038392Y-89336309D01*
X134562202Y-89431547D01*
X135466964Y-89764880D02*
X135466964Y-89098214D01*
X135466964Y-89288690D02*
X135514583Y-89193452D01*
X135562202Y-89145833D01*
X135657440Y-89098214D01*
X135752678Y-89098214D01*
X137419345Y-89669642D02*
X137371726Y-89717261D01*
X137228869Y-89764880D01*
X137133630Y-89764880D01*
X136990773Y-89717261D01*
X136895535Y-89622023D01*
X136847916Y-89526785D01*
X136800297Y-89336309D01*
X136800297Y-89193452D01*
X136847916Y-89002976D01*
X136895535Y-88907738D01*
X136990773Y-88812500D01*
X137133630Y-88764880D01*
X137228869Y-88764880D01*
X137371726Y-88812500D01*
X137419345Y-88860119D01*
X137847916Y-89241071D02*
X138181250Y-89241071D01*
X138324107Y-89764880D02*
X137847916Y-89764880D01*
X137847916Y-88764880D01*
X138324107Y-88764880D01*
X139324107Y-89764880D02*
X138990773Y-89288690D01*
X138752678Y-89764880D02*
X138752678Y-88764880D01*
X139133630Y-88764880D01*
X139228869Y-88812500D01*
X139276488Y-88860119D01*
X139324107Y-88955357D01*
X139324107Y-89098214D01*
X139276488Y-89193452D01*
X139228869Y-89241071D01*
X139133630Y-89288690D01*
X138752678Y-89288690D01*
X139752678Y-89764880D02*
X139752678Y-88764880D01*
X140324107Y-89764880D01*
X140324107Y-88764880D01*
X141752678Y-88764880D02*
X141943154Y-88764880D01*
X142038392Y-88812500D01*
X142133630Y-88907738D01*
X142181250Y-89098214D01*
X142181250Y-89431547D01*
X142133630Y-89622023D01*
X142038392Y-89717261D01*
X141943154Y-89764880D01*
X141752678Y-89764880D01*
X141657440Y-89717261D01*
X141562202Y-89622023D01*
X141514583Y-89431547D01*
X141514583Y-89098214D01*
X141562202Y-88907738D01*
X141657440Y-88812500D01*
X141752678Y-88764880D01*
X142609821Y-89764880D02*
X142609821Y-88764880D01*
X142609821Y-89241071D02*
X143181250Y-89241071D01*
X143181250Y-89764880D02*
X143181250Y-88764880D01*
X144133630Y-89764880D02*
X143657440Y-89764880D01*
X143657440Y-88764880D01*
X145133630Y-89098214D02*
X145371726Y-89764880D01*
X145609821Y-89098214D01*
X146514583Y-89764880D02*
X145943154Y-89764880D01*
X146228869Y-89764880D02*
X146228869Y-88764880D01*
X146133630Y-88907738D01*
X146038392Y-89002976D01*
X145943154Y-89050595D01*
X146943154Y-89669642D02*
X146990773Y-89717261D01*
X146943154Y-89764880D01*
X146895535Y-89717261D01*
X146943154Y-89669642D01*
X146943154Y-89764880D01*
X147371726Y-88860119D02*
X147419345Y-88812500D01*
X147514583Y-88764880D01*
X147752678Y-88764880D01*
X147847916Y-88812500D01*
X147895535Y-88860119D01*
X147943154Y-88955357D01*
X147943154Y-89050595D01*
X147895535Y-89193452D01*
X147324107Y-89764880D01*
X147943154Y-89764880D01*
X124296726Y-92192261D02*
X124439583Y-92239880D01*
X124677678Y-92239880D01*
X124772916Y-92192261D01*
X124820535Y-92144642D01*
X124868154Y-92049404D01*
X124868154Y-91954166D01*
X124820535Y-91858928D01*
X124772916Y-91811309D01*
X124677678Y-91763690D01*
X124487202Y-91716071D01*
X124391964Y-91668452D01*
X124344345Y-91620833D01*
X124296726Y-91525595D01*
X124296726Y-91430357D01*
X124344345Y-91335119D01*
X124391964Y-91287500D01*
X124487202Y-91239880D01*
X124725297Y-91239880D01*
X124868154Y-91287500D01*
X125439583Y-92239880D02*
X125344345Y-92192261D01*
X125296726Y-92144642D01*
X125249107Y-92049404D01*
X125249107Y-91763690D01*
X125296726Y-91668452D01*
X125344345Y-91620833D01*
X125439583Y-91573214D01*
X125582440Y-91573214D01*
X125677678Y-91620833D01*
X125725297Y-91668452D01*
X125772916Y-91763690D01*
X125772916Y-92049404D01*
X125725297Y-92144642D01*
X125677678Y-92192261D01*
X125582440Y-92239880D01*
X125439583Y-92239880D01*
X126630059Y-91573214D02*
X126630059Y-92239880D01*
X126201488Y-91573214D02*
X126201488Y-92097023D01*
X126249107Y-92192261D01*
X126344345Y-92239880D01*
X126487202Y-92239880D01*
X126582440Y-92192261D01*
X126630059Y-92144642D01*
X127106250Y-92239880D02*
X127106250Y-91573214D01*
X127106250Y-91763690D02*
X127153869Y-91668452D01*
X127201488Y-91620833D01*
X127296726Y-91573214D01*
X127391964Y-91573214D01*
X128153869Y-92192261D02*
X128058630Y-92239880D01*
X127868154Y-92239880D01*
X127772916Y-92192261D01*
X127725297Y-92144642D01*
X127677678Y-92049404D01*
X127677678Y-91763690D01*
X127725297Y-91668452D01*
X127772916Y-91620833D01*
X127868154Y-91573214D01*
X128058630Y-91573214D01*
X128153869Y-91620833D01*
X128963392Y-92192261D02*
X128868154Y-92239880D01*
X128677678Y-92239880D01*
X128582440Y-92192261D01*
X128534821Y-92097023D01*
X128534821Y-91716071D01*
X128582440Y-91620833D01*
X128677678Y-91573214D01*
X128868154Y-91573214D01*
X128963392Y-91620833D01*
X129011011Y-91716071D01*
X129011011Y-91811309D01*
X128534821Y-91906547D01*
X129439583Y-92144642D02*
X129487202Y-92192261D01*
X129439583Y-92239880D01*
X129391964Y-92192261D01*
X129439583Y-92144642D01*
X129439583Y-92239880D01*
X129439583Y-91620833D02*
X129487202Y-91668452D01*
X129439583Y-91716071D01*
X129391964Y-91668452D01*
X129439583Y-91620833D01*
X129439583Y-91716071D01*
X124344345Y-93864880D02*
X124344345Y-92864880D01*
X124772916Y-93864880D02*
X124772916Y-93341071D01*
X124725297Y-93245833D01*
X124630059Y-93198214D01*
X124487202Y-93198214D01*
X124391964Y-93245833D01*
X124344345Y-93293452D01*
X125106250Y-93198214D02*
X125487202Y-93198214D01*
X125249107Y-92864880D02*
X125249107Y-93722023D01*
X125296726Y-93817261D01*
X125391964Y-93864880D01*
X125487202Y-93864880D01*
X125677678Y-93198214D02*
X126058630Y-93198214D01*
X125820535Y-92864880D02*
X125820535Y-93722023D01*
X125868154Y-93817261D01*
X125963392Y-93864880D01*
X126058630Y-93864880D01*
X126391964Y-93198214D02*
X126391964Y-94198214D01*
X126391964Y-93245833D02*
X126487202Y-93198214D01*
X126677678Y-93198214D01*
X126772916Y-93245833D01*
X126820535Y-93293452D01*
X126868154Y-93388690D01*
X126868154Y-93674404D01*
X126820535Y-93769642D01*
X126772916Y-93817261D01*
X126677678Y-93864880D01*
X126487202Y-93864880D01*
X126391964Y-93817261D01*
X127249107Y-93817261D02*
X127344345Y-93864880D01*
X127534821Y-93864880D01*
X127630059Y-93817261D01*
X127677678Y-93722023D01*
X127677678Y-93674404D01*
X127630059Y-93579166D01*
X127534821Y-93531547D01*
X127391964Y-93531547D01*
X127296726Y-93483928D01*
X127249107Y-93388690D01*
X127249107Y-93341071D01*
X127296726Y-93245833D01*
X127391964Y-93198214D01*
X127534821Y-93198214D01*
X127630059Y-93245833D01*
X128106250Y-93769642D02*
X128153869Y-93817261D01*
X128106250Y-93864880D01*
X128058630Y-93817261D01*
X128106250Y-93769642D01*
X128106250Y-93864880D01*
X128106250Y-93245833D02*
X128153869Y-93293452D01*
X128106250Y-93341071D01*
X128058630Y-93293452D01*
X128106250Y-93245833D01*
X128106250Y-93341071D01*
X129296726Y-92817261D02*
X128439583Y-94102976D01*
X130344345Y-92817261D02*
X129487202Y-94102976D01*
X130820535Y-93864880D02*
X130725297Y-93817261D01*
X130677678Y-93769642D01*
X130630059Y-93674404D01*
X130630059Y-93388690D01*
X130677678Y-93293452D01*
X130725297Y-93245833D01*
X130820535Y-93198214D01*
X130963392Y-93198214D01*
X131058630Y-93245833D01*
X131106250Y-93293452D01*
X131153869Y-93388690D01*
X131153869Y-93674404D01*
X131106250Y-93769642D01*
X131058630Y-93817261D01*
X130963392Y-93864880D01*
X130820535Y-93864880D01*
X131582440Y-93198214D02*
X131582440Y-94198214D01*
X131582440Y-93245833D02*
X131677678Y-93198214D01*
X131868154Y-93198214D01*
X131963392Y-93245833D01*
X132011011Y-93293452D01*
X132058630Y-93388690D01*
X132058630Y-93674404D01*
X132011011Y-93769642D01*
X131963392Y-93817261D01*
X131868154Y-93864880D01*
X131677678Y-93864880D01*
X131582440Y-93817261D01*
X132868154Y-93817261D02*
X132772916Y-93864880D01*
X132582440Y-93864880D01*
X132487202Y-93817261D01*
X132439583Y-93722023D01*
X132439583Y-93341071D01*
X132487202Y-93245833D01*
X132582440Y-93198214D01*
X132772916Y-93198214D01*
X132868154Y-93245833D01*
X132915773Y-93341071D01*
X132915773Y-93436309D01*
X132439583Y-93531547D01*
X133344345Y-93198214D02*
X133344345Y-93864880D01*
X133344345Y-93293452D02*
X133391964Y-93245833D01*
X133487202Y-93198214D01*
X133630059Y-93198214D01*
X133725297Y-93245833D01*
X133772916Y-93341071D01*
X133772916Y-93864880D01*
X134249107Y-93483928D02*
X135011011Y-93483928D01*
X135630059Y-93864880D02*
X135534821Y-93817261D01*
X135487202Y-93722023D01*
X135487202Y-92864880D01*
X136439583Y-93864880D02*
X136439583Y-93341071D01*
X136391964Y-93245833D01*
X136296726Y-93198214D01*
X136106250Y-93198214D01*
X136011011Y-93245833D01*
X136439583Y-93817261D02*
X136344345Y-93864880D01*
X136106250Y-93864880D01*
X136011011Y-93817261D01*
X135963392Y-93722023D01*
X135963392Y-93626785D01*
X136011011Y-93531547D01*
X136106250Y-93483928D01*
X136344345Y-93483928D01*
X136439583Y-93436309D01*
X136915773Y-93864880D02*
X136915773Y-92864880D01*
X136915773Y-93245833D02*
X137011011Y-93198214D01*
X137201488Y-93198214D01*
X137296726Y-93245833D01*
X137344345Y-93293452D01*
X137391964Y-93388690D01*
X137391964Y-93674404D01*
X137344345Y-93769642D01*
X137296726Y-93817261D01*
X137201488Y-93864880D01*
X137011011Y-93864880D01*
X136915773Y-93817261D01*
X137725297Y-93198214D02*
X137915773Y-93864880D01*
X138106250Y-93388690D01*
X138296726Y-93864880D01*
X138487202Y-93198214D01*
X139296726Y-93864880D02*
X139296726Y-93341071D01*
X139249107Y-93245833D01*
X139153869Y-93198214D01*
X138963392Y-93198214D01*
X138868154Y-93245833D01*
X139296726Y-93817261D02*
X139201488Y-93864880D01*
X138963392Y-93864880D01*
X138868154Y-93817261D01*
X138820535Y-93722023D01*
X138820535Y-93626785D01*
X138868154Y-93531547D01*
X138963392Y-93483928D01*
X139201488Y-93483928D01*
X139296726Y-93436309D01*
X139772916Y-93864880D02*
X139772916Y-93198214D01*
X139772916Y-93388690D02*
X139820535Y-93293452D01*
X139868154Y-93245833D01*
X139963392Y-93198214D01*
X140058630Y-93198214D01*
X140772916Y-93817261D02*
X140677678Y-93864880D01*
X140487202Y-93864880D01*
X140391964Y-93817261D01*
X140344345Y-93722023D01*
X140344345Y-93341071D01*
X140391964Y-93245833D01*
X140487202Y-93198214D01*
X140677678Y-93198214D01*
X140772916Y-93245833D01*
X140820535Y-93341071D01*
X140820535Y-93436309D01*
X140344345Y-93531547D01*
X141249107Y-93769642D02*
X141296726Y-93817261D01*
X141249107Y-93864880D01*
X141201488Y-93817261D01*
X141249107Y-93769642D01*
X141249107Y-93864880D01*
X141725297Y-93198214D02*
X141725297Y-93864880D01*
X141725297Y-93293452D02*
X141772916Y-93245833D01*
X141868154Y-93198214D01*
X142011011Y-93198214D01*
X142106250Y-93245833D01*
X142153869Y-93341071D01*
X142153869Y-93864880D01*
X143011011Y-93817261D02*
X142915773Y-93864880D01*
X142725297Y-93864880D01*
X142630059Y-93817261D01*
X142582440Y-93722023D01*
X142582440Y-93341071D01*
X142630059Y-93245833D01*
X142725297Y-93198214D01*
X142915773Y-93198214D01*
X143011011Y-93245833D01*
X143058630Y-93341071D01*
X143058630Y-93436309D01*
X142582440Y-93531547D01*
X143344345Y-93198214D02*
X143725297Y-93198214D01*
X143487202Y-92864880D02*
X143487202Y-93722023D01*
X143534821Y-93817261D01*
X143630059Y-93864880D01*
X143725297Y-93864880D01*
X144772916Y-92817261D02*
X143915773Y-94102976D01*
X145106250Y-93198214D02*
X145106250Y-94198214D01*
X145106250Y-93245833D02*
X145201488Y-93198214D01*
X145391964Y-93198214D01*
X145487202Y-93245833D01*
X145534821Y-93293452D01*
X145582440Y-93388690D01*
X145582440Y-93674404D01*
X145534821Y-93769642D01*
X145487202Y-93817261D01*
X145391964Y-93864880D01*
X145201488Y-93864880D01*
X145106250Y-93817261D01*
X146011011Y-93864880D02*
X146011011Y-93198214D01*
X146011011Y-93388690D02*
X146058630Y-93293452D01*
X146106250Y-93245833D01*
X146201488Y-93198214D01*
X146296726Y-93198214D01*
X146772916Y-93864880D02*
X146677678Y-93817261D01*
X146630059Y-93769642D01*
X146582440Y-93674404D01*
X146582440Y-93388690D01*
X146630059Y-93293452D01*
X146677678Y-93245833D01*
X146772916Y-93198214D01*
X146915773Y-93198214D01*
X147011011Y-93245833D01*
X147058630Y-93293452D01*
X147106250Y-93388690D01*
X147106250Y-93674404D01*
X147058630Y-93769642D01*
X147011011Y-93817261D01*
X146915773Y-93864880D01*
X146772916Y-93864880D01*
X147534821Y-93198214D02*
X147534821Y-94055357D01*
X147487202Y-94150595D01*
X147391964Y-94198214D01*
X147344345Y-94198214D01*
X147534821Y-92864880D02*
X147487202Y-92912500D01*
X147534821Y-92960119D01*
X147582440Y-92912500D01*
X147534821Y-92864880D01*
X147534821Y-92960119D01*
X148391964Y-93817261D02*
X148296726Y-93864880D01*
X148106250Y-93864880D01*
X148011011Y-93817261D01*
X147963392Y-93722023D01*
X147963392Y-93341071D01*
X148011011Y-93245833D01*
X148106250Y-93198214D01*
X148296726Y-93198214D01*
X148391964Y-93245833D01*
X148439583Y-93341071D01*
X148439583Y-93436309D01*
X147963392Y-93531547D01*
X149296726Y-93817261D02*
X149201488Y-93864880D01*
X149011011Y-93864880D01*
X148915773Y-93817261D01*
X148868154Y-93769642D01*
X148820535Y-93674404D01*
X148820535Y-93388690D01*
X148868154Y-93293452D01*
X148915773Y-93245833D01*
X149011011Y-93198214D01*
X149201488Y-93198214D01*
X149296726Y-93245833D01*
X149582440Y-93198214D02*
X149963392Y-93198214D01*
X149725297Y-92864880D02*
X149725297Y-93722023D01*
X149772916Y-93817261D01*
X149868154Y-93864880D01*
X149963392Y-93864880D01*
X150249107Y-93817261D02*
X150344345Y-93864880D01*
X150534821Y-93864880D01*
X150630059Y-93817261D01*
X150677678Y-93722023D01*
X150677678Y-93674404D01*
X150630059Y-93579166D01*
X150534821Y-93531547D01*
X150391964Y-93531547D01*
X150296726Y-93483928D01*
X150249107Y-93388690D01*
X150249107Y-93341071D01*
X150296726Y-93245833D01*
X150391964Y-93198214D01*
X150534821Y-93198214D01*
X150630059Y-93245833D01*
X151820535Y-92817261D02*
X150963392Y-94102976D01*
X152296726Y-93864880D02*
X152201488Y-93817261D01*
X152153869Y-93769642D01*
X152106250Y-93674404D01*
X152106250Y-93388690D01*
X152153869Y-93293452D01*
X152201488Y-93245833D01*
X152296726Y-93198214D01*
X152439583Y-93198214D01*
X152534821Y-93245833D01*
X152582440Y-93293452D01*
X152630059Y-93388690D01*
X152630059Y-93674404D01*
X152582440Y-93769642D01*
X152534821Y-93817261D01*
X152439583Y-93864880D01*
X152296726Y-93864880D01*
X153058630Y-93198214D02*
X153058630Y-94198214D01*
X153058630Y-93245833D02*
X153153869Y-93198214D01*
X153344345Y-93198214D01*
X153439583Y-93245833D01*
X153487202Y-93293452D01*
X153534821Y-93388690D01*
X153534821Y-93674404D01*
X153487202Y-93769642D01*
X153439583Y-93817261D01*
X153344345Y-93864880D01*
X153153869Y-93864880D01*
X153058630Y-93817261D01*
X154344345Y-93817261D02*
X154249107Y-93864880D01*
X154058630Y-93864880D01*
X153963392Y-93817261D01*
X153915773Y-93722023D01*
X153915773Y-93341071D01*
X153963392Y-93245833D01*
X154058630Y-93198214D01*
X154249107Y-93198214D01*
X154344345Y-93245833D01*
X154391964Y-93341071D01*
X154391964Y-93436309D01*
X153915773Y-93531547D01*
X154820535Y-93198214D02*
X154820535Y-93864880D01*
X154820535Y-93293452D02*
X154868154Y-93245833D01*
X154963392Y-93198214D01*
X155106250Y-93198214D01*
X155201488Y-93245833D01*
X155249107Y-93341071D01*
X155249107Y-93864880D01*
X155677678Y-93817261D02*
X155772916Y-93864880D01*
X155963392Y-93864880D01*
X156058630Y-93817261D01*
X156106250Y-93722023D01*
X156106250Y-93674404D01*
X156058630Y-93579166D01*
X155963392Y-93531547D01*
X155820535Y-93531547D01*
X155725297Y-93483928D01*
X155677678Y-93388690D01*
X155677678Y-93341071D01*
X155725297Y-93245833D01*
X155820535Y-93198214D01*
X155963392Y-93198214D01*
X156058630Y-93245833D01*
X156534821Y-93198214D02*
X156534821Y-94198214D01*
X156534821Y-93245833D02*
X156630059Y-93198214D01*
X156820535Y-93198214D01*
X156915773Y-93245833D01*
X156963392Y-93293452D01*
X157011011Y-93388690D01*
X157011011Y-93674404D01*
X156963392Y-93769642D01*
X156915773Y-93817261D01*
X156820535Y-93864880D01*
X156630059Y-93864880D01*
X156534821Y-93817261D01*
X157439583Y-93864880D02*
X157439583Y-93198214D01*
X157439583Y-93388690D02*
X157487202Y-93293452D01*
X157534821Y-93245833D01*
X157630059Y-93198214D01*
X157725297Y-93198214D01*
X158058630Y-93864880D02*
X158058630Y-93198214D01*
X158058630Y-92864880D02*
X158011011Y-92912500D01*
X158058630Y-92960119D01*
X158106250Y-92912500D01*
X158058630Y-92864880D01*
X158058630Y-92960119D01*
X158391964Y-93198214D02*
X158772916Y-93198214D01*
X158534821Y-92864880D02*
X158534821Y-93722023D01*
X158582440Y-93817261D01*
X158677678Y-93864880D01*
X158772916Y-93864880D01*
X159011011Y-93198214D02*
X159534821Y-93198214D01*
X159011011Y-93864880D01*
X159534821Y-93864880D01*
X160296726Y-93817261D02*
X160201488Y-93864880D01*
X160011011Y-93864880D01*
X159915773Y-93817261D01*
X159868154Y-93722023D01*
X159868154Y-93341071D01*
X159915773Y-93245833D01*
X160011011Y-93198214D01*
X160201488Y-93198214D01*
X160296726Y-93245833D01*
X160344345Y-93341071D01*
X160344345Y-93436309D01*
X159868154Y-93531547D01*
X160772916Y-93864880D02*
X160772916Y-93198214D01*
X160772916Y-93388690D02*
X160820535Y-93293452D01*
X160868154Y-93245833D01*
X160963392Y-93198214D01*
X161058630Y-93198214D01*
X162106250Y-92817261D02*
X161249107Y-94102976D01*
D11*
X119417857Y-77182142D02*
X119989285Y-77182142D01*
X120275000Y-77325000D01*
X120560714Y-77610714D01*
X120703571Y-78182142D01*
X120703571Y-79182142D01*
X120560714Y-79753571D01*
X120275000Y-80039285D01*
X119989285Y-80182142D01*
X119417857Y-80182142D01*
X119132142Y-80039285D01*
X118846428Y-79753571D01*
X118703571Y-79182142D01*
X118703571Y-78182142D01*
X118846428Y-77610714D01*
X119132142Y-77325000D01*
X119417857Y-77182142D01*
X121989285Y-78182142D02*
X121989285Y-81182142D01*
X121989285Y-78325000D02*
X122275000Y-78182142D01*
X122846428Y-78182142D01*
X123132142Y-78325000D01*
X123275000Y-78467857D01*
X123417857Y-78753571D01*
X123417857Y-79610714D01*
X123275000Y-79896428D01*
X123132142Y-80039285D01*
X122846428Y-80182142D01*
X122275000Y-80182142D01*
X121989285Y-80039285D01*
X125846428Y-80039285D02*
X125560714Y-80182142D01*
X124989285Y-80182142D01*
X124703571Y-80039285D01*
X124560714Y-79753571D01*
X124560714Y-78610714D01*
X124703571Y-78325000D01*
X124989285Y-78182142D01*
X125560714Y-78182142D01*
X125846428Y-78325000D01*
X125989285Y-78610714D01*
X125989285Y-78896428D01*
X124560714Y-79182142D01*
X127275000Y-78182142D02*
X127275000Y-80182142D01*
X127275000Y-78467857D02*
X127417857Y-78325000D01*
X127703571Y-78182142D01*
X128132142Y-78182142D01*
X128417857Y-78325000D01*
X128560714Y-78610714D01*
X128560714Y-80182142D01*
X129846428Y-80039285D02*
X130275000Y-80182142D01*
X130989285Y-80182142D01*
X131275000Y-80039285D01*
X131417857Y-79896428D01*
X131560714Y-79610714D01*
X131560714Y-79325000D01*
X131417857Y-79039285D01*
X131275000Y-78896428D01*
X130989285Y-78753571D01*
X130417857Y-78610714D01*
X130132142Y-78467857D01*
X129989285Y-78325000D01*
X129846428Y-78039285D01*
X129846428Y-77753571D01*
X129989285Y-77467857D01*
X130132142Y-77325000D01*
X130417857Y-77182142D01*
X131132142Y-77182142D01*
X131560714Y-77325000D01*
X132846428Y-78182142D02*
X132846428Y-81182142D01*
X132846428Y-78325000D02*
X133132142Y-78182142D01*
X133703571Y-78182142D01*
X133989285Y-78325000D01*
X134132142Y-78467857D01*
X134275000Y-78753571D01*
X134275000Y-79610714D01*
X134132142Y-79896428D01*
X133989285Y-80039285D01*
X133703571Y-80182142D01*
X133132142Y-80182142D01*
X132846428Y-80039285D01*
X135560714Y-80182142D02*
X135560714Y-78182142D01*
X135560714Y-78753571D02*
X135703571Y-78467857D01*
X135846428Y-78325000D01*
X136132142Y-78182142D01*
X136417857Y-78182142D01*
X137417857Y-80182142D02*
X137417857Y-78182142D01*
X137417857Y-77182142D02*
X137275000Y-77325000D01*
X137417857Y-77467857D01*
X137560714Y-77325000D01*
X137417857Y-77182142D01*
X137417857Y-77467857D01*
X138417857Y-78182142D02*
X139560714Y-78182142D01*
X138846428Y-77182142D02*
X138846428Y-79753571D01*
X138989285Y-80039285D01*
X139275000Y-80182142D01*
X139560714Y-80182142D01*
X140275000Y-78182142D02*
X141846428Y-78182142D01*
X140275000Y-80182142D01*
X141846428Y-80182142D01*
X144132142Y-80039285D02*
X143846428Y-80182142D01*
X143275000Y-80182142D01*
X142989285Y-80039285D01*
X142846428Y-79753571D01*
X142846428Y-78610714D01*
X142989285Y-78325000D01*
X143275000Y-78182142D01*
X143846428Y-78182142D01*
X144132142Y-78325000D01*
X144275000Y-78610714D01*
X144275000Y-78896428D01*
X142846428Y-79182142D01*
X145560714Y-80182142D02*
X145560714Y-78182142D01*
X145560714Y-78753571D02*
X145703571Y-78467857D01*
X145846428Y-78325000D01*
X146132142Y-78182142D01*
X146417857Y-78182142D01*
X149417857Y-78182142D02*
X150132142Y-80182142D01*
X150846428Y-78182142D01*
X153560714Y-80182142D02*
X151846428Y-80182142D01*
X152703571Y-80182142D02*
X152703571Y-77182142D01*
X152417857Y-77610714D01*
X152132142Y-77896428D01*
X151846428Y-78039285D01*
X154846428Y-79896428D02*
X154989285Y-80039285D01*
X154846428Y-80182142D01*
X154703571Y-80039285D01*
X154846428Y-79896428D01*
X154846428Y-80182142D01*
X156846428Y-77182142D02*
X157132142Y-77182142D01*
X157417857Y-77325000D01*
X157560714Y-77467857D01*
X157703571Y-77753571D01*
X157846428Y-78325000D01*
X157846428Y-79039285D01*
X157703571Y-79610714D01*
X157560714Y-79896428D01*
X157417857Y-80039285D01*
X157132142Y-80182142D01*
X156846428Y-80182142D01*
X156560714Y-80039285D01*
X156417857Y-79896428D01*
X156275000Y-79610714D01*
X156132142Y-79039285D01*
X156132142Y-78325000D01*
X156275000Y-77753571D01*
X156417857Y-77467857D01*
X156560714Y-77325000D01*
X156846428Y-77182142D01*
D12*
X170728571Y-129457142D02*
X171871428Y-129457142D01*
X171300000Y-130028571D02*
X171300000Y-128885714D01*
X171282142Y-125428571D02*
X171282142Y-126571428D01*
D13*
G04 #@! TO.C,*
X147900000Y-103420000D02*
X147900000Y-106580000D01*
X148820000Y-102500000D02*
G75*
G03X148820000Y-102500000I-920000J0D01*
G01*
X152500000Y-103420000D02*
X152500000Y-106580000D01*
X153420000Y-102500000D02*
G75*
G03X153420000Y-102500000I-920000J0D01*
G01*
X157075000Y-106655000D02*
X157075000Y-103495000D01*
X157995000Y-107575000D02*
G75*
G03X157995000Y-107575000I-920000J0D01*
G01*
X152475000Y-114245000D02*
X152475000Y-117405000D01*
X153395000Y-113325000D02*
G75*
G03X153395000Y-113325000I-920000J0D01*
G01*
X147900000Y-117455000D02*
X147900000Y-114295000D01*
X148820000Y-118375000D02*
G75*
G03X148820000Y-118375000I-920000J0D01*
G01*
X123525000Y-133075000D02*
X123525000Y-131775000D01*
X124125000Y-132425000D02*
X122925000Y-132425000D01*
X116094000Y-132671000D02*
X116094000Y-132179000D01*
X116134000Y-133023000D02*
X116134000Y-131827000D01*
X116174000Y-133239000D02*
X116174000Y-131611000D01*
X116214000Y-133408000D02*
X116214000Y-131442000D01*
X116254000Y-133552000D02*
X116254000Y-131298000D01*
X116294000Y-133679000D02*
X116294000Y-131171000D01*
X116334000Y-133794000D02*
X116334000Y-131056000D01*
X116374000Y-133898000D02*
X116374000Y-130952000D01*
X116414000Y-133995000D02*
X116414000Y-130855000D01*
X116454000Y-134085000D02*
X116454000Y-130765000D01*
X116494000Y-134170000D02*
X116494000Y-130680000D01*
X116534000Y-134251000D02*
X116534000Y-130599000D01*
X116574000Y-134327000D02*
X116574000Y-130523000D01*
X116614000Y-134399000D02*
X116614000Y-130451000D01*
X116654000Y-134468000D02*
X116654000Y-130382000D01*
X116694000Y-134534000D02*
X116694000Y-130316000D01*
X116734000Y-134598000D02*
X116734000Y-130252000D01*
X116774000Y-134659000D02*
X116774000Y-130191000D01*
X116814000Y-134718000D02*
X116814000Y-130132000D01*
X116854000Y-134774000D02*
X116854000Y-130076000D01*
X116894000Y-134829000D02*
X116894000Y-130021000D01*
X116934000Y-134882000D02*
X116934000Y-129968000D01*
X116974000Y-134933000D02*
X116974000Y-129917000D01*
X117014000Y-134982000D02*
X117014000Y-129868000D01*
X117054000Y-135030000D02*
X117054000Y-129820000D01*
X117094000Y-135077000D02*
X117094000Y-129773000D01*
X117134000Y-135122000D02*
X117134000Y-129728000D01*
X117174000Y-135165000D02*
X117174000Y-129685000D01*
X117214000Y-135208000D02*
X117214000Y-129642000D01*
X117254000Y-135249000D02*
X117254000Y-129601000D01*
X117294000Y-135290000D02*
X117294000Y-129560000D01*
X117334000Y-135329000D02*
X117334000Y-129521000D01*
X117374000Y-135367000D02*
X117374000Y-129483000D01*
X117414000Y-135404000D02*
X117414000Y-129446000D01*
X117454000Y-131445000D02*
X117454000Y-129410000D01*
X117454000Y-135440000D02*
X117454000Y-133405000D01*
X117494000Y-131445000D02*
X117494000Y-129375000D01*
X117494000Y-135475000D02*
X117494000Y-133405000D01*
X117534000Y-131445000D02*
X117534000Y-129341000D01*
X117534000Y-135509000D02*
X117534000Y-133405000D01*
X117574000Y-131445000D02*
X117574000Y-129307000D01*
X117574000Y-135543000D02*
X117574000Y-133405000D01*
X117614000Y-131445000D02*
X117614000Y-129275000D01*
X117614000Y-135575000D02*
X117614000Y-133405000D01*
X117654000Y-131445000D02*
X117654000Y-129243000D01*
X117654000Y-135607000D02*
X117654000Y-133405000D01*
X117694000Y-131445000D02*
X117694000Y-129212000D01*
X117694000Y-135638000D02*
X117694000Y-133405000D01*
X117734000Y-131445000D02*
X117734000Y-129182000D01*
X117734000Y-135668000D02*
X117734000Y-133405000D01*
X117774000Y-131445000D02*
X117774000Y-129153000D01*
X117774000Y-135697000D02*
X117774000Y-133405000D01*
X117814000Y-131445000D02*
X117814000Y-129124000D01*
X117814000Y-135726000D02*
X117814000Y-133405000D01*
X117854000Y-131445000D02*
X117854000Y-129096000D01*
X117854000Y-135754000D02*
X117854000Y-133405000D01*
X117894000Y-131445000D02*
X117894000Y-129069000D01*
X117894000Y-135781000D02*
X117894000Y-133405000D01*
X117934000Y-131445000D02*
X117934000Y-129042000D01*
X117934000Y-135808000D02*
X117934000Y-133405000D01*
X117974000Y-131445000D02*
X117974000Y-129017000D01*
X117974000Y-135833000D02*
X117974000Y-133405000D01*
X118014000Y-131445000D02*
X118014000Y-128991000D01*
X118014000Y-135859000D02*
X118014000Y-133405000D01*
X118054000Y-131445000D02*
X118054000Y-128967000D01*
X118054000Y-135883000D02*
X118054000Y-133405000D01*
X118094000Y-131445000D02*
X118094000Y-128943000D01*
X118094000Y-135907000D02*
X118094000Y-133405000D01*
X118134000Y-131445000D02*
X118134000Y-128920000D01*
X118134000Y-135930000D02*
X118134000Y-133405000D01*
X118174000Y-131445000D02*
X118174000Y-128897000D01*
X118174000Y-135953000D02*
X118174000Y-133405000D01*
X118214000Y-131445000D02*
X118214000Y-128875000D01*
X118214000Y-135975000D02*
X118214000Y-133405000D01*
X118254000Y-131445000D02*
X118254000Y-128853000D01*
X118254000Y-135997000D02*
X118254000Y-133405000D01*
X118294000Y-131445000D02*
X118294000Y-128832000D01*
X118294000Y-136018000D02*
X118294000Y-133405000D01*
X118334000Y-131445000D02*
X118334000Y-128812000D01*
X118334000Y-136038000D02*
X118334000Y-133405000D01*
X118374000Y-131445000D02*
X118374000Y-128792000D01*
X118374000Y-136058000D02*
X118374000Y-133405000D01*
X118414000Y-131445000D02*
X118414000Y-128773000D01*
X118414000Y-136077000D02*
X118414000Y-133405000D01*
X118454000Y-131445000D02*
X118454000Y-128754000D01*
X118454000Y-136096000D02*
X118454000Y-133405000D01*
X118494000Y-131445000D02*
X118494000Y-128735000D01*
X118494000Y-136115000D02*
X118494000Y-133405000D01*
X118534000Y-131445000D02*
X118534000Y-128718000D01*
X118534000Y-136132000D02*
X118534000Y-133405000D01*
X118574000Y-131445000D02*
X118574000Y-128700000D01*
X118574000Y-136150000D02*
X118574000Y-133405000D01*
X118614000Y-131445000D02*
X118614000Y-128684000D01*
X118614000Y-136166000D02*
X118614000Y-133405000D01*
X118654000Y-131445000D02*
X118654000Y-128667000D01*
X118654000Y-136183000D02*
X118654000Y-133405000D01*
X118694000Y-131445000D02*
X118694000Y-128652000D01*
X118694000Y-136198000D02*
X118694000Y-133405000D01*
X118734000Y-131445000D02*
X118734000Y-128636000D01*
X118734000Y-136214000D02*
X118734000Y-133405000D01*
X118774000Y-131445000D02*
X118774000Y-128622000D01*
X118774000Y-136228000D02*
X118774000Y-133405000D01*
X118814000Y-131445000D02*
X118814000Y-128607000D01*
X118814000Y-136243000D02*
X118814000Y-133405000D01*
X118854000Y-131445000D02*
X118854000Y-128593000D01*
X118854000Y-136257000D02*
X118854000Y-133405000D01*
X118894000Y-131445000D02*
X118894000Y-128580000D01*
X118894000Y-136270000D02*
X118894000Y-133405000D01*
X118934000Y-131445000D02*
X118934000Y-128567000D01*
X118934000Y-136283000D02*
X118934000Y-133405000D01*
X118974000Y-131445000D02*
X118974000Y-128555000D01*
X118974000Y-136295000D02*
X118974000Y-133405000D01*
X119014000Y-131445000D02*
X119014000Y-128542000D01*
X119014000Y-136308000D02*
X119014000Y-133405000D01*
X119054000Y-131445000D02*
X119054000Y-128531000D01*
X119054000Y-136319000D02*
X119054000Y-133405000D01*
X119094000Y-131445000D02*
X119094000Y-128520000D01*
X119094000Y-136330000D02*
X119094000Y-133405000D01*
X119134000Y-131445000D02*
X119134000Y-128509000D01*
X119134000Y-136341000D02*
X119134000Y-133405000D01*
X119174000Y-131445000D02*
X119174000Y-128499000D01*
X119174000Y-136351000D02*
X119174000Y-133405000D01*
X119214000Y-131445000D02*
X119214000Y-128489000D01*
X119214000Y-136361000D02*
X119214000Y-133405000D01*
X119254000Y-131445000D02*
X119254000Y-128479000D01*
X119254000Y-136371000D02*
X119254000Y-133405000D01*
X119294000Y-131445000D02*
X119294000Y-128470000D01*
X119294000Y-136380000D02*
X119294000Y-133405000D01*
X119334000Y-131445000D02*
X119334000Y-128462000D01*
X119334000Y-136388000D02*
X119334000Y-133405000D01*
X119374000Y-131445000D02*
X119374000Y-128454000D01*
X119374000Y-136396000D02*
X119374000Y-133405000D01*
X119414000Y-136404000D02*
X119414000Y-128446000D01*
X119454000Y-136412000D02*
X119454000Y-128438000D01*
X119495000Y-136419000D02*
X119495000Y-128431000D01*
X119535000Y-136425000D02*
X119535000Y-128425000D01*
X119575000Y-136431000D02*
X119575000Y-128419000D01*
X119615000Y-136437000D02*
X119615000Y-128413000D01*
X119655000Y-136442000D02*
X119655000Y-128408000D01*
X119695000Y-136447000D02*
X119695000Y-128403000D01*
X119735000Y-136452000D02*
X119735000Y-128398000D01*
X119775000Y-136456000D02*
X119775000Y-128394000D01*
X119815000Y-136460000D02*
X119815000Y-128390000D01*
X119855000Y-136463000D02*
X119855000Y-128387000D01*
X119895000Y-136466000D02*
X119895000Y-128384000D01*
X119935000Y-136468000D02*
X119935000Y-128382000D01*
X119975000Y-136471000D02*
X119975000Y-128379000D01*
X120015000Y-136472000D02*
X120015000Y-128378000D01*
X120055000Y-136474000D02*
X120055000Y-128376000D01*
X120095000Y-136475000D02*
X120095000Y-128375000D01*
X120135000Y-136475000D02*
X120135000Y-128375000D01*
X120175000Y-136475000D02*
X120175000Y-128375000D01*
X124265000Y-132425000D02*
G75*
G03X124265000Y-132425000I-4090000J0D01*
G01*
X162380000Y-130050000D02*
X159220000Y-130050000D01*
X164220000Y-130050000D02*
G75*
G03X164220000Y-130050000I-920000J0D01*
G01*
D14*
X138650000Y-149785000D02*
X151350000Y-149785000D01*
X151350000Y-139785000D02*
X151350000Y-149785000D01*
X138650000Y-139785000D02*
X151350000Y-139785000D01*
X138650000Y-139785000D02*
X138650000Y-149785000D01*
X145000000Y-137350000D02*
X145000000Y-139785000D01*
X149700000Y-137350000D02*
X149700000Y-139785000D01*
X140300000Y-137350000D02*
X140300000Y-139785000D01*
X145000000Y-133550000D02*
X145000000Y-134950000D01*
X149700000Y-133550000D02*
X149700000Y-134950000D01*
X140300000Y-133550000D02*
X140300000Y-134950000D01*
D13*
X170270000Y-131335000D02*
X170270000Y-125255000D01*
X165830000Y-131335000D02*
X165830000Y-125255000D01*
X172170000Y-125255000D02*
X172170000Y-131335000D01*
X172170000Y-125255000D02*
X165830000Y-125255000D01*
X172170000Y-131335000D02*
X165830000Y-131335000D01*
X174475000Y-88110000D02*
X171685000Y-88110000D01*
X174465000Y-76300000D02*
X174475000Y-88110000D01*
X165275000Y-88100000D02*
X165275000Y-86050000D01*
X168065000Y-88110000D02*
X165275000Y-88110000D01*
X165275000Y-82450000D02*
X165275000Y-76300000D01*
X171685000Y-88110000D02*
X171685000Y-89170000D01*
X168065000Y-89170000D02*
X171685000Y-89170000D01*
X168065000Y-88110000D02*
X168065000Y-89170000D01*
X172170000Y-118435000D02*
X165830000Y-118435000D01*
X172170000Y-112355000D02*
X165830000Y-112355000D01*
X172170000Y-112355000D02*
X172170000Y-118435000D01*
X165830000Y-118435000D02*
X165830000Y-112355000D01*
X170270000Y-118435000D02*
X170270000Y-112355000D01*
D14*
X95574160Y-95499100D02*
X94774060Y-84500900D01*
X96374260Y-95499100D02*
X95574160Y-84500900D01*
X97174360Y-95499100D02*
X96374260Y-84500900D01*
X97974460Y-95499100D02*
X97174360Y-84500900D01*
X98774560Y-95499100D02*
X97974460Y-84500900D01*
X99574660Y-95499100D02*
X98774560Y-84500900D01*
X85675780Y-90000000D02*
G75*
G03X85675780Y-90000000I-1000760J0D01*
G01*
X92676020Y-85199400D02*
X80674520Y-85199400D01*
X80674520Y-85199400D02*
X80674520Y-94800600D01*
X80674520Y-94800600D02*
X92676020Y-94800600D01*
X100174100Y-84500900D02*
X92676020Y-84500900D01*
X92676020Y-84500900D02*
X92676020Y-95499100D01*
X92676020Y-95499100D02*
X100174100Y-95499100D01*
X114575900Y-97800340D02*
X114575900Y-82199660D01*
X114575900Y-82199660D02*
X100174100Y-82199660D01*
X100174100Y-82199660D02*
X100174100Y-97800340D01*
X100174100Y-97800340D02*
X114575900Y-97800340D01*
X166700000Y-103050000D02*
G75*
G03X166700000Y-103050000I-3000000J0D01*
G01*
D13*
X170262432Y-145196982D02*
G75*
G02X164738000Y-145198000I-2762432J1171982D01*
G01*
X165202247Y-142096705D02*
G75*
G02X169798000Y-142097000I2297753J-1928295D01*
G01*
X172461000Y-137465000D02*
X172461000Y-141331000D01*
X172461000Y-145720000D02*
X172461000Y-149585000D01*
X162540000Y-137465000D02*
X162540000Y-141331000D01*
X162540000Y-145720000D02*
X162540000Y-149585000D01*
X172461000Y-137465000D02*
X170825000Y-137465000D01*
X169175000Y-137465000D02*
X168325000Y-137465000D01*
X166675000Y-137465000D02*
X165825000Y-137465000D01*
X164175000Y-137465000D02*
X162540000Y-137465000D01*
X172461000Y-149585000D02*
X162540000Y-149585000D01*
X138430000Y-103770000D02*
X140970000Y-103770000D01*
X140970000Y-103770000D02*
X140970000Y-101100000D01*
X138430000Y-101100000D02*
X100200000Y-101100000D01*
X143640000Y-101100000D02*
X140970000Y-101100000D01*
X140970000Y-116470000D02*
X140970000Y-119140000D01*
X140970000Y-116470000D02*
X102870000Y-116470000D01*
X102870000Y-116470000D02*
X102870000Y-119140000D01*
X138430000Y-103770000D02*
X138430000Y-101100000D01*
X138430000Y-103770000D02*
X102870000Y-103770000D01*
X102870000Y-103770000D02*
X102870000Y-101100000D01*
X100200000Y-101100000D02*
X100200000Y-119140000D01*
X100200000Y-119140000D02*
X143640000Y-119140000D01*
X143640000Y-119140000D02*
X143640000Y-101100000D01*
X155210000Y-125175000D02*
X153090000Y-125175000D01*
X153090000Y-125175000D02*
X153090000Y-129295000D01*
X153090000Y-129295000D02*
X155210000Y-129295000D01*
X155210000Y-129295000D02*
X155210000Y-125175000D01*
X154150000Y-124405000D02*
X154150000Y-125175000D01*
X154150000Y-130065000D02*
X154150000Y-129295000D01*
X155210000Y-125835000D02*
X153090000Y-125835000D01*
X158335000Y-123505000D02*
X163665000Y-123505000D01*
X163665000Y-123505000D02*
X163665000Y-113855000D01*
X163665000Y-113855000D02*
X158335000Y-113855000D01*
X158335000Y-113855000D02*
X158335000Y-123505000D01*
X161000000Y-124820000D02*
X161000000Y-123505000D01*
X161000000Y-112540000D02*
X161000000Y-113855000D01*
X158335000Y-122015500D02*
X163665000Y-122015500D01*
X136915000Y-132525000D02*
G75*
G03X136915000Y-132525000I-4090000J0D01*
G01*
X128775000Y-132525000D02*
X136875000Y-132525000D01*
X128775000Y-132485000D02*
X136875000Y-132485000D01*
X128775000Y-132445000D02*
X136875000Y-132445000D01*
X128776000Y-132405000D02*
X136874000Y-132405000D01*
X128778000Y-132365000D02*
X136872000Y-132365000D01*
X128779000Y-132325000D02*
X136871000Y-132325000D01*
X128782000Y-132285000D02*
X136868000Y-132285000D01*
X128784000Y-132245000D02*
X136866000Y-132245000D01*
X128787000Y-132205000D02*
X136863000Y-132205000D01*
X128790000Y-132165000D02*
X136860000Y-132165000D01*
X128794000Y-132125000D02*
X136856000Y-132125000D01*
X128798000Y-132085000D02*
X136852000Y-132085000D01*
X128803000Y-132045000D02*
X136847000Y-132045000D01*
X128808000Y-132005000D02*
X136842000Y-132005000D01*
X128813000Y-131965000D02*
X136837000Y-131965000D01*
X128819000Y-131925000D02*
X136831000Y-131925000D01*
X128825000Y-131885000D02*
X136825000Y-131885000D01*
X128831000Y-131845000D02*
X136819000Y-131845000D01*
X128838000Y-131804000D02*
X136812000Y-131804000D01*
X128846000Y-131764000D02*
X136804000Y-131764000D01*
X128854000Y-131724000D02*
X131845000Y-131724000D01*
X133805000Y-131724000D02*
X136796000Y-131724000D01*
X128862000Y-131684000D02*
X131845000Y-131684000D01*
X133805000Y-131684000D02*
X136788000Y-131684000D01*
X128870000Y-131644000D02*
X131845000Y-131644000D01*
X133805000Y-131644000D02*
X136780000Y-131644000D01*
X128879000Y-131604000D02*
X131845000Y-131604000D01*
X133805000Y-131604000D02*
X136771000Y-131604000D01*
X128889000Y-131564000D02*
X131845000Y-131564000D01*
X133805000Y-131564000D02*
X136761000Y-131564000D01*
X128899000Y-131524000D02*
X131845000Y-131524000D01*
X133805000Y-131524000D02*
X136751000Y-131524000D01*
X128909000Y-131484000D02*
X131845000Y-131484000D01*
X133805000Y-131484000D02*
X136741000Y-131484000D01*
X128920000Y-131444000D02*
X131845000Y-131444000D01*
X133805000Y-131444000D02*
X136730000Y-131444000D01*
X128931000Y-131404000D02*
X131845000Y-131404000D01*
X133805000Y-131404000D02*
X136719000Y-131404000D01*
X128942000Y-131364000D02*
X131845000Y-131364000D01*
X133805000Y-131364000D02*
X136708000Y-131364000D01*
X128955000Y-131324000D02*
X131845000Y-131324000D01*
X133805000Y-131324000D02*
X136695000Y-131324000D01*
X128967000Y-131284000D02*
X131845000Y-131284000D01*
X133805000Y-131284000D02*
X136683000Y-131284000D01*
X128980000Y-131244000D02*
X131845000Y-131244000D01*
X133805000Y-131244000D02*
X136670000Y-131244000D01*
X128993000Y-131204000D02*
X131845000Y-131204000D01*
X133805000Y-131204000D02*
X136657000Y-131204000D01*
X129007000Y-131164000D02*
X131845000Y-131164000D01*
X133805000Y-131164000D02*
X136643000Y-131164000D01*
X129022000Y-131124000D02*
X131845000Y-131124000D01*
X133805000Y-131124000D02*
X136628000Y-131124000D01*
X129036000Y-131084000D02*
X131845000Y-131084000D01*
X133805000Y-131084000D02*
X136614000Y-131084000D01*
X129052000Y-131044000D02*
X131845000Y-131044000D01*
X133805000Y-131044000D02*
X136598000Y-131044000D01*
X129067000Y-131004000D02*
X131845000Y-131004000D01*
X133805000Y-131004000D02*
X136583000Y-131004000D01*
X129084000Y-130964000D02*
X131845000Y-130964000D01*
X133805000Y-130964000D02*
X136566000Y-130964000D01*
X129100000Y-130924000D02*
X131845000Y-130924000D01*
X133805000Y-130924000D02*
X136550000Y-130924000D01*
X129118000Y-130884000D02*
X131845000Y-130884000D01*
X133805000Y-130884000D02*
X136532000Y-130884000D01*
X129135000Y-130844000D02*
X131845000Y-130844000D01*
X133805000Y-130844000D02*
X136515000Y-130844000D01*
X129154000Y-130804000D02*
X131845000Y-130804000D01*
X133805000Y-130804000D02*
X136496000Y-130804000D01*
X129173000Y-130764000D02*
X131845000Y-130764000D01*
X133805000Y-130764000D02*
X136477000Y-130764000D01*
X129192000Y-130724000D02*
X131845000Y-130724000D01*
X133805000Y-130724000D02*
X136458000Y-130724000D01*
X129212000Y-130684000D02*
X131845000Y-130684000D01*
X133805000Y-130684000D02*
X136438000Y-130684000D01*
X129232000Y-130644000D02*
X131845000Y-130644000D01*
X133805000Y-130644000D02*
X136418000Y-130644000D01*
X129253000Y-130604000D02*
X131845000Y-130604000D01*
X133805000Y-130604000D02*
X136397000Y-130604000D01*
X129275000Y-130564000D02*
X131845000Y-130564000D01*
X133805000Y-130564000D02*
X136375000Y-130564000D01*
X129297000Y-130524000D02*
X131845000Y-130524000D01*
X133805000Y-130524000D02*
X136353000Y-130524000D01*
X129320000Y-130484000D02*
X131845000Y-130484000D01*
X133805000Y-130484000D02*
X136330000Y-130484000D01*
X129343000Y-130444000D02*
X131845000Y-130444000D01*
X133805000Y-130444000D02*
X136307000Y-130444000D01*
X129367000Y-130404000D02*
X131845000Y-130404000D01*
X133805000Y-130404000D02*
X136283000Y-130404000D01*
X129391000Y-130364000D02*
X131845000Y-130364000D01*
X133805000Y-130364000D02*
X136259000Y-130364000D01*
X129417000Y-130324000D02*
X131845000Y-130324000D01*
X133805000Y-130324000D02*
X136233000Y-130324000D01*
X129442000Y-130284000D02*
X131845000Y-130284000D01*
X133805000Y-130284000D02*
X136208000Y-130284000D01*
X129469000Y-130244000D02*
X131845000Y-130244000D01*
X133805000Y-130244000D02*
X136181000Y-130244000D01*
X129496000Y-130204000D02*
X131845000Y-130204000D01*
X133805000Y-130204000D02*
X136154000Y-130204000D01*
X129524000Y-130164000D02*
X131845000Y-130164000D01*
X133805000Y-130164000D02*
X136126000Y-130164000D01*
X129553000Y-130124000D02*
X131845000Y-130124000D01*
X133805000Y-130124000D02*
X136097000Y-130124000D01*
X129582000Y-130084000D02*
X131845000Y-130084000D01*
X133805000Y-130084000D02*
X136068000Y-130084000D01*
X129612000Y-130044000D02*
X131845000Y-130044000D01*
X133805000Y-130044000D02*
X136038000Y-130044000D01*
X129643000Y-130004000D02*
X131845000Y-130004000D01*
X133805000Y-130004000D02*
X136007000Y-130004000D01*
X129675000Y-129964000D02*
X131845000Y-129964000D01*
X133805000Y-129964000D02*
X135975000Y-129964000D01*
X129707000Y-129924000D02*
X131845000Y-129924000D01*
X133805000Y-129924000D02*
X135943000Y-129924000D01*
X129741000Y-129884000D02*
X131845000Y-129884000D01*
X133805000Y-129884000D02*
X135909000Y-129884000D01*
X129775000Y-129844000D02*
X131845000Y-129844000D01*
X133805000Y-129844000D02*
X135875000Y-129844000D01*
X129810000Y-129804000D02*
X131845000Y-129804000D01*
X133805000Y-129804000D02*
X135840000Y-129804000D01*
X129846000Y-129764000D02*
X135804000Y-129764000D01*
X129883000Y-129724000D02*
X135767000Y-129724000D01*
X129921000Y-129684000D02*
X135729000Y-129684000D01*
X129960000Y-129644000D02*
X135690000Y-129644000D01*
X130001000Y-129604000D02*
X135649000Y-129604000D01*
X130042000Y-129564000D02*
X135608000Y-129564000D01*
X130085000Y-129524000D02*
X135565000Y-129524000D01*
X130128000Y-129484000D02*
X135522000Y-129484000D01*
X130173000Y-129444000D02*
X135477000Y-129444000D01*
X130220000Y-129404000D02*
X135430000Y-129404000D01*
X130268000Y-129364000D02*
X135382000Y-129364000D01*
X130317000Y-129324000D02*
X135333000Y-129324000D01*
X130368000Y-129284000D02*
X135282000Y-129284000D01*
X130421000Y-129244000D02*
X135229000Y-129244000D01*
X130476000Y-129204000D02*
X135174000Y-129204000D01*
X130532000Y-129164000D02*
X135118000Y-129164000D01*
X130591000Y-129124000D02*
X135059000Y-129124000D01*
X130652000Y-129084000D02*
X134998000Y-129084000D01*
X130716000Y-129044000D02*
X134934000Y-129044000D01*
X130782000Y-129004000D02*
X134868000Y-129004000D01*
X130851000Y-128964000D02*
X134799000Y-128964000D01*
X130923000Y-128924000D02*
X134727000Y-128924000D01*
X130999000Y-128884000D02*
X134651000Y-128884000D01*
X131080000Y-128844000D02*
X134570000Y-128844000D01*
X131165000Y-128804000D02*
X134485000Y-128804000D01*
X131255000Y-128764000D02*
X134395000Y-128764000D01*
X131352000Y-128724000D02*
X134298000Y-128724000D01*
X131456000Y-128684000D02*
X134194000Y-128684000D01*
X131571000Y-128644000D02*
X134079000Y-128644000D01*
X131698000Y-128604000D02*
X133952000Y-128604000D01*
X131842000Y-128564000D02*
X133808000Y-128564000D01*
X132011000Y-128524000D02*
X133639000Y-128524000D01*
X132227000Y-128484000D02*
X133423000Y-128484000D01*
X132579000Y-128444000D02*
X133071000Y-128444000D01*
X132825000Y-136475000D02*
X132825000Y-135275000D01*
X132175000Y-135875000D02*
X133475000Y-135875000D01*
X129585000Y-125930000D02*
X129585000Y-126810000D01*
X129585000Y-126810000D02*
X119965000Y-126810000D01*
X119965000Y-126810000D02*
X119965000Y-125930000D01*
X129585000Y-122370000D02*
X129585000Y-121490000D01*
X129585000Y-121490000D02*
X119965000Y-121490000D01*
X119965000Y-121490000D02*
X119965000Y-122370000D01*
X128100000Y-126810000D02*
X128100000Y-121490000D01*
X137734971Y-125354924D02*
G75*
G03X143915000Y-125355000I3090029J1179924D01*
G01*
X137734971Y-122995076D02*
G75*
G02X143915000Y-122995000I3090029J-1179924D01*
G01*
X134546000Y-148445000D02*
X124305000Y-148445000D01*
X134546000Y-143804000D02*
X132190000Y-143804000D01*
X130060000Y-143804000D02*
X128790000Y-143804000D01*
X126660000Y-143804000D02*
X124305000Y-143804000D01*
X134546000Y-148445000D02*
X134546000Y-143804000D01*
X124305000Y-148445000D02*
X124305000Y-143804000D01*
X134546000Y-146936000D02*
X124305000Y-146936000D01*
X131275000Y-148445000D02*
X131275000Y-146936000D01*
X127575000Y-148445000D02*
X127575000Y-146936000D01*
X132825000Y-143804000D02*
X132825000Y-141174000D01*
X129425000Y-143804000D02*
X129425000Y-141190000D01*
X126025000Y-143804000D02*
X126025000Y-141190000D01*
D15*
G36*
X105752773Y-107742885D02*
X106012998Y-107888069D01*
X106206409Y-108102056D01*
X106327020Y-108362114D01*
X106368843Y-108645512D01*
X106325890Y-108929518D01*
X106192175Y-109191399D01*
X105961711Y-109408425D01*
X105895250Y-109449123D01*
X105597067Y-109569034D01*
X105310664Y-109574319D01*
X105004181Y-109467144D01*
X104740529Y-109278764D01*
X104578703Y-109020858D01*
X104513685Y-108684663D01*
X104511857Y-108607137D01*
X104565495Y-108259488D01*
X104718956Y-107984698D01*
X104961057Y-107793926D01*
X105280616Y-107698330D01*
X105431721Y-107689237D01*
X105752773Y-107742885D01*
X105752773Y-107742885D01*
G37*
X105752773Y-107742885D02*
X106012998Y-107888069D01*
X106206409Y-108102056D01*
X106327020Y-108362114D01*
X106368843Y-108645512D01*
X106325890Y-108929518D01*
X106192175Y-109191399D01*
X105961711Y-109408425D01*
X105895250Y-109449123D01*
X105597067Y-109569034D01*
X105310664Y-109574319D01*
X105004181Y-109467144D01*
X104740529Y-109278764D01*
X104578703Y-109020858D01*
X104513685Y-108684663D01*
X104511857Y-108607137D01*
X104565495Y-108259488D01*
X104718956Y-107984698D01*
X104961057Y-107793926D01*
X105280616Y-107698330D01*
X105431721Y-107689237D01*
X105752773Y-107742885D01*
G36*
X133797860Y-108037482D02*
X134087683Y-108161346D01*
X134324184Y-108383969D01*
X134355674Y-108429080D01*
X134398874Y-108512077D01*
X134431051Y-108623822D01*
X134454354Y-108784457D01*
X134470928Y-109014128D01*
X134482922Y-109332978D01*
X134491370Y-109702111D01*
X134512490Y-110800500D01*
X133613000Y-110800500D01*
X133613000Y-110016225D01*
X133607667Y-109694396D01*
X133593158Y-109402367D01*
X133571707Y-109172842D01*
X133546339Y-109040728D01*
X133429309Y-108851303D01*
X133259711Y-108759079D01*
X133065638Y-108777795D01*
X133035950Y-108791122D01*
X132917122Y-108869911D01*
X132832048Y-108982602D01*
X132775532Y-109149240D01*
X132742378Y-109389868D01*
X132727388Y-109724529D01*
X132724936Y-109990875D01*
X132724000Y-110800500D01*
X131835000Y-110800500D01*
X131835000Y-108070000D01*
X132279500Y-108070000D01*
X132511629Y-108072041D01*
X132644467Y-108085224D01*
X132705723Y-108120134D01*
X132723103Y-108187356D01*
X132724000Y-108239818D01*
X132724000Y-108409637D01*
X132866875Y-108283687D01*
X133161614Y-108096129D01*
X133480556Y-108014902D01*
X133797860Y-108037482D01*
X133797860Y-108037482D01*
G37*
X133797860Y-108037482D02*
X134087683Y-108161346D01*
X134324184Y-108383969D01*
X134355674Y-108429080D01*
X134398874Y-108512077D01*
X134431051Y-108623822D01*
X134454354Y-108784457D01*
X134470928Y-109014128D01*
X134482922Y-109332978D01*
X134491370Y-109702111D01*
X134512490Y-110800500D01*
X133613000Y-110800500D01*
X133613000Y-110016225D01*
X133607667Y-109694396D01*
X133593158Y-109402367D01*
X133571707Y-109172842D01*
X133546339Y-109040728D01*
X133429309Y-108851303D01*
X133259711Y-108759079D01*
X133065638Y-108777795D01*
X133035950Y-108791122D01*
X132917122Y-108869911D01*
X132832048Y-108982602D01*
X132775532Y-109149240D01*
X132742378Y-109389868D01*
X132727388Y-109724529D01*
X132724936Y-109990875D01*
X132724000Y-110800500D01*
X131835000Y-110800500D01*
X131835000Y-108070000D01*
X132279500Y-108070000D01*
X132511629Y-108072041D01*
X132644467Y-108085224D01*
X132705723Y-108120134D01*
X132723103Y-108187356D01*
X132724000Y-108239818D01*
X132724000Y-108409637D01*
X132866875Y-108283687D01*
X133161614Y-108096129D01*
X133480556Y-108014902D01*
X133797860Y-108037482D01*
G36*
X120389125Y-107000561D02*
X120773099Y-107010884D01*
X121054277Y-107023413D01*
X121256853Y-107041573D01*
X121405024Y-107068786D01*
X121522987Y-107108478D01*
X121634939Y-107164072D01*
X121665350Y-107181156D01*
X121925232Y-107378982D01*
X122072576Y-107621115D01*
X122119496Y-107927540D01*
X122119500Y-107930456D01*
X122069236Y-108193434D01*
X121937515Y-108445541D01*
X121752938Y-108637905D01*
X121678965Y-108683167D01*
X121527992Y-108758435D01*
X121744371Y-108849953D01*
X122010943Y-109023044D01*
X122188499Y-109263403D01*
X122276425Y-109547116D01*
X122274107Y-109850268D01*
X122180928Y-110148944D01*
X121996276Y-110419230D01*
X121789204Y-110594395D01*
X121688020Y-110658425D01*
X121592567Y-110704965D01*
X121480380Y-110737316D01*
X121328992Y-110758778D01*
X121115937Y-110772649D01*
X120818748Y-110782230D01*
X120457475Y-110789977D01*
X119389000Y-110811204D01*
X119389000Y-109213000D01*
X120341500Y-109213000D01*
X120341500Y-110102000D01*
X120690750Y-110102000D01*
X120931228Y-110087366D01*
X121087718Y-110036284D01*
X121167000Y-109975000D01*
X121287281Y-109787137D01*
X121295732Y-109598096D01*
X121205778Y-109427678D01*
X121030843Y-109295686D01*
X120784351Y-109221924D01*
X120650436Y-109213000D01*
X120341500Y-109213000D01*
X119389000Y-109213000D01*
X119389000Y-107689000D01*
X120341500Y-107689000D01*
X120341500Y-108514500D01*
X120622641Y-108514500D01*
X120823780Y-108497719D01*
X120955665Y-108432506D01*
X121035391Y-108347186D01*
X121144103Y-108171626D01*
X121146479Y-108027808D01*
X121040557Y-107875126D01*
X121011136Y-107844863D01*
X120836289Y-107725591D01*
X120609232Y-107689047D01*
X120598386Y-107689000D01*
X120341500Y-107689000D01*
X119389000Y-107689000D01*
X119389000Y-106977193D01*
X120389125Y-107000561D01*
X120389125Y-107000561D01*
G37*
X120389125Y-107000561D02*
X120773099Y-107010884D01*
X121054277Y-107023413D01*
X121256853Y-107041573D01*
X121405024Y-107068786D01*
X121522987Y-107108478D01*
X121634939Y-107164072D01*
X121665350Y-107181156D01*
X121925232Y-107378982D01*
X122072576Y-107621115D01*
X122119496Y-107927540D01*
X122119500Y-107930456D01*
X122069236Y-108193434D01*
X121937515Y-108445541D01*
X121752938Y-108637905D01*
X121678965Y-108683167D01*
X121527992Y-108758435D01*
X121744371Y-108849953D01*
X122010943Y-109023044D01*
X122188499Y-109263403D01*
X122276425Y-109547116D01*
X122274107Y-109850268D01*
X122180928Y-110148944D01*
X121996276Y-110419230D01*
X121789204Y-110594395D01*
X121688020Y-110658425D01*
X121592567Y-110704965D01*
X121480380Y-110737316D01*
X121328992Y-110758778D01*
X121115937Y-110772649D01*
X120818748Y-110782230D01*
X120457475Y-110789977D01*
X119389000Y-110811204D01*
X119389000Y-109213000D01*
X120341500Y-109213000D01*
X120341500Y-110102000D01*
X120690750Y-110102000D01*
X120931228Y-110087366D01*
X121087718Y-110036284D01*
X121167000Y-109975000D01*
X121287281Y-109787137D01*
X121295732Y-109598096D01*
X121205778Y-109427678D01*
X121030843Y-109295686D01*
X120784351Y-109221924D01*
X120650436Y-109213000D01*
X120341500Y-109213000D01*
X119389000Y-109213000D01*
X119389000Y-107689000D01*
X120341500Y-107689000D01*
X120341500Y-108514500D01*
X120622641Y-108514500D01*
X120823780Y-108497719D01*
X120955665Y-108432506D01*
X121035391Y-108347186D01*
X121144103Y-108171626D01*
X121146479Y-108027808D01*
X121040557Y-107875126D01*
X121011136Y-107844863D01*
X120836289Y-107725591D01*
X120609232Y-107689047D01*
X120598386Y-107689000D01*
X120341500Y-107689000D01*
X119389000Y-107689000D01*
X119389000Y-106977193D01*
X120389125Y-107000561D01*
G36*
X139709000Y-108393963D02*
X139933926Y-108222403D01*
X140218012Y-108075876D01*
X140539836Y-108021014D01*
X140866898Y-108052817D01*
X141166697Y-108166281D01*
X141406733Y-108356403D01*
X141483766Y-108460947D01*
X141632828Y-108814755D01*
X141701353Y-109225916D01*
X141690032Y-109654153D01*
X141599557Y-110059193D01*
X141451013Y-110370620D01*
X141216965Y-110619950D01*
X140912567Y-110785986D01*
X140569537Y-110861008D01*
X140219593Y-110837297D01*
X139946184Y-110736876D01*
X139795885Y-110663656D01*
X139725767Y-110655268D01*
X139709000Y-110705126D01*
X139667208Y-110771410D01*
X139528536Y-110798747D01*
X139455000Y-110800500D01*
X139201000Y-110800500D01*
X139201000Y-109462722D01*
X139740750Y-109462722D01*
X139740750Y-109473429D01*
X139742456Y-109746993D01*
X139753454Y-109925912D01*
X139782564Y-110042539D01*
X139838604Y-110129229D01*
X139930393Y-110218334D01*
X139948126Y-110234208D01*
X140204466Y-110385653D01*
X140489349Y-110417094D01*
X140783090Y-110327047D01*
X140968927Y-110165136D01*
X141106453Y-109915382D01*
X141186301Y-109610824D01*
X141199098Y-109284501D01*
X141152828Y-109023304D01*
X141016289Y-108745500D01*
X140811885Y-108559213D01*
X140564226Y-108470956D01*
X140297919Y-108487244D01*
X140037577Y-108614591D01*
X139937179Y-108701512D01*
X139844010Y-108800797D01*
X139786218Y-108893414D01*
X139755367Y-109012508D01*
X139743023Y-109191229D01*
X139740750Y-109462722D01*
X139201000Y-109462722D01*
X139201000Y-106800000D01*
X139709000Y-106800000D01*
X139709000Y-108393963D01*
X139709000Y-108393963D01*
G37*
X139709000Y-108393963D02*
X139933926Y-108222403D01*
X140218012Y-108075876D01*
X140539836Y-108021014D01*
X140866898Y-108052817D01*
X141166697Y-108166281D01*
X141406733Y-108356403D01*
X141483766Y-108460947D01*
X141632828Y-108814755D01*
X141701353Y-109225916D01*
X141690032Y-109654153D01*
X141599557Y-110059193D01*
X141451013Y-110370620D01*
X141216965Y-110619950D01*
X140912567Y-110785986D01*
X140569537Y-110861008D01*
X140219593Y-110837297D01*
X139946184Y-110736876D01*
X139795885Y-110663656D01*
X139725767Y-110655268D01*
X139709000Y-110705126D01*
X139667208Y-110771410D01*
X139528536Y-110798747D01*
X139455000Y-110800500D01*
X139201000Y-110800500D01*
X139201000Y-109462722D01*
X139740750Y-109462722D01*
X139740750Y-109473429D01*
X139742456Y-109746993D01*
X139753454Y-109925912D01*
X139782564Y-110042539D01*
X139838604Y-110129229D01*
X139930393Y-110218334D01*
X139948126Y-110234208D01*
X140204466Y-110385653D01*
X140489349Y-110417094D01*
X140783090Y-110327047D01*
X140968927Y-110165136D01*
X141106453Y-109915382D01*
X141186301Y-109610824D01*
X141199098Y-109284501D01*
X141152828Y-109023304D01*
X141016289Y-108745500D01*
X140811885Y-108559213D01*
X140564226Y-108470956D01*
X140297919Y-108487244D01*
X140037577Y-108614591D01*
X139937179Y-108701512D01*
X139844010Y-108800797D01*
X139786218Y-108893414D01*
X139755367Y-109012508D01*
X139743023Y-109191229D01*
X139740750Y-109462722D01*
X139201000Y-109462722D01*
X139201000Y-106800000D01*
X139709000Y-106800000D01*
X139709000Y-108393963D01*
G36*
X137764895Y-108043508D02*
X137961738Y-108105526D01*
X138120356Y-108190885D01*
X138239603Y-108288345D01*
X138325003Y-108416432D01*
X138382082Y-108593670D01*
X138416364Y-108838587D01*
X138433373Y-109169707D01*
X138438634Y-109605557D01*
X138438762Y-109705125D01*
X138439000Y-110800500D01*
X138185000Y-110800500D01*
X138018544Y-110789676D01*
X137945047Y-110746371D01*
X137931000Y-110675413D01*
X137923326Y-110603401D01*
X137881526Y-110595355D01*
X137777433Y-110655145D01*
X137699888Y-110707163D01*
X137413800Y-110832032D01*
X137087552Y-110866918D01*
X136770223Y-110810487D01*
X136611792Y-110736733D01*
X136413238Y-110560312D01*
X136306743Y-110319282D01*
X136280988Y-110050774D01*
X136788972Y-110050774D01*
X136841958Y-110230265D01*
X136983609Y-110353699D01*
X137184477Y-110411690D01*
X137415112Y-110394854D01*
X137614166Y-110313755D01*
X137817134Y-110125183D01*
X137918995Y-109861887D01*
X137931000Y-109711777D01*
X137931000Y-109518030D01*
X137534125Y-109563292D01*
X137204608Y-109614934D01*
X136983719Y-109688772D01*
X136853515Y-109796543D01*
X136796054Y-109949984D01*
X136788972Y-110050774D01*
X136280988Y-110050774D01*
X136280936Y-110050241D01*
X136322652Y-109757466D01*
X136451277Y-109527206D01*
X136675941Y-109352052D01*
X137005777Y-109224593D01*
X137396498Y-109145071D01*
X137942444Y-109063848D01*
X137904781Y-108868549D01*
X137808642Y-108639096D01*
X137634132Y-108501895D01*
X137393260Y-108459978D01*
X137098036Y-108516373D01*
X136878136Y-108609484D01*
X136703923Y-108696579D01*
X136583686Y-108754257D01*
X136549875Y-108768234D01*
X136539980Y-108711956D01*
X136534433Y-108570865D01*
X136534000Y-108511259D01*
X136545502Y-108340123D01*
X136603096Y-108242123D01*
X136741411Y-108164952D01*
X136772125Y-108151568D01*
X137095824Y-108053998D01*
X137442702Y-108017361D01*
X137764895Y-108043508D01*
X137764895Y-108043508D01*
G37*
X137764895Y-108043508D02*
X137961738Y-108105526D01*
X138120356Y-108190885D01*
X138239603Y-108288345D01*
X138325003Y-108416432D01*
X138382082Y-108593670D01*
X138416364Y-108838587D01*
X138433373Y-109169707D01*
X138438634Y-109605557D01*
X138438762Y-109705125D01*
X138439000Y-110800500D01*
X138185000Y-110800500D01*
X138018544Y-110789676D01*
X137945047Y-110746371D01*
X137931000Y-110675413D01*
X137923326Y-110603401D01*
X137881526Y-110595355D01*
X137777433Y-110655145D01*
X137699888Y-110707163D01*
X137413800Y-110832032D01*
X137087552Y-110866918D01*
X136770223Y-110810487D01*
X136611792Y-110736733D01*
X136413238Y-110560312D01*
X136306743Y-110319282D01*
X136280988Y-110050774D01*
X136788972Y-110050774D01*
X136841958Y-110230265D01*
X136983609Y-110353699D01*
X137184477Y-110411690D01*
X137415112Y-110394854D01*
X137614166Y-110313755D01*
X137817134Y-110125183D01*
X137918995Y-109861887D01*
X137931000Y-109711777D01*
X137931000Y-109518030D01*
X137534125Y-109563292D01*
X137204608Y-109614934D01*
X136983719Y-109688772D01*
X136853515Y-109796543D01*
X136796054Y-109949984D01*
X136788972Y-110050774D01*
X136280988Y-110050774D01*
X136280936Y-110050241D01*
X136322652Y-109757466D01*
X136451277Y-109527206D01*
X136675941Y-109352052D01*
X137005777Y-109224593D01*
X137396498Y-109145071D01*
X137942444Y-109063848D01*
X137904781Y-108868549D01*
X137808642Y-108639096D01*
X137634132Y-108501895D01*
X137393260Y-108459978D01*
X137098036Y-108516373D01*
X136878136Y-108609484D01*
X136703923Y-108696579D01*
X136583686Y-108754257D01*
X136549875Y-108768234D01*
X136539980Y-108711956D01*
X136534433Y-108570865D01*
X136534000Y-108511259D01*
X136545502Y-108340123D01*
X136603096Y-108242123D01*
X136741411Y-108164952D01*
X136772125Y-108151568D01*
X137095824Y-108053998D01*
X137442702Y-108017361D01*
X137764895Y-108043508D01*
G36*
X135581500Y-106800000D02*
X135581500Y-108501800D01*
X135582054Y-109034940D01*
X135585329Y-109454645D01*
X135593739Y-109774482D01*
X135609701Y-110008016D01*
X135635630Y-110168811D01*
X135673942Y-110270434D01*
X135727052Y-110326450D01*
X135797378Y-110350424D01*
X135887333Y-110355922D01*
X135911700Y-110356000D01*
X136032690Y-110370450D01*
X136081299Y-110439533D01*
X136089500Y-110571456D01*
X136064753Y-110737053D01*
X135974264Y-110827706D01*
X135793657Y-110861928D01*
X135704308Y-110864000D01*
X135507065Y-110811075D01*
X135312626Y-110678798D01*
X135105250Y-110493597D01*
X135085798Y-108646798D01*
X135066347Y-106799999D01*
X135323923Y-106799999D01*
X135581500Y-106800000D01*
X135581500Y-106800000D01*
G37*
X135581500Y-106800000D02*
X135581500Y-108501800D01*
X135582054Y-109034940D01*
X135585329Y-109454645D01*
X135593739Y-109774482D01*
X135609701Y-110008016D01*
X135635630Y-110168811D01*
X135673942Y-110270434D01*
X135727052Y-110326450D01*
X135797378Y-110350424D01*
X135887333Y-110355922D01*
X135911700Y-110356000D01*
X136032690Y-110370450D01*
X136081299Y-110439533D01*
X136089500Y-110571456D01*
X136064753Y-110737053D01*
X135974264Y-110827706D01*
X135793657Y-110861928D01*
X135704308Y-110864000D01*
X135507065Y-110811075D01*
X135312626Y-110678798D01*
X135105250Y-110493597D01*
X135085798Y-108646798D01*
X135066347Y-106799999D01*
X135323923Y-106799999D01*
X135581500Y-106800000D01*
G36*
X130424961Y-108030850D02*
X130735425Y-108129909D01*
X131019627Y-108316346D01*
X131218752Y-108583476D01*
X131338056Y-108940450D01*
X131376755Y-109246588D01*
X131407201Y-109721000D01*
X129672738Y-109721000D01*
X129768514Y-109906210D01*
X129926861Y-110083328D01*
X130162957Y-110184615D01*
X130450186Y-110206614D01*
X130761936Y-110145863D01*
X130962948Y-110061485D01*
X131143035Y-109968358D01*
X131123892Y-110331414D01*
X131108543Y-110538328D01*
X131076627Y-110656062D01*
X131007571Y-110722372D01*
X130882500Y-110774404D01*
X130659283Y-110823724D01*
X130364894Y-110848577D01*
X130049366Y-110848758D01*
X129762732Y-110824063D01*
X129569171Y-110779794D01*
X129261966Y-110602655D01*
X129024087Y-110335762D01*
X128863239Y-110000411D01*
X128787131Y-109617897D01*
X128803469Y-109209517D01*
X128835787Y-109081825D01*
X129739500Y-109081825D01*
X129799217Y-109119918D01*
X129964201Y-109143467D01*
X130152250Y-109149500D01*
X130362436Y-109141009D01*
X130511097Y-109118794D01*
X130565000Y-109088987D01*
X130523823Y-108931863D01*
X130425629Y-108778568D01*
X130308425Y-108686586D01*
X130296444Y-108682794D01*
X130096548Y-108686011D01*
X129910896Y-108778005D01*
X129779254Y-108930286D01*
X129739500Y-109081825D01*
X128835787Y-109081825D01*
X128884716Y-108888508D01*
X129068480Y-108544680D01*
X129337093Y-108277693D01*
X129667849Y-108096854D01*
X130038040Y-108011471D01*
X130424961Y-108030850D01*
X130424961Y-108030850D01*
G37*
X130424961Y-108030850D02*
X130735425Y-108129909D01*
X131019627Y-108316346D01*
X131218752Y-108583476D01*
X131338056Y-108940450D01*
X131376755Y-109246588D01*
X131407201Y-109721000D01*
X129672738Y-109721000D01*
X129768514Y-109906210D01*
X129926861Y-110083328D01*
X130162957Y-110184615D01*
X130450186Y-110206614D01*
X130761936Y-110145863D01*
X130962948Y-110061485D01*
X131143035Y-109968358D01*
X131123892Y-110331414D01*
X131108543Y-110538328D01*
X131076627Y-110656062D01*
X131007571Y-110722372D01*
X130882500Y-110774404D01*
X130659283Y-110823724D01*
X130364894Y-110848577D01*
X130049366Y-110848758D01*
X129762732Y-110824063D01*
X129569171Y-110779794D01*
X129261966Y-110602655D01*
X129024087Y-110335762D01*
X128863239Y-110000411D01*
X128787131Y-109617897D01*
X128803469Y-109209517D01*
X128835787Y-109081825D01*
X129739500Y-109081825D01*
X129799217Y-109119918D01*
X129964201Y-109143467D01*
X130152250Y-109149500D01*
X130362436Y-109141009D01*
X130511097Y-109118794D01*
X130565000Y-109088987D01*
X130523823Y-108931863D01*
X130425629Y-108778568D01*
X130308425Y-108686586D01*
X130296444Y-108682794D01*
X130096548Y-108686011D01*
X129910896Y-108778005D01*
X129779254Y-108930286D01*
X129739500Y-109081825D01*
X128835787Y-109081825D01*
X128884716Y-108888508D01*
X129068480Y-108544680D01*
X129337093Y-108277693D01*
X129667849Y-108096854D01*
X130038040Y-108011471D01*
X130424961Y-108030850D01*
G36*
X128342500Y-110800500D02*
X127866250Y-110800500D01*
X127615718Y-110795638D01*
X127468624Y-110777906D01*
X127401668Y-110742579D01*
X127390000Y-110703959D01*
X127372614Y-110652734D01*
X127302395Y-110659853D01*
X127152246Y-110728734D01*
X127138529Y-110735709D01*
X126796328Y-110845462D01*
X126433562Y-110851128D01*
X126093361Y-110753316D01*
X126029513Y-110720080D01*
X125773264Y-110516145D01*
X125600840Y-110237970D01*
X125507006Y-109873996D01*
X125492604Y-109641269D01*
X126377137Y-109641269D01*
X126400187Y-109776210D01*
X126472314Y-109888270D01*
X126551980Y-109972249D01*
X126744110Y-110121681D01*
X126920739Y-110153078D01*
X127109127Y-110067990D01*
X127186056Y-110008317D01*
X127338607Y-109811294D01*
X127416452Y-109564239D01*
X127421290Y-109302361D01*
X127354825Y-109060868D01*
X127218756Y-108874966D01*
X127128412Y-108815426D01*
X126890224Y-108754924D01*
X126685012Y-108810052D01*
X126524234Y-108971275D01*
X126419345Y-109229060D01*
X126387504Y-109432011D01*
X126377137Y-109641269D01*
X125492604Y-109641269D01*
X125485000Y-109518401D01*
X125527243Y-109061949D01*
X125649874Y-108674138D01*
X125846746Y-108372480D01*
X125909085Y-108310546D01*
X126161839Y-108146295D01*
X126463853Y-108045326D01*
X126773321Y-108014756D01*
X127048437Y-108061697D01*
X127136000Y-108101750D01*
X127266711Y-108168564D01*
X127342375Y-108194749D01*
X127361506Y-108136473D01*
X127376969Y-107976729D01*
X127387018Y-107741037D01*
X127390000Y-107498500D01*
X127390000Y-106800000D01*
X128342500Y-106800000D01*
X128342500Y-110800500D01*
X128342500Y-110800500D01*
G37*
X128342500Y-110800500D02*
X127866250Y-110800500D01*
X127615718Y-110795638D01*
X127468624Y-110777906D01*
X127401668Y-110742579D01*
X127390000Y-110703959D01*
X127372614Y-110652734D01*
X127302395Y-110659853D01*
X127152246Y-110728734D01*
X127138529Y-110735709D01*
X126796328Y-110845462D01*
X126433562Y-110851128D01*
X126093361Y-110753316D01*
X126029513Y-110720080D01*
X125773264Y-110516145D01*
X125600840Y-110237970D01*
X125507006Y-109873996D01*
X125492604Y-109641269D01*
X126377137Y-109641269D01*
X126400187Y-109776210D01*
X126472314Y-109888270D01*
X126551980Y-109972249D01*
X126744110Y-110121681D01*
X126920739Y-110153078D01*
X127109127Y-110067990D01*
X127186056Y-110008317D01*
X127338607Y-109811294D01*
X127416452Y-109564239D01*
X127421290Y-109302361D01*
X127354825Y-109060868D01*
X127218756Y-108874966D01*
X127128412Y-108815426D01*
X126890224Y-108754924D01*
X126685012Y-108810052D01*
X126524234Y-108971275D01*
X126419345Y-109229060D01*
X126387504Y-109432011D01*
X126377137Y-109641269D01*
X125492604Y-109641269D01*
X125485000Y-109518401D01*
X125527243Y-109061949D01*
X125649874Y-108674138D01*
X125846746Y-108372480D01*
X125909085Y-108310546D01*
X126161839Y-108146295D01*
X126463853Y-108045326D01*
X126773321Y-108014756D01*
X127048437Y-108061697D01*
X127136000Y-108101750D01*
X127266711Y-108168564D01*
X127342375Y-108194749D01*
X127361506Y-108136473D01*
X127376969Y-107976729D01*
X127387018Y-107741037D01*
X127390000Y-107498500D01*
X127390000Y-106800000D01*
X128342500Y-106800000D01*
X128342500Y-110800500D01*
G36*
X124149710Y-108037482D02*
X124492857Y-108150473D01*
X124757072Y-108362667D01*
X124897625Y-108575579D01*
X124953143Y-108696413D01*
X124992179Y-108818944D01*
X125017582Y-108968193D01*
X125032203Y-109169177D01*
X125038892Y-109446918D01*
X125040499Y-109826433D01*
X125040500Y-109829704D01*
X125040500Y-110800500D01*
X124596000Y-110800500D01*
X124353959Y-110794790D01*
X124215482Y-110774400D01*
X124157507Y-110734436D01*
X124151500Y-110706183D01*
X124132306Y-110655858D01*
X124057337Y-110674213D01*
X123945125Y-110737695D01*
X123674332Y-110838943D01*
X123358635Y-110862436D01*
X123053505Y-110808224D01*
X122895792Y-110736733D01*
X122704586Y-110570327D01*
X122599879Y-110346012D01*
X122573197Y-110042132D01*
X122579445Y-109928359D01*
X122587153Y-109887384D01*
X123389500Y-109887384D01*
X123439269Y-110036228D01*
X123557271Y-110166717D01*
X123696542Y-110228525D01*
X123708278Y-110229000D01*
X123831663Y-110191506D01*
X123979630Y-110100943D01*
X123984186Y-110097391D01*
X124124274Y-109922117D01*
X124151500Y-109779891D01*
X124133512Y-109646001D01*
X124057221Y-109597946D01*
X123990710Y-109594000D01*
X123794374Y-109621501D01*
X123602516Y-109691182D01*
X123454551Y-109783809D01*
X123389893Y-109880149D01*
X123389500Y-109887384D01*
X122587153Y-109887384D01*
X122631542Y-109651450D01*
X122747728Y-109440020D01*
X122943101Y-109282276D01*
X123232758Y-109166424D01*
X123631797Y-109080673D01*
X123673074Y-109074109D01*
X123924871Y-109025436D01*
X124091199Y-108973177D01*
X124151499Y-108923797D01*
X124151500Y-108923640D01*
X124095925Y-108805315D01*
X123948516Y-108728813D01*
X123738245Y-108696782D01*
X123494084Y-108711872D01*
X123245007Y-108776730D01*
X123125375Y-108829846D01*
X122968637Y-108908325D01*
X122865189Y-108954144D01*
X122847794Y-108959000D01*
X122831937Y-108901352D01*
X122821130Y-108751780D01*
X122818000Y-108585719D01*
X122818000Y-108212439D01*
X123227925Y-108109469D01*
X123727957Y-108023784D01*
X124149710Y-108037482D01*
X124149710Y-108037482D01*
G37*
X124149710Y-108037482D02*
X124492857Y-108150473D01*
X124757072Y-108362667D01*
X124897625Y-108575579D01*
X124953143Y-108696413D01*
X124992179Y-108818944D01*
X125017582Y-108968193D01*
X125032203Y-109169177D01*
X125038892Y-109446918D01*
X125040499Y-109826433D01*
X125040500Y-109829704D01*
X125040500Y-110800500D01*
X124596000Y-110800500D01*
X124353959Y-110794790D01*
X124215482Y-110774400D01*
X124157507Y-110734436D01*
X124151500Y-110706183D01*
X124132306Y-110655858D01*
X124057337Y-110674213D01*
X123945125Y-110737695D01*
X123674332Y-110838943D01*
X123358635Y-110862436D01*
X123053505Y-110808224D01*
X122895792Y-110736733D01*
X122704586Y-110570327D01*
X122599879Y-110346012D01*
X122573197Y-110042132D01*
X122579445Y-109928359D01*
X122587153Y-109887384D01*
X123389500Y-109887384D01*
X123439269Y-110036228D01*
X123557271Y-110166717D01*
X123696542Y-110228525D01*
X123708278Y-110229000D01*
X123831663Y-110191506D01*
X123979630Y-110100943D01*
X123984186Y-110097391D01*
X124124274Y-109922117D01*
X124151500Y-109779891D01*
X124133512Y-109646001D01*
X124057221Y-109597946D01*
X123990710Y-109594000D01*
X123794374Y-109621501D01*
X123602516Y-109691182D01*
X123454551Y-109783809D01*
X123389893Y-109880149D01*
X123389500Y-109887384D01*
X122587153Y-109887384D01*
X122631542Y-109651450D01*
X122747728Y-109440020D01*
X122943101Y-109282276D01*
X123232758Y-109166424D01*
X123631797Y-109080673D01*
X123673074Y-109074109D01*
X123924871Y-109025436D01*
X124091199Y-108973177D01*
X124151499Y-108923797D01*
X124151500Y-108923640D01*
X124095925Y-108805315D01*
X123948516Y-108728813D01*
X123738245Y-108696782D01*
X123494084Y-108711872D01*
X123245007Y-108776730D01*
X123125375Y-108829846D01*
X122968637Y-108908325D01*
X122865189Y-108954144D01*
X122847794Y-108959000D01*
X122831937Y-108901352D01*
X122821130Y-108751780D01*
X122818000Y-108585719D01*
X122818000Y-108212439D01*
X123227925Y-108109469D01*
X123727957Y-108023784D01*
X124149710Y-108037482D01*
G36*
X106361691Y-106436423D02*
X106835965Y-106513443D01*
X107247223Y-106647968D01*
X107260500Y-106653952D01*
X107612327Y-106853163D01*
X107966380Y-107120378D01*
X108284631Y-107422511D01*
X108529055Y-107726476D01*
X108571893Y-107794976D01*
X108822396Y-108339735D01*
X108955015Y-108902505D01*
X108974465Y-109468151D01*
X108885460Y-110021545D01*
X108692716Y-110547553D01*
X108400948Y-111031045D01*
X108014872Y-111456890D01*
X107539201Y-111809955D01*
X107276863Y-111950843D01*
X107062261Y-112046036D01*
X106872289Y-112107258D01*
X106663657Y-112143523D01*
X106393077Y-112163843D01*
X106220186Y-112170870D01*
X105917753Y-112174549D01*
X105636415Y-112165988D01*
X105417717Y-112146978D01*
X105339888Y-112132896D01*
X104801574Y-111933400D01*
X104319783Y-111630545D01*
X103906471Y-111239892D01*
X103573591Y-110777006D01*
X103333101Y-110257450D01*
X103196955Y-109696788D01*
X103170063Y-109308250D01*
X103208379Y-108930140D01*
X103988322Y-108930140D01*
X103993610Y-109312049D01*
X104052337Y-109666177D01*
X104140529Y-109902811D01*
X104365801Y-110233124D01*
X104666242Y-110535653D01*
X105000878Y-110772737D01*
X105182922Y-110860906D01*
X105553788Y-110955239D01*
X105965418Y-110974940D01*
X106367974Y-110921851D01*
X106698036Y-110804933D01*
X107104108Y-110531067D01*
X107421590Y-110183663D01*
X107644164Y-109781399D01*
X107765514Y-109342950D01*
X107779324Y-108886992D01*
X107679275Y-108432200D01*
X107579039Y-108200187D01*
X107315896Y-107818485D01*
X106971813Y-107518336D01*
X106568754Y-107307222D01*
X106128685Y-107192621D01*
X105673567Y-107182014D01*
X105225365Y-107282880D01*
X105072661Y-107346627D01*
X104670506Y-107605712D01*
X104330961Y-107966844D01*
X104138323Y-108273513D01*
X104036538Y-108568083D01*
X103988322Y-108930140D01*
X103208379Y-108930140D01*
X103229780Y-108718956D01*
X103401310Y-108166911D01*
X103673590Y-107666000D01*
X104035554Y-107230115D01*
X104476139Y-106873142D01*
X104984279Y-106608971D01*
X105427384Y-106474769D01*
X105875224Y-106421876D01*
X106361691Y-106436423D01*
X106361691Y-106436423D01*
G37*
X106361691Y-106436423D02*
X106835965Y-106513443D01*
X107247223Y-106647968D01*
X107260500Y-106653952D01*
X107612327Y-106853163D01*
X107966380Y-107120378D01*
X108284631Y-107422511D01*
X108529055Y-107726476D01*
X108571893Y-107794976D01*
X108822396Y-108339735D01*
X108955015Y-108902505D01*
X108974465Y-109468151D01*
X108885460Y-110021545D01*
X108692716Y-110547553D01*
X108400948Y-111031045D01*
X108014872Y-111456890D01*
X107539201Y-111809955D01*
X107276863Y-111950843D01*
X107062261Y-112046036D01*
X106872289Y-112107258D01*
X106663657Y-112143523D01*
X106393077Y-112163843D01*
X106220186Y-112170870D01*
X105917753Y-112174549D01*
X105636415Y-112165988D01*
X105417717Y-112146978D01*
X105339888Y-112132896D01*
X104801574Y-111933400D01*
X104319783Y-111630545D01*
X103906471Y-111239892D01*
X103573591Y-110777006D01*
X103333101Y-110257450D01*
X103196955Y-109696788D01*
X103170063Y-109308250D01*
X103208379Y-108930140D01*
X103988322Y-108930140D01*
X103993610Y-109312049D01*
X104052337Y-109666177D01*
X104140529Y-109902811D01*
X104365801Y-110233124D01*
X104666242Y-110535653D01*
X105000878Y-110772737D01*
X105182922Y-110860906D01*
X105553788Y-110955239D01*
X105965418Y-110974940D01*
X106367974Y-110921851D01*
X106698036Y-110804933D01*
X107104108Y-110531067D01*
X107421590Y-110183663D01*
X107644164Y-109781399D01*
X107765514Y-109342950D01*
X107779324Y-108886992D01*
X107679275Y-108432200D01*
X107579039Y-108200187D01*
X107315896Y-107818485D01*
X106971813Y-107518336D01*
X106568754Y-107307222D01*
X106128685Y-107192621D01*
X105673567Y-107182014D01*
X105225365Y-107282880D01*
X105072661Y-107346627D01*
X104670506Y-107605712D01*
X104330961Y-107966844D01*
X104138323Y-108273513D01*
X104036538Y-108568083D01*
X103988322Y-108930140D01*
X103208379Y-108930140D01*
X103229780Y-108718956D01*
X103401310Y-108166911D01*
X103673590Y-107666000D01*
X104035554Y-107230115D01*
X104476139Y-106873142D01*
X104984279Y-106608971D01*
X105427384Y-106474769D01*
X105875224Y-106421876D01*
X106361691Y-106436423D01*
G36*
X130607628Y-112559901D02*
X130628500Y-112642000D01*
X130583598Y-112748128D01*
X130501500Y-112769000D01*
X130395371Y-112724098D01*
X130374500Y-112642000D01*
X130419401Y-112535871D01*
X130501500Y-112515000D01*
X130607628Y-112559901D01*
X130607628Y-112559901D01*
G37*
X130607628Y-112559901D02*
X130628500Y-112642000D01*
X130583598Y-112748128D01*
X130501500Y-112769000D01*
X130395371Y-112724098D01*
X130374500Y-112642000D01*
X130419401Y-112535871D01*
X130501500Y-112515000D01*
X130607628Y-112559901D01*
G36*
X122098628Y-112559901D02*
X122119500Y-112642000D01*
X122074598Y-112748128D01*
X121992500Y-112769000D01*
X121886371Y-112724098D01*
X121865500Y-112642000D01*
X121910401Y-112535871D01*
X121992500Y-112515000D01*
X122098628Y-112559901D01*
X122098628Y-112559901D01*
G37*
X122098628Y-112559901D02*
X122119500Y-112642000D01*
X122074598Y-112748128D01*
X121992500Y-112769000D01*
X121886371Y-112724098D01*
X121865500Y-112642000D01*
X121910401Y-112535871D01*
X121992500Y-112515000D01*
X122098628Y-112559901D01*
G36*
X120765128Y-112559901D02*
X120786000Y-112642000D01*
X120741098Y-112748128D01*
X120659000Y-112769000D01*
X120552871Y-112724098D01*
X120532000Y-112642000D01*
X120576901Y-112535871D01*
X120659000Y-112515000D01*
X120765128Y-112559901D01*
X120765128Y-112559901D01*
G37*
X120765128Y-112559901D02*
X120786000Y-112642000D01*
X120741098Y-112748128D01*
X120659000Y-112769000D01*
X120552871Y-112724098D01*
X120532000Y-112642000D01*
X120576901Y-112535871D01*
X120659000Y-112515000D01*
X120765128Y-112559901D01*
G36*
X139228937Y-112954771D02*
X139417287Y-113087756D01*
X139537938Y-113304843D01*
X139554627Y-113373253D01*
X139551634Y-113583245D01*
X139483250Y-113791892D01*
X139369792Y-113950482D01*
X139293405Y-113999554D01*
X139070088Y-114040827D01*
X138837924Y-114016408D01*
X138654383Y-113933875D01*
X138629500Y-113912000D01*
X138518536Y-113719499D01*
X138496658Y-113499250D01*
X138756500Y-113499250D01*
X138798252Y-113701617D01*
X138907250Y-113823997D01*
X139059103Y-113848932D01*
X139176566Y-113799902D01*
X139276759Y-113666128D01*
X139297891Y-113481888D01*
X139236552Y-113305640D01*
X139099333Y-113174219D01*
X138956291Y-113153945D01*
X138835387Y-113233541D01*
X138764581Y-113401731D01*
X138756500Y-113499250D01*
X138496658Y-113499250D01*
X138495160Y-113484180D01*
X138553056Y-113248732D01*
X138685910Y-113055844D01*
X138764938Y-112996366D01*
X139001838Y-112919702D01*
X139228937Y-112954771D01*
X139228937Y-112954771D01*
G37*
X139228937Y-112954771D02*
X139417287Y-113087756D01*
X139537938Y-113304843D01*
X139554627Y-113373253D01*
X139551634Y-113583245D01*
X139483250Y-113791892D01*
X139369792Y-113950482D01*
X139293405Y-113999554D01*
X139070088Y-114040827D01*
X138837924Y-114016408D01*
X138654383Y-113933875D01*
X138629500Y-113912000D01*
X138518536Y-113719499D01*
X138496658Y-113499250D01*
X138756500Y-113499250D01*
X138798252Y-113701617D01*
X138907250Y-113823997D01*
X139059103Y-113848932D01*
X139176566Y-113799902D01*
X139276759Y-113666128D01*
X139297891Y-113481888D01*
X139236552Y-113305640D01*
X139099333Y-113174219D01*
X138956291Y-113153945D01*
X138835387Y-113233541D01*
X138764581Y-113401731D01*
X138756500Y-113499250D01*
X138496658Y-113499250D01*
X138495160Y-113484180D01*
X138553056Y-113248732D01*
X138685910Y-113055844D01*
X138764938Y-112996366D01*
X139001838Y-112919702D01*
X139228937Y-112954771D01*
G36*
X138238343Y-112460936D02*
X138275538Y-112503980D01*
X138299061Y-112602734D01*
X138313538Y-112779298D01*
X138323596Y-113055774D01*
X138325726Y-113134125D01*
X138338486Y-113455801D01*
X138357927Y-113664670D01*
X138386110Y-113774838D01*
X138423125Y-113800875D01*
X138486958Y-113839849D01*
X138502500Y-113912000D01*
X138452912Y-114007240D01*
X138335971Y-114042193D01*
X138199412Y-114010275D01*
X138134200Y-113962800D01*
X138094574Y-113853506D01*
X138069214Y-113620897D01*
X138058400Y-113267887D01*
X138058000Y-113169050D01*
X138059448Y-112858344D01*
X138066305Y-112652991D01*
X138082335Y-112531353D01*
X138111302Y-112471794D01*
X138156971Y-112452675D01*
X138182851Y-112451500D01*
X138238343Y-112460936D01*
X138238343Y-112460936D01*
G37*
X138238343Y-112460936D02*
X138275538Y-112503980D01*
X138299061Y-112602734D01*
X138313538Y-112779298D01*
X138323596Y-113055774D01*
X138325726Y-113134125D01*
X138338486Y-113455801D01*
X138357927Y-113664670D01*
X138386110Y-113774838D01*
X138423125Y-113800875D01*
X138486958Y-113839849D01*
X138502500Y-113912000D01*
X138452912Y-114007240D01*
X138335971Y-114042193D01*
X138199412Y-114010275D01*
X138134200Y-113962800D01*
X138094574Y-113853506D01*
X138069214Y-113620897D01*
X138058400Y-113267887D01*
X138058000Y-113169050D01*
X138059448Y-112858344D01*
X138066305Y-112652991D01*
X138082335Y-112531353D01*
X138111302Y-112471794D01*
X138156971Y-112452675D01*
X138182851Y-112451500D01*
X138238343Y-112460936D01*
G36*
X137535236Y-112951765D02*
X137742115Y-113088115D01*
X137840429Y-113265205D01*
X137870858Y-113496434D01*
X137833669Y-113728774D01*
X137738026Y-113900026D01*
X137569686Y-114003403D01*
X137349851Y-114043614D01*
X137130315Y-114019350D01*
X136962874Y-113929299D01*
X136953877Y-113919875D01*
X136868519Y-113772697D01*
X136814839Y-113586500D01*
X136823465Y-113421470D01*
X137055279Y-113421470D01*
X137068813Y-113608026D01*
X137147091Y-113732374D01*
X137297316Y-113833418D01*
X137444437Y-113826786D01*
X137547765Y-113725674D01*
X137614504Y-113518959D01*
X137598186Y-113340885D01*
X137517086Y-113213522D01*
X137389478Y-113158939D01*
X137233636Y-113199207D01*
X137158125Y-113255091D01*
X137055279Y-113421470D01*
X136823465Y-113421470D01*
X136828342Y-113328186D01*
X136933063Y-113121619D01*
X137103073Y-112980735D01*
X137312440Y-112919472D01*
X137535236Y-112951765D01*
X137535236Y-112951765D01*
G37*
X137535236Y-112951765D02*
X137742115Y-113088115D01*
X137840429Y-113265205D01*
X137870858Y-113496434D01*
X137833669Y-113728774D01*
X137738026Y-113900026D01*
X137569686Y-114003403D01*
X137349851Y-114043614D01*
X137130315Y-114019350D01*
X136962874Y-113929299D01*
X136953877Y-113919875D01*
X136868519Y-113772697D01*
X136814839Y-113586500D01*
X136823465Y-113421470D01*
X137055279Y-113421470D01*
X137068813Y-113608026D01*
X137147091Y-113732374D01*
X137297316Y-113833418D01*
X137444437Y-113826786D01*
X137547765Y-113725674D01*
X137614504Y-113518959D01*
X137598186Y-113340885D01*
X137517086Y-113213522D01*
X137389478Y-113158939D01*
X137233636Y-113199207D01*
X137158125Y-113255091D01*
X137055279Y-113421470D01*
X136823465Y-113421470D01*
X136828342Y-113328186D01*
X136933063Y-113121619D01*
X137103073Y-112980735D01*
X137312440Y-112919472D01*
X137535236Y-112951765D01*
G36*
X136610090Y-112950743D02*
X136710316Y-113034160D01*
X136724500Y-113091796D01*
X136701048Y-113172830D01*
X136607667Y-113184936D01*
X136544394Y-113174303D01*
X136348308Y-113189522D01*
X136207997Y-113304461D01*
X136153026Y-113494576D01*
X136153000Y-113499250D01*
X136205838Y-113690695D01*
X136344643Y-113807486D01*
X136539852Y-113825077D01*
X136544394Y-113824196D01*
X136674049Y-113813228D01*
X136720893Y-113865376D01*
X136724500Y-113913587D01*
X136671649Y-114002005D01*
X136538605Y-114045369D01*
X136363629Y-114044425D01*
X136184980Y-113999918D01*
X136040920Y-113912594D01*
X136028473Y-113900026D01*
X135917354Y-113696714D01*
X135901258Y-113459866D01*
X135970743Y-113228166D01*
X136116364Y-113040298D01*
X136259064Y-112955388D01*
X136446637Y-112920665D01*
X136610090Y-112950743D01*
X136610090Y-112950743D01*
G37*
X136610090Y-112950743D02*
X136710316Y-113034160D01*
X136724500Y-113091796D01*
X136701048Y-113172830D01*
X136607667Y-113184936D01*
X136544394Y-113174303D01*
X136348308Y-113189522D01*
X136207997Y-113304461D01*
X136153026Y-113494576D01*
X136153000Y-113499250D01*
X136205838Y-113690695D01*
X136344643Y-113807486D01*
X136539852Y-113825077D01*
X136544394Y-113824196D01*
X136674049Y-113813228D01*
X136720893Y-113865376D01*
X136724500Y-113913587D01*
X136671649Y-114002005D01*
X136538605Y-114045369D01*
X136363629Y-114044425D01*
X136184980Y-113999918D01*
X136040920Y-113912594D01*
X136028473Y-113900026D01*
X135917354Y-113696714D01*
X135901258Y-113459866D01*
X135970743Y-113228166D01*
X136116364Y-113040298D01*
X136259064Y-112955388D01*
X136446637Y-112920665D01*
X136610090Y-112950743D01*
G36*
X135612229Y-112585815D02*
X135731006Y-112611746D01*
X135771248Y-112662273D01*
X135772000Y-112673750D01*
X135734603Y-112736530D01*
X135607447Y-112765127D01*
X135486250Y-112769000D01*
X135310537Y-112774522D01*
X135227314Y-112806407D01*
X135202115Y-112887631D01*
X135200500Y-112959500D01*
X135210530Y-113081650D01*
X135264884Y-113135950D01*
X135399958Y-113149699D01*
X135454500Y-113150000D01*
X135620676Y-113160650D01*
X135694119Y-113203695D01*
X135708500Y-113277000D01*
X135687199Y-113360088D01*
X135601108Y-113396809D01*
X135454500Y-113404000D01*
X135291633Y-113411522D01*
X135219232Y-113452288D01*
X135200900Y-113553593D01*
X135200500Y-113594500D01*
X135208783Y-113711641D01*
X135256610Y-113767123D01*
X135378447Y-113783923D01*
X135486250Y-113785000D01*
X135664821Y-113793309D01*
X135749262Y-113827813D01*
X135771890Y-113902876D01*
X135772000Y-113912000D01*
X135758098Y-113982932D01*
X135697030Y-114021260D01*
X135559751Y-114036665D01*
X135391000Y-114039000D01*
X135010000Y-114039000D01*
X135010000Y-112578500D01*
X135391000Y-112578500D01*
X135612229Y-112585815D01*
X135612229Y-112585815D01*
G37*
X135612229Y-112585815D02*
X135731006Y-112611746D01*
X135771248Y-112662273D01*
X135772000Y-112673750D01*
X135734603Y-112736530D01*
X135607447Y-112765127D01*
X135486250Y-112769000D01*
X135310537Y-112774522D01*
X135227314Y-112806407D01*
X135202115Y-112887631D01*
X135200500Y-112959500D01*
X135210530Y-113081650D01*
X135264884Y-113135950D01*
X135399958Y-113149699D01*
X135454500Y-113150000D01*
X135620676Y-113160650D01*
X135694119Y-113203695D01*
X135708500Y-113277000D01*
X135687199Y-113360088D01*
X135601108Y-113396809D01*
X135454500Y-113404000D01*
X135291633Y-113411522D01*
X135219232Y-113452288D01*
X135200900Y-113553593D01*
X135200500Y-113594500D01*
X135208783Y-113711641D01*
X135256610Y-113767123D01*
X135378447Y-113783923D01*
X135486250Y-113785000D01*
X135664821Y-113793309D01*
X135749262Y-113827813D01*
X135771890Y-113902876D01*
X135772000Y-113912000D01*
X135758098Y-113982932D01*
X135697030Y-114021260D01*
X135559751Y-114036665D01*
X135391000Y-114039000D01*
X135010000Y-114039000D01*
X135010000Y-112578500D01*
X135391000Y-112578500D01*
X135612229Y-112585815D01*
G36*
X134047343Y-112460936D02*
X134084538Y-112503980D01*
X134108061Y-112602734D01*
X134122538Y-112779298D01*
X134132596Y-113055774D01*
X134134726Y-113134125D01*
X134147486Y-113455801D01*
X134166927Y-113664670D01*
X134195110Y-113774838D01*
X134232125Y-113800875D01*
X134295958Y-113839849D01*
X134311500Y-113912000D01*
X134267742Y-114016332D01*
X134164211Y-114048084D01*
X134042522Y-114011160D01*
X133944289Y-113909462D01*
X133928928Y-113876116D01*
X133902145Y-113743234D01*
X133881192Y-113520452D01*
X133868961Y-113244836D01*
X133867000Y-113082366D01*
X133868830Y-112794300D01*
X133877358Y-112610200D01*
X133897140Y-112507046D01*
X133932730Y-112461823D01*
X133988683Y-112451512D01*
X133991851Y-112451500D01*
X134047343Y-112460936D01*
X134047343Y-112460936D01*
G37*
X134047343Y-112460936D02*
X134084538Y-112503980D01*
X134108061Y-112602734D01*
X134122538Y-112779298D01*
X134132596Y-113055774D01*
X134134726Y-113134125D01*
X134147486Y-113455801D01*
X134166927Y-113664670D01*
X134195110Y-113774838D01*
X134232125Y-113800875D01*
X134295958Y-113839849D01*
X134311500Y-113912000D01*
X134267742Y-114016332D01*
X134164211Y-114048084D01*
X134042522Y-114011160D01*
X133944289Y-113909462D01*
X133928928Y-113876116D01*
X133902145Y-113743234D01*
X133881192Y-113520452D01*
X133868961Y-113244836D01*
X133867000Y-113082366D01*
X133868830Y-112794300D01*
X133877358Y-112610200D01*
X133897140Y-112507046D01*
X133932730Y-112461823D01*
X133988683Y-112451512D01*
X133991851Y-112451500D01*
X134047343Y-112460936D01*
G36*
X133446984Y-112955960D02*
X133583245Y-113044499D01*
X133614674Y-113089629D01*
X133647153Y-113211876D01*
X133669544Y-113413844D01*
X133676500Y-113615249D01*
X133676500Y-114025348D01*
X133306581Y-114030556D01*
X133090325Y-114021209D01*
X132924863Y-113991379D01*
X132862081Y-113961181D01*
X132798982Y-113824932D01*
X132797478Y-113737308D01*
X133053978Y-113737308D01*
X133069830Y-113779467D01*
X133171498Y-113844606D01*
X133302232Y-113808569D01*
X133346300Y-113772300D01*
X133422019Y-113654089D01*
X133403248Y-113572966D01*
X133300075Y-113560205D01*
X133279625Y-113565607D01*
X133104554Y-113644548D01*
X133053978Y-113737308D01*
X132797478Y-113737308D01*
X132795958Y-113648796D01*
X132850941Y-113500213D01*
X132877083Y-113472202D01*
X132998536Y-113411950D01*
X133175197Y-113364223D01*
X133194583Y-113360868D01*
X133343495Y-113322721D01*
X133419848Y-113275828D01*
X133422500Y-113266698D01*
X133370011Y-113191272D01*
X133242862Y-113165129D01*
X133086532Y-113196364D01*
X133069200Y-113203790D01*
X132956953Y-113242737D01*
X132917915Y-113204040D01*
X132914500Y-113147066D01*
X132967371Y-113023929D01*
X133099864Y-112948889D01*
X133272796Y-112925162D01*
X133446984Y-112955960D01*
X133446984Y-112955960D01*
G37*
X133446984Y-112955960D02*
X133583245Y-113044499D01*
X133614674Y-113089629D01*
X133647153Y-113211876D01*
X133669544Y-113413844D01*
X133676500Y-113615249D01*
X133676500Y-114025348D01*
X133306581Y-114030556D01*
X133090325Y-114021209D01*
X132924863Y-113991379D01*
X132862081Y-113961181D01*
X132798982Y-113824932D01*
X132797478Y-113737308D01*
X133053978Y-113737308D01*
X133069830Y-113779467D01*
X133171498Y-113844606D01*
X133302232Y-113808569D01*
X133346300Y-113772300D01*
X133422019Y-113654089D01*
X133403248Y-113572966D01*
X133300075Y-113560205D01*
X133279625Y-113565607D01*
X133104554Y-113644548D01*
X133053978Y-113737308D01*
X132797478Y-113737308D01*
X132795958Y-113648796D01*
X132850941Y-113500213D01*
X132877083Y-113472202D01*
X132998536Y-113411950D01*
X133175197Y-113364223D01*
X133194583Y-113360868D01*
X133343495Y-113322721D01*
X133419848Y-113275828D01*
X133422500Y-113266698D01*
X133370011Y-113191272D01*
X133242862Y-113165129D01*
X133086532Y-113196364D01*
X133069200Y-113203790D01*
X132956953Y-113242737D01*
X132917915Y-113204040D01*
X132914500Y-113147066D01*
X132967371Y-113023929D01*
X133099864Y-112948889D01*
X133272796Y-112925162D01*
X133446984Y-112955960D01*
G36*
X132595569Y-112969658D02*
X132633333Y-113016790D01*
X132652747Y-113125875D01*
X132659764Y-113321895D01*
X132660500Y-113492424D01*
X132660500Y-114025348D01*
X132295375Y-114030223D01*
X132078590Y-114023187D01*
X131905700Y-113999909D01*
X131836394Y-113976727D01*
X131777989Y-113886405D01*
X131738690Y-113692817D01*
X131718328Y-113438927D01*
X131708362Y-113195496D01*
X131713039Y-113052328D01*
X131738410Y-112982975D01*
X131790530Y-112960992D01*
X131828059Y-112959500D01*
X131900658Y-112970865D01*
X131940964Y-113023924D01*
X131958302Y-113147117D01*
X131962000Y-113367970D01*
X131966682Y-113592928D01*
X131987199Y-113722832D01*
X132033256Y-113789484D01*
X132100036Y-113820252D01*
X132246914Y-113815089D01*
X132347414Y-113694563D01*
X132399377Y-113462367D01*
X132406500Y-113296613D01*
X132412419Y-113099084D01*
X132437842Y-112997786D01*
X132494265Y-112962204D01*
X132533500Y-112959500D01*
X132595569Y-112969658D01*
X132595569Y-112969658D01*
G37*
X132595569Y-112969658D02*
X132633333Y-113016790D01*
X132652747Y-113125875D01*
X132659764Y-113321895D01*
X132660500Y-113492424D01*
X132660500Y-114025348D01*
X132295375Y-114030223D01*
X132078590Y-114023187D01*
X131905700Y-113999909D01*
X131836394Y-113976727D01*
X131777989Y-113886405D01*
X131738690Y-113692817D01*
X131718328Y-113438927D01*
X131708362Y-113195496D01*
X131713039Y-113052328D01*
X131738410Y-112982975D01*
X131790530Y-112960992D01*
X131828059Y-112959500D01*
X131900658Y-112970865D01*
X131940964Y-113023924D01*
X131958302Y-113147117D01*
X131962000Y-113367970D01*
X131966682Y-113592928D01*
X131987199Y-113722832D01*
X132033256Y-113789484D01*
X132100036Y-113820252D01*
X132246914Y-113815089D01*
X132347414Y-113694563D01*
X132399377Y-113462367D01*
X132406500Y-113296613D01*
X132412419Y-113099084D01*
X132437842Y-112997786D01*
X132494265Y-112962204D01*
X132533500Y-112959500D01*
X132595569Y-112969658D01*
G36*
X131363156Y-112934530D02*
X131490788Y-113004136D01*
X131522144Y-113096869D01*
X131460465Y-113171755D01*
X131342875Y-113191112D01*
X131193521Y-113209309D01*
X131144204Y-113269897D01*
X131206527Y-113350423D01*
X131247977Y-113374729D01*
X131472197Y-113525540D01*
X131574505Y-113683750D01*
X131552969Y-113844690D01*
X131481214Y-113939214D01*
X131362906Y-113997020D01*
X131170936Y-114032734D01*
X130943157Y-114046379D01*
X130717423Y-114037978D01*
X130531585Y-114007555D01*
X130423496Y-113955133D01*
X130413043Y-113938556D01*
X130393501Y-113826567D01*
X130379632Y-113630535D01*
X130374500Y-113398806D01*
X130378005Y-113166857D01*
X130393782Y-113034534D01*
X130429723Y-112974538D01*
X130493719Y-112959571D01*
X130501500Y-112959500D01*
X130569212Y-112971910D01*
X130607498Y-113027543D01*
X130624537Y-113153997D01*
X130628506Y-113378871D01*
X130628509Y-113388125D01*
X130628519Y-113816750D01*
X130940562Y-113816750D01*
X131174462Y-113805408D01*
X131284537Y-113770706D01*
X131271983Y-113711624D01*
X131153651Y-113635119D01*
X130940161Y-113493442D01*
X130842488Y-113342065D01*
X130845432Y-113180328D01*
X130943003Y-113026972D01*
X131118757Y-112936220D01*
X131331378Y-112927691D01*
X131363156Y-112934530D01*
X131363156Y-112934530D01*
G37*
X131363156Y-112934530D02*
X131490788Y-113004136D01*
X131522144Y-113096869D01*
X131460465Y-113171755D01*
X131342875Y-113191112D01*
X131193521Y-113209309D01*
X131144204Y-113269897D01*
X131206527Y-113350423D01*
X131247977Y-113374729D01*
X131472197Y-113525540D01*
X131574505Y-113683750D01*
X131552969Y-113844690D01*
X131481214Y-113939214D01*
X131362906Y-113997020D01*
X131170936Y-114032734D01*
X130943157Y-114046379D01*
X130717423Y-114037978D01*
X130531585Y-114007555D01*
X130423496Y-113955133D01*
X130413043Y-113938556D01*
X130393501Y-113826567D01*
X130379632Y-113630535D01*
X130374500Y-113398806D01*
X130378005Y-113166857D01*
X130393782Y-113034534D01*
X130429723Y-112974538D01*
X130493719Y-112959571D01*
X130501500Y-112959500D01*
X130569212Y-112971910D01*
X130607498Y-113027543D01*
X130624537Y-113153997D01*
X130628506Y-113378871D01*
X130628509Y-113388125D01*
X130628519Y-113816750D01*
X130940562Y-113816750D01*
X131174462Y-113805408D01*
X131284537Y-113770706D01*
X131271983Y-113711624D01*
X131153651Y-113635119D01*
X130940161Y-113493442D01*
X130842488Y-113342065D01*
X130845432Y-113180328D01*
X130943003Y-113026972D01*
X131118757Y-112936220D01*
X131331378Y-112927691D01*
X131363156Y-112934530D01*
G36*
X129201869Y-112593339D02*
X129265679Y-112652880D01*
X129331674Y-112779657D01*
X129413551Y-112996203D01*
X129456866Y-113121985D01*
X129641327Y-113665471D01*
X129833288Y-113122166D01*
X129930796Y-112858844D01*
X130005730Y-112695353D01*
X130071489Y-112609723D01*
X130141470Y-112579987D01*
X130164743Y-112578680D01*
X130304237Y-112578500D01*
X130145032Y-113007125D01*
X130046481Y-113276868D01*
X129949548Y-113549324D01*
X129884767Y-113737375D01*
X129810133Y-113924629D01*
X129734707Y-114015608D01*
X129637588Y-114039000D01*
X129520463Y-114003594D01*
X129446131Y-113877697D01*
X129431934Y-113832625D01*
X129381980Y-113677189D01*
X129301648Y-113445855D01*
X129205885Y-113181359D01*
X129176546Y-113102375D01*
X128980694Y-112578500D01*
X129126550Y-112578500D01*
X129201869Y-112593339D01*
X129201869Y-112593339D01*
G37*
X129201869Y-112593339D02*
X129265679Y-112652880D01*
X129331674Y-112779657D01*
X129413551Y-112996203D01*
X129456866Y-113121985D01*
X129641327Y-113665471D01*
X129833288Y-113122166D01*
X129930796Y-112858844D01*
X130005730Y-112695353D01*
X130071489Y-112609723D01*
X130141470Y-112579987D01*
X130164743Y-112578680D01*
X130304237Y-112578500D01*
X130145032Y-113007125D01*
X130046481Y-113276868D01*
X129949548Y-113549324D01*
X129884767Y-113737375D01*
X129810133Y-113924629D01*
X129734707Y-114015608D01*
X129637588Y-114039000D01*
X129520463Y-114003594D01*
X129446131Y-113877697D01*
X129431934Y-113832625D01*
X129381980Y-113677189D01*
X129301648Y-113445855D01*
X129205885Y-113181359D01*
X129176546Y-113102375D01*
X128980694Y-112578500D01*
X129126550Y-112578500D01*
X129201869Y-112593339D01*
G36*
X128268395Y-112458780D02*
X128304139Y-112494434D01*
X128326075Y-112579180D01*
X128337547Y-112733735D01*
X128341898Y-112978818D01*
X128342500Y-113238424D01*
X128342500Y-114025348D01*
X127971445Y-114030572D01*
X127727231Y-114018380D01*
X127542263Y-113979303D01*
X127484141Y-113950792D01*
X127406616Y-113849994D01*
X127369543Y-113673932D01*
X127363071Y-113534227D01*
X127364007Y-113504555D01*
X127580500Y-113504555D01*
X127623544Y-113677916D01*
X127730075Y-113794937D01*
X127866184Y-113836180D01*
X127997967Y-113782210D01*
X128021557Y-113757398D01*
X128074445Y-113614596D01*
X128069388Y-113429935D01*
X128014088Y-113263845D01*
X127949342Y-113190823D01*
X127824329Y-113176133D01*
X127697379Y-113251377D01*
X127605045Y-113385460D01*
X127580500Y-113504555D01*
X127364007Y-113504555D01*
X127369672Y-113325072D01*
X127409687Y-113190826D01*
X127501931Y-113080237D01*
X127543235Y-113043467D01*
X127713671Y-112931972D01*
X127877315Y-112915026D01*
X127908360Y-112920297D01*
X128023778Y-112934880D01*
X128075050Y-112895386D01*
X128088136Y-112770629D01*
X128088500Y-112703912D01*
X128099293Y-112538371D01*
X128142852Y-112465492D01*
X128215500Y-112451500D01*
X128268395Y-112458780D01*
X128268395Y-112458780D01*
G37*
X128268395Y-112458780D02*
X128304139Y-112494434D01*
X128326075Y-112579180D01*
X128337547Y-112733735D01*
X128341898Y-112978818D01*
X128342500Y-113238424D01*
X128342500Y-114025348D01*
X127971445Y-114030572D01*
X127727231Y-114018380D01*
X127542263Y-113979303D01*
X127484141Y-113950792D01*
X127406616Y-113849994D01*
X127369543Y-113673932D01*
X127363071Y-113534227D01*
X127364007Y-113504555D01*
X127580500Y-113504555D01*
X127623544Y-113677916D01*
X127730075Y-113794937D01*
X127866184Y-113836180D01*
X127997967Y-113782210D01*
X128021557Y-113757398D01*
X128074445Y-113614596D01*
X128069388Y-113429935D01*
X128014088Y-113263845D01*
X127949342Y-113190823D01*
X127824329Y-113176133D01*
X127697379Y-113251377D01*
X127605045Y-113385460D01*
X127580500Y-113504555D01*
X127364007Y-113504555D01*
X127369672Y-113325072D01*
X127409687Y-113190826D01*
X127501931Y-113080237D01*
X127543235Y-113043467D01*
X127713671Y-112931972D01*
X127877315Y-112915026D01*
X127908360Y-112920297D01*
X128023778Y-112934880D01*
X128075050Y-112895386D01*
X128088136Y-112770629D01*
X128088500Y-112703912D01*
X128099293Y-112538371D01*
X128142852Y-112465492D01*
X128215500Y-112451500D01*
X128268395Y-112458780D01*
G36*
X127031118Y-112984953D02*
X127131189Y-113103567D01*
X127185119Y-113319751D01*
X127199500Y-113606636D01*
X127195884Y-113836366D01*
X127179654Y-113966670D01*
X127142733Y-114025042D01*
X127077046Y-114038976D01*
X127072500Y-114039000D01*
X127000318Y-114024406D01*
X126961846Y-113960928D01*
X126946728Y-113819015D01*
X126944527Y-113673875D01*
X126930222Y-113397178D01*
X126884885Y-113230687D01*
X126802195Y-113160034D01*
X126718425Y-113159960D01*
X126608164Y-113240443D01*
X126538473Y-113434057D01*
X126507987Y-113744739D01*
X126507329Y-113769125D01*
X126488061Y-113953464D01*
X126436832Y-114032528D01*
X126405750Y-114039000D01*
X126357968Y-114015845D01*
X126328797Y-113931591D01*
X126314291Y-113764058D01*
X126310500Y-113503497D01*
X126310500Y-112967994D01*
X126516875Y-112961017D01*
X126717239Y-112954892D01*
X126878503Y-112950824D01*
X127031118Y-112984953D01*
X127031118Y-112984953D01*
G37*
X127031118Y-112984953D02*
X127131189Y-113103567D01*
X127185119Y-113319751D01*
X127199500Y-113606636D01*
X127195884Y-113836366D01*
X127179654Y-113966670D01*
X127142733Y-114025042D01*
X127077046Y-114038976D01*
X127072500Y-114039000D01*
X127000318Y-114024406D01*
X126961846Y-113960928D01*
X126946728Y-113819015D01*
X126944527Y-113673875D01*
X126930222Y-113397178D01*
X126884885Y-113230687D01*
X126802195Y-113160034D01*
X126718425Y-113159960D01*
X126608164Y-113240443D01*
X126538473Y-113434057D01*
X126507987Y-113744739D01*
X126507329Y-113769125D01*
X126488061Y-113953464D01*
X126436832Y-114032528D01*
X126405750Y-114039000D01*
X126357968Y-114015845D01*
X126328797Y-113931591D01*
X126314291Y-113764058D01*
X126310500Y-113503497D01*
X126310500Y-112967994D01*
X126516875Y-112961017D01*
X126717239Y-112954892D01*
X126878503Y-112950824D01*
X127031118Y-112984953D01*
G36*
X125826984Y-112955960D02*
X125963245Y-113044499D01*
X125994674Y-113089629D01*
X126027153Y-113211876D01*
X126049544Y-113413844D01*
X126056500Y-113615249D01*
X126056500Y-114025348D01*
X125686581Y-114030556D01*
X125470325Y-114021209D01*
X125304863Y-113991379D01*
X125242081Y-113961181D01*
X125178982Y-113824932D01*
X125177478Y-113737308D01*
X125433978Y-113737308D01*
X125449830Y-113779467D01*
X125551498Y-113844606D01*
X125682232Y-113808569D01*
X125726300Y-113772300D01*
X125802019Y-113654089D01*
X125783248Y-113572966D01*
X125680075Y-113560205D01*
X125659625Y-113565607D01*
X125484554Y-113644548D01*
X125433978Y-113737308D01*
X125177478Y-113737308D01*
X125175958Y-113648796D01*
X125230941Y-113500213D01*
X125257083Y-113472202D01*
X125378536Y-113411950D01*
X125555197Y-113364223D01*
X125574583Y-113360868D01*
X125723495Y-113322721D01*
X125799848Y-113275828D01*
X125802500Y-113266698D01*
X125750011Y-113191272D01*
X125622862Y-113165129D01*
X125466532Y-113196364D01*
X125449200Y-113203790D01*
X125336953Y-113242737D01*
X125297915Y-113204040D01*
X125294500Y-113147066D01*
X125347371Y-113023929D01*
X125479864Y-112948889D01*
X125652796Y-112925162D01*
X125826984Y-112955960D01*
X125826984Y-112955960D01*
G37*
X125826984Y-112955960D02*
X125963245Y-113044499D01*
X125994674Y-113089629D01*
X126027153Y-113211876D01*
X126049544Y-113413844D01*
X126056500Y-113615249D01*
X126056500Y-114025348D01*
X125686581Y-114030556D01*
X125470325Y-114021209D01*
X125304863Y-113991379D01*
X125242081Y-113961181D01*
X125178982Y-113824932D01*
X125177478Y-113737308D01*
X125433978Y-113737308D01*
X125449830Y-113779467D01*
X125551498Y-113844606D01*
X125682232Y-113808569D01*
X125726300Y-113772300D01*
X125802019Y-113654089D01*
X125783248Y-113572966D01*
X125680075Y-113560205D01*
X125659625Y-113565607D01*
X125484554Y-113644548D01*
X125433978Y-113737308D01*
X125177478Y-113737308D01*
X125175958Y-113648796D01*
X125230941Y-113500213D01*
X125257083Y-113472202D01*
X125378536Y-113411950D01*
X125555197Y-113364223D01*
X125574583Y-113360868D01*
X125723495Y-113322721D01*
X125799848Y-113275828D01*
X125802500Y-113266698D01*
X125750011Y-113191272D01*
X125622862Y-113165129D01*
X125466532Y-113196364D01*
X125449200Y-113203790D01*
X125336953Y-113242737D01*
X125297915Y-113204040D01*
X125294500Y-113147066D01*
X125347371Y-113023929D01*
X125479864Y-112948889D01*
X125652796Y-112925162D01*
X125826984Y-112955960D01*
G36*
X124300618Y-112984953D02*
X124400689Y-113103567D01*
X124454619Y-113319751D01*
X124469000Y-113606636D01*
X124465384Y-113836366D01*
X124449154Y-113966670D01*
X124412233Y-114025042D01*
X124346546Y-114038976D01*
X124342000Y-114039000D01*
X124269818Y-114024406D01*
X124231346Y-113960928D01*
X124216228Y-113819015D01*
X124214027Y-113673875D01*
X124200290Y-113398048D01*
X124156583Y-113233570D01*
X124076477Y-113166989D01*
X123976489Y-113176833D01*
X123864441Y-113277973D01*
X123795053Y-113492591D01*
X123770520Y-113813781D01*
X123770500Y-113824687D01*
X123748229Y-113985897D01*
X123678040Y-114038959D01*
X123675250Y-114039000D01*
X123627468Y-114015845D01*
X123598297Y-113931591D01*
X123583791Y-113764058D01*
X123580000Y-113503497D01*
X123580000Y-112967994D01*
X123786375Y-112961017D01*
X123986739Y-112954892D01*
X124148003Y-112950824D01*
X124300618Y-112984953D01*
X124300618Y-112984953D01*
G37*
X124300618Y-112984953D02*
X124400689Y-113103567D01*
X124454619Y-113319751D01*
X124469000Y-113606636D01*
X124465384Y-113836366D01*
X124449154Y-113966670D01*
X124412233Y-114025042D01*
X124346546Y-114038976D01*
X124342000Y-114039000D01*
X124269818Y-114024406D01*
X124231346Y-113960928D01*
X124216228Y-113819015D01*
X124214027Y-113673875D01*
X124200290Y-113398048D01*
X124156583Y-113233570D01*
X124076477Y-113166989D01*
X123976489Y-113176833D01*
X123864441Y-113277973D01*
X123795053Y-113492591D01*
X123770520Y-113813781D01*
X123770500Y-113824687D01*
X123748229Y-113985897D01*
X123678040Y-114038959D01*
X123675250Y-114039000D01*
X123627468Y-114015845D01*
X123598297Y-113931591D01*
X123583791Y-113764058D01*
X123580000Y-113503497D01*
X123580000Y-112967994D01*
X123786375Y-112961017D01*
X123986739Y-112954892D01*
X124148003Y-112950824D01*
X124300618Y-112984953D01*
G36*
X123119005Y-112999687D02*
X123172764Y-113043386D01*
X123295423Y-113174545D01*
X123348460Y-113323032D01*
X123357750Y-113487085D01*
X123320034Y-113761765D01*
X123202791Y-113939487D01*
X122999870Y-114026945D01*
X122850977Y-114039000D01*
X122626602Y-114010222D01*
X122467108Y-113911417D01*
X122448068Y-113892032D01*
X122330197Y-113684908D01*
X122316927Y-113499250D01*
X122564000Y-113499250D01*
X122609300Y-113665222D01*
X122719374Y-113797383D01*
X122849750Y-113848500D01*
X122961311Y-113806863D01*
X123035714Y-113748714D01*
X123117480Y-113596271D01*
X123117914Y-113420202D01*
X123049953Y-113262158D01*
X122926535Y-113163793D01*
X122849750Y-113150000D01*
X122713954Y-113205366D01*
X122605822Y-113339902D01*
X122564000Y-113499250D01*
X122316927Y-113499250D01*
X122313575Y-113452360D01*
X122386585Y-113227183D01*
X122537609Y-113042175D01*
X122755029Y-112930133D01*
X122791764Y-112921816D01*
X122962423Y-112919061D01*
X123119005Y-112999687D01*
X123119005Y-112999687D01*
G37*
X123119005Y-112999687D02*
X123172764Y-113043386D01*
X123295423Y-113174545D01*
X123348460Y-113323032D01*
X123357750Y-113487085D01*
X123320034Y-113761765D01*
X123202791Y-113939487D01*
X122999870Y-114026945D01*
X122850977Y-114039000D01*
X122626602Y-114010222D01*
X122467108Y-113911417D01*
X122448068Y-113892032D01*
X122330197Y-113684908D01*
X122316927Y-113499250D01*
X122564000Y-113499250D01*
X122609300Y-113665222D01*
X122719374Y-113797383D01*
X122849750Y-113848500D01*
X122961311Y-113806863D01*
X123035714Y-113748714D01*
X123117480Y-113596271D01*
X123117914Y-113420202D01*
X123049953Y-113262158D01*
X122926535Y-113163793D01*
X122849750Y-113150000D01*
X122713954Y-113205366D01*
X122605822Y-113339902D01*
X122564000Y-113499250D01*
X122316927Y-113499250D01*
X122313575Y-113452360D01*
X122386585Y-113227183D01*
X122537609Y-113042175D01*
X122755029Y-112930133D01*
X122791764Y-112921816D01*
X122962423Y-112919061D01*
X123119005Y-112999687D01*
G36*
X122061230Y-112972364D02*
X122099549Y-113029665D01*
X122116091Y-113159465D01*
X122119500Y-113372250D01*
X122125858Y-113603767D01*
X122148580Y-113732446D01*
X122193132Y-113781977D01*
X122214750Y-113785000D01*
X122292321Y-113837939D01*
X122310000Y-113912000D01*
X122260412Y-114007240D01*
X122143471Y-114042193D01*
X122006912Y-114010275D01*
X121941700Y-113962800D01*
X121900212Y-113856965D01*
X121873491Y-113654116D01*
X121865500Y-113423050D01*
X121868659Y-113183473D01*
X121883005Y-113044192D01*
X121915836Y-112978561D01*
X121974453Y-112959936D01*
X121992500Y-112959500D01*
X122061230Y-112972364D01*
X122061230Y-112972364D01*
G37*
X122061230Y-112972364D02*
X122099549Y-113029665D01*
X122116091Y-113159465D01*
X122119500Y-113372250D01*
X122125858Y-113603767D01*
X122148580Y-113732446D01*
X122193132Y-113781977D01*
X122214750Y-113785000D01*
X122292321Y-113837939D01*
X122310000Y-113912000D01*
X122260412Y-114007240D01*
X122143471Y-114042193D01*
X122006912Y-114010275D01*
X121941700Y-113962800D01*
X121900212Y-113856965D01*
X121873491Y-113654116D01*
X121865500Y-113423050D01*
X121868659Y-113183473D01*
X121883005Y-113044192D01*
X121915836Y-112978561D01*
X121974453Y-112959936D01*
X121992500Y-112959500D01*
X122061230Y-112972364D01*
G36*
X121520656Y-112934530D02*
X121648288Y-113004136D01*
X121679644Y-113096869D01*
X121617965Y-113171755D01*
X121500375Y-113191112D01*
X121351021Y-113209309D01*
X121301704Y-113269897D01*
X121364027Y-113350423D01*
X121405477Y-113374729D01*
X121629697Y-113525540D01*
X121732005Y-113683750D01*
X121710469Y-113844690D01*
X121638714Y-113939214D01*
X121520406Y-113997020D01*
X121328436Y-114032734D01*
X121100657Y-114046379D01*
X120874923Y-114037978D01*
X120689085Y-114007555D01*
X120580996Y-113955133D01*
X120570543Y-113938556D01*
X120551001Y-113826567D01*
X120537132Y-113630535D01*
X120532000Y-113398806D01*
X120535505Y-113166857D01*
X120551282Y-113034534D01*
X120587223Y-112974538D01*
X120651219Y-112959571D01*
X120659000Y-112959500D01*
X120726712Y-112971910D01*
X120764998Y-113027543D01*
X120782037Y-113153997D01*
X120786006Y-113378871D01*
X120786009Y-113388125D01*
X120786019Y-113816750D01*
X121098062Y-113816750D01*
X121331962Y-113805408D01*
X121442037Y-113770706D01*
X121429483Y-113711624D01*
X121311151Y-113635119D01*
X121097661Y-113493442D01*
X120999988Y-113342065D01*
X121002932Y-113180328D01*
X121100503Y-113026972D01*
X121276257Y-112936220D01*
X121488878Y-112927691D01*
X121520656Y-112934530D01*
X121520656Y-112934530D01*
G37*
X121520656Y-112934530D02*
X121648288Y-113004136D01*
X121679644Y-113096869D01*
X121617965Y-113171755D01*
X121500375Y-113191112D01*
X121351021Y-113209309D01*
X121301704Y-113269897D01*
X121364027Y-113350423D01*
X121405477Y-113374729D01*
X121629697Y-113525540D01*
X121732005Y-113683750D01*
X121710469Y-113844690D01*
X121638714Y-113939214D01*
X121520406Y-113997020D01*
X121328436Y-114032734D01*
X121100657Y-114046379D01*
X120874923Y-114037978D01*
X120689085Y-114007555D01*
X120580996Y-113955133D01*
X120570543Y-113938556D01*
X120551001Y-113826567D01*
X120537132Y-113630535D01*
X120532000Y-113398806D01*
X120535505Y-113166857D01*
X120551282Y-113034534D01*
X120587223Y-112974538D01*
X120651219Y-112959571D01*
X120659000Y-112959500D01*
X120726712Y-112971910D01*
X120764998Y-113027543D01*
X120782037Y-113153997D01*
X120786006Y-113378871D01*
X120786009Y-113388125D01*
X120786019Y-113816750D01*
X121098062Y-113816750D01*
X121331962Y-113805408D01*
X121442037Y-113770706D01*
X121429483Y-113711624D01*
X121311151Y-113635119D01*
X121097661Y-113493442D01*
X120999988Y-113342065D01*
X121002932Y-113180328D01*
X121100503Y-113026972D01*
X121276257Y-112936220D01*
X121488878Y-112927691D01*
X121520656Y-112934530D01*
G36*
X119363170Y-112594752D02*
X119427624Y-112658245D01*
X119496082Y-112791079D01*
X119581899Y-113015356D01*
X119621447Y-113128020D01*
X119811852Y-113677541D01*
X119994520Y-113128020D01*
X120085314Y-112865534D01*
X120154430Y-112702222D01*
X120215740Y-112615337D01*
X120283117Y-112582129D01*
X120329637Y-112578500D01*
X120437083Y-112597024D01*
X120443594Y-112668478D01*
X120435452Y-112689625D01*
X120382203Y-112823967D01*
X120302991Y-113032240D01*
X120210937Y-113278921D01*
X120119160Y-113528483D01*
X120040780Y-113745401D01*
X119988916Y-113894149D01*
X119978160Y-113927875D01*
X119895134Y-114017820D01*
X119804998Y-114039000D01*
X119686550Y-113997571D01*
X119605430Y-113856936D01*
X119597160Y-113832625D01*
X119544065Y-113676748D01*
X119462253Y-113444733D01*
X119366943Y-113179600D01*
X119338847Y-113102375D01*
X119147682Y-112578500D01*
X119289362Y-112578500D01*
X119363170Y-112594752D01*
X119363170Y-112594752D01*
G37*
X119363170Y-112594752D02*
X119427624Y-112658245D01*
X119496082Y-112791079D01*
X119581899Y-113015356D01*
X119621447Y-113128020D01*
X119811852Y-113677541D01*
X119994520Y-113128020D01*
X120085314Y-112865534D01*
X120154430Y-112702222D01*
X120215740Y-112615337D01*
X120283117Y-112582129D01*
X120329637Y-112578500D01*
X120437083Y-112597024D01*
X120443594Y-112668478D01*
X120435452Y-112689625D01*
X120382203Y-112823967D01*
X120302991Y-113032240D01*
X120210937Y-113278921D01*
X120119160Y-113528483D01*
X120040780Y-113745401D01*
X119988916Y-113894149D01*
X119978160Y-113927875D01*
X119895134Y-114017820D01*
X119804998Y-114039000D01*
X119686550Y-113997571D01*
X119605430Y-113856936D01*
X119597160Y-113832625D01*
X119544065Y-113676748D01*
X119462253Y-113444733D01*
X119366943Y-113179600D01*
X119338847Y-113102375D01*
X119147682Y-112578500D01*
X119289362Y-112578500D01*
X119363170Y-112594752D01*
G36*
X109242696Y-107420534D02*
X109424861Y-107489951D01*
X109681096Y-107611921D01*
X109995668Y-107777394D01*
X110352847Y-107977319D01*
X110736902Y-108202646D01*
X111132101Y-108444325D01*
X111522712Y-108693304D01*
X111893005Y-108940534D01*
X112227249Y-109176963D01*
X112264302Y-109204263D01*
X112526078Y-109396742D01*
X112762873Y-109568393D01*
X112949630Y-109701216D01*
X113061293Y-109777210D01*
X113065313Y-109779727D01*
X113114962Y-109803469D01*
X113175876Y-109810769D01*
X113261720Y-109796040D01*
X113386158Y-109753695D01*
X113562858Y-109678146D01*
X113805484Y-109563806D01*
X114127702Y-109405086D01*
X114543177Y-109196399D01*
X114760285Y-109086684D01*
X115184273Y-108871959D01*
X115585093Y-108668487D01*
X115944523Y-108485555D01*
X116244343Y-108332451D01*
X116466331Y-108218460D01*
X116588582Y-108154831D01*
X116753284Y-108069538D01*
X116864694Y-108015909D01*
X116890207Y-108006500D01*
X116913527Y-108053640D01*
X116902174Y-108145398D01*
X116865534Y-108207278D01*
X116864875Y-108207583D01*
X116809281Y-108260083D01*
X116684897Y-108392404D01*
X116506304Y-108588568D01*
X116288082Y-108832591D01*
X116092384Y-109054250D01*
X115842419Y-109338511D01*
X115610940Y-109601004D01*
X115415475Y-109821907D01*
X115273553Y-109981400D01*
X115214331Y-110047117D01*
X115061145Y-110214485D01*
X115328436Y-110985962D01*
X115426035Y-111277844D01*
X115501965Y-111524841D01*
X115549442Y-111703302D01*
X115561680Y-111789578D01*
X115560002Y-111793164D01*
X115498004Y-111772279D01*
X115359761Y-111687268D01*
X115168372Y-111553122D01*
X115027763Y-111447719D01*
X114772305Y-111251615D01*
X114458523Y-111010752D01*
X114128841Y-110757696D01*
X113864500Y-110554802D01*
X113197750Y-110043056D01*
X112562750Y-110667177D01*
X111914500Y-111278939D01*
X111301751Y-111800544D01*
X110697104Y-112252166D01*
X110073163Y-112653979D01*
X109402532Y-113026158D01*
X109260750Y-113098632D01*
X108332294Y-113506916D01*
X107405051Y-113795212D01*
X106485342Y-113962212D01*
X105579483Y-114006606D01*
X105038000Y-113973090D01*
X104322356Y-113839349D01*
X103660242Y-113592773D01*
X103045489Y-113230336D01*
X102471930Y-112749010D01*
X102402475Y-112679980D01*
X102143666Y-112396609D01*
X101907400Y-112098185D01*
X101709221Y-111808231D01*
X101564673Y-111550270D01*
X101489300Y-111347826D01*
X101482000Y-111286968D01*
X101529154Y-111190438D01*
X101647691Y-111065025D01*
X101706204Y-111016953D01*
X101930409Y-110845944D01*
X101735822Y-110727608D01*
X101556876Y-110585352D01*
X101495825Y-110437369D01*
X101544465Y-110262831D01*
X101549204Y-110253828D01*
X101628312Y-110152648D01*
X101770842Y-110007755D01*
X101948944Y-109843473D01*
X102134763Y-109684128D01*
X102300449Y-109554046D01*
X102418149Y-109477551D01*
X102450107Y-109467000D01*
X102487497Y-109520924D01*
X102498000Y-109610077D01*
X102515108Y-109742843D01*
X102559862Y-109950885D01*
X102619640Y-110178507D01*
X102865003Y-110820858D01*
X103208459Y-111392825D01*
X103639717Y-111885272D01*
X104148493Y-112289064D01*
X104724497Y-112595062D01*
X105357442Y-112794133D01*
X105617458Y-112840808D01*
X105926056Y-112878236D01*
X106171660Y-112886518D01*
X106415197Y-112864309D01*
X106682154Y-112817300D01*
X107350065Y-112625229D01*
X107948013Y-112328712D01*
X108469746Y-111933096D01*
X108909009Y-111443728D01*
X109259550Y-110865953D01*
X109428146Y-110469634D01*
X109518983Y-110202254D01*
X109575057Y-109974757D01*
X109604304Y-109737778D01*
X109614659Y-109441954D01*
X109615291Y-109305552D01*
X109608606Y-108957941D01*
X109583833Y-108688033D01*
X109533891Y-108447006D01*
X109453838Y-108192147D01*
X109362718Y-107947579D01*
X109273164Y-107734041D01*
X109203193Y-107594217D01*
X109197898Y-107585828D01*
X109143907Y-107471553D01*
X109150330Y-107412722D01*
X109242696Y-107420534D01*
X109242696Y-107420534D01*
G37*
X109242696Y-107420534D02*
X109424861Y-107489951D01*
X109681096Y-107611921D01*
X109995668Y-107777394D01*
X110352847Y-107977319D01*
X110736902Y-108202646D01*
X111132101Y-108444325D01*
X111522712Y-108693304D01*
X111893005Y-108940534D01*
X112227249Y-109176963D01*
X112264302Y-109204263D01*
X112526078Y-109396742D01*
X112762873Y-109568393D01*
X112949630Y-109701216D01*
X113061293Y-109777210D01*
X113065313Y-109779727D01*
X113114962Y-109803469D01*
X113175876Y-109810769D01*
X113261720Y-109796040D01*
X113386158Y-109753695D01*
X113562858Y-109678146D01*
X113805484Y-109563806D01*
X114127702Y-109405086D01*
X114543177Y-109196399D01*
X114760285Y-109086684D01*
X115184273Y-108871959D01*
X115585093Y-108668487D01*
X115944523Y-108485555D01*
X116244343Y-108332451D01*
X116466331Y-108218460D01*
X116588582Y-108154831D01*
X116753284Y-108069538D01*
X116864694Y-108015909D01*
X116890207Y-108006500D01*
X116913527Y-108053640D01*
X116902174Y-108145398D01*
X116865534Y-108207278D01*
X116864875Y-108207583D01*
X116809281Y-108260083D01*
X116684897Y-108392404D01*
X116506304Y-108588568D01*
X116288082Y-108832591D01*
X116092384Y-109054250D01*
X115842419Y-109338511D01*
X115610940Y-109601004D01*
X115415475Y-109821907D01*
X115273553Y-109981400D01*
X115214331Y-110047117D01*
X115061145Y-110214485D01*
X115328436Y-110985962D01*
X115426035Y-111277844D01*
X115501965Y-111524841D01*
X115549442Y-111703302D01*
X115561680Y-111789578D01*
X115560002Y-111793164D01*
X115498004Y-111772279D01*
X115359761Y-111687268D01*
X115168372Y-111553122D01*
X115027763Y-111447719D01*
X114772305Y-111251615D01*
X114458523Y-111010752D01*
X114128841Y-110757696D01*
X113864500Y-110554802D01*
X113197750Y-110043056D01*
X112562750Y-110667177D01*
X111914500Y-111278939D01*
X111301751Y-111800544D01*
X110697104Y-112252166D01*
X110073163Y-112653979D01*
X109402532Y-113026158D01*
X109260750Y-113098632D01*
X108332294Y-113506916D01*
X107405051Y-113795212D01*
X106485342Y-113962212D01*
X105579483Y-114006606D01*
X105038000Y-113973090D01*
X104322356Y-113839349D01*
X103660242Y-113592773D01*
X103045489Y-113230336D01*
X102471930Y-112749010D01*
X102402475Y-112679980D01*
X102143666Y-112396609D01*
X101907400Y-112098185D01*
X101709221Y-111808231D01*
X101564673Y-111550270D01*
X101489300Y-111347826D01*
X101482000Y-111286968D01*
X101529154Y-111190438D01*
X101647691Y-111065025D01*
X101706204Y-111016953D01*
X101930409Y-110845944D01*
X101735822Y-110727608D01*
X101556876Y-110585352D01*
X101495825Y-110437369D01*
X101544465Y-110262831D01*
X101549204Y-110253828D01*
X101628312Y-110152648D01*
X101770842Y-110007755D01*
X101948944Y-109843473D01*
X102134763Y-109684128D01*
X102300449Y-109554046D01*
X102418149Y-109477551D01*
X102450107Y-109467000D01*
X102487497Y-109520924D01*
X102498000Y-109610077D01*
X102515108Y-109742843D01*
X102559862Y-109950885D01*
X102619640Y-110178507D01*
X102865003Y-110820858D01*
X103208459Y-111392825D01*
X103639717Y-111885272D01*
X104148493Y-112289064D01*
X104724497Y-112595062D01*
X105357442Y-112794133D01*
X105617458Y-112840808D01*
X105926056Y-112878236D01*
X106171660Y-112886518D01*
X106415197Y-112864309D01*
X106682154Y-112817300D01*
X107350065Y-112625229D01*
X107948013Y-112328712D01*
X108469746Y-111933096D01*
X108909009Y-111443728D01*
X109259550Y-110865953D01*
X109428146Y-110469634D01*
X109518983Y-110202254D01*
X109575057Y-109974757D01*
X109604304Y-109737778D01*
X109614659Y-109441954D01*
X109615291Y-109305552D01*
X109608606Y-108957941D01*
X109583833Y-108688033D01*
X109533891Y-108447006D01*
X109453838Y-108192147D01*
X109362718Y-107947579D01*
X109273164Y-107734041D01*
X109203193Y-107594217D01*
X109197898Y-107585828D01*
X109143907Y-107471553D01*
X109150330Y-107412722D01*
X109242696Y-107420534D01*
G36*
X141783054Y-112982378D02*
X141804500Y-113012066D01*
X141780702Y-113105155D01*
X141717921Y-113282471D01*
X141629071Y-113512330D01*
X141527067Y-113763048D01*
X141424825Y-114002941D01*
X141335260Y-114200325D01*
X141271287Y-114323515D01*
X141267490Y-114329480D01*
X141158179Y-114428804D01*
X141015922Y-114482263D01*
X140882248Y-114484762D01*
X140798689Y-114431203D01*
X140788500Y-114388250D01*
X140841576Y-114310707D01*
X140916861Y-114293000D01*
X141062281Y-114244730D01*
X141127322Y-114105738D01*
X141110599Y-113884744D01*
X141023717Y-113621084D01*
X140905342Y-113331860D01*
X140834776Y-113140369D01*
X140808996Y-113027962D01*
X140824977Y-112975990D01*
X140879694Y-112965804D01*
X140918166Y-112970181D01*
X141022269Y-113020808D01*
X141105334Y-113154428D01*
X141155594Y-113292875D01*
X141219591Y-113465969D01*
X141277153Y-113575064D01*
X141300647Y-113594500D01*
X141346429Y-113539585D01*
X141411082Y-113398625D01*
X141455250Y-113277000D01*
X141537320Y-113074282D01*
X141619354Y-112976627D01*
X141682603Y-112959500D01*
X141783054Y-112982378D01*
X141783054Y-112982378D01*
G37*
X141783054Y-112982378D02*
X141804500Y-113012066D01*
X141780702Y-113105155D01*
X141717921Y-113282471D01*
X141629071Y-113512330D01*
X141527067Y-113763048D01*
X141424825Y-114002941D01*
X141335260Y-114200325D01*
X141271287Y-114323515D01*
X141267490Y-114329480D01*
X141158179Y-114428804D01*
X141015922Y-114482263D01*
X140882248Y-114484762D01*
X140798689Y-114431203D01*
X140788500Y-114388250D01*
X140841576Y-114310707D01*
X140916861Y-114293000D01*
X141062281Y-114244730D01*
X141127322Y-114105738D01*
X141110599Y-113884744D01*
X141023717Y-113621084D01*
X140905342Y-113331860D01*
X140834776Y-113140369D01*
X140808996Y-113027962D01*
X140824977Y-112975990D01*
X140879694Y-112965804D01*
X140918166Y-112970181D01*
X141022269Y-113020808D01*
X141105334Y-113154428D01*
X141155594Y-113292875D01*
X141219591Y-113465969D01*
X141277153Y-113575064D01*
X141300647Y-113594500D01*
X141346429Y-113539585D01*
X141411082Y-113398625D01*
X141455250Y-113277000D01*
X141537320Y-113074282D01*
X141619354Y-112976627D01*
X141682603Y-112959500D01*
X141783054Y-112982378D01*
G36*
X140370968Y-112951511D02*
X140556371Y-112954379D01*
X140736992Y-112956568D01*
X140715121Y-113586519D01*
X140694493Y-113942989D01*
X140653110Y-114191530D01*
X140578320Y-114350957D01*
X140457472Y-114440081D01*
X140277914Y-114477716D01*
X140111908Y-114483500D01*
X139913692Y-114477732D01*
X139811728Y-114452745D01*
X139775500Y-114397012D01*
X139772500Y-114355290D01*
X139794634Y-114265561D01*
X139884792Y-114256615D01*
X139931250Y-114266924D01*
X140140206Y-114283707D01*
X140315421Y-114235790D01*
X140416027Y-114135553D01*
X140421757Y-114118336D01*
X140422857Y-114047068D01*
X140355400Y-114021809D01*
X140203924Y-114029363D01*
X139960950Y-114015108D01*
X139803214Y-113912233D01*
X139723083Y-113713012D01*
X139709000Y-113528193D01*
X139712766Y-113499250D01*
X139963000Y-113499250D01*
X140000062Y-113704106D01*
X140096735Y-113821018D01*
X140231245Y-113836681D01*
X140371214Y-113748714D01*
X140451027Y-113602045D01*
X140459294Y-113428052D01*
X140406135Y-113268879D01*
X140301667Y-113166670D01*
X140227465Y-113150000D01*
X140068508Y-113203781D01*
X139979312Y-113357179D01*
X139963000Y-113499250D01*
X139712766Y-113499250D01*
X139747101Y-113235450D01*
X139861255Y-113044118D01*
X140051239Y-112954485D01*
X140157815Y-112947316D01*
X140370968Y-112951511D01*
X140370968Y-112951511D01*
G37*
X140370968Y-112951511D02*
X140556371Y-112954379D01*
X140736992Y-112956568D01*
X140715121Y-113586519D01*
X140694493Y-113942989D01*
X140653110Y-114191530D01*
X140578320Y-114350957D01*
X140457472Y-114440081D01*
X140277914Y-114477716D01*
X140111908Y-114483500D01*
X139913692Y-114477732D01*
X139811728Y-114452745D01*
X139775500Y-114397012D01*
X139772500Y-114355290D01*
X139794634Y-114265561D01*
X139884792Y-114256615D01*
X139931250Y-114266924D01*
X140140206Y-114283707D01*
X140315421Y-114235790D01*
X140416027Y-114135553D01*
X140421757Y-114118336D01*
X140422857Y-114047068D01*
X140355400Y-114021809D01*
X140203924Y-114029363D01*
X139960950Y-114015108D01*
X139803214Y-113912233D01*
X139723083Y-113713012D01*
X139709000Y-113528193D01*
X139712766Y-113499250D01*
X139963000Y-113499250D01*
X140000062Y-113704106D01*
X140096735Y-113821018D01*
X140231245Y-113836681D01*
X140371214Y-113748714D01*
X140451027Y-113602045D01*
X140459294Y-113428052D01*
X140406135Y-113268879D01*
X140301667Y-113166670D01*
X140227465Y-113150000D01*
X140068508Y-113203781D01*
X139979312Y-113357179D01*
X139963000Y-113499250D01*
X139712766Y-113499250D01*
X139747101Y-113235450D01*
X139861255Y-113044118D01*
X140051239Y-112954485D01*
X140157815Y-112947316D01*
X140370968Y-112951511D01*
D14*
X100199100Y-142800340D02*
X114600900Y-142800340D01*
X100199100Y-127199660D02*
X100199100Y-142800340D01*
X114600900Y-127199660D02*
X100199100Y-127199660D01*
X114600900Y-142800340D02*
X114600900Y-127199660D01*
X92701020Y-140499100D02*
X100199100Y-140499100D01*
X92701020Y-129500900D02*
X92701020Y-140499100D01*
X100199100Y-129500900D02*
X92701020Y-129500900D01*
X80699520Y-139800600D02*
X92701020Y-139800600D01*
X80699520Y-130199400D02*
X80699520Y-139800600D01*
X92701020Y-130199400D02*
X80699520Y-130199400D01*
X85700780Y-135000000D02*
G75*
G03X85700780Y-135000000I-1000760J0D01*
G01*
X99599660Y-140499100D02*
X98799560Y-129500900D01*
X98799560Y-140499100D02*
X97999460Y-129500900D01*
X97999460Y-140499100D02*
X97199360Y-129500900D01*
X97199360Y-140499100D02*
X96399260Y-129500900D01*
X96399260Y-140499100D02*
X95599160Y-129500900D01*
X95599160Y-140499100D02*
X94799060Y-129500900D01*
X149397619Y-106884523D02*
X149350000Y-106836904D01*
X149302380Y-106741666D01*
X149302380Y-106503571D01*
X149350000Y-106408333D01*
X149397619Y-106360714D01*
X149492857Y-106313095D01*
X149588095Y-106313095D01*
X149730952Y-106360714D01*
X150302380Y-106932142D01*
X150302380Y-106313095D01*
X149397619Y-105932142D02*
X149350000Y-105884523D01*
X149302380Y-105789285D01*
X149302380Y-105551190D01*
X149350000Y-105455952D01*
X149397619Y-105408333D01*
X149492857Y-105360714D01*
X149588095Y-105360714D01*
X149730952Y-105408333D01*
X150302380Y-105979761D01*
X150302380Y-105360714D01*
X149302380Y-104741666D02*
X149302380Y-104646428D01*
X149350000Y-104551190D01*
X149397619Y-104503571D01*
X149492857Y-104455952D01*
X149683333Y-104408333D01*
X149921428Y-104408333D01*
X150111904Y-104455952D01*
X150207142Y-104503571D01*
X150254761Y-104551190D01*
X150302380Y-104646428D01*
X150302380Y-104741666D01*
X150254761Y-104836904D01*
X150207142Y-104884523D01*
X150111904Y-104932142D01*
X149921428Y-104979761D01*
X149683333Y-104979761D01*
X149492857Y-104932142D01*
X149397619Y-104884523D01*
X149350000Y-104836904D01*
X149302380Y-104741666D01*
X150302380Y-104027380D02*
X150302380Y-103789285D01*
X150111904Y-103789285D01*
X150064285Y-103884523D01*
X149969047Y-103979761D01*
X149826190Y-104027380D01*
X149588095Y-104027380D01*
X149445238Y-103979761D01*
X149350000Y-103884523D01*
X149302380Y-103741666D01*
X149302380Y-103551190D01*
X149350000Y-103408333D01*
X149445238Y-103313095D01*
X149588095Y-103265476D01*
X149826190Y-103265476D01*
X149969047Y-103313095D01*
X150064285Y-103408333D01*
X150111904Y-103503571D01*
X150302380Y-103503571D01*
X150302380Y-103265476D01*
X154827380Y-105740476D02*
X154827380Y-106311904D01*
X154827380Y-106026190D02*
X153827380Y-106026190D01*
X153970238Y-106121428D01*
X154065476Y-106216666D01*
X154113095Y-106311904D01*
X154827380Y-105311904D02*
X153827380Y-105311904D01*
X154446428Y-105216666D02*
X154827380Y-104930952D01*
X154160714Y-104930952D02*
X154541666Y-105311904D01*
X154827380Y-104550000D02*
X154827380Y-104311904D01*
X154636904Y-104311904D01*
X154589285Y-104407142D01*
X154494047Y-104502380D01*
X154351190Y-104550000D01*
X154113095Y-104550000D01*
X153970238Y-104502380D01*
X153875000Y-104407142D01*
X153827380Y-104264285D01*
X153827380Y-104073809D01*
X153875000Y-103930952D01*
X153970238Y-103835714D01*
X154113095Y-103788095D01*
X154351190Y-103788095D01*
X154494047Y-103835714D01*
X154589285Y-103930952D01*
X154636904Y-104026190D01*
X154827380Y-104026190D01*
X154827380Y-103788095D01*
X159447380Y-105725476D02*
X159447380Y-106296904D01*
X159447380Y-106011190D02*
X158447380Y-106011190D01*
X158590238Y-106106428D01*
X158685476Y-106201666D01*
X158733095Y-106296904D01*
X159447380Y-105296904D02*
X158447380Y-105296904D01*
X159066428Y-105201666D02*
X159447380Y-104915952D01*
X158780714Y-104915952D02*
X159161666Y-105296904D01*
X159447380Y-104535000D02*
X159447380Y-104296904D01*
X159256904Y-104296904D01*
X159209285Y-104392142D01*
X159114047Y-104487380D01*
X158971190Y-104535000D01*
X158733095Y-104535000D01*
X158590238Y-104487380D01*
X158495000Y-104392142D01*
X158447380Y-104249285D01*
X158447380Y-104058809D01*
X158495000Y-103915952D01*
X158590238Y-103820714D01*
X158733095Y-103773095D01*
X158971190Y-103773095D01*
X159114047Y-103820714D01*
X159209285Y-103915952D01*
X159256904Y-104011190D01*
X159447380Y-104011190D01*
X159447380Y-103773095D01*
X154927380Y-116240476D02*
X154927380Y-116811904D01*
X154927380Y-116526190D02*
X153927380Y-116526190D01*
X154070238Y-116621428D01*
X154165476Y-116716666D01*
X154213095Y-116811904D01*
X154927380Y-115811904D02*
X153927380Y-115811904D01*
X154546428Y-115716666D02*
X154927380Y-115430952D01*
X154260714Y-115430952D02*
X154641666Y-115811904D01*
X154927380Y-115050000D02*
X154927380Y-114811904D01*
X154736904Y-114811904D01*
X154689285Y-114907142D01*
X154594047Y-115002380D01*
X154451190Y-115050000D01*
X154213095Y-115050000D01*
X154070238Y-115002380D01*
X153975000Y-114907142D01*
X153927380Y-114764285D01*
X153927380Y-114573809D01*
X153975000Y-114430952D01*
X154070238Y-114335714D01*
X154213095Y-114288095D01*
X154451190Y-114288095D01*
X154594047Y-114335714D01*
X154689285Y-114430952D01*
X154736904Y-114526190D01*
X154927380Y-114526190D01*
X154927380Y-114288095D01*
X149397619Y-117659523D02*
X149350000Y-117611904D01*
X149302380Y-117516666D01*
X149302380Y-117278571D01*
X149350000Y-117183333D01*
X149397619Y-117135714D01*
X149492857Y-117088095D01*
X149588095Y-117088095D01*
X149730952Y-117135714D01*
X150302380Y-117707142D01*
X150302380Y-117088095D01*
X149397619Y-116707142D02*
X149350000Y-116659523D01*
X149302380Y-116564285D01*
X149302380Y-116326190D01*
X149350000Y-116230952D01*
X149397619Y-116183333D01*
X149492857Y-116135714D01*
X149588095Y-116135714D01*
X149730952Y-116183333D01*
X150302380Y-116754761D01*
X150302380Y-116135714D01*
X149302380Y-115516666D02*
X149302380Y-115421428D01*
X149350000Y-115326190D01*
X149397619Y-115278571D01*
X149492857Y-115230952D01*
X149683333Y-115183333D01*
X149921428Y-115183333D01*
X150111904Y-115230952D01*
X150207142Y-115278571D01*
X150254761Y-115326190D01*
X150302380Y-115421428D01*
X150302380Y-115516666D01*
X150254761Y-115611904D01*
X150207142Y-115659523D01*
X150111904Y-115707142D01*
X149921428Y-115754761D01*
X149683333Y-115754761D01*
X149492857Y-115707142D01*
X149397619Y-115659523D01*
X149350000Y-115611904D01*
X149302380Y-115516666D01*
X150302380Y-114802380D02*
X150302380Y-114564285D01*
X150111904Y-114564285D01*
X150064285Y-114659523D01*
X149969047Y-114754761D01*
X149826190Y-114802380D01*
X149588095Y-114802380D01*
X149445238Y-114754761D01*
X149350000Y-114659523D01*
X149302380Y-114516666D01*
X149302380Y-114326190D01*
X149350000Y-114183333D01*
X149445238Y-114088095D01*
X149588095Y-114040476D01*
X149826190Y-114040476D01*
X149969047Y-114088095D01*
X150064285Y-114183333D01*
X150111904Y-114278571D01*
X150302380Y-114278571D01*
X150302380Y-114040476D01*
X117934523Y-137272619D02*
X117982142Y-137225000D01*
X118077380Y-137177380D01*
X118315476Y-137177380D01*
X118410714Y-137225000D01*
X118458333Y-137272619D01*
X118505952Y-137367857D01*
X118505952Y-137463095D01*
X118458333Y-137605952D01*
X117886904Y-138177380D01*
X118505952Y-138177380D01*
X118886904Y-137272619D02*
X118934523Y-137225000D01*
X119029761Y-137177380D01*
X119267857Y-137177380D01*
X119363095Y-137225000D01*
X119410714Y-137272619D01*
X119458333Y-137367857D01*
X119458333Y-137463095D01*
X119410714Y-137605952D01*
X118839285Y-138177380D01*
X119458333Y-138177380D01*
X120077380Y-137177380D02*
X120172619Y-137177380D01*
X120267857Y-137225000D01*
X120315476Y-137272619D01*
X120363095Y-137367857D01*
X120410714Y-137558333D01*
X120410714Y-137796428D01*
X120363095Y-137986904D01*
X120315476Y-138082142D01*
X120267857Y-138129761D01*
X120172619Y-138177380D01*
X120077380Y-138177380D01*
X119982142Y-138129761D01*
X119934523Y-138082142D01*
X119886904Y-137986904D01*
X119839285Y-137796428D01*
X119839285Y-137558333D01*
X119886904Y-137367857D01*
X119934523Y-137272619D01*
X119982142Y-137225000D01*
X120077380Y-137177380D01*
X120839285Y-137510714D02*
X120839285Y-138510714D01*
X121315476Y-138034523D02*
X121363095Y-138129761D01*
X121458333Y-138177380D01*
X120839285Y-138034523D02*
X120886904Y-138129761D01*
X120982142Y-138177380D01*
X121172619Y-138177380D01*
X121267857Y-138129761D01*
X121315476Y-138034523D01*
X121315476Y-137510714D01*
X122220238Y-137653571D02*
X121886904Y-137653571D01*
X121886904Y-138177380D02*
X121886904Y-137177380D01*
X122363095Y-137177380D01*
X158950476Y-131672619D02*
X158998095Y-131625000D01*
X159093333Y-131577380D01*
X159331428Y-131577380D01*
X159426666Y-131625000D01*
X159474285Y-131672619D01*
X159521904Y-131767857D01*
X159521904Y-131863095D01*
X159474285Y-132005952D01*
X158902857Y-132577380D01*
X159521904Y-132577380D01*
X159902857Y-131672619D02*
X159950476Y-131625000D01*
X160045714Y-131577380D01*
X160283809Y-131577380D01*
X160379047Y-131625000D01*
X160426666Y-131672619D01*
X160474285Y-131767857D01*
X160474285Y-131863095D01*
X160426666Y-132005952D01*
X159855238Y-132577380D01*
X160474285Y-132577380D01*
X161093333Y-131577380D02*
X161188571Y-131577380D01*
X161283809Y-131625000D01*
X161331428Y-131672619D01*
X161379047Y-131767857D01*
X161426666Y-131958333D01*
X161426666Y-132196428D01*
X161379047Y-132386904D01*
X161331428Y-132482142D01*
X161283809Y-132529761D01*
X161188571Y-132577380D01*
X161093333Y-132577380D01*
X160998095Y-132529761D01*
X160950476Y-132482142D01*
X160902857Y-132386904D01*
X160855238Y-132196428D01*
X160855238Y-131958333D01*
X160902857Y-131767857D01*
X160950476Y-131672619D01*
X160998095Y-131625000D01*
X161093333Y-131577380D01*
X161807619Y-132577380D02*
X162045714Y-132577380D01*
X162045714Y-132386904D01*
X161950476Y-132339285D01*
X161855238Y-132244047D01*
X161807619Y-132101190D01*
X161807619Y-131863095D01*
X161855238Y-131720238D01*
X161950476Y-131625000D01*
X162093333Y-131577380D01*
X162283809Y-131577380D01*
X162426666Y-131625000D01*
X162521904Y-131720238D01*
X162569523Y-131863095D01*
X162569523Y-132101190D01*
X162521904Y-132244047D01*
X162426666Y-132339285D01*
X162331428Y-132386904D01*
X162331428Y-132577380D01*
X162569523Y-132577380D01*
X140772857Y-144422380D02*
X140772857Y-143422380D01*
X141010952Y-143422380D01*
X141153809Y-143470000D01*
X141249047Y-143565238D01*
X141296666Y-143660476D01*
X141344285Y-143850952D01*
X141344285Y-143993809D01*
X141296666Y-144184285D01*
X141249047Y-144279523D01*
X141153809Y-144374761D01*
X141010952Y-144422380D01*
X140772857Y-144422380D01*
X141772857Y-144422380D02*
X141772857Y-143422380D01*
X142153809Y-143422380D01*
X142249047Y-143470000D01*
X142296666Y-143517619D01*
X142344285Y-143612857D01*
X142344285Y-143755714D01*
X142296666Y-143850952D01*
X142249047Y-143898571D01*
X142153809Y-143946190D01*
X141772857Y-143946190D01*
X142772857Y-144422380D02*
X142772857Y-143422380D01*
X143010952Y-143422380D01*
X143153809Y-143470000D01*
X143249047Y-143565238D01*
X143296666Y-143660476D01*
X143344285Y-143850952D01*
X143344285Y-143993809D01*
X143296666Y-144184285D01*
X143249047Y-144279523D01*
X143153809Y-144374761D01*
X143010952Y-144422380D01*
X142772857Y-144422380D01*
X143630000Y-143422380D02*
X144201428Y-143422380D01*
X143915714Y-144422380D02*
X143915714Y-143422380D01*
X145249047Y-144374761D02*
X145344285Y-144422380D01*
X145534761Y-144422380D01*
X145630000Y-144374761D01*
X145677619Y-144279523D01*
X145677619Y-144231904D01*
X145630000Y-144136666D01*
X145534761Y-144089047D01*
X145391904Y-144089047D01*
X145296666Y-144041428D01*
X145249047Y-143946190D01*
X145249047Y-143898571D01*
X145296666Y-143803333D01*
X145391904Y-143755714D01*
X145534761Y-143755714D01*
X145630000Y-143803333D01*
X146010952Y-143755714D02*
X146201428Y-144422380D01*
X146391904Y-143946190D01*
X146582380Y-144422380D01*
X146772857Y-143755714D01*
X147153809Y-144422380D02*
X147153809Y-143755714D01*
X147153809Y-143422380D02*
X147106190Y-143470000D01*
X147153809Y-143517619D01*
X147201428Y-143470000D01*
X147153809Y-143422380D01*
X147153809Y-143517619D01*
X147487142Y-143755714D02*
X147868095Y-143755714D01*
X147630000Y-143422380D02*
X147630000Y-144279523D01*
X147677619Y-144374761D01*
X147772857Y-144422380D01*
X147868095Y-144422380D01*
X148630000Y-144374761D02*
X148534761Y-144422380D01*
X148344285Y-144422380D01*
X148249047Y-144374761D01*
X148201428Y-144327142D01*
X148153809Y-144231904D01*
X148153809Y-143946190D01*
X148201428Y-143850952D01*
X148249047Y-143803333D01*
X148344285Y-143755714D01*
X148534761Y-143755714D01*
X148630000Y-143803333D01*
X149058571Y-144422380D02*
X149058571Y-143422380D01*
X149487142Y-144422380D02*
X149487142Y-143898571D01*
X149439523Y-143803333D01*
X149344285Y-143755714D01*
X149201428Y-143755714D01*
X149106190Y-143803333D01*
X149058571Y-143850952D01*
X168417857Y-133014285D02*
X168060714Y-133014285D01*
X168060714Y-132264285D01*
X168667857Y-132621428D02*
X168917857Y-132621428D01*
X169025000Y-133014285D02*
X168667857Y-133014285D01*
X168667857Y-132264285D01*
X169025000Y-132264285D01*
X169346428Y-133014285D02*
X169346428Y-132264285D01*
X169525000Y-132264285D01*
X169632142Y-132300000D01*
X169703571Y-132371428D01*
X169739285Y-132442857D01*
X169775000Y-132585714D01*
X169775000Y-132692857D01*
X169739285Y-132835714D01*
X169703571Y-132907142D01*
X169632142Y-132978571D01*
X169525000Y-133014285D01*
X169346428Y-133014285D01*
X167538095Y-90347619D02*
X167585714Y-90300000D01*
X167680952Y-90252380D01*
X167919047Y-90252380D01*
X168014285Y-90300000D01*
X168061904Y-90347619D01*
X168109523Y-90442857D01*
X168109523Y-90538095D01*
X168061904Y-90680952D01*
X167490476Y-91252380D01*
X168109523Y-91252380D01*
X168966666Y-90585714D02*
X168966666Y-91252380D01*
X168728571Y-90204761D02*
X168490476Y-90919047D01*
X169109523Y-90919047D01*
X169347619Y-90252380D02*
X169680952Y-91252380D01*
X170014285Y-90252380D01*
X171109523Y-91252380D02*
X171109523Y-90585714D01*
X171109523Y-90252380D02*
X171061904Y-90300000D01*
X171109523Y-90347619D01*
X171157142Y-90300000D01*
X171109523Y-90252380D01*
X171109523Y-90347619D01*
X171585714Y-90585714D02*
X171585714Y-91252380D01*
X171585714Y-90680952D02*
X171633333Y-90633333D01*
X171728571Y-90585714D01*
X171871428Y-90585714D01*
X171966666Y-90633333D01*
X172014285Y-90728571D01*
X172014285Y-91252380D01*
X166907142Y-119878571D02*
X167014285Y-119914285D01*
X167192857Y-119914285D01*
X167264285Y-119878571D01*
X167300000Y-119842857D01*
X167335714Y-119771428D01*
X167335714Y-119700000D01*
X167300000Y-119628571D01*
X167264285Y-119592857D01*
X167192857Y-119557142D01*
X167050000Y-119521428D01*
X166978571Y-119485714D01*
X166942857Y-119450000D01*
X166907142Y-119378571D01*
X166907142Y-119307142D01*
X166942857Y-119235714D01*
X166978571Y-119200000D01*
X167050000Y-119164285D01*
X167228571Y-119164285D01*
X167335714Y-119200000D01*
X167764285Y-119914285D02*
X167692857Y-119878571D01*
X167657142Y-119842857D01*
X167621428Y-119771428D01*
X167621428Y-119557142D01*
X167657142Y-119485714D01*
X167692857Y-119450000D01*
X167764285Y-119414285D01*
X167871428Y-119414285D01*
X167942857Y-119450000D01*
X167978571Y-119485714D01*
X168014285Y-119557142D01*
X168014285Y-119771428D01*
X167978571Y-119842857D01*
X167942857Y-119878571D01*
X167871428Y-119914285D01*
X167764285Y-119914285D01*
X168442857Y-119914285D02*
X168371428Y-119878571D01*
X168335714Y-119807142D01*
X168335714Y-119164285D01*
X169014285Y-119878571D02*
X168942857Y-119914285D01*
X168800000Y-119914285D01*
X168728571Y-119878571D01*
X168692857Y-119807142D01*
X168692857Y-119521428D01*
X168728571Y-119450000D01*
X168800000Y-119414285D01*
X168942857Y-119414285D01*
X169014285Y-119450000D01*
X169050000Y-119521428D01*
X169050000Y-119592857D01*
X168692857Y-119664285D01*
X169371428Y-119414285D02*
X169371428Y-119914285D01*
X169371428Y-119485714D02*
X169407142Y-119450000D01*
X169478571Y-119414285D01*
X169585714Y-119414285D01*
X169657142Y-119450000D01*
X169692857Y-119521428D01*
X169692857Y-119914285D01*
X170157142Y-119914285D02*
X170085714Y-119878571D01*
X170050000Y-119842857D01*
X170014285Y-119771428D01*
X170014285Y-119557142D01*
X170050000Y-119485714D01*
X170085714Y-119450000D01*
X170157142Y-119414285D01*
X170264285Y-119414285D01*
X170335714Y-119450000D01*
X170371428Y-119485714D01*
X170407142Y-119557142D01*
X170407142Y-119771428D01*
X170371428Y-119842857D01*
X170335714Y-119878571D01*
X170264285Y-119914285D01*
X170157142Y-119914285D01*
X170728571Y-119914285D02*
X170728571Y-119414285D01*
X170728571Y-119164285D02*
X170692857Y-119200000D01*
X170728571Y-119235714D01*
X170764285Y-119200000D01*
X170728571Y-119164285D01*
X170728571Y-119235714D01*
X171407142Y-119914285D02*
X171407142Y-119164285D01*
X171407142Y-119878571D02*
X171335714Y-119914285D01*
X171192857Y-119914285D01*
X171121428Y-119878571D01*
X171085714Y-119842857D01*
X171050000Y-119771428D01*
X171050000Y-119557142D01*
X171085714Y-119485714D01*
X171121428Y-119450000D01*
X171192857Y-119414285D01*
X171335714Y-119414285D01*
X171407142Y-119450000D01*
X104176190Y-80728571D02*
X103842857Y-80728571D01*
X103842857Y-81252380D02*
X103842857Y-80252380D01*
X104319047Y-80252380D01*
X104842857Y-81252380D02*
X104747619Y-81204761D01*
X104700000Y-81157142D01*
X104652380Y-81061904D01*
X104652380Y-80776190D01*
X104700000Y-80680952D01*
X104747619Y-80633333D01*
X104842857Y-80585714D01*
X104985714Y-80585714D01*
X105080952Y-80633333D01*
X105128571Y-80680952D01*
X105176190Y-80776190D01*
X105176190Y-81061904D01*
X105128571Y-81157142D01*
X105080952Y-81204761D01*
X104985714Y-81252380D01*
X104842857Y-81252380D01*
X105747619Y-81252380D02*
X105652380Y-81204761D01*
X105604761Y-81157142D01*
X105557142Y-81061904D01*
X105557142Y-80776190D01*
X105604761Y-80680952D01*
X105652380Y-80633333D01*
X105747619Y-80585714D01*
X105890476Y-80585714D01*
X105985714Y-80633333D01*
X106033333Y-80680952D01*
X106080952Y-80776190D01*
X106080952Y-81061904D01*
X106033333Y-81157142D01*
X105985714Y-81204761D01*
X105890476Y-81252380D01*
X105747619Y-81252380D01*
X106366666Y-80585714D02*
X106747619Y-80585714D01*
X106509523Y-80252380D02*
X106509523Y-81109523D01*
X106557142Y-81204761D01*
X106652380Y-81252380D01*
X106747619Y-81252380D01*
X107842857Y-81252380D02*
X107842857Y-80252380D01*
X108223809Y-80252380D01*
X108319047Y-80300000D01*
X108366666Y-80347619D01*
X108414285Y-80442857D01*
X108414285Y-80585714D01*
X108366666Y-80680952D01*
X108319047Y-80728571D01*
X108223809Y-80776190D01*
X107842857Y-80776190D01*
X109223809Y-81204761D02*
X109128571Y-81252380D01*
X108938095Y-81252380D01*
X108842857Y-81204761D01*
X108795238Y-81109523D01*
X108795238Y-80728571D01*
X108842857Y-80633333D01*
X108938095Y-80585714D01*
X109128571Y-80585714D01*
X109223809Y-80633333D01*
X109271428Y-80728571D01*
X109271428Y-80823809D01*
X108795238Y-80919047D01*
X110128571Y-81252380D02*
X110128571Y-80252380D01*
X110128571Y-81204761D02*
X110033333Y-81252380D01*
X109842857Y-81252380D01*
X109747619Y-81204761D01*
X109700000Y-81157142D01*
X109652380Y-81061904D01*
X109652380Y-80776190D01*
X109700000Y-80680952D01*
X109747619Y-80633333D01*
X109842857Y-80585714D01*
X110033333Y-80585714D01*
X110128571Y-80633333D01*
X111033333Y-81252380D02*
X111033333Y-80728571D01*
X110985714Y-80633333D01*
X110890476Y-80585714D01*
X110700000Y-80585714D01*
X110604761Y-80633333D01*
X111033333Y-81204761D02*
X110938095Y-81252380D01*
X110700000Y-81252380D01*
X110604761Y-81204761D01*
X110557142Y-81109523D01*
X110557142Y-81014285D01*
X110604761Y-80919047D01*
X110700000Y-80871428D01*
X110938095Y-80871428D01*
X111033333Y-80823809D01*
X111652380Y-81252380D02*
X111557142Y-81204761D01*
X111509523Y-81109523D01*
X111509523Y-80252380D01*
X168877380Y-108305952D02*
X167877380Y-108305952D01*
X168877380Y-107734523D01*
X167877380Y-107734523D01*
X168877380Y-107258333D02*
X167877380Y-107258333D01*
X167877380Y-106877380D01*
X167925000Y-106782142D01*
X167972619Y-106734523D01*
X168067857Y-106686904D01*
X168210714Y-106686904D01*
X168305952Y-106734523D01*
X168353571Y-106782142D01*
X168401190Y-106877380D01*
X168401190Y-107258333D01*
X168877380Y-106258333D02*
X167877380Y-106258333D01*
X168877380Y-105686904D01*
X167877380Y-105686904D01*
X167877380Y-104591666D02*
X167877380Y-104020238D01*
X168877380Y-104305952D02*
X167877380Y-104305952D01*
X168877380Y-103686904D02*
X168210714Y-103686904D01*
X168401190Y-103686904D02*
X168305952Y-103639285D01*
X168258333Y-103591666D01*
X168210714Y-103496428D01*
X168210714Y-103401190D01*
X168877380Y-102639285D02*
X168353571Y-102639285D01*
X168258333Y-102686904D01*
X168210714Y-102782142D01*
X168210714Y-102972619D01*
X168258333Y-103067857D01*
X168829761Y-102639285D02*
X168877380Y-102734523D01*
X168877380Y-102972619D01*
X168829761Y-103067857D01*
X168734523Y-103115476D01*
X168639285Y-103115476D01*
X168544047Y-103067857D01*
X168496428Y-102972619D01*
X168496428Y-102734523D01*
X168448809Y-102639285D01*
X168210714Y-102163095D02*
X168877380Y-102163095D01*
X168305952Y-102163095D02*
X168258333Y-102115476D01*
X168210714Y-102020238D01*
X168210714Y-101877380D01*
X168258333Y-101782142D01*
X168353571Y-101734523D01*
X168877380Y-101734523D01*
X168829761Y-101305952D02*
X168877380Y-101210714D01*
X168877380Y-101020238D01*
X168829761Y-100925000D01*
X168734523Y-100877380D01*
X168686904Y-100877380D01*
X168591666Y-100925000D01*
X168544047Y-101020238D01*
X168544047Y-101163095D01*
X168496428Y-101258333D01*
X168401190Y-101305952D01*
X168353571Y-101305952D01*
X168258333Y-101258333D01*
X168210714Y-101163095D01*
X168210714Y-101020238D01*
X168258333Y-100925000D01*
X168877380Y-100448809D02*
X168210714Y-100448809D01*
X167877380Y-100448809D02*
X167925000Y-100496428D01*
X167972619Y-100448809D01*
X167925000Y-100401190D01*
X167877380Y-100448809D01*
X167972619Y-100448809D01*
X168829761Y-100020238D02*
X168877380Y-99925000D01*
X168877380Y-99734523D01*
X168829761Y-99639285D01*
X168734523Y-99591666D01*
X168686904Y-99591666D01*
X168591666Y-99639285D01*
X168544047Y-99734523D01*
X168544047Y-99877380D01*
X168496428Y-99972619D01*
X168401190Y-100020238D01*
X168353571Y-100020238D01*
X168258333Y-99972619D01*
X168210714Y-99877380D01*
X168210714Y-99734523D01*
X168258333Y-99639285D01*
X168210714Y-99305952D02*
X168210714Y-98925000D01*
X167877380Y-99163095D02*
X168734523Y-99163095D01*
X168829761Y-99115476D01*
X168877380Y-99020238D01*
X168877380Y-98925000D01*
X168877380Y-98448809D02*
X168829761Y-98544047D01*
X168782142Y-98591666D01*
X168686904Y-98639285D01*
X168401190Y-98639285D01*
X168305952Y-98591666D01*
X168258333Y-98544047D01*
X168210714Y-98448809D01*
X168210714Y-98305952D01*
X168258333Y-98210714D01*
X168305952Y-98163095D01*
X168401190Y-98115476D01*
X168686904Y-98115476D01*
X168782142Y-98163095D01*
X168829761Y-98210714D01*
X168877380Y-98305952D01*
X168877380Y-98448809D01*
X168877380Y-97686904D02*
X168210714Y-97686904D01*
X168401190Y-97686904D02*
X168305952Y-97639285D01*
X168258333Y-97591666D01*
X168210714Y-97496428D01*
X168210714Y-97401190D01*
X175527380Y-144090476D02*
X175527380Y-144661904D01*
X175527380Y-144376190D02*
X174527380Y-144376190D01*
X174670238Y-144471428D01*
X174765476Y-144566666D01*
X174813095Y-144661904D01*
X175527380Y-143661904D02*
X174527380Y-143661904D01*
X175146428Y-143566666D02*
X175527380Y-143280952D01*
X174860714Y-143280952D02*
X175241666Y-143661904D01*
X175527380Y-142900000D02*
X175527380Y-142661904D01*
X175336904Y-142661904D01*
X175289285Y-142757142D01*
X175194047Y-142852380D01*
X175051190Y-142900000D01*
X174813095Y-142900000D01*
X174670238Y-142852380D01*
X174575000Y-142757142D01*
X174527380Y-142614285D01*
X174527380Y-142423809D01*
X174575000Y-142280952D01*
X174670238Y-142185714D01*
X174813095Y-142138095D01*
X175051190Y-142138095D01*
X175194047Y-142185714D01*
X175289285Y-142280952D01*
X175336904Y-142376190D01*
X175527380Y-142376190D01*
X175527380Y-142138095D01*
X156827380Y-129492857D02*
X156827380Y-130064285D01*
X156827380Y-129778571D02*
X155827380Y-129778571D01*
X155970238Y-129873809D01*
X156065476Y-129969047D01*
X156113095Y-130064285D01*
X156827380Y-129064285D02*
X155827380Y-129064285D01*
X156827380Y-128492857D01*
X155827380Y-128492857D01*
X156160714Y-127588095D02*
X156827380Y-127588095D01*
X155779761Y-127826190D02*
X156494047Y-128064285D01*
X156494047Y-127445238D01*
X156827380Y-126540476D02*
X156827380Y-127111904D01*
X156827380Y-126826190D02*
X155827380Y-126826190D01*
X155970238Y-126921428D01*
X156065476Y-127016666D01*
X156113095Y-127111904D01*
X156160714Y-125683333D02*
X156827380Y-125683333D01*
X155779761Y-125921428D02*
X156494047Y-126159523D01*
X156494047Y-125540476D01*
X156255952Y-125016666D02*
X156208333Y-125111904D01*
X156160714Y-125159523D01*
X156065476Y-125207142D01*
X156017857Y-125207142D01*
X155922619Y-125159523D01*
X155875000Y-125111904D01*
X155827380Y-125016666D01*
X155827380Y-124826190D01*
X155875000Y-124730952D01*
X155922619Y-124683333D01*
X156017857Y-124635714D01*
X156065476Y-124635714D01*
X156160714Y-124683333D01*
X156208333Y-124730952D01*
X156255952Y-124826190D01*
X156255952Y-125016666D01*
X156303571Y-125111904D01*
X156351190Y-125159523D01*
X156446428Y-125207142D01*
X156636904Y-125207142D01*
X156732142Y-125159523D01*
X156779761Y-125111904D01*
X156827380Y-125016666D01*
X156827380Y-124826190D01*
X156779761Y-124730952D01*
X156732142Y-124683333D01*
X156636904Y-124635714D01*
X156446428Y-124635714D01*
X156351190Y-124683333D01*
X156303571Y-124730952D01*
X156255952Y-124826190D01*
X161452380Y-120550000D02*
X161452380Y-121121428D01*
X161452380Y-120835714D02*
X160452380Y-120835714D01*
X160595238Y-120930952D01*
X160690476Y-121026190D01*
X160738095Y-121121428D01*
X161452380Y-120121428D02*
X160452380Y-120121428D01*
X161452380Y-119550000D01*
X160452380Y-119550000D01*
X160452380Y-118597619D02*
X160452380Y-119073809D01*
X160928571Y-119121428D01*
X160880952Y-119073809D01*
X160833333Y-118978571D01*
X160833333Y-118740476D01*
X160880952Y-118645238D01*
X160928571Y-118597619D01*
X161023809Y-118550000D01*
X161261904Y-118550000D01*
X161357142Y-118597619D01*
X161404761Y-118645238D01*
X161452380Y-118740476D01*
X161452380Y-118978571D01*
X161404761Y-119073809D01*
X161357142Y-119121428D01*
X160452380Y-118216666D02*
X160452380Y-117597619D01*
X160833333Y-117930952D01*
X160833333Y-117788095D01*
X160880952Y-117692857D01*
X160928571Y-117645238D01*
X161023809Y-117597619D01*
X161261904Y-117597619D01*
X161357142Y-117645238D01*
X161404761Y-117692857D01*
X161452380Y-117788095D01*
X161452380Y-118073809D01*
X161404761Y-118169047D01*
X161357142Y-118216666D01*
X161452380Y-117264285D02*
X160785714Y-116740476D01*
X160785714Y-117264285D02*
X161452380Y-116740476D01*
X161452380Y-116454761D02*
X160785714Y-115930952D01*
X160785714Y-116454761D02*
X161452380Y-115930952D01*
X160928571Y-115216666D02*
X160976190Y-115073809D01*
X161023809Y-115026190D01*
X161119047Y-114978571D01*
X161261904Y-114978571D01*
X161357142Y-115026190D01*
X161404761Y-115073809D01*
X161452380Y-115169047D01*
X161452380Y-115550000D01*
X160452380Y-115550000D01*
X160452380Y-115216666D01*
X160500000Y-115121428D01*
X160547619Y-115073809D01*
X160642857Y-115026190D01*
X160738095Y-115026190D01*
X160833333Y-115073809D01*
X160880952Y-115121428D01*
X160928571Y-115216666D01*
X160928571Y-115550000D01*
X131160714Y-137202380D02*
X130970238Y-137202380D01*
X130875000Y-137250000D01*
X130827380Y-137297619D01*
X130732142Y-137440476D01*
X130684523Y-137630952D01*
X130684523Y-138011904D01*
X130732142Y-138107142D01*
X130779761Y-138154761D01*
X130875000Y-138202380D01*
X131065476Y-138202380D01*
X131160714Y-138154761D01*
X131208333Y-138107142D01*
X131255952Y-138011904D01*
X131255952Y-137773809D01*
X131208333Y-137678571D01*
X131160714Y-137630952D01*
X131065476Y-137583333D01*
X130875000Y-137583333D01*
X130779761Y-137630952D01*
X130732142Y-137678571D01*
X130684523Y-137773809D01*
X131827380Y-137630952D02*
X131732142Y-137583333D01*
X131684523Y-137535714D01*
X131636904Y-137440476D01*
X131636904Y-137392857D01*
X131684523Y-137297619D01*
X131732142Y-137250000D01*
X131827380Y-137202380D01*
X132017857Y-137202380D01*
X132113095Y-137250000D01*
X132160714Y-137297619D01*
X132208333Y-137392857D01*
X132208333Y-137440476D01*
X132160714Y-137535714D01*
X132113095Y-137583333D01*
X132017857Y-137630952D01*
X131827380Y-137630952D01*
X131732142Y-137678571D01*
X131684523Y-137726190D01*
X131636904Y-137821428D01*
X131636904Y-138011904D01*
X131684523Y-138107142D01*
X131732142Y-138154761D01*
X131827380Y-138202380D01*
X132017857Y-138202380D01*
X132113095Y-138154761D01*
X132160714Y-138107142D01*
X132208333Y-138011904D01*
X132208333Y-137821428D01*
X132160714Y-137726190D01*
X132113095Y-137678571D01*
X132017857Y-137630952D01*
X132827380Y-137202380D02*
X132922619Y-137202380D01*
X133017857Y-137250000D01*
X133065476Y-137297619D01*
X133113095Y-137392857D01*
X133160714Y-137583333D01*
X133160714Y-137821428D01*
X133113095Y-138011904D01*
X133065476Y-138107142D01*
X133017857Y-138154761D01*
X132922619Y-138202380D01*
X132827380Y-138202380D01*
X132732142Y-138154761D01*
X132684523Y-138107142D01*
X132636904Y-138011904D01*
X132589285Y-137821428D01*
X132589285Y-137583333D01*
X132636904Y-137392857D01*
X132684523Y-137297619D01*
X132732142Y-137250000D01*
X132827380Y-137202380D01*
X133589285Y-137535714D02*
X133589285Y-138535714D01*
X134065476Y-138059523D02*
X134113095Y-138154761D01*
X134208333Y-138202380D01*
X133589285Y-138059523D02*
X133636904Y-138154761D01*
X133732142Y-138202380D01*
X133922619Y-138202380D01*
X134017857Y-138154761D01*
X134065476Y-138059523D01*
X134065476Y-137535714D01*
X134970238Y-137678571D02*
X134636904Y-137678571D01*
X134636904Y-138202380D02*
X134636904Y-137202380D01*
X135113095Y-137202380D01*
X121982142Y-124702380D02*
X121410714Y-124702380D01*
X121696428Y-124702380D02*
X121696428Y-123702380D01*
X121601190Y-123845238D01*
X121505952Y-123940476D01*
X121410714Y-123988095D01*
X122410714Y-124702380D02*
X122410714Y-123702380D01*
X122982142Y-124702380D01*
X122982142Y-123702380D01*
X123934523Y-123702380D02*
X123458333Y-123702380D01*
X123410714Y-124178571D01*
X123458333Y-124130952D01*
X123553571Y-124083333D01*
X123791666Y-124083333D01*
X123886904Y-124130952D01*
X123934523Y-124178571D01*
X123982142Y-124273809D01*
X123982142Y-124511904D01*
X123934523Y-124607142D01*
X123886904Y-124654761D01*
X123791666Y-124702380D01*
X123553571Y-124702380D01*
X123458333Y-124654761D01*
X123410714Y-124607142D01*
X124553571Y-124130952D02*
X124458333Y-124083333D01*
X124410714Y-124035714D01*
X124363095Y-123940476D01*
X124363095Y-123892857D01*
X124410714Y-123797619D01*
X124458333Y-123750000D01*
X124553571Y-123702380D01*
X124744047Y-123702380D01*
X124839285Y-123750000D01*
X124886904Y-123797619D01*
X124934523Y-123892857D01*
X124934523Y-123940476D01*
X124886904Y-124035714D01*
X124839285Y-124083333D01*
X124744047Y-124130952D01*
X124553571Y-124130952D01*
X124458333Y-124178571D01*
X124410714Y-124226190D01*
X124363095Y-124321428D01*
X124363095Y-124511904D01*
X124410714Y-124607142D01*
X124458333Y-124654761D01*
X124553571Y-124702380D01*
X124744047Y-124702380D01*
X124839285Y-124654761D01*
X124886904Y-124607142D01*
X124934523Y-124511904D01*
X124934523Y-124321428D01*
X124886904Y-124226190D01*
X124839285Y-124178571D01*
X124744047Y-124130952D01*
X125315476Y-123797619D02*
X125363095Y-123750000D01*
X125458333Y-123702380D01*
X125696428Y-123702380D01*
X125791666Y-123750000D01*
X125839285Y-123797619D01*
X125886904Y-123892857D01*
X125886904Y-123988095D01*
X125839285Y-124130952D01*
X125267857Y-124702380D01*
X125886904Y-124702380D01*
X126744047Y-124035714D02*
X126744047Y-124702380D01*
X126505952Y-123654761D02*
X126267857Y-124369047D01*
X126886904Y-124369047D01*
X139217857Y-128027380D02*
X139836904Y-128027380D01*
X139503571Y-128408333D01*
X139646428Y-128408333D01*
X139741666Y-128455952D01*
X139789285Y-128503571D01*
X139836904Y-128598809D01*
X139836904Y-128836904D01*
X139789285Y-128932142D01*
X139741666Y-128979761D01*
X139646428Y-129027380D01*
X139360714Y-129027380D01*
X139265476Y-128979761D01*
X139217857Y-128932142D01*
X140170238Y-128027380D02*
X140789285Y-128027380D01*
X140455952Y-128408333D01*
X140598809Y-128408333D01*
X140694047Y-128455952D01*
X140741666Y-128503571D01*
X140789285Y-128598809D01*
X140789285Y-128836904D01*
X140741666Y-128932142D01*
X140694047Y-128979761D01*
X140598809Y-129027380D01*
X140313095Y-129027380D01*
X140217857Y-128979761D01*
X140170238Y-128932142D01*
X141217857Y-128360714D02*
X141217857Y-129360714D01*
X141694047Y-128884523D02*
X141741666Y-128979761D01*
X141836904Y-129027380D01*
X141217857Y-128884523D02*
X141265476Y-128979761D01*
X141360714Y-129027380D01*
X141551190Y-129027380D01*
X141646428Y-128979761D01*
X141694047Y-128884523D01*
X141694047Y-128360714D01*
X142265476Y-129027380D02*
X142265476Y-128027380D01*
X142265476Y-128503571D02*
X142836904Y-128503571D01*
X142836904Y-129027380D02*
X142836904Y-128027380D01*
X125110714Y-146227380D02*
X124634523Y-146227380D01*
X124634523Y-145227380D01*
X125444047Y-146227380D02*
X125444047Y-145227380D01*
X125777380Y-145941666D01*
X126110714Y-145227380D01*
X126110714Y-146227380D01*
X126539285Y-145322619D02*
X126586904Y-145275000D01*
X126682142Y-145227380D01*
X126920238Y-145227380D01*
X127015476Y-145275000D01*
X127063095Y-145322619D01*
X127110714Y-145417857D01*
X127110714Y-145513095D01*
X127063095Y-145655952D01*
X126491666Y-146227380D01*
X127110714Y-146227380D01*
X128015476Y-145227380D02*
X127539285Y-145227380D01*
X127491666Y-145703571D01*
X127539285Y-145655952D01*
X127634523Y-145608333D01*
X127872619Y-145608333D01*
X127967857Y-145655952D01*
X128015476Y-145703571D01*
X128063095Y-145798809D01*
X128063095Y-146036904D01*
X128015476Y-146132142D01*
X127967857Y-146179761D01*
X127872619Y-146227380D01*
X127634523Y-146227380D01*
X127539285Y-146179761D01*
X127491666Y-146132142D01*
X128539285Y-146227380D02*
X128729761Y-146227380D01*
X128825000Y-146179761D01*
X128872619Y-146132142D01*
X128967857Y-145989285D01*
X129015476Y-145798809D01*
X129015476Y-145417857D01*
X128967857Y-145322619D01*
X128920238Y-145275000D01*
X128825000Y-145227380D01*
X128634523Y-145227380D01*
X128539285Y-145275000D01*
X128491666Y-145322619D01*
X128444047Y-145417857D01*
X128444047Y-145655952D01*
X128491666Y-145751190D01*
X128539285Y-145798809D01*
X128634523Y-145846428D01*
X128825000Y-145846428D01*
X128920238Y-145798809D01*
X128967857Y-145751190D01*
X129015476Y-145655952D01*
X129872619Y-145227380D02*
X129682142Y-145227380D01*
X129586904Y-145275000D01*
X129539285Y-145322619D01*
X129444047Y-145465476D01*
X129396428Y-145655952D01*
X129396428Y-146036904D01*
X129444047Y-146132142D01*
X129491666Y-146179761D01*
X129586904Y-146227380D01*
X129777380Y-146227380D01*
X129872619Y-146179761D01*
X129920238Y-146132142D01*
X129967857Y-146036904D01*
X129967857Y-145798809D01*
X129920238Y-145703571D01*
X129872619Y-145655952D01*
X129777380Y-145608333D01*
X129586904Y-145608333D01*
X129491666Y-145655952D01*
X129444047Y-145703571D01*
X129396428Y-145798809D01*
X130348809Y-146179761D02*
X130491666Y-146227380D01*
X130729761Y-146227380D01*
X130825000Y-146179761D01*
X130872619Y-146132142D01*
X130920238Y-146036904D01*
X130920238Y-145941666D01*
X130872619Y-145846428D01*
X130825000Y-145798809D01*
X130729761Y-145751190D01*
X130539285Y-145703571D01*
X130444047Y-145655952D01*
X130396428Y-145608333D01*
X130348809Y-145513095D01*
X130348809Y-145417857D01*
X130396428Y-145322619D01*
X130444047Y-145275000D01*
X130539285Y-145227380D01*
X130777380Y-145227380D01*
X130920238Y-145275000D01*
X131348809Y-145846428D02*
X132110714Y-145846428D01*
X133110714Y-146227380D02*
X132539285Y-146227380D01*
X132825000Y-146227380D02*
X132825000Y-145227380D01*
X132729761Y-145370238D01*
X132634523Y-145465476D01*
X132539285Y-145513095D01*
X133491666Y-145322619D02*
X133539285Y-145275000D01*
X133634523Y-145227380D01*
X133872619Y-145227380D01*
X133967857Y-145275000D01*
X134015476Y-145322619D01*
X134063095Y-145417857D01*
X134063095Y-145513095D01*
X134015476Y-145655952D01*
X133444047Y-146227380D01*
X134063095Y-146227380D01*
X100800000Y-143502380D02*
X101371428Y-143502380D01*
X101085714Y-144502380D02*
X101085714Y-143502380D01*
X101561904Y-143502380D02*
X102133333Y-143502380D01*
X101847619Y-144502380D02*
X101847619Y-143502380D01*
X102942857Y-144502380D02*
X102466666Y-144502380D01*
X102466666Y-143502380D01*
X104038095Y-144502380D02*
X104038095Y-143502380D01*
X104419047Y-143502380D01*
X104514285Y-143550000D01*
X104561904Y-143597619D01*
X104609523Y-143692857D01*
X104609523Y-143835714D01*
X104561904Y-143930952D01*
X104514285Y-143978571D01*
X104419047Y-144026190D01*
X104038095Y-144026190D01*
X105466666Y-143835714D02*
X105466666Y-144502380D01*
X105038095Y-143835714D02*
X105038095Y-144359523D01*
X105085714Y-144454761D01*
X105180952Y-144502380D01*
X105323809Y-144502380D01*
X105419047Y-144454761D01*
X105466666Y-144407142D01*
X106085714Y-144502380D02*
X105990476Y-144454761D01*
X105942857Y-144359523D01*
X105942857Y-143502380D01*
X106419047Y-144454761D02*
X106514285Y-144502380D01*
X106704761Y-144502380D01*
X106800000Y-144454761D01*
X106847619Y-144359523D01*
X106847619Y-144311904D01*
X106800000Y-144216666D01*
X106704761Y-144169047D01*
X106561904Y-144169047D01*
X106466666Y-144121428D01*
X106419047Y-144026190D01*
X106419047Y-143978571D01*
X106466666Y-143883333D01*
X106561904Y-143835714D01*
X106704761Y-143835714D01*
X106800000Y-143883333D01*
X107657142Y-144454761D02*
X107561904Y-144502380D01*
X107371428Y-144502380D01*
X107276190Y-144454761D01*
X107228571Y-144359523D01*
X107228571Y-143978571D01*
X107276190Y-143883333D01*
X107371428Y-143835714D01*
X107561904Y-143835714D01*
X107657142Y-143883333D01*
X107704761Y-143978571D01*
X107704761Y-144073809D01*
X107228571Y-144169047D01*
X109419047Y-143550000D02*
X109323809Y-143502380D01*
X109180952Y-143502380D01*
X109038095Y-143550000D01*
X108942857Y-143645238D01*
X108895238Y-143740476D01*
X108847619Y-143930952D01*
X108847619Y-144073809D01*
X108895238Y-144264285D01*
X108942857Y-144359523D01*
X109038095Y-144454761D01*
X109180952Y-144502380D01*
X109276190Y-144502380D01*
X109419047Y-144454761D01*
X109466666Y-144407142D01*
X109466666Y-144073809D01*
X109276190Y-144073809D01*
X110276190Y-144454761D02*
X110180952Y-144502380D01*
X109990476Y-144502380D01*
X109895238Y-144454761D01*
X109847619Y-144359523D01*
X109847619Y-143978571D01*
X109895238Y-143883333D01*
X109990476Y-143835714D01*
X110180952Y-143835714D01*
X110276190Y-143883333D01*
X110323809Y-143978571D01*
X110323809Y-144073809D01*
X109847619Y-144169047D01*
X110752380Y-143835714D02*
X110752380Y-144502380D01*
X110752380Y-143930952D02*
X110800000Y-143883333D01*
X110895238Y-143835714D01*
X111038095Y-143835714D01*
X111133333Y-143883333D01*
X111180952Y-143978571D01*
X111180952Y-144502380D01*
X112038095Y-144454761D02*
X111942857Y-144502380D01*
X111752380Y-144502380D01*
X111657142Y-144454761D01*
X111609523Y-144359523D01*
X111609523Y-143978571D01*
X111657142Y-143883333D01*
X111752380Y-143835714D01*
X111942857Y-143835714D01*
X112038095Y-143883333D01*
X112085714Y-143978571D01*
X112085714Y-144073809D01*
X111609523Y-144169047D01*
X112514285Y-144502380D02*
X112514285Y-143835714D01*
X112514285Y-144026190D02*
X112561904Y-143930952D01*
X112609523Y-143883333D01*
X112704761Y-143835714D01*
X112800000Y-143835714D01*
X113561904Y-144502380D02*
X113561904Y-143978571D01*
X113514285Y-143883333D01*
X113419047Y-143835714D01*
X113228571Y-143835714D01*
X113133333Y-143883333D01*
X113561904Y-144454761D02*
X113466666Y-144502380D01*
X113228571Y-144502380D01*
X113133333Y-144454761D01*
X113085714Y-144359523D01*
X113085714Y-144264285D01*
X113133333Y-144169047D01*
X113228571Y-144121428D01*
X113466666Y-144121428D01*
X113561904Y-144073809D01*
X113895238Y-143835714D02*
X114276190Y-143835714D01*
X114038095Y-143502380D02*
X114038095Y-144359523D01*
X114085714Y-144454761D01*
X114180952Y-144502380D01*
X114276190Y-144502380D01*
X114752380Y-144502380D02*
X114657142Y-144454761D01*
X114609523Y-144407142D01*
X114561904Y-144311904D01*
X114561904Y-144026190D01*
X114609523Y-143930952D01*
X114657142Y-143883333D01*
X114752380Y-143835714D01*
X114895238Y-143835714D01*
X114990476Y-143883333D01*
X115038095Y-143930952D01*
X115085714Y-144026190D01*
X115085714Y-144311904D01*
X115038095Y-144407142D01*
X114990476Y-144454761D01*
X114895238Y-144502380D01*
X114752380Y-144502380D01*
X115514285Y-144502380D02*
X115514285Y-143835714D01*
X115514285Y-144026190D02*
X115561904Y-143930952D01*
X115609523Y-143883333D01*
X115704761Y-143835714D01*
X115800000Y-143835714D01*
G04 #@! TD*
M02*
