M48
;DRILL file {KiCad (5.0.0)} date 09/07/18 11:03:10
;FORMAT={-:-/ absolute / metric / decimal}
FMAT,2
METRIC,TZ
T1C0.400
T2C0.700
T3C0.800
T4C1.000
T5C1.001
T6C1.100
T7C1.300
T8C1.600
T9C1.850
T10C2.200
T11C2.400
%
G90
G05
M71
T1
X120.425Y-127.5
X131.025Y-115.85
X133.65Y-115.85
X135.8Y-127.5
X140.375Y-120.175
X142.25Y-112.1
X142.6Y-115.825
X145.025Y-101.875
X160.45Y-138.575
X160.675Y-133.75
T2
X147.9Y-102.5
X147.9Y-107.58
X152.475Y-113.325
X152.475Y-118.405
X157.075Y-102.495
X157.075Y-107.575
X152.5Y-102.5
X152.5Y-107.58
X158.22Y-130.05
X163.3Y-130.05
X147.9Y-113.295
X147.9Y-118.375
T3
X132.825Y-130.775
X132.825Y-134.275
X118.425Y-132.425
X121.925Y-132.425
X104.14Y-102.5
X104.14Y-117.74
X106.68Y-102.5
X106.68Y-117.74
X109.22Y-102.5
X109.22Y-117.74
X111.76Y-102.5
X111.76Y-117.74
X114.3Y-102.5
X114.3Y-117.74
X116.84Y-102.5
X116.84Y-117.74
X119.38Y-102.5
X119.38Y-117.74
X121.92Y-102.5
X121.92Y-117.74
X124.46Y-102.5
X124.46Y-117.74
X127.Y-102.5
X127.Y-117.74
X129.54Y-102.5
X129.54Y-117.74
X132.08Y-102.5
X132.08Y-117.74
X134.62Y-102.5
X134.62Y-117.74
X137.16Y-102.5
X137.16Y-117.74
X139.7Y-102.5
X139.7Y-117.74
X154.15Y-123.425
X154.15Y-131.045
X163.7Y-101.05
X163.7Y-103.05
X163.7Y-105.05
T4
X165.Y-136.525
X167.5Y-136.525
X170.Y-136.525
X168.Y-113.625
X168.Y-117.125
X138.825Y-124.175
X142.825Y-124.175
X126.025Y-140.125
X127.725Y-143.825
X129.425Y-140.125
X131.125Y-143.825
X132.825Y-140.125
X168.Y-126.525
X168.Y-130.025
T5
X112.401Y-135.
X112.401Y-137.499
X112.376Y-90.
X112.376Y-92.499
T7
X161.Y-111.06
X161.Y-126.3
T8
X118.425Y-124.15
X131.125Y-124.15
T9
X140.3Y-132.35
X140.3Y-136.16
X142.46Y-148.86
X145.Y-132.35
X145.Y-136.16
X147.54Y-148.86
X149.7Y-132.35
X149.7Y-136.16
T10
X108.137Y-129.9
X108.137Y-140.098
X108.112Y-84.9
X108.112Y-95.098
T11
X169.875Y-76.9
T6
X164.875Y-83.15G85X164.875Y-85.35
G05
X170.975Y-80.7G85X168.775Y-80.7
G05
X170.975Y-87.3G85X168.775Y-87.3
G05
T0
M30
