G04 #@! TF.GenerationSoftware,KiCad,Pcbnew,(5.0.0)*
G04 #@! TF.CreationDate,2018-08-07T13:03:26+01:00*
G04 #@! TF.ProjectId,OpenSpritzer,4F70656E53707269747A65722E6B6963,rev?*
G04 #@! TF.SameCoordinates,Original*
G04 #@! TF.FileFunction,Other,User*
%FSLAX46Y46*%
G04 Gerber Fmt 4.6, Leading zero omitted, Abs format (unit mm)*
G04 Created by KiCad (PCBNEW (5.0.0)) date 08/07/18 13:03:26*
%MOMM*%
%LPD*%
G01*
G04 APERTURE LIST*
%ADD10C,0.050000*%
G04 APERTURE END LIST*
D10*
G04 #@! TO.C,RV1*
X83850000Y-81350000D02*
X83850000Y-94650000D01*
X83850000Y-94650000D02*
X98250000Y-94650000D01*
X98250000Y-94650000D02*
X98250000Y-81350000D01*
X98250000Y-81350000D02*
X83850000Y-81350000D01*
G04 #@! TO.C,SW1*
X83750000Y-113250000D02*
X83750000Y-110500000D01*
X88950000Y-113250000D02*
X83750000Y-113250000D01*
X88950000Y-103750000D02*
X88950000Y-113250000D01*
X83750000Y-103750000D02*
X88950000Y-103750000D01*
X83750000Y-106500000D02*
X83750000Y-103750000D01*
X82000000Y-110500000D02*
X82000000Y-106500000D01*
X82000000Y-110500000D02*
X83750000Y-110500000D01*
X83750000Y-106500000D02*
X82000000Y-106500000D01*
G04 #@! TO.C,A1*
X111470000Y-82940000D02*
X129750000Y-82940000D01*
X111470000Y-82940000D02*
X111470000Y-129160000D01*
X129750000Y-129160000D02*
X129750000Y-82940000D01*
X129750000Y-129160000D02*
X111470000Y-129160000D01*
G04 #@! TO.C,D1*
X90250000Y-96050000D02*
X83750000Y-96050000D01*
X83750000Y-96050000D02*
X83750000Y-102500000D01*
X83750000Y-102500000D02*
X90250000Y-102500000D01*
X90250000Y-102500000D02*
X90250000Y-96050000D01*
G04 #@! TO.C,D2*
X102050000Y-106850000D02*
X102050000Y-104150000D01*
X102050000Y-104150000D02*
X92300000Y-104150000D01*
X92300000Y-104150000D02*
X92300000Y-106850000D01*
X92300000Y-106850000D02*
X102050000Y-106850000D01*
G04 #@! TO.C,D3*
X83950000Y-114550000D02*
X83950000Y-120450000D01*
X83950000Y-120450000D02*
X102300000Y-120450000D01*
X102300000Y-120450000D02*
X102300000Y-114550000D01*
X102300000Y-114550000D02*
X83950000Y-114550000D01*
G04 #@! TO.C,J1*
X84480000Y-122580000D02*
X90060000Y-122580000D01*
X84480000Y-122580000D02*
X84480000Y-129420000D01*
X90060000Y-129420000D02*
X90060000Y-122580000D01*
X90060000Y-129420000D02*
X84480000Y-129420000D01*
G04 #@! TO.C,J2*
X90480000Y-122580000D02*
X96060000Y-122580000D01*
X90480000Y-122580000D02*
X90480000Y-129420000D01*
X96060000Y-129420000D02*
X96060000Y-122580000D01*
X96060000Y-129420000D02*
X90480000Y-129420000D01*
G04 #@! TO.C,J3*
X96480000Y-122580000D02*
X102060000Y-122580000D01*
X96480000Y-122580000D02*
X96480000Y-129420000D01*
X102060000Y-129420000D02*
X102060000Y-122580000D01*
X102060000Y-129420000D02*
X96480000Y-129420000D01*
G04 #@! TO.C,R1*
X94150000Y-96850000D02*
X91850000Y-96850000D01*
X91850000Y-96850000D02*
X91850000Y-101550000D01*
X91850000Y-101550000D02*
X94150000Y-101550000D01*
X94150000Y-101550000D02*
X94150000Y-96850000D01*
G04 #@! TO.C,R2*
X92150000Y-108350000D02*
X89850000Y-108350000D01*
X89850000Y-108350000D02*
X89850000Y-113050000D01*
X89850000Y-113050000D02*
X92150000Y-113050000D01*
X92150000Y-113050000D02*
X92150000Y-108350000D01*
G04 #@! TO.C,R3*
X93350000Y-113150000D02*
X95650000Y-113150000D01*
X95650000Y-113150000D02*
X95650000Y-108450000D01*
X95650000Y-108450000D02*
X93350000Y-108450000D01*
X93350000Y-108450000D02*
X93350000Y-113150000D01*
G04 #@! TO.C,R4*
X101650000Y-110150000D02*
X101650000Y-107850000D01*
X101650000Y-107850000D02*
X96950000Y-107850000D01*
X96950000Y-107850000D02*
X96950000Y-110150000D01*
X96950000Y-110150000D02*
X101650000Y-110150000D01*
G04 #@! TO.C,R5*
X96850000Y-110850000D02*
X96850000Y-113150000D01*
X96850000Y-113150000D02*
X101550000Y-113150000D01*
X101550000Y-113150000D02*
X101550000Y-110850000D01*
X101550000Y-110850000D02*
X96850000Y-110850000D01*
G04 #@! TO.C,R6*
X103350000Y-112650000D02*
X105650000Y-112650000D01*
X105650000Y-112650000D02*
X105650000Y-107950000D01*
X105650000Y-107950000D02*
X103350000Y-107950000D01*
X103350000Y-107950000D02*
X103350000Y-112650000D01*
G04 #@! TO.C,*
X110450000Y-87000000D02*
G75*
G03X110450000Y-87000000I-3450000J0D01*
G01*
G04 #@! TO.C,C1*
X138900000Y-104060000D02*
X138900000Y-112760000D01*
X138900000Y-112760000D02*
X147600000Y-112760000D01*
X147600000Y-112760000D02*
X147600000Y-104060000D01*
X147600000Y-104060000D02*
X138900000Y-104060000D01*
G04 #@! TO.C,C2*
X147250000Y-81400000D02*
X138550000Y-81400000D01*
X138550000Y-81400000D02*
X138550000Y-90100000D01*
X138550000Y-90100000D02*
X147250000Y-90100000D01*
X147250000Y-90100000D02*
X147250000Y-81400000D01*
G04 #@! TO.C,D4*
X137350000Y-91150000D02*
X131450000Y-91150000D01*
X131450000Y-91150000D02*
X131450000Y-107550000D01*
X131450000Y-107550000D02*
X137350000Y-107550000D01*
X137350000Y-107550000D02*
X137350000Y-91150000D01*
G04 #@! TO.C,L1*
X137750000Y-82650000D02*
X131050000Y-82650000D01*
X131050000Y-82650000D02*
X131050000Y-89350000D01*
X131050000Y-89350000D02*
X137750000Y-89350000D01*
X137750000Y-89350000D02*
X137750000Y-82650000D01*
G04 #@! TO.C,U1*
X148550000Y-91150000D02*
X138950000Y-91150000D01*
X138950000Y-91150000D02*
X138950000Y-101650000D01*
X138950000Y-101650000D02*
X148550000Y-101650000D01*
X148550000Y-101650000D02*
X148550000Y-91150000D01*
G04 #@! TO.C,*
X110450000Y-124000000D02*
G75*
G03X110450000Y-124000000I-3450000J0D01*
G01*
G04 #@! TD*
M02*
