G04 #@! TF.GenerationSoftware,KiCad,Pcbnew,(5.0.0)*
G04 #@! TF.CreationDate,2018-08-07T13:03:25+01:00*
G04 #@! TF.ProjectId,OpenSpritzer,4F70656E53707269747A65722E6B6963,rev?*
G04 #@! TF.SameCoordinates,Original*
G04 #@! TF.FileFunction,Copper,L2,Bot,Signal*
G04 #@! TF.FilePolarity,Positive*
%FSLAX46Y46*%
G04 Gerber Fmt 4.6, Leading zero omitted, Abs format (unit mm)*
G04 Created by KiCad (PCBNEW (5.0.0)) date 08/07/18 13:03:25*
%MOMM*%
%LPD*%
G01*
G04 APERTURE LIST*
G04 #@! TA.AperFunction,ComponentPad*
%ADD10O,1.400000X2.500000*%
G04 #@! TD*
G04 #@! TA.AperFunction,ComponentPad*
%ADD11C,1.800000*%
G04 #@! TD*
G04 #@! TA.AperFunction,WasherPad*
%ADD12C,4.000000*%
G04 #@! TD*
G04 #@! TA.AperFunction,ComponentPad*
%ADD13R,1.400000X1.400000*%
G04 #@! TD*
G04 #@! TA.AperFunction,ComponentPad*
%ADD14C,1.400000*%
G04 #@! TD*
G04 #@! TA.AperFunction,ComponentPad*
%ADD15R,1.600000X1.600000*%
G04 #@! TD*
G04 #@! TA.AperFunction,ComponentPad*
%ADD16O,1.600000X1.600000*%
G04 #@! TD*
G04 #@! TA.AperFunction,ComponentPad*
%ADD17R,1.800000X1.800000*%
G04 #@! TD*
G04 #@! TA.AperFunction,ComponentPad*
%ADD18R,2.600000X2.600000*%
G04 #@! TD*
G04 #@! TA.AperFunction,ComponentPad*
%ADD19O,2.600000X2.600000*%
G04 #@! TD*
G04 #@! TA.AperFunction,ComponentPad*
%ADD20O,1.510000X3.010000*%
G04 #@! TD*
G04 #@! TA.AperFunction,ComponentPad*
%ADD21O,1.400000X1.400000*%
G04 #@! TD*
G04 #@! TA.AperFunction,ComponentPad*
%ADD22C,1.600000*%
G04 #@! TD*
G04 #@! TA.AperFunction,ComponentPad*
%ADD23R,3.200000X3.200000*%
G04 #@! TD*
G04 #@! TA.AperFunction,ComponentPad*
%ADD24O,3.200000X3.200000*%
G04 #@! TD*
G04 #@! TA.AperFunction,ComponentPad*
%ADD25C,2.000000*%
G04 #@! TD*
G04 #@! TA.AperFunction,ComponentPad*
%ADD26O,1.800000X1.800000*%
G04 #@! TD*
G04 #@! TA.AperFunction,ViaPad*
%ADD27C,0.800000*%
G04 #@! TD*
G04 #@! TA.AperFunction,Conductor*
%ADD28C,0.250000*%
G04 #@! TD*
G04 #@! TA.AperFunction,Conductor*
%ADD29C,1.000000*%
G04 #@! TD*
G04 #@! TA.AperFunction,Conductor*
%ADD30C,0.254000*%
G04 #@! TD*
G04 APERTURE END LIST*
D10*
G04 #@! TO.P,Q1,2*
G04 #@! TO.N,Net-(Q1-Pad2)*
X104000000Y-98000000D03*
G04 #@! TO.P,Q1,1*
G04 #@! TO.N,GNDREF*
X102000000Y-98000000D03*
G04 #@! TO.P,Q1,3*
G04 #@! TO.N,Net-(D3-Pad2)*
X106000000Y-98000000D03*
G04 #@! TD*
D11*
G04 #@! TO.P,RV1,3*
G04 #@! TO.N,Net-(A1-Pad27)*
X85000000Y-85500000D03*
G04 #@! TO.P,RV1,2*
G04 #@! TO.N,Net-(R1-Pad1)*
X85000000Y-88000000D03*
G04 #@! TO.P,RV1,1*
G04 #@! TO.N,GNDREF*
X85000000Y-90500000D03*
D12*
G04 #@! TO.P,RV1,0*
G04 #@! TO.N,*
X92000000Y-83600000D03*
X92000000Y-92400000D03*
G04 #@! TD*
D13*
G04 #@! TO.P,SW1,1*
G04 #@! TO.N,Net-(A1-Pad27)*
X88000000Y-106000000D03*
D14*
G04 #@! TO.P,SW1,2*
G04 #@! TO.N,Net-(R2-Pad2)*
X88000000Y-108500000D03*
G04 #@! TO.P,SW1,3*
G04 #@! TO.N,Net-(A1-Pad13)*
X88000000Y-111000000D03*
G04 #@! TO.P,SW1,4*
G04 #@! TO.N,Net-(A1-Pad27)*
X84700000Y-106000000D03*
G04 #@! TO.P,SW1,5*
G04 #@! TO.N,Net-(D2-Pad2)*
X84700000Y-108500000D03*
G04 #@! TO.P,SW1,6*
G04 #@! TO.N,Net-(A1-Pad8)*
X84700000Y-111000000D03*
G04 #@! TD*
D15*
G04 #@! TO.P,A1,1*
G04 #@! TO.N,Net-(A1-Pad1)*
X113000000Y-87000000D03*
D16*
G04 #@! TO.P,A1,17*
G04 #@! TO.N,Net-(A1-Pad17)*
X128240000Y-120020000D03*
G04 #@! TO.P,A1,2*
G04 #@! TO.N,Net-(A1-Pad2)*
X113000000Y-89540000D03*
G04 #@! TO.P,A1,18*
G04 #@! TO.N,Net-(A1-Pad18)*
X128240000Y-117480000D03*
G04 #@! TO.P,A1,3*
G04 #@! TO.N,Net-(A1-Pad3)*
X113000000Y-92080000D03*
G04 #@! TO.P,A1,19*
G04 #@! TO.N,Net-(A1-Pad19)*
X128240000Y-114940000D03*
G04 #@! TO.P,A1,4*
G04 #@! TO.N,GNDREF*
X113000000Y-94620000D03*
G04 #@! TO.P,A1,20*
G04 #@! TO.N,Net-(A1-Pad20)*
X128240000Y-112400000D03*
G04 #@! TO.P,A1,5*
G04 #@! TO.N,Net-(A1-Pad5)*
X113000000Y-97160000D03*
G04 #@! TO.P,A1,21*
G04 #@! TO.N,Net-(A1-Pad21)*
X128240000Y-109860000D03*
G04 #@! TO.P,A1,6*
G04 #@! TO.N,Net-(A1-Pad6)*
X113000000Y-99700000D03*
G04 #@! TO.P,A1,22*
G04 #@! TO.N,Net-(A1-Pad22)*
X128240000Y-107320000D03*
G04 #@! TO.P,A1,7*
G04 #@! TO.N,Net-(A1-Pad7)*
X113000000Y-102240000D03*
G04 #@! TO.P,A1,23*
G04 #@! TO.N,Net-(A1-Pad23)*
X128240000Y-104780000D03*
G04 #@! TO.P,A1,8*
G04 #@! TO.N,Net-(A1-Pad8)*
X113000000Y-104780000D03*
G04 #@! TO.P,A1,24*
G04 #@! TO.N,Net-(A1-Pad24)*
X128240000Y-102240000D03*
G04 #@! TO.P,A1,9*
G04 #@! TO.N,Net-(A1-Pad9)*
X113000000Y-107320000D03*
G04 #@! TO.P,A1,25*
G04 #@! TO.N,Net-(A1-Pad25)*
X128240000Y-99700000D03*
G04 #@! TO.P,A1,10*
G04 #@! TO.N,Net-(A1-Pad10)*
X113000000Y-109860000D03*
G04 #@! TO.P,A1,26*
G04 #@! TO.N,Net-(A1-Pad26)*
X128240000Y-97160000D03*
G04 #@! TO.P,A1,11*
G04 #@! TO.N,Net-(A1-Pad11)*
X113000000Y-112400000D03*
G04 #@! TO.P,A1,27*
G04 #@! TO.N,Net-(A1-Pad27)*
X128240000Y-94620000D03*
G04 #@! TO.P,A1,12*
G04 #@! TO.N,Net-(A1-Pad12)*
X113000000Y-114940000D03*
G04 #@! TO.P,A1,28*
G04 #@! TO.N,Net-(A1-Pad28)*
X128240000Y-92080000D03*
G04 #@! TO.P,A1,13*
G04 #@! TO.N,Net-(A1-Pad13)*
X113000000Y-117480000D03*
G04 #@! TO.P,A1,29*
G04 #@! TO.N,GNDREF*
X128240000Y-89540000D03*
G04 #@! TO.P,A1,14*
G04 #@! TO.N,Net-(A1-Pad14)*
X113000000Y-120020000D03*
G04 #@! TO.P,A1,30*
G04 #@! TO.N,Net-(A1-Pad30)*
X128240000Y-87000000D03*
G04 #@! TO.P,A1,15*
G04 #@! TO.N,Net-(A1-Pad15)*
X113000000Y-122560000D03*
G04 #@! TO.P,A1,16*
G04 #@! TO.N,Net-(A1-Pad16)*
X128240000Y-122560000D03*
G04 #@! TD*
D17*
G04 #@! TO.P,D1,1*
G04 #@! TO.N,GNDREF*
X87000000Y-98000000D03*
D11*
G04 #@! TO.P,D1,2*
G04 #@! TO.N,Net-(D1-Pad2)*
X87000000Y-100540000D03*
G04 #@! TD*
D15*
G04 #@! TO.P,D2,1*
G04 #@! TO.N,Net-(D2-Pad1)*
X101000000Y-105500000D03*
D16*
G04 #@! TO.P,D2,2*
G04 #@! TO.N,Net-(D2-Pad2)*
X93380000Y-105500000D03*
G04 #@! TD*
D18*
G04 #@! TO.P,D3,1*
G04 #@! TO.N,Net-(C1-Pad1)*
X85500000Y-117500000D03*
D19*
G04 #@! TO.P,D3,2*
G04 #@! TO.N,Net-(D3-Pad2)*
X100740000Y-117500000D03*
G04 #@! TD*
D20*
G04 #@! TO.P,J1,1*
G04 #@! TO.N,Net-(J1-Pad1)*
X86000000Y-126000000D03*
G04 #@! TO.P,J1,2*
G04 #@! TO.N,Net-(A1-Pad27)*
X88540000Y-126000000D03*
G04 #@! TD*
G04 #@! TO.P,J2,1*
G04 #@! TO.N,GNDREF*
X92000000Y-126000000D03*
G04 #@! TO.P,J2,2*
G04 #@! TO.N,Net-(C1-Pad1)*
X94540000Y-126000000D03*
G04 #@! TD*
G04 #@! TO.P,J3,1*
G04 #@! TO.N,Net-(C1-Pad1)*
X98000000Y-126000000D03*
G04 #@! TO.P,J3,2*
G04 #@! TO.N,Net-(D3-Pad2)*
X100540000Y-126000000D03*
G04 #@! TD*
D14*
G04 #@! TO.P,R1,1*
G04 #@! TO.N,Net-(R1-Pad1)*
X93000000Y-98000000D03*
D21*
G04 #@! TO.P,R1,2*
G04 #@! TO.N,Net-(A1-Pad19)*
X93000000Y-100540000D03*
G04 #@! TD*
D14*
G04 #@! TO.P,R2,1*
G04 #@! TO.N,Net-(D1-Pad2)*
X91000000Y-109500000D03*
D21*
G04 #@! TO.P,R2,2*
G04 #@! TO.N,Net-(R2-Pad2)*
X91000000Y-112040000D03*
G04 #@! TD*
D14*
G04 #@! TO.P,R3,1*
G04 #@! TO.N,Net-(J1-Pad1)*
X94500000Y-112000000D03*
D21*
G04 #@! TO.P,R3,2*
G04 #@! TO.N,Net-(A1-Pad5)*
X94500000Y-109460000D03*
G04 #@! TD*
D14*
G04 #@! TO.P,R4,1*
G04 #@! TO.N,Net-(Q1-Pad2)*
X100500000Y-109000000D03*
D21*
G04 #@! TO.P,R4,2*
G04 #@! TO.N,Net-(D2-Pad1)*
X97960000Y-109000000D03*
G04 #@! TD*
D14*
G04 #@! TO.P,R5,1*
G04 #@! TO.N,Net-(J1-Pad1)*
X98000000Y-112000000D03*
D21*
G04 #@! TO.P,R5,2*
G04 #@! TO.N,GNDREF*
X100540000Y-112000000D03*
G04 #@! TD*
D14*
G04 #@! TO.P,R6,1*
G04 #@! TO.N,GNDREF*
X104500000Y-111500000D03*
D21*
G04 #@! TO.P,R6,2*
G04 #@! TO.N,Net-(Q1-Pad2)*
X104500000Y-108960000D03*
G04 #@! TD*
D15*
G04 #@! TO.P,C1,1*
G04 #@! TO.N,Net-(C1-Pad1)*
X141500000Y-108410000D03*
D22*
G04 #@! TO.P,C1,2*
G04 #@! TO.N,GNDREF*
X145000000Y-108410000D03*
G04 #@! TD*
D15*
G04 #@! TO.P,C2,1*
G04 #@! TO.N,Net-(A1-Pad30)*
X142900000Y-84000000D03*
D22*
G04 #@! TO.P,C2,2*
G04 #@! TO.N,GNDREF*
X142900000Y-87500000D03*
G04 #@! TD*
D23*
G04 #@! TO.P,D4,1*
G04 #@! TO.N,Net-(D4-Pad1)*
X134400000Y-93000000D03*
D24*
G04 #@! TO.P,D4,2*
G04 #@! TO.N,GNDREF*
X134400000Y-105700000D03*
G04 #@! TD*
D25*
G04 #@! TO.P,L1,1*
G04 #@! TO.N,Net-(A1-Pad30)*
X134400000Y-84000000D03*
G04 #@! TO.P,L1,2*
G04 #@! TO.N,Net-(D4-Pad1)*
X134400000Y-88000000D03*
G04 #@! TD*
D17*
G04 #@! TO.P,U1,1*
G04 #@! TO.N,Net-(C1-Pad1)*
X140100000Y-93000000D03*
D26*
G04 #@! TO.P,U1,2*
G04 #@! TO.N,Net-(D4-Pad1)*
X143800000Y-94700000D03*
G04 #@! TO.P,U1,3*
G04 #@! TO.N,GNDREF*
X140100000Y-96400000D03*
G04 #@! TO.P,U1,4*
G04 #@! TO.N,Net-(A1-Pad30)*
X143800000Y-98100000D03*
G04 #@! TO.P,U1,5*
G04 #@! TO.N,GNDREF*
X140100000Y-99800000D03*
G04 #@! TD*
D27*
G04 #@! TO.N,Net-(A1-Pad13)*
X92500000Y-115000000D03*
G04 #@! TD*
D28*
G04 #@! TO.N,Net-(A1-Pad13)*
X112020000Y-116500000D02*
X113000000Y-117480000D01*
X112000000Y-116500000D02*
X112020000Y-116500000D01*
X92500000Y-115000000D02*
X110500000Y-115000000D01*
X110500000Y-115000000D02*
X112000000Y-116500000D01*
G04 #@! TO.N,Net-(A1-Pad8)*
X103780000Y-114000000D02*
X113000000Y-104780000D01*
X86710051Y-114000000D02*
X103780000Y-114000000D01*
X84700000Y-111000000D02*
X84700000Y-111989949D01*
X84700000Y-111989949D02*
X86710051Y-114000000D01*
G04 #@! TO.N,Net-(D2-Pad2)*
X84700000Y-108500000D02*
X85700000Y-107500000D01*
X85700000Y-107500000D02*
X86000000Y-107500000D01*
X86000000Y-107500000D02*
X86500000Y-107000000D01*
X86500000Y-107000000D02*
X86500000Y-105000000D01*
X86500000Y-105000000D02*
X87000000Y-104500000D01*
X92380000Y-104500000D02*
X93380000Y-105500000D01*
X87000000Y-104500000D02*
X92380000Y-104500000D01*
G04 #@! TO.N,Net-(D3-Pad2)*
X106000000Y-98000000D02*
X106000000Y-98550000D01*
G04 #@! TO.N,Net-(Q1-Pad2)*
X104500000Y-98500000D02*
X104000000Y-98000000D01*
G04 #@! TO.N,Net-(R1-Pad1)*
X87500000Y-92500000D02*
X93000000Y-98000000D01*
X85000000Y-88000000D02*
X87500000Y-90500000D01*
X87500000Y-90500000D02*
X87500000Y-92500000D01*
G04 #@! TO.N,Net-(R2-Pad2)*
X88000000Y-108500000D02*
X88699999Y-109199999D01*
X88699999Y-109739999D02*
X91000000Y-112040000D01*
X88699999Y-109199999D02*
X88699999Y-109739999D01*
D29*
G04 #@! TO.N,Net-(C1-Pad1)*
X89000000Y-117500000D02*
X85500000Y-117500000D01*
X94500000Y-123000000D02*
X89000000Y-117500000D01*
X94500000Y-125409463D02*
X94500000Y-123000000D01*
X94540000Y-126000000D02*
X94540000Y-125449463D01*
X94540000Y-125449463D02*
X94500000Y-125409463D01*
G04 #@! TD*
D30*
G04 #@! TO.N,GNDREF*
G36*
X89766155Y-82107392D02*
X89365000Y-83075866D01*
X89365000Y-84124134D01*
X89766155Y-85092608D01*
X90507392Y-85833845D01*
X91475866Y-86235000D01*
X92524134Y-86235000D01*
X93492608Y-85833845D01*
X94233845Y-85092608D01*
X94621527Y-84156659D01*
X111475000Y-84156659D01*
X111475000Y-84763341D01*
X111707167Y-85323843D01*
X111979703Y-85596379D01*
X111952235Y-85601843D01*
X111742191Y-85742191D01*
X111601843Y-85952235D01*
X111552560Y-86200000D01*
X111552560Y-87800000D01*
X111601843Y-88047765D01*
X111742191Y-88257809D01*
X111952235Y-88398157D01*
X112086106Y-88424785D01*
X111965423Y-88505423D01*
X111648260Y-88980091D01*
X111536887Y-89540000D01*
X111648260Y-90099909D01*
X111965423Y-90574577D01*
X112317758Y-90810000D01*
X111965423Y-91045423D01*
X111648260Y-91520091D01*
X111536887Y-92080000D01*
X111648260Y-92639909D01*
X111965423Y-93114577D01*
X112349108Y-93370947D01*
X112144866Y-93467611D01*
X111768959Y-93882577D01*
X111608096Y-94270961D01*
X111730085Y-94493000D01*
X112873000Y-94493000D01*
X112873000Y-94473000D01*
X113127000Y-94473000D01*
X113127000Y-94493000D01*
X114269915Y-94493000D01*
X114391904Y-94270961D01*
X114231041Y-93882577D01*
X113855134Y-93467611D01*
X113650892Y-93370947D01*
X114034577Y-93114577D01*
X114351740Y-92639909D01*
X114463113Y-92080000D01*
X114351740Y-91520091D01*
X114034577Y-91045423D01*
X113682242Y-90810000D01*
X114034577Y-90574577D01*
X114351740Y-90099909D01*
X114463113Y-89540000D01*
X114351740Y-88980091D01*
X114034577Y-88505423D01*
X113913894Y-88424785D01*
X114047765Y-88398157D01*
X114257809Y-88257809D01*
X114398157Y-88047765D01*
X114447440Y-87800000D01*
X114447440Y-86200000D01*
X114398157Y-85952235D01*
X114257809Y-85742191D01*
X114047765Y-85601843D01*
X114020297Y-85596379D01*
X114292833Y-85323843D01*
X114525000Y-84763341D01*
X114525000Y-84156659D01*
X126715000Y-84156659D01*
X126715000Y-84763341D01*
X126947167Y-85323843D01*
X127376157Y-85752833D01*
X127467168Y-85790531D01*
X127205423Y-85965423D01*
X126888260Y-86440091D01*
X126776887Y-87000000D01*
X126888260Y-87559909D01*
X127205423Y-88034577D01*
X127589108Y-88290947D01*
X127384866Y-88387611D01*
X127008959Y-88802577D01*
X126848096Y-89190961D01*
X126970085Y-89413000D01*
X128113000Y-89413000D01*
X128113000Y-89393000D01*
X128367000Y-89393000D01*
X128367000Y-89413000D01*
X129509915Y-89413000D01*
X129631904Y-89190961D01*
X129471041Y-88802577D01*
X129095134Y-88387611D01*
X128890892Y-88290947D01*
X129274577Y-88034577D01*
X129591740Y-87559909D01*
X129703113Y-87000000D01*
X129591740Y-86440091D01*
X129274577Y-85965423D01*
X129012832Y-85790531D01*
X129103843Y-85752833D01*
X129532833Y-85323843D01*
X129765000Y-84763341D01*
X129765000Y-84156659D01*
X129532833Y-83596157D01*
X129103843Y-83167167D01*
X128543341Y-82935000D01*
X127936659Y-82935000D01*
X127376157Y-83167167D01*
X126947167Y-83596157D01*
X126715000Y-84156659D01*
X114525000Y-84156659D01*
X114292833Y-83596157D01*
X113863843Y-83167167D01*
X113303341Y-82935000D01*
X112696659Y-82935000D01*
X112136157Y-83167167D01*
X111707167Y-83596157D01*
X111475000Y-84156659D01*
X94621527Y-84156659D01*
X94635000Y-84124134D01*
X94635000Y-83075866D01*
X94233845Y-82107392D01*
X93861453Y-81735000D01*
X130873000Y-81735000D01*
X130873000Y-129265000D01*
X83735000Y-129265000D01*
X83735000Y-125113101D01*
X84610000Y-125113101D01*
X84610000Y-126886900D01*
X84690650Y-127292351D01*
X84997867Y-127752134D01*
X85457650Y-128059351D01*
X86000000Y-128167231D01*
X86542351Y-128059351D01*
X87002134Y-127752134D01*
X87270000Y-127351243D01*
X87537867Y-127752134D01*
X87997650Y-128059351D01*
X88540000Y-128167231D01*
X89082351Y-128059351D01*
X89542134Y-127752134D01*
X89849351Y-127292351D01*
X89930000Y-126886900D01*
X89930000Y-126127000D01*
X90610000Y-126127000D01*
X90610000Y-126877000D01*
X90764408Y-127399263D01*
X91106924Y-127822681D01*
X91585403Y-128082793D01*
X91658029Y-128097277D01*
X91873000Y-127974683D01*
X91873000Y-126127000D01*
X90610000Y-126127000D01*
X89930000Y-126127000D01*
X89930000Y-125123000D01*
X90610000Y-125123000D01*
X90610000Y-125873000D01*
X91873000Y-125873000D01*
X91873000Y-124025317D01*
X91658029Y-123902723D01*
X91585403Y-123917207D01*
X91106924Y-124177319D01*
X90764408Y-124600737D01*
X90610000Y-125123000D01*
X89930000Y-125123000D01*
X89930000Y-125113100D01*
X89849351Y-124707649D01*
X89542133Y-124247866D01*
X89082350Y-123940649D01*
X88540000Y-123832769D01*
X87997649Y-123940649D01*
X87537866Y-124247867D01*
X87270000Y-124648757D01*
X87002133Y-124247866D01*
X86542350Y-123940649D01*
X86000000Y-123832769D01*
X85457649Y-123940649D01*
X84997866Y-124247867D01*
X84690649Y-124707650D01*
X84610000Y-125113101D01*
X83735000Y-125113101D01*
X83735000Y-119247047D01*
X83742191Y-119257809D01*
X83952235Y-119398157D01*
X84200000Y-119447440D01*
X86800000Y-119447440D01*
X87047765Y-119398157D01*
X87257809Y-119257809D01*
X87398157Y-119047765D01*
X87447440Y-118800000D01*
X87447440Y-118635000D01*
X88529869Y-118635000D01*
X93365001Y-123470134D01*
X93365000Y-124506579D01*
X93255989Y-124669726D01*
X93235592Y-124600737D01*
X92893076Y-124177319D01*
X92414597Y-123917207D01*
X92341971Y-123902723D01*
X92127000Y-124025317D01*
X92127000Y-125873000D01*
X92147000Y-125873000D01*
X92147000Y-126127000D01*
X92127000Y-126127000D01*
X92127000Y-127974683D01*
X92341971Y-128097277D01*
X92414597Y-128082793D01*
X92893076Y-127822681D01*
X93235592Y-127399263D01*
X93255989Y-127330273D01*
X93537867Y-127752134D01*
X93997650Y-128059351D01*
X94540000Y-128167231D01*
X95082351Y-128059351D01*
X95542134Y-127752134D01*
X95849351Y-127292351D01*
X95930000Y-126886900D01*
X95930000Y-125113101D01*
X96610000Y-125113101D01*
X96610000Y-126886900D01*
X96690650Y-127292351D01*
X96997867Y-127752134D01*
X97457650Y-128059351D01*
X98000000Y-128167231D01*
X98542351Y-128059351D01*
X99002134Y-127752134D01*
X99270000Y-127351243D01*
X99537867Y-127752134D01*
X99997650Y-128059351D01*
X100540000Y-128167231D01*
X101082351Y-128059351D01*
X101542134Y-127752134D01*
X101849351Y-127292351D01*
X101930000Y-126886900D01*
X101930000Y-125113100D01*
X101849351Y-124707649D01*
X101542133Y-124247866D01*
X101082350Y-123940649D01*
X100540000Y-123832769D01*
X99997649Y-123940649D01*
X99537866Y-124247867D01*
X99270000Y-124648757D01*
X99002133Y-124247866D01*
X98542350Y-123940649D01*
X98000000Y-123832769D01*
X97457649Y-123940649D01*
X96997866Y-124247867D01*
X96690649Y-124707650D01*
X96610000Y-125113101D01*
X95930000Y-125113101D01*
X95930000Y-125113100D01*
X95849351Y-124707649D01*
X95635000Y-124386851D01*
X95635000Y-123555431D01*
X104765000Y-123555431D01*
X104765000Y-124444569D01*
X105105259Y-125266026D01*
X105733974Y-125894741D01*
X106555431Y-126235000D01*
X107444569Y-126235000D01*
X108266026Y-125894741D01*
X108894741Y-125266026D01*
X109235000Y-124444569D01*
X109235000Y-123555431D01*
X108894741Y-122733974D01*
X108266026Y-122105259D01*
X107444569Y-121765000D01*
X106555431Y-121765000D01*
X105733974Y-122105259D01*
X105105259Y-122733974D01*
X104765000Y-123555431D01*
X95635000Y-123555431D01*
X95635000Y-123111783D01*
X95657235Y-123000000D01*
X95569146Y-122557145D01*
X95381609Y-122276476D01*
X95318289Y-122181711D01*
X95223524Y-122118391D01*
X89881613Y-116776482D01*
X89818289Y-116681711D01*
X89442855Y-116430854D01*
X89111783Y-116365000D01*
X89000000Y-116342765D01*
X88888217Y-116365000D01*
X87447440Y-116365000D01*
X87447440Y-116200000D01*
X87398157Y-115952235D01*
X87257809Y-115742191D01*
X87047765Y-115601843D01*
X86800000Y-115552560D01*
X84200000Y-115552560D01*
X83952235Y-115601843D01*
X83742191Y-115742191D01*
X83735000Y-115752953D01*
X83735000Y-111922975D01*
X83943783Y-112131758D01*
X83954176Y-112136063D01*
X83984097Y-112286486D01*
X84015397Y-112333329D01*
X84152072Y-112537878D01*
X84215528Y-112580278D01*
X86119724Y-114484476D01*
X86162122Y-114547929D01*
X86225575Y-114590327D01*
X86225577Y-114590329D01*
X86350953Y-114674102D01*
X86413514Y-114715904D01*
X86635199Y-114760000D01*
X86635203Y-114760000D01*
X86710050Y-114774888D01*
X86784897Y-114760000D01*
X91479135Y-114760000D01*
X91465000Y-114794126D01*
X91465000Y-115205874D01*
X91622569Y-115586280D01*
X91913720Y-115877431D01*
X92294126Y-116035000D01*
X92705874Y-116035000D01*
X93086280Y-115877431D01*
X93203711Y-115760000D01*
X99861188Y-115760000D01*
X99344943Y-116104943D01*
X98917271Y-116745001D01*
X98767092Y-117500000D01*
X98917271Y-118254999D01*
X99344943Y-118895057D01*
X99985001Y-119322729D01*
X100549424Y-119435000D01*
X100930576Y-119435000D01*
X101494999Y-119322729D01*
X102135057Y-118895057D01*
X102562729Y-118254999D01*
X102712908Y-117500000D01*
X102562729Y-116745001D01*
X102135057Y-116104943D01*
X101618812Y-115760000D01*
X110185199Y-115760000D01*
X111409673Y-116984476D01*
X111452071Y-117047929D01*
X111515524Y-117090327D01*
X111515526Y-117090329D01*
X111575804Y-117130605D01*
X111601312Y-117156113D01*
X111536887Y-117480000D01*
X111648260Y-118039909D01*
X111965423Y-118514577D01*
X112317758Y-118750000D01*
X111965423Y-118985423D01*
X111648260Y-119460091D01*
X111536887Y-120020000D01*
X111648260Y-120579909D01*
X111965423Y-121054577D01*
X112317758Y-121290000D01*
X111965423Y-121525423D01*
X111648260Y-122000091D01*
X111536887Y-122560000D01*
X111648260Y-123119909D01*
X111965423Y-123594577D01*
X112227168Y-123769469D01*
X112136157Y-123807167D01*
X111707167Y-124236157D01*
X111475000Y-124796659D01*
X111475000Y-125403341D01*
X111707167Y-125963843D01*
X112136157Y-126392833D01*
X112696659Y-126625000D01*
X113303341Y-126625000D01*
X113863843Y-126392833D01*
X114292833Y-125963843D01*
X114525000Y-125403341D01*
X114525000Y-124796659D01*
X126715000Y-124796659D01*
X126715000Y-125403341D01*
X126947167Y-125963843D01*
X127376157Y-126392833D01*
X127936659Y-126625000D01*
X128543341Y-126625000D01*
X129103843Y-126392833D01*
X129532833Y-125963843D01*
X129765000Y-125403341D01*
X129765000Y-124796659D01*
X129532833Y-124236157D01*
X129103843Y-123807167D01*
X129012832Y-123769469D01*
X129274577Y-123594577D01*
X129591740Y-123119909D01*
X129703113Y-122560000D01*
X129591740Y-122000091D01*
X129274577Y-121525423D01*
X128922242Y-121290000D01*
X129274577Y-121054577D01*
X129591740Y-120579909D01*
X129703113Y-120020000D01*
X129591740Y-119460091D01*
X129274577Y-118985423D01*
X128922242Y-118750000D01*
X129274577Y-118514577D01*
X129591740Y-118039909D01*
X129703113Y-117480000D01*
X129591740Y-116920091D01*
X129274577Y-116445423D01*
X128922242Y-116210000D01*
X129274577Y-115974577D01*
X129591740Y-115499909D01*
X129703113Y-114940000D01*
X129591740Y-114380091D01*
X129274577Y-113905423D01*
X128922242Y-113670000D01*
X129274577Y-113434577D01*
X129591740Y-112959909D01*
X129703113Y-112400000D01*
X129591740Y-111840091D01*
X129274577Y-111365423D01*
X128922242Y-111130000D01*
X129274577Y-110894577D01*
X129591740Y-110419909D01*
X129703113Y-109860000D01*
X129591740Y-109300091D01*
X129274577Y-108825423D01*
X128922242Y-108590000D01*
X129274577Y-108354577D01*
X129591740Y-107879909D01*
X129703113Y-107320000D01*
X129591740Y-106760091D01*
X129274577Y-106285423D01*
X128922242Y-106050000D01*
X129274577Y-105814577D01*
X129591740Y-105339909D01*
X129703113Y-104780000D01*
X129591740Y-104220091D01*
X129274577Y-103745423D01*
X128922242Y-103510000D01*
X129274577Y-103274577D01*
X129591740Y-102799909D01*
X129703113Y-102240000D01*
X129591740Y-101680091D01*
X129274577Y-101205423D01*
X128922242Y-100970000D01*
X129274577Y-100734577D01*
X129591740Y-100259909D01*
X129703113Y-99700000D01*
X129591740Y-99140091D01*
X129274577Y-98665423D01*
X128922242Y-98430000D01*
X129274577Y-98194577D01*
X129591740Y-97719909D01*
X129703113Y-97160000D01*
X129591740Y-96600091D01*
X129274577Y-96125423D01*
X128922242Y-95890000D01*
X129274577Y-95654577D01*
X129591740Y-95179909D01*
X129703113Y-94620000D01*
X129591740Y-94060091D01*
X129274577Y-93585423D01*
X128922242Y-93350000D01*
X129274577Y-93114577D01*
X129591740Y-92639909D01*
X129703113Y-92080000D01*
X129591740Y-91520091D01*
X129274577Y-91045423D01*
X128890892Y-90789053D01*
X129095134Y-90692389D01*
X129471041Y-90277423D01*
X129631904Y-89889039D01*
X129509915Y-89667000D01*
X128367000Y-89667000D01*
X128367000Y-89687000D01*
X128113000Y-89687000D01*
X128113000Y-89667000D01*
X126970085Y-89667000D01*
X126848096Y-89889039D01*
X127008959Y-90277423D01*
X127384866Y-90692389D01*
X127589108Y-90789053D01*
X127205423Y-91045423D01*
X126888260Y-91520091D01*
X126776887Y-92080000D01*
X126888260Y-92639909D01*
X127205423Y-93114577D01*
X127557758Y-93350000D01*
X127205423Y-93585423D01*
X126888260Y-94060091D01*
X126776887Y-94620000D01*
X126888260Y-95179909D01*
X127205423Y-95654577D01*
X127557758Y-95890000D01*
X127205423Y-96125423D01*
X126888260Y-96600091D01*
X126776887Y-97160000D01*
X126888260Y-97719909D01*
X127205423Y-98194577D01*
X127557758Y-98430000D01*
X127205423Y-98665423D01*
X126888260Y-99140091D01*
X126776887Y-99700000D01*
X126888260Y-100259909D01*
X127205423Y-100734577D01*
X127557758Y-100970000D01*
X127205423Y-101205423D01*
X126888260Y-101680091D01*
X126776887Y-102240000D01*
X126888260Y-102799909D01*
X127205423Y-103274577D01*
X127557758Y-103510000D01*
X127205423Y-103745423D01*
X126888260Y-104220091D01*
X126776887Y-104780000D01*
X126888260Y-105339909D01*
X127205423Y-105814577D01*
X127557758Y-106050000D01*
X127205423Y-106285423D01*
X126888260Y-106760091D01*
X126776887Y-107320000D01*
X126888260Y-107879909D01*
X127205423Y-108354577D01*
X127557758Y-108590000D01*
X127205423Y-108825423D01*
X126888260Y-109300091D01*
X126776887Y-109860000D01*
X126888260Y-110419909D01*
X127205423Y-110894577D01*
X127557758Y-111130000D01*
X127205423Y-111365423D01*
X126888260Y-111840091D01*
X126776887Y-112400000D01*
X126888260Y-112959909D01*
X127205423Y-113434577D01*
X127557758Y-113670000D01*
X127205423Y-113905423D01*
X126888260Y-114380091D01*
X126776887Y-114940000D01*
X126888260Y-115499909D01*
X127205423Y-115974577D01*
X127557758Y-116210000D01*
X127205423Y-116445423D01*
X126888260Y-116920091D01*
X126776887Y-117480000D01*
X126888260Y-118039909D01*
X127205423Y-118514577D01*
X127557758Y-118750000D01*
X127205423Y-118985423D01*
X126888260Y-119460091D01*
X126776887Y-120020000D01*
X126888260Y-120579909D01*
X127205423Y-121054577D01*
X127557758Y-121290000D01*
X127205423Y-121525423D01*
X126888260Y-122000091D01*
X126776887Y-122560000D01*
X126888260Y-123119909D01*
X127205423Y-123594577D01*
X127467168Y-123769469D01*
X127376157Y-123807167D01*
X126947167Y-124236157D01*
X126715000Y-124796659D01*
X114525000Y-124796659D01*
X114292833Y-124236157D01*
X113863843Y-123807167D01*
X113772832Y-123769469D01*
X114034577Y-123594577D01*
X114351740Y-123119909D01*
X114463113Y-122560000D01*
X114351740Y-122000091D01*
X114034577Y-121525423D01*
X113682242Y-121290000D01*
X114034577Y-121054577D01*
X114351740Y-120579909D01*
X114463113Y-120020000D01*
X114351740Y-119460091D01*
X114034577Y-118985423D01*
X113682242Y-118750000D01*
X114034577Y-118514577D01*
X114351740Y-118039909D01*
X114463113Y-117480000D01*
X114351740Y-116920091D01*
X114034577Y-116445423D01*
X113682242Y-116210000D01*
X114034577Y-115974577D01*
X114351740Y-115499909D01*
X114463113Y-114940000D01*
X114351740Y-114380091D01*
X114034577Y-113905423D01*
X113682242Y-113670000D01*
X114034577Y-113434577D01*
X114351740Y-112959909D01*
X114463113Y-112400000D01*
X114351740Y-111840091D01*
X114034577Y-111365423D01*
X113682242Y-111130000D01*
X114034577Y-110894577D01*
X114351740Y-110419909D01*
X114463113Y-109860000D01*
X114351740Y-109300091D01*
X114034577Y-108825423D01*
X113682242Y-108590000D01*
X114034577Y-108354577D01*
X114351740Y-107879909D01*
X114463113Y-107320000D01*
X114351740Y-106760091D01*
X114034577Y-106285423D01*
X113682242Y-106050000D01*
X114034577Y-105814577D01*
X114351740Y-105339909D01*
X114463113Y-104780000D01*
X114351740Y-104220091D01*
X114034577Y-103745423D01*
X113682242Y-103510000D01*
X114034577Y-103274577D01*
X114351740Y-102799909D01*
X114463113Y-102240000D01*
X114351740Y-101680091D01*
X114034577Y-101205423D01*
X113682242Y-100970000D01*
X114034577Y-100734577D01*
X114351740Y-100259909D01*
X114463113Y-99700000D01*
X114351740Y-99140091D01*
X114034577Y-98665423D01*
X113682242Y-98430000D01*
X114034577Y-98194577D01*
X114351740Y-97719909D01*
X114463113Y-97160000D01*
X114351740Y-96600091D01*
X114034577Y-96125423D01*
X113650892Y-95869053D01*
X113855134Y-95772389D01*
X114231041Y-95357423D01*
X114391904Y-94969039D01*
X114269915Y-94747000D01*
X113127000Y-94747000D01*
X113127000Y-94767000D01*
X112873000Y-94767000D01*
X112873000Y-94747000D01*
X111730085Y-94747000D01*
X111608096Y-94969039D01*
X111768959Y-95357423D01*
X112144866Y-95772389D01*
X112349108Y-95869053D01*
X111965423Y-96125423D01*
X111648260Y-96600091D01*
X111536887Y-97160000D01*
X111648260Y-97719909D01*
X111965423Y-98194577D01*
X112317758Y-98430000D01*
X111965423Y-98665423D01*
X111648260Y-99140091D01*
X111536887Y-99700000D01*
X111648260Y-100259909D01*
X111965423Y-100734577D01*
X112317758Y-100970000D01*
X111965423Y-101205423D01*
X111648260Y-101680091D01*
X111536887Y-102240000D01*
X111648260Y-102799909D01*
X111965423Y-103274577D01*
X112317758Y-103510000D01*
X111965423Y-103745423D01*
X111648260Y-104220091D01*
X111536887Y-104780000D01*
X111601312Y-105103886D01*
X105737818Y-110967381D01*
X105671042Y-110806169D01*
X105435275Y-110744331D01*
X104679605Y-111500000D01*
X104693748Y-111514143D01*
X104514143Y-111693748D01*
X104500000Y-111679605D01*
X103744331Y-112435275D01*
X103806169Y-112671042D01*
X103974789Y-112730410D01*
X103465199Y-113240000D01*
X100982847Y-113240000D01*
X101342663Y-113066764D01*
X101689797Y-112678396D01*
X101832716Y-112333329D01*
X101709374Y-112127000D01*
X100667000Y-112127000D01*
X100667000Y-112147000D01*
X100413000Y-112147000D01*
X100413000Y-112127000D01*
X100393000Y-112127000D01*
X100393000Y-111873000D01*
X100413000Y-111873000D01*
X100413000Y-110829794D01*
X100667000Y-110829794D01*
X100667000Y-111873000D01*
X101709374Y-111873000D01*
X101832716Y-111666671D01*
X101689797Y-111321604D01*
X101676853Y-111307122D01*
X103152581Y-111307122D01*
X103181336Y-111837440D01*
X103328958Y-112193831D01*
X103564725Y-112255669D01*
X104320395Y-111500000D01*
X103564725Y-110744331D01*
X103328958Y-110806169D01*
X103152581Y-111307122D01*
X101676853Y-111307122D01*
X101342663Y-110933236D01*
X100873331Y-110707273D01*
X100667000Y-110829794D01*
X100413000Y-110829794D01*
X100206669Y-110707273D01*
X99737337Y-110933236D01*
X99390203Y-111321604D01*
X99277103Y-111594676D01*
X99131758Y-111243783D01*
X98756217Y-110868242D01*
X98265548Y-110665000D01*
X97734452Y-110665000D01*
X97243783Y-110868242D01*
X96868242Y-111243783D01*
X96665000Y-111734452D01*
X96665000Y-112265548D01*
X96868242Y-112756217D01*
X97243783Y-113131758D01*
X97505102Y-113240000D01*
X94994898Y-113240000D01*
X95256217Y-113131758D01*
X95631758Y-112756217D01*
X95835000Y-112265548D01*
X95835000Y-111734452D01*
X95631758Y-111243783D01*
X95256217Y-110868242D01*
X94934082Y-110734809D01*
X95020891Y-110717542D01*
X95462481Y-110422481D01*
X95757542Y-109980891D01*
X95861154Y-109460000D01*
X95769655Y-109000000D01*
X96598846Y-109000000D01*
X96702458Y-109520891D01*
X96997519Y-109962481D01*
X97439109Y-110257542D01*
X97828515Y-110335000D01*
X98091485Y-110335000D01*
X98480891Y-110257542D01*
X98922481Y-109962481D01*
X99217542Y-109520891D01*
X99234809Y-109434082D01*
X99368242Y-109756217D01*
X99743783Y-110131758D01*
X100234452Y-110335000D01*
X100765548Y-110335000D01*
X101256217Y-110131758D01*
X101631758Y-109756217D01*
X101835000Y-109265548D01*
X101835000Y-108960000D01*
X103138846Y-108960000D01*
X103242458Y-109480891D01*
X103537519Y-109922481D01*
X103979109Y-110217542D01*
X104043993Y-110230448D01*
X103806169Y-110328958D01*
X103744331Y-110564725D01*
X104500000Y-111320395D01*
X105255669Y-110564725D01*
X105193831Y-110328958D01*
X104929190Y-110235782D01*
X105020891Y-110217542D01*
X105462481Y-109922481D01*
X105757542Y-109480891D01*
X105861154Y-108960000D01*
X105757542Y-108439109D01*
X105462481Y-107997519D01*
X105020891Y-107702458D01*
X104631485Y-107625000D01*
X104368515Y-107625000D01*
X103979109Y-107702458D01*
X103537519Y-107997519D01*
X103242458Y-108439109D01*
X103138846Y-108960000D01*
X101835000Y-108960000D01*
X101835000Y-108734452D01*
X101631758Y-108243783D01*
X101256217Y-107868242D01*
X100765548Y-107665000D01*
X100234452Y-107665000D01*
X99743783Y-107868242D01*
X99368242Y-108243783D01*
X99234809Y-108565918D01*
X99217542Y-108479109D01*
X98922481Y-108037519D01*
X98480891Y-107742458D01*
X98091485Y-107665000D01*
X97828515Y-107665000D01*
X97439109Y-107742458D01*
X96997519Y-108037519D01*
X96702458Y-108479109D01*
X96598846Y-109000000D01*
X95769655Y-109000000D01*
X95757542Y-108939109D01*
X95462481Y-108497519D01*
X95020891Y-108202458D01*
X94631485Y-108125000D01*
X94368515Y-108125000D01*
X93979109Y-108202458D01*
X93537519Y-108497519D01*
X93242458Y-108939109D01*
X93138846Y-109460000D01*
X93242458Y-109980891D01*
X93537519Y-110422481D01*
X93979109Y-110717542D01*
X94065918Y-110734809D01*
X93743783Y-110868242D01*
X93368242Y-111243783D01*
X93165000Y-111734452D01*
X93165000Y-112265548D01*
X93368242Y-112756217D01*
X93743783Y-113131758D01*
X94005102Y-113240000D01*
X91607009Y-113240000D01*
X91962481Y-113002481D01*
X92257542Y-112560891D01*
X92361154Y-112040000D01*
X92257542Y-111519109D01*
X91962481Y-111077519D01*
X91520891Y-110782458D01*
X91434082Y-110765191D01*
X91756217Y-110631758D01*
X92131758Y-110256217D01*
X92335000Y-109765548D01*
X92335000Y-109234452D01*
X92131758Y-108743783D01*
X91756217Y-108368242D01*
X91265548Y-108165000D01*
X90734452Y-108165000D01*
X90243783Y-108368242D01*
X89868242Y-108743783D01*
X89665000Y-109234452D01*
X89665000Y-109630199D01*
X89459999Y-109425198D01*
X89459999Y-109274845D01*
X89474887Y-109199998D01*
X89459999Y-109125151D01*
X89459999Y-109125147D01*
X89415903Y-108903462D01*
X89330695Y-108775940D01*
X89335000Y-108765548D01*
X89335000Y-108234452D01*
X89131758Y-107743783D01*
X88756217Y-107368242D01*
X88704051Y-107346634D01*
X88947765Y-107298157D01*
X89157809Y-107157809D01*
X89298157Y-106947765D01*
X89347440Y-106700000D01*
X89347440Y-105300000D01*
X89339484Y-105260000D01*
X91964626Y-105260000D01*
X91916887Y-105500000D01*
X92028260Y-106059909D01*
X92345423Y-106534577D01*
X92820091Y-106851740D01*
X93238667Y-106935000D01*
X93521333Y-106935000D01*
X93939909Y-106851740D01*
X94414577Y-106534577D01*
X94731740Y-106059909D01*
X94843113Y-105500000D01*
X94731740Y-104940091D01*
X94571317Y-104700000D01*
X99552560Y-104700000D01*
X99552560Y-106300000D01*
X99601843Y-106547765D01*
X99742191Y-106757809D01*
X99952235Y-106898157D01*
X100200000Y-106947440D01*
X101800000Y-106947440D01*
X102047765Y-106898157D01*
X102257809Y-106757809D01*
X102398157Y-106547765D01*
X102447440Y-106300000D01*
X102447440Y-104700000D01*
X102398157Y-104452235D01*
X102257809Y-104242191D01*
X102047765Y-104101843D01*
X101800000Y-104052560D01*
X100200000Y-104052560D01*
X99952235Y-104101843D01*
X99742191Y-104242191D01*
X99601843Y-104452235D01*
X99552560Y-104700000D01*
X94571317Y-104700000D01*
X94414577Y-104465423D01*
X93939909Y-104148260D01*
X93521333Y-104065000D01*
X93238667Y-104065000D01*
X93056113Y-104101312D01*
X92970331Y-104015530D01*
X92927929Y-103952071D01*
X92676537Y-103784096D01*
X92454852Y-103740000D01*
X92454847Y-103740000D01*
X92380000Y-103725112D01*
X92305153Y-103740000D01*
X87074848Y-103740000D01*
X87000000Y-103725112D01*
X86925152Y-103740000D01*
X86925148Y-103740000D01*
X86751605Y-103774520D01*
X86703462Y-103784096D01*
X86516418Y-103909076D01*
X86452071Y-103952071D01*
X86409671Y-104015528D01*
X86015527Y-104409671D01*
X85952072Y-104452071D01*
X85909672Y-104515527D01*
X85909671Y-104515528D01*
X85784097Y-104703463D01*
X85725112Y-105000000D01*
X85740001Y-105074852D01*
X85740001Y-105152026D01*
X85456217Y-104868242D01*
X84965548Y-104665000D01*
X84434452Y-104665000D01*
X83943783Y-104868242D01*
X83735000Y-105077025D01*
X83735000Y-98285750D01*
X85465000Y-98285750D01*
X85465000Y-99026309D01*
X85561673Y-99259698D01*
X85740301Y-99438327D01*
X85875044Y-99494139D01*
X85698690Y-99670493D01*
X85465000Y-100234670D01*
X85465000Y-100845330D01*
X85698690Y-101409507D01*
X86130493Y-101841310D01*
X86694670Y-102075000D01*
X87305330Y-102075000D01*
X87869507Y-101841310D01*
X88301310Y-101409507D01*
X88535000Y-100845330D01*
X88535000Y-100234670D01*
X88301310Y-99670493D01*
X88124956Y-99494139D01*
X88259699Y-99438327D01*
X88438327Y-99259698D01*
X88535000Y-99026309D01*
X88535000Y-98285750D01*
X88376250Y-98127000D01*
X87127000Y-98127000D01*
X87127000Y-98147000D01*
X86873000Y-98147000D01*
X86873000Y-98127000D01*
X85623750Y-98127000D01*
X85465000Y-98285750D01*
X83735000Y-98285750D01*
X83735000Y-96973691D01*
X85465000Y-96973691D01*
X85465000Y-97714250D01*
X85623750Y-97873000D01*
X86873000Y-97873000D01*
X86873000Y-96623750D01*
X87127000Y-96623750D01*
X87127000Y-97873000D01*
X88376250Y-97873000D01*
X88535000Y-97714250D01*
X88535000Y-96973691D01*
X88438327Y-96740302D01*
X88259699Y-96561673D01*
X88026310Y-96465000D01*
X87285750Y-96465000D01*
X87127000Y-96623750D01*
X86873000Y-96623750D01*
X86714250Y-96465000D01*
X85973690Y-96465000D01*
X85740301Y-96561673D01*
X85561673Y-96740302D01*
X85465000Y-96973691D01*
X83735000Y-96973691D01*
X83735000Y-91580159D01*
X84099446Y-91580159D01*
X84185852Y-91836643D01*
X84759336Y-92046458D01*
X85369460Y-92020839D01*
X85814148Y-91836643D01*
X85900554Y-91580159D01*
X85000000Y-90679605D01*
X84099446Y-91580159D01*
X83735000Y-91580159D01*
X83735000Y-91338284D01*
X83919841Y-91400554D01*
X84820395Y-90500000D01*
X83919841Y-89599446D01*
X83735000Y-89661716D01*
X83735000Y-88905817D01*
X84130493Y-89301310D01*
X84138290Y-89304539D01*
X84099446Y-89419841D01*
X85000000Y-90320395D01*
X85014143Y-90306253D01*
X85193748Y-90485858D01*
X85179605Y-90500000D01*
X86080159Y-91400554D01*
X86336643Y-91314148D01*
X86546458Y-90740664D01*
X86541224Y-90616026D01*
X86740000Y-90814802D01*
X86740001Y-92425148D01*
X86725112Y-92500000D01*
X86784097Y-92796537D01*
X86869355Y-92924134D01*
X86952072Y-93047929D01*
X87015528Y-93090329D01*
X91665000Y-97739802D01*
X91665000Y-98265548D01*
X91868242Y-98756217D01*
X92243783Y-99131758D01*
X92565918Y-99265191D01*
X92479109Y-99282458D01*
X92037519Y-99577519D01*
X91742458Y-100019109D01*
X91638846Y-100540000D01*
X91742458Y-101060891D01*
X92037519Y-101502481D01*
X92479109Y-101797542D01*
X92868515Y-101875000D01*
X93131485Y-101875000D01*
X93520891Y-101797542D01*
X93962481Y-101502481D01*
X94257542Y-101060891D01*
X94361154Y-100540000D01*
X94257542Y-100019109D01*
X93962481Y-99577519D01*
X93520891Y-99282458D01*
X93434082Y-99265191D01*
X93756217Y-99131758D01*
X94131758Y-98756217D01*
X94335000Y-98265548D01*
X94335000Y-98127000D01*
X100665000Y-98127000D01*
X100665000Y-98677000D01*
X100815222Y-99178215D01*
X101145815Y-99583790D01*
X101606450Y-99831980D01*
X101666671Y-99842716D01*
X101873000Y-99719374D01*
X101873000Y-98127000D01*
X100665000Y-98127000D01*
X94335000Y-98127000D01*
X94335000Y-97734452D01*
X94164571Y-97323000D01*
X100665000Y-97323000D01*
X100665000Y-97873000D01*
X101873000Y-97873000D01*
X101873000Y-96280626D01*
X102127000Y-96280626D01*
X102127000Y-97873000D01*
X102147000Y-97873000D01*
X102147000Y-98127000D01*
X102127000Y-98127000D01*
X102127000Y-99719374D01*
X102333329Y-99842716D01*
X102393550Y-99831980D01*
X102854185Y-99583790D01*
X102981117Y-99428068D01*
X103037520Y-99512481D01*
X103479110Y-99807542D01*
X104000000Y-99911154D01*
X104520891Y-99807542D01*
X104962481Y-99512481D01*
X105000000Y-99456329D01*
X105037520Y-99512481D01*
X105479110Y-99807542D01*
X106000000Y-99911154D01*
X106520891Y-99807542D01*
X106962481Y-99512481D01*
X107257542Y-99070891D01*
X107335000Y-98681485D01*
X107335000Y-97318515D01*
X107257542Y-96929109D01*
X106962480Y-96487519D01*
X106520890Y-96192458D01*
X106000000Y-96088846D01*
X105479109Y-96192458D01*
X105037519Y-96487520D01*
X105000000Y-96543671D01*
X104962480Y-96487519D01*
X104520890Y-96192458D01*
X104000000Y-96088846D01*
X103479109Y-96192458D01*
X103037519Y-96487520D01*
X102981117Y-96571932D01*
X102854185Y-96416210D01*
X102393550Y-96168020D01*
X102333329Y-96157284D01*
X102127000Y-96280626D01*
X101873000Y-96280626D01*
X101666671Y-96157284D01*
X101606450Y-96168020D01*
X101145815Y-96416210D01*
X100815222Y-96821785D01*
X100665000Y-97323000D01*
X94164571Y-97323000D01*
X94131758Y-97243783D01*
X93756217Y-96868242D01*
X93265548Y-96665000D01*
X92739802Y-96665000D01*
X90850955Y-94776153D01*
X91475866Y-95035000D01*
X92524134Y-95035000D01*
X93492608Y-94633845D01*
X94233845Y-93892608D01*
X94635000Y-92924134D01*
X94635000Y-91875866D01*
X94233845Y-90907392D01*
X93492608Y-90166155D01*
X92524134Y-89765000D01*
X91475866Y-89765000D01*
X90507392Y-90166155D01*
X89766155Y-90907392D01*
X89365000Y-91875866D01*
X89365000Y-92924134D01*
X89623847Y-93549045D01*
X88260000Y-92185199D01*
X88260000Y-90574847D01*
X88274888Y-90500000D01*
X88260000Y-90425153D01*
X88260000Y-90425148D01*
X88215904Y-90203463D01*
X88047929Y-89952071D01*
X87984473Y-89909671D01*
X86489640Y-88414839D01*
X86535000Y-88305330D01*
X86535000Y-87694670D01*
X86301310Y-87130493D01*
X85920817Y-86750000D01*
X86115386Y-86555431D01*
X104765000Y-86555431D01*
X104765000Y-87444569D01*
X105105259Y-88266026D01*
X105733974Y-88894741D01*
X106555431Y-89235000D01*
X107444569Y-89235000D01*
X108266026Y-88894741D01*
X108894741Y-88266026D01*
X109235000Y-87444569D01*
X109235000Y-86555431D01*
X108894741Y-85733974D01*
X108266026Y-85105259D01*
X107444569Y-84765000D01*
X106555431Y-84765000D01*
X105733974Y-85105259D01*
X105105259Y-85733974D01*
X104765000Y-86555431D01*
X86115386Y-86555431D01*
X86301310Y-86369507D01*
X86535000Y-85805330D01*
X86535000Y-85194670D01*
X86301310Y-84630493D01*
X85869507Y-84198690D01*
X85305330Y-83965000D01*
X84694670Y-83965000D01*
X84130493Y-84198690D01*
X83735000Y-84594183D01*
X83735000Y-81735000D01*
X90138547Y-81735000D01*
X89766155Y-82107392D01*
X89766155Y-82107392D01*
G37*
X89766155Y-82107392D02*
X89365000Y-83075866D01*
X89365000Y-84124134D01*
X89766155Y-85092608D01*
X90507392Y-85833845D01*
X91475866Y-86235000D01*
X92524134Y-86235000D01*
X93492608Y-85833845D01*
X94233845Y-85092608D01*
X94621527Y-84156659D01*
X111475000Y-84156659D01*
X111475000Y-84763341D01*
X111707167Y-85323843D01*
X111979703Y-85596379D01*
X111952235Y-85601843D01*
X111742191Y-85742191D01*
X111601843Y-85952235D01*
X111552560Y-86200000D01*
X111552560Y-87800000D01*
X111601843Y-88047765D01*
X111742191Y-88257809D01*
X111952235Y-88398157D01*
X112086106Y-88424785D01*
X111965423Y-88505423D01*
X111648260Y-88980091D01*
X111536887Y-89540000D01*
X111648260Y-90099909D01*
X111965423Y-90574577D01*
X112317758Y-90810000D01*
X111965423Y-91045423D01*
X111648260Y-91520091D01*
X111536887Y-92080000D01*
X111648260Y-92639909D01*
X111965423Y-93114577D01*
X112349108Y-93370947D01*
X112144866Y-93467611D01*
X111768959Y-93882577D01*
X111608096Y-94270961D01*
X111730085Y-94493000D01*
X112873000Y-94493000D01*
X112873000Y-94473000D01*
X113127000Y-94473000D01*
X113127000Y-94493000D01*
X114269915Y-94493000D01*
X114391904Y-94270961D01*
X114231041Y-93882577D01*
X113855134Y-93467611D01*
X113650892Y-93370947D01*
X114034577Y-93114577D01*
X114351740Y-92639909D01*
X114463113Y-92080000D01*
X114351740Y-91520091D01*
X114034577Y-91045423D01*
X113682242Y-90810000D01*
X114034577Y-90574577D01*
X114351740Y-90099909D01*
X114463113Y-89540000D01*
X114351740Y-88980091D01*
X114034577Y-88505423D01*
X113913894Y-88424785D01*
X114047765Y-88398157D01*
X114257809Y-88257809D01*
X114398157Y-88047765D01*
X114447440Y-87800000D01*
X114447440Y-86200000D01*
X114398157Y-85952235D01*
X114257809Y-85742191D01*
X114047765Y-85601843D01*
X114020297Y-85596379D01*
X114292833Y-85323843D01*
X114525000Y-84763341D01*
X114525000Y-84156659D01*
X126715000Y-84156659D01*
X126715000Y-84763341D01*
X126947167Y-85323843D01*
X127376157Y-85752833D01*
X127467168Y-85790531D01*
X127205423Y-85965423D01*
X126888260Y-86440091D01*
X126776887Y-87000000D01*
X126888260Y-87559909D01*
X127205423Y-88034577D01*
X127589108Y-88290947D01*
X127384866Y-88387611D01*
X127008959Y-88802577D01*
X126848096Y-89190961D01*
X126970085Y-89413000D01*
X128113000Y-89413000D01*
X128113000Y-89393000D01*
X128367000Y-89393000D01*
X128367000Y-89413000D01*
X129509915Y-89413000D01*
X129631904Y-89190961D01*
X129471041Y-88802577D01*
X129095134Y-88387611D01*
X128890892Y-88290947D01*
X129274577Y-88034577D01*
X129591740Y-87559909D01*
X129703113Y-87000000D01*
X129591740Y-86440091D01*
X129274577Y-85965423D01*
X129012832Y-85790531D01*
X129103843Y-85752833D01*
X129532833Y-85323843D01*
X129765000Y-84763341D01*
X129765000Y-84156659D01*
X129532833Y-83596157D01*
X129103843Y-83167167D01*
X128543341Y-82935000D01*
X127936659Y-82935000D01*
X127376157Y-83167167D01*
X126947167Y-83596157D01*
X126715000Y-84156659D01*
X114525000Y-84156659D01*
X114292833Y-83596157D01*
X113863843Y-83167167D01*
X113303341Y-82935000D01*
X112696659Y-82935000D01*
X112136157Y-83167167D01*
X111707167Y-83596157D01*
X111475000Y-84156659D01*
X94621527Y-84156659D01*
X94635000Y-84124134D01*
X94635000Y-83075866D01*
X94233845Y-82107392D01*
X93861453Y-81735000D01*
X130873000Y-81735000D01*
X130873000Y-129265000D01*
X83735000Y-129265000D01*
X83735000Y-125113101D01*
X84610000Y-125113101D01*
X84610000Y-126886900D01*
X84690650Y-127292351D01*
X84997867Y-127752134D01*
X85457650Y-128059351D01*
X86000000Y-128167231D01*
X86542351Y-128059351D01*
X87002134Y-127752134D01*
X87270000Y-127351243D01*
X87537867Y-127752134D01*
X87997650Y-128059351D01*
X88540000Y-128167231D01*
X89082351Y-128059351D01*
X89542134Y-127752134D01*
X89849351Y-127292351D01*
X89930000Y-126886900D01*
X89930000Y-126127000D01*
X90610000Y-126127000D01*
X90610000Y-126877000D01*
X90764408Y-127399263D01*
X91106924Y-127822681D01*
X91585403Y-128082793D01*
X91658029Y-128097277D01*
X91873000Y-127974683D01*
X91873000Y-126127000D01*
X90610000Y-126127000D01*
X89930000Y-126127000D01*
X89930000Y-125123000D01*
X90610000Y-125123000D01*
X90610000Y-125873000D01*
X91873000Y-125873000D01*
X91873000Y-124025317D01*
X91658029Y-123902723D01*
X91585403Y-123917207D01*
X91106924Y-124177319D01*
X90764408Y-124600737D01*
X90610000Y-125123000D01*
X89930000Y-125123000D01*
X89930000Y-125113100D01*
X89849351Y-124707649D01*
X89542133Y-124247866D01*
X89082350Y-123940649D01*
X88540000Y-123832769D01*
X87997649Y-123940649D01*
X87537866Y-124247867D01*
X87270000Y-124648757D01*
X87002133Y-124247866D01*
X86542350Y-123940649D01*
X86000000Y-123832769D01*
X85457649Y-123940649D01*
X84997866Y-124247867D01*
X84690649Y-124707650D01*
X84610000Y-125113101D01*
X83735000Y-125113101D01*
X83735000Y-119247047D01*
X83742191Y-119257809D01*
X83952235Y-119398157D01*
X84200000Y-119447440D01*
X86800000Y-119447440D01*
X87047765Y-119398157D01*
X87257809Y-119257809D01*
X87398157Y-119047765D01*
X87447440Y-118800000D01*
X87447440Y-118635000D01*
X88529869Y-118635000D01*
X93365001Y-123470134D01*
X93365000Y-124506579D01*
X93255989Y-124669726D01*
X93235592Y-124600737D01*
X92893076Y-124177319D01*
X92414597Y-123917207D01*
X92341971Y-123902723D01*
X92127000Y-124025317D01*
X92127000Y-125873000D01*
X92147000Y-125873000D01*
X92147000Y-126127000D01*
X92127000Y-126127000D01*
X92127000Y-127974683D01*
X92341971Y-128097277D01*
X92414597Y-128082793D01*
X92893076Y-127822681D01*
X93235592Y-127399263D01*
X93255989Y-127330273D01*
X93537867Y-127752134D01*
X93997650Y-128059351D01*
X94540000Y-128167231D01*
X95082351Y-128059351D01*
X95542134Y-127752134D01*
X95849351Y-127292351D01*
X95930000Y-126886900D01*
X95930000Y-125113101D01*
X96610000Y-125113101D01*
X96610000Y-126886900D01*
X96690650Y-127292351D01*
X96997867Y-127752134D01*
X97457650Y-128059351D01*
X98000000Y-128167231D01*
X98542351Y-128059351D01*
X99002134Y-127752134D01*
X99270000Y-127351243D01*
X99537867Y-127752134D01*
X99997650Y-128059351D01*
X100540000Y-128167231D01*
X101082351Y-128059351D01*
X101542134Y-127752134D01*
X101849351Y-127292351D01*
X101930000Y-126886900D01*
X101930000Y-125113100D01*
X101849351Y-124707649D01*
X101542133Y-124247866D01*
X101082350Y-123940649D01*
X100540000Y-123832769D01*
X99997649Y-123940649D01*
X99537866Y-124247867D01*
X99270000Y-124648757D01*
X99002133Y-124247866D01*
X98542350Y-123940649D01*
X98000000Y-123832769D01*
X97457649Y-123940649D01*
X96997866Y-124247867D01*
X96690649Y-124707650D01*
X96610000Y-125113101D01*
X95930000Y-125113101D01*
X95930000Y-125113100D01*
X95849351Y-124707649D01*
X95635000Y-124386851D01*
X95635000Y-123555431D01*
X104765000Y-123555431D01*
X104765000Y-124444569D01*
X105105259Y-125266026D01*
X105733974Y-125894741D01*
X106555431Y-126235000D01*
X107444569Y-126235000D01*
X108266026Y-125894741D01*
X108894741Y-125266026D01*
X109235000Y-124444569D01*
X109235000Y-123555431D01*
X108894741Y-122733974D01*
X108266026Y-122105259D01*
X107444569Y-121765000D01*
X106555431Y-121765000D01*
X105733974Y-122105259D01*
X105105259Y-122733974D01*
X104765000Y-123555431D01*
X95635000Y-123555431D01*
X95635000Y-123111783D01*
X95657235Y-123000000D01*
X95569146Y-122557145D01*
X95381609Y-122276476D01*
X95318289Y-122181711D01*
X95223524Y-122118391D01*
X89881613Y-116776482D01*
X89818289Y-116681711D01*
X89442855Y-116430854D01*
X89111783Y-116365000D01*
X89000000Y-116342765D01*
X88888217Y-116365000D01*
X87447440Y-116365000D01*
X87447440Y-116200000D01*
X87398157Y-115952235D01*
X87257809Y-115742191D01*
X87047765Y-115601843D01*
X86800000Y-115552560D01*
X84200000Y-115552560D01*
X83952235Y-115601843D01*
X83742191Y-115742191D01*
X83735000Y-115752953D01*
X83735000Y-111922975D01*
X83943783Y-112131758D01*
X83954176Y-112136063D01*
X83984097Y-112286486D01*
X84015397Y-112333329D01*
X84152072Y-112537878D01*
X84215528Y-112580278D01*
X86119724Y-114484476D01*
X86162122Y-114547929D01*
X86225575Y-114590327D01*
X86225577Y-114590329D01*
X86350953Y-114674102D01*
X86413514Y-114715904D01*
X86635199Y-114760000D01*
X86635203Y-114760000D01*
X86710050Y-114774888D01*
X86784897Y-114760000D01*
X91479135Y-114760000D01*
X91465000Y-114794126D01*
X91465000Y-115205874D01*
X91622569Y-115586280D01*
X91913720Y-115877431D01*
X92294126Y-116035000D01*
X92705874Y-116035000D01*
X93086280Y-115877431D01*
X93203711Y-115760000D01*
X99861188Y-115760000D01*
X99344943Y-116104943D01*
X98917271Y-116745001D01*
X98767092Y-117500000D01*
X98917271Y-118254999D01*
X99344943Y-118895057D01*
X99985001Y-119322729D01*
X100549424Y-119435000D01*
X100930576Y-119435000D01*
X101494999Y-119322729D01*
X102135057Y-118895057D01*
X102562729Y-118254999D01*
X102712908Y-117500000D01*
X102562729Y-116745001D01*
X102135057Y-116104943D01*
X101618812Y-115760000D01*
X110185199Y-115760000D01*
X111409673Y-116984476D01*
X111452071Y-117047929D01*
X111515524Y-117090327D01*
X111515526Y-117090329D01*
X111575804Y-117130605D01*
X111601312Y-117156113D01*
X111536887Y-117480000D01*
X111648260Y-118039909D01*
X111965423Y-118514577D01*
X112317758Y-118750000D01*
X111965423Y-118985423D01*
X111648260Y-119460091D01*
X111536887Y-120020000D01*
X111648260Y-120579909D01*
X111965423Y-121054577D01*
X112317758Y-121290000D01*
X111965423Y-121525423D01*
X111648260Y-122000091D01*
X111536887Y-122560000D01*
X111648260Y-123119909D01*
X111965423Y-123594577D01*
X112227168Y-123769469D01*
X112136157Y-123807167D01*
X111707167Y-124236157D01*
X111475000Y-124796659D01*
X111475000Y-125403341D01*
X111707167Y-125963843D01*
X112136157Y-126392833D01*
X112696659Y-126625000D01*
X113303341Y-126625000D01*
X113863843Y-126392833D01*
X114292833Y-125963843D01*
X114525000Y-125403341D01*
X114525000Y-124796659D01*
X126715000Y-124796659D01*
X126715000Y-125403341D01*
X126947167Y-125963843D01*
X127376157Y-126392833D01*
X127936659Y-126625000D01*
X128543341Y-126625000D01*
X129103843Y-126392833D01*
X129532833Y-125963843D01*
X129765000Y-125403341D01*
X129765000Y-124796659D01*
X129532833Y-124236157D01*
X129103843Y-123807167D01*
X129012832Y-123769469D01*
X129274577Y-123594577D01*
X129591740Y-123119909D01*
X129703113Y-122560000D01*
X129591740Y-122000091D01*
X129274577Y-121525423D01*
X128922242Y-121290000D01*
X129274577Y-121054577D01*
X129591740Y-120579909D01*
X129703113Y-120020000D01*
X129591740Y-119460091D01*
X129274577Y-118985423D01*
X128922242Y-118750000D01*
X129274577Y-118514577D01*
X129591740Y-118039909D01*
X129703113Y-117480000D01*
X129591740Y-116920091D01*
X129274577Y-116445423D01*
X128922242Y-116210000D01*
X129274577Y-115974577D01*
X129591740Y-115499909D01*
X129703113Y-114940000D01*
X129591740Y-114380091D01*
X129274577Y-113905423D01*
X128922242Y-113670000D01*
X129274577Y-113434577D01*
X129591740Y-112959909D01*
X129703113Y-112400000D01*
X129591740Y-111840091D01*
X129274577Y-111365423D01*
X128922242Y-111130000D01*
X129274577Y-110894577D01*
X129591740Y-110419909D01*
X129703113Y-109860000D01*
X129591740Y-109300091D01*
X129274577Y-108825423D01*
X128922242Y-108590000D01*
X129274577Y-108354577D01*
X129591740Y-107879909D01*
X129703113Y-107320000D01*
X129591740Y-106760091D01*
X129274577Y-106285423D01*
X128922242Y-106050000D01*
X129274577Y-105814577D01*
X129591740Y-105339909D01*
X129703113Y-104780000D01*
X129591740Y-104220091D01*
X129274577Y-103745423D01*
X128922242Y-103510000D01*
X129274577Y-103274577D01*
X129591740Y-102799909D01*
X129703113Y-102240000D01*
X129591740Y-101680091D01*
X129274577Y-101205423D01*
X128922242Y-100970000D01*
X129274577Y-100734577D01*
X129591740Y-100259909D01*
X129703113Y-99700000D01*
X129591740Y-99140091D01*
X129274577Y-98665423D01*
X128922242Y-98430000D01*
X129274577Y-98194577D01*
X129591740Y-97719909D01*
X129703113Y-97160000D01*
X129591740Y-96600091D01*
X129274577Y-96125423D01*
X128922242Y-95890000D01*
X129274577Y-95654577D01*
X129591740Y-95179909D01*
X129703113Y-94620000D01*
X129591740Y-94060091D01*
X129274577Y-93585423D01*
X128922242Y-93350000D01*
X129274577Y-93114577D01*
X129591740Y-92639909D01*
X129703113Y-92080000D01*
X129591740Y-91520091D01*
X129274577Y-91045423D01*
X128890892Y-90789053D01*
X129095134Y-90692389D01*
X129471041Y-90277423D01*
X129631904Y-89889039D01*
X129509915Y-89667000D01*
X128367000Y-89667000D01*
X128367000Y-89687000D01*
X128113000Y-89687000D01*
X128113000Y-89667000D01*
X126970085Y-89667000D01*
X126848096Y-89889039D01*
X127008959Y-90277423D01*
X127384866Y-90692389D01*
X127589108Y-90789053D01*
X127205423Y-91045423D01*
X126888260Y-91520091D01*
X126776887Y-92080000D01*
X126888260Y-92639909D01*
X127205423Y-93114577D01*
X127557758Y-93350000D01*
X127205423Y-93585423D01*
X126888260Y-94060091D01*
X126776887Y-94620000D01*
X126888260Y-95179909D01*
X127205423Y-95654577D01*
X127557758Y-95890000D01*
X127205423Y-96125423D01*
X126888260Y-96600091D01*
X126776887Y-97160000D01*
X126888260Y-97719909D01*
X127205423Y-98194577D01*
X127557758Y-98430000D01*
X127205423Y-98665423D01*
X126888260Y-99140091D01*
X126776887Y-99700000D01*
X126888260Y-100259909D01*
X127205423Y-100734577D01*
X127557758Y-100970000D01*
X127205423Y-101205423D01*
X126888260Y-101680091D01*
X126776887Y-102240000D01*
X126888260Y-102799909D01*
X127205423Y-103274577D01*
X127557758Y-103510000D01*
X127205423Y-103745423D01*
X126888260Y-104220091D01*
X126776887Y-104780000D01*
X126888260Y-105339909D01*
X127205423Y-105814577D01*
X127557758Y-106050000D01*
X127205423Y-106285423D01*
X126888260Y-106760091D01*
X126776887Y-107320000D01*
X126888260Y-107879909D01*
X127205423Y-108354577D01*
X127557758Y-108590000D01*
X127205423Y-108825423D01*
X126888260Y-109300091D01*
X126776887Y-109860000D01*
X126888260Y-110419909D01*
X127205423Y-110894577D01*
X127557758Y-111130000D01*
X127205423Y-111365423D01*
X126888260Y-111840091D01*
X126776887Y-112400000D01*
X126888260Y-112959909D01*
X127205423Y-113434577D01*
X127557758Y-113670000D01*
X127205423Y-113905423D01*
X126888260Y-114380091D01*
X126776887Y-114940000D01*
X126888260Y-115499909D01*
X127205423Y-115974577D01*
X127557758Y-116210000D01*
X127205423Y-116445423D01*
X126888260Y-116920091D01*
X126776887Y-117480000D01*
X126888260Y-118039909D01*
X127205423Y-118514577D01*
X127557758Y-118750000D01*
X127205423Y-118985423D01*
X126888260Y-119460091D01*
X126776887Y-120020000D01*
X126888260Y-120579909D01*
X127205423Y-121054577D01*
X127557758Y-121290000D01*
X127205423Y-121525423D01*
X126888260Y-122000091D01*
X126776887Y-122560000D01*
X126888260Y-123119909D01*
X127205423Y-123594577D01*
X127467168Y-123769469D01*
X127376157Y-123807167D01*
X126947167Y-124236157D01*
X126715000Y-124796659D01*
X114525000Y-124796659D01*
X114292833Y-124236157D01*
X113863843Y-123807167D01*
X113772832Y-123769469D01*
X114034577Y-123594577D01*
X114351740Y-123119909D01*
X114463113Y-122560000D01*
X114351740Y-122000091D01*
X114034577Y-121525423D01*
X113682242Y-121290000D01*
X114034577Y-121054577D01*
X114351740Y-120579909D01*
X114463113Y-120020000D01*
X114351740Y-119460091D01*
X114034577Y-118985423D01*
X113682242Y-118750000D01*
X114034577Y-118514577D01*
X114351740Y-118039909D01*
X114463113Y-117480000D01*
X114351740Y-116920091D01*
X114034577Y-116445423D01*
X113682242Y-116210000D01*
X114034577Y-115974577D01*
X114351740Y-115499909D01*
X114463113Y-114940000D01*
X114351740Y-114380091D01*
X114034577Y-113905423D01*
X113682242Y-113670000D01*
X114034577Y-113434577D01*
X114351740Y-112959909D01*
X114463113Y-112400000D01*
X114351740Y-111840091D01*
X114034577Y-111365423D01*
X113682242Y-111130000D01*
X114034577Y-110894577D01*
X114351740Y-110419909D01*
X114463113Y-109860000D01*
X114351740Y-109300091D01*
X114034577Y-108825423D01*
X113682242Y-108590000D01*
X114034577Y-108354577D01*
X114351740Y-107879909D01*
X114463113Y-107320000D01*
X114351740Y-106760091D01*
X114034577Y-106285423D01*
X113682242Y-106050000D01*
X114034577Y-105814577D01*
X114351740Y-105339909D01*
X114463113Y-104780000D01*
X114351740Y-104220091D01*
X114034577Y-103745423D01*
X113682242Y-103510000D01*
X114034577Y-103274577D01*
X114351740Y-102799909D01*
X114463113Y-102240000D01*
X114351740Y-101680091D01*
X114034577Y-101205423D01*
X113682242Y-100970000D01*
X114034577Y-100734577D01*
X114351740Y-100259909D01*
X114463113Y-99700000D01*
X114351740Y-99140091D01*
X114034577Y-98665423D01*
X113682242Y-98430000D01*
X114034577Y-98194577D01*
X114351740Y-97719909D01*
X114463113Y-97160000D01*
X114351740Y-96600091D01*
X114034577Y-96125423D01*
X113650892Y-95869053D01*
X113855134Y-95772389D01*
X114231041Y-95357423D01*
X114391904Y-94969039D01*
X114269915Y-94747000D01*
X113127000Y-94747000D01*
X113127000Y-94767000D01*
X112873000Y-94767000D01*
X112873000Y-94747000D01*
X111730085Y-94747000D01*
X111608096Y-94969039D01*
X111768959Y-95357423D01*
X112144866Y-95772389D01*
X112349108Y-95869053D01*
X111965423Y-96125423D01*
X111648260Y-96600091D01*
X111536887Y-97160000D01*
X111648260Y-97719909D01*
X111965423Y-98194577D01*
X112317758Y-98430000D01*
X111965423Y-98665423D01*
X111648260Y-99140091D01*
X111536887Y-99700000D01*
X111648260Y-100259909D01*
X111965423Y-100734577D01*
X112317758Y-100970000D01*
X111965423Y-101205423D01*
X111648260Y-101680091D01*
X111536887Y-102240000D01*
X111648260Y-102799909D01*
X111965423Y-103274577D01*
X112317758Y-103510000D01*
X111965423Y-103745423D01*
X111648260Y-104220091D01*
X111536887Y-104780000D01*
X111601312Y-105103886D01*
X105737818Y-110967381D01*
X105671042Y-110806169D01*
X105435275Y-110744331D01*
X104679605Y-111500000D01*
X104693748Y-111514143D01*
X104514143Y-111693748D01*
X104500000Y-111679605D01*
X103744331Y-112435275D01*
X103806169Y-112671042D01*
X103974789Y-112730410D01*
X103465199Y-113240000D01*
X100982847Y-113240000D01*
X101342663Y-113066764D01*
X101689797Y-112678396D01*
X101832716Y-112333329D01*
X101709374Y-112127000D01*
X100667000Y-112127000D01*
X100667000Y-112147000D01*
X100413000Y-112147000D01*
X100413000Y-112127000D01*
X100393000Y-112127000D01*
X100393000Y-111873000D01*
X100413000Y-111873000D01*
X100413000Y-110829794D01*
X100667000Y-110829794D01*
X100667000Y-111873000D01*
X101709374Y-111873000D01*
X101832716Y-111666671D01*
X101689797Y-111321604D01*
X101676853Y-111307122D01*
X103152581Y-111307122D01*
X103181336Y-111837440D01*
X103328958Y-112193831D01*
X103564725Y-112255669D01*
X104320395Y-111500000D01*
X103564725Y-110744331D01*
X103328958Y-110806169D01*
X103152581Y-111307122D01*
X101676853Y-111307122D01*
X101342663Y-110933236D01*
X100873331Y-110707273D01*
X100667000Y-110829794D01*
X100413000Y-110829794D01*
X100206669Y-110707273D01*
X99737337Y-110933236D01*
X99390203Y-111321604D01*
X99277103Y-111594676D01*
X99131758Y-111243783D01*
X98756217Y-110868242D01*
X98265548Y-110665000D01*
X97734452Y-110665000D01*
X97243783Y-110868242D01*
X96868242Y-111243783D01*
X96665000Y-111734452D01*
X96665000Y-112265548D01*
X96868242Y-112756217D01*
X97243783Y-113131758D01*
X97505102Y-113240000D01*
X94994898Y-113240000D01*
X95256217Y-113131758D01*
X95631758Y-112756217D01*
X95835000Y-112265548D01*
X95835000Y-111734452D01*
X95631758Y-111243783D01*
X95256217Y-110868242D01*
X94934082Y-110734809D01*
X95020891Y-110717542D01*
X95462481Y-110422481D01*
X95757542Y-109980891D01*
X95861154Y-109460000D01*
X95769655Y-109000000D01*
X96598846Y-109000000D01*
X96702458Y-109520891D01*
X96997519Y-109962481D01*
X97439109Y-110257542D01*
X97828515Y-110335000D01*
X98091485Y-110335000D01*
X98480891Y-110257542D01*
X98922481Y-109962481D01*
X99217542Y-109520891D01*
X99234809Y-109434082D01*
X99368242Y-109756217D01*
X99743783Y-110131758D01*
X100234452Y-110335000D01*
X100765548Y-110335000D01*
X101256217Y-110131758D01*
X101631758Y-109756217D01*
X101835000Y-109265548D01*
X101835000Y-108960000D01*
X103138846Y-108960000D01*
X103242458Y-109480891D01*
X103537519Y-109922481D01*
X103979109Y-110217542D01*
X104043993Y-110230448D01*
X103806169Y-110328958D01*
X103744331Y-110564725D01*
X104500000Y-111320395D01*
X105255669Y-110564725D01*
X105193831Y-110328958D01*
X104929190Y-110235782D01*
X105020891Y-110217542D01*
X105462481Y-109922481D01*
X105757542Y-109480891D01*
X105861154Y-108960000D01*
X105757542Y-108439109D01*
X105462481Y-107997519D01*
X105020891Y-107702458D01*
X104631485Y-107625000D01*
X104368515Y-107625000D01*
X103979109Y-107702458D01*
X103537519Y-107997519D01*
X103242458Y-108439109D01*
X103138846Y-108960000D01*
X101835000Y-108960000D01*
X101835000Y-108734452D01*
X101631758Y-108243783D01*
X101256217Y-107868242D01*
X100765548Y-107665000D01*
X100234452Y-107665000D01*
X99743783Y-107868242D01*
X99368242Y-108243783D01*
X99234809Y-108565918D01*
X99217542Y-108479109D01*
X98922481Y-108037519D01*
X98480891Y-107742458D01*
X98091485Y-107665000D01*
X97828515Y-107665000D01*
X97439109Y-107742458D01*
X96997519Y-108037519D01*
X96702458Y-108479109D01*
X96598846Y-109000000D01*
X95769655Y-109000000D01*
X95757542Y-108939109D01*
X95462481Y-108497519D01*
X95020891Y-108202458D01*
X94631485Y-108125000D01*
X94368515Y-108125000D01*
X93979109Y-108202458D01*
X93537519Y-108497519D01*
X93242458Y-108939109D01*
X93138846Y-109460000D01*
X93242458Y-109980891D01*
X93537519Y-110422481D01*
X93979109Y-110717542D01*
X94065918Y-110734809D01*
X93743783Y-110868242D01*
X93368242Y-111243783D01*
X93165000Y-111734452D01*
X93165000Y-112265548D01*
X93368242Y-112756217D01*
X93743783Y-113131758D01*
X94005102Y-113240000D01*
X91607009Y-113240000D01*
X91962481Y-113002481D01*
X92257542Y-112560891D01*
X92361154Y-112040000D01*
X92257542Y-111519109D01*
X91962481Y-111077519D01*
X91520891Y-110782458D01*
X91434082Y-110765191D01*
X91756217Y-110631758D01*
X92131758Y-110256217D01*
X92335000Y-109765548D01*
X92335000Y-109234452D01*
X92131758Y-108743783D01*
X91756217Y-108368242D01*
X91265548Y-108165000D01*
X90734452Y-108165000D01*
X90243783Y-108368242D01*
X89868242Y-108743783D01*
X89665000Y-109234452D01*
X89665000Y-109630199D01*
X89459999Y-109425198D01*
X89459999Y-109274845D01*
X89474887Y-109199998D01*
X89459999Y-109125151D01*
X89459999Y-109125147D01*
X89415903Y-108903462D01*
X89330695Y-108775940D01*
X89335000Y-108765548D01*
X89335000Y-108234452D01*
X89131758Y-107743783D01*
X88756217Y-107368242D01*
X88704051Y-107346634D01*
X88947765Y-107298157D01*
X89157809Y-107157809D01*
X89298157Y-106947765D01*
X89347440Y-106700000D01*
X89347440Y-105300000D01*
X89339484Y-105260000D01*
X91964626Y-105260000D01*
X91916887Y-105500000D01*
X92028260Y-106059909D01*
X92345423Y-106534577D01*
X92820091Y-106851740D01*
X93238667Y-106935000D01*
X93521333Y-106935000D01*
X93939909Y-106851740D01*
X94414577Y-106534577D01*
X94731740Y-106059909D01*
X94843113Y-105500000D01*
X94731740Y-104940091D01*
X94571317Y-104700000D01*
X99552560Y-104700000D01*
X99552560Y-106300000D01*
X99601843Y-106547765D01*
X99742191Y-106757809D01*
X99952235Y-106898157D01*
X100200000Y-106947440D01*
X101800000Y-106947440D01*
X102047765Y-106898157D01*
X102257809Y-106757809D01*
X102398157Y-106547765D01*
X102447440Y-106300000D01*
X102447440Y-104700000D01*
X102398157Y-104452235D01*
X102257809Y-104242191D01*
X102047765Y-104101843D01*
X101800000Y-104052560D01*
X100200000Y-104052560D01*
X99952235Y-104101843D01*
X99742191Y-104242191D01*
X99601843Y-104452235D01*
X99552560Y-104700000D01*
X94571317Y-104700000D01*
X94414577Y-104465423D01*
X93939909Y-104148260D01*
X93521333Y-104065000D01*
X93238667Y-104065000D01*
X93056113Y-104101312D01*
X92970331Y-104015530D01*
X92927929Y-103952071D01*
X92676537Y-103784096D01*
X92454852Y-103740000D01*
X92454847Y-103740000D01*
X92380000Y-103725112D01*
X92305153Y-103740000D01*
X87074848Y-103740000D01*
X87000000Y-103725112D01*
X86925152Y-103740000D01*
X86925148Y-103740000D01*
X86751605Y-103774520D01*
X86703462Y-103784096D01*
X86516418Y-103909076D01*
X86452071Y-103952071D01*
X86409671Y-104015528D01*
X86015527Y-104409671D01*
X85952072Y-104452071D01*
X85909672Y-104515527D01*
X85909671Y-104515528D01*
X85784097Y-104703463D01*
X85725112Y-105000000D01*
X85740001Y-105074852D01*
X85740001Y-105152026D01*
X85456217Y-104868242D01*
X84965548Y-104665000D01*
X84434452Y-104665000D01*
X83943783Y-104868242D01*
X83735000Y-105077025D01*
X83735000Y-98285750D01*
X85465000Y-98285750D01*
X85465000Y-99026309D01*
X85561673Y-99259698D01*
X85740301Y-99438327D01*
X85875044Y-99494139D01*
X85698690Y-99670493D01*
X85465000Y-100234670D01*
X85465000Y-100845330D01*
X85698690Y-101409507D01*
X86130493Y-101841310D01*
X86694670Y-102075000D01*
X87305330Y-102075000D01*
X87869507Y-101841310D01*
X88301310Y-101409507D01*
X88535000Y-100845330D01*
X88535000Y-100234670D01*
X88301310Y-99670493D01*
X88124956Y-99494139D01*
X88259699Y-99438327D01*
X88438327Y-99259698D01*
X88535000Y-99026309D01*
X88535000Y-98285750D01*
X88376250Y-98127000D01*
X87127000Y-98127000D01*
X87127000Y-98147000D01*
X86873000Y-98147000D01*
X86873000Y-98127000D01*
X85623750Y-98127000D01*
X85465000Y-98285750D01*
X83735000Y-98285750D01*
X83735000Y-96973691D01*
X85465000Y-96973691D01*
X85465000Y-97714250D01*
X85623750Y-97873000D01*
X86873000Y-97873000D01*
X86873000Y-96623750D01*
X87127000Y-96623750D01*
X87127000Y-97873000D01*
X88376250Y-97873000D01*
X88535000Y-97714250D01*
X88535000Y-96973691D01*
X88438327Y-96740302D01*
X88259699Y-96561673D01*
X88026310Y-96465000D01*
X87285750Y-96465000D01*
X87127000Y-96623750D01*
X86873000Y-96623750D01*
X86714250Y-96465000D01*
X85973690Y-96465000D01*
X85740301Y-96561673D01*
X85561673Y-96740302D01*
X85465000Y-96973691D01*
X83735000Y-96973691D01*
X83735000Y-91580159D01*
X84099446Y-91580159D01*
X84185852Y-91836643D01*
X84759336Y-92046458D01*
X85369460Y-92020839D01*
X85814148Y-91836643D01*
X85900554Y-91580159D01*
X85000000Y-90679605D01*
X84099446Y-91580159D01*
X83735000Y-91580159D01*
X83735000Y-91338284D01*
X83919841Y-91400554D01*
X84820395Y-90500000D01*
X83919841Y-89599446D01*
X83735000Y-89661716D01*
X83735000Y-88905817D01*
X84130493Y-89301310D01*
X84138290Y-89304539D01*
X84099446Y-89419841D01*
X85000000Y-90320395D01*
X85014143Y-90306253D01*
X85193748Y-90485858D01*
X85179605Y-90500000D01*
X86080159Y-91400554D01*
X86336643Y-91314148D01*
X86546458Y-90740664D01*
X86541224Y-90616026D01*
X86740000Y-90814802D01*
X86740001Y-92425148D01*
X86725112Y-92500000D01*
X86784097Y-92796537D01*
X86869355Y-92924134D01*
X86952072Y-93047929D01*
X87015528Y-93090329D01*
X91665000Y-97739802D01*
X91665000Y-98265548D01*
X91868242Y-98756217D01*
X92243783Y-99131758D01*
X92565918Y-99265191D01*
X92479109Y-99282458D01*
X92037519Y-99577519D01*
X91742458Y-100019109D01*
X91638846Y-100540000D01*
X91742458Y-101060891D01*
X92037519Y-101502481D01*
X92479109Y-101797542D01*
X92868515Y-101875000D01*
X93131485Y-101875000D01*
X93520891Y-101797542D01*
X93962481Y-101502481D01*
X94257542Y-101060891D01*
X94361154Y-100540000D01*
X94257542Y-100019109D01*
X93962481Y-99577519D01*
X93520891Y-99282458D01*
X93434082Y-99265191D01*
X93756217Y-99131758D01*
X94131758Y-98756217D01*
X94335000Y-98265548D01*
X94335000Y-98127000D01*
X100665000Y-98127000D01*
X100665000Y-98677000D01*
X100815222Y-99178215D01*
X101145815Y-99583790D01*
X101606450Y-99831980D01*
X101666671Y-99842716D01*
X101873000Y-99719374D01*
X101873000Y-98127000D01*
X100665000Y-98127000D01*
X94335000Y-98127000D01*
X94335000Y-97734452D01*
X94164571Y-97323000D01*
X100665000Y-97323000D01*
X100665000Y-97873000D01*
X101873000Y-97873000D01*
X101873000Y-96280626D01*
X102127000Y-96280626D01*
X102127000Y-97873000D01*
X102147000Y-97873000D01*
X102147000Y-98127000D01*
X102127000Y-98127000D01*
X102127000Y-99719374D01*
X102333329Y-99842716D01*
X102393550Y-99831980D01*
X102854185Y-99583790D01*
X102981117Y-99428068D01*
X103037520Y-99512481D01*
X103479110Y-99807542D01*
X104000000Y-99911154D01*
X104520891Y-99807542D01*
X104962481Y-99512481D01*
X105000000Y-99456329D01*
X105037520Y-99512481D01*
X105479110Y-99807542D01*
X106000000Y-99911154D01*
X106520891Y-99807542D01*
X106962481Y-99512481D01*
X107257542Y-99070891D01*
X107335000Y-98681485D01*
X107335000Y-97318515D01*
X107257542Y-96929109D01*
X106962480Y-96487519D01*
X106520890Y-96192458D01*
X106000000Y-96088846D01*
X105479109Y-96192458D01*
X105037519Y-96487520D01*
X105000000Y-96543671D01*
X104962480Y-96487519D01*
X104520890Y-96192458D01*
X104000000Y-96088846D01*
X103479109Y-96192458D01*
X103037519Y-96487520D01*
X102981117Y-96571932D01*
X102854185Y-96416210D01*
X102393550Y-96168020D01*
X102333329Y-96157284D01*
X102127000Y-96280626D01*
X101873000Y-96280626D01*
X101666671Y-96157284D01*
X101606450Y-96168020D01*
X101145815Y-96416210D01*
X100815222Y-96821785D01*
X100665000Y-97323000D01*
X94164571Y-97323000D01*
X94131758Y-97243783D01*
X93756217Y-96868242D01*
X93265548Y-96665000D01*
X92739802Y-96665000D01*
X90850955Y-94776153D01*
X91475866Y-95035000D01*
X92524134Y-95035000D01*
X93492608Y-94633845D01*
X94233845Y-93892608D01*
X94635000Y-92924134D01*
X94635000Y-91875866D01*
X94233845Y-90907392D01*
X93492608Y-90166155D01*
X92524134Y-89765000D01*
X91475866Y-89765000D01*
X90507392Y-90166155D01*
X89766155Y-90907392D01*
X89365000Y-91875866D01*
X89365000Y-92924134D01*
X89623847Y-93549045D01*
X88260000Y-92185199D01*
X88260000Y-90574847D01*
X88274888Y-90500000D01*
X88260000Y-90425153D01*
X88260000Y-90425148D01*
X88215904Y-90203463D01*
X88047929Y-89952071D01*
X87984473Y-89909671D01*
X86489640Y-88414839D01*
X86535000Y-88305330D01*
X86535000Y-87694670D01*
X86301310Y-87130493D01*
X85920817Y-86750000D01*
X86115386Y-86555431D01*
X104765000Y-86555431D01*
X104765000Y-87444569D01*
X105105259Y-88266026D01*
X105733974Y-88894741D01*
X106555431Y-89235000D01*
X107444569Y-89235000D01*
X108266026Y-88894741D01*
X108894741Y-88266026D01*
X109235000Y-87444569D01*
X109235000Y-86555431D01*
X108894741Y-85733974D01*
X108266026Y-85105259D01*
X107444569Y-84765000D01*
X106555431Y-84765000D01*
X105733974Y-85105259D01*
X105105259Y-85733974D01*
X104765000Y-86555431D01*
X86115386Y-86555431D01*
X86301310Y-86369507D01*
X86535000Y-85805330D01*
X86535000Y-85194670D01*
X86301310Y-84630493D01*
X85869507Y-84198690D01*
X85305330Y-83965000D01*
X84694670Y-83965000D01*
X84130493Y-84198690D01*
X83735000Y-84594183D01*
X83735000Y-81735000D01*
X90138547Y-81735000D01*
X89766155Y-82107392D01*
G36*
X147873000Y-129265000D02*
X131127000Y-129265000D01*
X131127000Y-106174504D01*
X132215944Y-106174504D01*
X132563780Y-106974187D01*
X133191164Y-107579886D01*
X133925497Y-107884050D01*
X134273000Y-107772362D01*
X134273000Y-105827000D01*
X134527000Y-105827000D01*
X134527000Y-107772362D01*
X134874503Y-107884050D01*
X135536132Y-107610000D01*
X140052560Y-107610000D01*
X140052560Y-109210000D01*
X140101843Y-109457765D01*
X140242191Y-109667809D01*
X140452235Y-109808157D01*
X140700000Y-109857440D01*
X142300000Y-109857440D01*
X142547765Y-109808157D01*
X142757809Y-109667809D01*
X142898157Y-109457765D01*
X142906117Y-109417745D01*
X144171861Y-109417745D01*
X144245995Y-109663864D01*
X144783223Y-109856965D01*
X145353454Y-109829778D01*
X145754005Y-109663864D01*
X145828139Y-109417745D01*
X145000000Y-108589605D01*
X144171861Y-109417745D01*
X142906117Y-109417745D01*
X142947440Y-109210000D01*
X142947440Y-108193223D01*
X143553035Y-108193223D01*
X143580222Y-108763454D01*
X143746136Y-109164005D01*
X143992255Y-109238139D01*
X144820395Y-108410000D01*
X145179605Y-108410000D01*
X146007745Y-109238139D01*
X146253864Y-109164005D01*
X146446965Y-108626777D01*
X146419778Y-108056546D01*
X146253864Y-107655995D01*
X146007745Y-107581861D01*
X145179605Y-108410000D01*
X144820395Y-108410000D01*
X143992255Y-107581861D01*
X143746136Y-107655995D01*
X143553035Y-108193223D01*
X142947440Y-108193223D01*
X142947440Y-107610000D01*
X142906118Y-107402255D01*
X144171861Y-107402255D01*
X145000000Y-108230395D01*
X145828139Y-107402255D01*
X145754005Y-107156136D01*
X145216777Y-106963035D01*
X144646546Y-106990222D01*
X144245995Y-107156136D01*
X144171861Y-107402255D01*
X142906118Y-107402255D01*
X142898157Y-107362235D01*
X142757809Y-107152191D01*
X142547765Y-107011843D01*
X142300000Y-106962560D01*
X140700000Y-106962560D01*
X140452235Y-107011843D01*
X140242191Y-107152191D01*
X140101843Y-107362235D01*
X140052560Y-107610000D01*
X135536132Y-107610000D01*
X135608836Y-107579886D01*
X136236220Y-106974187D01*
X136584056Y-106174504D01*
X136472645Y-105827000D01*
X134527000Y-105827000D01*
X134273000Y-105827000D01*
X132327355Y-105827000D01*
X132215944Y-106174504D01*
X131127000Y-106174504D01*
X131127000Y-105225496D01*
X132215944Y-105225496D01*
X132327355Y-105573000D01*
X134273000Y-105573000D01*
X134273000Y-103627638D01*
X134527000Y-103627638D01*
X134527000Y-105573000D01*
X136472645Y-105573000D01*
X136584056Y-105225496D01*
X136236220Y-104425813D01*
X135608836Y-103820114D01*
X134874503Y-103515950D01*
X134527000Y-103627638D01*
X134273000Y-103627638D01*
X133925497Y-103515950D01*
X133191164Y-103820114D01*
X132563780Y-104425813D01*
X132215944Y-105225496D01*
X131127000Y-105225496D01*
X131127000Y-100164742D01*
X138608954Y-100164742D01*
X138862034Y-100707576D01*
X139303583Y-101112240D01*
X139735260Y-101291036D01*
X139973000Y-101170378D01*
X139973000Y-99927000D01*
X140227000Y-99927000D01*
X140227000Y-101170378D01*
X140464740Y-101291036D01*
X140896417Y-101112240D01*
X141337966Y-100707576D01*
X141591046Y-100164742D01*
X141470997Y-99927000D01*
X140227000Y-99927000D01*
X139973000Y-99927000D01*
X138729003Y-99927000D01*
X138608954Y-100164742D01*
X131127000Y-100164742D01*
X131127000Y-99435258D01*
X138608954Y-99435258D01*
X138729003Y-99673000D01*
X139973000Y-99673000D01*
X139973000Y-98429622D01*
X140227000Y-98429622D01*
X140227000Y-99673000D01*
X141470997Y-99673000D01*
X141591046Y-99435258D01*
X141337966Y-98892424D01*
X140896417Y-98487760D01*
X140464740Y-98308964D01*
X140227000Y-98429622D01*
X139973000Y-98429622D01*
X139735260Y-98308964D01*
X139303583Y-98487760D01*
X138862034Y-98892424D01*
X138608954Y-99435258D01*
X131127000Y-99435258D01*
X131127000Y-98100000D01*
X142234928Y-98100000D01*
X142354062Y-98698927D01*
X142693327Y-99206673D01*
X143201073Y-99545938D01*
X143648818Y-99635000D01*
X143951182Y-99635000D01*
X144398927Y-99545938D01*
X144906673Y-99206673D01*
X145245938Y-98698927D01*
X145365072Y-98100000D01*
X145245938Y-97501073D01*
X144906673Y-96993327D01*
X144398927Y-96654062D01*
X143951182Y-96565000D01*
X143648818Y-96565000D01*
X143201073Y-96654062D01*
X142693327Y-96993327D01*
X142354062Y-97501073D01*
X142234928Y-98100000D01*
X131127000Y-98100000D01*
X131127000Y-96764742D01*
X138608954Y-96764742D01*
X138862034Y-97307576D01*
X139303583Y-97712240D01*
X139735260Y-97891036D01*
X139973000Y-97770378D01*
X139973000Y-96527000D01*
X140227000Y-96527000D01*
X140227000Y-97770378D01*
X140464740Y-97891036D01*
X140896417Y-97712240D01*
X141337966Y-97307576D01*
X141591046Y-96764742D01*
X141470997Y-96527000D01*
X140227000Y-96527000D01*
X139973000Y-96527000D01*
X138729003Y-96527000D01*
X138608954Y-96764742D01*
X131127000Y-96764742D01*
X131127000Y-96035258D01*
X138608954Y-96035258D01*
X138729003Y-96273000D01*
X139973000Y-96273000D01*
X139973000Y-95029622D01*
X140227000Y-95029622D01*
X140227000Y-96273000D01*
X141470997Y-96273000D01*
X141591046Y-96035258D01*
X141337966Y-95492424D01*
X140896417Y-95087760D01*
X140464740Y-94908964D01*
X140227000Y-95029622D01*
X139973000Y-95029622D01*
X139735260Y-94908964D01*
X139303583Y-95087760D01*
X138862034Y-95492424D01*
X138608954Y-96035258D01*
X131127000Y-96035258D01*
X131127000Y-91400000D01*
X132152560Y-91400000D01*
X132152560Y-94600000D01*
X132201843Y-94847765D01*
X132342191Y-95057809D01*
X132552235Y-95198157D01*
X132800000Y-95247440D01*
X136000000Y-95247440D01*
X136247765Y-95198157D01*
X136457809Y-95057809D01*
X136598157Y-94847765D01*
X136627548Y-94700000D01*
X142234928Y-94700000D01*
X142354062Y-95298927D01*
X142693327Y-95806673D01*
X143201073Y-96145938D01*
X143648818Y-96235000D01*
X143951182Y-96235000D01*
X144398927Y-96145938D01*
X144906673Y-95806673D01*
X145245938Y-95298927D01*
X145365072Y-94700000D01*
X145245938Y-94101073D01*
X144906673Y-93593327D01*
X144398927Y-93254062D01*
X143951182Y-93165000D01*
X143648818Y-93165000D01*
X143201073Y-93254062D01*
X142693327Y-93593327D01*
X142354062Y-94101073D01*
X142234928Y-94700000D01*
X136627548Y-94700000D01*
X136647440Y-94600000D01*
X136647440Y-92100000D01*
X138552560Y-92100000D01*
X138552560Y-93900000D01*
X138601843Y-94147765D01*
X138742191Y-94357809D01*
X138952235Y-94498157D01*
X139200000Y-94547440D01*
X141000000Y-94547440D01*
X141247765Y-94498157D01*
X141457809Y-94357809D01*
X141598157Y-94147765D01*
X141647440Y-93900000D01*
X141647440Y-92100000D01*
X141598157Y-91852235D01*
X141457809Y-91642191D01*
X141247765Y-91501843D01*
X141000000Y-91452560D01*
X139200000Y-91452560D01*
X138952235Y-91501843D01*
X138742191Y-91642191D01*
X138601843Y-91852235D01*
X138552560Y-92100000D01*
X136647440Y-92100000D01*
X136647440Y-91400000D01*
X136598157Y-91152235D01*
X136457809Y-90942191D01*
X136247765Y-90801843D01*
X136000000Y-90752560D01*
X132800000Y-90752560D01*
X132552235Y-90801843D01*
X132342191Y-90942191D01*
X132201843Y-91152235D01*
X132152560Y-91400000D01*
X131127000Y-91400000D01*
X131127000Y-87674778D01*
X132765000Y-87674778D01*
X132765000Y-88325222D01*
X133013914Y-88926153D01*
X133473847Y-89386086D01*
X134074778Y-89635000D01*
X134725222Y-89635000D01*
X135326153Y-89386086D01*
X135786086Y-88926153D01*
X135959396Y-88507745D01*
X142071861Y-88507745D01*
X142145995Y-88753864D01*
X142683223Y-88946965D01*
X143253454Y-88919778D01*
X143654005Y-88753864D01*
X143728139Y-88507745D01*
X142900000Y-87679605D01*
X142071861Y-88507745D01*
X135959396Y-88507745D01*
X136035000Y-88325222D01*
X136035000Y-87674778D01*
X135872813Y-87283223D01*
X141453035Y-87283223D01*
X141480222Y-87853454D01*
X141646136Y-88254005D01*
X141892255Y-88328139D01*
X142720395Y-87500000D01*
X143079605Y-87500000D01*
X143907745Y-88328139D01*
X144153864Y-88254005D01*
X144346965Y-87716777D01*
X144319778Y-87146546D01*
X144153864Y-86745995D01*
X143907745Y-86671861D01*
X143079605Y-87500000D01*
X142720395Y-87500000D01*
X141892255Y-86671861D01*
X141646136Y-86745995D01*
X141453035Y-87283223D01*
X135872813Y-87283223D01*
X135786086Y-87073847D01*
X135326153Y-86613914D01*
X135032443Y-86492255D01*
X142071861Y-86492255D01*
X142900000Y-87320395D01*
X143728139Y-86492255D01*
X143654005Y-86246136D01*
X143116777Y-86053035D01*
X142546546Y-86080222D01*
X142145995Y-86246136D01*
X142071861Y-86492255D01*
X135032443Y-86492255D01*
X134725222Y-86365000D01*
X134074778Y-86365000D01*
X133473847Y-86613914D01*
X133013914Y-87073847D01*
X132765000Y-87674778D01*
X131127000Y-87674778D01*
X131127000Y-83674778D01*
X132765000Y-83674778D01*
X132765000Y-84325222D01*
X133013914Y-84926153D01*
X133473847Y-85386086D01*
X134074778Y-85635000D01*
X134725222Y-85635000D01*
X135326153Y-85386086D01*
X135786086Y-84926153D01*
X136035000Y-84325222D01*
X136035000Y-83674778D01*
X135838341Y-83200000D01*
X141452560Y-83200000D01*
X141452560Y-84800000D01*
X141501843Y-85047765D01*
X141642191Y-85257809D01*
X141852235Y-85398157D01*
X142100000Y-85447440D01*
X143700000Y-85447440D01*
X143947765Y-85398157D01*
X144157809Y-85257809D01*
X144298157Y-85047765D01*
X144347440Y-84800000D01*
X144347440Y-83200000D01*
X144298157Y-82952235D01*
X144157809Y-82742191D01*
X143947765Y-82601843D01*
X143700000Y-82552560D01*
X142100000Y-82552560D01*
X141852235Y-82601843D01*
X141642191Y-82742191D01*
X141501843Y-82952235D01*
X141452560Y-83200000D01*
X135838341Y-83200000D01*
X135786086Y-83073847D01*
X135326153Y-82613914D01*
X134725222Y-82365000D01*
X134074778Y-82365000D01*
X133473847Y-82613914D01*
X133013914Y-83073847D01*
X132765000Y-83674778D01*
X131127000Y-83674778D01*
X131127000Y-81735000D01*
X147873000Y-81735000D01*
X147873000Y-129265000D01*
X147873000Y-129265000D01*
G37*
X147873000Y-129265000D02*
X131127000Y-129265000D01*
X131127000Y-106174504D01*
X132215944Y-106174504D01*
X132563780Y-106974187D01*
X133191164Y-107579886D01*
X133925497Y-107884050D01*
X134273000Y-107772362D01*
X134273000Y-105827000D01*
X134527000Y-105827000D01*
X134527000Y-107772362D01*
X134874503Y-107884050D01*
X135536132Y-107610000D01*
X140052560Y-107610000D01*
X140052560Y-109210000D01*
X140101843Y-109457765D01*
X140242191Y-109667809D01*
X140452235Y-109808157D01*
X140700000Y-109857440D01*
X142300000Y-109857440D01*
X142547765Y-109808157D01*
X142757809Y-109667809D01*
X142898157Y-109457765D01*
X142906117Y-109417745D01*
X144171861Y-109417745D01*
X144245995Y-109663864D01*
X144783223Y-109856965D01*
X145353454Y-109829778D01*
X145754005Y-109663864D01*
X145828139Y-109417745D01*
X145000000Y-108589605D01*
X144171861Y-109417745D01*
X142906117Y-109417745D01*
X142947440Y-109210000D01*
X142947440Y-108193223D01*
X143553035Y-108193223D01*
X143580222Y-108763454D01*
X143746136Y-109164005D01*
X143992255Y-109238139D01*
X144820395Y-108410000D01*
X145179605Y-108410000D01*
X146007745Y-109238139D01*
X146253864Y-109164005D01*
X146446965Y-108626777D01*
X146419778Y-108056546D01*
X146253864Y-107655995D01*
X146007745Y-107581861D01*
X145179605Y-108410000D01*
X144820395Y-108410000D01*
X143992255Y-107581861D01*
X143746136Y-107655995D01*
X143553035Y-108193223D01*
X142947440Y-108193223D01*
X142947440Y-107610000D01*
X142906118Y-107402255D01*
X144171861Y-107402255D01*
X145000000Y-108230395D01*
X145828139Y-107402255D01*
X145754005Y-107156136D01*
X145216777Y-106963035D01*
X144646546Y-106990222D01*
X144245995Y-107156136D01*
X144171861Y-107402255D01*
X142906118Y-107402255D01*
X142898157Y-107362235D01*
X142757809Y-107152191D01*
X142547765Y-107011843D01*
X142300000Y-106962560D01*
X140700000Y-106962560D01*
X140452235Y-107011843D01*
X140242191Y-107152191D01*
X140101843Y-107362235D01*
X140052560Y-107610000D01*
X135536132Y-107610000D01*
X135608836Y-107579886D01*
X136236220Y-106974187D01*
X136584056Y-106174504D01*
X136472645Y-105827000D01*
X134527000Y-105827000D01*
X134273000Y-105827000D01*
X132327355Y-105827000D01*
X132215944Y-106174504D01*
X131127000Y-106174504D01*
X131127000Y-105225496D01*
X132215944Y-105225496D01*
X132327355Y-105573000D01*
X134273000Y-105573000D01*
X134273000Y-103627638D01*
X134527000Y-103627638D01*
X134527000Y-105573000D01*
X136472645Y-105573000D01*
X136584056Y-105225496D01*
X136236220Y-104425813D01*
X135608836Y-103820114D01*
X134874503Y-103515950D01*
X134527000Y-103627638D01*
X134273000Y-103627638D01*
X133925497Y-103515950D01*
X133191164Y-103820114D01*
X132563780Y-104425813D01*
X132215944Y-105225496D01*
X131127000Y-105225496D01*
X131127000Y-100164742D01*
X138608954Y-100164742D01*
X138862034Y-100707576D01*
X139303583Y-101112240D01*
X139735260Y-101291036D01*
X139973000Y-101170378D01*
X139973000Y-99927000D01*
X140227000Y-99927000D01*
X140227000Y-101170378D01*
X140464740Y-101291036D01*
X140896417Y-101112240D01*
X141337966Y-100707576D01*
X141591046Y-100164742D01*
X141470997Y-99927000D01*
X140227000Y-99927000D01*
X139973000Y-99927000D01*
X138729003Y-99927000D01*
X138608954Y-100164742D01*
X131127000Y-100164742D01*
X131127000Y-99435258D01*
X138608954Y-99435258D01*
X138729003Y-99673000D01*
X139973000Y-99673000D01*
X139973000Y-98429622D01*
X140227000Y-98429622D01*
X140227000Y-99673000D01*
X141470997Y-99673000D01*
X141591046Y-99435258D01*
X141337966Y-98892424D01*
X140896417Y-98487760D01*
X140464740Y-98308964D01*
X140227000Y-98429622D01*
X139973000Y-98429622D01*
X139735260Y-98308964D01*
X139303583Y-98487760D01*
X138862034Y-98892424D01*
X138608954Y-99435258D01*
X131127000Y-99435258D01*
X131127000Y-98100000D01*
X142234928Y-98100000D01*
X142354062Y-98698927D01*
X142693327Y-99206673D01*
X143201073Y-99545938D01*
X143648818Y-99635000D01*
X143951182Y-99635000D01*
X144398927Y-99545938D01*
X144906673Y-99206673D01*
X145245938Y-98698927D01*
X145365072Y-98100000D01*
X145245938Y-97501073D01*
X144906673Y-96993327D01*
X144398927Y-96654062D01*
X143951182Y-96565000D01*
X143648818Y-96565000D01*
X143201073Y-96654062D01*
X142693327Y-96993327D01*
X142354062Y-97501073D01*
X142234928Y-98100000D01*
X131127000Y-98100000D01*
X131127000Y-96764742D01*
X138608954Y-96764742D01*
X138862034Y-97307576D01*
X139303583Y-97712240D01*
X139735260Y-97891036D01*
X139973000Y-97770378D01*
X139973000Y-96527000D01*
X140227000Y-96527000D01*
X140227000Y-97770378D01*
X140464740Y-97891036D01*
X140896417Y-97712240D01*
X141337966Y-97307576D01*
X141591046Y-96764742D01*
X141470997Y-96527000D01*
X140227000Y-96527000D01*
X139973000Y-96527000D01*
X138729003Y-96527000D01*
X138608954Y-96764742D01*
X131127000Y-96764742D01*
X131127000Y-96035258D01*
X138608954Y-96035258D01*
X138729003Y-96273000D01*
X139973000Y-96273000D01*
X139973000Y-95029622D01*
X140227000Y-95029622D01*
X140227000Y-96273000D01*
X141470997Y-96273000D01*
X141591046Y-96035258D01*
X141337966Y-95492424D01*
X140896417Y-95087760D01*
X140464740Y-94908964D01*
X140227000Y-95029622D01*
X139973000Y-95029622D01*
X139735260Y-94908964D01*
X139303583Y-95087760D01*
X138862034Y-95492424D01*
X138608954Y-96035258D01*
X131127000Y-96035258D01*
X131127000Y-91400000D01*
X132152560Y-91400000D01*
X132152560Y-94600000D01*
X132201843Y-94847765D01*
X132342191Y-95057809D01*
X132552235Y-95198157D01*
X132800000Y-95247440D01*
X136000000Y-95247440D01*
X136247765Y-95198157D01*
X136457809Y-95057809D01*
X136598157Y-94847765D01*
X136627548Y-94700000D01*
X142234928Y-94700000D01*
X142354062Y-95298927D01*
X142693327Y-95806673D01*
X143201073Y-96145938D01*
X143648818Y-96235000D01*
X143951182Y-96235000D01*
X144398927Y-96145938D01*
X144906673Y-95806673D01*
X145245938Y-95298927D01*
X145365072Y-94700000D01*
X145245938Y-94101073D01*
X144906673Y-93593327D01*
X144398927Y-93254062D01*
X143951182Y-93165000D01*
X143648818Y-93165000D01*
X143201073Y-93254062D01*
X142693327Y-93593327D01*
X142354062Y-94101073D01*
X142234928Y-94700000D01*
X136627548Y-94700000D01*
X136647440Y-94600000D01*
X136647440Y-92100000D01*
X138552560Y-92100000D01*
X138552560Y-93900000D01*
X138601843Y-94147765D01*
X138742191Y-94357809D01*
X138952235Y-94498157D01*
X139200000Y-94547440D01*
X141000000Y-94547440D01*
X141247765Y-94498157D01*
X141457809Y-94357809D01*
X141598157Y-94147765D01*
X141647440Y-93900000D01*
X141647440Y-92100000D01*
X141598157Y-91852235D01*
X141457809Y-91642191D01*
X141247765Y-91501843D01*
X141000000Y-91452560D01*
X139200000Y-91452560D01*
X138952235Y-91501843D01*
X138742191Y-91642191D01*
X138601843Y-91852235D01*
X138552560Y-92100000D01*
X136647440Y-92100000D01*
X136647440Y-91400000D01*
X136598157Y-91152235D01*
X136457809Y-90942191D01*
X136247765Y-90801843D01*
X136000000Y-90752560D01*
X132800000Y-90752560D01*
X132552235Y-90801843D01*
X132342191Y-90942191D01*
X132201843Y-91152235D01*
X132152560Y-91400000D01*
X131127000Y-91400000D01*
X131127000Y-87674778D01*
X132765000Y-87674778D01*
X132765000Y-88325222D01*
X133013914Y-88926153D01*
X133473847Y-89386086D01*
X134074778Y-89635000D01*
X134725222Y-89635000D01*
X135326153Y-89386086D01*
X135786086Y-88926153D01*
X135959396Y-88507745D01*
X142071861Y-88507745D01*
X142145995Y-88753864D01*
X142683223Y-88946965D01*
X143253454Y-88919778D01*
X143654005Y-88753864D01*
X143728139Y-88507745D01*
X142900000Y-87679605D01*
X142071861Y-88507745D01*
X135959396Y-88507745D01*
X136035000Y-88325222D01*
X136035000Y-87674778D01*
X135872813Y-87283223D01*
X141453035Y-87283223D01*
X141480222Y-87853454D01*
X141646136Y-88254005D01*
X141892255Y-88328139D01*
X142720395Y-87500000D01*
X143079605Y-87500000D01*
X143907745Y-88328139D01*
X144153864Y-88254005D01*
X144346965Y-87716777D01*
X144319778Y-87146546D01*
X144153864Y-86745995D01*
X143907745Y-86671861D01*
X143079605Y-87500000D01*
X142720395Y-87500000D01*
X141892255Y-86671861D01*
X141646136Y-86745995D01*
X141453035Y-87283223D01*
X135872813Y-87283223D01*
X135786086Y-87073847D01*
X135326153Y-86613914D01*
X135032443Y-86492255D01*
X142071861Y-86492255D01*
X142900000Y-87320395D01*
X143728139Y-86492255D01*
X143654005Y-86246136D01*
X143116777Y-86053035D01*
X142546546Y-86080222D01*
X142145995Y-86246136D01*
X142071861Y-86492255D01*
X135032443Y-86492255D01*
X134725222Y-86365000D01*
X134074778Y-86365000D01*
X133473847Y-86613914D01*
X133013914Y-87073847D01*
X132765000Y-87674778D01*
X131127000Y-87674778D01*
X131127000Y-83674778D01*
X132765000Y-83674778D01*
X132765000Y-84325222D01*
X133013914Y-84926153D01*
X133473847Y-85386086D01*
X134074778Y-85635000D01*
X134725222Y-85635000D01*
X135326153Y-85386086D01*
X135786086Y-84926153D01*
X136035000Y-84325222D01*
X136035000Y-83674778D01*
X135838341Y-83200000D01*
X141452560Y-83200000D01*
X141452560Y-84800000D01*
X141501843Y-85047765D01*
X141642191Y-85257809D01*
X141852235Y-85398157D01*
X142100000Y-85447440D01*
X143700000Y-85447440D01*
X143947765Y-85398157D01*
X144157809Y-85257809D01*
X144298157Y-85047765D01*
X144347440Y-84800000D01*
X144347440Y-83200000D01*
X144298157Y-82952235D01*
X144157809Y-82742191D01*
X143947765Y-82601843D01*
X143700000Y-82552560D01*
X142100000Y-82552560D01*
X141852235Y-82601843D01*
X141642191Y-82742191D01*
X141501843Y-82952235D01*
X141452560Y-83200000D01*
X135838341Y-83200000D01*
X135786086Y-83073847D01*
X135326153Y-82613914D01*
X134725222Y-82365000D01*
X134074778Y-82365000D01*
X133473847Y-82613914D01*
X133013914Y-83073847D01*
X132765000Y-83674778D01*
X131127000Y-83674778D01*
X131127000Y-81735000D01*
X147873000Y-81735000D01*
X147873000Y-129265000D01*
G04 #@! TD*
M02*
