G04 #@! TF.GenerationSoftware,KiCad,Pcbnew,(5.0.0)*
G04 #@! TF.CreationDate,2018-08-07T13:03:26+01:00*
G04 #@! TF.ProjectId,OpenSpritzer,4F70656E53707269747A65722E6B6963,rev?*
G04 #@! TF.SameCoordinates,Original*
G04 #@! TF.FileFunction,Other,Fab,Top*
%FSLAX46Y46*%
G04 Gerber Fmt 4.6, Leading zero omitted, Abs format (unit mm)*
G04 Created by KiCad (PCBNEW (5.0.0)) date 08/07/18 13:03:26*
%MOMM*%
%LPD*%
G01*
G04 APERTURE LIST*
%ADD10C,0.100000*%
%ADD11C,0.150000*%
%ADD12C,0.200000*%
G04 APERTURE END LIST*
D10*
G04 #@! TO.C,RV1*
X95750000Y-88000000D02*
G75*
G03X95750000Y-88000000I-3250000J0D01*
G01*
X95500000Y-88000000D02*
G75*
G03X95500000Y-88000000I-3000000J0D01*
G01*
X86000000Y-83100000D02*
X86000000Y-92900000D01*
X86000000Y-92900000D02*
X98000000Y-92900000D01*
X98000000Y-92900000D02*
X98000000Y-83100000D01*
X98000000Y-83100000D02*
X86000000Y-83100000D01*
G04 #@! TO.C,SW1*
X88350000Y-105000000D02*
X87350000Y-104000000D01*
X82350000Y-108250000D02*
X84350000Y-108250000D01*
X82350000Y-106750000D02*
X82350000Y-108250000D01*
X84350000Y-106750000D02*
X82350000Y-106750000D01*
X84350000Y-104000000D02*
X87350000Y-104000000D01*
X84350000Y-113000000D02*
X84350000Y-104000000D01*
X88350000Y-113000000D02*
X84350000Y-113000000D01*
X88350000Y-105000000D02*
X88350000Y-113000000D01*
G04 #@! TO.C,A1*
X116810000Y-118750000D02*
X124430000Y-118750000D01*
X124430000Y-118750000D02*
X124430000Y-128910000D01*
X124430000Y-128910000D02*
X116810000Y-128910000D01*
X116810000Y-128910000D02*
X116810000Y-118750000D01*
X129510000Y-126370000D02*
X111730000Y-126370000D01*
X111730000Y-126370000D02*
X111730000Y-84460000D01*
X111730000Y-84460000D02*
X113000000Y-83190000D01*
X113000000Y-83190000D02*
X129510000Y-83190000D01*
X129510000Y-83190000D02*
X129510000Y-126370000D01*
G04 #@! TO.C,D1*
X85530334Y-96769984D02*
G75*
G03X88469694Y-96770000I1469666J-2500016D01*
G01*
X89500000Y-99270000D02*
G75*
G03X89500000Y-99270000I-2500000J0D01*
G01*
X88469694Y-96770000D02*
X85530306Y-96770000D01*
G04 #@! TO.C,D2*
X99190000Y-106500000D02*
X99190000Y-104500000D01*
X99190000Y-104500000D02*
X95190000Y-104500000D01*
X95190000Y-104500000D02*
X95190000Y-106500000D01*
X95190000Y-106500000D02*
X99190000Y-106500000D01*
X101000000Y-105500000D02*
X99190000Y-105500000D01*
X93380000Y-105500000D02*
X95190000Y-105500000D01*
X98590000Y-106500000D02*
X98590000Y-104500000D01*
G04 #@! TO.C,D3*
X88355000Y-114895000D02*
X88355000Y-120105000D01*
X88355000Y-120105000D02*
X97885000Y-120105000D01*
X97885000Y-120105000D02*
X97885000Y-114895000D01*
X97885000Y-114895000D02*
X88355000Y-114895000D01*
X85500000Y-117500000D02*
X88355000Y-117500000D01*
X100740000Y-117500000D02*
X97885000Y-117500000D01*
X89784500Y-114895000D02*
X89784500Y-120105000D01*
G04 #@! TO.C,R1*
X93800000Y-98000000D02*
G75*
G03X93800000Y-98000000I-800000J0D01*
G01*
X93000000Y-98000000D02*
X93000000Y-100540000D01*
G04 #@! TO.C,R2*
X91800000Y-109500000D02*
G75*
G03X91800000Y-109500000I-800000J0D01*
G01*
X91000000Y-109500000D02*
X91000000Y-112040000D01*
G04 #@! TO.C,R3*
X95300000Y-112000000D02*
G75*
G03X95300000Y-112000000I-800000J0D01*
G01*
X94500000Y-112000000D02*
X94500000Y-109460000D01*
G04 #@! TO.C,R4*
X101300000Y-109000000D02*
G75*
G03X101300000Y-109000000I-800000J0D01*
G01*
X100500000Y-109000000D02*
X97960000Y-109000000D01*
G04 #@! TO.C,R5*
X98800000Y-112000000D02*
G75*
G03X98800000Y-112000000I-800000J0D01*
G01*
X98000000Y-112000000D02*
X100540000Y-112000000D01*
G04 #@! TO.C,R6*
X105300000Y-111500000D02*
G75*
G03X105300000Y-111500000I-800000J0D01*
G01*
X104500000Y-111500000D02*
X104500000Y-108960000D01*
G04 #@! TO.C,C1*
X147250000Y-108410000D02*
G75*
G03X147250000Y-108410000I-4000000J0D01*
G01*
X139300000Y-108410000D02*
X140500000Y-108410000D01*
X139900000Y-107760000D02*
X139900000Y-109060000D01*
G04 #@! TO.C,C2*
X146900000Y-85750000D02*
G75*
G03X146900000Y-85750000I-4000000J0D01*
G01*
X142900000Y-81800000D02*
X142900000Y-83000000D01*
X143550000Y-82400000D02*
X142250000Y-82400000D01*
G04 #@! TO.C,D4*
X137000000Y-94600000D02*
X131800000Y-94600000D01*
X131800000Y-94600000D02*
X131800000Y-104100000D01*
X131800000Y-104100000D02*
X137000000Y-104100000D01*
X137000000Y-104100000D02*
X137000000Y-94600000D01*
X134400000Y-93000000D02*
X134400000Y-94600000D01*
X134400000Y-105700000D02*
X134400000Y-104100000D01*
X137000000Y-96025000D02*
X131800000Y-96025000D01*
G04 #@! TO.C,L1*
X137400000Y-86000000D02*
G75*
G03X137400000Y-86000000I-3000000J0D01*
G01*
G04 #@! TO.C,U1*
X148300000Y-91400000D02*
X143900000Y-91400000D01*
X143900000Y-91400000D02*
X143900000Y-101400000D01*
X143900000Y-101400000D02*
X148300000Y-101400000D01*
X148300000Y-101400000D02*
X148300000Y-91400000D01*
X147030000Y-91400000D02*
X147030000Y-101400000D01*
X148300000Y-94550000D02*
X147030000Y-94550000D01*
X148300000Y-98250000D02*
X147030000Y-98250000D01*
X143900000Y-93000000D02*
X140100000Y-93000000D01*
X143900000Y-94700000D02*
X143800000Y-94700000D01*
X143900000Y-96400000D02*
X140100000Y-96400000D01*
X143900000Y-98100000D02*
X143800000Y-98100000D01*
X143900000Y-99800000D02*
X140100000Y-99800000D01*
G04 #@! TD*
G04 #@! TO.C,SW1*
D11*
G04 #@! TO.C,A1*
X116166666Y-102738095D02*
X116166666Y-102261904D01*
X116452380Y-102833333D02*
X115452380Y-102500000D01*
X116452380Y-102166666D01*
X116452380Y-101833333D02*
X115785714Y-101833333D01*
X115976190Y-101833333D02*
X115880952Y-101785714D01*
X115833333Y-101738095D01*
X115785714Y-101642857D01*
X115785714Y-101547619D01*
X116452380Y-100785714D02*
X115452380Y-100785714D01*
X116404761Y-100785714D02*
X116452380Y-100880952D01*
X116452380Y-101071428D01*
X116404761Y-101166666D01*
X116357142Y-101214285D01*
X116261904Y-101261904D01*
X115976190Y-101261904D01*
X115880952Y-101214285D01*
X115833333Y-101166666D01*
X115785714Y-101071428D01*
X115785714Y-100880952D01*
X115833333Y-100785714D01*
X115785714Y-99880952D02*
X116452380Y-99880952D01*
X115785714Y-100309523D02*
X116309523Y-100309523D01*
X116404761Y-100261904D01*
X116452380Y-100166666D01*
X116452380Y-100023809D01*
X116404761Y-99928571D01*
X116357142Y-99880952D01*
X116452380Y-99404761D02*
X115785714Y-99404761D01*
X115452380Y-99404761D02*
X115500000Y-99452380D01*
X115547619Y-99404761D01*
X115500000Y-99357142D01*
X115452380Y-99404761D01*
X115547619Y-99404761D01*
X115785714Y-98928571D02*
X116452380Y-98928571D01*
X115880952Y-98928571D02*
X115833333Y-98880952D01*
X115785714Y-98785714D01*
X115785714Y-98642857D01*
X115833333Y-98547619D01*
X115928571Y-98500000D01*
X116452380Y-98500000D01*
X116452380Y-97880952D02*
X116404761Y-97976190D01*
X116357142Y-98023809D01*
X116261904Y-98071428D01*
X115976190Y-98071428D01*
X115880952Y-98023809D01*
X115833333Y-97976190D01*
X115785714Y-97880952D01*
X115785714Y-97738095D01*
X115833333Y-97642857D01*
X115880952Y-97595238D01*
X115976190Y-97547619D01*
X116261904Y-97547619D01*
X116357142Y-97595238D01*
X116404761Y-97642857D01*
X116452380Y-97738095D01*
X116452380Y-97880952D01*
X116547619Y-97357142D02*
X116547619Y-96595238D01*
X116452380Y-96357142D02*
X115452380Y-96357142D01*
X116452380Y-95785714D01*
X115452380Y-95785714D01*
X116452380Y-94880952D02*
X115928571Y-94880952D01*
X115833333Y-94928571D01*
X115785714Y-95023809D01*
X115785714Y-95214285D01*
X115833333Y-95309523D01*
X116404761Y-94880952D02*
X116452380Y-94976190D01*
X116452380Y-95214285D01*
X116404761Y-95309523D01*
X116309523Y-95357142D01*
X116214285Y-95357142D01*
X116119047Y-95309523D01*
X116071428Y-95214285D01*
X116071428Y-94976190D01*
X116023809Y-94880952D01*
X115785714Y-94404761D02*
X116452380Y-94404761D01*
X115880952Y-94404761D02*
X115833333Y-94357142D01*
X115785714Y-94261904D01*
X115785714Y-94119047D01*
X115833333Y-94023809D01*
X115928571Y-93976190D01*
X116452380Y-93976190D01*
X116452380Y-93357142D02*
X116404761Y-93452380D01*
X116357142Y-93500000D01*
X116261904Y-93547619D01*
X115976190Y-93547619D01*
X115880952Y-93500000D01*
X115833333Y-93452380D01*
X115785714Y-93357142D01*
X115785714Y-93214285D01*
X115833333Y-93119047D01*
X115880952Y-93071428D01*
X115976190Y-93023809D01*
X116261904Y-93023809D01*
X116357142Y-93071428D01*
X116404761Y-93119047D01*
X116452380Y-93214285D01*
X116452380Y-93357142D01*
X116547619Y-92833333D02*
X116547619Y-92071428D01*
X115785714Y-91928571D02*
X116452380Y-91690476D01*
X115785714Y-91452380D01*
X115452380Y-91166666D02*
X115452380Y-90547619D01*
X115833333Y-90880952D01*
X115833333Y-90738095D01*
X115880952Y-90642857D01*
X115928571Y-90595238D01*
X116023809Y-90547619D01*
X116261904Y-90547619D01*
X116357142Y-90595238D01*
X116404761Y-90642857D01*
X116452380Y-90738095D01*
X116452380Y-91023809D01*
X116404761Y-91119047D01*
X116357142Y-91166666D01*
X116357142Y-90119047D02*
X116404761Y-90071428D01*
X116452380Y-90119047D01*
X116404761Y-90166666D01*
X116357142Y-90119047D01*
X116452380Y-90119047D01*
X116452380Y-89738095D02*
X115785714Y-89214285D01*
X115785714Y-89738095D02*
X116452380Y-89214285D01*
G04 #@! TO.C,D1*
D12*
X85861904Y-99590476D02*
X85061904Y-99590476D01*
X85061904Y-99400000D01*
X85100000Y-99285714D01*
X85176190Y-99209523D01*
X85252380Y-99171428D01*
X85404761Y-99133333D01*
X85519047Y-99133333D01*
X85671428Y-99171428D01*
X85747619Y-99209523D01*
X85823809Y-99285714D01*
X85861904Y-99400000D01*
X85861904Y-99590476D01*
X85861904Y-98371428D02*
X85861904Y-98828571D01*
X85861904Y-98600000D02*
X85061904Y-98600000D01*
X85176190Y-98676190D01*
X85252380Y-98752380D01*
X85290476Y-98828571D01*
G04 #@! TO.C,D2*
D11*
G04 #@! TO.C,D3*
G04 #@! TO.C,*
G04 #@! TO.C,C1*
X143083333Y-108767142D02*
X143035714Y-108814761D01*
X142892857Y-108862380D01*
X142797619Y-108862380D01*
X142654761Y-108814761D01*
X142559523Y-108719523D01*
X142511904Y-108624285D01*
X142464285Y-108433809D01*
X142464285Y-108290952D01*
X142511904Y-108100476D01*
X142559523Y-108005238D01*
X142654761Y-107910000D01*
X142797619Y-107862380D01*
X142892857Y-107862380D01*
X143035714Y-107910000D01*
X143083333Y-107957619D01*
X144035714Y-108862380D02*
X143464285Y-108862380D01*
X143750000Y-108862380D02*
X143750000Y-107862380D01*
X143654761Y-108005238D01*
X143559523Y-108100476D01*
X143464285Y-108148095D01*
G04 #@! TO.C,C2*
X142733333Y-86107142D02*
X142685714Y-86154761D01*
X142542857Y-86202380D01*
X142447619Y-86202380D01*
X142304761Y-86154761D01*
X142209523Y-86059523D01*
X142161904Y-85964285D01*
X142114285Y-85773809D01*
X142114285Y-85630952D01*
X142161904Y-85440476D01*
X142209523Y-85345238D01*
X142304761Y-85250000D01*
X142447619Y-85202380D01*
X142542857Y-85202380D01*
X142685714Y-85250000D01*
X142733333Y-85297619D01*
X143114285Y-85297619D02*
X143161904Y-85250000D01*
X143257142Y-85202380D01*
X143495238Y-85202380D01*
X143590476Y-85250000D01*
X143638095Y-85297619D01*
X143685714Y-85392857D01*
X143685714Y-85488095D01*
X143638095Y-85630952D01*
X143066666Y-86202380D01*
X143685714Y-86202380D01*
G04 #@! TO.C,D4*
X134852380Y-100088095D02*
X133852380Y-100088095D01*
X133852380Y-99850000D01*
X133900000Y-99707142D01*
X133995238Y-99611904D01*
X134090476Y-99564285D01*
X134280952Y-99516666D01*
X134423809Y-99516666D01*
X134614285Y-99564285D01*
X134709523Y-99611904D01*
X134804761Y-99707142D01*
X134852380Y-99850000D01*
X134852380Y-100088095D01*
X134185714Y-98659523D02*
X134852380Y-98659523D01*
X133804761Y-98897619D02*
X134519047Y-99135714D01*
X134519047Y-98516666D01*
G04 #@! TO.C,U1*
X148872380Y-97161904D02*
X149681904Y-97161904D01*
X149777142Y-97114285D01*
X149824761Y-97066666D01*
X149872380Y-96971428D01*
X149872380Y-96780952D01*
X149824761Y-96685714D01*
X149777142Y-96638095D01*
X149681904Y-96590476D01*
X148872380Y-96590476D01*
X149872380Y-95590476D02*
X149872380Y-96161904D01*
X149872380Y-95876190D02*
X148872380Y-95876190D01*
X149015238Y-95971428D01*
X149110476Y-96066666D01*
X149158095Y-96161904D01*
G04 #@! TO.C,*
G04 #@! TD*
M02*
