M48
;DRILL file {KiCad (5.0.0)} date 09/08/18 22:16:31
;FORMAT={-:-/ absolute / metric / decimal}
FMAT,2
METRIC,TZ
T1C0.400
T2C0.550
T3C0.700
T4C0.800
T5C1.000
T6C1.001
T7C1.100
T8C1.300
T9C1.600
T10C1.850
T11C2.200
T12C2.400
%
G90
G05
M71
T1
X130.45Y-128.3
X133.9Y-128.3
X140.4Y-122.325
X142.275Y-110.6
X142.275Y-113.85
X144.925Y-122.325
T3
X145.5Y-113.12
X145.5Y-118.2
X153.4Y-140.845
X153.4Y-145.925
X145.5Y-102.
X145.5Y-107.08
X149.Y-118.2
X149.Y-102.
X149.Y-107.08
X152.5Y-102.
X152.5Y-107.08
X149.Y-113.12
T4
X152.8Y-111.75
X152.8Y-119.37
X128.5Y-134.25
X132.Y-134.25
X104.14Y-102.5
X104.14Y-117.74
X106.68Y-102.5
X106.68Y-117.74
X109.22Y-102.5
X109.22Y-117.74
X111.76Y-102.5
X111.76Y-117.74
X114.3Y-102.5
X114.3Y-117.74
X116.84Y-102.5
X116.84Y-117.74
X119.38Y-102.5
X119.38Y-117.74
X121.92Y-102.5
X121.92Y-117.74
X124.46Y-102.5
X124.46Y-117.74
X127.Y-102.5
X127.Y-117.74
X129.54Y-102.5
X129.54Y-117.74
X132.08Y-102.5
X132.08Y-117.74
X134.62Y-102.5
X134.62Y-117.74
X137.16Y-102.5
X137.16Y-117.74
X139.7Y-102.5
X139.7Y-117.74
X158.475Y-102.025
X158.475Y-104.025
X158.475Y-106.025
X130.2Y-142.55
X130.2Y-146.05
T5
X157.9Y-133.45
X157.9Y-136.95
X105.6Y-141.15
X107.3Y-144.85
X109.Y-141.15
X110.7Y-144.85
X112.4Y-141.15
X157.925Y-142.425
X157.925Y-145.925
X141.25Y-136.45
X143.75Y-136.45
X146.25Y-136.45
X142.175Y-124.95
X146.175Y-124.95
T6
X112.376Y-90.15
X112.376Y-92.649
X112.301Y-130.
X112.301Y-132.499
T8
X158.475Y-111.35
X158.475Y-126.59
T9
X125.1Y-124.95
X137.8Y-124.95
T10
X117.3Y-145.55
X122.7Y-145.55
T11
X108.112Y-85.05
X108.112Y-95.248
X108.037Y-124.9
X108.037Y-135.098
T12
X157.1Y-76.95
T2
X117.46Y-137.43G85X117.46Y-138.43
G05
X117.46Y-139.97G85X117.46Y-140.97
G05
X120.Y-137.43G85X120.Y-138.43
G05
X120.Y-139.97G85X120.Y-140.97
G05
X122.54Y-137.43G85X122.54Y-138.43
G05
X122.54Y-139.97G85X122.54Y-140.97
G05
T7
X152.1Y-83.2G85X152.1Y-85.4
G05
X158.2Y-80.75G85X156.Y-80.75
G05
X158.2Y-87.35G85X156.Y-87.35
G05
T0
M30
