G04 #@! TF.GenerationSoftware,KiCad,Pcbnew,(5.0.0)*
G04 #@! TF.CreationDate,2018-10-03T13:11:40+02:00*
G04 #@! TF.ProjectId,OpenSpritzer_1.02,4F70656E53707269747A65725F312E30,rev?*
G04 #@! TF.SameCoordinates,Original*
G04 #@! TF.FileFunction,Soldermask,Top*
G04 #@! TF.FilePolarity,Negative*
%FSLAX46Y46*%
G04 Gerber Fmt 4.6, Leading zero omitted, Abs format (unit mm)*
G04 Created by KiCad (PCBNEW (5.0.0)) date 10/03/18 13:11:40*
%MOMM*%
%LPD*%
G01*
G04 APERTURE LIST*
%ADD10C,0.100000*%
%ADD11C,3.900000*%
%ADD12C,3.400000*%
%ADD13R,3.900000X3.900000*%
%ADD14C,2.900000*%
%ADD15C,2.200000*%
%ADD16C,6.800000*%
%ADD17O,2.900000X1.800000*%
%ADD18R,3.600000X3.600000*%
%ADD19O,3.600000X3.600000*%
%ADD20R,1.150000X2.150000*%
%ADD21C,2.250000*%
%ADD22R,2.000000X2.000000*%
%ADD23C,2.000000*%
%ADD24O,1.800000X1.800000*%
%ADD25C,1.800000*%
%ADD26C,3.600000*%
%ADD27O,3.410000X1.910000*%
%ADD28O,7.400240X3.900120*%
%ADD29O,2.899360X2.000200*%
%ADD30O,2.000000X2.000000*%
%ADD31C,2.180000*%
%ADD32R,3.000000X3.000000*%
%ADD33O,3.000000X3.000000*%
%ADD34C,2.400000*%
%ADD35R,2.200000X2.200000*%
%ADD36O,2.200000X2.200000*%
G04 APERTURE END LIST*
D10*
G04 #@! TO.C,*
G36*
X153170567Y-82354695D02*
X153265213Y-82368734D01*
X153358028Y-82391983D01*
X153448116Y-82424217D01*
X153534612Y-82465127D01*
X153616681Y-82514317D01*
X153693533Y-82571315D01*
X153764429Y-82635571D01*
X153828685Y-82706467D01*
X153885683Y-82783319D01*
X153934873Y-82865388D01*
X153975783Y-82951884D01*
X154008017Y-83041972D01*
X154031266Y-83134787D01*
X154045305Y-83229433D01*
X154050000Y-83325000D01*
X154050000Y-85275000D01*
X154045305Y-85370567D01*
X154031266Y-85465213D01*
X154008017Y-85558028D01*
X153975783Y-85648116D01*
X153934873Y-85734612D01*
X153885683Y-85816681D01*
X153828685Y-85893533D01*
X153764429Y-85964429D01*
X153693533Y-86028685D01*
X153616681Y-86085683D01*
X153534612Y-86134873D01*
X153448116Y-86175783D01*
X153358028Y-86208017D01*
X153265213Y-86231266D01*
X153170567Y-86245305D01*
X153075000Y-86250000D01*
X151125000Y-86250000D01*
X151029433Y-86245305D01*
X150934787Y-86231266D01*
X150841972Y-86208017D01*
X150751884Y-86175783D01*
X150665388Y-86134873D01*
X150583319Y-86085683D01*
X150506467Y-86028685D01*
X150435571Y-85964429D01*
X150371315Y-85893533D01*
X150314317Y-85816681D01*
X150265127Y-85734612D01*
X150224217Y-85648116D01*
X150191983Y-85558028D01*
X150168734Y-85465213D01*
X150154695Y-85370567D01*
X150150000Y-85275000D01*
X150150000Y-83325000D01*
X150154695Y-83229433D01*
X150168734Y-83134787D01*
X150191983Y-83041972D01*
X150224217Y-82951884D01*
X150265127Y-82865388D01*
X150314317Y-82783319D01*
X150371315Y-82706467D01*
X150435571Y-82635571D01*
X150506467Y-82571315D01*
X150583319Y-82514317D01*
X150665388Y-82465127D01*
X150751884Y-82424217D01*
X150841972Y-82391983D01*
X150934787Y-82368734D01*
X151029433Y-82354695D01*
X151125000Y-82350000D01*
X153075000Y-82350000D01*
X153170567Y-82354695D01*
X153170567Y-82354695D01*
G37*
D11*
X152100000Y-84300000D03*
D10*
G36*
X158283315Y-79054093D02*
X158365827Y-79066333D01*
X158446742Y-79086601D01*
X158525281Y-79114702D01*
X158600687Y-79150367D01*
X158672235Y-79193251D01*
X158739234Y-79242941D01*
X158801041Y-79298959D01*
X158857059Y-79360766D01*
X158906749Y-79427765D01*
X158949633Y-79499313D01*
X158985298Y-79574719D01*
X159013399Y-79653258D01*
X159033667Y-79734173D01*
X159045907Y-79816685D01*
X159050000Y-79900000D01*
X159050000Y-81600000D01*
X159045907Y-81683315D01*
X159033667Y-81765827D01*
X159013399Y-81846742D01*
X158985298Y-81925281D01*
X158949633Y-82000687D01*
X158906749Y-82072235D01*
X158857059Y-82139234D01*
X158801041Y-82201041D01*
X158739234Y-82257059D01*
X158672235Y-82306749D01*
X158600687Y-82349633D01*
X158525281Y-82385298D01*
X158446742Y-82413399D01*
X158365827Y-82433667D01*
X158283315Y-82445907D01*
X158200000Y-82450000D01*
X156000000Y-82450000D01*
X155916685Y-82445907D01*
X155834173Y-82433667D01*
X155753258Y-82413399D01*
X155674719Y-82385298D01*
X155599313Y-82349633D01*
X155527765Y-82306749D01*
X155460766Y-82257059D01*
X155398959Y-82201041D01*
X155342941Y-82139234D01*
X155293251Y-82072235D01*
X155250367Y-82000687D01*
X155214702Y-81925281D01*
X155186601Y-81846742D01*
X155166333Y-81765827D01*
X155154093Y-81683315D01*
X155150000Y-81600000D01*
X155150000Y-79900000D01*
X155154093Y-79816685D01*
X155166333Y-79734173D01*
X155186601Y-79653258D01*
X155214702Y-79574719D01*
X155250367Y-79499313D01*
X155293251Y-79427765D01*
X155342941Y-79360766D01*
X155398959Y-79298959D01*
X155460766Y-79242941D01*
X155527765Y-79193251D01*
X155599313Y-79150367D01*
X155674719Y-79114702D01*
X155753258Y-79086601D01*
X155834173Y-79066333D01*
X155916685Y-79054093D01*
X156000000Y-79050000D01*
X158200000Y-79050000D01*
X158283315Y-79054093D01*
X158283315Y-79054093D01*
G37*
D12*
X157100000Y-80750000D03*
D13*
X157100000Y-87350000D03*
D14*
X157100000Y-76950000D03*
G04 #@! TD*
D15*
G04 #@! TO.C,*
X146960000Y-143480000D03*
X144460000Y-143480000D03*
X141960000Y-143480000D03*
G04 #@! TD*
D16*
G04 #@! TO.C,*
X100000000Y-150000000D03*
G04 #@! TD*
G04 #@! TO.C,*
X100000000Y-75000000D03*
G04 #@! TD*
D17*
G04 #@! TO.C,*
X158475000Y-104025000D03*
X158475000Y-102025000D03*
X158475000Y-106025000D03*
G04 #@! TD*
D18*
G04 #@! TO.C,*
X137800000Y-124950000D03*
D19*
X125100000Y-124950000D03*
G04 #@! TD*
D20*
G04 #@! TO.C,*
X117460000Y-137930000D03*
X120000000Y-137930000D03*
X122540000Y-137930000D03*
X117460000Y-140470000D03*
X120000000Y-140470000D03*
X122540000Y-140470000D03*
D21*
X117300000Y-145550000D03*
X122700000Y-145550000D03*
G04 #@! TD*
D22*
G04 #@! TO.C,*
X130200000Y-146050000D03*
D23*
X130200000Y-142550000D03*
G04 #@! TD*
D24*
G04 #@! TO.C,*
X145500000Y-107080000D03*
D25*
X145500000Y-102000000D03*
G04 #@! TD*
D24*
G04 #@! TO.C,*
X149000000Y-107080000D03*
D25*
X149000000Y-102000000D03*
G04 #@! TD*
D24*
G04 #@! TO.C,*
X152500000Y-107080000D03*
D25*
X152500000Y-102000000D03*
G04 #@! TD*
D24*
G04 #@! TO.C,*
X149000000Y-113120000D03*
D25*
X149000000Y-118200000D03*
G04 #@! TD*
D24*
G04 #@! TO.C,*
X145500000Y-113120000D03*
D25*
X145500000Y-118200000D03*
G04 #@! TD*
D23*
G04 #@! TO.C,*
X128500000Y-134250000D03*
D22*
X132000000Y-134250000D03*
G04 #@! TD*
D24*
G04 #@! TO.C,*
X153400000Y-140845000D03*
D25*
X153400000Y-145925000D03*
G04 #@! TD*
D26*
G04 #@! TO.C,*
X119000000Y-95000000D03*
G04 #@! TD*
G04 #@! TO.C,*
X119000000Y-125000000D03*
G04 #@! TD*
D27*
G04 #@! TO.C,*
X157925000Y-142425000D03*
X157925000Y-145925000D03*
G04 #@! TD*
G04 #@! TO.C,*
X157900000Y-136950000D03*
X157900000Y-133450000D03*
G04 #@! TD*
D28*
G04 #@! TO.C,*
X108111600Y-95247780D03*
X108111600Y-85049680D03*
D29*
X112376260Y-90150000D03*
X112376260Y-92649360D03*
G04 #@! TD*
D22*
G04 #@! TO.C,*
X139700000Y-102500000D03*
D30*
X106680000Y-117740000D03*
X137160000Y-102500000D03*
X109220000Y-117740000D03*
X134620000Y-102500000D03*
X111760000Y-117740000D03*
X132080000Y-102500000D03*
X114300000Y-117740000D03*
X129540000Y-102500000D03*
X116840000Y-117740000D03*
X127000000Y-102500000D03*
X119380000Y-117740000D03*
X124460000Y-102500000D03*
X121920000Y-117740000D03*
X121920000Y-102500000D03*
X124460000Y-117740000D03*
X119380000Y-102500000D03*
X127000000Y-117740000D03*
X116840000Y-102500000D03*
X129540000Y-117740000D03*
X114300000Y-102500000D03*
X132080000Y-117740000D03*
X111760000Y-102500000D03*
X134620000Y-117740000D03*
X109220000Y-102500000D03*
X137160000Y-117740000D03*
X106680000Y-102500000D03*
X139700000Y-117740000D03*
X104140000Y-102500000D03*
X104140000Y-117740000D03*
D31*
X142240000Y-102500000D03*
X142240000Y-117740000D03*
X101600000Y-117740000D03*
X101600000Y-102500000D03*
G04 #@! TD*
D22*
G04 #@! TO.C,*
X152800000Y-111750000D03*
D30*
X152800000Y-119370000D03*
G04 #@! TD*
D32*
G04 #@! TO.C,*
X158475000Y-111350000D03*
D33*
X158475000Y-126590000D03*
G04 #@! TD*
D26*
G04 #@! TO.C,*
X152000000Y-95000000D03*
G04 #@! TD*
D34*
G04 #@! TO.C,*
X146175000Y-124950000D03*
X142175000Y-124950000D03*
G04 #@! TD*
D35*
G04 #@! TO.C,*
X112400000Y-141150000D03*
D36*
X110700000Y-144850000D03*
X109000000Y-141150000D03*
X107300000Y-144850000D03*
X105600000Y-141150000D03*
G04 #@! TD*
D26*
G04 #@! TO.C,*
X152000000Y-125000000D03*
G04 #@! TD*
D29*
G04 #@! TO.C,*
X112301260Y-132499360D03*
X112301260Y-130000000D03*
D28*
X108036600Y-124899680D03*
X108036600Y-135097780D03*
G04 #@! TD*
M02*
