M48
;DRILL file {KiCad (5.0.0)} date 12/21/18 15:57:06
;FORMAT={-:-/ absolute / metric / decimal}
FMAT,2
METRIC,TZ
T1C0.400
T2C0.550
T3C0.800
T4C1.000
T5C1.001
T6C1.050
T7C1.100
T8C1.300
T9C1.600
T10C1.850
T11C2.200
T12C2.400
%
G90
G05
M71
T1
X114.Y-120.7
X127.75Y-119.49
X138.75Y-131.45
X138.75Y-135.7
T3
X135.82Y-135.45
X148.Y-135.45
X101.64Y-100.
X101.64Y-115.24
X104.18Y-100.
X104.18Y-115.24
X106.72Y-100.
X106.72Y-115.24
X109.26Y-100.
X109.26Y-115.24
X111.8Y-100.
X111.8Y-115.24
X114.34Y-100.
X114.34Y-115.24
X116.88Y-100.
X116.88Y-115.24
X119.42Y-100.
X119.42Y-115.24
X121.96Y-100.
X121.96Y-115.24
X124.5Y-100.
X124.5Y-115.24
X127.04Y-100.
X127.04Y-115.24
X129.58Y-100.
X129.58Y-115.24
X132.12Y-100.
X132.12Y-115.24
X134.66Y-100.
X134.66Y-115.24
X137.2Y-100.
X137.2Y-115.24
X135.82Y-130.95
X148.Y-130.95
X144.75Y-99.95
X144.75Y-102.49
X144.75Y-105.03
X130.2Y-142.55
X130.2Y-146.05
X136.5Y-90.95
X148.68Y-90.95
X136.5Y-95.95
X148.68Y-95.95
X121.25Y-90.95
X133.43Y-90.95
X121.32Y-95.95
X133.5Y-95.95
X130.Y-131.45
X130.Y-134.95
X145.5Y-108.7
X145.5Y-116.32
T4
X154.5Y-81.7
X154.5Y-84.2
X154.5Y-86.7
X140.26Y-143.48
X142.76Y-143.48
X145.26Y-143.48
X105.6Y-141.15
X107.3Y-144.85
X109.Y-141.15
X110.7Y-144.85
X112.4Y-141.15
X142.175Y-122.95
X146.175Y-122.95
T5
X112.376Y-85.
X112.376Y-87.499
X112.301Y-130.
X112.301Y-132.499
T6
X154.5Y-131.95
X154.5Y-134.45
X154.5Y-141.7
X154.5Y-144.2
T8
X153.34Y-100.63
X153.34Y-115.87
T9
X125.1Y-122.95
X137.8Y-122.95
T10
X117.3Y-145.55
X122.7Y-145.55
T11
X108.112Y-79.9
X108.112Y-90.098
X108.037Y-124.9
X108.037Y-135.098
T12
X152.5Y-65.05
T2
X117.46Y-137.43G85X117.46Y-138.43
G05
X117.46Y-139.97G85X117.46Y-140.97
G05
X120.Y-137.43G85X120.Y-138.43
G05
X120.Y-139.97G85X120.Y-140.97
G05
X122.54Y-137.43G85X122.54Y-138.43
G05
X122.54Y-139.97G85X122.54Y-140.97
G05
T7
X147.5Y-71.3G85X147.5Y-73.5
G05
X153.6Y-68.85G85X151.4Y-68.85
G05
X153.6Y-75.45G85X151.4Y-75.45
G05
T0
M30
