G04 #@! TF.GenerationSoftware,KiCad,Pcbnew,6.0.7-f9a2dced07~116~ubuntu20.04.1*
G04 #@! TF.CreationDate,2022-10-13T01:02:24+01:00*
G04 #@! TF.ProjectId,OpenSpritzer_1.4,4f70656e-5370-4726-9974-7a65725f312e,rev?*
G04 #@! TF.SameCoordinates,Original*
G04 #@! TF.FileFunction,Copper,L1,Top*
G04 #@! TF.FilePolarity,Positive*
%FSLAX46Y46*%
G04 Gerber Fmt 4.6, Leading zero omitted, Abs format (unit mm)*
G04 Created by KiCad (PCBNEW 6.0.7-f9a2dced07~116~ubuntu20.04.1) date 2022-10-13 01:02:24*
%MOMM*%
%LPD*%
G01*
G04 APERTURE LIST*
G04 Aperture macros list*
%AMRoundRect*
0 Rectangle with rounded corners*
0 $1 Rounding radius*
0 $2 $3 $4 $5 $6 $7 $8 $9 X,Y pos of 4 corners*
0 Add a 4 corners polygon primitive as box body*
4,1,4,$2,$3,$4,$5,$6,$7,$8,$9,$2,$3,0*
0 Add four circle primitives for the rounded corners*
1,1,$1+$1,$2,$3*
1,1,$1+$1,$4,$5*
1,1,$1+$1,$6,$7*
1,1,$1+$1,$8,$9*
0 Add four rect primitives between the rounded corners*
20,1,$1+$1,$2,$3,$4,$5,0*
20,1,$1+$1,$4,$5,$6,$7,0*
20,1,$1+$1,$6,$7,$8,$9,0*
20,1,$1+$1,$8,$9,$2,$3,0*%
G04 Aperture macros list end*
G04 #@! TA.AperFunction,ComponentPad*
%ADD10R,1.600000X1.600000*%
G04 #@! TD*
G04 #@! TA.AperFunction,ComponentPad*
%ADD11O,1.600000X1.600000*%
G04 #@! TD*
G04 #@! TA.AperFunction,ComponentPad*
%ADD12O,2.500000X1.600000*%
G04 #@! TD*
G04 #@! TA.AperFunction,ComponentPad*
%ADD13O,7.000000X3.500000*%
G04 #@! TD*
G04 #@! TA.AperFunction,ComponentPad*
%ADD14RoundRect,0.250000X0.600000X0.750000X-0.600000X0.750000X-0.600000X-0.750000X0.600000X-0.750000X0*%
G04 #@! TD*
G04 #@! TA.AperFunction,ComponentPad*
%ADD15O,1.700000X2.000000*%
G04 #@! TD*
G04 #@! TA.AperFunction,ComponentPad*
%ADD16C,2.400000*%
G04 #@! TD*
G04 #@! TA.AperFunction,ComponentPad*
%ADD17O,2.400000X2.400000*%
G04 #@! TD*
G04 #@! TA.AperFunction,ComponentPad*
%ADD18C,1.600000*%
G04 #@! TD*
G04 #@! TA.AperFunction,ComponentPad*
%ADD19RoundRect,0.400000X-0.400000X-0.400000X0.400000X-0.400000X0.400000X0.400000X-0.400000X0.400000X0*%
G04 #@! TD*
G04 #@! TA.AperFunction,ComponentPad*
%ADD20R,3.200000X3.200000*%
G04 #@! TD*
G04 #@! TA.AperFunction,ComponentPad*
%ADD21O,3.200000X3.200000*%
G04 #@! TD*
G04 #@! TA.AperFunction,ComponentPad*
%ADD22C,2.000000*%
G04 #@! TD*
G04 #@! TA.AperFunction,ComponentPad*
%ADD23R,1.800000X1.800000*%
G04 #@! TD*
G04 #@! TA.AperFunction,ComponentPad*
%ADD24O,1.800000X1.800000*%
G04 #@! TD*
G04 #@! TA.AperFunction,ComponentPad*
%ADD25R,2.000000X4.600000*%
G04 #@! TD*
G04 #@! TA.AperFunction,ComponentPad*
%ADD26O,2.000000X4.200000*%
G04 #@! TD*
G04 #@! TA.AperFunction,ComponentPad*
%ADD27O,4.200000X2.000000*%
G04 #@! TD*
G04 #@! TA.AperFunction,ComponentPad*
%ADD28C,1.800000*%
G04 #@! TD*
G04 #@! TA.AperFunction,ComponentPad*
%ADD29R,1.500000X1.500000*%
G04 #@! TD*
G04 #@! TA.AperFunction,ComponentPad*
%ADD30C,1.500000*%
G04 #@! TD*
G04 #@! TA.AperFunction,ComponentPad*
%ADD31RoundRect,0.250000X0.600000X0.725000X-0.600000X0.725000X-0.600000X-0.725000X0.600000X-0.725000X0*%
G04 #@! TD*
G04 #@! TA.AperFunction,ComponentPad*
%ADD32O,1.700000X1.950000*%
G04 #@! TD*
G04 #@! TA.AperFunction,ComponentPad*
%ADD33R,2.400000X2.400000*%
G04 #@! TD*
G04 #@! TA.AperFunction,Conductor*
%ADD34C,0.500000*%
G04 #@! TD*
G04 APERTURE END LIST*
D10*
X135550000Y-113090000D03*
D11*
X133010000Y-113090000D03*
X130470000Y-113090000D03*
X127930000Y-113090000D03*
X125390000Y-113090000D03*
X122850000Y-113090000D03*
X120310000Y-113090000D03*
X117770000Y-113090000D03*
X115230000Y-113090000D03*
X112690000Y-113090000D03*
X110150000Y-113090000D03*
X107610000Y-113090000D03*
X105070000Y-113090000D03*
X102530000Y-113090000D03*
X99990000Y-113090000D03*
X99990000Y-128330000D03*
X102530000Y-128330000D03*
X105070000Y-128330000D03*
X107610000Y-128330000D03*
X110150000Y-128330000D03*
X112690000Y-128330000D03*
X115230000Y-128330000D03*
X117770000Y-128330000D03*
X120310000Y-128330000D03*
X122850000Y-128330000D03*
X125390000Y-128330000D03*
X127930000Y-128330000D03*
X130470000Y-128330000D03*
X133010000Y-128330000D03*
X135550000Y-128330000D03*
D10*
X119825000Y-93450000D03*
D11*
X112205000Y-93450000D03*
D12*
X108550000Y-157150000D03*
X108550000Y-159690000D03*
D13*
X103470000Y-162230000D03*
X103470000Y-152070000D03*
D14*
X136050000Y-92475000D03*
D15*
X133550000Y-92475000D03*
D16*
X114600000Y-153170000D03*
D17*
X114600000Y-137930000D03*
D16*
X106380000Y-107700000D03*
D17*
X121620000Y-107700000D03*
D16*
X120380000Y-151950000D03*
D17*
X135620000Y-151950000D03*
D16*
X125630000Y-107700000D03*
D17*
X140870000Y-107700000D03*
D16*
X120380000Y-157950000D03*
D17*
X135620000Y-157950000D03*
D16*
X140870000Y-101950000D03*
D17*
X125630000Y-101950000D03*
D18*
X98740000Y-95240000D03*
X98740000Y-90160000D03*
D19*
X106360000Y-95240000D03*
D18*
X106360000Y-92700000D03*
X106360000Y-90160000D03*
X103820000Y-95240000D03*
X103820000Y-92700000D03*
X103820000Y-90160000D03*
D20*
X146500000Y-128870000D03*
D21*
X146500000Y-113630000D03*
D22*
X139700000Y-154750000D03*
X143700000Y-154750000D03*
D23*
X144350000Y-134950000D03*
D24*
X148050000Y-136650000D03*
X144350000Y-138350000D03*
X148050000Y-140050000D03*
X144350000Y-141750000D03*
D12*
X108800000Y-139700000D03*
D13*
X103720000Y-134620000D03*
D12*
X108800000Y-142240000D03*
D13*
X103720000Y-144780000D03*
D25*
X145050000Y-83400000D03*
D26*
X151350000Y-83400000D03*
D27*
X147950000Y-78600000D03*
D23*
X101975000Y-106425000D03*
D28*
X101975000Y-108965000D03*
D10*
X145147349Y-105150000D03*
D18*
X148647349Y-105150000D03*
D29*
X137150000Y-82300000D03*
D30*
X134610000Y-84840000D03*
X132070000Y-82300000D03*
D18*
X98740000Y-80660000D03*
X98740000Y-85740000D03*
D19*
X106360000Y-85740000D03*
D18*
X106360000Y-83200000D03*
X106360000Y-80660000D03*
X103820000Y-85740000D03*
X103820000Y-83200000D03*
X103820000Y-80660000D03*
D31*
X127000000Y-135325000D03*
D32*
X124500000Y-135325000D03*
X122000000Y-135325000D03*
X119500000Y-135325000D03*
D33*
X125800000Y-96570000D03*
D17*
X125800000Y-81330000D03*
D16*
X106380000Y-101700000D03*
D17*
X121620000Y-101700000D03*
D10*
X138600000Y-143367621D03*
D18*
X138600000Y-145867621D03*
D23*
X101975000Y-99425000D03*
D28*
X101975000Y-101965000D03*
D18*
X134100000Y-133950000D03*
X139100000Y-133950000D03*
D31*
X127250000Y-142825000D03*
D32*
X124750000Y-142825000D03*
X122250000Y-142825000D03*
D34*
X125390000Y-113090000D02*
X125390000Y-115340000D01*
X142000000Y-125950000D02*
X142000000Y-147950000D01*
X138000000Y-151950000D02*
X135620000Y-151950000D01*
X125390000Y-115340000D02*
X131000000Y-120950000D01*
X131000000Y-120950000D02*
X137000000Y-120950000D01*
X137000000Y-120950000D02*
X142000000Y-125950000D01*
X142000000Y-147950000D02*
X138000000Y-151950000D01*
X132070000Y-82300000D02*
X132070000Y-90995000D01*
X132070000Y-90995000D02*
X133550000Y-92475000D01*
X119000000Y-157950000D02*
X117260000Y-159690000D01*
X117260000Y-159690000D02*
X108550000Y-159690000D01*
X120380000Y-157950000D02*
X119000000Y-157950000D01*
X125630000Y-101950000D02*
X131630000Y-95950000D01*
X131630000Y-95950000D02*
X138000000Y-95950000D01*
X140000000Y-90230000D02*
X134610000Y-84840000D01*
X140000000Y-93950000D02*
X140000000Y-90230000D01*
X138000000Y-95950000D02*
X140000000Y-93950000D01*
X109110000Y-92700000D02*
X106360000Y-92700000D01*
X109110000Y-92700000D02*
X121620000Y-105210000D01*
X121620000Y-105210000D02*
X121620000Y-107700000D01*
X122250000Y-135575000D02*
X122000000Y-135325000D01*
X122000000Y-135325000D02*
X122000000Y-134260000D01*
X122000000Y-134260000D02*
X127930000Y-128330000D01*
X122250000Y-142825000D02*
X122250000Y-135575000D01*
X120000000Y-88950000D02*
X113000000Y-88950000D01*
X113000000Y-88950000D02*
X107000000Y-82950000D01*
X99990000Y-90960000D02*
X99990000Y-99980000D01*
X99990000Y-99980000D02*
X101975000Y-101965000D01*
X106610000Y-82950000D02*
X106360000Y-83200000D01*
X125800000Y-94750000D02*
X120000000Y-88950000D01*
X108000000Y-87950000D02*
X103000000Y-87950000D01*
X107000000Y-82950000D02*
X106610000Y-82950000D01*
X125800000Y-96570000D02*
X125800000Y-94750000D01*
X113000000Y-88950000D02*
X109000000Y-88950000D01*
X109000000Y-88950000D02*
X108000000Y-87950000D01*
X103000000Y-87950000D02*
X99990000Y-90960000D01*
M02*
