G04 #@! TF.GenerationSoftware,KiCad,Pcbnew,6.0.7-f9a2dced07~116~ubuntu20.04.1*
G04 #@! TF.CreationDate,2022-10-13T01:02:26+01:00*
G04 #@! TF.ProjectId,OpenSpritzer_1.4,4f70656e-5370-4726-9974-7a65725f312e,rev?*
G04 #@! TF.SameCoordinates,Original*
G04 #@! TF.FileFunction,Soldermask,Bot*
G04 #@! TF.FilePolarity,Negative*
%FSLAX46Y46*%
G04 Gerber Fmt 4.6, Leading zero omitted, Abs format (unit mm)*
G04 Created by KiCad (PCBNEW 6.0.7-f9a2dced07~116~ubuntu20.04.1) date 2022-10-13 01:02:26*
%MOMM*%
%LPD*%
G01*
G04 APERTURE LIST*
G04 Aperture macros list*
%AMRoundRect*
0 Rectangle with rounded corners*
0 $1 Rounding radius*
0 $2 $3 $4 $5 $6 $7 $8 $9 X,Y pos of 4 corners*
0 Add a 4 corners polygon primitive as box body*
4,1,4,$2,$3,$4,$5,$6,$7,$8,$9,$2,$3,0*
0 Add four circle primitives for the rounded corners*
1,1,$1+$1,$2,$3*
1,1,$1+$1,$4,$5*
1,1,$1+$1,$6,$7*
1,1,$1+$1,$8,$9*
0 Add four rect primitives between the rounded corners*
20,1,$1+$1,$2,$3,$4,$5,0*
20,1,$1+$1,$4,$5,$6,$7,0*
20,1,$1+$1,$6,$7,$8,$9,0*
20,1,$1+$1,$8,$9,$2,$3,0*%
G04 Aperture macros list end*
%ADD10RoundRect,0.200000X-0.800000X0.800000X-0.800000X-0.800000X0.800000X-0.800000X0.800000X0.800000X0*%
%ADD11O,2.000000X2.000000*%
%ADD12RoundRect,0.200000X0.800000X0.800000X-0.800000X0.800000X-0.800000X-0.800000X0.800000X-0.800000X0*%
%ADD13O,2.900000X2.000000*%
%ADD14O,7.400000X3.900000*%
%ADD15RoundRect,0.450000X0.600000X0.750000X-0.600000X0.750000X-0.600000X-0.750000X0.600000X-0.750000X0*%
%ADD16O,2.100000X2.400000*%
%ADD17C,2.800000*%
%ADD18O,2.800000X2.800000*%
%ADD19C,2.000000*%
%ADD20RoundRect,0.600000X-0.400000X-0.400000X0.400000X-0.400000X0.400000X0.400000X-0.400000X0.400000X0*%
%ADD21RoundRect,0.200000X1.600000X-1.600000X1.600000X1.600000X-1.600000X1.600000X-1.600000X-1.600000X0*%
%ADD22O,3.600000X3.600000*%
%ADD23C,2.400000*%
%ADD24RoundRect,0.200000X-0.900000X0.900000X-0.900000X-0.900000X0.900000X-0.900000X0.900000X0.900000X0*%
%ADD25O,2.200000X2.200000*%
%ADD26RoundRect,0.200000X1.000000X-2.300000X1.000000X2.300000X-1.000000X2.300000X-1.000000X-2.300000X0*%
%ADD27O,2.400000X4.600000*%
%ADD28O,4.600000X2.400000*%
%ADD29C,3.600000*%
%ADD30C,2.200000*%
%ADD31RoundRect,0.200000X-0.800000X-0.800000X0.800000X-0.800000X0.800000X0.800000X-0.800000X0.800000X0*%
%ADD32RoundRect,0.200000X0.750000X0.750000X-0.750000X0.750000X-0.750000X-0.750000X0.750000X-0.750000X0*%
%ADD33C,1.900000*%
%ADD34RoundRect,0.450000X0.600000X0.725000X-0.600000X0.725000X-0.600000X-0.725000X0.600000X-0.725000X0*%
%ADD35O,2.100000X2.350000*%
%ADD36RoundRect,0.200000X1.200000X-1.200000X1.200000X1.200000X-1.200000X1.200000X-1.200000X-1.200000X0*%
G04 APERTURE END LIST*
D10*
X135550000Y-113090000D03*
D11*
X133010000Y-113090000D03*
X130470000Y-113090000D03*
X127930000Y-113090000D03*
X125390000Y-113090000D03*
X122850000Y-113090000D03*
X120310000Y-113090000D03*
X117770000Y-113090000D03*
X115230000Y-113090000D03*
X112690000Y-113090000D03*
X110150000Y-113090000D03*
X107610000Y-113090000D03*
X105070000Y-113090000D03*
X102530000Y-113090000D03*
X99990000Y-113090000D03*
X99990000Y-128330000D03*
X102530000Y-128330000D03*
X105070000Y-128330000D03*
X107610000Y-128330000D03*
X110150000Y-128330000D03*
X112690000Y-128330000D03*
X115230000Y-128330000D03*
X117770000Y-128330000D03*
X120310000Y-128330000D03*
X122850000Y-128330000D03*
X125390000Y-128330000D03*
X127930000Y-128330000D03*
X130470000Y-128330000D03*
X133010000Y-128330000D03*
X135550000Y-128330000D03*
D12*
X119825000Y-93450000D03*
D11*
X112205000Y-93450000D03*
D13*
X108550000Y-157150000D03*
X108550000Y-159690000D03*
D14*
X103470000Y-162230000D03*
X103470000Y-152070000D03*
D15*
X136050000Y-92475000D03*
D16*
X133550000Y-92475000D03*
D17*
X114600000Y-153170000D03*
D18*
X114600000Y-137930000D03*
D17*
X106380000Y-107700000D03*
D18*
X121620000Y-107700000D03*
D17*
X120380000Y-151950000D03*
D18*
X135620000Y-151950000D03*
D17*
X125630000Y-107700000D03*
D18*
X140870000Y-107700000D03*
D17*
X120380000Y-157950000D03*
D18*
X135620000Y-157950000D03*
D17*
X140870000Y-101950000D03*
D18*
X125630000Y-101950000D03*
D19*
X98740000Y-95240000D03*
X98740000Y-90160000D03*
D20*
X106360000Y-95240000D03*
D19*
X106360000Y-92700000D03*
X106360000Y-90160000D03*
X103820000Y-95240000D03*
X103820000Y-92700000D03*
X103820000Y-90160000D03*
D21*
X146500000Y-128870000D03*
D22*
X146500000Y-113630000D03*
D23*
X139700000Y-154750000D03*
X143700000Y-154750000D03*
D24*
X144350000Y-134950000D03*
D25*
X148050000Y-136650000D03*
X144350000Y-138350000D03*
X148050000Y-140050000D03*
X144350000Y-141750000D03*
D13*
X108800000Y-139700000D03*
D14*
X103720000Y-134620000D03*
D13*
X108800000Y-142240000D03*
D14*
X103720000Y-144780000D03*
D26*
X145050000Y-83400000D03*
D27*
X151350000Y-83400000D03*
D28*
X147950000Y-78600000D03*
D29*
X115000000Y-162950000D03*
D24*
X101975000Y-106425000D03*
D30*
X101975000Y-108965000D03*
D31*
X145147349Y-105150000D03*
D19*
X148647349Y-105150000D03*
D32*
X137150000Y-82300000D03*
D33*
X134610000Y-84840000D03*
X132070000Y-82300000D03*
D19*
X98740000Y-80660000D03*
X98740000Y-85740000D03*
D20*
X106360000Y-85740000D03*
D19*
X106360000Y-83200000D03*
X106360000Y-80660000D03*
X103820000Y-85740000D03*
X103820000Y-83200000D03*
X103820000Y-80660000D03*
D34*
X127000000Y-135325000D03*
D35*
X124500000Y-135325000D03*
X122000000Y-135325000D03*
X119500000Y-135325000D03*
D36*
X125800000Y-96570000D03*
D18*
X125800000Y-81330000D03*
D17*
X106380000Y-101700000D03*
D18*
X121620000Y-101700000D03*
D10*
X138600000Y-143367621D03*
D19*
X138600000Y-145867621D03*
D29*
X150000000Y-92950000D03*
X150000000Y-162950000D03*
X114000000Y-79950000D03*
D24*
X101975000Y-99425000D03*
D30*
X101975000Y-101965000D03*
D19*
X134100000Y-133950000D03*
X139100000Y-133950000D03*
D34*
X127250000Y-142825000D03*
D35*
X124750000Y-142825000D03*
X122250000Y-142825000D03*
M02*
