G04 #@! TF.GenerationSoftware,KiCad,Pcbnew,6.0.7-f9a2dced07~116~ubuntu20.04.1*
G04 #@! TF.CreationDate,2022-10-13T01:02:25+01:00*
G04 #@! TF.ProjectId,OpenSpritzer_1.4,4f70656e-5370-4726-9974-7a65725f312e,rev?*
G04 #@! TF.SameCoordinates,Original*
G04 #@! TF.FileFunction,Legend,Bot*
G04 #@! TF.FilePolarity,Positive*
%FSLAX46Y46*%
G04 Gerber Fmt 4.6, Leading zero omitted, Abs format (unit mm)*
G04 Created by KiCad (PCBNEW 6.0.7-f9a2dced07~116~ubuntu20.04.1) date 2022-10-13 01:02:25*
%MOMM*%
%LPD*%
G01*
G04 APERTURE LIST*
%ADD10C,0.125000*%
G04 APERTURE END LIST*
D10*
X105271726Y-122549761D02*
X105414583Y-122597380D01*
X105652678Y-122597380D01*
X105747916Y-122549761D01*
X105795535Y-122502142D01*
X105843154Y-122406904D01*
X105843154Y-122311666D01*
X105795535Y-122216428D01*
X105747916Y-122168809D01*
X105652678Y-122121190D01*
X105462202Y-122073571D01*
X105366964Y-122025952D01*
X105319345Y-121978333D01*
X105271726Y-121883095D01*
X105271726Y-121787857D01*
X105319345Y-121692619D01*
X105366964Y-121645000D01*
X105462202Y-121597380D01*
X105700297Y-121597380D01*
X105843154Y-121645000D01*
X106414583Y-122597380D02*
X106319345Y-122549761D01*
X106271726Y-122502142D01*
X106224107Y-122406904D01*
X106224107Y-122121190D01*
X106271726Y-122025952D01*
X106319345Y-121978333D01*
X106414583Y-121930714D01*
X106557440Y-121930714D01*
X106652678Y-121978333D01*
X106700297Y-122025952D01*
X106747916Y-122121190D01*
X106747916Y-122406904D01*
X106700297Y-122502142D01*
X106652678Y-122549761D01*
X106557440Y-122597380D01*
X106414583Y-122597380D01*
X107605059Y-121930714D02*
X107605059Y-122597380D01*
X107176488Y-121930714D02*
X107176488Y-122454523D01*
X107224107Y-122549761D01*
X107319345Y-122597380D01*
X107462202Y-122597380D01*
X107557440Y-122549761D01*
X107605059Y-122502142D01*
X108081250Y-122597380D02*
X108081250Y-121930714D01*
X108081250Y-122121190D02*
X108128869Y-122025952D01*
X108176488Y-121978333D01*
X108271726Y-121930714D01*
X108366964Y-121930714D01*
X109128869Y-122549761D02*
X109033630Y-122597380D01*
X108843154Y-122597380D01*
X108747916Y-122549761D01*
X108700297Y-122502142D01*
X108652678Y-122406904D01*
X108652678Y-122121190D01*
X108700297Y-122025952D01*
X108747916Y-121978333D01*
X108843154Y-121930714D01*
X109033630Y-121930714D01*
X109128869Y-121978333D01*
X109938392Y-122549761D02*
X109843154Y-122597380D01*
X109652678Y-122597380D01*
X109557440Y-122549761D01*
X109509821Y-122454523D01*
X109509821Y-122073571D01*
X109557440Y-121978333D01*
X109652678Y-121930714D01*
X109843154Y-121930714D01*
X109938392Y-121978333D01*
X109986011Y-122073571D01*
X109986011Y-122168809D01*
X109509821Y-122264047D01*
X110414583Y-122502142D02*
X110462202Y-122549761D01*
X110414583Y-122597380D01*
X110366964Y-122549761D01*
X110414583Y-122502142D01*
X110414583Y-122597380D01*
X110414583Y-121978333D02*
X110462202Y-122025952D01*
X110414583Y-122073571D01*
X110366964Y-122025952D01*
X110414583Y-121978333D01*
X110414583Y-122073571D01*
X105319345Y-124207380D02*
X105319345Y-123207380D01*
X105747916Y-124207380D02*
X105747916Y-123683571D01*
X105700297Y-123588333D01*
X105605059Y-123540714D01*
X105462202Y-123540714D01*
X105366964Y-123588333D01*
X105319345Y-123635952D01*
X106081250Y-123540714D02*
X106462202Y-123540714D01*
X106224107Y-123207380D02*
X106224107Y-124064523D01*
X106271726Y-124159761D01*
X106366964Y-124207380D01*
X106462202Y-124207380D01*
X106652678Y-123540714D02*
X107033630Y-123540714D01*
X106795535Y-123207380D02*
X106795535Y-124064523D01*
X106843154Y-124159761D01*
X106938392Y-124207380D01*
X107033630Y-124207380D01*
X107366964Y-123540714D02*
X107366964Y-124540714D01*
X107366964Y-123588333D02*
X107462202Y-123540714D01*
X107652678Y-123540714D01*
X107747916Y-123588333D01*
X107795535Y-123635952D01*
X107843154Y-123731190D01*
X107843154Y-124016904D01*
X107795535Y-124112142D01*
X107747916Y-124159761D01*
X107652678Y-124207380D01*
X107462202Y-124207380D01*
X107366964Y-124159761D01*
X108224107Y-124159761D02*
X108319345Y-124207380D01*
X108509821Y-124207380D01*
X108605059Y-124159761D01*
X108652678Y-124064523D01*
X108652678Y-124016904D01*
X108605059Y-123921666D01*
X108509821Y-123874047D01*
X108366964Y-123874047D01*
X108271726Y-123826428D01*
X108224107Y-123731190D01*
X108224107Y-123683571D01*
X108271726Y-123588333D01*
X108366964Y-123540714D01*
X108509821Y-123540714D01*
X108605059Y-123588333D01*
X109081250Y-124112142D02*
X109128869Y-124159761D01*
X109081250Y-124207380D01*
X109033630Y-124159761D01*
X109081250Y-124112142D01*
X109081250Y-124207380D01*
X109081250Y-123588333D02*
X109128869Y-123635952D01*
X109081250Y-123683571D01*
X109033630Y-123635952D01*
X109081250Y-123588333D01*
X109081250Y-123683571D01*
X110271726Y-123159761D02*
X109414583Y-124445476D01*
X111319345Y-123159761D02*
X110462202Y-124445476D01*
X112081250Y-123540714D02*
X112081250Y-124350238D01*
X112033630Y-124445476D01*
X111986011Y-124493095D01*
X111890773Y-124540714D01*
X111747916Y-124540714D01*
X111652678Y-124493095D01*
X112081250Y-124159761D02*
X111986011Y-124207380D01*
X111795535Y-124207380D01*
X111700297Y-124159761D01*
X111652678Y-124112142D01*
X111605059Y-124016904D01*
X111605059Y-123731190D01*
X111652678Y-123635952D01*
X111700297Y-123588333D01*
X111795535Y-123540714D01*
X111986011Y-123540714D01*
X112081250Y-123588333D01*
X112557440Y-124207380D02*
X112557440Y-123540714D01*
X112557440Y-123207380D02*
X112509821Y-123255000D01*
X112557440Y-123302619D01*
X112605059Y-123255000D01*
X112557440Y-123207380D01*
X112557440Y-123302619D01*
X112890773Y-123540714D02*
X113271726Y-123540714D01*
X113033630Y-123207380D02*
X113033630Y-124064523D01*
X113081250Y-124159761D01*
X113176488Y-124207380D01*
X113271726Y-124207380D01*
X113605059Y-124207380D02*
X113605059Y-123207380D01*
X114033630Y-124207380D02*
X114033630Y-123683571D01*
X113986011Y-123588333D01*
X113890773Y-123540714D01*
X113747916Y-123540714D01*
X113652678Y-123588333D01*
X113605059Y-123635952D01*
X114938392Y-123540714D02*
X114938392Y-124207380D01*
X114509821Y-123540714D02*
X114509821Y-124064523D01*
X114557440Y-124159761D01*
X114652678Y-124207380D01*
X114795535Y-124207380D01*
X114890773Y-124159761D01*
X114938392Y-124112142D01*
X115414583Y-124207380D02*
X115414583Y-123207380D01*
X115414583Y-123588333D02*
X115509821Y-123540714D01*
X115700297Y-123540714D01*
X115795535Y-123588333D01*
X115843154Y-123635952D01*
X115890773Y-123731190D01*
X115890773Y-124016904D01*
X115843154Y-124112142D01*
X115795535Y-124159761D01*
X115700297Y-124207380D01*
X115509821Y-124207380D01*
X115414583Y-124159761D01*
X116319345Y-124112142D02*
X116366964Y-124159761D01*
X116319345Y-124207380D01*
X116271726Y-124159761D01*
X116319345Y-124112142D01*
X116319345Y-124207380D01*
X117224107Y-124159761D02*
X117128869Y-124207380D01*
X116938392Y-124207380D01*
X116843154Y-124159761D01*
X116795535Y-124112142D01*
X116747916Y-124016904D01*
X116747916Y-123731190D01*
X116795535Y-123635952D01*
X116843154Y-123588333D01*
X116938392Y-123540714D01*
X117128869Y-123540714D01*
X117224107Y-123588333D01*
X117795535Y-124207380D02*
X117700297Y-124159761D01*
X117652678Y-124112142D01*
X117605059Y-124016904D01*
X117605059Y-123731190D01*
X117652678Y-123635952D01*
X117700297Y-123588333D01*
X117795535Y-123540714D01*
X117938392Y-123540714D01*
X118033630Y-123588333D01*
X118081250Y-123635952D01*
X118128869Y-123731190D01*
X118128869Y-124016904D01*
X118081250Y-124112142D01*
X118033630Y-124159761D01*
X117938392Y-124207380D01*
X117795535Y-124207380D01*
X118557440Y-124207380D02*
X118557440Y-123540714D01*
X118557440Y-123635952D02*
X118605059Y-123588333D01*
X118700297Y-123540714D01*
X118843154Y-123540714D01*
X118938392Y-123588333D01*
X118986011Y-123683571D01*
X118986011Y-124207380D01*
X118986011Y-123683571D02*
X119033630Y-123588333D01*
X119128869Y-123540714D01*
X119271726Y-123540714D01*
X119366964Y-123588333D01*
X119414583Y-123683571D01*
X119414583Y-124207380D01*
X120605059Y-123159761D02*
X119747916Y-124445476D01*
X121271726Y-123683571D02*
X121414583Y-123731190D01*
X121462202Y-123778809D01*
X121509821Y-123874047D01*
X121509821Y-124016904D01*
X121462202Y-124112142D01*
X121414583Y-124159761D01*
X121319345Y-124207380D01*
X120938392Y-124207380D01*
X120938392Y-123207380D01*
X121271726Y-123207380D01*
X121366964Y-123255000D01*
X121414583Y-123302619D01*
X121462202Y-123397857D01*
X121462202Y-123493095D01*
X121414583Y-123588333D01*
X121366964Y-123635952D01*
X121271726Y-123683571D01*
X120938392Y-123683571D01*
X122366964Y-124207380D02*
X122366964Y-123683571D01*
X122319345Y-123588333D01*
X122224107Y-123540714D01*
X122033630Y-123540714D01*
X121938392Y-123588333D01*
X122366964Y-124159761D02*
X122271726Y-124207380D01*
X122033630Y-124207380D01*
X121938392Y-124159761D01*
X121890773Y-124064523D01*
X121890773Y-123969285D01*
X121938392Y-123874047D01*
X122033630Y-123826428D01*
X122271726Y-123826428D01*
X122366964Y-123778809D01*
X123271726Y-124207380D02*
X123271726Y-123207380D01*
X123271726Y-124159761D02*
X123176488Y-124207380D01*
X122986011Y-124207380D01*
X122890773Y-124159761D01*
X122843154Y-124112142D01*
X122795535Y-124016904D01*
X122795535Y-123731190D01*
X122843154Y-123635952D01*
X122890773Y-123588333D01*
X122986011Y-123540714D01*
X123176488Y-123540714D01*
X123271726Y-123588333D01*
X124128869Y-124159761D02*
X124033630Y-124207380D01*
X123843154Y-124207380D01*
X123747916Y-124159761D01*
X123700297Y-124064523D01*
X123700297Y-123683571D01*
X123747916Y-123588333D01*
X123843154Y-123540714D01*
X124033630Y-123540714D01*
X124128869Y-123588333D01*
X124176488Y-123683571D01*
X124176488Y-123778809D01*
X123700297Y-123874047D01*
X124605059Y-123540714D02*
X124605059Y-124207380D01*
X124605059Y-123635952D02*
X124652678Y-123588333D01*
X124747916Y-123540714D01*
X124890773Y-123540714D01*
X124986011Y-123588333D01*
X125033630Y-123683571D01*
X125033630Y-124207380D01*
X125986011Y-124207380D02*
X125509821Y-124207380D01*
X125509821Y-123207380D01*
X126747916Y-124207380D02*
X126747916Y-123683571D01*
X126700297Y-123588333D01*
X126605059Y-123540714D01*
X126414583Y-123540714D01*
X126319345Y-123588333D01*
X126747916Y-124159761D02*
X126652678Y-124207380D01*
X126414583Y-124207380D01*
X126319345Y-124159761D01*
X126271726Y-124064523D01*
X126271726Y-123969285D01*
X126319345Y-123874047D01*
X126414583Y-123826428D01*
X126652678Y-123826428D01*
X126747916Y-123778809D01*
X127224107Y-124207380D02*
X127224107Y-123207380D01*
X127224107Y-123588333D02*
X127319345Y-123540714D01*
X127509821Y-123540714D01*
X127605059Y-123588333D01*
X127652678Y-123635952D01*
X127700297Y-123731190D01*
X127700297Y-124016904D01*
X127652678Y-124112142D01*
X127605059Y-124159761D01*
X127509821Y-124207380D01*
X127319345Y-124207380D01*
X127224107Y-124159761D01*
X128843154Y-123159761D02*
X127986011Y-124445476D01*
X129366964Y-123207380D02*
X129557440Y-123207380D01*
X129652678Y-123255000D01*
X129747916Y-123350238D01*
X129795535Y-123540714D01*
X129795535Y-123874047D01*
X129747916Y-124064523D01*
X129652678Y-124159761D01*
X129557440Y-124207380D01*
X129366964Y-124207380D01*
X129271726Y-124159761D01*
X129176488Y-124064523D01*
X129128869Y-123874047D01*
X129128869Y-123540714D01*
X129176488Y-123350238D01*
X129271726Y-123255000D01*
X129366964Y-123207380D01*
X130224107Y-123540714D02*
X130224107Y-124540714D01*
X130224107Y-123588333D02*
X130319345Y-123540714D01*
X130509821Y-123540714D01*
X130605059Y-123588333D01*
X130652678Y-123635952D01*
X130700297Y-123731190D01*
X130700297Y-124016904D01*
X130652678Y-124112142D01*
X130605059Y-124159761D01*
X130509821Y-124207380D01*
X130319345Y-124207380D01*
X130224107Y-124159761D01*
X131509821Y-124159761D02*
X131414583Y-124207380D01*
X131224107Y-124207380D01*
X131128869Y-124159761D01*
X131081250Y-124064523D01*
X131081250Y-123683571D01*
X131128869Y-123588333D01*
X131224107Y-123540714D01*
X131414583Y-123540714D01*
X131509821Y-123588333D01*
X131557440Y-123683571D01*
X131557440Y-123778809D01*
X131081250Y-123874047D01*
X131986011Y-123540714D02*
X131986011Y-124207380D01*
X131986011Y-123635952D02*
X132033630Y-123588333D01*
X132128869Y-123540714D01*
X132271726Y-123540714D01*
X132366964Y-123588333D01*
X132414583Y-123683571D01*
X132414583Y-124207380D01*
X132843154Y-124159761D02*
X132938392Y-124207380D01*
X133128869Y-124207380D01*
X133224107Y-124159761D01*
X133271726Y-124064523D01*
X133271726Y-124016904D01*
X133224107Y-123921666D01*
X133128869Y-123874047D01*
X132986011Y-123874047D01*
X132890773Y-123826428D01*
X132843154Y-123731190D01*
X132843154Y-123683571D01*
X132890773Y-123588333D01*
X132986011Y-123540714D01*
X133128869Y-123540714D01*
X133224107Y-123588333D01*
X133700297Y-123540714D02*
X133700297Y-124540714D01*
X133700297Y-123588333D02*
X133795535Y-123540714D01*
X133986011Y-123540714D01*
X134081250Y-123588333D01*
X134128869Y-123635952D01*
X134176488Y-123731190D01*
X134176488Y-124016904D01*
X134128869Y-124112142D01*
X134081250Y-124159761D01*
X133986011Y-124207380D01*
X133795535Y-124207380D01*
X133700297Y-124159761D01*
X134605059Y-124207380D02*
X134605059Y-123540714D01*
X134605059Y-123731190D02*
X134652678Y-123635952D01*
X134700297Y-123588333D01*
X134795535Y-123540714D01*
X134890773Y-123540714D01*
X135224107Y-124207380D02*
X135224107Y-123540714D01*
X135224107Y-123207380D02*
X135176488Y-123255000D01*
X135224107Y-123302619D01*
X135271726Y-123255000D01*
X135224107Y-123207380D01*
X135224107Y-123302619D01*
X135557440Y-123540714D02*
X135938392Y-123540714D01*
X135700297Y-123207380D02*
X135700297Y-124064523D01*
X135747916Y-124159761D01*
X135843154Y-124207380D01*
X135938392Y-124207380D01*
X136176488Y-123540714D02*
X136700297Y-123540714D01*
X136176488Y-124207380D01*
X136700297Y-124207380D01*
X137462202Y-124159761D02*
X137366964Y-124207380D01*
X137176488Y-124207380D01*
X137081250Y-124159761D01*
X137033630Y-124064523D01*
X137033630Y-123683571D01*
X137081250Y-123588333D01*
X137176488Y-123540714D01*
X137366964Y-123540714D01*
X137462202Y-123588333D01*
X137509821Y-123683571D01*
X137509821Y-123778809D01*
X137033630Y-123874047D01*
X137938392Y-124207380D02*
X137938392Y-123540714D01*
X137938392Y-123731190D02*
X137986011Y-123635952D01*
X138033630Y-123588333D01*
X138128869Y-123540714D01*
X138224107Y-123540714D01*
M02*
