G04 #@! TF.GenerationSoftware,KiCad,Pcbnew,6.0.7-f9a2dced07~116~ubuntu20.04.1*
G04 #@! TF.CreationDate,2022-10-13T01:02:27+01:00*
G04 #@! TF.ProjectId,OpenSpritzer_1.4,4f70656e-5370-4726-9974-7a65725f312e,rev?*
G04 #@! TF.SameCoordinates,Original*
G04 #@! TF.FileFunction,Other,User*
%FSLAX46Y46*%
G04 Gerber Fmt 4.6, Leading zero omitted, Abs format (unit mm)*
G04 Created by KiCad (PCBNEW 6.0.7-f9a2dced07~116~ubuntu20.04.1) date 2022-10-13 01:02:27*
%MOMM*%
%LPD*%
G01*
G04 APERTURE LIST*
%ADD10C,0.050000*%
G04 APERTURE END LIST*
D10*
X139610000Y-111560000D02*
X93390000Y-111560000D01*
X139610000Y-111560000D02*
X139610000Y-129840000D01*
X93390000Y-129840000D02*
X139610000Y-129840000D01*
X93390000Y-129840000D02*
X93390000Y-111560000D01*
X120875000Y-94800000D02*
X120875000Y-92100000D01*
X120875000Y-92100000D02*
X111125000Y-92100000D01*
X111125000Y-94800000D02*
X120875000Y-94800000D01*
X111125000Y-92100000D02*
X111125000Y-94800000D01*
X74750000Y-149300000D02*
X74750000Y-165000000D01*
X111250000Y-165000000D02*
X74750000Y-165000000D01*
X111250000Y-149300000D02*
X74750000Y-149300000D01*
X111250000Y-165000000D02*
X111250000Y-149300000D01*
X139000000Y-88575000D02*
X130600000Y-88575000D01*
X130600000Y-88575000D02*
X130600000Y-95325000D01*
X139000000Y-95325000D02*
X139000000Y-88575000D01*
X130600000Y-95325000D02*
X139000000Y-95325000D01*
X112100000Y-154620000D02*
X117100000Y-154620000D01*
X117100000Y-154620000D02*
X117100000Y-136480000D01*
X117100000Y-136480000D02*
X112100000Y-136480000D01*
X112100000Y-136480000D02*
X112100000Y-154620000D01*
X123070000Y-105200000D02*
X104930000Y-105200000D01*
X123070000Y-110200000D02*
X123070000Y-105200000D01*
X104930000Y-105200000D02*
X104930000Y-110200000D01*
X104930000Y-110200000D02*
X123070000Y-110200000D01*
X137070000Y-149450000D02*
X118930000Y-149450000D01*
X118930000Y-149450000D02*
X118930000Y-154450000D01*
X118930000Y-154450000D02*
X137070000Y-154450000D01*
X137070000Y-154450000D02*
X137070000Y-149450000D01*
X142320000Y-105200000D02*
X124180000Y-105200000D01*
X142320000Y-110200000D02*
X142320000Y-105200000D01*
X124180000Y-105200000D02*
X124180000Y-110200000D01*
X124180000Y-110200000D02*
X142320000Y-110200000D01*
X137070000Y-160450000D02*
X137070000Y-155450000D01*
X118930000Y-160450000D02*
X137070000Y-160450000D01*
X137070000Y-155450000D02*
X118930000Y-155450000D01*
X118930000Y-155450000D02*
X118930000Y-160450000D01*
X142320000Y-104450000D02*
X142320000Y-99450000D01*
X124180000Y-99450000D02*
X124180000Y-104450000D01*
X142320000Y-99450000D02*
X124180000Y-99450000D01*
X124180000Y-104450000D02*
X142320000Y-104450000D01*
X107410000Y-88950000D02*
X107410000Y-96450000D01*
X95890000Y-94080000D02*
X92590000Y-94080000D01*
X107410000Y-96450000D02*
X95890000Y-96450000D01*
X92590000Y-94080000D02*
X92590000Y-91320000D01*
X95890000Y-96450000D02*
X95890000Y-94080000D01*
X95890000Y-88950000D02*
X107410000Y-88950000D01*
X95890000Y-91320000D02*
X95890000Y-88950000D01*
X92590000Y-91320000D02*
X95890000Y-91320000D01*
X149350000Y-111780000D02*
X143650000Y-111780000D01*
X143650000Y-130720000D02*
X149350000Y-130720000D01*
X143650000Y-111780000D02*
X143650000Y-130720000D01*
X149350000Y-130720000D02*
X149350000Y-111780000D01*
X138350000Y-151400000D02*
X138350000Y-158100000D01*
X138350000Y-158100000D02*
X145050000Y-158100000D01*
X145050000Y-158100000D02*
X145050000Y-151400000D01*
X145050000Y-151400000D02*
X138350000Y-151400000D01*
X152800000Y-143600000D02*
X152800000Y-133100000D01*
X152800000Y-133100000D02*
X143200000Y-133100000D01*
X143200000Y-143600000D02*
X152800000Y-143600000D01*
X143200000Y-133100000D02*
X143200000Y-143600000D01*
X111500000Y-147550000D02*
X75000000Y-147550000D01*
X111500000Y-147550000D02*
X111500000Y-131850000D01*
X75000000Y-131850000D02*
X75000000Y-147550000D01*
X111500000Y-131850000D02*
X75000000Y-131850000D01*
X159250000Y-88400000D02*
X159250000Y-78400000D01*
X143550000Y-78400000D02*
X143550000Y-88400000D01*
X145350000Y-77100000D02*
X145350000Y-78400000D01*
X143550000Y-88400000D02*
X159250000Y-88400000D01*
X159250000Y-78400000D02*
X150550000Y-78400000D01*
X145350000Y-77100000D02*
X150550000Y-77100000D01*
X145350000Y-78400000D02*
X143550000Y-78400000D01*
X150550000Y-77100000D02*
X150550000Y-78400000D01*
X118050000Y-162950000D02*
G75*
G03*
X118050000Y-162950000I-3050000J0D01*
G01*
X103225000Y-104475000D02*
X91775000Y-104475000D01*
X103225000Y-110925000D02*
X103225000Y-104475000D01*
X91775000Y-104475000D02*
X91775000Y-110925000D01*
X91775000Y-110925000D02*
X103225000Y-110925000D01*
X151147349Y-105150000D02*
G75*
G03*
X151147349Y-105150000I-4250000J0D01*
G01*
X107410000Y-86950000D02*
X95890000Y-86950000D01*
X107410000Y-79450000D02*
X107410000Y-86950000D01*
X95890000Y-81820000D02*
X95890000Y-79450000D01*
X92590000Y-84580000D02*
X92590000Y-81820000D01*
X95890000Y-86950000D02*
X95890000Y-84580000D01*
X95890000Y-79450000D02*
X107410000Y-79450000D01*
X92590000Y-81820000D02*
X95890000Y-81820000D01*
X95890000Y-84580000D02*
X92590000Y-84580000D01*
X116550000Y-138175000D02*
X129950000Y-138175000D01*
X116550000Y-131425000D02*
X116550000Y-138175000D01*
X129950000Y-138175000D02*
X129950000Y-131425000D01*
X129950000Y-131425000D02*
X116550000Y-131425000D01*
X122880000Y-98020000D02*
X128720000Y-98020000D01*
X122880000Y-79880000D02*
X122880000Y-98020000D01*
X128720000Y-98020000D02*
X128720000Y-79880000D01*
X128720000Y-79880000D02*
X122880000Y-79880000D01*
X104930000Y-104200000D02*
X123070000Y-104200000D01*
X123070000Y-99200000D02*
X104930000Y-99200000D01*
X104930000Y-99200000D02*
X104930000Y-104200000D01*
X123070000Y-104200000D02*
X123070000Y-99200000D01*
X142000000Y-144617621D02*
G75*
G03*
X142000000Y-144617621I-3400000J0D01*
G01*
X153050000Y-92950000D02*
G75*
G03*
X153050000Y-92950000I-3050000J0D01*
G01*
X153050000Y-162950000D02*
G75*
G03*
X153050000Y-162950000I-3050000J0D01*
G01*
X117050000Y-79950000D02*
G75*
G03*
X117050000Y-79950000I-3050000J0D01*
G01*
X91775000Y-97475000D02*
X91775000Y-103925000D01*
X103225000Y-103925000D02*
X103225000Y-97475000D01*
X91775000Y-103925000D02*
X103225000Y-103925000D01*
X103225000Y-97475000D02*
X91775000Y-97475000D01*
X140600000Y-131500000D02*
X132600000Y-131500000D01*
X132600000Y-131500000D02*
X132600000Y-136400000D01*
X132600000Y-136400000D02*
X140600000Y-136400000D01*
X140600000Y-136400000D02*
X140600000Y-131500000D01*
X130200000Y-145675000D02*
X130200000Y-138925000D01*
X130200000Y-138925000D02*
X119300000Y-138925000D01*
X119300000Y-145675000D02*
X130200000Y-145675000D01*
X119300000Y-138925000D02*
X119300000Y-145675000D01*
M02*
