G04 #@! TF.GenerationSoftware,KiCad,Pcbnew,6.0.7-f9a2dced07~116~ubuntu20.04.1*
G04 #@! TF.CreationDate,2022-10-13T01:02:28+01:00*
G04 #@! TF.ProjectId,OpenSpritzer_1.4,4f70656e-5370-4726-9974-7a65725f312e,rev?*
G04 #@! TF.SameCoordinates,Original*
G04 #@! TF.FileFunction,AssemblyDrawing,Top*
%FSLAX46Y46*%
G04 Gerber Fmt 4.6, Leading zero omitted, Abs format (unit mm)*
G04 Created by KiCad (PCBNEW 6.0.7-f9a2dced07~116~ubuntu20.04.1) date 2022-10-13 01:02:28*
%MOMM*%
%LPD*%
G01*
G04 APERTURE LIST*
%ADD10C,0.150000*%
%ADD11C,0.100000*%
G04 APERTURE END LIST*
D10*
X109761904Y-122146666D02*
X110238095Y-122146666D01*
X109666666Y-122432380D02*
X110000000Y-121432380D01*
X110333333Y-122432380D01*
X110666666Y-122432380D02*
X110666666Y-121765714D01*
X110666666Y-121956190D02*
X110714285Y-121860952D01*
X110761904Y-121813333D01*
X110857142Y-121765714D01*
X110952380Y-121765714D01*
X111714285Y-122432380D02*
X111714285Y-121432380D01*
X111714285Y-122384761D02*
X111619047Y-122432380D01*
X111428571Y-122432380D01*
X111333333Y-122384761D01*
X111285714Y-122337142D01*
X111238095Y-122241904D01*
X111238095Y-121956190D01*
X111285714Y-121860952D01*
X111333333Y-121813333D01*
X111428571Y-121765714D01*
X111619047Y-121765714D01*
X111714285Y-121813333D01*
X112619047Y-121765714D02*
X112619047Y-122432380D01*
X112190476Y-121765714D02*
X112190476Y-122289523D01*
X112238095Y-122384761D01*
X112333333Y-122432380D01*
X112476190Y-122432380D01*
X112571428Y-122384761D01*
X112619047Y-122337142D01*
X113095238Y-122432380D02*
X113095238Y-121765714D01*
X113095238Y-121432380D02*
X113047619Y-121480000D01*
X113095238Y-121527619D01*
X113142857Y-121480000D01*
X113095238Y-121432380D01*
X113095238Y-121527619D01*
X113571428Y-121765714D02*
X113571428Y-122432380D01*
X113571428Y-121860952D02*
X113619047Y-121813333D01*
X113714285Y-121765714D01*
X113857142Y-121765714D01*
X113952380Y-121813333D01*
X114000000Y-121908571D01*
X114000000Y-122432380D01*
X114619047Y-122432380D02*
X114523809Y-122384761D01*
X114476190Y-122337142D01*
X114428571Y-122241904D01*
X114428571Y-121956190D01*
X114476190Y-121860952D01*
X114523809Y-121813333D01*
X114619047Y-121765714D01*
X114761904Y-121765714D01*
X114857142Y-121813333D01*
X114904761Y-121860952D01*
X114952380Y-121956190D01*
X114952380Y-122241904D01*
X114904761Y-122337142D01*
X114857142Y-122384761D01*
X114761904Y-122432380D01*
X114619047Y-122432380D01*
X115142857Y-122527619D02*
X115904761Y-122527619D01*
X116142857Y-122432380D02*
X116142857Y-121432380D01*
X116714285Y-122432380D01*
X116714285Y-121432380D01*
X117619047Y-122432380D02*
X117619047Y-121908571D01*
X117571428Y-121813333D01*
X117476190Y-121765714D01*
X117285714Y-121765714D01*
X117190476Y-121813333D01*
X117619047Y-122384761D02*
X117523809Y-122432380D01*
X117285714Y-122432380D01*
X117190476Y-122384761D01*
X117142857Y-122289523D01*
X117142857Y-122194285D01*
X117190476Y-122099047D01*
X117285714Y-122051428D01*
X117523809Y-122051428D01*
X117619047Y-122003809D01*
X118095238Y-121765714D02*
X118095238Y-122432380D01*
X118095238Y-121860952D02*
X118142857Y-121813333D01*
X118238095Y-121765714D01*
X118380952Y-121765714D01*
X118476190Y-121813333D01*
X118523809Y-121908571D01*
X118523809Y-122432380D01*
X119142857Y-122432380D02*
X119047619Y-122384761D01*
X119000000Y-122337142D01*
X118952380Y-122241904D01*
X118952380Y-121956190D01*
X119000000Y-121860952D01*
X119047619Y-121813333D01*
X119142857Y-121765714D01*
X119285714Y-121765714D01*
X119380952Y-121813333D01*
X119428571Y-121860952D01*
X119476190Y-121956190D01*
X119476190Y-122241904D01*
X119428571Y-122337142D01*
X119380952Y-122384761D01*
X119285714Y-122432380D01*
X119142857Y-122432380D01*
X119666666Y-122527619D02*
X120428571Y-122527619D01*
X120571428Y-121765714D02*
X120809523Y-122432380D01*
X121047619Y-121765714D01*
X121333333Y-121432380D02*
X121952380Y-121432380D01*
X121619047Y-121813333D01*
X121761904Y-121813333D01*
X121857142Y-121860952D01*
X121904761Y-121908571D01*
X121952380Y-122003809D01*
X121952380Y-122241904D01*
X121904761Y-122337142D01*
X121857142Y-122384761D01*
X121761904Y-122432380D01*
X121476190Y-122432380D01*
X121380952Y-122384761D01*
X121333333Y-122337142D01*
X122380952Y-122337142D02*
X122428571Y-122384761D01*
X122380952Y-122432380D01*
X122333333Y-122384761D01*
X122380952Y-122337142D01*
X122380952Y-122432380D01*
X122761904Y-122432380D02*
X123285714Y-121765714D01*
X122761904Y-121765714D02*
X123285714Y-122432380D01*
X115785714Y-119606666D02*
X116261904Y-119606666D01*
X115690476Y-119892380D02*
X116023809Y-118892380D01*
X116357142Y-119892380D01*
X117214285Y-119892380D02*
X116642857Y-119892380D01*
X116928571Y-119892380D02*
X116928571Y-118892380D01*
X116833333Y-119035238D01*
X116738095Y-119130476D01*
X116642857Y-119178095D01*
X108002380Y-157483333D02*
X108716666Y-157483333D01*
X108859523Y-157530952D01*
X108954761Y-157626190D01*
X109002380Y-157769047D01*
X109002380Y-157864285D01*
X109002380Y-156483333D02*
X109002380Y-157054761D01*
X109002380Y-156769047D02*
X108002380Y-156769047D01*
X108145238Y-156864285D01*
X108240476Y-156959523D01*
X108288095Y-157054761D01*
X134466666Y-89227380D02*
X134466666Y-89941666D01*
X134419047Y-90084523D01*
X134323809Y-90179761D01*
X134180952Y-90227380D01*
X134085714Y-90227380D01*
X134847619Y-89227380D02*
X135466666Y-89227380D01*
X135133333Y-89608333D01*
X135276190Y-89608333D01*
X135371428Y-89655952D01*
X135419047Y-89703571D01*
X135466666Y-89798809D01*
X135466666Y-90036904D01*
X135419047Y-90132142D01*
X135371428Y-90179761D01*
X135276190Y-90227380D01*
X134990476Y-90227380D01*
X134895238Y-90179761D01*
X134847619Y-90132142D01*
X115052380Y-145716666D02*
X114576190Y-146050000D01*
X115052380Y-146288095D02*
X114052380Y-146288095D01*
X114052380Y-145907142D01*
X114100000Y-145811904D01*
X114147619Y-145764285D01*
X114242857Y-145716666D01*
X114385714Y-145716666D01*
X114480952Y-145764285D01*
X114528571Y-145811904D01*
X114576190Y-145907142D01*
X114576190Y-146288095D01*
X115052380Y-144764285D02*
X115052380Y-145335714D01*
X115052380Y-145050000D02*
X114052380Y-145050000D01*
X114195238Y-145145238D01*
X114290476Y-145240476D01*
X114338095Y-145335714D01*
X113833333Y-108152380D02*
X113500000Y-107676190D01*
X113261904Y-108152380D02*
X113261904Y-107152380D01*
X113642857Y-107152380D01*
X113738095Y-107200000D01*
X113785714Y-107247619D01*
X113833333Y-107342857D01*
X113833333Y-107485714D01*
X113785714Y-107580952D01*
X113738095Y-107628571D01*
X113642857Y-107676190D01*
X113261904Y-107676190D01*
X114214285Y-107247619D02*
X114261904Y-107200000D01*
X114357142Y-107152380D01*
X114595238Y-107152380D01*
X114690476Y-107200000D01*
X114738095Y-107247619D01*
X114785714Y-107342857D01*
X114785714Y-107438095D01*
X114738095Y-107580952D01*
X114166666Y-108152380D01*
X114785714Y-108152380D01*
X127833333Y-152402380D02*
X127500000Y-151926190D01*
X127261904Y-152402380D02*
X127261904Y-151402380D01*
X127642857Y-151402380D01*
X127738095Y-151450000D01*
X127785714Y-151497619D01*
X127833333Y-151592857D01*
X127833333Y-151735714D01*
X127785714Y-151830952D01*
X127738095Y-151878571D01*
X127642857Y-151926190D01*
X127261904Y-151926190D01*
X128166666Y-151402380D02*
X128785714Y-151402380D01*
X128452380Y-151783333D01*
X128595238Y-151783333D01*
X128690476Y-151830952D01*
X128738095Y-151878571D01*
X128785714Y-151973809D01*
X128785714Y-152211904D01*
X128738095Y-152307142D01*
X128690476Y-152354761D01*
X128595238Y-152402380D01*
X128309523Y-152402380D01*
X128214285Y-152354761D01*
X128166666Y-152307142D01*
X133130952Y-111522380D02*
X132559523Y-111522380D01*
X132845238Y-111522380D02*
X132845238Y-110522380D01*
X132750000Y-110665238D01*
X132654761Y-110760476D01*
X132559523Y-110808095D01*
X133559523Y-111522380D02*
X133559523Y-110522380D01*
X133654761Y-111141428D02*
X133940476Y-111522380D01*
X133940476Y-110855714D02*
X133559523Y-111236666D01*
X133083333Y-108152380D02*
X132750000Y-107676190D01*
X132511904Y-108152380D02*
X132511904Y-107152380D01*
X132892857Y-107152380D01*
X132988095Y-107200000D01*
X133035714Y-107247619D01*
X133083333Y-107342857D01*
X133083333Y-107485714D01*
X133035714Y-107580952D01*
X132988095Y-107628571D01*
X132892857Y-107676190D01*
X132511904Y-107676190D01*
X133940476Y-107485714D02*
X133940476Y-108152380D01*
X133702380Y-107104761D02*
X133464285Y-107819047D01*
X134083333Y-107819047D01*
X127833333Y-158402380D02*
X127500000Y-157926190D01*
X127261904Y-158402380D02*
X127261904Y-157402380D01*
X127642857Y-157402380D01*
X127738095Y-157450000D01*
X127785714Y-157497619D01*
X127833333Y-157592857D01*
X127833333Y-157735714D01*
X127785714Y-157830952D01*
X127738095Y-157878571D01*
X127642857Y-157926190D01*
X127261904Y-157926190D01*
X128738095Y-157402380D02*
X128261904Y-157402380D01*
X128214285Y-157878571D01*
X128261904Y-157830952D01*
X128357142Y-157783333D01*
X128595238Y-157783333D01*
X128690476Y-157830952D01*
X128738095Y-157878571D01*
X128785714Y-157973809D01*
X128785714Y-158211904D01*
X128738095Y-158307142D01*
X128690476Y-158354761D01*
X128595238Y-158402380D01*
X128357142Y-158402380D01*
X128261904Y-158354761D01*
X128214285Y-158307142D01*
X133130952Y-99032380D02*
X132559523Y-99032380D01*
X132845238Y-99032380D02*
X132845238Y-98032380D01*
X132750000Y-98175238D01*
X132654761Y-98270476D01*
X132559523Y-98318095D01*
X133559523Y-99032380D02*
X133559523Y-98032380D01*
X133654761Y-98651428D02*
X133940476Y-99032380D01*
X133940476Y-98365714D02*
X133559523Y-98746666D01*
X133083333Y-102402380D02*
X132750000Y-101926190D01*
X132511904Y-102402380D02*
X132511904Y-101402380D01*
X132892857Y-101402380D01*
X132988095Y-101450000D01*
X133035714Y-101497619D01*
X133083333Y-101592857D01*
X133083333Y-101735714D01*
X133035714Y-101830952D01*
X132988095Y-101878571D01*
X132892857Y-101926190D01*
X132511904Y-101926190D01*
X133940476Y-101402380D02*
X133750000Y-101402380D01*
X133654761Y-101450000D01*
X133607142Y-101497619D01*
X133511904Y-101640476D01*
X133464285Y-101830952D01*
X133464285Y-102211904D01*
X133511904Y-102307142D01*
X133559523Y-102354761D01*
X133654761Y-102402380D01*
X133845238Y-102402380D01*
X133940476Y-102354761D01*
X133988095Y-102307142D01*
X134035714Y-102211904D01*
X134035714Y-101973809D01*
X133988095Y-101878571D01*
X133940476Y-101830952D01*
X133845238Y-101783333D01*
X133654761Y-101783333D01*
X133559523Y-101830952D01*
X133511904Y-101878571D01*
X133464285Y-101973809D01*
X94359047Y-88454761D02*
X94501904Y-88502380D01*
X94740000Y-88502380D01*
X94835238Y-88454761D01*
X94882857Y-88407142D01*
X94930476Y-88311904D01*
X94930476Y-88216666D01*
X94882857Y-88121428D01*
X94835238Y-88073809D01*
X94740000Y-88026190D01*
X94549523Y-87978571D01*
X94454285Y-87930952D01*
X94406666Y-87883333D01*
X94359047Y-87788095D01*
X94359047Y-87692857D01*
X94406666Y-87597619D01*
X94454285Y-87550000D01*
X94549523Y-87502380D01*
X94787619Y-87502380D01*
X94930476Y-87550000D01*
X95263809Y-87502380D02*
X95501904Y-88502380D01*
X95692380Y-87788095D01*
X95882857Y-88502380D01*
X96120952Y-87502380D01*
X96263809Y-88597619D02*
X97025714Y-88597619D01*
X97263809Y-88502380D02*
X97263809Y-87502380D01*
X97501904Y-87502380D01*
X97644761Y-87550000D01*
X97740000Y-87645238D01*
X97787619Y-87740476D01*
X97835238Y-87930952D01*
X97835238Y-88073809D01*
X97787619Y-88264285D01*
X97740000Y-88359523D01*
X97644761Y-88454761D01*
X97501904Y-88502380D01*
X97263809Y-88502380D01*
X98263809Y-88502380D02*
X98263809Y-87502380D01*
X98644761Y-87502380D01*
X98740000Y-87550000D01*
X98787619Y-87597619D01*
X98835238Y-87692857D01*
X98835238Y-87835714D01*
X98787619Y-87930952D01*
X98740000Y-87978571D01*
X98644761Y-88026190D01*
X98263809Y-88026190D01*
X99263809Y-88502380D02*
X99263809Y-87502380D01*
X99501904Y-87502380D01*
X99644761Y-87550000D01*
X99740000Y-87645238D01*
X99787619Y-87740476D01*
X99835238Y-87930952D01*
X99835238Y-88073809D01*
X99787619Y-88264285D01*
X99740000Y-88359523D01*
X99644761Y-88454761D01*
X99501904Y-88502380D01*
X99263809Y-88502380D01*
X100120952Y-87502380D02*
X100692380Y-87502380D01*
X100406666Y-88502380D02*
X100406666Y-87502380D01*
X100787619Y-88597619D02*
X101549523Y-88597619D01*
X101692380Y-88502380D02*
X102216190Y-87835714D01*
X101692380Y-87835714D02*
X102216190Y-88502380D01*
X102549523Y-87597619D02*
X102597142Y-87550000D01*
X102692380Y-87502380D01*
X102930476Y-87502380D01*
X103025714Y-87550000D01*
X103073333Y-87597619D01*
X103120952Y-87692857D01*
X103120952Y-87788095D01*
X103073333Y-87930952D01*
X102501904Y-88502380D01*
X103120952Y-88502380D01*
X98556666Y-93104761D02*
X98699523Y-93152380D01*
X98937619Y-93152380D01*
X99032857Y-93104761D01*
X99080476Y-93057142D01*
X99128095Y-92961904D01*
X99128095Y-92866666D01*
X99080476Y-92771428D01*
X99032857Y-92723809D01*
X98937619Y-92676190D01*
X98747142Y-92628571D01*
X98651904Y-92580952D01*
X98604285Y-92533333D01*
X98556666Y-92438095D01*
X98556666Y-92342857D01*
X98604285Y-92247619D01*
X98651904Y-92200000D01*
X98747142Y-92152380D01*
X98985238Y-92152380D01*
X99128095Y-92200000D01*
X99461428Y-92152380D02*
X99699523Y-93152380D01*
X99890000Y-92438095D01*
X100080476Y-93152380D01*
X100318571Y-92152380D01*
X101223333Y-93152380D02*
X100651904Y-93152380D01*
X100937619Y-93152380D02*
X100937619Y-92152380D01*
X100842380Y-92295238D01*
X100747142Y-92390476D01*
X100651904Y-92438095D01*
X144352380Y-129131904D02*
X143352380Y-129131904D01*
X144352380Y-128560476D02*
X143780952Y-128989047D01*
X143352380Y-128560476D02*
X143923809Y-129131904D01*
X146952380Y-121275595D02*
X145952380Y-121275595D01*
X145952380Y-121037500D01*
X146000000Y-120894642D01*
X146095238Y-120799404D01*
X146190476Y-120751785D01*
X146380952Y-120704166D01*
X146523809Y-120704166D01*
X146714285Y-120751785D01*
X146809523Y-120799404D01*
X146904761Y-120894642D01*
X146952380Y-121037500D01*
X146952380Y-121275595D01*
X146285714Y-119847023D02*
X146952380Y-119847023D01*
X145904761Y-120085119D02*
X146619047Y-120323214D01*
X146619047Y-119704166D01*
X153122380Y-139111904D02*
X153931904Y-139111904D01*
X154027142Y-139064285D01*
X154074761Y-139016666D01*
X154122380Y-138921428D01*
X154122380Y-138730952D01*
X154074761Y-138635714D01*
X154027142Y-138588095D01*
X153931904Y-138540476D01*
X153122380Y-138540476D01*
X154122380Y-137540476D02*
X154122380Y-138111904D01*
X154122380Y-137826190D02*
X153122380Y-137826190D01*
X153265238Y-137921428D01*
X153360476Y-138016666D01*
X153408095Y-138111904D01*
X108252380Y-140033333D02*
X108966666Y-140033333D01*
X109109523Y-140080952D01*
X109204761Y-140176190D01*
X109252380Y-140319047D01*
X109252380Y-140414285D01*
X108585714Y-139128571D02*
X109252380Y-139128571D01*
X108204761Y-139366666D02*
X108919047Y-139604761D01*
X108919047Y-138985714D01*
X161002380Y-87280952D02*
X160002380Y-87280952D01*
X160383333Y-87280952D02*
X160335714Y-87185714D01*
X160335714Y-86995238D01*
X160383333Y-86900000D01*
X160430952Y-86852380D01*
X160526190Y-86804761D01*
X160811904Y-86804761D01*
X160907142Y-86852380D01*
X160954761Y-86900000D01*
X161002380Y-86995238D01*
X161002380Y-87185714D01*
X160954761Y-87280952D01*
X161002380Y-85947619D02*
X160478571Y-85947619D01*
X160383333Y-85995238D01*
X160335714Y-86090476D01*
X160335714Y-86280952D01*
X160383333Y-86376190D01*
X160954761Y-85947619D02*
X161002380Y-86042857D01*
X161002380Y-86280952D01*
X160954761Y-86376190D01*
X160859523Y-86423809D01*
X160764285Y-86423809D01*
X160669047Y-86376190D01*
X160621428Y-86280952D01*
X160621428Y-86042857D01*
X160573809Y-85947619D01*
X161002380Y-85471428D02*
X160335714Y-85471428D01*
X160526190Y-85471428D02*
X160430952Y-85423809D01*
X160383333Y-85376190D01*
X160335714Y-85280952D01*
X160335714Y-85185714D01*
X161002380Y-84852380D02*
X160335714Y-84852380D01*
X160526190Y-84852380D02*
X160430952Y-84804761D01*
X160383333Y-84757142D01*
X160335714Y-84661904D01*
X160335714Y-84566666D01*
X160954761Y-83852380D02*
X161002380Y-83947619D01*
X161002380Y-84138095D01*
X160954761Y-84233333D01*
X160859523Y-84280952D01*
X160478571Y-84280952D01*
X160383333Y-84233333D01*
X160335714Y-84138095D01*
X160335714Y-83947619D01*
X160383333Y-83852380D01*
X160478571Y-83804761D01*
X160573809Y-83804761D01*
X160669047Y-84280952D01*
X161002380Y-83233333D02*
X160954761Y-83328571D01*
X160859523Y-83376190D01*
X160002380Y-83376190D01*
X161097619Y-83090476D02*
X161097619Y-82328571D01*
X160335714Y-82090476D02*
X161192857Y-82090476D01*
X161288095Y-82138095D01*
X161335714Y-82233333D01*
X161335714Y-82280952D01*
X160002380Y-82090476D02*
X160050000Y-82138095D01*
X160097619Y-82090476D01*
X160050000Y-82042857D01*
X160002380Y-82090476D01*
X160097619Y-82090476D01*
X161002380Y-81185714D02*
X160478571Y-81185714D01*
X160383333Y-81233333D01*
X160335714Y-81328571D01*
X160335714Y-81519047D01*
X160383333Y-81614285D01*
X160954761Y-81185714D02*
X161002380Y-81280952D01*
X161002380Y-81519047D01*
X160954761Y-81614285D01*
X160859523Y-81661904D01*
X160764285Y-81661904D01*
X160669047Y-81614285D01*
X160621428Y-81519047D01*
X160621428Y-81280952D01*
X160573809Y-81185714D01*
X160954761Y-80280952D02*
X161002380Y-80376190D01*
X161002380Y-80566666D01*
X160954761Y-80661904D01*
X160907142Y-80709523D01*
X160811904Y-80757142D01*
X160526190Y-80757142D01*
X160430952Y-80709523D01*
X160383333Y-80661904D01*
X160335714Y-80566666D01*
X160335714Y-80376190D01*
X160383333Y-80280952D01*
X161002380Y-79852380D02*
X160002380Y-79852380D01*
X160621428Y-79757142D02*
X161002380Y-79471428D01*
X160335714Y-79471428D02*
X160716666Y-79852380D01*
X147502380Y-83733333D02*
X148216666Y-83733333D01*
X148359523Y-83780952D01*
X148454761Y-83876190D01*
X148502380Y-84019047D01*
X148502380Y-84114285D01*
X147597619Y-83304761D02*
X147550000Y-83257142D01*
X147502380Y-83161904D01*
X147502380Y-82923809D01*
X147550000Y-82828571D01*
X147597619Y-82780952D01*
X147692857Y-82733333D01*
X147788095Y-82733333D01*
X147930952Y-82780952D01*
X148502380Y-83352380D01*
X148502380Y-82733333D01*
X110214285Y-167202380D02*
X110214285Y-166202380D01*
X110547619Y-166916666D01*
X110880952Y-166202380D01*
X110880952Y-167202380D01*
X111500000Y-167202380D02*
X111404761Y-167154761D01*
X111357142Y-167107142D01*
X111309523Y-167011904D01*
X111309523Y-166726190D01*
X111357142Y-166630952D01*
X111404761Y-166583333D01*
X111500000Y-166535714D01*
X111642857Y-166535714D01*
X111738095Y-166583333D01*
X111785714Y-166630952D01*
X111833333Y-166726190D01*
X111833333Y-167011904D01*
X111785714Y-167107142D01*
X111738095Y-167154761D01*
X111642857Y-167202380D01*
X111500000Y-167202380D01*
X112690476Y-166535714D02*
X112690476Y-167202380D01*
X112261904Y-166535714D02*
X112261904Y-167059523D01*
X112309523Y-167154761D01*
X112404761Y-167202380D01*
X112547619Y-167202380D01*
X112642857Y-167154761D01*
X112690476Y-167107142D01*
X113166666Y-166535714D02*
X113166666Y-167202380D01*
X113166666Y-166630952D02*
X113214285Y-166583333D01*
X113309523Y-166535714D01*
X113452380Y-166535714D01*
X113547619Y-166583333D01*
X113595238Y-166678571D01*
X113595238Y-167202380D01*
X113928571Y-166535714D02*
X114309523Y-166535714D01*
X114071428Y-166202380D02*
X114071428Y-167059523D01*
X114119047Y-167154761D01*
X114214285Y-167202380D01*
X114309523Y-167202380D01*
X114642857Y-167202380D02*
X114642857Y-166535714D01*
X114642857Y-166202380D02*
X114595238Y-166250000D01*
X114642857Y-166297619D01*
X114690476Y-166250000D01*
X114642857Y-166202380D01*
X114642857Y-166297619D01*
X115119047Y-166535714D02*
X115119047Y-167202380D01*
X115119047Y-166630952D02*
X115166666Y-166583333D01*
X115261904Y-166535714D01*
X115404761Y-166535714D01*
X115500000Y-166583333D01*
X115547619Y-166678571D01*
X115547619Y-167202380D01*
X116452380Y-166535714D02*
X116452380Y-167345238D01*
X116404761Y-167440476D01*
X116357142Y-167488095D01*
X116261904Y-167535714D01*
X116119047Y-167535714D01*
X116023809Y-167488095D01*
X116452380Y-167154761D02*
X116357142Y-167202380D01*
X116166666Y-167202380D01*
X116071428Y-167154761D01*
X116023809Y-167107142D01*
X115976190Y-167011904D01*
X115976190Y-166726190D01*
X116023809Y-166630952D01*
X116071428Y-166583333D01*
X116166666Y-166535714D01*
X116357142Y-166535714D01*
X116452380Y-166583333D01*
X116928571Y-167202380D02*
X116928571Y-166202380D01*
X116928571Y-166678571D02*
X117500000Y-166678571D01*
X117500000Y-167202380D02*
X117500000Y-166202380D01*
X118119047Y-167202380D02*
X118023809Y-167154761D01*
X117976190Y-167107142D01*
X117928571Y-167011904D01*
X117928571Y-166726190D01*
X117976190Y-166630952D01*
X118023809Y-166583333D01*
X118119047Y-166535714D01*
X118261904Y-166535714D01*
X118357142Y-166583333D01*
X118404761Y-166630952D01*
X118452380Y-166726190D01*
X118452380Y-167011904D01*
X118404761Y-167107142D01*
X118357142Y-167154761D01*
X118261904Y-167202380D01*
X118119047Y-167202380D01*
X119023809Y-167202380D02*
X118928571Y-167154761D01*
X118880952Y-167059523D01*
X118880952Y-166202380D01*
X119785714Y-167154761D02*
X119690476Y-167202380D01*
X119500000Y-167202380D01*
X119404761Y-167154761D01*
X119357142Y-167059523D01*
X119357142Y-166678571D01*
X119404761Y-166583333D01*
X119500000Y-166535714D01*
X119690476Y-166535714D01*
X119785714Y-166583333D01*
X119833333Y-166678571D01*
X119833333Y-166773809D01*
X119357142Y-166869047D01*
X114238095Y-163402380D02*
X114238095Y-162402380D01*
X114238095Y-162878571D02*
X114809523Y-162878571D01*
X114809523Y-163402380D02*
X114809523Y-162402380D01*
X115714285Y-162735714D02*
X115714285Y-163402380D01*
X115476190Y-162354761D02*
X115238095Y-163069047D01*
X115857142Y-163069047D01*
X91497380Y-108337857D02*
X91497380Y-108814047D01*
X90497380Y-108814047D01*
X90973571Y-108004523D02*
X90973571Y-107671190D01*
X91497380Y-107528333D02*
X91497380Y-108004523D01*
X90497380Y-108004523D01*
X90497380Y-107528333D01*
X91497380Y-107099761D02*
X90497380Y-107099761D01*
X90497380Y-106861666D01*
X90545000Y-106718809D01*
X90640238Y-106623571D01*
X90735476Y-106575952D01*
X90925952Y-106528333D01*
X91068809Y-106528333D01*
X91259285Y-106575952D01*
X91354523Y-106623571D01*
X91449761Y-106718809D01*
X91497380Y-106861666D01*
X91497380Y-107099761D01*
X146730682Y-105507142D02*
X146683063Y-105554761D01*
X146540206Y-105602380D01*
X146444968Y-105602380D01*
X146302110Y-105554761D01*
X146206872Y-105459523D01*
X146159253Y-105364285D01*
X146111634Y-105173809D01*
X146111634Y-105030952D01*
X146159253Y-104840476D01*
X146206872Y-104745238D01*
X146302110Y-104650000D01*
X146444968Y-104602380D01*
X146540206Y-104602380D01*
X146683063Y-104650000D01*
X146730682Y-104697619D01*
X147683063Y-105602380D02*
X147111634Y-105602380D01*
X147397349Y-105602380D02*
X147397349Y-104602380D01*
X147302110Y-104745238D01*
X147206872Y-104840476D01*
X147111634Y-104888095D01*
X126990952Y-80057619D02*
X126895714Y-80010000D01*
X126800476Y-79914761D01*
X126657619Y-79771904D01*
X126562380Y-79724285D01*
X126467142Y-79724285D01*
X126514761Y-79962380D02*
X126419523Y-79914761D01*
X126324285Y-79819523D01*
X126276666Y-79629047D01*
X126276666Y-79295714D01*
X126324285Y-79105238D01*
X126419523Y-79010000D01*
X126514761Y-78962380D01*
X126705238Y-78962380D01*
X126800476Y-79010000D01*
X126895714Y-79105238D01*
X126943333Y-79295714D01*
X126943333Y-79629047D01*
X126895714Y-79819523D01*
X126800476Y-79914761D01*
X126705238Y-79962380D01*
X126514761Y-79962380D01*
X127133809Y-80057619D02*
X127895714Y-80057619D01*
X128133809Y-79962380D02*
X128133809Y-78962380D01*
X128705238Y-79962380D01*
X128705238Y-78962380D01*
X129181428Y-79962380D02*
X129181428Y-78962380D01*
X129562380Y-78962380D01*
X129657619Y-79010000D01*
X129705238Y-79057619D01*
X129752857Y-79152857D01*
X129752857Y-79295714D01*
X129705238Y-79390952D01*
X129657619Y-79438571D01*
X129562380Y-79486190D01*
X129181428Y-79486190D01*
X130181428Y-79962380D02*
X130181428Y-78962380D01*
X130752857Y-79962380D01*
X130752857Y-78962380D01*
X130990952Y-80057619D02*
X131752857Y-80057619D01*
X131990952Y-79962380D02*
X131990952Y-78962380D01*
X132229047Y-78962380D01*
X132371904Y-79010000D01*
X132467142Y-79105238D01*
X132514761Y-79200476D01*
X132562380Y-79390952D01*
X132562380Y-79533809D01*
X132514761Y-79724285D01*
X132467142Y-79819523D01*
X132371904Y-79914761D01*
X132229047Y-79962380D01*
X131990952Y-79962380D01*
X133419523Y-79962380D02*
X133419523Y-79438571D01*
X133371904Y-79343333D01*
X133276666Y-79295714D01*
X133086190Y-79295714D01*
X132990952Y-79343333D01*
X133419523Y-79914761D02*
X133324285Y-79962380D01*
X133086190Y-79962380D01*
X132990952Y-79914761D01*
X132943333Y-79819523D01*
X132943333Y-79724285D01*
X132990952Y-79629047D01*
X133086190Y-79581428D01*
X133324285Y-79581428D01*
X133419523Y-79533809D01*
X133895714Y-79962380D02*
X133895714Y-79295714D01*
X133895714Y-79486190D02*
X133943333Y-79390952D01*
X133990952Y-79343333D01*
X134086190Y-79295714D01*
X134181428Y-79295714D01*
X134657619Y-79962380D02*
X134562380Y-79914761D01*
X134514761Y-79819523D01*
X134514761Y-78962380D01*
X135038571Y-79962380D02*
X135038571Y-79295714D01*
X135038571Y-78962380D02*
X134990952Y-79010000D01*
X135038571Y-79057619D01*
X135086190Y-79010000D01*
X135038571Y-78962380D01*
X135038571Y-79057619D01*
X135514761Y-79295714D02*
X135514761Y-79962380D01*
X135514761Y-79390952D02*
X135562380Y-79343333D01*
X135657619Y-79295714D01*
X135800476Y-79295714D01*
X135895714Y-79343333D01*
X135943333Y-79438571D01*
X135943333Y-79962380D01*
X136848095Y-79295714D02*
X136848095Y-80105238D01*
X136800476Y-80200476D01*
X136752857Y-80248095D01*
X136657619Y-80295714D01*
X136514761Y-80295714D01*
X136419523Y-80248095D01*
X136848095Y-79914761D02*
X136752857Y-79962380D01*
X136562380Y-79962380D01*
X136467142Y-79914761D01*
X136419523Y-79867142D01*
X136371904Y-79771904D01*
X136371904Y-79486190D01*
X136419523Y-79390952D01*
X136467142Y-79343333D01*
X136562380Y-79295714D01*
X136752857Y-79295714D01*
X136848095Y-79343333D01*
X137181428Y-79295714D02*
X137562380Y-79295714D01*
X137324285Y-78962380D02*
X137324285Y-79819523D01*
X137371904Y-79914761D01*
X137467142Y-79962380D01*
X137562380Y-79962380D01*
X138038571Y-79962380D02*
X137943333Y-79914761D01*
X137895714Y-79867142D01*
X137848095Y-79771904D01*
X137848095Y-79486190D01*
X137895714Y-79390952D01*
X137943333Y-79343333D01*
X138038571Y-79295714D01*
X138181428Y-79295714D01*
X138276666Y-79343333D01*
X138324285Y-79390952D01*
X138371904Y-79486190D01*
X138371904Y-79771904D01*
X138324285Y-79867142D01*
X138276666Y-79914761D01*
X138181428Y-79962380D01*
X138038571Y-79962380D01*
X138800476Y-79295714D02*
X138800476Y-79962380D01*
X138800476Y-79390952D02*
X138848095Y-79343333D01*
X138943333Y-79295714D01*
X139086190Y-79295714D01*
X139181428Y-79343333D01*
X139229047Y-79438571D01*
X139229047Y-79962380D01*
X139467142Y-80057619D02*
X140229047Y-80057619D01*
X140467142Y-79438571D02*
X140800476Y-79438571D01*
X140943333Y-79962380D02*
X140467142Y-79962380D01*
X140467142Y-78962380D01*
X140943333Y-78962380D01*
X141705238Y-79438571D02*
X141848095Y-79486190D01*
X141895714Y-79533809D01*
X141943333Y-79629047D01*
X141943333Y-79771904D01*
X141895714Y-79867142D01*
X141848095Y-79914761D01*
X141752857Y-79962380D01*
X141371904Y-79962380D01*
X141371904Y-78962380D01*
X141705238Y-78962380D01*
X141800476Y-79010000D01*
X141848095Y-79057619D01*
X141895714Y-79152857D01*
X141895714Y-79248095D01*
X141848095Y-79343333D01*
X141800476Y-79390952D01*
X141705238Y-79438571D01*
X141371904Y-79438571D01*
X142943333Y-79867142D02*
X142895714Y-79914761D01*
X142752857Y-79962380D01*
X142657619Y-79962380D01*
X142514761Y-79914761D01*
X142419523Y-79819523D01*
X142371904Y-79724285D01*
X142324285Y-79533809D01*
X142324285Y-79390952D01*
X142371904Y-79200476D01*
X142419523Y-79105238D01*
X142514761Y-79010000D01*
X142657619Y-78962380D01*
X142752857Y-78962380D01*
X142895714Y-79010000D01*
X142943333Y-79057619D01*
X134514761Y-82847619D02*
X134419523Y-82800000D01*
X134324285Y-82704761D01*
X134181428Y-82561904D01*
X134086190Y-82514285D01*
X133990952Y-82514285D01*
X134038571Y-82752380D02*
X133943333Y-82704761D01*
X133848095Y-82609523D01*
X133800476Y-82419047D01*
X133800476Y-82085714D01*
X133848095Y-81895238D01*
X133943333Y-81800000D01*
X134038571Y-81752380D01*
X134229047Y-81752380D01*
X134324285Y-81800000D01*
X134419523Y-81895238D01*
X134467142Y-82085714D01*
X134467142Y-82419047D01*
X134419523Y-82609523D01*
X134324285Y-82704761D01*
X134229047Y-82752380D01*
X134038571Y-82752380D01*
X135419523Y-82752380D02*
X134848095Y-82752380D01*
X135133809Y-82752380D02*
X135133809Y-81752380D01*
X135038571Y-81895238D01*
X134943333Y-81990476D01*
X134848095Y-82038095D01*
X94359047Y-78954761D02*
X94501904Y-79002380D01*
X94740000Y-79002380D01*
X94835238Y-78954761D01*
X94882857Y-78907142D01*
X94930476Y-78811904D01*
X94930476Y-78716666D01*
X94882857Y-78621428D01*
X94835238Y-78573809D01*
X94740000Y-78526190D01*
X94549523Y-78478571D01*
X94454285Y-78430952D01*
X94406666Y-78383333D01*
X94359047Y-78288095D01*
X94359047Y-78192857D01*
X94406666Y-78097619D01*
X94454285Y-78050000D01*
X94549523Y-78002380D01*
X94787619Y-78002380D01*
X94930476Y-78050000D01*
X95263809Y-78002380D02*
X95501904Y-79002380D01*
X95692380Y-78288095D01*
X95882857Y-79002380D01*
X96120952Y-78002380D01*
X96263809Y-79097619D02*
X97025714Y-79097619D01*
X97263809Y-79002380D02*
X97263809Y-78002380D01*
X97501904Y-78002380D01*
X97644761Y-78050000D01*
X97740000Y-78145238D01*
X97787619Y-78240476D01*
X97835238Y-78430952D01*
X97835238Y-78573809D01*
X97787619Y-78764285D01*
X97740000Y-78859523D01*
X97644761Y-78954761D01*
X97501904Y-79002380D01*
X97263809Y-79002380D01*
X98263809Y-79002380D02*
X98263809Y-78002380D01*
X98644761Y-78002380D01*
X98740000Y-78050000D01*
X98787619Y-78097619D01*
X98835238Y-78192857D01*
X98835238Y-78335714D01*
X98787619Y-78430952D01*
X98740000Y-78478571D01*
X98644761Y-78526190D01*
X98263809Y-78526190D01*
X99263809Y-79002380D02*
X99263809Y-78002380D01*
X99501904Y-78002380D01*
X99644761Y-78050000D01*
X99740000Y-78145238D01*
X99787619Y-78240476D01*
X99835238Y-78430952D01*
X99835238Y-78573809D01*
X99787619Y-78764285D01*
X99740000Y-78859523D01*
X99644761Y-78954761D01*
X99501904Y-79002380D01*
X99263809Y-79002380D01*
X100120952Y-78002380D02*
X100692380Y-78002380D01*
X100406666Y-79002380D02*
X100406666Y-78002380D01*
X100787619Y-79097619D02*
X101549523Y-79097619D01*
X101692380Y-79002380D02*
X102216190Y-78335714D01*
X101692380Y-78335714D02*
X102216190Y-79002380D01*
X102549523Y-78097619D02*
X102597142Y-78050000D01*
X102692380Y-78002380D01*
X102930476Y-78002380D01*
X103025714Y-78050000D01*
X103073333Y-78097619D01*
X103120952Y-78192857D01*
X103120952Y-78288095D01*
X103073333Y-78430952D01*
X102501904Y-79002380D01*
X103120952Y-79002380D01*
X98556666Y-83604761D02*
X98699523Y-83652380D01*
X98937619Y-83652380D01*
X99032857Y-83604761D01*
X99080476Y-83557142D01*
X99128095Y-83461904D01*
X99128095Y-83366666D01*
X99080476Y-83271428D01*
X99032857Y-83223809D01*
X98937619Y-83176190D01*
X98747142Y-83128571D01*
X98651904Y-83080952D01*
X98604285Y-83033333D01*
X98556666Y-82938095D01*
X98556666Y-82842857D01*
X98604285Y-82747619D01*
X98651904Y-82700000D01*
X98747142Y-82652380D01*
X98985238Y-82652380D01*
X99128095Y-82700000D01*
X99461428Y-82652380D02*
X99699523Y-83652380D01*
X99890000Y-82938095D01*
X100080476Y-83652380D01*
X100318571Y-82652380D01*
X100651904Y-82747619D02*
X100699523Y-82700000D01*
X100794761Y-82652380D01*
X101032857Y-82652380D01*
X101128095Y-82700000D01*
X101175714Y-82747619D01*
X101223333Y-82842857D01*
X101223333Y-82938095D01*
X101175714Y-83080952D01*
X100604285Y-83652380D01*
X101223333Y-83652380D01*
X122916666Y-132077380D02*
X122916666Y-132791666D01*
X122869047Y-132934523D01*
X122773809Y-133029761D01*
X122630952Y-133077380D01*
X122535714Y-133077380D01*
X123821428Y-132077380D02*
X123630952Y-132077380D01*
X123535714Y-132125000D01*
X123488095Y-132172619D01*
X123392857Y-132315476D01*
X123345238Y-132505952D01*
X123345238Y-132886904D01*
X123392857Y-132982142D01*
X123440476Y-133029761D01*
X123535714Y-133077380D01*
X123726190Y-133077380D01*
X123821428Y-133029761D01*
X123869047Y-132982142D01*
X123916666Y-132886904D01*
X123916666Y-132648809D01*
X123869047Y-132553571D01*
X123821428Y-132505952D01*
X123726190Y-132458333D01*
X123535714Y-132458333D01*
X123440476Y-132505952D01*
X123392857Y-132553571D01*
X123345238Y-132648809D01*
X130037380Y-92759523D02*
X129037380Y-92759523D01*
X129037380Y-92521428D01*
X129085000Y-92378571D01*
X129180238Y-92283333D01*
X129275476Y-92235714D01*
X129465952Y-92188095D01*
X129608809Y-92188095D01*
X129799285Y-92235714D01*
X129894523Y-92283333D01*
X129989761Y-92378571D01*
X130037380Y-92521428D01*
X130037380Y-92759523D01*
X130132619Y-91997619D02*
X130132619Y-91235714D01*
X129989761Y-91045238D02*
X130037380Y-90902380D01*
X130037380Y-90664285D01*
X129989761Y-90569047D01*
X129942142Y-90521428D01*
X129846904Y-90473809D01*
X129751666Y-90473809D01*
X129656428Y-90521428D01*
X129608809Y-90569047D01*
X129561190Y-90664285D01*
X129513571Y-90854761D01*
X129465952Y-90950000D01*
X129418333Y-90997619D01*
X129323095Y-91045238D01*
X129227857Y-91045238D01*
X129132619Y-90997619D01*
X129085000Y-90950000D01*
X129037380Y-90854761D01*
X129037380Y-90616666D01*
X129085000Y-90473809D01*
X129989761Y-89616666D02*
X130037380Y-89711904D01*
X130037380Y-89902380D01*
X129989761Y-89997619D01*
X129942142Y-90045238D01*
X129846904Y-90092857D01*
X129561190Y-90092857D01*
X129465952Y-90045238D01*
X129418333Y-89997619D01*
X129370714Y-89902380D01*
X129370714Y-89711904D01*
X129418333Y-89616666D01*
X130037380Y-89188095D02*
X129037380Y-89188095D01*
X130037380Y-88759523D02*
X129513571Y-88759523D01*
X129418333Y-88807142D01*
X129370714Y-88902380D01*
X129370714Y-89045238D01*
X129418333Y-89140476D01*
X129465952Y-89188095D01*
X130037380Y-88140476D02*
X129989761Y-88235714D01*
X129942142Y-88283333D01*
X129846904Y-88330952D01*
X129561190Y-88330952D01*
X129465952Y-88283333D01*
X129418333Y-88235714D01*
X129370714Y-88140476D01*
X129370714Y-87997619D01*
X129418333Y-87902380D01*
X129465952Y-87854761D01*
X129561190Y-87807142D01*
X129846904Y-87807142D01*
X129942142Y-87854761D01*
X129989761Y-87902380D01*
X130037380Y-87997619D01*
X130037380Y-88140476D01*
X129370714Y-87521428D02*
X129370714Y-87140476D01*
X129037380Y-87378571D02*
X129894523Y-87378571D01*
X129989761Y-87330952D01*
X130037380Y-87235714D01*
X130037380Y-87140476D01*
X129370714Y-86950000D02*
X129370714Y-86569047D01*
X129037380Y-86807142D02*
X129894523Y-86807142D01*
X129989761Y-86759523D01*
X130037380Y-86664285D01*
X130037380Y-86569047D01*
X130037380Y-86235714D02*
X129037380Y-86235714D01*
X129656428Y-86140476D02*
X130037380Y-85854761D01*
X129370714Y-85854761D02*
X129751666Y-86235714D01*
X129370714Y-85521428D02*
X130037380Y-85283333D01*
X129370714Y-85045238D02*
X130037380Y-85283333D01*
X130275476Y-85378571D01*
X130323095Y-85426190D01*
X130370714Y-85521428D01*
X126252380Y-88974095D02*
X125252380Y-88974095D01*
X125252380Y-88736000D01*
X125300000Y-88593142D01*
X125395238Y-88497904D01*
X125490476Y-88450285D01*
X125680952Y-88402666D01*
X125823809Y-88402666D01*
X126014285Y-88450285D01*
X126109523Y-88497904D01*
X126204761Y-88593142D01*
X126252380Y-88736000D01*
X126252380Y-88974095D01*
X125252380Y-88069333D02*
X125252380Y-87450285D01*
X125633333Y-87783619D01*
X125633333Y-87640761D01*
X125680952Y-87545523D01*
X125728571Y-87497904D01*
X125823809Y-87450285D01*
X126061904Y-87450285D01*
X126157142Y-87497904D01*
X126204761Y-87545523D01*
X126252380Y-87640761D01*
X126252380Y-87926476D01*
X126204761Y-88021714D01*
X126157142Y-88069333D01*
X124052380Y-96831904D02*
X123052380Y-96831904D01*
X124052380Y-96260476D02*
X123480952Y-96689047D01*
X123052380Y-96260476D02*
X123623809Y-96831904D01*
X113833333Y-102152380D02*
X113500000Y-101676190D01*
X113261904Y-102152380D02*
X113261904Y-101152380D01*
X113642857Y-101152380D01*
X113738095Y-101200000D01*
X113785714Y-101247619D01*
X113833333Y-101342857D01*
X113833333Y-101485714D01*
X113785714Y-101580952D01*
X113738095Y-101628571D01*
X113642857Y-101676190D01*
X113261904Y-101676190D01*
X114166666Y-101152380D02*
X114833333Y-101152380D01*
X114404761Y-102152380D01*
X138957142Y-144784287D02*
X139004761Y-144831906D01*
X139052380Y-144974763D01*
X139052380Y-145070001D01*
X139004761Y-145212859D01*
X138909523Y-145308097D01*
X138814285Y-145355716D01*
X138623809Y-145403335D01*
X138480952Y-145403335D01*
X138290476Y-145355716D01*
X138195238Y-145308097D01*
X138100000Y-145212859D01*
X138052380Y-145070001D01*
X138052380Y-144974763D01*
X138100000Y-144831906D01*
X138147619Y-144784287D01*
X138147619Y-144403335D02*
X138100000Y-144355716D01*
X138052380Y-144260478D01*
X138052380Y-144022382D01*
X138100000Y-143927144D01*
X138147619Y-143879525D01*
X138242857Y-143831906D01*
X138338095Y-143831906D01*
X138480952Y-143879525D01*
X139052380Y-144450954D01*
X139052380Y-143831906D01*
X145214285Y-97202380D02*
X145214285Y-96202380D01*
X145547619Y-96916666D01*
X145880952Y-96202380D01*
X145880952Y-97202380D01*
X146500000Y-97202380D02*
X146404761Y-97154761D01*
X146357142Y-97107142D01*
X146309523Y-97011904D01*
X146309523Y-96726190D01*
X146357142Y-96630952D01*
X146404761Y-96583333D01*
X146500000Y-96535714D01*
X146642857Y-96535714D01*
X146738095Y-96583333D01*
X146785714Y-96630952D01*
X146833333Y-96726190D01*
X146833333Y-97011904D01*
X146785714Y-97107142D01*
X146738095Y-97154761D01*
X146642857Y-97202380D01*
X146500000Y-97202380D01*
X147690476Y-96535714D02*
X147690476Y-97202380D01*
X147261904Y-96535714D02*
X147261904Y-97059523D01*
X147309523Y-97154761D01*
X147404761Y-97202380D01*
X147547619Y-97202380D01*
X147642857Y-97154761D01*
X147690476Y-97107142D01*
X148166666Y-96535714D02*
X148166666Y-97202380D01*
X148166666Y-96630952D02*
X148214285Y-96583333D01*
X148309523Y-96535714D01*
X148452380Y-96535714D01*
X148547619Y-96583333D01*
X148595238Y-96678571D01*
X148595238Y-97202380D01*
X148928571Y-96535714D02*
X149309523Y-96535714D01*
X149071428Y-96202380D02*
X149071428Y-97059523D01*
X149119047Y-97154761D01*
X149214285Y-97202380D01*
X149309523Y-97202380D01*
X149642857Y-97202380D02*
X149642857Y-96535714D01*
X149642857Y-96202380D02*
X149595238Y-96250000D01*
X149642857Y-96297619D01*
X149690476Y-96250000D01*
X149642857Y-96202380D01*
X149642857Y-96297619D01*
X150119047Y-96535714D02*
X150119047Y-97202380D01*
X150119047Y-96630952D02*
X150166666Y-96583333D01*
X150261904Y-96535714D01*
X150404761Y-96535714D01*
X150500000Y-96583333D01*
X150547619Y-96678571D01*
X150547619Y-97202380D01*
X151452380Y-96535714D02*
X151452380Y-97345238D01*
X151404761Y-97440476D01*
X151357142Y-97488095D01*
X151261904Y-97535714D01*
X151119047Y-97535714D01*
X151023809Y-97488095D01*
X151452380Y-97154761D02*
X151357142Y-97202380D01*
X151166666Y-97202380D01*
X151071428Y-97154761D01*
X151023809Y-97107142D01*
X150976190Y-97011904D01*
X150976190Y-96726190D01*
X151023809Y-96630952D01*
X151071428Y-96583333D01*
X151166666Y-96535714D01*
X151357142Y-96535714D01*
X151452380Y-96583333D01*
X151928571Y-97202380D02*
X151928571Y-96202380D01*
X151928571Y-96678571D02*
X152500000Y-96678571D01*
X152500000Y-97202380D02*
X152500000Y-96202380D01*
X153119047Y-97202380D02*
X153023809Y-97154761D01*
X152976190Y-97107142D01*
X152928571Y-97011904D01*
X152928571Y-96726190D01*
X152976190Y-96630952D01*
X153023809Y-96583333D01*
X153119047Y-96535714D01*
X153261904Y-96535714D01*
X153357142Y-96583333D01*
X153404761Y-96630952D01*
X153452380Y-96726190D01*
X153452380Y-97011904D01*
X153404761Y-97107142D01*
X153357142Y-97154761D01*
X153261904Y-97202380D01*
X153119047Y-97202380D01*
X154023809Y-97202380D02*
X153928571Y-97154761D01*
X153880952Y-97059523D01*
X153880952Y-96202380D01*
X154785714Y-97154761D02*
X154690476Y-97202380D01*
X154500000Y-97202380D01*
X154404761Y-97154761D01*
X154357142Y-97059523D01*
X154357142Y-96678571D01*
X154404761Y-96583333D01*
X154500000Y-96535714D01*
X154690476Y-96535714D01*
X154785714Y-96583333D01*
X154833333Y-96678571D01*
X154833333Y-96773809D01*
X154357142Y-96869047D01*
X149238095Y-93402380D02*
X149238095Y-92402380D01*
X149238095Y-92878571D02*
X149809523Y-92878571D01*
X149809523Y-93402380D02*
X149809523Y-92402380D01*
X150238095Y-92497619D02*
X150285714Y-92450000D01*
X150380952Y-92402380D01*
X150619047Y-92402380D01*
X150714285Y-92450000D01*
X150761904Y-92497619D01*
X150809523Y-92592857D01*
X150809523Y-92688095D01*
X150761904Y-92830952D01*
X150190476Y-93402380D01*
X150809523Y-93402380D01*
X145214285Y-167202380D02*
X145214285Y-166202380D01*
X145547619Y-166916666D01*
X145880952Y-166202380D01*
X145880952Y-167202380D01*
X146500000Y-167202380D02*
X146404761Y-167154761D01*
X146357142Y-167107142D01*
X146309523Y-167011904D01*
X146309523Y-166726190D01*
X146357142Y-166630952D01*
X146404761Y-166583333D01*
X146500000Y-166535714D01*
X146642857Y-166535714D01*
X146738095Y-166583333D01*
X146785714Y-166630952D01*
X146833333Y-166726190D01*
X146833333Y-167011904D01*
X146785714Y-167107142D01*
X146738095Y-167154761D01*
X146642857Y-167202380D01*
X146500000Y-167202380D01*
X147690476Y-166535714D02*
X147690476Y-167202380D01*
X147261904Y-166535714D02*
X147261904Y-167059523D01*
X147309523Y-167154761D01*
X147404761Y-167202380D01*
X147547619Y-167202380D01*
X147642857Y-167154761D01*
X147690476Y-167107142D01*
X148166666Y-166535714D02*
X148166666Y-167202380D01*
X148166666Y-166630952D02*
X148214285Y-166583333D01*
X148309523Y-166535714D01*
X148452380Y-166535714D01*
X148547619Y-166583333D01*
X148595238Y-166678571D01*
X148595238Y-167202380D01*
X148928571Y-166535714D02*
X149309523Y-166535714D01*
X149071428Y-166202380D02*
X149071428Y-167059523D01*
X149119047Y-167154761D01*
X149214285Y-167202380D01*
X149309523Y-167202380D01*
X149642857Y-167202380D02*
X149642857Y-166535714D01*
X149642857Y-166202380D02*
X149595238Y-166250000D01*
X149642857Y-166297619D01*
X149690476Y-166250000D01*
X149642857Y-166202380D01*
X149642857Y-166297619D01*
X150119047Y-166535714D02*
X150119047Y-167202380D01*
X150119047Y-166630952D02*
X150166666Y-166583333D01*
X150261904Y-166535714D01*
X150404761Y-166535714D01*
X150500000Y-166583333D01*
X150547619Y-166678571D01*
X150547619Y-167202380D01*
X151452380Y-166535714D02*
X151452380Y-167345238D01*
X151404761Y-167440476D01*
X151357142Y-167488095D01*
X151261904Y-167535714D01*
X151119047Y-167535714D01*
X151023809Y-167488095D01*
X151452380Y-167154761D02*
X151357142Y-167202380D01*
X151166666Y-167202380D01*
X151071428Y-167154761D01*
X151023809Y-167107142D01*
X150976190Y-167011904D01*
X150976190Y-166726190D01*
X151023809Y-166630952D01*
X151071428Y-166583333D01*
X151166666Y-166535714D01*
X151357142Y-166535714D01*
X151452380Y-166583333D01*
X151928571Y-167202380D02*
X151928571Y-166202380D01*
X151928571Y-166678571D02*
X152500000Y-166678571D01*
X152500000Y-167202380D02*
X152500000Y-166202380D01*
X153119047Y-167202380D02*
X153023809Y-167154761D01*
X152976190Y-167107142D01*
X152928571Y-167011904D01*
X152928571Y-166726190D01*
X152976190Y-166630952D01*
X153023809Y-166583333D01*
X153119047Y-166535714D01*
X153261904Y-166535714D01*
X153357142Y-166583333D01*
X153404761Y-166630952D01*
X153452380Y-166726190D01*
X153452380Y-167011904D01*
X153404761Y-167107142D01*
X153357142Y-167154761D01*
X153261904Y-167202380D01*
X153119047Y-167202380D01*
X154023809Y-167202380D02*
X153928571Y-167154761D01*
X153880952Y-167059523D01*
X153880952Y-166202380D01*
X154785714Y-167154761D02*
X154690476Y-167202380D01*
X154500000Y-167202380D01*
X154404761Y-167154761D01*
X154357142Y-167059523D01*
X154357142Y-166678571D01*
X154404761Y-166583333D01*
X154500000Y-166535714D01*
X154690476Y-166535714D01*
X154785714Y-166583333D01*
X154833333Y-166678571D01*
X154833333Y-166773809D01*
X154357142Y-166869047D01*
X149238095Y-163402380D02*
X149238095Y-162402380D01*
X149238095Y-162878571D02*
X149809523Y-162878571D01*
X149809523Y-163402380D02*
X149809523Y-162402380D01*
X150190476Y-162402380D02*
X150809523Y-162402380D01*
X150476190Y-162783333D01*
X150619047Y-162783333D01*
X150714285Y-162830952D01*
X150761904Y-162878571D01*
X150809523Y-162973809D01*
X150809523Y-163211904D01*
X150761904Y-163307142D01*
X150714285Y-163354761D01*
X150619047Y-163402380D01*
X150333333Y-163402380D01*
X150238095Y-163354761D01*
X150190476Y-163307142D01*
X109214285Y-84202380D02*
X109214285Y-83202380D01*
X109547619Y-83916666D01*
X109880952Y-83202380D01*
X109880952Y-84202380D01*
X110500000Y-84202380D02*
X110404761Y-84154761D01*
X110357142Y-84107142D01*
X110309523Y-84011904D01*
X110309523Y-83726190D01*
X110357142Y-83630952D01*
X110404761Y-83583333D01*
X110500000Y-83535714D01*
X110642857Y-83535714D01*
X110738095Y-83583333D01*
X110785714Y-83630952D01*
X110833333Y-83726190D01*
X110833333Y-84011904D01*
X110785714Y-84107142D01*
X110738095Y-84154761D01*
X110642857Y-84202380D01*
X110500000Y-84202380D01*
X111690476Y-83535714D02*
X111690476Y-84202380D01*
X111261904Y-83535714D02*
X111261904Y-84059523D01*
X111309523Y-84154761D01*
X111404761Y-84202380D01*
X111547619Y-84202380D01*
X111642857Y-84154761D01*
X111690476Y-84107142D01*
X112166666Y-83535714D02*
X112166666Y-84202380D01*
X112166666Y-83630952D02*
X112214285Y-83583333D01*
X112309523Y-83535714D01*
X112452380Y-83535714D01*
X112547619Y-83583333D01*
X112595238Y-83678571D01*
X112595238Y-84202380D01*
X112928571Y-83535714D02*
X113309523Y-83535714D01*
X113071428Y-83202380D02*
X113071428Y-84059523D01*
X113119047Y-84154761D01*
X113214285Y-84202380D01*
X113309523Y-84202380D01*
X113642857Y-84202380D02*
X113642857Y-83535714D01*
X113642857Y-83202380D02*
X113595238Y-83250000D01*
X113642857Y-83297619D01*
X113690476Y-83250000D01*
X113642857Y-83202380D01*
X113642857Y-83297619D01*
X114119047Y-83535714D02*
X114119047Y-84202380D01*
X114119047Y-83630952D02*
X114166666Y-83583333D01*
X114261904Y-83535714D01*
X114404761Y-83535714D01*
X114500000Y-83583333D01*
X114547619Y-83678571D01*
X114547619Y-84202380D01*
X115452380Y-83535714D02*
X115452380Y-84345238D01*
X115404761Y-84440476D01*
X115357142Y-84488095D01*
X115261904Y-84535714D01*
X115119047Y-84535714D01*
X115023809Y-84488095D01*
X115452380Y-84154761D02*
X115357142Y-84202380D01*
X115166666Y-84202380D01*
X115071428Y-84154761D01*
X115023809Y-84107142D01*
X114976190Y-84011904D01*
X114976190Y-83726190D01*
X115023809Y-83630952D01*
X115071428Y-83583333D01*
X115166666Y-83535714D01*
X115357142Y-83535714D01*
X115452380Y-83583333D01*
X115928571Y-84202380D02*
X115928571Y-83202380D01*
X115928571Y-83678571D02*
X116500000Y-83678571D01*
X116500000Y-84202380D02*
X116500000Y-83202380D01*
X117119047Y-84202380D02*
X117023809Y-84154761D01*
X116976190Y-84107142D01*
X116928571Y-84011904D01*
X116928571Y-83726190D01*
X116976190Y-83630952D01*
X117023809Y-83583333D01*
X117119047Y-83535714D01*
X117261904Y-83535714D01*
X117357142Y-83583333D01*
X117404761Y-83630952D01*
X117452380Y-83726190D01*
X117452380Y-84011904D01*
X117404761Y-84107142D01*
X117357142Y-84154761D01*
X117261904Y-84202380D01*
X117119047Y-84202380D01*
X118023809Y-84202380D02*
X117928571Y-84154761D01*
X117880952Y-84059523D01*
X117880952Y-83202380D01*
X118785714Y-84154761D02*
X118690476Y-84202380D01*
X118500000Y-84202380D01*
X118404761Y-84154761D01*
X118357142Y-84059523D01*
X118357142Y-83678571D01*
X118404761Y-83583333D01*
X118500000Y-83535714D01*
X118690476Y-83535714D01*
X118785714Y-83583333D01*
X118833333Y-83678571D01*
X118833333Y-83773809D01*
X118357142Y-83869047D01*
X113238095Y-80402380D02*
X113238095Y-79402380D01*
X113238095Y-79878571D02*
X113809523Y-79878571D01*
X113809523Y-80402380D02*
X113809523Y-79402380D01*
X114809523Y-80402380D02*
X114238095Y-80402380D01*
X114523809Y-80402380D02*
X114523809Y-79402380D01*
X114428571Y-79545238D01*
X114333333Y-79640476D01*
X114238095Y-79688095D01*
X91497380Y-101337857D02*
X91497380Y-101814047D01*
X90497380Y-101814047D01*
X90973571Y-101004523D02*
X90973571Y-100671190D01*
X91497380Y-100528333D02*
X91497380Y-101004523D01*
X90497380Y-101004523D01*
X90497380Y-100528333D01*
X91497380Y-100099761D02*
X90497380Y-100099761D01*
X90497380Y-99861666D01*
X90545000Y-99718809D01*
X90640238Y-99623571D01*
X90735476Y-99575952D01*
X90925952Y-99528333D01*
X91068809Y-99528333D01*
X91259285Y-99575952D01*
X91354523Y-99623571D01*
X91449761Y-99718809D01*
X91497380Y-99861666D01*
X91497380Y-100099761D01*
X136433333Y-134307142D02*
X136385714Y-134354761D01*
X136242857Y-134402380D01*
X136147619Y-134402380D01*
X136004761Y-134354761D01*
X135909523Y-134259523D01*
X135861904Y-134164285D01*
X135814285Y-133973809D01*
X135814285Y-133830952D01*
X135861904Y-133640476D01*
X135909523Y-133545238D01*
X136004761Y-133450000D01*
X136147619Y-133402380D01*
X136242857Y-133402380D01*
X136385714Y-133450000D01*
X136433333Y-133497619D01*
X136766666Y-133402380D02*
X137385714Y-133402380D01*
X137052380Y-133783333D01*
X137195238Y-133783333D01*
X137290476Y-133830952D01*
X137338095Y-133878571D01*
X137385714Y-133973809D01*
X137385714Y-134211904D01*
X137338095Y-134307142D01*
X137290476Y-134354761D01*
X137195238Y-134402380D01*
X136909523Y-134402380D01*
X136814285Y-134354761D01*
X136766666Y-134307142D01*
X124154761Y-140577380D02*
X123821428Y-140101190D01*
X123583333Y-140577380D02*
X123583333Y-139577380D01*
X123964285Y-139577380D01*
X124059523Y-139625000D01*
X124107142Y-139672619D01*
X124154761Y-139767857D01*
X124154761Y-139910714D01*
X124107142Y-140005952D01*
X124059523Y-140053571D01*
X123964285Y-140101190D01*
X123583333Y-140101190D01*
X124440476Y-139577380D02*
X124773809Y-140577380D01*
X125107142Y-139577380D01*
X125964285Y-140577380D02*
X125392857Y-140577380D01*
X125678571Y-140577380D02*
X125678571Y-139577380D01*
X125583333Y-139720238D01*
X125488095Y-139815476D01*
X125392857Y-139863095D01*
D11*
X138090000Y-111820000D02*
X139360000Y-113090000D01*
X93640000Y-116900000D02*
X103800000Y-116900000D01*
X103800000Y-116900000D02*
X103800000Y-124520000D01*
X139360000Y-129600000D02*
X96180000Y-129600000D01*
X96180000Y-111820000D02*
X138090000Y-111820000D01*
X103800000Y-124520000D02*
X93640000Y-124520000D01*
X93640000Y-124520000D02*
X93640000Y-116900000D01*
X139360000Y-113090000D02*
X139360000Y-129600000D01*
X96180000Y-129600000D02*
X96180000Y-111820000D01*
X119825000Y-93450000D02*
X118015000Y-93450000D01*
X117415000Y-94450000D02*
X117415000Y-92450000D01*
X118015000Y-92450000D02*
X114015000Y-92450000D01*
X118015000Y-94450000D02*
X118015000Y-92450000D01*
X112205000Y-93450000D02*
X114015000Y-93450000D01*
X114015000Y-94450000D02*
X118015000Y-94450000D01*
X114015000Y-92450000D02*
X114015000Y-94450000D01*
X90550000Y-162150000D02*
X89550000Y-152150000D01*
X94550000Y-162150000D02*
X93550000Y-152150000D01*
X95850000Y-150800000D02*
X87150000Y-150800000D01*
X91550000Y-162150000D02*
X90550000Y-152150000D01*
X89550000Y-162150000D02*
X88550000Y-152150000D01*
X75250000Y-152350000D02*
X75250000Y-161950000D01*
X87150000Y-150800000D02*
X87150000Y-163500000D01*
X110750000Y-164500000D02*
X110750000Y-149800000D01*
X95850000Y-149800000D02*
X95850000Y-164500000D01*
X92550000Y-162150000D02*
X91550000Y-152150000D01*
X87150000Y-163500000D02*
X95850000Y-163500000D01*
X95850000Y-164500000D02*
X110750000Y-164500000D01*
X88550000Y-162150000D02*
X87550000Y-152150000D01*
X93550000Y-162150000D02*
X92550000Y-152150000D01*
X110750000Y-149800000D02*
X95850000Y-149800000D01*
X75250000Y-161950000D02*
X87150000Y-161950000D01*
X87150000Y-152350000D02*
X75250000Y-152350000D01*
X81480000Y-157150000D02*
G75*
G03*
X81480000Y-157150000I-1000000J0D01*
G01*
X131100000Y-94825000D02*
X138500000Y-94825000D01*
X136050000Y-93825000D02*
X135425000Y-94825000D01*
X136675000Y-94825000D02*
X136050000Y-93825000D01*
X131100000Y-89075000D02*
X131100000Y-94825000D01*
X138500000Y-94825000D02*
X138500000Y-89075000D01*
X138500000Y-89075000D02*
X131100000Y-89075000D01*
X116850000Y-139600000D02*
X112350000Y-139600000D01*
X112350000Y-139600000D02*
X112350000Y-151500000D01*
X114600000Y-153170000D02*
X114600000Y-151500000D01*
X114600000Y-137930000D02*
X114600000Y-139600000D01*
X116850000Y-151500000D02*
X116850000Y-139600000D01*
X112350000Y-151500000D02*
X116850000Y-151500000D01*
X106380000Y-107700000D02*
X108050000Y-107700000D01*
X108050000Y-105450000D02*
X108050000Y-109950000D01*
X119950000Y-105450000D02*
X108050000Y-105450000D01*
X108050000Y-109950000D02*
X119950000Y-109950000D01*
X119950000Y-109950000D02*
X119950000Y-105450000D01*
X121620000Y-107700000D02*
X119950000Y-107700000D01*
X122050000Y-154200000D02*
X133950000Y-154200000D01*
X135620000Y-151950000D02*
X133950000Y-151950000D01*
X120380000Y-151950000D02*
X122050000Y-151950000D01*
X133950000Y-149700000D02*
X122050000Y-149700000D01*
X133950000Y-154200000D02*
X133950000Y-149700000D01*
X122050000Y-149700000D02*
X122050000Y-154200000D01*
X139200000Y-109950000D02*
X139200000Y-105450000D01*
X127300000Y-105450000D02*
X127300000Y-109950000D01*
X125630000Y-107700000D02*
X127300000Y-107700000D01*
X127300000Y-109950000D02*
X139200000Y-109950000D01*
X140870000Y-107700000D02*
X139200000Y-107700000D01*
X139200000Y-105450000D02*
X127300000Y-105450000D01*
X122050000Y-155700000D02*
X122050000Y-160200000D01*
X133950000Y-160200000D02*
X133950000Y-155700000D01*
X135620000Y-157950000D02*
X133950000Y-157950000D01*
X120380000Y-157950000D02*
X122050000Y-157950000D01*
X133950000Y-155700000D02*
X122050000Y-155700000D01*
X122050000Y-160200000D02*
X133950000Y-160200000D01*
X125630000Y-101950000D02*
X127300000Y-101950000D01*
X140870000Y-101950000D02*
X139200000Y-101950000D01*
X139200000Y-99700000D02*
X127300000Y-99700000D01*
X139200000Y-104200000D02*
X139200000Y-99700000D01*
X127300000Y-99700000D02*
X127300000Y-104200000D01*
X127300000Y-104200000D02*
X139200000Y-104200000D01*
X92840000Y-91575000D02*
X92840000Y-93825000D01*
X96140000Y-96200000D02*
X96140000Y-89200000D01*
X103790000Y-96200000D02*
X96140000Y-96200000D01*
X103790000Y-89200000D02*
X103790000Y-96200000D01*
X96140000Y-89200000D02*
X103790000Y-89200000D01*
X92840000Y-91575000D02*
X96140000Y-91575000D01*
X92840000Y-93825000D02*
X96140000Y-93825000D01*
X149100000Y-126000000D02*
X149100000Y-116500000D01*
X146500000Y-113630000D02*
X146500000Y-116500000D01*
X143900000Y-116500000D02*
X143900000Y-126000000D01*
X143900000Y-124675000D02*
X149100000Y-124675000D01*
X143900000Y-126000000D02*
X149100000Y-126000000D01*
X146500000Y-128870000D02*
X146500000Y-126000000D01*
X143900000Y-124575000D02*
X149100000Y-124575000D01*
X149100000Y-116500000D02*
X143900000Y-116500000D01*
X143900000Y-124475000D02*
X149100000Y-124475000D01*
X144700000Y-154750000D02*
G75*
G03*
X144700000Y-154750000I-3000000J0D01*
G01*
X152550000Y-133350000D02*
X148150000Y-133350000D01*
X148150000Y-143350000D02*
X152550000Y-143350000D01*
X148150000Y-141750000D02*
X144350000Y-141750000D01*
X151280000Y-133350000D02*
X151280000Y-143350000D01*
X152550000Y-136500000D02*
X151280000Y-136500000D01*
X152550000Y-140200000D02*
X151280000Y-140200000D01*
X148150000Y-136650000D02*
X148050000Y-136650000D01*
X148150000Y-138350000D02*
X144350000Y-138350000D01*
X152550000Y-143350000D02*
X152550000Y-133350000D01*
X148150000Y-133350000D02*
X148150000Y-143350000D01*
X148150000Y-134950000D02*
X144350000Y-134950000D01*
X148150000Y-140050000D02*
X148050000Y-140050000D01*
X87400000Y-133350000D02*
X87400000Y-146050000D01*
X87400000Y-134900000D02*
X75500000Y-134900000D01*
X96100000Y-133350000D02*
X87400000Y-133350000D01*
X88800000Y-144700000D02*
X87800000Y-134700000D01*
X90800000Y-144700000D02*
X89800000Y-134700000D01*
X91800000Y-144700000D02*
X90800000Y-134700000D01*
X89800000Y-144700000D02*
X88800000Y-134700000D01*
X93800000Y-144700000D02*
X92800000Y-134700000D01*
X96100000Y-132350000D02*
X96100000Y-147050000D01*
X75500000Y-134900000D02*
X75500000Y-144500000D01*
X87400000Y-146050000D02*
X96100000Y-146050000D01*
X111000000Y-147050000D02*
X111000000Y-132350000D01*
X96100000Y-147050000D02*
X111000000Y-147050000D01*
X75500000Y-144500000D02*
X87400000Y-144500000D01*
X111000000Y-132350000D02*
X96100000Y-132350000D01*
X92800000Y-144700000D02*
X91800000Y-134700000D01*
X94800000Y-144700000D02*
X93800000Y-134700000D01*
X81730000Y-139700000D02*
G75*
G03*
X81730000Y-139700000I-1000000J0D01*
G01*
X144450000Y-78900000D02*
X158750000Y-78900000D01*
X144450000Y-78900000D02*
X144450000Y-86900000D01*
X158750000Y-78900000D02*
X158750000Y-87900000D01*
X145450000Y-87900000D02*
X144450000Y-86900000D01*
X158750000Y-87900000D02*
X145450000Y-87900000D01*
X101975000Y-108965000D02*
X101975000Y-108965000D01*
X100705000Y-106425000D02*
X101975000Y-106425000D01*
X100705000Y-110195000D02*
X94605000Y-110195000D01*
X101975000Y-106425000D02*
X101975000Y-106425000D01*
X101975000Y-106425000D02*
X100705000Y-106425000D01*
X100705000Y-105195000D02*
X100705000Y-110195000D01*
X100705000Y-108965000D02*
X100705000Y-108965000D01*
X99705000Y-110195000D02*
X100705000Y-110195000D01*
X100705000Y-105195000D02*
X94605000Y-105195000D01*
X99705000Y-110595000D02*
X99705000Y-110195000D01*
X100705000Y-106425000D02*
X100705000Y-106425000D01*
X100705000Y-110595000D02*
X99705000Y-110595000D01*
X100705000Y-108965000D02*
X101975000Y-108965000D01*
X100705000Y-110195000D02*
X100705000Y-110595000D01*
X101975000Y-108965000D02*
X100705000Y-108965000D01*
X94605000Y-105195000D02*
G75*
G03*
X94605000Y-110195000I0J-2500000D01*
G01*
X143470590Y-103402500D02*
X144270590Y-103402500D01*
X143870590Y-103002500D02*
X143870590Y-103802500D01*
X150897349Y-105150000D02*
G75*
G03*
X150897349Y-105150000I-4000000J0D01*
G01*
X136500000Y-80700000D02*
X132750000Y-80700000D01*
X134610000Y-84780000D02*
G75*
G03*
X136502818Y-80697615I0J2480000D01*
G01*
X132708897Y-80707453D02*
G75*
G03*
X134610000Y-84780000I1901103J-1592547D01*
G01*
X92840000Y-82075000D02*
X92840000Y-84325000D01*
X96140000Y-86700000D02*
X96140000Y-79700000D01*
X103790000Y-86700000D02*
X96140000Y-86700000D01*
X92840000Y-84325000D02*
X96140000Y-84325000D01*
X96140000Y-79700000D02*
X103790000Y-79700000D01*
X103790000Y-79700000D02*
X103790000Y-86700000D01*
X92840000Y-82075000D02*
X96140000Y-82075000D01*
X117050000Y-131925000D02*
X117050000Y-137675000D01*
X129450000Y-131925000D02*
X117050000Y-131925000D01*
X117050000Y-137675000D02*
X129450000Y-137675000D01*
X129450000Y-137675000D02*
X129450000Y-131925000D01*
X127625000Y-137675000D02*
X127000000Y-136675000D01*
X127000000Y-136675000D02*
X126375000Y-137675000D01*
X123135000Y-92182000D02*
X128465000Y-92182000D01*
X125800000Y-96570000D02*
X125800000Y-93710000D01*
X128465000Y-84190000D02*
X123135000Y-84190000D01*
X123135000Y-93710000D02*
X128465000Y-93710000D01*
X128465000Y-93710000D02*
X128465000Y-84190000D01*
X123135000Y-84190000D02*
X123135000Y-93710000D01*
X125800000Y-81330000D02*
X125800000Y-84190000D01*
X123135000Y-92382000D02*
X128465000Y-92382000D01*
X123135000Y-92282000D02*
X128465000Y-92282000D01*
X119950000Y-103950000D02*
X119950000Y-99450000D01*
X119950000Y-99450000D02*
X108050000Y-99450000D01*
X121620000Y-101700000D02*
X119950000Y-101700000D01*
X108050000Y-103950000D02*
X119950000Y-103950000D01*
X108050000Y-99450000D02*
X108050000Y-103950000D01*
X106380000Y-101700000D02*
X108050000Y-101700000D01*
X140288500Y-142238649D02*
X139658500Y-142238649D01*
X139973500Y-141923649D02*
X139973500Y-142553649D01*
X141750000Y-144617621D02*
G75*
G03*
X141750000Y-144617621I-3150000J0D01*
G01*
X100705000Y-98195000D02*
X100705000Y-103195000D01*
X100705000Y-101965000D02*
X101975000Y-101965000D01*
X100705000Y-103595000D02*
X99705000Y-103595000D01*
X100705000Y-99425000D02*
X101975000Y-99425000D01*
X100705000Y-101965000D02*
X100705000Y-101965000D01*
X101975000Y-101965000D02*
X101975000Y-101965000D01*
X100705000Y-98195000D02*
X94605000Y-98195000D01*
X101975000Y-99425000D02*
X101975000Y-99425000D01*
X101975000Y-99425000D02*
X100705000Y-99425000D01*
X100705000Y-103195000D02*
X100705000Y-103595000D01*
X99705000Y-103595000D02*
X99705000Y-103195000D01*
X100705000Y-103195000D02*
X94605000Y-103195000D01*
X100705000Y-99425000D02*
X100705000Y-99425000D01*
X99705000Y-103195000D02*
X100705000Y-103195000D01*
X101975000Y-101965000D02*
X100705000Y-101965000D01*
X94605000Y-98195000D02*
G75*
G03*
X94605000Y-103195000I0J-2500000D01*
G01*
X140350000Y-131750000D02*
X132850000Y-131750000D01*
X132850000Y-131750000D02*
X132850000Y-136150000D01*
X132850000Y-136150000D02*
X140350000Y-136150000D01*
X140350000Y-136150000D02*
X140350000Y-131750000D01*
X127875000Y-145175000D02*
X127250000Y-144175000D01*
X129700000Y-145175000D02*
X129700000Y-139425000D01*
X119800000Y-139425000D02*
X119800000Y-145175000D01*
X129700000Y-139425000D02*
X119800000Y-139425000D01*
X119800000Y-145175000D02*
X129700000Y-145175000D01*
X127250000Y-144175000D02*
X126625000Y-145175000D01*
M02*
