G04 #@! TF.GenerationSoftware,KiCad,Pcbnew,5.1.6-c6e7f7d~87~ubuntu20.04.1*
G04 #@! TF.CreationDate,2020-07-24T19:13:23+01:00*
G04 #@! TF.ProjectId,OpenSpritzer_1.3,4f70656e-5370-4726-9974-7a65725f312e,rev?*
G04 #@! TF.SameCoordinates,Original*
G04 #@! TF.FileFunction,Copper,L1,Top*
G04 #@! TF.FilePolarity,Positive*
%FSLAX46Y46*%
G04 Gerber Fmt 4.6, Leading zero omitted, Abs format (unit mm)*
G04 Created by KiCad (PCBNEW 5.1.6-c6e7f7d~87~ubuntu20.04.1) date 2020-07-24 19:13:23*
%MOMM*%
%LPD*%
G01*
G04 APERTURE LIST*
G04 #@! TA.AperFunction,ComponentPad*
%ADD10C,1.750000*%
G04 #@! TD*
G04 #@! TA.AperFunction,ComponentPad*
%ADD11R,1.750000X1.750000*%
G04 #@! TD*
G04 #@! TA.AperFunction,ComponentPad*
%ADD12C,1.800000*%
G04 #@! TD*
G04 #@! TA.AperFunction,ComponentPad*
%ADD13O,2.600000X2.600000*%
G04 #@! TD*
G04 #@! TA.AperFunction,ComponentPad*
%ADD14R,2.600000X2.600000*%
G04 #@! TD*
G04 #@! TA.AperFunction,ComponentPad*
%ADD15C,1.600000*%
G04 #@! TD*
G04 #@! TA.AperFunction,ComponentPad*
%ADD16O,1.600000X1.600000*%
G04 #@! TD*
G04 #@! TA.AperFunction,ComponentPad*
%ADD17C,2.000000*%
G04 #@! TD*
G04 #@! TA.AperFunction,ComponentPad*
%ADD18R,1.600000X1.600000*%
G04 #@! TD*
G04 #@! TA.AperFunction,ComponentPad*
%ADD19R,1.500000X1.500000*%
G04 #@! TD*
G04 #@! TA.AperFunction,ComponentPad*
%ADD20C,1.500000*%
G04 #@! TD*
G04 #@! TA.AperFunction,ComponentPad*
%ADD21R,3.500000X3.500000*%
G04 #@! TD*
G04 #@! TA.AperFunction,ComponentPad*
%ADD22C,2.500000*%
G04 #@! TD*
G04 #@! TA.AperFunction,ComponentPad*
%ADD23R,3.200000X3.200000*%
G04 #@! TD*
G04 #@! TA.AperFunction,ComponentPad*
%ADD24O,3.200000X3.200000*%
G04 #@! TD*
G04 #@! TA.AperFunction,ComponentPad*
%ADD25R,0.750000X1.750000*%
G04 #@! TD*
G04 #@! TA.AperFunction,ComponentPad*
%ADD26C,1.850000*%
G04 #@! TD*
G04 #@! TA.AperFunction,ComponentPad*
%ADD27O,7.000240X3.500120*%
G04 #@! TD*
G04 #@! TA.AperFunction,ComponentPad*
%ADD28O,2.499360X1.600200*%
G04 #@! TD*
G04 #@! TA.AperFunction,ComponentPad*
%ADD29R,1.800000X1.800000*%
G04 #@! TD*
G04 #@! TA.AperFunction,ComponentPad*
%ADD30O,1.800000X1.800000*%
G04 #@! TD*
G04 #@! TA.AperFunction,ViaPad*
%ADD31C,0.800000*%
G04 #@! TD*
G04 #@! TA.AperFunction,Conductor*
%ADD32C,0.250000*%
G04 #@! TD*
G04 #@! TA.AperFunction,Conductor*
%ADD33C,1.000000*%
G04 #@! TD*
G04 APERTURE END LIST*
D10*
X154500000Y-86700000D03*
X154500000Y-84200000D03*
D11*
X154500000Y-81700000D03*
X154500000Y-141700000D03*
D10*
X154500000Y-144200000D03*
D11*
X154500000Y-131950000D03*
D10*
X154500000Y-134450000D03*
D12*
X145260000Y-143480000D03*
X142760000Y-143480000D03*
X140260000Y-143480000D03*
D13*
X153340000Y-100630000D03*
D14*
X153340000Y-115870000D03*
D15*
X136500000Y-90950000D03*
D16*
X148680000Y-90950000D03*
D15*
X148000000Y-130950000D03*
D16*
X135820000Y-130950000D03*
D15*
X148000000Y-135450000D03*
D16*
X135820000Y-135450000D03*
D15*
X136500000Y-95950000D03*
D16*
X148680000Y-95950000D03*
D15*
X121250000Y-90950000D03*
D16*
X133430000Y-90950000D03*
D15*
X133500000Y-95950000D03*
D16*
X121320000Y-95950000D03*
D17*
X146175000Y-122950000D03*
X142175000Y-122950000D03*
D18*
X137200000Y-100000000D03*
D16*
X104180000Y-115240000D03*
X134660000Y-100000000D03*
X106720000Y-115240000D03*
X132120000Y-100000000D03*
X109260000Y-115240000D03*
X129580000Y-100000000D03*
X111800000Y-115240000D03*
X127040000Y-100000000D03*
X114340000Y-115240000D03*
X124500000Y-100000000D03*
X116880000Y-115240000D03*
X121960000Y-100000000D03*
X119420000Y-115240000D03*
X119420000Y-100000000D03*
X121960000Y-115240000D03*
X116880000Y-100000000D03*
X124500000Y-115240000D03*
X114340000Y-100000000D03*
X127040000Y-115240000D03*
X111800000Y-100000000D03*
X129580000Y-115240000D03*
X109260000Y-100000000D03*
X132120000Y-115240000D03*
X106720000Y-100000000D03*
X134660000Y-115240000D03*
X104180000Y-100000000D03*
X137200000Y-115240000D03*
X101640000Y-100000000D03*
X101640000Y-115240000D03*
D19*
X144750000Y-99950000D03*
D20*
X144750000Y-105030000D03*
X144750000Y-102490000D03*
G04 #@! TA.AperFunction,ComponentPad*
G36*
G01*
X146625000Y-70650000D02*
X148375000Y-70650000D01*
G75*
G02*
X149250000Y-71525000I0J-875000D01*
G01*
X149250000Y-73275000D01*
G75*
G02*
X148375000Y-74150000I-875000J0D01*
G01*
X146625000Y-74150000D01*
G75*
G02*
X145750000Y-73275000I0J875000D01*
G01*
X145750000Y-71525000D01*
G75*
G02*
X146625000Y-70650000I875000J0D01*
G01*
G37*
G04 #@! TD.AperFunction*
G04 #@! TA.AperFunction,ComponentPad*
G36*
G01*
X151500000Y-67350000D02*
X153500000Y-67350000D01*
G75*
G02*
X154250000Y-68100000I0J-750000D01*
G01*
X154250000Y-69600000D01*
G75*
G02*
X153500000Y-70350000I-750000J0D01*
G01*
X151500000Y-70350000D01*
G75*
G02*
X150750000Y-69600000I0J750000D01*
G01*
X150750000Y-68100000D01*
G75*
G02*
X151500000Y-67350000I750000J0D01*
G01*
G37*
G04 #@! TD.AperFunction*
D21*
X152500000Y-75450000D03*
D22*
X152500000Y-65050000D03*
D23*
X137800000Y-122950000D03*
D24*
X125100000Y-122950000D03*
D25*
X117460000Y-137930000D03*
X120000000Y-137930000D03*
X122540000Y-137930000D03*
X117460000Y-140470000D03*
X120000000Y-140470000D03*
X122540000Y-140470000D03*
D26*
X117300000Y-145550000D03*
X122700000Y-145550000D03*
D18*
X130200000Y-146050000D03*
D15*
X130200000Y-142550000D03*
X130000000Y-131450000D03*
D18*
X130000000Y-134950000D03*
D27*
X108111600Y-90097780D03*
X108111600Y-79899680D03*
D28*
X112376260Y-85000000D03*
X112376260Y-87499360D03*
D18*
X145500000Y-108700000D03*
D16*
X145500000Y-116320000D03*
D29*
X112400000Y-141150000D03*
D30*
X110700000Y-144850000D03*
X109000000Y-141150000D03*
X107300000Y-144850000D03*
X105600000Y-141150000D03*
D28*
X112301260Y-132499360D03*
X112301260Y-130000000D03*
D27*
X108036600Y-124899680D03*
X108036600Y-135097780D03*
D31*
X114000000Y-120700000D03*
X127750000Y-119490000D03*
X138750000Y-135700000D03*
X138750000Y-131450000D03*
D32*
X128000000Y-134950000D02*
X130000000Y-134950000D01*
X126500000Y-136450000D02*
X128000000Y-134950000D01*
X126500000Y-139500000D02*
X126500000Y-136450000D01*
X122900000Y-143100000D02*
X126500000Y-139500000D01*
X107300000Y-144850000D02*
X109050000Y-143100000D01*
X109050000Y-143100000D02*
X122900000Y-143100000D01*
X130000000Y-134950000D02*
X133500000Y-134950000D01*
X133500000Y-134950000D02*
X135250000Y-133200000D01*
X135250000Y-133200000D02*
X143500000Y-133200000D01*
X143500000Y-133200000D02*
X144500000Y-132200000D01*
X144500000Y-132200000D02*
X144500000Y-128950000D01*
X146175000Y-127275000D02*
X146175000Y-122950000D01*
X144500000Y-128950000D02*
X146175000Y-127275000D01*
X129580000Y-99630000D02*
X129580000Y-100000000D01*
X139250000Y-108950000D02*
X114538630Y-108950000D01*
X142750000Y-115950000D02*
X142750000Y-112450000D01*
X122540000Y-135990000D02*
X112000000Y-125450000D01*
X122540000Y-137930000D02*
X122540000Y-135990000D01*
X142750000Y-112450000D02*
X139250000Y-108950000D01*
X112000000Y-125450000D02*
X112000000Y-119450000D01*
X114538630Y-108950000D02*
X106720000Y-101131370D01*
X112000000Y-119450000D02*
X114250000Y-117200000D01*
X114250000Y-117200000D02*
X141500000Y-117200000D01*
X106720000Y-101131370D02*
X106720000Y-100000000D01*
X141500000Y-117200000D02*
X142750000Y-115950000D01*
X144000000Y-112200000D02*
X138130000Y-106330000D01*
X142250000Y-118200000D02*
X144000000Y-116450000D01*
X114500000Y-118200000D02*
X142250000Y-118200000D01*
X125750000Y-106330000D02*
X119420000Y-100000000D01*
X123165000Y-140470000D02*
X124900000Y-138735000D01*
X122540000Y-140470000D02*
X123165000Y-140470000D01*
X124900000Y-138735000D02*
X124900000Y-136600000D01*
X124900000Y-136600000D02*
X113000000Y-124700000D01*
X144000000Y-116450000D02*
X144000000Y-112200000D01*
X113000000Y-124700000D02*
X113000000Y-119700000D01*
X138130000Y-106330000D02*
X125750000Y-106330000D01*
X113000000Y-119700000D02*
X114500000Y-118200000D01*
X127040000Y-98868630D02*
X127040000Y-100000000D01*
X127040000Y-96208630D02*
X127040000Y-98868630D01*
X132298630Y-90950000D02*
X127040000Y-96208630D01*
X133430000Y-90950000D02*
X132298630Y-90950000D01*
X135820000Y-129818630D02*
X133701370Y-127700000D01*
X135820000Y-130950000D02*
X135820000Y-129818630D01*
X133701370Y-127700000D02*
X118750000Y-127700000D01*
X118750000Y-127700000D02*
X114000000Y-122950000D01*
X114000000Y-122950000D02*
X114000000Y-120700000D01*
X114000000Y-120700000D02*
X114000000Y-120700000D01*
X127750000Y-119490000D02*
X143710000Y-119490000D01*
X143710000Y-119490000D02*
X145500000Y-117700000D01*
X145500000Y-117700000D02*
X145500000Y-116320000D01*
X115300000Y-85000000D02*
X121250000Y-90950000D01*
X112376260Y-85000000D02*
X115300000Y-85000000D01*
X134500000Y-88950000D02*
X136500000Y-90950000D01*
X121250000Y-90950000D02*
X123250000Y-88950000D01*
X123250000Y-88950000D02*
X134500000Y-88950000D01*
X146070000Y-102490000D02*
X144750000Y-102490000D01*
X148680000Y-95950000D02*
X148680000Y-99880000D01*
X148680000Y-99880000D02*
X146070000Y-102490000D01*
X146180000Y-93450000D02*
X148680000Y-95950000D01*
X133500000Y-95950000D02*
X136000000Y-93450000D01*
X136000000Y-93450000D02*
X146180000Y-93450000D01*
D33*
X130200000Y-147100000D02*
X131700000Y-148600000D01*
X130200000Y-146050000D02*
X130200000Y-147100000D01*
X151000000Y-111980000D02*
X153340000Y-114320000D01*
X151000000Y-90450000D02*
X151000000Y-111980000D01*
X153340000Y-114320000D02*
X153340000Y-115870000D01*
X150000000Y-140205000D02*
X150000000Y-120760000D01*
X150000000Y-120760000D02*
X150000000Y-119450000D01*
X150000000Y-117660000D02*
X150000000Y-118700000D01*
X151790000Y-115870000D02*
X150000000Y-117660000D01*
D32*
X153340000Y-115870000D02*
X151790000Y-115870000D01*
D33*
X150000000Y-119450000D02*
X150000000Y-118700000D01*
D32*
X150000000Y-118700000D02*
X150000000Y-118200000D01*
D33*
X145100000Y-148600000D02*
X131700000Y-148600000D01*
X151495000Y-141700000D02*
X154500000Y-141700000D01*
X150000000Y-140205000D02*
X151495000Y-141700000D01*
D32*
X152000000Y-141700000D02*
X154500000Y-141700000D01*
D33*
X145100000Y-148600000D02*
X152000000Y-141700000D01*
D32*
X153375000Y-81700000D02*
X154500000Y-81700000D01*
D33*
X152500000Y-80825000D02*
X153375000Y-81700000D01*
X152500000Y-75450000D02*
X152500000Y-80825000D01*
X151000000Y-87700000D02*
X154500000Y-84200000D01*
X151000000Y-90450000D02*
X151000000Y-87700000D01*
D32*
X111599999Y-143950001D02*
X110700000Y-144850000D01*
X123999999Y-143950001D02*
X111599999Y-143950001D01*
X139650000Y-122950000D02*
X142175000Y-122950000D01*
X137800000Y-122950000D02*
X139650000Y-122950000D01*
X123999999Y-143950001D02*
X129000000Y-138950000D01*
X129000000Y-138950000D02*
X129250000Y-139200000D01*
X129250000Y-139200000D02*
X135250000Y-139200000D01*
X135250000Y-139200000D02*
X138750000Y-135700000D01*
X138750000Y-135700000D02*
X138750000Y-135700000D01*
X138750000Y-123900000D02*
X137800000Y-122950000D01*
X138750000Y-131450000D02*
X138750000Y-130450000D01*
X138750000Y-130450000D02*
X138750000Y-129950000D01*
X138750000Y-130200000D02*
X138750000Y-129950000D01*
X138750000Y-129950000D02*
X138750000Y-123900000D01*
X117460000Y-136805000D02*
X117460000Y-137930000D01*
X117460000Y-133659060D02*
X117460000Y-136805000D01*
X113800940Y-130000000D02*
X117460000Y-133659060D01*
X112301260Y-130000000D02*
X113800940Y-130000000D01*
X117460000Y-137930000D02*
X117460000Y-140470000D01*
M02*
