G04 #@! TF.GenerationSoftware,KiCad,Pcbnew,6.0.7-f9a2dced07~116~ubuntu20.04.1*
G04 #@! TF.CreationDate,2022-10-13T01:02:25+01:00*
G04 #@! TF.ProjectId,OpenSpritzer_1.4,4f70656e-5370-4726-9974-7a65725f312e,rev?*
G04 #@! TF.SameCoordinates,Original*
G04 #@! TF.FileFunction,Legend,Top*
G04 #@! TF.FilePolarity,Positive*
%FSLAX46Y46*%
G04 Gerber Fmt 4.6, Leading zero omitted, Abs format (unit mm)*
G04 Created by KiCad (PCBNEW 6.0.7-f9a2dced07~116~ubuntu20.04.1) date 2022-10-13 01:02:25*
%MOMM*%
%LPD*%
G01*
G04 APERTURE LIST*
%ADD10C,0.300000*%
%ADD11C,0.125000*%
%ADD12C,0.500000*%
%ADD13C,0.150000*%
%ADD14C,0.120000*%
G04 APERTURE END LIST*
D10*
X218678571Y-131557142D02*
X219821428Y-131557142D01*
X219250000Y-132128571D02*
X219250000Y-130985714D01*
D11*
X119319345Y-164597380D02*
X119319345Y-163597380D01*
X119319345Y-163978333D02*
X119414583Y-163930714D01*
X119605059Y-163930714D01*
X119700297Y-163978333D01*
X119747916Y-164025952D01*
X119795535Y-164121190D01*
X119795535Y-164406904D01*
X119747916Y-164502142D01*
X119700297Y-164549761D01*
X119605059Y-164597380D01*
X119414583Y-164597380D01*
X119319345Y-164549761D01*
X120128869Y-163930714D02*
X120366964Y-164597380D01*
X120605059Y-163930714D02*
X120366964Y-164597380D01*
X120271726Y-164835476D01*
X120224107Y-164883095D01*
X120128869Y-164930714D01*
X121747916Y-164597380D02*
X121747916Y-163597380D01*
X122081250Y-164311666D01*
X122414583Y-163597380D01*
X122414583Y-164597380D01*
X123176488Y-163597380D02*
X123176488Y-164311666D01*
X123128869Y-164454523D01*
X123033630Y-164549761D01*
X122890773Y-164597380D01*
X122795535Y-164597380D01*
X123843154Y-164121190D02*
X123843154Y-164597380D01*
X123509821Y-163597380D02*
X123843154Y-164121190D01*
X124176488Y-163597380D01*
X125176488Y-163597380D02*
X125843154Y-163597380D01*
X125176488Y-164597380D01*
X125843154Y-164597380D01*
X126224107Y-164597380D02*
X126224107Y-163930714D01*
X126224107Y-163597380D02*
X126176488Y-163645000D01*
X126224107Y-163692619D01*
X126271726Y-163645000D01*
X126224107Y-163597380D01*
X126224107Y-163692619D01*
X126700297Y-164597380D02*
X126700297Y-163930714D01*
X126700297Y-164025952D02*
X126747916Y-163978333D01*
X126843154Y-163930714D01*
X126986011Y-163930714D01*
X127081250Y-163978333D01*
X127128869Y-164073571D01*
X127128869Y-164597380D01*
X127128869Y-164073571D02*
X127176488Y-163978333D01*
X127271726Y-163930714D01*
X127414583Y-163930714D01*
X127509821Y-163978333D01*
X127557440Y-164073571D01*
X127557440Y-164597380D01*
X128033630Y-164597380D02*
X128033630Y-163930714D01*
X128033630Y-164025952D02*
X128081250Y-163978333D01*
X128176488Y-163930714D01*
X128319345Y-163930714D01*
X128414583Y-163978333D01*
X128462202Y-164073571D01*
X128462202Y-164597380D01*
X128462202Y-164073571D02*
X128509821Y-163978333D01*
X128605059Y-163930714D01*
X128747916Y-163930714D01*
X128843154Y-163978333D01*
X128890773Y-164073571D01*
X128890773Y-164597380D01*
X129747916Y-164549761D02*
X129652678Y-164597380D01*
X129462202Y-164597380D01*
X129366964Y-164549761D01*
X129319345Y-164454523D01*
X129319345Y-164073571D01*
X129366964Y-163978333D01*
X129462202Y-163930714D01*
X129652678Y-163930714D01*
X129747916Y-163978333D01*
X129795535Y-164073571D01*
X129795535Y-164168809D01*
X129319345Y-164264047D01*
X130224107Y-164597380D02*
X130224107Y-163930714D01*
X130224107Y-164121190D02*
X130271726Y-164025952D01*
X130319345Y-163978333D01*
X130414583Y-163930714D01*
X130509821Y-163930714D01*
X130843154Y-164597380D02*
X130843154Y-163930714D01*
X130843154Y-164025952D02*
X130890773Y-163978333D01*
X130986011Y-163930714D01*
X131128869Y-163930714D01*
X131224107Y-163978333D01*
X131271726Y-164073571D01*
X131271726Y-164597380D01*
X131271726Y-164073571D02*
X131319345Y-163978333D01*
X131414583Y-163930714D01*
X131557440Y-163930714D01*
X131652678Y-163978333D01*
X131700297Y-164073571D01*
X131700297Y-164597380D01*
X132605059Y-164597380D02*
X132605059Y-164073571D01*
X132557440Y-163978333D01*
X132462202Y-163930714D01*
X132271726Y-163930714D01*
X132176488Y-163978333D01*
X132605059Y-164549761D02*
X132509821Y-164597380D01*
X132271726Y-164597380D01*
X132176488Y-164549761D01*
X132128869Y-164454523D01*
X132128869Y-164359285D01*
X132176488Y-164264047D01*
X132271726Y-164216428D01*
X132509821Y-164216428D01*
X132605059Y-164168809D01*
X133081250Y-163930714D02*
X133081250Y-164597380D01*
X133081250Y-164025952D02*
X133128869Y-163978333D01*
X133224107Y-163930714D01*
X133366964Y-163930714D01*
X133462202Y-163978333D01*
X133509821Y-164073571D01*
X133509821Y-164597380D01*
X133986011Y-163930714D02*
X133986011Y-164597380D01*
X133986011Y-164025952D02*
X134033630Y-163978333D01*
X134128869Y-163930714D01*
X134271726Y-163930714D01*
X134366964Y-163978333D01*
X134414583Y-164073571D01*
X134414583Y-164597380D01*
X136462202Y-164597380D02*
X136414583Y-164597380D01*
X136319345Y-164549761D01*
X136176488Y-164406904D01*
X135938392Y-164121190D01*
X135843154Y-163978333D01*
X135795535Y-163835476D01*
X135795535Y-163740238D01*
X135843154Y-163645000D01*
X135938392Y-163597380D01*
X135986011Y-163597380D01*
X136081250Y-163645000D01*
X136128869Y-163740238D01*
X136128869Y-163787857D01*
X136081250Y-163883095D01*
X136033630Y-163930714D01*
X135747916Y-164121190D01*
X135700297Y-164168809D01*
X135652678Y-164264047D01*
X135652678Y-164406904D01*
X135700297Y-164502142D01*
X135747916Y-164549761D01*
X135843154Y-164597380D01*
X135986011Y-164597380D01*
X136081250Y-164549761D01*
X136128869Y-164502142D01*
X136271726Y-164311666D01*
X136319345Y-164168809D01*
X136319345Y-164073571D01*
X137605059Y-164311666D02*
X138081250Y-164311666D01*
X137509821Y-164597380D02*
X137843154Y-163597380D01*
X138176488Y-164597380D01*
X138509821Y-164597380D02*
X138509821Y-163597380D01*
X138843154Y-164311666D01*
X139176488Y-163597380D01*
X139176488Y-164597380D01*
X140986011Y-164502142D02*
X140938392Y-164549761D01*
X140795535Y-164597380D01*
X140700297Y-164597380D01*
X140557440Y-164549761D01*
X140462202Y-164454523D01*
X140414583Y-164359285D01*
X140366964Y-164168809D01*
X140366964Y-164025952D01*
X140414583Y-163835476D01*
X140462202Y-163740238D01*
X140557440Y-163645000D01*
X140700297Y-163597380D01*
X140795535Y-163597380D01*
X140938392Y-163645000D01*
X140986011Y-163692619D01*
X141414583Y-164597380D02*
X141414583Y-163597380D01*
X141843154Y-164597380D02*
X141843154Y-164073571D01*
X141795535Y-163978333D01*
X141700297Y-163930714D01*
X141557440Y-163930714D01*
X141462202Y-163978333D01*
X141414583Y-164025952D01*
X142747916Y-164597380D02*
X142747916Y-164073571D01*
X142700297Y-163978333D01*
X142605059Y-163930714D01*
X142414583Y-163930714D01*
X142319345Y-163978333D01*
X142747916Y-164549761D02*
X142652678Y-164597380D01*
X142414583Y-164597380D01*
X142319345Y-164549761D01*
X142271726Y-164454523D01*
X142271726Y-164359285D01*
X142319345Y-164264047D01*
X142414583Y-164216428D01*
X142652678Y-164216428D01*
X142747916Y-164168809D01*
X143652678Y-163930714D02*
X143652678Y-164740238D01*
X143605059Y-164835476D01*
X143557440Y-164883095D01*
X143462202Y-164930714D01*
X143319345Y-164930714D01*
X143224107Y-164883095D01*
X143652678Y-164549761D02*
X143557440Y-164597380D01*
X143366964Y-164597380D01*
X143271726Y-164549761D01*
X143224107Y-164502142D01*
X143176488Y-164406904D01*
X143176488Y-164121190D01*
X143224107Y-164025952D01*
X143271726Y-163978333D01*
X143366964Y-163930714D01*
X143557440Y-163930714D01*
X143652678Y-163978333D01*
X144557440Y-164597380D02*
X144557440Y-164073571D01*
X144509821Y-163978333D01*
X144414583Y-163930714D01*
X144224107Y-163930714D01*
X144128869Y-163978333D01*
X144557440Y-164549761D02*
X144462202Y-164597380D01*
X144224107Y-164597380D01*
X144128869Y-164549761D01*
X144081250Y-164454523D01*
X144081250Y-164359285D01*
X144128869Y-164264047D01*
X144224107Y-164216428D01*
X144462202Y-164216428D01*
X144557440Y-164168809D01*
X144986011Y-164549761D02*
X145081250Y-164597380D01*
X145271726Y-164597380D01*
X145366964Y-164549761D01*
X145414583Y-164454523D01*
X145414583Y-164406904D01*
X145366964Y-164311666D01*
X145271726Y-164264047D01*
X145128869Y-164264047D01*
X145033630Y-164216428D01*
X144986011Y-164121190D01*
X144986011Y-164073571D01*
X145033630Y-163978333D01*
X145128869Y-163930714D01*
X145271726Y-163930714D01*
X145366964Y-163978333D01*
X119890773Y-166207380D02*
X119557440Y-165731190D01*
X119319345Y-166207380D02*
X119319345Y-165207380D01*
X119700297Y-165207380D01*
X119795535Y-165255000D01*
X119843154Y-165302619D01*
X119890773Y-165397857D01*
X119890773Y-165540714D01*
X119843154Y-165635952D01*
X119795535Y-165683571D01*
X119700297Y-165731190D01*
X119319345Y-165731190D01*
X120700297Y-166159761D02*
X120605059Y-166207380D01*
X120414583Y-166207380D01*
X120319345Y-166159761D01*
X120271726Y-166064523D01*
X120271726Y-165683571D01*
X120319345Y-165588333D01*
X120414583Y-165540714D01*
X120605059Y-165540714D01*
X120700297Y-165588333D01*
X120747916Y-165683571D01*
X120747916Y-165778809D01*
X120271726Y-165874047D01*
X121319345Y-166207380D02*
X121224107Y-166159761D01*
X121176488Y-166064523D01*
X121176488Y-165207380D01*
X122081250Y-166159761D02*
X121986011Y-166207380D01*
X121795535Y-166207380D01*
X121700297Y-166159761D01*
X121652678Y-166064523D01*
X121652678Y-165683571D01*
X121700297Y-165588333D01*
X121795535Y-165540714D01*
X121986011Y-165540714D01*
X122081250Y-165588333D01*
X122128869Y-165683571D01*
X122128869Y-165778809D01*
X121652678Y-165874047D01*
X122986011Y-166207380D02*
X122986011Y-165683571D01*
X122938392Y-165588333D01*
X122843154Y-165540714D01*
X122652678Y-165540714D01*
X122557440Y-165588333D01*
X122986011Y-166159761D02*
X122890773Y-166207380D01*
X122652678Y-166207380D01*
X122557440Y-166159761D01*
X122509821Y-166064523D01*
X122509821Y-165969285D01*
X122557440Y-165874047D01*
X122652678Y-165826428D01*
X122890773Y-165826428D01*
X122986011Y-165778809D01*
X123414583Y-166159761D02*
X123509821Y-166207380D01*
X123700297Y-166207380D01*
X123795535Y-166159761D01*
X123843154Y-166064523D01*
X123843154Y-166016904D01*
X123795535Y-165921666D01*
X123700297Y-165874047D01*
X123557440Y-165874047D01*
X123462202Y-165826428D01*
X123414583Y-165731190D01*
X123414583Y-165683571D01*
X123462202Y-165588333D01*
X123557440Y-165540714D01*
X123700297Y-165540714D01*
X123795535Y-165588333D01*
X124652678Y-166159761D02*
X124557440Y-166207380D01*
X124366964Y-166207380D01*
X124271726Y-166159761D01*
X124224107Y-166064523D01*
X124224107Y-165683571D01*
X124271726Y-165588333D01*
X124366964Y-165540714D01*
X124557440Y-165540714D01*
X124652678Y-165588333D01*
X124700297Y-165683571D01*
X124700297Y-165778809D01*
X124224107Y-165874047D01*
X125557440Y-166207380D02*
X125557440Y-165207380D01*
X125557440Y-166159761D02*
X125462202Y-166207380D01*
X125271726Y-166207380D01*
X125176488Y-166159761D01*
X125128869Y-166112142D01*
X125081250Y-166016904D01*
X125081250Y-165731190D01*
X125128869Y-165635952D01*
X125176488Y-165588333D01*
X125271726Y-165540714D01*
X125462202Y-165540714D01*
X125557440Y-165588333D01*
X127224107Y-165540714D02*
X127224107Y-166207380D01*
X126795535Y-165540714D02*
X126795535Y-166064523D01*
X126843154Y-166159761D01*
X126938392Y-166207380D01*
X127081250Y-166207380D01*
X127176488Y-166159761D01*
X127224107Y-166112142D01*
X127700297Y-165540714D02*
X127700297Y-166207380D01*
X127700297Y-165635952D02*
X127747916Y-165588333D01*
X127843154Y-165540714D01*
X127986011Y-165540714D01*
X128081250Y-165588333D01*
X128128869Y-165683571D01*
X128128869Y-166207380D01*
X129033630Y-166207380D02*
X129033630Y-165207380D01*
X129033630Y-166159761D02*
X128938392Y-166207380D01*
X128747916Y-166207380D01*
X128652678Y-166159761D01*
X128605059Y-166112142D01*
X128557440Y-166016904D01*
X128557440Y-165731190D01*
X128605059Y-165635952D01*
X128652678Y-165588333D01*
X128747916Y-165540714D01*
X128938392Y-165540714D01*
X129033630Y-165588333D01*
X129890773Y-166159761D02*
X129795535Y-166207380D01*
X129605059Y-166207380D01*
X129509821Y-166159761D01*
X129462202Y-166064523D01*
X129462202Y-165683571D01*
X129509821Y-165588333D01*
X129605059Y-165540714D01*
X129795535Y-165540714D01*
X129890773Y-165588333D01*
X129938392Y-165683571D01*
X129938392Y-165778809D01*
X129462202Y-165874047D01*
X130366964Y-166207380D02*
X130366964Y-165540714D01*
X130366964Y-165731190D02*
X130414583Y-165635952D01*
X130462202Y-165588333D01*
X130557440Y-165540714D01*
X130652678Y-165540714D01*
X132319345Y-166112142D02*
X132271726Y-166159761D01*
X132128869Y-166207380D01*
X132033630Y-166207380D01*
X131890773Y-166159761D01*
X131795535Y-166064523D01*
X131747916Y-165969285D01*
X131700297Y-165778809D01*
X131700297Y-165635952D01*
X131747916Y-165445476D01*
X131795535Y-165350238D01*
X131890773Y-165255000D01*
X132033630Y-165207380D01*
X132128869Y-165207380D01*
X132271726Y-165255000D01*
X132319345Y-165302619D01*
X132747916Y-165683571D02*
X133081250Y-165683571D01*
X133224107Y-166207380D02*
X132747916Y-166207380D01*
X132747916Y-165207380D01*
X133224107Y-165207380D01*
X134224107Y-166207380D02*
X133890773Y-165731190D01*
X133652678Y-166207380D02*
X133652678Y-165207380D01*
X134033630Y-165207380D01*
X134128869Y-165255000D01*
X134176488Y-165302619D01*
X134224107Y-165397857D01*
X134224107Y-165540714D01*
X134176488Y-165635952D01*
X134128869Y-165683571D01*
X134033630Y-165731190D01*
X133652678Y-165731190D01*
X134652678Y-166207380D02*
X134652678Y-165207380D01*
X135224107Y-166207380D01*
X135224107Y-165207380D01*
X136652678Y-165207380D02*
X136843154Y-165207380D01*
X136938392Y-165255000D01*
X137033630Y-165350238D01*
X137081250Y-165540714D01*
X137081250Y-165874047D01*
X137033630Y-166064523D01*
X136938392Y-166159761D01*
X136843154Y-166207380D01*
X136652678Y-166207380D01*
X136557440Y-166159761D01*
X136462202Y-166064523D01*
X136414583Y-165874047D01*
X136414583Y-165540714D01*
X136462202Y-165350238D01*
X136557440Y-165255000D01*
X136652678Y-165207380D01*
X137509821Y-166207380D02*
X137509821Y-165207380D01*
X137509821Y-165683571D02*
X138081250Y-165683571D01*
X138081250Y-166207380D02*
X138081250Y-165207380D01*
X139033630Y-166207380D02*
X138557440Y-166207380D01*
X138557440Y-165207380D01*
X140033630Y-165540714D02*
X140271726Y-166207380D01*
X140509821Y-165540714D01*
X141414583Y-166207380D02*
X140843154Y-166207380D01*
X141128869Y-166207380D02*
X141128869Y-165207380D01*
X141033630Y-165350238D01*
X140938392Y-165445476D01*
X140843154Y-165493095D01*
X141843154Y-166112142D02*
X141890773Y-166159761D01*
X141843154Y-166207380D01*
X141795535Y-166159761D01*
X141843154Y-166112142D01*
X141843154Y-166207380D01*
X142271726Y-165302619D02*
X142319345Y-165255000D01*
X142414583Y-165207380D01*
X142652678Y-165207380D01*
X142747916Y-165255000D01*
X142795535Y-165302619D01*
X142843154Y-165397857D01*
X142843154Y-165493095D01*
X142795535Y-165635952D01*
X142224107Y-166207380D01*
X142843154Y-166207380D01*
D12*
X153315238Y-105378571D02*
X153315238Y-105759523D01*
X153220000Y-105950000D01*
X153029523Y-106140476D01*
X152648571Y-106235714D01*
X151981904Y-106235714D01*
X151600952Y-106140476D01*
X151410476Y-105950000D01*
X151315238Y-105759523D01*
X151315238Y-105378571D01*
X151410476Y-105188095D01*
X151600952Y-104997619D01*
X151981904Y-104902380D01*
X152648571Y-104902380D01*
X153029523Y-104997619D01*
X153220000Y-105188095D01*
X153315238Y-105378571D01*
X152648571Y-107092857D02*
X150648571Y-107092857D01*
X152553333Y-107092857D02*
X152648571Y-107283333D01*
X152648571Y-107664285D01*
X152553333Y-107854761D01*
X152458095Y-107950000D01*
X152267619Y-108045238D01*
X151696190Y-108045238D01*
X151505714Y-107950000D01*
X151410476Y-107854761D01*
X151315238Y-107664285D01*
X151315238Y-107283333D01*
X151410476Y-107092857D01*
X151410476Y-109664285D02*
X151315238Y-109473809D01*
X151315238Y-109092857D01*
X151410476Y-108902380D01*
X151600952Y-108807142D01*
X152362857Y-108807142D01*
X152553333Y-108902380D01*
X152648571Y-109092857D01*
X152648571Y-109473809D01*
X152553333Y-109664285D01*
X152362857Y-109759523D01*
X152172380Y-109759523D01*
X151981904Y-108807142D01*
X152648571Y-110616666D02*
X151315238Y-110616666D01*
X152458095Y-110616666D02*
X152553333Y-110711904D01*
X152648571Y-110902380D01*
X152648571Y-111188095D01*
X152553333Y-111378571D01*
X152362857Y-111473809D01*
X151315238Y-111473809D01*
X151410476Y-112330952D02*
X151315238Y-112616666D01*
X151315238Y-113092857D01*
X151410476Y-113283333D01*
X151505714Y-113378571D01*
X151696190Y-113473809D01*
X151886666Y-113473809D01*
X152077142Y-113378571D01*
X152172380Y-113283333D01*
X152267619Y-113092857D01*
X152362857Y-112711904D01*
X152458095Y-112521428D01*
X152553333Y-112426190D01*
X152743809Y-112330952D01*
X152934285Y-112330952D01*
X153124761Y-112426190D01*
X153220000Y-112521428D01*
X153315238Y-112711904D01*
X153315238Y-113188095D01*
X153220000Y-113473809D01*
X152648571Y-114330952D02*
X150648571Y-114330952D01*
X152553333Y-114330952D02*
X152648571Y-114521428D01*
X152648571Y-114902380D01*
X152553333Y-115092857D01*
X152458095Y-115188095D01*
X152267619Y-115283333D01*
X151696190Y-115283333D01*
X151505714Y-115188095D01*
X151410476Y-115092857D01*
X151315238Y-114902380D01*
X151315238Y-114521428D01*
X151410476Y-114330952D01*
X151315238Y-116140476D02*
X152648571Y-116140476D01*
X152267619Y-116140476D02*
X152458095Y-116235714D01*
X152553333Y-116330952D01*
X152648571Y-116521428D01*
X152648571Y-116711904D01*
X151315238Y-117378571D02*
X152648571Y-117378571D01*
X153315238Y-117378571D02*
X153220000Y-117283333D01*
X153124761Y-117378571D01*
X153220000Y-117473809D01*
X153315238Y-117378571D01*
X153124761Y-117378571D01*
X152648571Y-118045238D02*
X152648571Y-118807142D01*
X153315238Y-118330952D02*
X151600952Y-118330952D01*
X151410476Y-118426190D01*
X151315238Y-118616666D01*
X151315238Y-118807142D01*
X152648571Y-119283333D02*
X152648571Y-120330952D01*
X151315238Y-119283333D01*
X151315238Y-120330952D01*
X151410476Y-121854761D02*
X151315238Y-121664285D01*
X151315238Y-121283333D01*
X151410476Y-121092857D01*
X151600952Y-120997619D01*
X152362857Y-120997619D01*
X152553333Y-121092857D01*
X152648571Y-121283333D01*
X152648571Y-121664285D01*
X152553333Y-121854761D01*
X152362857Y-121950000D01*
X152172380Y-121950000D01*
X151981904Y-120997619D01*
X151315238Y-122807142D02*
X152648571Y-122807142D01*
X152267619Y-122807142D02*
X152458095Y-122902380D01*
X152553333Y-122997619D01*
X152648571Y-123188095D01*
X152648571Y-123378571D01*
X152648571Y-125378571D02*
X151315238Y-125854761D01*
X152648571Y-126330952D01*
X151315238Y-128140476D02*
X151315238Y-126997619D01*
X151315238Y-127569047D02*
X153315238Y-127569047D01*
X153029523Y-127378571D01*
X152839047Y-127188095D01*
X152743809Y-126997619D01*
X151505714Y-128997619D02*
X151410476Y-129092857D01*
X151315238Y-128997619D01*
X151410476Y-128902380D01*
X151505714Y-128997619D01*
X151315238Y-128997619D01*
X152648571Y-130807142D02*
X151315238Y-130807142D01*
X153410476Y-130330952D02*
X151981904Y-129854761D01*
X151981904Y-131092857D01*
D10*
X219107142Y-128378571D02*
X219107142Y-129521428D01*
D13*
X140796666Y-121424285D02*
X140796666Y-120948095D01*
X141082380Y-121519523D02*
X140082380Y-121186190D01*
X141082380Y-120852857D01*
X141082380Y-119995714D02*
X141082380Y-120567142D01*
X141082380Y-120281428D02*
X140082380Y-120281428D01*
X140225238Y-120376666D01*
X140320476Y-120471904D01*
X140368095Y-120567142D01*
X114517857Y-95814285D02*
X114089285Y-95814285D01*
X114303571Y-95814285D02*
X114303571Y-95064285D01*
X114232142Y-95171428D01*
X114160714Y-95242857D01*
X114089285Y-95278571D01*
X114839285Y-95814285D02*
X114839285Y-95064285D01*
X115267857Y-95814285D01*
X115267857Y-95064285D01*
X115946428Y-95314285D02*
X115946428Y-95814285D01*
X115767857Y-95028571D02*
X115589285Y-95564285D01*
X116053571Y-95564285D01*
X116732142Y-95814285D02*
X116303571Y-95814285D01*
X116517857Y-95814285D02*
X116517857Y-95064285D01*
X116446428Y-95171428D01*
X116375000Y-95242857D01*
X116303571Y-95278571D01*
X117375000Y-95314285D02*
X117375000Y-95814285D01*
X117196428Y-95028571D02*
X117017857Y-95564285D01*
X117482142Y-95564285D01*
X117875000Y-95385714D02*
X117803571Y-95350000D01*
X117767857Y-95314285D01*
X117732142Y-95242857D01*
X117732142Y-95207142D01*
X117767857Y-95135714D01*
X117803571Y-95100000D01*
X117875000Y-95064285D01*
X118017857Y-95064285D01*
X118089285Y-95100000D01*
X118125000Y-95135714D01*
X118160714Y-95207142D01*
X118160714Y-95242857D01*
X118125000Y-95314285D01*
X118089285Y-95350000D01*
X118017857Y-95385714D01*
X117875000Y-95385714D01*
X117803571Y-95421428D01*
X117767857Y-95457142D01*
X117732142Y-95528571D01*
X117732142Y-95671428D01*
X117767857Y-95742857D01*
X117803571Y-95778571D01*
X117875000Y-95814285D01*
X118017857Y-95814285D01*
X118089285Y-95778571D01*
X118125000Y-95742857D01*
X118160714Y-95671428D01*
X118160714Y-95528571D01*
X118125000Y-95457142D01*
X118089285Y-95421428D01*
X118017857Y-95385714D01*
X112002380Y-157483333D02*
X112716666Y-157483333D01*
X112859523Y-157530952D01*
X112954761Y-157626190D01*
X113002380Y-157769047D01*
X113002380Y-157864285D01*
X113002380Y-156483333D02*
X113002380Y-157054761D01*
X113002380Y-156769047D02*
X112002380Y-156769047D01*
X112145238Y-156864285D01*
X112240476Y-156959523D01*
X112288095Y-157054761D01*
X96904761Y-165735714D02*
X97285714Y-165735714D01*
X97047619Y-166402380D02*
X97047619Y-165545238D01*
X97095238Y-165450000D01*
X97190476Y-165402380D01*
X97285714Y-165402380D01*
X97619047Y-166402380D02*
X97619047Y-165735714D01*
X97619047Y-165926190D02*
X97666666Y-165830952D01*
X97714285Y-165783333D01*
X97809523Y-165735714D01*
X97904761Y-165735714D01*
X98380952Y-166402380D02*
X98285714Y-166354761D01*
X98238095Y-166307142D01*
X98190476Y-166211904D01*
X98190476Y-165926190D01*
X98238095Y-165830952D01*
X98285714Y-165783333D01*
X98380952Y-165735714D01*
X98523809Y-165735714D01*
X98619047Y-165783333D01*
X98666666Y-165830952D01*
X98714285Y-165926190D01*
X98714285Y-166211904D01*
X98666666Y-166307142D01*
X98619047Y-166354761D01*
X98523809Y-166402380D01*
X98380952Y-166402380D01*
X99142857Y-166402380D02*
X99142857Y-165735714D01*
X99142857Y-165830952D02*
X99190476Y-165783333D01*
X99285714Y-165735714D01*
X99428571Y-165735714D01*
X99523809Y-165783333D01*
X99571428Y-165878571D01*
X99571428Y-166402380D01*
X99571428Y-165878571D02*
X99619047Y-165783333D01*
X99714285Y-165735714D01*
X99857142Y-165735714D01*
X99952380Y-165783333D01*
X100000000Y-165878571D01*
X100000000Y-166402380D01*
X101571428Y-165878571D02*
X101238095Y-165878571D01*
X101238095Y-166402380D02*
X101238095Y-165402380D01*
X101714285Y-165402380D01*
X102238095Y-166402380D02*
X102142857Y-166354761D01*
X102095238Y-166307142D01*
X102047619Y-166211904D01*
X102047619Y-165926190D01*
X102095238Y-165830952D01*
X102142857Y-165783333D01*
X102238095Y-165735714D01*
X102380952Y-165735714D01*
X102476190Y-165783333D01*
X102523809Y-165830952D01*
X102571428Y-165926190D01*
X102571428Y-166211904D01*
X102523809Y-166307142D01*
X102476190Y-166354761D01*
X102380952Y-166402380D01*
X102238095Y-166402380D01*
X103142857Y-166402380D02*
X103047619Y-166354761D01*
X103000000Y-166307142D01*
X102952380Y-166211904D01*
X102952380Y-165926190D01*
X103000000Y-165830952D01*
X103047619Y-165783333D01*
X103142857Y-165735714D01*
X103285714Y-165735714D01*
X103380952Y-165783333D01*
X103428571Y-165830952D01*
X103476190Y-165926190D01*
X103476190Y-166211904D01*
X103428571Y-166307142D01*
X103380952Y-166354761D01*
X103285714Y-166402380D01*
X103142857Y-166402380D01*
X103761904Y-165735714D02*
X104142857Y-165735714D01*
X103904761Y-165402380D02*
X103904761Y-166259523D01*
X103952380Y-166354761D01*
X104047619Y-166402380D01*
X104142857Y-166402380D01*
X105238095Y-166402380D02*
X105238095Y-165402380D01*
X105619047Y-165402380D01*
X105714285Y-165450000D01*
X105761904Y-165497619D01*
X105809523Y-165592857D01*
X105809523Y-165735714D01*
X105761904Y-165830952D01*
X105714285Y-165878571D01*
X105619047Y-165926190D01*
X105238095Y-165926190D01*
X106619047Y-166354761D02*
X106523809Y-166402380D01*
X106333333Y-166402380D01*
X106238095Y-166354761D01*
X106190476Y-166259523D01*
X106190476Y-165878571D01*
X106238095Y-165783333D01*
X106333333Y-165735714D01*
X106523809Y-165735714D01*
X106619047Y-165783333D01*
X106666666Y-165878571D01*
X106666666Y-165973809D01*
X106190476Y-166069047D01*
X107523809Y-166402380D02*
X107523809Y-165402380D01*
X107523809Y-166354761D02*
X107428571Y-166402380D01*
X107238095Y-166402380D01*
X107142857Y-166354761D01*
X107095238Y-166307142D01*
X107047619Y-166211904D01*
X107047619Y-165926190D01*
X107095238Y-165830952D01*
X107142857Y-165783333D01*
X107238095Y-165735714D01*
X107428571Y-165735714D01*
X107523809Y-165783333D01*
X108428571Y-166402380D02*
X108428571Y-165878571D01*
X108380952Y-165783333D01*
X108285714Y-165735714D01*
X108095238Y-165735714D01*
X108000000Y-165783333D01*
X108428571Y-166354761D02*
X108333333Y-166402380D01*
X108095238Y-166402380D01*
X108000000Y-166354761D01*
X107952380Y-166259523D01*
X107952380Y-166164285D01*
X108000000Y-166069047D01*
X108095238Y-166021428D01*
X108333333Y-166021428D01*
X108428571Y-165973809D01*
X109047619Y-166402380D02*
X108952380Y-166354761D01*
X108904761Y-166259523D01*
X108904761Y-165402380D01*
X134466666Y-95477380D02*
X134466666Y-96191666D01*
X134419047Y-96334523D01*
X134323809Y-96429761D01*
X134180952Y-96477380D01*
X134085714Y-96477380D01*
X134847619Y-95477380D02*
X135466666Y-95477380D01*
X135133333Y-95858333D01*
X135276190Y-95858333D01*
X135371428Y-95905952D01*
X135419047Y-95953571D01*
X135466666Y-96048809D01*
X135466666Y-96286904D01*
X135419047Y-96382142D01*
X135371428Y-96429761D01*
X135276190Y-96477380D01*
X134990476Y-96477380D01*
X134895238Y-96429761D01*
X134847619Y-96382142D01*
X130561904Y-87660714D02*
X130942857Y-87660714D01*
X130704761Y-87327380D02*
X130704761Y-88184523D01*
X130752380Y-88279761D01*
X130847619Y-88327380D01*
X130942857Y-88327380D01*
X131419047Y-88327380D02*
X131323809Y-88279761D01*
X131276190Y-88232142D01*
X131228571Y-88136904D01*
X131228571Y-87851190D01*
X131276190Y-87755952D01*
X131323809Y-87708333D01*
X131419047Y-87660714D01*
X131561904Y-87660714D01*
X131657142Y-87708333D01*
X131704761Y-87755952D01*
X131752380Y-87851190D01*
X131752380Y-88136904D01*
X131704761Y-88232142D01*
X131657142Y-88279761D01*
X131561904Y-88327380D01*
X131419047Y-88327380D01*
X132895238Y-88279761D02*
X133038095Y-88327380D01*
X133276190Y-88327380D01*
X133371428Y-88279761D01*
X133419047Y-88232142D01*
X133466666Y-88136904D01*
X133466666Y-88041666D01*
X133419047Y-87946428D01*
X133371428Y-87898809D01*
X133276190Y-87851190D01*
X133085714Y-87803571D01*
X132990476Y-87755952D01*
X132942857Y-87708333D01*
X132895238Y-87613095D01*
X132895238Y-87517857D01*
X132942857Y-87422619D01*
X132990476Y-87375000D01*
X133085714Y-87327380D01*
X133323809Y-87327380D01*
X133466666Y-87375000D01*
X134038095Y-88327380D02*
X133942857Y-88279761D01*
X133895238Y-88232142D01*
X133847619Y-88136904D01*
X133847619Y-87851190D01*
X133895238Y-87755952D01*
X133942857Y-87708333D01*
X134038095Y-87660714D01*
X134180952Y-87660714D01*
X134276190Y-87708333D01*
X134323809Y-87755952D01*
X134371428Y-87851190D01*
X134371428Y-88136904D01*
X134323809Y-88232142D01*
X134276190Y-88279761D01*
X134180952Y-88327380D01*
X134038095Y-88327380D01*
X134942857Y-88327380D02*
X134847619Y-88279761D01*
X134800000Y-88184523D01*
X134800000Y-87327380D01*
X135704761Y-88279761D02*
X135609523Y-88327380D01*
X135419047Y-88327380D01*
X135323809Y-88279761D01*
X135276190Y-88184523D01*
X135276190Y-87803571D01*
X135323809Y-87708333D01*
X135419047Y-87660714D01*
X135609523Y-87660714D01*
X135704761Y-87708333D01*
X135752380Y-87803571D01*
X135752380Y-87898809D01*
X135276190Y-87994047D01*
X136180952Y-87660714D02*
X136180952Y-88327380D01*
X136180952Y-87755952D02*
X136228571Y-87708333D01*
X136323809Y-87660714D01*
X136466666Y-87660714D01*
X136561904Y-87708333D01*
X136609523Y-87803571D01*
X136609523Y-88327380D01*
X137228571Y-88327380D02*
X137133333Y-88279761D01*
X137085714Y-88232142D01*
X137038095Y-88136904D01*
X137038095Y-87851190D01*
X137085714Y-87755952D01*
X137133333Y-87708333D01*
X137228571Y-87660714D01*
X137371428Y-87660714D01*
X137466666Y-87708333D01*
X137514285Y-87755952D01*
X137561904Y-87851190D01*
X137561904Y-88136904D01*
X137514285Y-88232142D01*
X137466666Y-88279761D01*
X137371428Y-88327380D01*
X137228571Y-88327380D01*
X137990476Y-88327380D02*
X137990476Y-87660714D01*
X137990476Y-87327380D02*
X137942857Y-87375000D01*
X137990476Y-87422619D01*
X138038095Y-87375000D01*
X137990476Y-87327380D01*
X137990476Y-87422619D01*
X138895238Y-88327380D02*
X138895238Y-87327380D01*
X138895238Y-88279761D02*
X138800000Y-88327380D01*
X138609523Y-88327380D01*
X138514285Y-88279761D01*
X138466666Y-88232142D01*
X138419047Y-88136904D01*
X138419047Y-87851190D01*
X138466666Y-87755952D01*
X138514285Y-87708333D01*
X138609523Y-87660714D01*
X138800000Y-87660714D01*
X138895238Y-87708333D01*
X112452380Y-151116666D02*
X111976190Y-151450000D01*
X112452380Y-151688095D02*
X111452380Y-151688095D01*
X111452380Y-151307142D01*
X111500000Y-151211904D01*
X111547619Y-151164285D01*
X111642857Y-151116666D01*
X111785714Y-151116666D01*
X111880952Y-151164285D01*
X111928571Y-151211904D01*
X111976190Y-151307142D01*
X111976190Y-151688095D01*
X112452380Y-150164285D02*
X112452380Y-150735714D01*
X112452380Y-150450000D02*
X111452380Y-150450000D01*
X111595238Y-150545238D01*
X111690476Y-150640476D01*
X111738095Y-150735714D01*
X117517619Y-146788095D02*
X117470000Y-146740476D01*
X117422380Y-146645238D01*
X117422380Y-146407142D01*
X117470000Y-146311904D01*
X117517619Y-146264285D01*
X117612857Y-146216666D01*
X117708095Y-146216666D01*
X117850952Y-146264285D01*
X118422380Y-146835714D01*
X118422380Y-146216666D01*
X117517619Y-145835714D02*
X117470000Y-145788095D01*
X117422380Y-145692857D01*
X117422380Y-145454761D01*
X117470000Y-145359523D01*
X117517619Y-145311904D01*
X117612857Y-145264285D01*
X117708095Y-145264285D01*
X117850952Y-145311904D01*
X118422380Y-145883333D01*
X118422380Y-145264285D01*
X117422380Y-144645238D02*
X117422380Y-144550000D01*
X117470000Y-144454761D01*
X117517619Y-144407142D01*
X117612857Y-144359523D01*
X117803333Y-144311904D01*
X118041428Y-144311904D01*
X118231904Y-144359523D01*
X118327142Y-144407142D01*
X118374761Y-144454761D01*
X118422380Y-144550000D01*
X118422380Y-144645238D01*
X118374761Y-144740476D01*
X118327142Y-144788095D01*
X118231904Y-144835714D01*
X118041428Y-144883333D01*
X117803333Y-144883333D01*
X117612857Y-144835714D01*
X117517619Y-144788095D01*
X117470000Y-144740476D01*
X117422380Y-144645238D01*
X108833333Y-111402380D02*
X108500000Y-110926190D01*
X108261904Y-111402380D02*
X108261904Y-110402380D01*
X108642857Y-110402380D01*
X108738095Y-110450000D01*
X108785714Y-110497619D01*
X108833333Y-110592857D01*
X108833333Y-110735714D01*
X108785714Y-110830952D01*
X108738095Y-110878571D01*
X108642857Y-110926190D01*
X108261904Y-110926190D01*
X109214285Y-110497619D02*
X109261904Y-110450000D01*
X109357142Y-110402380D01*
X109595238Y-110402380D01*
X109690476Y-110450000D01*
X109738095Y-110497619D01*
X109785714Y-110592857D01*
X109785714Y-110688095D01*
X109738095Y-110830952D01*
X109166666Y-111402380D01*
X109785714Y-111402380D01*
X112761904Y-110617619D02*
X112809523Y-110570000D01*
X112904761Y-110522380D01*
X113142857Y-110522380D01*
X113238095Y-110570000D01*
X113285714Y-110617619D01*
X113333333Y-110712857D01*
X113333333Y-110808095D01*
X113285714Y-110950952D01*
X112714285Y-111522380D01*
X113333333Y-111522380D01*
X113714285Y-110617619D02*
X113761904Y-110570000D01*
X113857142Y-110522380D01*
X114095238Y-110522380D01*
X114190476Y-110570000D01*
X114238095Y-110617619D01*
X114285714Y-110712857D01*
X114285714Y-110808095D01*
X114238095Y-110950952D01*
X113666666Y-111522380D01*
X114285714Y-111522380D01*
X114904761Y-110522380D02*
X115000000Y-110522380D01*
X115095238Y-110570000D01*
X115142857Y-110617619D01*
X115190476Y-110712857D01*
X115238095Y-110903333D01*
X115238095Y-111141428D01*
X115190476Y-111331904D01*
X115142857Y-111427142D01*
X115095238Y-111474761D01*
X115000000Y-111522380D01*
X114904761Y-111522380D01*
X114809523Y-111474761D01*
X114761904Y-111427142D01*
X114714285Y-111331904D01*
X114666666Y-111141428D01*
X114666666Y-110903333D01*
X114714285Y-110712857D01*
X114761904Y-110617619D01*
X114809523Y-110570000D01*
X114904761Y-110522380D01*
X127833333Y-149032380D02*
X127500000Y-148556190D01*
X127261904Y-149032380D02*
X127261904Y-148032380D01*
X127642857Y-148032380D01*
X127738095Y-148080000D01*
X127785714Y-148127619D01*
X127833333Y-148222857D01*
X127833333Y-148365714D01*
X127785714Y-148460952D01*
X127738095Y-148508571D01*
X127642857Y-148556190D01*
X127261904Y-148556190D01*
X128166666Y-148032380D02*
X128785714Y-148032380D01*
X128452380Y-148413333D01*
X128595238Y-148413333D01*
X128690476Y-148460952D01*
X128738095Y-148508571D01*
X128785714Y-148603809D01*
X128785714Y-148841904D01*
X128738095Y-148937142D01*
X128690476Y-148984761D01*
X128595238Y-149032380D01*
X128309523Y-149032380D01*
X128214285Y-148984761D01*
X128166666Y-148937142D01*
X121761904Y-148497619D02*
X121809523Y-148450000D01*
X121904761Y-148402380D01*
X122142857Y-148402380D01*
X122238095Y-148450000D01*
X122285714Y-148497619D01*
X122333333Y-148592857D01*
X122333333Y-148688095D01*
X122285714Y-148830952D01*
X121714285Y-149402380D01*
X122333333Y-149402380D01*
X122714285Y-148497619D02*
X122761904Y-148450000D01*
X122857142Y-148402380D01*
X123095238Y-148402380D01*
X123190476Y-148450000D01*
X123238095Y-148497619D01*
X123285714Y-148592857D01*
X123285714Y-148688095D01*
X123238095Y-148830952D01*
X122666666Y-149402380D01*
X123285714Y-149402380D01*
X123904761Y-148402380D02*
X124000000Y-148402380D01*
X124095238Y-148450000D01*
X124142857Y-148497619D01*
X124190476Y-148592857D01*
X124238095Y-148783333D01*
X124238095Y-149021428D01*
X124190476Y-149211904D01*
X124142857Y-149307142D01*
X124095238Y-149354761D01*
X124000000Y-149402380D01*
X123904761Y-149402380D01*
X123809523Y-149354761D01*
X123761904Y-149307142D01*
X123714285Y-149211904D01*
X123666666Y-149021428D01*
X123666666Y-148783333D01*
X123714285Y-148592857D01*
X123761904Y-148497619D01*
X123809523Y-148450000D01*
X123904761Y-148402380D01*
X133083333Y-104782380D02*
X132750000Y-104306190D01*
X132511904Y-104782380D02*
X132511904Y-103782380D01*
X132892857Y-103782380D01*
X132988095Y-103830000D01*
X133035714Y-103877619D01*
X133083333Y-103972857D01*
X133083333Y-104115714D01*
X133035714Y-104210952D01*
X132988095Y-104258571D01*
X132892857Y-104306190D01*
X132511904Y-104306190D01*
X133940476Y-104115714D02*
X133940476Y-104782380D01*
X133702380Y-103734761D02*
X133464285Y-104449047D01*
X134083333Y-104449047D01*
X122833333Y-161402380D02*
X122500000Y-160926190D01*
X122261904Y-161402380D02*
X122261904Y-160402380D01*
X122642857Y-160402380D01*
X122738095Y-160450000D01*
X122785714Y-160497619D01*
X122833333Y-160592857D01*
X122833333Y-160735714D01*
X122785714Y-160830952D01*
X122738095Y-160878571D01*
X122642857Y-160926190D01*
X122261904Y-160926190D01*
X123738095Y-160402380D02*
X123261904Y-160402380D01*
X123214285Y-160878571D01*
X123261904Y-160830952D01*
X123357142Y-160783333D01*
X123595238Y-160783333D01*
X123690476Y-160830952D01*
X123738095Y-160878571D01*
X123785714Y-160973809D01*
X123785714Y-161211904D01*
X123738095Y-161307142D01*
X123690476Y-161354761D01*
X123595238Y-161402380D01*
X123357142Y-161402380D01*
X123261904Y-161354761D01*
X123214285Y-161307142D01*
X127880952Y-161772380D02*
X127309523Y-161772380D01*
X127595238Y-161772380D02*
X127595238Y-160772380D01*
X127500000Y-160915238D01*
X127404761Y-161010476D01*
X127309523Y-161058095D01*
X128309523Y-161772380D02*
X128309523Y-160772380D01*
X128404761Y-161391428D02*
X128690476Y-161772380D01*
X128690476Y-161105714D02*
X128309523Y-161486666D01*
X133083333Y-105772380D02*
X132750000Y-105296190D01*
X132511904Y-105772380D02*
X132511904Y-104772380D01*
X132892857Y-104772380D01*
X132988095Y-104820000D01*
X133035714Y-104867619D01*
X133083333Y-104962857D01*
X133083333Y-105105714D01*
X133035714Y-105200952D01*
X132988095Y-105248571D01*
X132892857Y-105296190D01*
X132511904Y-105296190D01*
X133940476Y-104772380D02*
X133750000Y-104772380D01*
X133654761Y-104820000D01*
X133607142Y-104867619D01*
X133511904Y-105010476D01*
X133464285Y-105200952D01*
X133464285Y-105581904D01*
X133511904Y-105677142D01*
X133559523Y-105724761D01*
X133654761Y-105772380D01*
X133845238Y-105772380D01*
X133940476Y-105724761D01*
X133988095Y-105677142D01*
X134035714Y-105581904D01*
X134035714Y-105343809D01*
X133988095Y-105248571D01*
X133940476Y-105200952D01*
X133845238Y-105153333D01*
X133654761Y-105153333D01*
X133559523Y-105200952D01*
X133511904Y-105248571D01*
X133464285Y-105343809D01*
X99006666Y-97554761D02*
X99149523Y-97602380D01*
X99387619Y-97602380D01*
X99482857Y-97554761D01*
X99530476Y-97507142D01*
X99578095Y-97411904D01*
X99578095Y-97316666D01*
X99530476Y-97221428D01*
X99482857Y-97173809D01*
X99387619Y-97126190D01*
X99197142Y-97078571D01*
X99101904Y-97030952D01*
X99054285Y-96983333D01*
X99006666Y-96888095D01*
X99006666Y-96792857D01*
X99054285Y-96697619D01*
X99101904Y-96650000D01*
X99197142Y-96602380D01*
X99435238Y-96602380D01*
X99578095Y-96650000D01*
X99911428Y-96602380D02*
X100149523Y-97602380D01*
X100340000Y-96888095D01*
X100530476Y-97602380D01*
X100768571Y-96602380D01*
X101673333Y-97602380D02*
X101101904Y-97602380D01*
X101387619Y-97602380D02*
X101387619Y-96602380D01*
X101292380Y-96745238D01*
X101197142Y-96840476D01*
X101101904Y-96888095D01*
X149672380Y-126858095D02*
X148672380Y-126858095D01*
X148672380Y-126620000D01*
X148720000Y-126477142D01*
X148815238Y-126381904D01*
X148910476Y-126334285D01*
X149100952Y-126286666D01*
X149243809Y-126286666D01*
X149434285Y-126334285D01*
X149529523Y-126381904D01*
X149624761Y-126477142D01*
X149672380Y-126620000D01*
X149672380Y-126858095D01*
X149005714Y-125429523D02*
X149672380Y-125429523D01*
X148624761Y-125667619D02*
X149339047Y-125905714D01*
X149339047Y-125286666D01*
X150672380Y-123392857D02*
X150672380Y-123964285D01*
X150672380Y-123678571D02*
X149672380Y-123678571D01*
X149815238Y-123773809D01*
X149910476Y-123869047D01*
X149958095Y-123964285D01*
X150672380Y-122964285D02*
X149672380Y-122964285D01*
X150672380Y-122392857D01*
X149672380Y-122392857D01*
X149672380Y-121440476D02*
X149672380Y-121916666D01*
X150148571Y-121964285D01*
X150100952Y-121916666D01*
X150053333Y-121821428D01*
X150053333Y-121583333D01*
X150100952Y-121488095D01*
X150148571Y-121440476D01*
X150243809Y-121392857D01*
X150481904Y-121392857D01*
X150577142Y-121440476D01*
X150624761Y-121488095D01*
X150672380Y-121583333D01*
X150672380Y-121821428D01*
X150624761Y-121916666D01*
X150577142Y-121964285D01*
X150100952Y-120821428D02*
X150053333Y-120916666D01*
X150005714Y-120964285D01*
X149910476Y-121011904D01*
X149862857Y-121011904D01*
X149767619Y-120964285D01*
X149720000Y-120916666D01*
X149672380Y-120821428D01*
X149672380Y-120630952D01*
X149720000Y-120535714D01*
X149767619Y-120488095D01*
X149862857Y-120440476D01*
X149910476Y-120440476D01*
X150005714Y-120488095D01*
X150053333Y-120535714D01*
X150100952Y-120630952D01*
X150100952Y-120821428D01*
X150148571Y-120916666D01*
X150196190Y-120964285D01*
X150291428Y-121011904D01*
X150481904Y-121011904D01*
X150577142Y-120964285D01*
X150624761Y-120916666D01*
X150672380Y-120821428D01*
X150672380Y-120630952D01*
X150624761Y-120535714D01*
X150577142Y-120488095D01*
X150481904Y-120440476D01*
X150291428Y-120440476D01*
X150196190Y-120488095D01*
X150148571Y-120535714D01*
X150100952Y-120630952D01*
X149767619Y-120059523D02*
X149720000Y-120011904D01*
X149672380Y-119916666D01*
X149672380Y-119678571D01*
X149720000Y-119583333D01*
X149767619Y-119535714D01*
X149862857Y-119488095D01*
X149958095Y-119488095D01*
X150100952Y-119535714D01*
X150672380Y-120107142D01*
X150672380Y-119488095D01*
X150005714Y-118630952D02*
X150672380Y-118630952D01*
X149624761Y-118869047D02*
X150339047Y-119107142D01*
X150339047Y-118488095D01*
X144352380Y-129131904D02*
X143352380Y-129131904D01*
X144352380Y-128560476D02*
X143780952Y-128989047D01*
X143352380Y-128560476D02*
X143923809Y-129131904D01*
X139233333Y-158702380D02*
X139852380Y-158702380D01*
X139519047Y-159083333D01*
X139661904Y-159083333D01*
X139757142Y-159130952D01*
X139804761Y-159178571D01*
X139852380Y-159273809D01*
X139852380Y-159511904D01*
X139804761Y-159607142D01*
X139757142Y-159654761D01*
X139661904Y-159702380D01*
X139376190Y-159702380D01*
X139280952Y-159654761D01*
X139233333Y-159607142D01*
X140185714Y-158702380D02*
X140804761Y-158702380D01*
X140471428Y-159083333D01*
X140614285Y-159083333D01*
X140709523Y-159130952D01*
X140757142Y-159178571D01*
X140804761Y-159273809D01*
X140804761Y-159511904D01*
X140757142Y-159607142D01*
X140709523Y-159654761D01*
X140614285Y-159702380D01*
X140328571Y-159702380D01*
X140233333Y-159654761D01*
X140185714Y-159607142D01*
X142423809Y-159035714D02*
X142423809Y-159702380D01*
X141995238Y-159035714D02*
X141995238Y-159559523D01*
X142042857Y-159654761D01*
X142138095Y-159702380D01*
X142280952Y-159702380D01*
X142376190Y-159654761D01*
X142423809Y-159607142D01*
X142900000Y-159702380D02*
X142900000Y-158702380D01*
X142900000Y-159178571D02*
X143471428Y-159178571D01*
X143471428Y-159702380D02*
X143471428Y-158702380D01*
X153122380Y-139111904D02*
X153931904Y-139111904D01*
X154027142Y-139064285D01*
X154074761Y-139016666D01*
X154122380Y-138921428D01*
X154122380Y-138730952D01*
X154074761Y-138635714D01*
X154027142Y-138588095D01*
X153931904Y-138540476D01*
X153122380Y-138540476D01*
X154122380Y-137540476D02*
X154122380Y-138111904D01*
X154122380Y-137826190D02*
X153122380Y-137826190D01*
X153265238Y-137921428D01*
X153360476Y-138016666D01*
X153408095Y-138111904D01*
X142652380Y-142564285D02*
X142652380Y-143040476D01*
X141652380Y-143040476D01*
X142652380Y-142230952D02*
X141652380Y-142230952D01*
X142366666Y-141897619D01*
X141652380Y-141564285D01*
X142652380Y-141564285D01*
X141747619Y-141135714D02*
X141700000Y-141088095D01*
X141652380Y-140992857D01*
X141652380Y-140754761D01*
X141700000Y-140659523D01*
X141747619Y-140611904D01*
X141842857Y-140564285D01*
X141938095Y-140564285D01*
X142080952Y-140611904D01*
X142652380Y-141183333D01*
X142652380Y-140564285D01*
X141652380Y-139659523D02*
X141652380Y-140135714D01*
X142128571Y-140183333D01*
X142080952Y-140135714D01*
X142033333Y-140040476D01*
X142033333Y-139802380D01*
X142080952Y-139707142D01*
X142128571Y-139659523D01*
X142223809Y-139611904D01*
X142461904Y-139611904D01*
X142557142Y-139659523D01*
X142604761Y-139707142D01*
X142652380Y-139802380D01*
X142652380Y-140040476D01*
X142604761Y-140135714D01*
X142557142Y-140183333D01*
X142652380Y-139135714D02*
X142652380Y-138945238D01*
X142604761Y-138850000D01*
X142557142Y-138802380D01*
X142414285Y-138707142D01*
X142223809Y-138659523D01*
X141842857Y-138659523D01*
X141747619Y-138707142D01*
X141700000Y-138754761D01*
X141652380Y-138850000D01*
X141652380Y-139040476D01*
X141700000Y-139135714D01*
X141747619Y-139183333D01*
X141842857Y-139230952D01*
X142080952Y-139230952D01*
X142176190Y-139183333D01*
X142223809Y-139135714D01*
X142271428Y-139040476D01*
X142271428Y-138850000D01*
X142223809Y-138754761D01*
X142176190Y-138707142D01*
X142080952Y-138659523D01*
X141652380Y-137802380D02*
X141652380Y-137992857D01*
X141700000Y-138088095D01*
X141747619Y-138135714D01*
X141890476Y-138230952D01*
X142080952Y-138278571D01*
X142461904Y-138278571D01*
X142557142Y-138230952D01*
X142604761Y-138183333D01*
X142652380Y-138088095D01*
X142652380Y-137897619D01*
X142604761Y-137802380D01*
X142557142Y-137754761D01*
X142461904Y-137707142D01*
X142223809Y-137707142D01*
X142128571Y-137754761D01*
X142080952Y-137802380D01*
X142033333Y-137897619D01*
X142033333Y-138088095D01*
X142080952Y-138183333D01*
X142128571Y-138230952D01*
X142223809Y-138278571D01*
X142604761Y-137326190D02*
X142652380Y-137183333D01*
X142652380Y-136945238D01*
X142604761Y-136850000D01*
X142557142Y-136802380D01*
X142461904Y-136754761D01*
X142366666Y-136754761D01*
X142271428Y-136802380D01*
X142223809Y-136850000D01*
X142176190Y-136945238D01*
X142128571Y-137135714D01*
X142080952Y-137230952D01*
X142033333Y-137278571D01*
X141938095Y-137326190D01*
X141842857Y-137326190D01*
X141747619Y-137278571D01*
X141700000Y-137230952D01*
X141652380Y-137135714D01*
X141652380Y-136897619D01*
X141700000Y-136754761D01*
X142271428Y-136326190D02*
X142271428Y-135564285D01*
X142652380Y-134564285D02*
X142652380Y-135135714D01*
X142652380Y-134850000D02*
X141652380Y-134850000D01*
X141795238Y-134945238D01*
X141890476Y-135040476D01*
X141938095Y-135135714D01*
X141747619Y-134183333D02*
X141700000Y-134135714D01*
X141652380Y-134040476D01*
X141652380Y-133802380D01*
X141700000Y-133707142D01*
X141747619Y-133659523D01*
X141842857Y-133611904D01*
X141938095Y-133611904D01*
X142080952Y-133659523D01*
X142652380Y-134230952D01*
X142652380Y-133611904D01*
X112252380Y-140033333D02*
X112966666Y-140033333D01*
X113109523Y-140080952D01*
X113204761Y-140176190D01*
X113252380Y-140319047D01*
X113252380Y-140414285D01*
X112585714Y-139128571D02*
X113252380Y-139128571D01*
X112204761Y-139366666D02*
X112919047Y-139604761D01*
X112919047Y-138985714D01*
X96499999Y-130735714D02*
X96880952Y-130735714D01*
X96642857Y-131402380D02*
X96642857Y-130545238D01*
X96690476Y-130450000D01*
X96785714Y-130402380D01*
X96880952Y-130402380D01*
X97214285Y-131402380D02*
X97214285Y-130735714D01*
X97214285Y-130926190D02*
X97261904Y-130830952D01*
X97309523Y-130783333D01*
X97404761Y-130735714D01*
X97499999Y-130735714D01*
X97976190Y-131402380D02*
X97880952Y-131354761D01*
X97833333Y-131307142D01*
X97785714Y-131211904D01*
X97785714Y-130926190D01*
X97833333Y-130830952D01*
X97880952Y-130783333D01*
X97976190Y-130735714D01*
X98119047Y-130735714D01*
X98214285Y-130783333D01*
X98261904Y-130830952D01*
X98309523Y-130926190D01*
X98309523Y-131211904D01*
X98261904Y-131307142D01*
X98214285Y-131354761D01*
X98119047Y-131402380D01*
X97976190Y-131402380D01*
X98738095Y-131402380D02*
X98738095Y-130735714D01*
X98738095Y-130830952D02*
X98785714Y-130783333D01*
X98880952Y-130735714D01*
X99023809Y-130735714D01*
X99119047Y-130783333D01*
X99166666Y-130878571D01*
X99166666Y-131402380D01*
X99166666Y-130878571D02*
X99214285Y-130783333D01*
X99309523Y-130735714D01*
X99452380Y-130735714D01*
X99547619Y-130783333D01*
X99595238Y-130878571D01*
X99595238Y-131402380D01*
X100690476Y-130402380D02*
X101261904Y-130402380D01*
X100976190Y-131402380D02*
X100976190Y-130402380D01*
X101452380Y-130402380D02*
X102023809Y-130402380D01*
X101738095Y-131402380D02*
X101738095Y-130402380D01*
X102833333Y-131402380D02*
X102357142Y-131402380D01*
X102357142Y-130402380D01*
X103928571Y-130735714D02*
X103928571Y-131735714D01*
X103928571Y-130783333D02*
X104023809Y-130735714D01*
X104214285Y-130735714D01*
X104309523Y-130783333D01*
X104357142Y-130830952D01*
X104404761Y-130926190D01*
X104404761Y-131211904D01*
X104357142Y-131307142D01*
X104309523Y-131354761D01*
X104214285Y-131402380D01*
X104023809Y-131402380D01*
X103928571Y-131354761D01*
X105261904Y-130735714D02*
X105261904Y-131402380D01*
X104833333Y-130735714D02*
X104833333Y-131259523D01*
X104880952Y-131354761D01*
X104976190Y-131402380D01*
X105119047Y-131402380D01*
X105214285Y-131354761D01*
X105261904Y-131307142D01*
X105880952Y-131402380D02*
X105785714Y-131354761D01*
X105738095Y-131259523D01*
X105738095Y-130402380D01*
X106214285Y-131354761D02*
X106309523Y-131402380D01*
X106499999Y-131402380D01*
X106595238Y-131354761D01*
X106642857Y-131259523D01*
X106642857Y-131211904D01*
X106595238Y-131116666D01*
X106499999Y-131069047D01*
X106357142Y-131069047D01*
X106261904Y-131021428D01*
X106214285Y-130926190D01*
X106214285Y-130878571D01*
X106261904Y-130783333D01*
X106357142Y-130735714D01*
X106499999Y-130735714D01*
X106595238Y-130783333D01*
X107452380Y-131354761D02*
X107357142Y-131402380D01*
X107166666Y-131402380D01*
X107071428Y-131354761D01*
X107023809Y-131259523D01*
X107023809Y-130878571D01*
X107071428Y-130783333D01*
X107166666Y-130735714D01*
X107357142Y-130735714D01*
X107452380Y-130783333D01*
X107499999Y-130878571D01*
X107499999Y-130973809D01*
X107023809Y-131069047D01*
X109119047Y-130735714D02*
X109119047Y-131545238D01*
X109071428Y-131640476D01*
X109023809Y-131688095D01*
X108928571Y-131735714D01*
X108785714Y-131735714D01*
X108690476Y-131688095D01*
X109119047Y-131354761D02*
X109023809Y-131402380D01*
X108833333Y-131402380D01*
X108738095Y-131354761D01*
X108690476Y-131307142D01*
X108642857Y-131211904D01*
X108642857Y-130926190D01*
X108690476Y-130830952D01*
X108738095Y-130783333D01*
X108833333Y-130735714D01*
X109023809Y-130735714D01*
X109119047Y-130783333D01*
X109976190Y-131354761D02*
X109880952Y-131402380D01*
X109690476Y-131402380D01*
X109595238Y-131354761D01*
X109547619Y-131259523D01*
X109547619Y-130878571D01*
X109595238Y-130783333D01*
X109690476Y-130735714D01*
X109880952Y-130735714D01*
X109976190Y-130783333D01*
X110023809Y-130878571D01*
X110023809Y-130973809D01*
X109547619Y-131069047D01*
X110452380Y-130735714D02*
X110452380Y-131402380D01*
X110452380Y-130830952D02*
X110499999Y-130783333D01*
X110595238Y-130735714D01*
X110738095Y-130735714D01*
X110833333Y-130783333D01*
X110880952Y-130878571D01*
X110880952Y-131402380D01*
X111738095Y-131354761D02*
X111642857Y-131402380D01*
X111452380Y-131402380D01*
X111357142Y-131354761D01*
X111309523Y-131259523D01*
X111309523Y-130878571D01*
X111357142Y-130783333D01*
X111452380Y-130735714D01*
X111642857Y-130735714D01*
X111738095Y-130783333D01*
X111785714Y-130878571D01*
X111785714Y-130973809D01*
X111309523Y-131069047D01*
X112214285Y-131402380D02*
X112214285Y-130735714D01*
X112214285Y-130926190D02*
X112261904Y-130830952D01*
X112309523Y-130783333D01*
X112404761Y-130735714D01*
X112499999Y-130735714D01*
X113261904Y-131402380D02*
X113261904Y-130878571D01*
X113214285Y-130783333D01*
X113119047Y-130735714D01*
X112928571Y-130735714D01*
X112833333Y-130783333D01*
X113261904Y-131354761D02*
X113166666Y-131402380D01*
X112928571Y-131402380D01*
X112833333Y-131354761D01*
X112785714Y-131259523D01*
X112785714Y-131164285D01*
X112833333Y-131069047D01*
X112928571Y-131021428D01*
X113166666Y-131021428D01*
X113261904Y-130973809D01*
X113595238Y-130735714D02*
X113976190Y-130735714D01*
X113738095Y-130402380D02*
X113738095Y-131259523D01*
X113785714Y-131354761D01*
X113880952Y-131402380D01*
X113976190Y-131402380D01*
X114452380Y-131402380D02*
X114357142Y-131354761D01*
X114309523Y-131307142D01*
X114261904Y-131211904D01*
X114261904Y-130926190D01*
X114309523Y-130830952D01*
X114357142Y-130783333D01*
X114452380Y-130735714D01*
X114595238Y-130735714D01*
X114690476Y-130783333D01*
X114738095Y-130830952D01*
X114785714Y-130926190D01*
X114785714Y-131211904D01*
X114738095Y-131307142D01*
X114690476Y-131354761D01*
X114595238Y-131402380D01*
X114452380Y-131402380D01*
X115214285Y-131402380D02*
X115214285Y-130735714D01*
X115214285Y-130926190D02*
X115261904Y-130830952D01*
X115309523Y-130783333D01*
X115404761Y-130735714D01*
X115499999Y-130735714D01*
X142002380Y-83733333D02*
X142716666Y-83733333D01*
X142859523Y-83780952D01*
X142954761Y-83876190D01*
X143002380Y-84019047D01*
X143002380Y-84114285D01*
X142097619Y-83304761D02*
X142050000Y-83257142D01*
X142002380Y-83161904D01*
X142002380Y-82923809D01*
X142050000Y-82828571D01*
X142097619Y-82780952D01*
X142192857Y-82733333D01*
X142288095Y-82733333D01*
X142430952Y-82780952D01*
X143002380Y-83352380D01*
X143002380Y-82733333D01*
X114238095Y-159602380D02*
X114238095Y-158602380D01*
X114238095Y-159078571D02*
X114809523Y-159078571D01*
X114809523Y-159602380D02*
X114809523Y-158602380D01*
X115714285Y-158935714D02*
X115714285Y-159602380D01*
X115476190Y-158554761D02*
X115238095Y-159269047D01*
X115857142Y-159269047D01*
X104387380Y-108433095D02*
X103387380Y-108433095D01*
X103387380Y-108195000D01*
X103435000Y-108052142D01*
X103530238Y-107956904D01*
X103625476Y-107909285D01*
X103815952Y-107861666D01*
X103958809Y-107861666D01*
X104149285Y-107909285D01*
X104244523Y-107956904D01*
X104339761Y-108052142D01*
X104387380Y-108195000D01*
X104387380Y-108433095D01*
X104387380Y-106909285D02*
X104387380Y-107480714D01*
X104387380Y-107195000D02*
X103387380Y-107195000D01*
X103530238Y-107290238D01*
X103625476Y-107385476D01*
X103673095Y-107480714D01*
X146730682Y-100257142D02*
X146683063Y-100304761D01*
X146540206Y-100352380D01*
X146444968Y-100352380D01*
X146302110Y-100304761D01*
X146206872Y-100209523D01*
X146159253Y-100114285D01*
X146111634Y-99923809D01*
X146111634Y-99780952D01*
X146159253Y-99590476D01*
X146206872Y-99495238D01*
X146302110Y-99400000D01*
X146444968Y-99352380D01*
X146540206Y-99352380D01*
X146683063Y-99400000D01*
X146730682Y-99447619D01*
X147683063Y-100352380D02*
X147111634Y-100352380D01*
X147397349Y-100352380D02*
X147397349Y-99352380D01*
X147302110Y-99495238D01*
X147206872Y-99590476D01*
X147111634Y-99638095D01*
X145183063Y-109852380D02*
X144992587Y-109852380D01*
X144897349Y-109900000D01*
X144849729Y-109947619D01*
X144754491Y-110090476D01*
X144706872Y-110280952D01*
X144706872Y-110661904D01*
X144754491Y-110757142D01*
X144802110Y-110804761D01*
X144897349Y-110852380D01*
X145087825Y-110852380D01*
X145183063Y-110804761D01*
X145230682Y-110757142D01*
X145278301Y-110661904D01*
X145278301Y-110423809D01*
X145230682Y-110328571D01*
X145183063Y-110280952D01*
X145087825Y-110233333D01*
X144897349Y-110233333D01*
X144802110Y-110280952D01*
X144754491Y-110328571D01*
X144706872Y-110423809D01*
X145849729Y-110280952D02*
X145754491Y-110233333D01*
X145706872Y-110185714D01*
X145659253Y-110090476D01*
X145659253Y-110042857D01*
X145706872Y-109947619D01*
X145754491Y-109900000D01*
X145849729Y-109852380D01*
X146040206Y-109852380D01*
X146135444Y-109900000D01*
X146183063Y-109947619D01*
X146230682Y-110042857D01*
X146230682Y-110090476D01*
X146183063Y-110185714D01*
X146135444Y-110233333D01*
X146040206Y-110280952D01*
X145849729Y-110280952D01*
X145754491Y-110328571D01*
X145706872Y-110376190D01*
X145659253Y-110471428D01*
X145659253Y-110661904D01*
X145706872Y-110757142D01*
X145754491Y-110804761D01*
X145849729Y-110852380D01*
X146040206Y-110852380D01*
X146135444Y-110804761D01*
X146183063Y-110757142D01*
X146230682Y-110661904D01*
X146230682Y-110471428D01*
X146183063Y-110376190D01*
X146135444Y-110328571D01*
X146040206Y-110280952D01*
X146849729Y-109852380D02*
X146944968Y-109852380D01*
X147040206Y-109900000D01*
X147087825Y-109947619D01*
X147135444Y-110042857D01*
X147183063Y-110233333D01*
X147183063Y-110471428D01*
X147135444Y-110661904D01*
X147087825Y-110757142D01*
X147040206Y-110804761D01*
X146944968Y-110852380D01*
X146849729Y-110852380D01*
X146754491Y-110804761D01*
X146706872Y-110757142D01*
X146659253Y-110661904D01*
X146611634Y-110471428D01*
X146611634Y-110233333D01*
X146659253Y-110042857D01*
X146706872Y-109947619D01*
X146754491Y-109900000D01*
X146849729Y-109852380D01*
X147611634Y-110185714D02*
X147611634Y-111185714D01*
X148087825Y-110709523D02*
X148135444Y-110804761D01*
X148230682Y-110852380D01*
X147611634Y-110709523D02*
X147659253Y-110804761D01*
X147754491Y-110852380D01*
X147944968Y-110852380D01*
X148040206Y-110804761D01*
X148087825Y-110709523D01*
X148087825Y-110185714D01*
X148992587Y-110328571D02*
X148659253Y-110328571D01*
X148659253Y-110852380D02*
X148659253Y-109852380D01*
X149135444Y-109852380D01*
X134504761Y-86997619D02*
X134409523Y-86950000D01*
X134314285Y-86854761D01*
X134171428Y-86711904D01*
X134076190Y-86664285D01*
X133980952Y-86664285D01*
X134028571Y-86902380D02*
X133933333Y-86854761D01*
X133838095Y-86759523D01*
X133790476Y-86569047D01*
X133790476Y-86235714D01*
X133838095Y-86045238D01*
X133933333Y-85950000D01*
X134028571Y-85902380D01*
X134219047Y-85902380D01*
X134314285Y-85950000D01*
X134409523Y-86045238D01*
X134457142Y-86235714D01*
X134457142Y-86569047D01*
X134409523Y-86759523D01*
X134314285Y-86854761D01*
X134219047Y-86902380D01*
X134028571Y-86902380D01*
X135409523Y-86902380D02*
X134838095Y-86902380D01*
X135123809Y-86902380D02*
X135123809Y-85902380D01*
X135028571Y-86045238D01*
X134933333Y-86140476D01*
X134838095Y-86188095D01*
X99006666Y-88054761D02*
X99149523Y-88102380D01*
X99387619Y-88102380D01*
X99482857Y-88054761D01*
X99530476Y-88007142D01*
X99578095Y-87911904D01*
X99578095Y-87816666D01*
X99530476Y-87721428D01*
X99482857Y-87673809D01*
X99387619Y-87626190D01*
X99197142Y-87578571D01*
X99101904Y-87530952D01*
X99054285Y-87483333D01*
X99006666Y-87388095D01*
X99006666Y-87292857D01*
X99054285Y-87197619D01*
X99101904Y-87150000D01*
X99197142Y-87102380D01*
X99435238Y-87102380D01*
X99578095Y-87150000D01*
X99911428Y-87102380D02*
X100149523Y-88102380D01*
X100340000Y-87388095D01*
X100530476Y-88102380D01*
X100768571Y-87102380D01*
X101101904Y-87197619D02*
X101149523Y-87150000D01*
X101244761Y-87102380D01*
X101482857Y-87102380D01*
X101578095Y-87150000D01*
X101625714Y-87197619D01*
X101673333Y-87292857D01*
X101673333Y-87388095D01*
X101625714Y-87530952D01*
X101054285Y-88102380D01*
X101673333Y-88102380D01*
X122916666Y-138327380D02*
X122916666Y-139041666D01*
X122869047Y-139184523D01*
X122773809Y-139279761D01*
X122630952Y-139327380D01*
X122535714Y-139327380D01*
X123821428Y-138327380D02*
X123630952Y-138327380D01*
X123535714Y-138375000D01*
X123488095Y-138422619D01*
X123392857Y-138565476D01*
X123345238Y-138755952D01*
X123345238Y-139136904D01*
X123392857Y-139232142D01*
X123440476Y-139279761D01*
X123535714Y-139327380D01*
X123726190Y-139327380D01*
X123821428Y-139279761D01*
X123869047Y-139232142D01*
X123916666Y-139136904D01*
X123916666Y-138898809D01*
X123869047Y-138803571D01*
X123821428Y-138755952D01*
X123726190Y-138708333D01*
X123535714Y-138708333D01*
X123440476Y-138755952D01*
X123392857Y-138803571D01*
X123345238Y-138898809D01*
X117250000Y-131129761D02*
X117392857Y-131177380D01*
X117630952Y-131177380D01*
X117726190Y-131129761D01*
X117773809Y-131082142D01*
X117821428Y-130986904D01*
X117821428Y-130891666D01*
X117773809Y-130796428D01*
X117726190Y-130748809D01*
X117630952Y-130701190D01*
X117440476Y-130653571D01*
X117345238Y-130605952D01*
X117297619Y-130558333D01*
X117250000Y-130463095D01*
X117250000Y-130367857D01*
X117297619Y-130272619D01*
X117345238Y-130225000D01*
X117440476Y-130177380D01*
X117678571Y-130177380D01*
X117821428Y-130225000D01*
X118202380Y-131129761D02*
X118345238Y-131177380D01*
X118583333Y-131177380D01*
X118678571Y-131129761D01*
X118726190Y-131082142D01*
X118773809Y-130986904D01*
X118773809Y-130891666D01*
X118726190Y-130796428D01*
X118678571Y-130748809D01*
X118583333Y-130701190D01*
X118392857Y-130653571D01*
X118297619Y-130605952D01*
X118250000Y-130558333D01*
X118202380Y-130463095D01*
X118202380Y-130367857D01*
X118250000Y-130272619D01*
X118297619Y-130225000D01*
X118392857Y-130177380D01*
X118630952Y-130177380D01*
X118773809Y-130225000D01*
X119202380Y-131177380D02*
X119202380Y-130177380D01*
X119440476Y-130177380D01*
X119583333Y-130225000D01*
X119678571Y-130320238D01*
X119726190Y-130415476D01*
X119773809Y-130605952D01*
X119773809Y-130748809D01*
X119726190Y-130939285D01*
X119678571Y-131034523D01*
X119583333Y-131129761D01*
X119440476Y-131177380D01*
X119202380Y-131177380D01*
X120726190Y-131177380D02*
X120154761Y-131177380D01*
X120440476Y-131177380D02*
X120440476Y-130177380D01*
X120345238Y-130320238D01*
X120250000Y-130415476D01*
X120154761Y-130463095D01*
X121059523Y-130177380D02*
X121678571Y-130177380D01*
X121345238Y-130558333D01*
X121488095Y-130558333D01*
X121583333Y-130605952D01*
X121630952Y-130653571D01*
X121678571Y-130748809D01*
X121678571Y-130986904D01*
X121630952Y-131082142D01*
X121583333Y-131129761D01*
X121488095Y-131177380D01*
X121202380Y-131177380D01*
X121107142Y-131129761D01*
X121059523Y-131082142D01*
X122297619Y-130177380D02*
X122392857Y-130177380D01*
X122488095Y-130225000D01*
X122535714Y-130272619D01*
X122583333Y-130367857D01*
X122630952Y-130558333D01*
X122630952Y-130796428D01*
X122583333Y-130986904D01*
X122535714Y-131082142D01*
X122488095Y-131129761D01*
X122392857Y-131177380D01*
X122297619Y-131177380D01*
X122202380Y-131129761D01*
X122154761Y-131082142D01*
X122107142Y-130986904D01*
X122059523Y-130796428D01*
X122059523Y-130558333D01*
X122107142Y-130367857D01*
X122154761Y-130272619D01*
X122202380Y-130225000D01*
X122297619Y-130177380D01*
X123488095Y-130177380D02*
X123297619Y-130177380D01*
X123202380Y-130225000D01*
X123154761Y-130272619D01*
X123059523Y-130415476D01*
X123011904Y-130605952D01*
X123011904Y-130986904D01*
X123059523Y-131082142D01*
X123107142Y-131129761D01*
X123202380Y-131177380D01*
X123392857Y-131177380D01*
X123488095Y-131129761D01*
X123535714Y-131082142D01*
X123583333Y-130986904D01*
X123583333Y-130748809D01*
X123535714Y-130653571D01*
X123488095Y-130605952D01*
X123392857Y-130558333D01*
X123202380Y-130558333D01*
X123107142Y-130605952D01*
X123059523Y-130653571D01*
X123011904Y-130748809D01*
X123773809Y-131272619D02*
X124535714Y-131272619D01*
X124726190Y-131129761D02*
X124821428Y-131177380D01*
X125011904Y-131177380D01*
X125107142Y-131129761D01*
X125154761Y-131034523D01*
X125154761Y-130986904D01*
X125107142Y-130891666D01*
X125011904Y-130844047D01*
X124869047Y-130844047D01*
X124773809Y-130796428D01*
X124726190Y-130701190D01*
X124726190Y-130653571D01*
X124773809Y-130558333D01*
X124869047Y-130510714D01*
X125011904Y-130510714D01*
X125107142Y-130558333D01*
X126011904Y-131129761D02*
X125916666Y-131177380D01*
X125726190Y-131177380D01*
X125630952Y-131129761D01*
X125583333Y-131082142D01*
X125535714Y-130986904D01*
X125535714Y-130701190D01*
X125583333Y-130605952D01*
X125630952Y-130558333D01*
X125726190Y-130510714D01*
X125916666Y-130510714D01*
X126011904Y-130558333D01*
X126440476Y-131177380D02*
X126440476Y-130510714D01*
X126440476Y-130701190D02*
X126488095Y-130605952D01*
X126535714Y-130558333D01*
X126630952Y-130510714D01*
X126726190Y-130510714D01*
X127440476Y-131129761D02*
X127345238Y-131177380D01*
X127154761Y-131177380D01*
X127059523Y-131129761D01*
X127011904Y-131034523D01*
X127011904Y-130653571D01*
X127059523Y-130558333D01*
X127154761Y-130510714D01*
X127345238Y-130510714D01*
X127440476Y-130558333D01*
X127488095Y-130653571D01*
X127488095Y-130748809D01*
X127011904Y-130844047D01*
X128297619Y-131129761D02*
X128202380Y-131177380D01*
X128011904Y-131177380D01*
X127916666Y-131129761D01*
X127869047Y-131034523D01*
X127869047Y-130653571D01*
X127916666Y-130558333D01*
X128011904Y-130510714D01*
X128202380Y-130510714D01*
X128297619Y-130558333D01*
X128345238Y-130653571D01*
X128345238Y-130748809D01*
X127869047Y-130844047D01*
X128773809Y-130510714D02*
X128773809Y-131177380D01*
X128773809Y-130605952D02*
X128821428Y-130558333D01*
X128916666Y-130510714D01*
X129059523Y-130510714D01*
X129154761Y-130558333D01*
X129202380Y-130653571D01*
X129202380Y-131177380D01*
X122467380Y-89688095D02*
X121467380Y-89688095D01*
X121467380Y-89450000D01*
X121515000Y-89307142D01*
X121610238Y-89211904D01*
X121705476Y-89164285D01*
X121895952Y-89116666D01*
X122038809Y-89116666D01*
X122229285Y-89164285D01*
X122324523Y-89211904D01*
X122419761Y-89307142D01*
X122467380Y-89450000D01*
X122467380Y-89688095D01*
X121467380Y-88783333D02*
X121467380Y-88164285D01*
X121848333Y-88497619D01*
X121848333Y-88354761D01*
X121895952Y-88259523D01*
X121943571Y-88211904D01*
X122038809Y-88164285D01*
X122276904Y-88164285D01*
X122372142Y-88211904D01*
X122419761Y-88259523D01*
X122467380Y-88354761D01*
X122467380Y-88640476D01*
X122419761Y-88735714D01*
X122372142Y-88783333D01*
X124052380Y-96831904D02*
X123052380Y-96831904D01*
X124052380Y-96260476D02*
X123480952Y-96689047D01*
X123052380Y-96260476D02*
X123623809Y-96831904D01*
X113833333Y-98782380D02*
X113500000Y-98306190D01*
X113261904Y-98782380D02*
X113261904Y-97782380D01*
X113642857Y-97782380D01*
X113738095Y-97830000D01*
X113785714Y-97877619D01*
X113833333Y-97972857D01*
X113833333Y-98115714D01*
X113785714Y-98210952D01*
X113738095Y-98258571D01*
X113642857Y-98306190D01*
X113261904Y-98306190D01*
X114166666Y-97782380D02*
X114833333Y-97782380D01*
X114404761Y-98782380D01*
X108880952Y-99402380D02*
X108309523Y-99402380D01*
X108595238Y-99402380D02*
X108595238Y-98402380D01*
X108500000Y-98545238D01*
X108404761Y-98640476D01*
X108309523Y-98688095D01*
X109309523Y-99402380D02*
X109309523Y-98402380D01*
X109404761Y-99021428D02*
X109690476Y-99402380D01*
X109690476Y-98735714D02*
X109309523Y-99116666D01*
X143357142Y-144784287D02*
X143404761Y-144831906D01*
X143452380Y-144974763D01*
X143452380Y-145070001D01*
X143404761Y-145212859D01*
X143309523Y-145308097D01*
X143214285Y-145355716D01*
X143023809Y-145403335D01*
X142880952Y-145403335D01*
X142690476Y-145355716D01*
X142595238Y-145308097D01*
X142500000Y-145212859D01*
X142452380Y-145070001D01*
X142452380Y-144974763D01*
X142500000Y-144831906D01*
X142547619Y-144784287D01*
X142547619Y-144403335D02*
X142500000Y-144355716D01*
X142452380Y-144260478D01*
X142452380Y-144022382D01*
X142500000Y-143927144D01*
X142547619Y-143879525D01*
X142642857Y-143831906D01*
X142738095Y-143831906D01*
X142880952Y-143879525D01*
X143452380Y-144450954D01*
X143452380Y-143831906D01*
X133747619Y-146808097D02*
X133700000Y-146760478D01*
X133652380Y-146665240D01*
X133652380Y-146427144D01*
X133700000Y-146331906D01*
X133747619Y-146284287D01*
X133842857Y-146236668D01*
X133938095Y-146236668D01*
X134080952Y-146284287D01*
X134652380Y-146855716D01*
X134652380Y-146236668D01*
X133747619Y-145855716D02*
X133700000Y-145808097D01*
X133652380Y-145712859D01*
X133652380Y-145474763D01*
X133700000Y-145379525D01*
X133747619Y-145331906D01*
X133842857Y-145284287D01*
X133938095Y-145284287D01*
X134080952Y-145331906D01*
X134652380Y-145903335D01*
X134652380Y-145284287D01*
X133652380Y-144665240D02*
X133652380Y-144570001D01*
X133700000Y-144474763D01*
X133747619Y-144427144D01*
X133842857Y-144379525D01*
X134033333Y-144331906D01*
X134271428Y-144331906D01*
X134461904Y-144379525D01*
X134557142Y-144427144D01*
X134604761Y-144474763D01*
X134652380Y-144570001D01*
X134652380Y-144665240D01*
X134604761Y-144760478D01*
X134557142Y-144808097D01*
X134461904Y-144855716D01*
X134271428Y-144903335D01*
X134033333Y-144903335D01*
X133842857Y-144855716D01*
X133747619Y-144808097D01*
X133700000Y-144760478D01*
X133652380Y-144665240D01*
X133985714Y-143903335D02*
X134985714Y-143903335D01*
X134509523Y-143427144D02*
X134604761Y-143379525D01*
X134652380Y-143284287D01*
X134509523Y-143903335D02*
X134604761Y-143855716D01*
X134652380Y-143760478D01*
X134652380Y-143570001D01*
X134604761Y-143474763D01*
X134509523Y-143427144D01*
X133985714Y-143427144D01*
X134128571Y-142522382D02*
X134128571Y-142855716D01*
X134652380Y-142855716D02*
X133652380Y-142855716D01*
X133652380Y-142379525D01*
X149238095Y-89602380D02*
X149238095Y-88602380D01*
X149238095Y-89078571D02*
X149809523Y-89078571D01*
X149809523Y-89602380D02*
X149809523Y-88602380D01*
X150238095Y-88697619D02*
X150285714Y-88650000D01*
X150380952Y-88602380D01*
X150619047Y-88602380D01*
X150714285Y-88650000D01*
X150761904Y-88697619D01*
X150809523Y-88792857D01*
X150809523Y-88888095D01*
X150761904Y-89030952D01*
X150190476Y-89602380D01*
X150809523Y-89602380D01*
X149238095Y-159602380D02*
X149238095Y-158602380D01*
X149238095Y-159078571D02*
X149809523Y-159078571D01*
X149809523Y-159602380D02*
X149809523Y-158602380D01*
X150190476Y-158602380D02*
X150809523Y-158602380D01*
X150476190Y-158983333D01*
X150619047Y-158983333D01*
X150714285Y-159030952D01*
X150761904Y-159078571D01*
X150809523Y-159173809D01*
X150809523Y-159411904D01*
X150761904Y-159507142D01*
X150714285Y-159554761D01*
X150619047Y-159602380D01*
X150333333Y-159602380D01*
X150238095Y-159554761D01*
X150190476Y-159507142D01*
X113238095Y-76602380D02*
X113238095Y-75602380D01*
X113238095Y-76078571D02*
X113809523Y-76078571D01*
X113809523Y-76602380D02*
X113809523Y-75602380D01*
X114809523Y-76602380D02*
X114238095Y-76602380D01*
X114523809Y-76602380D02*
X114523809Y-75602380D01*
X114428571Y-75745238D01*
X114333333Y-75840476D01*
X114238095Y-75888095D01*
X104387380Y-101433095D02*
X103387380Y-101433095D01*
X103387380Y-101195000D01*
X103435000Y-101052142D01*
X103530238Y-100956904D01*
X103625476Y-100909285D01*
X103815952Y-100861666D01*
X103958809Y-100861666D01*
X104149285Y-100909285D01*
X104244523Y-100956904D01*
X104339761Y-101052142D01*
X104387380Y-101195000D01*
X104387380Y-101433095D01*
X103387380Y-99956904D02*
X103387380Y-100433095D01*
X103863571Y-100480714D01*
X103815952Y-100433095D01*
X103768333Y-100337857D01*
X103768333Y-100099761D01*
X103815952Y-100004523D01*
X103863571Y-99956904D01*
X103958809Y-99909285D01*
X104196904Y-99909285D01*
X104292142Y-99956904D01*
X104339761Y-100004523D01*
X104387380Y-100099761D01*
X104387380Y-100337857D01*
X104339761Y-100433095D01*
X104292142Y-100480714D01*
X136433333Y-130857142D02*
X136385714Y-130904761D01*
X136242857Y-130952380D01*
X136147619Y-130952380D01*
X136004761Y-130904761D01*
X135909523Y-130809523D01*
X135861904Y-130714285D01*
X135814285Y-130523809D01*
X135814285Y-130380952D01*
X135861904Y-130190476D01*
X135909523Y-130095238D01*
X136004761Y-130000000D01*
X136147619Y-129952380D01*
X136242857Y-129952380D01*
X136385714Y-130000000D01*
X136433333Y-130047619D01*
X136766666Y-129952380D02*
X137385714Y-129952380D01*
X137052380Y-130333333D01*
X137195238Y-130333333D01*
X137290476Y-130380952D01*
X137338095Y-130428571D01*
X137385714Y-130523809D01*
X137385714Y-130761904D01*
X137338095Y-130857142D01*
X137290476Y-130904761D01*
X137195238Y-130952380D01*
X136909523Y-130952380D01*
X136814285Y-130904761D01*
X136766666Y-130857142D01*
X135052380Y-137852380D02*
X134480952Y-137852380D01*
X134766666Y-137852380D02*
X134766666Y-136852380D01*
X134671428Y-136995238D01*
X134576190Y-137090476D01*
X134480952Y-137138095D01*
X135671428Y-136852380D02*
X135766666Y-136852380D01*
X135861904Y-136900000D01*
X135909523Y-136947619D01*
X135957142Y-137042857D01*
X136004761Y-137233333D01*
X136004761Y-137471428D01*
X135957142Y-137661904D01*
X135909523Y-137757142D01*
X135861904Y-137804761D01*
X135766666Y-137852380D01*
X135671428Y-137852380D01*
X135576190Y-137804761D01*
X135528571Y-137757142D01*
X135480952Y-137661904D01*
X135433333Y-137471428D01*
X135433333Y-137233333D01*
X135480952Y-137042857D01*
X135528571Y-136947619D01*
X135576190Y-136900000D01*
X135671428Y-136852380D01*
X136623809Y-136852380D02*
X136719047Y-136852380D01*
X136814285Y-136900000D01*
X136861904Y-136947619D01*
X136909523Y-137042857D01*
X136957142Y-137233333D01*
X136957142Y-137471428D01*
X136909523Y-137661904D01*
X136861904Y-137757142D01*
X136814285Y-137804761D01*
X136719047Y-137852380D01*
X136623809Y-137852380D01*
X136528571Y-137804761D01*
X136480952Y-137757142D01*
X136433333Y-137661904D01*
X136385714Y-137471428D01*
X136385714Y-137233333D01*
X136433333Y-137042857D01*
X136480952Y-136947619D01*
X136528571Y-136900000D01*
X136623809Y-136852380D01*
X137385714Y-137185714D02*
X137385714Y-137852380D01*
X137385714Y-137280952D02*
X137433333Y-137233333D01*
X137528571Y-137185714D01*
X137671428Y-137185714D01*
X137766666Y-137233333D01*
X137814285Y-137328571D01*
X137814285Y-137852380D01*
X138623809Y-137328571D02*
X138290476Y-137328571D01*
X138290476Y-137852380D02*
X138290476Y-136852380D01*
X138766666Y-136852380D01*
X124154761Y-146827380D02*
X123821428Y-146351190D01*
X123583333Y-146827380D02*
X123583333Y-145827380D01*
X123964285Y-145827380D01*
X124059523Y-145875000D01*
X124107142Y-145922619D01*
X124154761Y-146017857D01*
X124154761Y-146160714D01*
X124107142Y-146255952D01*
X124059523Y-146303571D01*
X123964285Y-146351190D01*
X123583333Y-146351190D01*
X124440476Y-145827380D02*
X124773809Y-146827380D01*
X125107142Y-145827380D01*
X125964285Y-146827380D02*
X125392857Y-146827380D01*
X125678571Y-146827380D02*
X125678571Y-145827380D01*
X125583333Y-145970238D01*
X125488095Y-146065476D01*
X125392857Y-146113095D01*
X127880952Y-146402380D02*
X127309523Y-146402380D01*
X127595238Y-146402380D02*
X127595238Y-145402380D01*
X127500000Y-145545238D01*
X127404761Y-145640476D01*
X127309523Y-145688095D01*
X128309523Y-146402380D02*
X128309523Y-145402380D01*
X128404761Y-146021428D02*
X128690476Y-146402380D01*
X128690476Y-145735714D02*
X128309523Y-146116666D01*
D14*
X139490000Y-111690000D02*
X136820000Y-111690000D01*
X134280000Y-114360000D02*
X136820000Y-114360000D01*
X134280000Y-111690000D02*
X96050000Y-111690000D01*
X139490000Y-129730000D02*
X139490000Y-111690000D01*
X98720000Y-127060000D02*
X98720000Y-129730000D01*
X136820000Y-127060000D02*
X136820000Y-129730000D01*
X136820000Y-127060000D02*
X98720000Y-127060000D01*
X136820000Y-114360000D02*
X136820000Y-111690000D01*
X98720000Y-114360000D02*
X98720000Y-111690000D01*
X134280000Y-114360000D02*
X98720000Y-114360000D01*
X96050000Y-129730000D02*
X139490000Y-129730000D01*
X134280000Y-114360000D02*
X134280000Y-111690000D01*
X96050000Y-111690000D02*
X96050000Y-129730000D01*
X117415000Y-94510000D02*
X117415000Y-92390000D01*
X113955000Y-92390000D02*
X113955000Y-94510000D01*
X118075000Y-94510000D02*
X118075000Y-92390000D01*
X113185000Y-93450000D02*
X113955000Y-93450000D01*
X118845000Y-93450000D02*
X118075000Y-93450000D01*
X113955000Y-94510000D02*
X118075000Y-94510000D01*
X118075000Y-92390000D02*
X113955000Y-92390000D01*
X95850000Y-164650000D02*
X95850000Y-149650000D01*
X96050000Y-157150000D02*
X97050000Y-158150000D01*
X96050000Y-157150000D02*
X97050000Y-156150000D01*
X95850000Y-149650000D02*
X110850000Y-149650000D01*
X110850000Y-164650000D02*
X95850000Y-164650000D01*
X110850000Y-149650000D02*
X110850000Y-164650000D01*
X130990000Y-94935000D02*
X138610000Y-94935000D01*
X131000000Y-94925000D02*
X132800000Y-94925000D01*
X134300000Y-94175000D02*
X134300000Y-94925000D01*
X138610000Y-94935000D02*
X138610000Y-88965000D01*
X130990000Y-88965000D02*
X130990000Y-94935000D01*
X131750000Y-89725000D02*
X134800000Y-89725000D01*
X138610000Y-88965000D02*
X130990000Y-88965000D01*
X131750000Y-92675000D02*
X131750000Y-89725000D01*
X138900000Y-95225000D02*
X138900000Y-93975000D01*
X137850000Y-89725000D02*
X134800000Y-89725000D01*
X138600000Y-92675000D02*
X137850000Y-92675000D01*
X138600000Y-94925000D02*
X138600000Y-94175000D01*
X135300000Y-94925000D02*
X135300000Y-94175000D01*
X137650000Y-95225000D02*
X138900000Y-95225000D01*
X131000000Y-94175000D02*
X131000000Y-94925000D01*
X136800000Y-94925000D02*
X138600000Y-94925000D01*
X134300000Y-94925000D02*
X135300000Y-94925000D01*
X132800000Y-94925000D02*
X132800000Y-94175000D01*
X135300000Y-94175000D02*
X134300000Y-94175000D01*
X132800000Y-94175000D02*
X131000000Y-94175000D01*
X138600000Y-94175000D02*
X136800000Y-94175000D01*
X131000000Y-92675000D02*
X131750000Y-92675000D01*
X136800000Y-94175000D02*
X136800000Y-94925000D01*
X137850000Y-92675000D02*
X137850000Y-89725000D01*
X112230000Y-139480000D02*
X112230000Y-151620000D01*
X112230000Y-151620000D02*
X116970000Y-151620000D01*
X114600000Y-151730000D02*
X114600000Y-151620000D01*
X116970000Y-139480000D02*
X112230000Y-139480000D01*
X114600000Y-139370000D02*
X114600000Y-139480000D01*
X116970000Y-151620000D02*
X116970000Y-139480000D01*
X120180000Y-107700000D02*
X120070000Y-107700000D01*
X120070000Y-110070000D02*
X120070000Y-105330000D01*
X120070000Y-105330000D02*
X107930000Y-105330000D01*
X107930000Y-110070000D02*
X120070000Y-110070000D01*
X107930000Y-105330000D02*
X107930000Y-110070000D01*
X107820000Y-107700000D02*
X107930000Y-107700000D01*
X134070000Y-154320000D02*
X134070000Y-149580000D01*
X134070000Y-149580000D02*
X121930000Y-149580000D01*
X121820000Y-151950000D02*
X121930000Y-151950000D01*
X121930000Y-149580000D02*
X121930000Y-154320000D01*
X134180000Y-151950000D02*
X134070000Y-151950000D01*
X121930000Y-154320000D02*
X134070000Y-154320000D01*
X139320000Y-105330000D02*
X127180000Y-105330000D01*
X127070000Y-107700000D02*
X127180000Y-107700000D01*
X139430000Y-107700000D02*
X139320000Y-107700000D01*
X127180000Y-105330000D02*
X127180000Y-110070000D01*
X139320000Y-110070000D02*
X139320000Y-105330000D01*
X127180000Y-110070000D02*
X139320000Y-110070000D01*
X121820000Y-157950000D02*
X121930000Y-157950000D01*
X134180000Y-157950000D02*
X134070000Y-157950000D01*
X121930000Y-160320000D02*
X134070000Y-160320000D01*
X121930000Y-155580000D02*
X121930000Y-160320000D01*
X134070000Y-155580000D02*
X121930000Y-155580000D01*
X134070000Y-160320000D02*
X134070000Y-155580000D01*
X127180000Y-99580000D02*
X127180000Y-104320000D01*
X139430000Y-101950000D02*
X139320000Y-101950000D01*
X127180000Y-104320000D02*
X139320000Y-104320000D01*
X127070000Y-101950000D02*
X127180000Y-101950000D01*
X139320000Y-104320000D02*
X139320000Y-99580000D01*
X139320000Y-99580000D02*
X127180000Y-99580000D01*
X103940000Y-89050000D02*
X95990000Y-89050000D01*
X95990000Y-96350000D02*
X103940000Y-96350000D01*
X103940000Y-91200000D02*
X103940000Y-91700000D01*
X103940000Y-89050000D02*
X103940000Y-89200000D01*
X103940000Y-96350000D02*
X103940000Y-96200000D01*
X103940000Y-93700000D02*
X103940000Y-94200000D01*
X95990000Y-89050000D02*
X95990000Y-96350000D01*
X146500000Y-115470000D02*
X146500000Y-116380000D01*
X149220000Y-116380000D02*
X143780000Y-116380000D01*
X149220000Y-126120000D02*
X149220000Y-116380000D01*
X143780000Y-116380000D02*
X143780000Y-126120000D01*
X143780000Y-124455000D02*
X149220000Y-124455000D01*
X143780000Y-126120000D02*
X149220000Y-126120000D01*
X143780000Y-124575000D02*
X149220000Y-124575000D01*
X143780000Y-124695000D02*
X149220000Y-124695000D01*
X146500000Y-127030000D02*
X146500000Y-126120000D01*
X144790029Y-153570076D02*
G75*
G03*
X138610000Y-153570000I-3090029J-1179924D01*
G01*
X138610000Y-155930000D02*
G75*
G03*
X144790029Y-155929924I3090000J1180000D01*
G01*
X148029000Y-138350000D02*
X145415000Y-138350000D01*
X152670000Y-133229000D02*
X148029000Y-133229000D01*
X152670000Y-133229000D02*
X152670000Y-143470000D01*
X148029000Y-141750000D02*
X145415000Y-141750000D01*
X148029000Y-133229000D02*
X148029000Y-135585000D01*
X148029000Y-137715000D02*
X148029000Y-138985000D01*
X151161000Y-133229000D02*
X151161000Y-143470000D01*
X148029000Y-134950000D02*
X145399000Y-134950000D01*
X152670000Y-140200000D02*
X151161000Y-140200000D01*
X148029000Y-141115000D02*
X148029000Y-143470000D01*
X152670000Y-136500000D02*
X151161000Y-136500000D01*
X152670000Y-143470000D02*
X148029000Y-143470000D01*
X111100000Y-147200000D02*
X96100000Y-147200000D01*
X96100000Y-132200000D02*
X111100000Y-132200000D01*
X111100000Y-132200000D02*
X111100000Y-147200000D01*
X96100000Y-147200000D02*
X96100000Y-132200000D01*
X96300000Y-139700000D02*
X97300000Y-140700000D01*
X96300000Y-139700000D02*
X97300000Y-138700000D01*
X158850000Y-88000000D02*
X144350000Y-88000000D01*
X144350000Y-88000000D02*
X144350000Y-86000000D01*
X144350000Y-80800000D02*
X144350000Y-78800000D01*
X150250000Y-78800000D02*
X158850000Y-78800000D01*
X144050000Y-88300000D02*
X145350000Y-88300000D01*
X144350000Y-78800000D02*
X145650000Y-78800000D01*
X158850000Y-78800000D02*
X158850000Y-88000000D01*
X144050000Y-86600000D02*
X144050000Y-88300000D01*
X100765000Y-110655000D02*
X99645000Y-110655000D01*
X100765000Y-108965000D02*
X100895000Y-108965000D01*
X99645000Y-110255000D02*
X100765000Y-110255000D01*
X99645000Y-110655000D02*
X99645000Y-110255000D01*
X100765000Y-110255000D02*
X94605000Y-110255000D01*
X100765000Y-106425000D02*
X100765000Y-106425000D01*
X100895000Y-106425000D02*
X100765000Y-106425000D01*
X100895000Y-106425000D02*
X100895000Y-106425000D01*
X100895000Y-108965000D02*
X100765000Y-108965000D01*
X100765000Y-110255000D02*
X100765000Y-110655000D01*
X100895000Y-108965000D02*
X100895000Y-108965000D01*
X100765000Y-105135000D02*
X94605000Y-105135000D01*
X100765000Y-105135000D02*
X100765000Y-110255000D01*
X100765000Y-108965000D02*
X100765000Y-108965000D01*
X100765000Y-106425000D02*
X100895000Y-106425000D01*
X94605000Y-105135000D02*
G75*
G03*
X94605000Y-110255000I0J-2560000D01*
G01*
X147658349Y-106190000D02*
X147658349Y-109160000D01*
X148418349Y-106190000D02*
X148418349Y-108940000D01*
X149058349Y-106190000D02*
X149058349Y-108619000D01*
X148858349Y-106190000D02*
X148858349Y-108734000D01*
X149618349Y-106190000D02*
X149618349Y-108205000D01*
X149658349Y-106190000D02*
X149658349Y-108169000D01*
X149258349Y-106190000D02*
X149258349Y-108488000D01*
X150338349Y-102922000D02*
X150338349Y-107378000D01*
X149338349Y-106190000D02*
X149338349Y-108430000D01*
X147217349Y-101082000D02*
X147217349Y-109218000D01*
X146977349Y-101070000D02*
X146977349Y-109230000D01*
X148898349Y-101588000D02*
X148898349Y-104110000D01*
X149618349Y-102095000D02*
X149618349Y-104110000D01*
X148378349Y-106190000D02*
X148378349Y-108955000D01*
X148658349Y-101464000D02*
X148658349Y-104110000D01*
X149098349Y-101706000D02*
X149098349Y-104110000D01*
X148338349Y-106190000D02*
X148338349Y-108971000D01*
X148818349Y-101544000D02*
X148818349Y-104110000D01*
X147417349Y-101102000D02*
X147417349Y-109198000D01*
X147257349Y-101085000D02*
X147257349Y-109215000D01*
X149218349Y-106190000D02*
X149218349Y-108515000D01*
X147778349Y-106190000D02*
X147778349Y-109135000D01*
X149578349Y-106190000D02*
X149578349Y-108240000D01*
X149378349Y-101900000D02*
X149378349Y-104110000D01*
X149498349Y-101994000D02*
X149498349Y-104110000D01*
X148058349Y-106190000D02*
X148058349Y-109064000D01*
X149858349Y-102324000D02*
X149858349Y-107976000D01*
X148138349Y-106190000D02*
X148138349Y-109039000D01*
X149458349Y-101961000D02*
X149458349Y-104110000D01*
X150658349Y-103505000D02*
X150658349Y-106795000D01*
X149578349Y-102060000D02*
X149578349Y-104110000D01*
X147537349Y-101120000D02*
X147537349Y-109180000D01*
X147778349Y-101165000D02*
X147778349Y-104110000D01*
X147377349Y-101098000D02*
X147377349Y-109202000D01*
X150138349Y-102645000D02*
X150138349Y-107655000D01*
X148418349Y-101360000D02*
X148418349Y-104110000D01*
X149098349Y-106190000D02*
X149098349Y-108594000D01*
X147177349Y-101079000D02*
X147177349Y-109221000D01*
X149818349Y-102283000D02*
X149818349Y-108017000D01*
X148098349Y-106190000D02*
X148098349Y-109052000D01*
X148498349Y-106190000D02*
X148498349Y-108907000D01*
X149178349Y-106190000D02*
X149178349Y-108542000D01*
X149258349Y-101812000D02*
X149258349Y-104110000D01*
X148018349Y-106190000D02*
X148018349Y-109075000D01*
X148778349Y-101523000D02*
X148778349Y-104110000D01*
X149698349Y-102167000D02*
X149698349Y-108133000D01*
X148378349Y-101345000D02*
X148378349Y-104110000D01*
X146897349Y-101070000D02*
X146897349Y-109230000D01*
X149498349Y-106190000D02*
X149498349Y-108306000D01*
X148458349Y-106190000D02*
X148458349Y-108924000D01*
X149978349Y-102453000D02*
X149978349Y-107847000D01*
X148018349Y-101225000D02*
X148018349Y-104110000D01*
X149018349Y-106190000D02*
X149018349Y-108643000D01*
X147818349Y-106190000D02*
X147818349Y-109126000D01*
X149138349Y-106190000D02*
X149138349Y-108568000D01*
X150738349Y-103697000D02*
X150738349Y-106603000D01*
X148698349Y-106190000D02*
X148698349Y-108816000D01*
X142887651Y-102435000D02*
X142887651Y-103235000D01*
X148978349Y-101633000D02*
X148978349Y-104110000D01*
X149898349Y-102366000D02*
X149898349Y-107934000D01*
X150178349Y-102696000D02*
X150178349Y-107604000D01*
X147738349Y-106190000D02*
X147738349Y-109144000D01*
X147057349Y-101073000D02*
X147057349Y-109227000D01*
X147978349Y-106190000D02*
X147978349Y-109086000D01*
X149378349Y-106190000D02*
X149378349Y-108400000D01*
X147618349Y-106190000D02*
X147618349Y-109167000D01*
X147898349Y-101193000D02*
X147898349Y-104110000D01*
X148138349Y-101261000D02*
X148138349Y-104110000D01*
X150498349Y-103186000D02*
X150498349Y-107114000D01*
X148218349Y-106190000D02*
X148218349Y-109013000D01*
X148578349Y-106190000D02*
X148578349Y-108872000D01*
X146937349Y-101070000D02*
X146937349Y-109230000D01*
X150018349Y-102499000D02*
X150018349Y-107801000D01*
X148618349Y-106190000D02*
X148618349Y-108854000D01*
X147738349Y-101156000D02*
X147738349Y-104110000D01*
X148578349Y-101428000D02*
X148578349Y-104110000D01*
X148738349Y-106190000D02*
X148738349Y-108797000D01*
X147137349Y-101076000D02*
X147137349Y-109224000D01*
X148178349Y-101273000D02*
X148178349Y-104110000D01*
X148658349Y-106190000D02*
X148658349Y-108836000D01*
X150618349Y-103419000D02*
X150618349Y-106881000D01*
X148738349Y-101503000D02*
X148738349Y-104110000D01*
X150258349Y-102805000D02*
X150258349Y-107495000D01*
X150418349Y-103048000D02*
X150418349Y-107252000D01*
X148178349Y-106190000D02*
X148178349Y-109027000D01*
X149418349Y-106190000D02*
X149418349Y-108370000D01*
X148898349Y-106190000D02*
X148898349Y-108712000D01*
X147858349Y-101183000D02*
X147858349Y-104110000D01*
X150978349Y-104617000D02*
X150978349Y-105683000D01*
X147297349Y-101089000D02*
X147297349Y-109211000D01*
X149458349Y-106190000D02*
X149458349Y-108339000D01*
X149738349Y-102205000D02*
X149738349Y-108095000D01*
X148938349Y-101610000D02*
X148938349Y-104110000D01*
X147858349Y-106190000D02*
X147858349Y-109117000D01*
X150818349Y-103921000D02*
X150818349Y-106379000D01*
X147457349Y-101108000D02*
X147457349Y-109192000D01*
X150298349Y-102863000D02*
X150298349Y-107437000D01*
X147898349Y-106190000D02*
X147898349Y-109107000D01*
X148098349Y-101248000D02*
X148098349Y-104110000D01*
X149938349Y-102409000D02*
X149938349Y-107891000D01*
X148498349Y-101393000D02*
X148498349Y-104110000D01*
X150898349Y-104202000D02*
X150898349Y-106098000D01*
X149218349Y-101785000D02*
X149218349Y-104110000D01*
X147938349Y-106190000D02*
X147938349Y-109097000D01*
X149658349Y-102131000D02*
X149658349Y-104110000D01*
X148218349Y-101287000D02*
X148218349Y-104110000D01*
X148538349Y-101410000D02*
X148538349Y-104110000D01*
X149538349Y-106190000D02*
X149538349Y-108274000D01*
X147658349Y-101140000D02*
X147658349Y-104110000D01*
X148458349Y-101376000D02*
X148458349Y-104110000D01*
X142487651Y-102835000D02*
X143287651Y-102835000D01*
X147618349Y-101133000D02*
X147618349Y-104110000D01*
X150578349Y-103337000D02*
X150578349Y-106963000D01*
X150858349Y-104052000D02*
X150858349Y-106248000D01*
X149058349Y-101681000D02*
X149058349Y-104110000D01*
X148338349Y-101329000D02*
X148338349Y-104110000D01*
X149418349Y-101930000D02*
X149418349Y-104110000D01*
X148978349Y-106190000D02*
X148978349Y-108667000D01*
X147337349Y-101093000D02*
X147337349Y-109207000D01*
X149298349Y-101841000D02*
X149298349Y-104110000D01*
X147818349Y-101174000D02*
X147818349Y-104110000D01*
X150938349Y-104382000D02*
X150938349Y-105918000D01*
X148298349Y-101315000D02*
X148298349Y-104110000D01*
X149298349Y-106190000D02*
X149298349Y-108459000D01*
X149138349Y-101732000D02*
X149138349Y-104110000D01*
X147698349Y-106190000D02*
X147698349Y-109152000D01*
X149538349Y-102026000D02*
X149538349Y-104110000D01*
X150778349Y-103804000D02*
X150778349Y-106496000D01*
X148938349Y-106190000D02*
X148938349Y-108690000D01*
X149018349Y-101657000D02*
X149018349Y-104110000D01*
X150458349Y-103116000D02*
X150458349Y-107184000D01*
X150058349Y-102546000D02*
X150058349Y-107754000D01*
X147577349Y-101126000D02*
X147577349Y-109174000D01*
X147698349Y-101148000D02*
X147698349Y-104110000D01*
X149178349Y-101758000D02*
X149178349Y-104110000D01*
X148618349Y-101446000D02*
X148618349Y-104110000D01*
X150098349Y-102594000D02*
X150098349Y-107706000D01*
X147938349Y-101203000D02*
X147938349Y-104110000D01*
X148538349Y-106190000D02*
X148538349Y-108890000D01*
X149778349Y-102243000D02*
X149778349Y-108057000D01*
X148698349Y-101484000D02*
X148698349Y-104110000D01*
X147978349Y-101214000D02*
X147978349Y-104110000D01*
X150378349Y-102984000D02*
X150378349Y-107316000D01*
X147097349Y-101074000D02*
X147097349Y-109226000D01*
X148258349Y-101300000D02*
X148258349Y-104110000D01*
X148058349Y-101236000D02*
X148058349Y-104110000D01*
X148258349Y-106190000D02*
X148258349Y-109000000D01*
X147497349Y-101113000D02*
X147497349Y-109187000D01*
X148818349Y-106190000D02*
X148818349Y-108756000D01*
X150538349Y-103260000D02*
X150538349Y-107040000D01*
X148858349Y-101566000D02*
X148858349Y-104110000D01*
X147017349Y-101071000D02*
X147017349Y-109229000D01*
X150218349Y-102750000D02*
X150218349Y-107550000D01*
X149338349Y-101870000D02*
X149338349Y-104110000D01*
X150698349Y-103598000D02*
X150698349Y-106702000D01*
X148298349Y-106190000D02*
X148298349Y-108985000D01*
X148778349Y-106190000D02*
X148778349Y-108777000D01*
X151017349Y-105150000D02*
G75*
G03*
X151017349Y-105150000I-4120000J0D01*
G01*
X136550000Y-80600000D02*
X132700000Y-80600000D01*
X135700000Y-84649999D02*
G75*
G03*
X136957774Y-83394786I-1090000J2349999D01*
G01*
X132273537Y-83389513D02*
G75*
G03*
X133550000Y-84650000I2336463J1089513D01*
G01*
X132700000Y-80600000D02*
G75*
G03*
X132307617Y-81187736I1910000J-1700000D01*
G01*
X136932631Y-81177955D02*
G75*
G03*
X136550000Y-80600000I-2322631J-1122045D01*
G01*
X103940000Y-81700000D02*
X103940000Y-82200000D01*
X103940000Y-86850000D02*
X103940000Y-86700000D01*
X103940000Y-79550000D02*
X95990000Y-79550000D01*
X95990000Y-79550000D02*
X95990000Y-86850000D01*
X95990000Y-86850000D02*
X103940000Y-86850000D01*
X103940000Y-79550000D02*
X103940000Y-79700000D01*
X103940000Y-84200000D02*
X103940000Y-84700000D01*
X120250000Y-137025000D02*
X120250000Y-137775000D01*
X129550000Y-135525000D02*
X128800000Y-135525000D01*
X129560000Y-131815000D02*
X116940000Y-131815000D01*
X127750000Y-137775000D02*
X129550000Y-137775000D01*
X116950000Y-137775000D02*
X118750000Y-137775000D01*
X129560000Y-137785000D02*
X129560000Y-131815000D01*
X118750000Y-137775000D02*
X118750000Y-137025000D01*
X128800000Y-132575000D02*
X123250000Y-132575000D01*
X116940000Y-137785000D02*
X129560000Y-137785000D01*
X118750000Y-137025000D02*
X116950000Y-137025000D01*
X126250000Y-137775000D02*
X126250000Y-137025000D01*
X117700000Y-132575000D02*
X123250000Y-132575000D01*
X128800000Y-135525000D02*
X128800000Y-132575000D01*
X116950000Y-135525000D02*
X117700000Y-135525000D01*
X120250000Y-137775000D02*
X126250000Y-137775000D01*
X127750000Y-137025000D02*
X127750000Y-137775000D01*
X129850000Y-138075000D02*
X129850000Y-136825000D01*
X129550000Y-137775000D02*
X129550000Y-137025000D01*
X129550000Y-137025000D02*
X127750000Y-137025000D01*
X128600000Y-138075000D02*
X129850000Y-138075000D01*
X126250000Y-137025000D02*
X120250000Y-137025000D01*
X117700000Y-135525000D02*
X117700000Y-132575000D01*
X116940000Y-131815000D02*
X116940000Y-137785000D01*
X116950000Y-137025000D02*
X116950000Y-137775000D01*
X125800000Y-82770000D02*
X125800000Y-84070000D01*
X123015000Y-92162000D02*
X128585000Y-92162000D01*
X123015000Y-92402000D02*
X128585000Y-92402000D01*
X125800000Y-95130000D02*
X125800000Y-93830000D01*
X128585000Y-84070000D02*
X123015000Y-84070000D01*
X123015000Y-93830000D02*
X128585000Y-93830000D01*
X123015000Y-92282000D02*
X128585000Y-92282000D01*
X123015000Y-84070000D02*
X123015000Y-93830000D01*
X128585000Y-93830000D02*
X128585000Y-84070000D01*
X107930000Y-104070000D02*
X120070000Y-104070000D01*
X120070000Y-104070000D02*
X120070000Y-99330000D01*
X107930000Y-99330000D02*
X107930000Y-104070000D01*
X120070000Y-99330000D02*
X107930000Y-99330000D01*
X107820000Y-101700000D02*
X107930000Y-101700000D01*
X120180000Y-101700000D02*
X120070000Y-101700000D01*
X137560000Y-146498621D02*
X135964000Y-146498621D01*
X137560000Y-146458621D02*
X135936000Y-146458621D01*
X137560000Y-145938621D02*
X135648000Y-145938621D01*
X141767000Y-145257621D02*
X139640000Y-145257621D01*
X139862000Y-147618621D02*
X137338000Y-147618621D01*
X140032000Y-147538621D02*
X137168000Y-147538621D01*
X137560000Y-145778621D02*
X135582000Y-145778621D01*
X137560000Y-145257621D02*
X135433000Y-145257621D01*
X137560000Y-145978621D02*
X135666000Y-145978621D01*
X139765000Y-147658621D02*
X137435000Y-147658621D01*
X141412000Y-146218621D02*
X139640000Y-146218621D01*
X141741000Y-145378621D02*
X139640000Y-145378621D01*
X141750000Y-145338621D02*
X139640000Y-145338621D01*
X137560000Y-146378621D02*
X135884000Y-146378621D01*
X141552000Y-145938621D02*
X139640000Y-145938621D01*
X141516000Y-146018621D02*
X139640000Y-146018621D01*
X141016000Y-146778621D02*
X139640000Y-146778621D01*
X137560000Y-145738621D02*
X135567000Y-145738621D01*
X141815000Y-144937621D02*
X139640000Y-144937621D01*
X137560000Y-145898621D02*
X135630000Y-145898621D01*
X139540000Y-147738621D02*
X137660000Y-147738621D01*
X137560000Y-146018621D02*
X135684000Y-146018621D01*
X140376000Y-147338621D02*
X136824000Y-147338621D01*
X141795000Y-145097621D02*
X139640000Y-145097621D01*
X141476000Y-146098621D02*
X139640000Y-146098621D01*
X141818000Y-144897621D02*
X139640000Y-144897621D01*
X141434000Y-146178621D02*
X139640000Y-146178621D01*
X139233000Y-147818621D02*
X137967000Y-147818621D01*
X140692000Y-147098621D02*
X136508000Y-147098621D01*
X137560000Y-145498621D02*
X135490000Y-145498621D01*
X137560000Y-146338621D02*
X135858000Y-146338621D01*
X141830000Y-144617621D02*
X135370000Y-144617621D01*
X137560000Y-144977621D02*
X135389000Y-144977621D01*
X140490000Y-147258621D02*
X136710000Y-147258621D01*
X140439000Y-141117380D02*
X140439000Y-141747380D01*
X137560000Y-144897621D02*
X135382000Y-144897621D01*
X141316000Y-146378621D02*
X139640000Y-146378621D01*
X141674000Y-145618621D02*
X139640000Y-145618621D01*
X140109000Y-147498621D02*
X137091000Y-147498621D01*
X141496000Y-146058621D02*
X139640000Y-146058621D01*
X141731000Y-145418621D02*
X139640000Y-145418621D01*
X141236000Y-146498621D02*
X139640000Y-146498621D01*
X140737000Y-147058621D02*
X136463000Y-147058621D01*
X140250000Y-147418621D02*
X136950000Y-147418621D01*
X137560000Y-144937621D02*
X135385000Y-144937621D01*
X141811000Y-144977621D02*
X139640000Y-144977621D01*
X141759000Y-145297621D02*
X139640000Y-145297621D01*
X141050000Y-146738621D02*
X139640000Y-146738621D01*
X140181000Y-147458621D02*
X137019000Y-147458621D01*
X141830000Y-144657621D02*
X135370000Y-144657621D01*
X137560000Y-146778621D02*
X136184000Y-146778621D01*
X141264000Y-146458621D02*
X139640000Y-146458621D01*
X140905000Y-146898621D02*
X139640000Y-146898621D01*
X137560000Y-146738621D02*
X136150000Y-146738621D01*
X141686000Y-145578621D02*
X139640000Y-145578621D01*
X140544000Y-147218621D02*
X136656000Y-147218621D01*
X137560000Y-146178621D02*
X135766000Y-146178621D01*
X141366000Y-146298621D02*
X139640000Y-146298621D01*
X140782000Y-147018621D02*
X136418000Y-147018621D01*
X137560000Y-146858621D02*
X136257000Y-146858621D01*
X140980000Y-146818621D02*
X139640000Y-146818621D01*
X137560000Y-145297621D02*
X135441000Y-145297621D01*
X141801000Y-145057621D02*
X139640000Y-145057621D01*
X137560000Y-145418621D02*
X135469000Y-145418621D01*
X137560000Y-146138621D02*
X135744000Y-146138621D01*
X139659000Y-147698621D02*
X137541000Y-147698621D01*
X137560000Y-145458621D02*
X135479000Y-145458621D01*
X137560000Y-145818621D02*
X135598000Y-145818621D01*
X137560000Y-146098621D02*
X135724000Y-146098621D01*
X141148000Y-146618621D02*
X139640000Y-146618621D01*
X139002000Y-147858621D02*
X138198000Y-147858621D01*
X141618000Y-145778621D02*
X139640000Y-145778621D01*
X141828000Y-144737621D02*
X135372000Y-144737621D01*
X137560000Y-146898621D02*
X136295000Y-146898621D01*
X137560000Y-144857621D02*
X135378000Y-144857621D01*
X137560000Y-145578621D02*
X135514000Y-145578621D01*
X141178000Y-146578621D02*
X139640000Y-146578621D01*
X141342000Y-146338621D02*
X139640000Y-146338621D01*
X141710000Y-145498621D02*
X139640000Y-145498621D01*
X137560000Y-145097621D02*
X135405000Y-145097621D01*
X141084000Y-146698621D02*
X139640000Y-146698621D01*
X140314000Y-147378621D02*
X136886000Y-147378621D01*
X137560000Y-146698621D02*
X136116000Y-146698621D01*
X141661000Y-145658621D02*
X139640000Y-145658621D01*
X137560000Y-146658621D02*
X136084000Y-146658621D01*
X137560000Y-146818621D02*
X136220000Y-146818621D01*
X141806000Y-145017621D02*
X139640000Y-145017621D01*
X137560000Y-145217621D02*
X135425000Y-145217621D01*
X137560000Y-145137621D02*
X135411000Y-145137621D01*
X141586000Y-145858621D02*
X139640000Y-145858621D01*
X141534000Y-145978621D02*
X139640000Y-145978621D01*
X137560000Y-146578621D02*
X136022000Y-146578621D01*
X137560000Y-145658621D02*
X135539000Y-145658621D01*
X141633000Y-145738621D02*
X139640000Y-145738621D01*
X137560000Y-145538621D02*
X135502000Y-145538621D01*
X141822000Y-144857621D02*
X139640000Y-144857621D01*
X137560000Y-146058621D02*
X135704000Y-146058621D01*
X137560000Y-145338621D02*
X135450000Y-145338621D01*
X137560000Y-145858621D02*
X135614000Y-145858621D01*
X137560000Y-146298621D02*
X135834000Y-146298621D01*
X141721000Y-145458621D02*
X139640000Y-145458621D01*
X141207000Y-146538621D02*
X139640000Y-146538621D01*
X141647000Y-145698621D02*
X139640000Y-145698621D01*
X141824000Y-144817621D02*
X135376000Y-144817621D01*
X141830000Y-144697621D02*
X135370000Y-144697621D01*
X141456000Y-146138621D02*
X139640000Y-146138621D01*
X140865000Y-146938621D02*
X136335000Y-146938621D01*
X140943000Y-146858621D02*
X139640000Y-146858621D01*
X139402000Y-147778621D02*
X137798000Y-147778621D01*
X140595000Y-147178621D02*
X136605000Y-147178621D01*
X137560000Y-146258621D02*
X135810000Y-146258621D01*
X137560000Y-145698621D02*
X135553000Y-145698621D01*
X137560000Y-146418621D02*
X135910000Y-146418621D01*
X141290000Y-146418621D02*
X139640000Y-146418621D01*
X137560000Y-146618621D02*
X136052000Y-146618621D01*
X140824000Y-146978621D02*
X136376000Y-146978621D01*
X137560000Y-146218621D02*
X135788000Y-146218621D01*
X140434000Y-147298621D02*
X136766000Y-147298621D01*
X139950000Y-147578621D02*
X137250000Y-147578621D01*
X137560000Y-145618621D02*
X135526000Y-145618621D01*
X141698000Y-145538621D02*
X139640000Y-145538621D01*
X137560000Y-145177621D02*
X135418000Y-145177621D01*
X141775000Y-145217621D02*
X139640000Y-145217621D01*
X140754000Y-141432380D02*
X140124000Y-141432380D01*
X141602000Y-145818621D02*
X139640000Y-145818621D01*
X141789000Y-145137621D02*
X139640000Y-145137621D01*
X141116000Y-146658621D02*
X139640000Y-146658621D01*
X141827000Y-144777621D02*
X135373000Y-144777621D01*
X137560000Y-145057621D02*
X135399000Y-145057621D01*
X137560000Y-145378621D02*
X135459000Y-145378621D01*
X141570000Y-145898621D02*
X139640000Y-145898621D01*
X137560000Y-145017621D02*
X135394000Y-145017621D01*
X140644000Y-147138621D02*
X136556000Y-147138621D01*
X137560000Y-146538621D02*
X135993000Y-146538621D01*
X141390000Y-146258621D02*
X139640000Y-146258621D01*
X141782000Y-145177621D02*
X139640000Y-145177621D01*
X141870000Y-144617621D02*
G75*
G03*
X141870000Y-144617621I-3270000J0D01*
G01*
X99645000Y-103255000D02*
X100765000Y-103255000D01*
X100895000Y-99425000D02*
X100765000Y-99425000D01*
X100895000Y-101965000D02*
X100895000Y-101965000D01*
X100895000Y-99425000D02*
X100895000Y-99425000D01*
X100765000Y-99425000D02*
X100895000Y-99425000D01*
X100765000Y-101965000D02*
X100765000Y-101965000D01*
X100895000Y-101965000D02*
X100765000Y-101965000D01*
X100765000Y-101965000D02*
X100895000Y-101965000D01*
X100765000Y-99425000D02*
X100765000Y-99425000D01*
X100765000Y-103255000D02*
X94605000Y-103255000D01*
X99645000Y-103655000D02*
X99645000Y-103255000D01*
X100765000Y-103255000D02*
X100765000Y-103655000D01*
X100765000Y-98135000D02*
X100765000Y-103255000D01*
X100765000Y-103655000D02*
X99645000Y-103655000D01*
X100765000Y-98135000D02*
X94605000Y-98135000D01*
X94605000Y-98135000D02*
G75*
G03*
X94605000Y-103255000I0J-2560000D01*
G01*
X132730000Y-136271000D02*
X140470000Y-136271000D01*
X140470000Y-131629000D02*
X140470000Y-136271000D01*
X132730000Y-131629000D02*
X140470000Y-131629000D01*
X132730000Y-131629000D02*
X132730000Y-136271000D01*
X121500000Y-145275000D02*
X121500000Y-144525000D01*
X129800000Y-144525000D02*
X128000000Y-144525000D01*
X129810000Y-139315000D02*
X119690000Y-139315000D01*
X128850000Y-145575000D02*
X130100000Y-145575000D01*
X119700000Y-145275000D02*
X121500000Y-145275000D01*
X120450000Y-143025000D02*
X120450000Y-140075000D01*
X119700000Y-143025000D02*
X120450000Y-143025000D01*
X119690000Y-139315000D02*
X119690000Y-145285000D01*
X130100000Y-145575000D02*
X130100000Y-144325000D01*
X129050000Y-140075000D02*
X124750000Y-140075000D01*
X129050000Y-143025000D02*
X129050000Y-140075000D01*
X123000000Y-145275000D02*
X126500000Y-145275000D01*
X129810000Y-145285000D02*
X129810000Y-139315000D01*
X126500000Y-144525000D02*
X123000000Y-144525000D01*
X128000000Y-144525000D02*
X128000000Y-145275000D01*
X119700000Y-144525000D02*
X119700000Y-145275000D01*
X129800000Y-145275000D02*
X129800000Y-144525000D01*
X123000000Y-144525000D02*
X123000000Y-145275000D01*
X121500000Y-144525000D02*
X119700000Y-144525000D01*
X119690000Y-145285000D02*
X129810000Y-145285000D01*
X120450000Y-140075000D02*
X124750000Y-140075000D01*
X126500000Y-145275000D02*
X126500000Y-144525000D01*
X128000000Y-145275000D02*
X129800000Y-145275000D01*
X129800000Y-143025000D02*
X129050000Y-143025000D01*
M02*
