G04 #@! TF.GenerationSoftware,KiCad,Pcbnew,5.1.6-c6e7f7d~87~ubuntu20.04.1*
G04 #@! TF.CreationDate,2020-07-24T19:13:23+01:00*
G04 #@! TF.ProjectId,OpenSpritzer_1.3,4f70656e-5370-4726-9974-7a65725f312e,rev?*
G04 #@! TF.SameCoordinates,Original*
G04 #@! TF.FileFunction,Soldermask,Top*
G04 #@! TF.FilePolarity,Negative*
%FSLAX46Y46*%
G04 Gerber Fmt 4.6, Leading zero omitted, Abs format (unit mm)*
G04 Created by KiCad (PCBNEW 5.1.6-c6e7f7d~87~ubuntu20.04.1) date 2020-07-24 19:13:23*
%MOMM*%
%LPD*%
G01*
G04 APERTURE LIST*
%ADD10C,2.150000*%
%ADD11R,2.150000X2.150000*%
%ADD12C,2.200000*%
%ADD13O,3.000000X3.000000*%
%ADD14R,3.000000X3.000000*%
%ADD15C,2.000000*%
%ADD16O,2.000000X2.000000*%
%ADD17C,2.400000*%
%ADD18R,2.000000X2.000000*%
%ADD19C,2.180000*%
%ADD20R,1.900000X1.900000*%
%ADD21C,1.900000*%
%ADD22R,3.900000X3.900000*%
%ADD23C,2.900000*%
%ADD24C,6.800000*%
%ADD25R,3.600000X3.600000*%
%ADD26O,3.600000X3.600000*%
%ADD27R,1.150000X2.150000*%
%ADD28C,2.250000*%
%ADD29C,3.600000*%
%ADD30O,7.400240X3.900120*%
%ADD31O,2.899360X2.000200*%
%ADD32R,2.200000X2.200000*%
%ADD33O,2.200000X2.200000*%
G04 APERTURE END LIST*
D10*
X154500000Y-86700000D03*
X154500000Y-84200000D03*
D11*
X154500000Y-81700000D03*
X154500000Y-141700000D03*
D10*
X154500000Y-144200000D03*
D11*
X154500000Y-131950000D03*
D10*
X154500000Y-134450000D03*
D12*
X145260000Y-143480000D03*
X142760000Y-143480000D03*
X140260000Y-143480000D03*
D13*
X153340000Y-100630000D03*
D14*
X153340000Y-115870000D03*
D15*
X136500000Y-90950000D03*
D16*
X148680000Y-90950000D03*
D15*
X148000000Y-130950000D03*
D16*
X135820000Y-130950000D03*
D15*
X148000000Y-135450000D03*
D16*
X135820000Y-135450000D03*
D15*
X136500000Y-95950000D03*
D16*
X148680000Y-95950000D03*
D15*
X121250000Y-90950000D03*
D16*
X133430000Y-90950000D03*
D15*
X133500000Y-95950000D03*
D16*
X121320000Y-95950000D03*
D17*
X146175000Y-122950000D03*
X142175000Y-122950000D03*
D18*
X137200000Y-100000000D03*
D16*
X104180000Y-115240000D03*
X134660000Y-100000000D03*
X106720000Y-115240000D03*
X132120000Y-100000000D03*
X109260000Y-115240000D03*
X129580000Y-100000000D03*
X111800000Y-115240000D03*
X127040000Y-100000000D03*
X114340000Y-115240000D03*
X124500000Y-100000000D03*
X116880000Y-115240000D03*
X121960000Y-100000000D03*
X119420000Y-115240000D03*
X119420000Y-100000000D03*
X121960000Y-115240000D03*
X116880000Y-100000000D03*
X124500000Y-115240000D03*
X114340000Y-100000000D03*
X127040000Y-115240000D03*
X111800000Y-100000000D03*
X129580000Y-115240000D03*
X109260000Y-100000000D03*
X132120000Y-115240000D03*
X106720000Y-100000000D03*
X134660000Y-115240000D03*
X104180000Y-100000000D03*
X137200000Y-115240000D03*
X101640000Y-100000000D03*
X101640000Y-115240000D03*
D19*
X139740000Y-100000000D03*
X139740000Y-115240000D03*
X99100000Y-115240000D03*
X99100000Y-100000000D03*
D20*
X144750000Y-99950000D03*
D21*
X144750000Y-105030000D03*
X144750000Y-102490000D03*
G36*
G01*
X146525000Y-70450000D02*
X148475000Y-70450000D01*
G75*
G02*
X149450000Y-71425000I0J-975000D01*
G01*
X149450000Y-73375000D01*
G75*
G02*
X148475000Y-74350000I-975000J0D01*
G01*
X146525000Y-74350000D01*
G75*
G02*
X145550000Y-73375000I0J975000D01*
G01*
X145550000Y-71425000D01*
G75*
G02*
X146525000Y-70450000I975000J0D01*
G01*
G37*
G36*
G01*
X151400000Y-67150000D02*
X153600000Y-67150000D01*
G75*
G02*
X154450000Y-68000000I0J-850000D01*
G01*
X154450000Y-69700000D01*
G75*
G02*
X153600000Y-70550000I-850000J0D01*
G01*
X151400000Y-70550000D01*
G75*
G02*
X150550000Y-69700000I0J850000D01*
G01*
X150550000Y-68000000D01*
G75*
G02*
X151400000Y-67150000I850000J0D01*
G01*
G37*
D22*
X152500000Y-75450000D03*
D23*
X152500000Y-65050000D03*
D24*
X100000000Y-65000000D03*
D25*
X137800000Y-122950000D03*
D26*
X125100000Y-122950000D03*
D27*
X117460000Y-137930000D03*
X120000000Y-137930000D03*
X122540000Y-137930000D03*
X117460000Y-140470000D03*
X120000000Y-140470000D03*
X122540000Y-140470000D03*
D28*
X117300000Y-145550000D03*
X122700000Y-145550000D03*
D18*
X130200000Y-146050000D03*
D15*
X130200000Y-142550000D03*
X130000000Y-131450000D03*
D18*
X130000000Y-134950000D03*
D29*
X118000000Y-93500000D03*
X118000000Y-122500000D03*
D30*
X108111600Y-90097780D03*
X108111600Y-79899680D03*
D31*
X112376260Y-85000000D03*
X112376260Y-87499360D03*
D18*
X145500000Y-108700000D03*
D16*
X145500000Y-116320000D03*
D29*
X154000000Y-93500000D03*
D32*
X112400000Y-141150000D03*
D33*
X110700000Y-144850000D03*
X109000000Y-141150000D03*
X107300000Y-144850000D03*
X105600000Y-141150000D03*
D29*
X154000000Y-122500000D03*
D31*
X112301260Y-132499360D03*
X112301260Y-130000000D03*
D30*
X108036600Y-124899680D03*
X108036600Y-135097780D03*
D24*
X100000000Y-150000000D03*
M02*
