G04 #@! TF.GenerationSoftware,KiCad,Pcbnew,5.1.6-c6e7f7d~87~ubuntu20.04.1*
G04 #@! TF.CreationDate,2020-07-24T19:13:23+01:00*
G04 #@! TF.ProjectId,OpenSpritzer_1.3,4f70656e-5370-4726-9974-7a65725f312e,rev?*
G04 #@! TF.SameCoordinates,Original*
G04 #@! TF.FileFunction,Copper,L2,Bot*
G04 #@! TF.FilePolarity,Positive*
%FSLAX46Y46*%
G04 Gerber Fmt 4.6, Leading zero omitted, Abs format (unit mm)*
G04 Created by KiCad (PCBNEW 5.1.6-c6e7f7d~87~ubuntu20.04.1) date 2020-07-24 19:13:23*
%MOMM*%
%LPD*%
G01*
G04 APERTURE LIST*
G04 #@! TA.AperFunction,ComponentPad*
%ADD10C,1.750000*%
G04 #@! TD*
G04 #@! TA.AperFunction,ComponentPad*
%ADD11R,1.750000X1.750000*%
G04 #@! TD*
G04 #@! TA.AperFunction,ComponentPad*
%ADD12C,1.800000*%
G04 #@! TD*
G04 #@! TA.AperFunction,ComponentPad*
%ADD13O,2.600000X2.600000*%
G04 #@! TD*
G04 #@! TA.AperFunction,ComponentPad*
%ADD14R,2.600000X2.600000*%
G04 #@! TD*
G04 #@! TA.AperFunction,ComponentPad*
%ADD15C,1.600000*%
G04 #@! TD*
G04 #@! TA.AperFunction,ComponentPad*
%ADD16O,1.600000X1.600000*%
G04 #@! TD*
G04 #@! TA.AperFunction,ComponentPad*
%ADD17C,2.000000*%
G04 #@! TD*
G04 #@! TA.AperFunction,ComponentPad*
%ADD18R,1.600000X1.600000*%
G04 #@! TD*
G04 #@! TA.AperFunction,ComponentPad*
%ADD19R,1.500000X1.500000*%
G04 #@! TD*
G04 #@! TA.AperFunction,ComponentPad*
%ADD20C,1.500000*%
G04 #@! TD*
G04 #@! TA.AperFunction,ComponentPad*
%ADD21R,3.500000X3.500000*%
G04 #@! TD*
G04 #@! TA.AperFunction,ComponentPad*
%ADD22C,2.500000*%
G04 #@! TD*
G04 #@! TA.AperFunction,ComponentPad*
%ADD23R,3.200000X3.200000*%
G04 #@! TD*
G04 #@! TA.AperFunction,ComponentPad*
%ADD24O,3.200000X3.200000*%
G04 #@! TD*
G04 #@! TA.AperFunction,ComponentPad*
%ADD25R,0.750000X1.750000*%
G04 #@! TD*
G04 #@! TA.AperFunction,ComponentPad*
%ADD26C,1.850000*%
G04 #@! TD*
G04 #@! TA.AperFunction,ComponentPad*
%ADD27O,7.000240X3.500120*%
G04 #@! TD*
G04 #@! TA.AperFunction,ComponentPad*
%ADD28O,2.499360X1.600200*%
G04 #@! TD*
G04 #@! TA.AperFunction,ComponentPad*
%ADD29R,1.800000X1.800000*%
G04 #@! TD*
G04 #@! TA.AperFunction,ComponentPad*
%ADD30O,1.800000X1.800000*%
G04 #@! TD*
G04 #@! TA.AperFunction,ViaPad*
%ADD31C,0.800000*%
G04 #@! TD*
G04 #@! TA.AperFunction,Conductor*
%ADD32C,0.250000*%
G04 #@! TD*
G04 #@! TA.AperFunction,Conductor*
%ADD33C,1.000000*%
G04 #@! TD*
G04 #@! TA.AperFunction,Conductor*
%ADD34C,0.254000*%
G04 #@! TD*
G04 APERTURE END LIST*
D10*
X154500000Y-86700000D03*
X154500000Y-84200000D03*
D11*
X154500000Y-81700000D03*
X154500000Y-141700000D03*
D10*
X154500000Y-144200000D03*
D11*
X154500000Y-131950000D03*
D10*
X154500000Y-134450000D03*
D12*
X145260000Y-143480000D03*
X142760000Y-143480000D03*
X140260000Y-143480000D03*
D13*
X153340000Y-100630000D03*
D14*
X153340000Y-115870000D03*
D15*
X136500000Y-90950000D03*
D16*
X148680000Y-90950000D03*
D15*
X148000000Y-130950000D03*
D16*
X135820000Y-130950000D03*
D15*
X148000000Y-135450000D03*
D16*
X135820000Y-135450000D03*
D15*
X136500000Y-95950000D03*
D16*
X148680000Y-95950000D03*
D15*
X121250000Y-90950000D03*
D16*
X133430000Y-90950000D03*
D15*
X133500000Y-95950000D03*
D16*
X121320000Y-95950000D03*
D17*
X146175000Y-122950000D03*
X142175000Y-122950000D03*
D18*
X137200000Y-100000000D03*
D16*
X104180000Y-115240000D03*
X134660000Y-100000000D03*
X106720000Y-115240000D03*
X132120000Y-100000000D03*
X109260000Y-115240000D03*
X129580000Y-100000000D03*
X111800000Y-115240000D03*
X127040000Y-100000000D03*
X114340000Y-115240000D03*
X124500000Y-100000000D03*
X116880000Y-115240000D03*
X121960000Y-100000000D03*
X119420000Y-115240000D03*
X119420000Y-100000000D03*
X121960000Y-115240000D03*
X116880000Y-100000000D03*
X124500000Y-115240000D03*
X114340000Y-100000000D03*
X127040000Y-115240000D03*
X111800000Y-100000000D03*
X129580000Y-115240000D03*
X109260000Y-100000000D03*
X132120000Y-115240000D03*
X106720000Y-100000000D03*
X134660000Y-115240000D03*
X104180000Y-100000000D03*
X137200000Y-115240000D03*
X101640000Y-100000000D03*
X101640000Y-115240000D03*
D19*
X144750000Y-99950000D03*
D20*
X144750000Y-105030000D03*
X144750000Y-102490000D03*
G04 #@! TA.AperFunction,ComponentPad*
G36*
G01*
X146625000Y-70650000D02*
X148375000Y-70650000D01*
G75*
G02*
X149250000Y-71525000I0J-875000D01*
G01*
X149250000Y-73275000D01*
G75*
G02*
X148375000Y-74150000I-875000J0D01*
G01*
X146625000Y-74150000D01*
G75*
G02*
X145750000Y-73275000I0J875000D01*
G01*
X145750000Y-71525000D01*
G75*
G02*
X146625000Y-70650000I875000J0D01*
G01*
G37*
G04 #@! TD.AperFunction*
G04 #@! TA.AperFunction,ComponentPad*
G36*
G01*
X151500000Y-67350000D02*
X153500000Y-67350000D01*
G75*
G02*
X154250000Y-68100000I0J-750000D01*
G01*
X154250000Y-69600000D01*
G75*
G02*
X153500000Y-70350000I-750000J0D01*
G01*
X151500000Y-70350000D01*
G75*
G02*
X150750000Y-69600000I0J750000D01*
G01*
X150750000Y-68100000D01*
G75*
G02*
X151500000Y-67350000I750000J0D01*
G01*
G37*
G04 #@! TD.AperFunction*
D21*
X152500000Y-75450000D03*
D22*
X152500000Y-65050000D03*
D23*
X137800000Y-122950000D03*
D24*
X125100000Y-122950000D03*
D25*
X117460000Y-137930000D03*
X120000000Y-137930000D03*
X122540000Y-137930000D03*
X117460000Y-140470000D03*
X120000000Y-140470000D03*
X122540000Y-140470000D03*
D26*
X117300000Y-145550000D03*
X122700000Y-145550000D03*
D18*
X130200000Y-146050000D03*
D15*
X130200000Y-142550000D03*
X130000000Y-131450000D03*
D18*
X130000000Y-134950000D03*
D27*
X108111600Y-90097780D03*
X108111600Y-79899680D03*
D28*
X112376260Y-85000000D03*
X112376260Y-87499360D03*
D18*
X145500000Y-108700000D03*
D16*
X145500000Y-116320000D03*
D29*
X112400000Y-141150000D03*
D30*
X110700000Y-144850000D03*
X109000000Y-141150000D03*
X107300000Y-144850000D03*
X105600000Y-141150000D03*
D28*
X112301260Y-132499360D03*
X112301260Y-130000000D03*
D27*
X108036600Y-124899680D03*
X108036600Y-135097780D03*
D31*
X114000000Y-120700000D03*
X127750000Y-119490000D03*
X138750000Y-135700000D03*
X138750000Y-131450000D03*
D32*
X137200000Y-116371370D02*
X139778630Y-118950000D01*
X137200000Y-115240000D02*
X137200000Y-116371370D01*
X142175000Y-118950000D02*
X146175000Y-122950000D01*
X139778630Y-118950000D02*
X142175000Y-118950000D01*
X108111600Y-79899680D02*
X108111600Y-81899740D01*
X110377320Y-85950000D02*
X108111600Y-85950000D01*
X111926680Y-87499360D02*
X110377320Y-85950000D01*
X112376260Y-87499360D02*
X111926680Y-87499360D01*
X108111600Y-81899740D02*
X108111600Y-85950000D01*
X108111600Y-85950000D02*
X108111600Y-90097780D01*
X140750000Y-130700000D02*
X129580000Y-119530000D01*
X129580000Y-119530000D02*
X129580000Y-115240000D01*
X136250000Y-141950000D02*
X140750000Y-137450000D01*
X136250000Y-144700000D02*
X136250000Y-141950000D01*
X145260000Y-143480000D02*
X145260000Y-144752792D01*
X140750000Y-137450000D02*
X140750000Y-130700000D01*
X145250000Y-144762792D02*
X145250000Y-145200000D01*
X145250000Y-145200000D02*
X144250000Y-146200000D01*
X145260000Y-144752792D02*
X145250000Y-144762792D01*
X144250000Y-146200000D02*
X137750000Y-146200000D01*
X137750000Y-146200000D02*
X136250000Y-144700000D01*
X129580000Y-115240000D02*
X121540000Y-107200000D01*
X108111600Y-92097840D02*
X108111600Y-90097780D01*
X112925001Y-96911241D02*
X108111600Y-92097840D01*
X112925001Y-100250003D02*
X112925001Y-96911241D01*
X119874998Y-107200000D02*
X112925001Y-100250003D01*
X121540000Y-107200000D02*
X119874998Y-107200000D01*
X114000000Y-119980000D02*
X114000000Y-120700000D01*
X109260000Y-115240000D02*
X114000000Y-119980000D01*
X153500000Y-135450000D02*
X154500000Y-134450000D01*
X148000000Y-135450000D02*
X153500000Y-135450000D01*
X120000000Y-140970000D02*
X118220000Y-142750000D01*
X120000000Y-140470000D02*
X120000000Y-140970000D01*
X118220000Y-142750000D02*
X116750000Y-142750000D01*
X116750000Y-142750000D02*
X115200000Y-141200000D01*
X115200000Y-141200000D02*
X115200000Y-122030000D01*
X115200000Y-122030000D02*
X117740000Y-119490000D01*
X117740000Y-119490000D02*
X127750000Y-119490000D01*
X127750000Y-119490000D02*
X127960000Y-119490000D01*
X143750000Y-108700000D02*
X145500000Y-108700000D01*
X141500000Y-106450000D02*
X143750000Y-108700000D01*
X141500000Y-98950000D02*
X141500000Y-106450000D01*
X140500000Y-97950000D02*
X141500000Y-98950000D01*
X121320000Y-95950000D02*
X123320000Y-97950000D01*
X123320000Y-97950000D02*
X140500000Y-97950000D01*
D33*
X152040001Y-101929999D02*
X153340000Y-100630000D01*
X150534990Y-103435010D02*
X152040001Y-101929999D01*
X150534990Y-109264988D02*
X150534990Y-110700000D01*
X146300002Y-105030000D02*
X150534990Y-109264988D01*
X144750000Y-105030000D02*
X146300002Y-105030000D01*
X150534990Y-110700000D02*
X150534990Y-110200000D01*
X150534990Y-110200000D02*
X150534990Y-103435010D01*
X155737436Y-144200000D02*
X154500000Y-144200000D01*
X156499990Y-143437446D02*
X155737436Y-144200000D01*
X156499990Y-129199990D02*
X156499990Y-143437446D01*
X150500000Y-123200000D02*
X156499990Y-129199990D01*
X150500000Y-110234990D02*
X150500000Y-123200000D01*
X150534990Y-110200000D02*
X150500000Y-110234990D01*
D32*
X142760000Y-136190000D02*
X148000000Y-130950000D01*
X142760000Y-143480000D02*
X142760000Y-136190000D01*
X132570000Y-138700000D02*
X135820000Y-135450000D01*
X129500000Y-138700000D02*
X132570000Y-138700000D01*
X126500000Y-135700000D02*
X129500000Y-138700000D01*
X121250000Y-135700000D02*
X126500000Y-135700000D01*
X120000000Y-137930000D02*
X120000000Y-136950000D01*
X120000000Y-136950000D02*
X121250000Y-135700000D01*
D33*
X112375000Y-144100000D02*
X112375000Y-141125000D01*
X116700000Y-148425000D02*
X112400000Y-144125000D01*
X126775000Y-148425000D02*
X116700000Y-148425000D01*
X130200000Y-146050000D02*
X129150000Y-146050000D01*
X129150000Y-146050000D02*
X126775000Y-148425000D01*
D32*
X138750000Y-135700000D02*
X138750000Y-131450000D01*
X138750000Y-131450000D02*
X138750000Y-131450000D01*
D34*
G36*
X150829534Y-65942882D02*
G01*
X151035825Y-66251618D01*
X151298382Y-66514175D01*
X151596999Y-66713705D01*
X150750000Y-66711928D01*
X150625518Y-66724188D01*
X150505820Y-66760498D01*
X150395506Y-66819463D01*
X150298815Y-66898815D01*
X150219463Y-66995506D01*
X150160498Y-67105820D01*
X150124188Y-67225518D01*
X150111928Y-67350000D01*
X150115000Y-68564250D01*
X150273750Y-68723000D01*
X152373000Y-68723000D01*
X152373000Y-68703000D01*
X152627000Y-68703000D01*
X152627000Y-68723000D01*
X154726250Y-68723000D01*
X154885000Y-68564250D01*
X154888072Y-67350000D01*
X154875812Y-67225518D01*
X154839502Y-67105820D01*
X154780537Y-66995506D01*
X154701185Y-66898815D01*
X154604494Y-66819463D01*
X154494180Y-66760498D01*
X154374482Y-66724188D01*
X154250000Y-66711928D01*
X153403001Y-66713705D01*
X153701618Y-66514175D01*
X153964175Y-66251618D01*
X154170466Y-65942882D01*
X154256573Y-65735000D01*
X156765000Y-65735000D01*
X156765001Y-127859869D01*
X153605433Y-124700302D01*
X153779872Y-124735000D01*
X154220128Y-124735000D01*
X154651925Y-124649110D01*
X155058669Y-124480631D01*
X155424729Y-124236038D01*
X155736038Y-123924729D01*
X155980631Y-123558669D01*
X156149110Y-123151925D01*
X156235000Y-122720128D01*
X156235000Y-122279872D01*
X156149110Y-121848075D01*
X155980631Y-121441331D01*
X155736038Y-121075271D01*
X155424729Y-120763962D01*
X155058669Y-120519369D01*
X154651925Y-120350890D01*
X154220128Y-120265000D01*
X153779872Y-120265000D01*
X153348075Y-120350890D01*
X152941331Y-120519369D01*
X152575271Y-120763962D01*
X152263962Y-121075271D01*
X152019369Y-121441331D01*
X151850890Y-121848075D01*
X151765000Y-122279872D01*
X151765000Y-122720128D01*
X151799698Y-122894567D01*
X151635000Y-122729869D01*
X151635000Y-117659088D01*
X151685506Y-117700537D01*
X151795820Y-117759502D01*
X151915518Y-117795812D01*
X152040000Y-117808072D01*
X154640000Y-117808072D01*
X154764482Y-117795812D01*
X154884180Y-117759502D01*
X154994494Y-117700537D01*
X155091185Y-117621185D01*
X155170537Y-117524494D01*
X155229502Y-117414180D01*
X155265812Y-117294482D01*
X155278072Y-117170000D01*
X155278072Y-114570000D01*
X155265812Y-114445518D01*
X155229502Y-114325820D01*
X155170537Y-114215506D01*
X155091185Y-114118815D01*
X154994494Y-114039463D01*
X154884180Y-113980498D01*
X154764482Y-113944188D01*
X154640000Y-113931928D01*
X152040000Y-113931928D01*
X151915518Y-113944188D01*
X151795820Y-113980498D01*
X151685506Y-114039463D01*
X151635000Y-114080912D01*
X151635000Y-110983706D01*
X151653567Y-110922499D01*
X151669990Y-110755752D01*
X151669990Y-110255742D01*
X151675480Y-110200001D01*
X151669990Y-110144259D01*
X151669990Y-109320729D01*
X151675480Y-109264987D01*
X151669990Y-109209245D01*
X151669990Y-103905141D01*
X152881989Y-102693143D01*
X152881993Y-102693138D01*
X153033241Y-102541891D01*
X153149419Y-102565000D01*
X153530581Y-102565000D01*
X153904419Y-102490639D01*
X154256566Y-102344775D01*
X154573491Y-102133013D01*
X154843013Y-101863491D01*
X155054775Y-101546566D01*
X155200639Y-101194419D01*
X155275000Y-100820581D01*
X155275000Y-100439419D01*
X155200639Y-100065581D01*
X155054775Y-99713434D01*
X154843013Y-99396509D01*
X154573491Y-99126987D01*
X154256566Y-98915225D01*
X153904419Y-98769361D01*
X153530581Y-98695000D01*
X153149419Y-98695000D01*
X152775581Y-98769361D01*
X152423434Y-98915225D01*
X152106509Y-99126987D01*
X151836987Y-99396509D01*
X151625225Y-99713434D01*
X151479361Y-100065581D01*
X151405000Y-100439419D01*
X151405000Y-100820581D01*
X151428109Y-100936759D01*
X151276862Y-101088007D01*
X151276857Y-101088011D01*
X149771850Y-102593019D01*
X149728542Y-102628561D01*
X149586707Y-102801387D01*
X149545606Y-102878282D01*
X149481314Y-102998564D01*
X149416413Y-103212512D01*
X149394499Y-103435010D01*
X149399991Y-103490771D01*
X149399991Y-106524857D01*
X147141998Y-104266865D01*
X147106451Y-104223551D01*
X146933625Y-104081716D01*
X146736449Y-103976324D01*
X146522501Y-103911423D01*
X146355754Y-103895000D01*
X146355753Y-103895000D01*
X146300002Y-103889509D01*
X146244251Y-103895000D01*
X145544286Y-103895000D01*
X145406043Y-103802629D01*
X145303127Y-103760000D01*
X145406043Y-103717371D01*
X145632886Y-103565799D01*
X145825799Y-103372886D01*
X145977371Y-103146043D01*
X146081775Y-102893989D01*
X146135000Y-102626411D01*
X146135000Y-102353589D01*
X146081775Y-102086011D01*
X145977371Y-101833957D01*
X145825799Y-101607114D01*
X145632886Y-101414201D01*
X145516517Y-101336445D01*
X145624482Y-101325812D01*
X145744180Y-101289502D01*
X145854494Y-101230537D01*
X145951185Y-101151185D01*
X146030537Y-101054494D01*
X146089502Y-100944180D01*
X146125812Y-100824482D01*
X146138072Y-100700000D01*
X146135000Y-100235750D01*
X145976250Y-100077000D01*
X144877000Y-100077000D01*
X144877000Y-100097000D01*
X144623000Y-100097000D01*
X144623000Y-100077000D01*
X143523750Y-100077000D01*
X143365000Y-100235750D01*
X143361928Y-100700000D01*
X143374188Y-100824482D01*
X143410498Y-100944180D01*
X143469463Y-101054494D01*
X143548815Y-101151185D01*
X143645506Y-101230537D01*
X143755820Y-101289502D01*
X143875518Y-101325812D01*
X143983483Y-101336445D01*
X143867114Y-101414201D01*
X143674201Y-101607114D01*
X143522629Y-101833957D01*
X143418225Y-102086011D01*
X143365000Y-102353589D01*
X143365000Y-102626411D01*
X143418225Y-102893989D01*
X143522629Y-103146043D01*
X143674201Y-103372886D01*
X143867114Y-103565799D01*
X144093957Y-103717371D01*
X144196873Y-103760000D01*
X144093957Y-103802629D01*
X143867114Y-103954201D01*
X143674201Y-104147114D01*
X143522629Y-104373957D01*
X143418225Y-104626011D01*
X143365000Y-104893589D01*
X143365000Y-105166411D01*
X143418225Y-105433989D01*
X143522629Y-105686043D01*
X143674201Y-105912886D01*
X143867114Y-106105799D01*
X144093957Y-106257371D01*
X144346011Y-106361775D01*
X144613589Y-106415000D01*
X144886411Y-106415000D01*
X145153989Y-106361775D01*
X145406043Y-106257371D01*
X145544286Y-106165000D01*
X145829871Y-106165000D01*
X149399990Y-109735120D01*
X149399990Y-109951285D01*
X149381423Y-110012492D01*
X149359509Y-110234990D01*
X149365000Y-110290742D01*
X149365001Y-123144239D01*
X149359509Y-123200000D01*
X149381423Y-123422498D01*
X149446324Y-123636446D01*
X149469716Y-123680209D01*
X149551717Y-123833623D01*
X149693552Y-124006449D01*
X149736860Y-124041991D01*
X155364990Y-129670122D01*
X155364990Y-130436980D01*
X154785750Y-130440000D01*
X154627000Y-130598750D01*
X154627000Y-131823000D01*
X154647000Y-131823000D01*
X154647000Y-132077000D01*
X154627000Y-132077000D01*
X154627000Y-132097000D01*
X154373000Y-132097000D01*
X154373000Y-132077000D01*
X153148750Y-132077000D01*
X152990000Y-132235750D01*
X152986928Y-132825000D01*
X152999188Y-132949482D01*
X153035498Y-133069180D01*
X153094463Y-133179494D01*
X153173815Y-133276185D01*
X153270506Y-133355537D01*
X153380820Y-133414502D01*
X153395564Y-133418974D01*
X153327107Y-133487431D01*
X153161856Y-133734747D01*
X153048029Y-134009549D01*
X152990000Y-134301278D01*
X152990000Y-134598722D01*
X153008156Y-134690000D01*
X149218043Y-134690000D01*
X149114637Y-134535241D01*
X148914759Y-134335363D01*
X148679727Y-134178320D01*
X148418574Y-134070147D01*
X148141335Y-134015000D01*
X147858665Y-134015000D01*
X147581426Y-134070147D01*
X147320273Y-134178320D01*
X147085241Y-134335363D01*
X146885363Y-134535241D01*
X146728320Y-134770273D01*
X146620147Y-135031426D01*
X146565000Y-135308665D01*
X146565000Y-135591335D01*
X146620147Y-135868574D01*
X146728320Y-136129727D01*
X146885363Y-136364759D01*
X147085241Y-136564637D01*
X147320273Y-136721680D01*
X147581426Y-136829853D01*
X147858665Y-136885000D01*
X148141335Y-136885000D01*
X148418574Y-136829853D01*
X148679727Y-136721680D01*
X148914759Y-136564637D01*
X149114637Y-136364759D01*
X149218043Y-136210000D01*
X153462678Y-136210000D01*
X153500000Y-136213676D01*
X153537322Y-136210000D01*
X153537333Y-136210000D01*
X153648986Y-136199003D01*
X153792247Y-136155546D01*
X153924276Y-136084974D01*
X154040001Y-135990001D01*
X154063804Y-135960998D01*
X154112331Y-135912470D01*
X154351278Y-135960000D01*
X154648722Y-135960000D01*
X154940451Y-135901971D01*
X155215253Y-135788144D01*
X155364990Y-135688093D01*
X155364991Y-140186928D01*
X153625000Y-140186928D01*
X153500518Y-140199188D01*
X153380820Y-140235498D01*
X153270506Y-140294463D01*
X153173815Y-140373815D01*
X153094463Y-140470506D01*
X153035498Y-140580820D01*
X152999188Y-140700518D01*
X152986928Y-140825000D01*
X152986928Y-142575000D01*
X152999188Y-142699482D01*
X153035498Y-142819180D01*
X153094463Y-142929494D01*
X153173815Y-143026185D01*
X153270506Y-143105537D01*
X153380820Y-143164502D01*
X153395564Y-143168974D01*
X153327107Y-143237431D01*
X153161856Y-143484747D01*
X153048029Y-143759549D01*
X152990000Y-144051278D01*
X152990000Y-144348722D01*
X153048029Y-144640451D01*
X153161856Y-144915253D01*
X153327107Y-145162569D01*
X153537431Y-145372893D01*
X153784747Y-145538144D01*
X154059549Y-145651971D01*
X154351278Y-145710000D01*
X154648722Y-145710000D01*
X154940451Y-145651971D01*
X155215253Y-145538144D01*
X155462569Y-145372893D01*
X155500462Y-145335000D01*
X155681685Y-145335000D01*
X155737436Y-145340491D01*
X155793187Y-145335000D01*
X155793188Y-145335000D01*
X155959935Y-145318577D01*
X156173883Y-145253676D01*
X156371059Y-145148284D01*
X156543885Y-145006449D01*
X156579432Y-144963135D01*
X156765001Y-144777566D01*
X156765001Y-149265000D01*
X127540567Y-149265000D01*
X127581449Y-149231449D01*
X127616996Y-149188135D01*
X129324496Y-147480636D01*
X129400000Y-147488072D01*
X131000000Y-147488072D01*
X131124482Y-147475812D01*
X131244180Y-147439502D01*
X131354494Y-147380537D01*
X131451185Y-147301185D01*
X131530537Y-147204494D01*
X131589502Y-147094180D01*
X131625812Y-146974482D01*
X131638072Y-146850000D01*
X131638072Y-145250000D01*
X131625812Y-145125518D01*
X131589502Y-145005820D01*
X131530537Y-144895506D01*
X131451185Y-144798815D01*
X131354494Y-144719463D01*
X131244180Y-144660498D01*
X131124482Y-144624188D01*
X131000000Y-144611928D01*
X129400000Y-144611928D01*
X129275518Y-144624188D01*
X129155820Y-144660498D01*
X129045506Y-144719463D01*
X128948815Y-144798815D01*
X128869463Y-144895506D01*
X128835317Y-144959387D01*
X128713553Y-144996324D01*
X128516377Y-145101716D01*
X128343551Y-145243551D01*
X128308009Y-145286859D01*
X126304869Y-147290000D01*
X117170132Y-147290000D01*
X116951342Y-147071210D01*
X117146353Y-147110000D01*
X117453647Y-147110000D01*
X117755035Y-147050050D01*
X118038937Y-146932454D01*
X118294442Y-146761731D01*
X118511731Y-146544442D01*
X118682454Y-146288937D01*
X118800050Y-146005035D01*
X118860000Y-145703647D01*
X118860000Y-145396353D01*
X121140000Y-145396353D01*
X121140000Y-145703647D01*
X121199950Y-146005035D01*
X121317546Y-146288937D01*
X121488269Y-146544442D01*
X121705558Y-146761731D01*
X121961063Y-146932454D01*
X122244965Y-147050050D01*
X122546353Y-147110000D01*
X122853647Y-147110000D01*
X123155035Y-147050050D01*
X123438937Y-146932454D01*
X123694442Y-146761731D01*
X123911731Y-146544442D01*
X124082454Y-146288937D01*
X124200050Y-146005035D01*
X124260000Y-145703647D01*
X124260000Y-145396353D01*
X124200050Y-145094965D01*
X124082454Y-144811063D01*
X123911731Y-144555558D01*
X123694442Y-144338269D01*
X123438937Y-144167546D01*
X123155035Y-144049950D01*
X122853647Y-143990000D01*
X122546353Y-143990000D01*
X122244965Y-144049950D01*
X121961063Y-144167546D01*
X121705558Y-144338269D01*
X121488269Y-144555558D01*
X121317546Y-144811063D01*
X121199950Y-145094965D01*
X121140000Y-145396353D01*
X118860000Y-145396353D01*
X118800050Y-145094965D01*
X118682454Y-144811063D01*
X118511731Y-144555558D01*
X118294442Y-144338269D01*
X118038937Y-144167546D01*
X117755035Y-144049950D01*
X117453647Y-143990000D01*
X117146353Y-143990000D01*
X116844965Y-144049950D01*
X116561063Y-144167546D01*
X116305558Y-144338269D01*
X116088269Y-144555558D01*
X115917546Y-144811063D01*
X115799950Y-145094965D01*
X115740000Y-145396353D01*
X115740000Y-145703647D01*
X115778790Y-145898659D01*
X113510000Y-143629869D01*
X113510000Y-143542702D01*
X129386903Y-143542702D01*
X129458486Y-143786671D01*
X129713996Y-143907571D01*
X129988184Y-143976300D01*
X130270512Y-143990217D01*
X130550130Y-143948787D01*
X130816292Y-143853603D01*
X130941514Y-143786671D01*
X131013097Y-143542702D01*
X130200000Y-142729605D01*
X129386903Y-143542702D01*
X113510000Y-143542702D01*
X113510000Y-142649870D01*
X113544180Y-142639502D01*
X113654494Y-142580537D01*
X113751185Y-142501185D01*
X113830537Y-142404494D01*
X113889502Y-142294180D01*
X113925812Y-142174482D01*
X113938072Y-142050000D01*
X113938072Y-140250000D01*
X113925812Y-140125518D01*
X113889502Y-140005820D01*
X113830537Y-139895506D01*
X113751185Y-139798815D01*
X113654494Y-139719463D01*
X113544180Y-139660498D01*
X113424482Y-139624188D01*
X113300000Y-139611928D01*
X111500000Y-139611928D01*
X111375518Y-139624188D01*
X111255820Y-139660498D01*
X111145506Y-139719463D01*
X111048815Y-139798815D01*
X110969463Y-139895506D01*
X110910498Y-140005820D01*
X110874188Y-140125518D01*
X110861928Y-140250000D01*
X110861928Y-142050000D01*
X110874188Y-142174482D01*
X110910498Y-142294180D01*
X110969463Y-142404494D01*
X111048815Y-142501185D01*
X111145506Y-142580537D01*
X111240000Y-142631046D01*
X111240000Y-143412203D01*
X111147743Y-143373989D01*
X110851184Y-143315000D01*
X110548816Y-143315000D01*
X110252257Y-143373989D01*
X109972905Y-143489701D01*
X109721495Y-143657688D01*
X109507688Y-143871495D01*
X109339701Y-144122905D01*
X109223989Y-144402257D01*
X109165000Y-144698816D01*
X109165000Y-145001184D01*
X109223989Y-145297743D01*
X109339701Y-145577095D01*
X109507688Y-145828505D01*
X109721495Y-146042312D01*
X109972905Y-146210299D01*
X110252257Y-146326011D01*
X110548816Y-146385000D01*
X110851184Y-146385000D01*
X111147743Y-146326011D01*
X111427095Y-146210299D01*
X111678505Y-146042312D01*
X111892312Y-145828505D01*
X112060299Y-145577095D01*
X112114972Y-145445103D01*
X115858009Y-149188141D01*
X115893551Y-149231449D01*
X115934433Y-149265000D01*
X103763931Y-149265000D01*
X103687623Y-148881372D01*
X103398533Y-148183446D01*
X102978839Y-147555330D01*
X102444670Y-147021161D01*
X101816554Y-146601467D01*
X101118628Y-146312377D01*
X100735000Y-146236069D01*
X100735000Y-144698816D01*
X105765000Y-144698816D01*
X105765000Y-145001184D01*
X105823989Y-145297743D01*
X105939701Y-145577095D01*
X106107688Y-145828505D01*
X106321495Y-146042312D01*
X106572905Y-146210299D01*
X106852257Y-146326011D01*
X107148816Y-146385000D01*
X107451184Y-146385000D01*
X107747743Y-146326011D01*
X108027095Y-146210299D01*
X108278505Y-146042312D01*
X108492312Y-145828505D01*
X108660299Y-145577095D01*
X108776011Y-145297743D01*
X108835000Y-145001184D01*
X108835000Y-144698816D01*
X108776011Y-144402257D01*
X108660299Y-144122905D01*
X108492312Y-143871495D01*
X108278505Y-143657688D01*
X108027095Y-143489701D01*
X107747743Y-143373989D01*
X107451184Y-143315000D01*
X107148816Y-143315000D01*
X106852257Y-143373989D01*
X106572905Y-143489701D01*
X106321495Y-143657688D01*
X106107688Y-143871495D01*
X105939701Y-144122905D01*
X105823989Y-144402257D01*
X105765000Y-144698816D01*
X100735000Y-144698816D01*
X100735000Y-141514740D01*
X104108964Y-141514740D01*
X104157606Y-141675107D01*
X104287764Y-141946414D01*
X104468351Y-142187116D01*
X104692427Y-142387962D01*
X104951380Y-142541234D01*
X105235259Y-142641041D01*
X105473000Y-142520992D01*
X105473000Y-141277000D01*
X105727000Y-141277000D01*
X105727000Y-142520992D01*
X105964741Y-142641041D01*
X106248620Y-142541234D01*
X106507573Y-142387962D01*
X106731649Y-142187116D01*
X106912236Y-141946414D01*
X107042394Y-141675107D01*
X107091036Y-141514740D01*
X107508964Y-141514740D01*
X107557606Y-141675107D01*
X107687764Y-141946414D01*
X107868351Y-142187116D01*
X108092427Y-142387962D01*
X108351380Y-142541234D01*
X108635259Y-142641041D01*
X108873000Y-142520992D01*
X108873000Y-141277000D01*
X109127000Y-141277000D01*
X109127000Y-142520992D01*
X109364741Y-142641041D01*
X109648620Y-142541234D01*
X109907573Y-142387962D01*
X110131649Y-142187116D01*
X110312236Y-141946414D01*
X110442394Y-141675107D01*
X110491036Y-141514740D01*
X110370378Y-141277000D01*
X109127000Y-141277000D01*
X108873000Y-141277000D01*
X107629622Y-141277000D01*
X107508964Y-141514740D01*
X107091036Y-141514740D01*
X106970378Y-141277000D01*
X105727000Y-141277000D01*
X105473000Y-141277000D01*
X104229622Y-141277000D01*
X104108964Y-141514740D01*
X100735000Y-141514740D01*
X100735000Y-140785260D01*
X104108964Y-140785260D01*
X104229622Y-141023000D01*
X105473000Y-141023000D01*
X105473000Y-139779008D01*
X105727000Y-139779008D01*
X105727000Y-141023000D01*
X106970378Y-141023000D01*
X107091036Y-140785260D01*
X107508964Y-140785260D01*
X107629622Y-141023000D01*
X108873000Y-141023000D01*
X108873000Y-139779008D01*
X109127000Y-139779008D01*
X109127000Y-141023000D01*
X110370378Y-141023000D01*
X110491036Y-140785260D01*
X110442394Y-140624893D01*
X110312236Y-140353586D01*
X110131649Y-140112884D01*
X109907573Y-139912038D01*
X109648620Y-139758766D01*
X109364741Y-139658959D01*
X109127000Y-139779008D01*
X108873000Y-139779008D01*
X108635259Y-139658959D01*
X108351380Y-139758766D01*
X108092427Y-139912038D01*
X107868351Y-140112884D01*
X107687764Y-140353586D01*
X107557606Y-140624893D01*
X107508964Y-140785260D01*
X107091036Y-140785260D01*
X107042394Y-140624893D01*
X106912236Y-140353586D01*
X106731649Y-140112884D01*
X106507573Y-139912038D01*
X106248620Y-139758766D01*
X105964741Y-139658959D01*
X105727000Y-139779008D01*
X105473000Y-139779008D01*
X105235259Y-139658959D01*
X104951380Y-139758766D01*
X104692427Y-139912038D01*
X104468351Y-140112884D01*
X104287764Y-140353586D01*
X104157606Y-140624893D01*
X104108964Y-140785260D01*
X100735000Y-140785260D01*
X100735000Y-135595793D01*
X103954054Y-135595793D01*
X104034431Y-135893169D01*
X104232877Y-136317251D01*
X104510245Y-136694469D01*
X104855875Y-137010327D01*
X105256484Y-137252687D01*
X105696678Y-137412235D01*
X106159540Y-137482840D01*
X107909600Y-137482840D01*
X107909600Y-135224780D01*
X108163600Y-135224780D01*
X108163600Y-137482840D01*
X109913660Y-137482840D01*
X110376522Y-137412235D01*
X110816716Y-137252687D01*
X111217325Y-137010327D01*
X111562955Y-136694469D01*
X111840323Y-136317251D01*
X112038769Y-135893169D01*
X112119146Y-135595793D01*
X112009345Y-135224780D01*
X108163600Y-135224780D01*
X107909600Y-135224780D01*
X104063855Y-135224780D01*
X103954054Y-135595793D01*
X100735000Y-135595793D01*
X100735000Y-134599767D01*
X103954054Y-134599767D01*
X104063855Y-134970780D01*
X107909600Y-134970780D01*
X107909600Y-132712720D01*
X108163600Y-132712720D01*
X108163600Y-134970780D01*
X112009345Y-134970780D01*
X112119146Y-134599767D01*
X112038769Y-134302391D01*
X111866598Y-133934460D01*
X112174260Y-133934460D01*
X112174260Y-132626360D01*
X112428260Y-132626360D01*
X112428260Y-133934460D01*
X112877840Y-133934460D01*
X113155374Y-133882108D01*
X113417362Y-133776618D01*
X113653736Y-133622044D01*
X113855412Y-133424326D01*
X114014640Y-133191062D01*
X114125301Y-132931216D01*
X114142843Y-132848415D01*
X114020856Y-132626360D01*
X112428260Y-132626360D01*
X112174260Y-132626360D01*
X110581664Y-132626360D01*
X110475689Y-132819268D01*
X110376522Y-132783325D01*
X109913660Y-132712720D01*
X108163600Y-132712720D01*
X107909600Y-132712720D01*
X106159540Y-132712720D01*
X105696678Y-132783325D01*
X105256484Y-132942873D01*
X104855875Y-133185233D01*
X104510245Y-133501091D01*
X104232877Y-133878309D01*
X104034431Y-134302391D01*
X103954054Y-134599767D01*
X100735000Y-134599767D01*
X100735000Y-130000000D01*
X110409637Y-130000000D01*
X110437345Y-130281329D01*
X110519406Y-130551846D01*
X110652665Y-130801156D01*
X110832002Y-131019678D01*
X111050524Y-131199015D01*
X111144032Y-131248996D01*
X110948784Y-131376676D01*
X110747108Y-131574394D01*
X110587880Y-131807658D01*
X110477219Y-132067504D01*
X110459677Y-132150305D01*
X110581664Y-132372360D01*
X112174260Y-132372360D01*
X112174260Y-132352360D01*
X112428260Y-132352360D01*
X112428260Y-132372360D01*
X114020856Y-132372360D01*
X114142843Y-132150305D01*
X114125301Y-132067504D01*
X114014640Y-131807658D01*
X113855412Y-131574394D01*
X113653736Y-131376676D01*
X113458488Y-131248996D01*
X113551996Y-131199015D01*
X113770518Y-131019678D01*
X113949855Y-130801156D01*
X114083114Y-130551846D01*
X114165175Y-130281329D01*
X114192883Y-130000000D01*
X114165175Y-129718671D01*
X114083114Y-129448154D01*
X113949855Y-129198844D01*
X113770518Y-128980322D01*
X113551996Y-128800985D01*
X113302686Y-128667726D01*
X113032169Y-128585665D01*
X112821335Y-128564900D01*
X111781185Y-128564900D01*
X111570351Y-128585665D01*
X111299834Y-128667726D01*
X111050524Y-128800985D01*
X110832002Y-128980322D01*
X110652665Y-129198844D01*
X110519406Y-129448154D01*
X110437345Y-129718671D01*
X110409637Y-130000000D01*
X100735000Y-130000000D01*
X100735000Y-125397693D01*
X103954054Y-125397693D01*
X104034431Y-125695069D01*
X104232877Y-126119151D01*
X104510245Y-126496369D01*
X104855875Y-126812227D01*
X105256484Y-127054587D01*
X105696678Y-127214135D01*
X106159540Y-127284740D01*
X107909600Y-127284740D01*
X107909600Y-125026680D01*
X108163600Y-125026680D01*
X108163600Y-127284740D01*
X109913660Y-127284740D01*
X110376522Y-127214135D01*
X110816716Y-127054587D01*
X111217325Y-126812227D01*
X111562955Y-126496369D01*
X111840323Y-126119151D01*
X112038769Y-125695069D01*
X112119146Y-125397693D01*
X112009345Y-125026680D01*
X108163600Y-125026680D01*
X107909600Y-125026680D01*
X104063855Y-125026680D01*
X103954054Y-125397693D01*
X100735000Y-125397693D01*
X100735000Y-124401667D01*
X103954054Y-124401667D01*
X104063855Y-124772680D01*
X107909600Y-124772680D01*
X107909600Y-122514620D01*
X108163600Y-122514620D01*
X108163600Y-124772680D01*
X112009345Y-124772680D01*
X112119146Y-124401667D01*
X112038769Y-124104291D01*
X111840323Y-123680209D01*
X111562955Y-123302991D01*
X111217325Y-122987133D01*
X110816716Y-122744773D01*
X110376522Y-122585225D01*
X109913660Y-122514620D01*
X108163600Y-122514620D01*
X107909600Y-122514620D01*
X106159540Y-122514620D01*
X105696678Y-122585225D01*
X105256484Y-122744773D01*
X104855875Y-122987133D01*
X104510245Y-123302991D01*
X104232877Y-123680209D01*
X104034431Y-124104291D01*
X103954054Y-124401667D01*
X100735000Y-124401667D01*
X100735000Y-116361158D01*
X100960273Y-116511680D01*
X101221426Y-116619853D01*
X101498665Y-116675000D01*
X101781335Y-116675000D01*
X102058574Y-116619853D01*
X102319727Y-116511680D01*
X102554759Y-116354637D01*
X102754637Y-116154759D01*
X102910000Y-115922241D01*
X103065363Y-116154759D01*
X103265241Y-116354637D01*
X103500273Y-116511680D01*
X103761426Y-116619853D01*
X104038665Y-116675000D01*
X104321335Y-116675000D01*
X104598574Y-116619853D01*
X104859727Y-116511680D01*
X105094759Y-116354637D01*
X105294637Y-116154759D01*
X105450000Y-115922241D01*
X105605363Y-116154759D01*
X105805241Y-116354637D01*
X106040273Y-116511680D01*
X106301426Y-116619853D01*
X106578665Y-116675000D01*
X106861335Y-116675000D01*
X107138574Y-116619853D01*
X107399727Y-116511680D01*
X107634759Y-116354637D01*
X107834637Y-116154759D01*
X107990000Y-115922241D01*
X108145363Y-116154759D01*
X108345241Y-116354637D01*
X108580273Y-116511680D01*
X108841426Y-116619853D01*
X109118665Y-116675000D01*
X109401335Y-116675000D01*
X109583887Y-116638688D01*
X113111693Y-120166495D01*
X113082795Y-120209744D01*
X113004774Y-120398102D01*
X112965000Y-120598061D01*
X112965000Y-120801939D01*
X113004774Y-121001898D01*
X113082795Y-121190256D01*
X113196063Y-121359774D01*
X113340226Y-121503937D01*
X113509744Y-121617205D01*
X113698102Y-121695226D01*
X113898061Y-121735000D01*
X114101939Y-121735000D01*
X114301898Y-121695226D01*
X114490256Y-121617205D01*
X114634947Y-121520526D01*
X114565026Y-121605724D01*
X114494454Y-121737754D01*
X114450998Y-121881015D01*
X114436324Y-122030000D01*
X114440001Y-122067333D01*
X114440000Y-141162678D01*
X114436324Y-141200000D01*
X114440000Y-141237322D01*
X114440000Y-141237332D01*
X114450997Y-141348985D01*
X114478302Y-141438998D01*
X114494454Y-141492246D01*
X114565026Y-141624276D01*
X114592500Y-141657753D01*
X114659999Y-141740001D01*
X114689003Y-141763804D01*
X116186201Y-143261003D01*
X116209999Y-143290001D01*
X116238997Y-143313799D01*
X116325723Y-143384974D01*
X116433658Y-143442667D01*
X116457753Y-143455546D01*
X116601014Y-143499003D01*
X116712667Y-143510000D01*
X116712677Y-143510000D01*
X116749999Y-143513676D01*
X116787322Y-143510000D01*
X118182678Y-143510000D01*
X118220000Y-143513676D01*
X118257322Y-143510000D01*
X118257333Y-143510000D01*
X118368986Y-143499003D01*
X118512247Y-143455546D01*
X118644276Y-143384974D01*
X118760001Y-143290001D01*
X118783804Y-143260997D01*
X119424289Y-142620512D01*
X128759783Y-142620512D01*
X128801213Y-142900130D01*
X128896397Y-143166292D01*
X128963329Y-143291514D01*
X129207298Y-143363097D01*
X130020395Y-142550000D01*
X130379605Y-142550000D01*
X131192702Y-143363097D01*
X131436671Y-143291514D01*
X131557571Y-143036004D01*
X131626300Y-142761816D01*
X131640217Y-142479488D01*
X131598787Y-142199870D01*
X131503603Y-141933708D01*
X131436671Y-141808486D01*
X131192702Y-141736903D01*
X130379605Y-142550000D01*
X130020395Y-142550000D01*
X129207298Y-141736903D01*
X128963329Y-141808486D01*
X128842429Y-142063996D01*
X128773700Y-142338184D01*
X128759783Y-142620512D01*
X119424289Y-142620512D01*
X120061730Y-141983072D01*
X120375000Y-141983072D01*
X120499482Y-141970812D01*
X120619180Y-141934502D01*
X120729494Y-141875537D01*
X120826185Y-141796185D01*
X120905537Y-141699494D01*
X120964502Y-141589180D01*
X121000812Y-141469482D01*
X121013072Y-141345000D01*
X121013072Y-139595000D01*
X121000812Y-139470518D01*
X120964502Y-139350820D01*
X120905537Y-139240506D01*
X120872295Y-139200000D01*
X120905537Y-139159494D01*
X120964502Y-139049180D01*
X121000812Y-138929482D01*
X121013072Y-138805000D01*
X121013072Y-137055000D01*
X121009192Y-137015609D01*
X121564802Y-136460000D01*
X121938944Y-136460000D01*
X121920820Y-136465498D01*
X121810506Y-136524463D01*
X121713815Y-136603815D01*
X121634463Y-136700506D01*
X121575498Y-136810820D01*
X121539188Y-136930518D01*
X121526928Y-137055000D01*
X121526928Y-138805000D01*
X121539188Y-138929482D01*
X121575498Y-139049180D01*
X121634463Y-139159494D01*
X121667705Y-139200000D01*
X121634463Y-139240506D01*
X121575498Y-139350820D01*
X121539188Y-139470518D01*
X121526928Y-139595000D01*
X121526928Y-141345000D01*
X121539188Y-141469482D01*
X121575498Y-141589180D01*
X121634463Y-141699494D01*
X121713815Y-141796185D01*
X121810506Y-141875537D01*
X121920820Y-141934502D01*
X122040518Y-141970812D01*
X122165000Y-141983072D01*
X122915000Y-141983072D01*
X123039482Y-141970812D01*
X123159180Y-141934502D01*
X123269494Y-141875537D01*
X123366185Y-141796185D01*
X123445537Y-141699494D01*
X123504502Y-141589180D01*
X123514173Y-141557298D01*
X129386903Y-141557298D01*
X130200000Y-142370395D01*
X131013097Y-141557298D01*
X130941514Y-141313329D01*
X130686004Y-141192429D01*
X130411816Y-141123700D01*
X130129488Y-141109783D01*
X129849870Y-141151213D01*
X129583708Y-141246397D01*
X129458486Y-141313329D01*
X129386903Y-141557298D01*
X123514173Y-141557298D01*
X123540812Y-141469482D01*
X123553072Y-141345000D01*
X123553072Y-139595000D01*
X123540812Y-139470518D01*
X123504502Y-139350820D01*
X123445537Y-139240506D01*
X123412295Y-139200000D01*
X123445537Y-139159494D01*
X123504502Y-139049180D01*
X123540812Y-138929482D01*
X123553072Y-138805000D01*
X123553072Y-137055000D01*
X123540812Y-136930518D01*
X123504502Y-136810820D01*
X123445537Y-136700506D01*
X123366185Y-136603815D01*
X123269494Y-136524463D01*
X123159180Y-136465498D01*
X123141056Y-136460000D01*
X126185199Y-136460000D01*
X128936201Y-139211003D01*
X128959999Y-139240001D01*
X129075724Y-139334974D01*
X129207753Y-139405546D01*
X129351014Y-139449003D01*
X129462667Y-139460000D01*
X129462675Y-139460000D01*
X129500000Y-139463676D01*
X129537325Y-139460000D01*
X132532678Y-139460000D01*
X132570000Y-139463676D01*
X132607322Y-139460000D01*
X132607333Y-139460000D01*
X132718986Y-139449003D01*
X132862247Y-139405546D01*
X132994276Y-139334974D01*
X133110001Y-139240001D01*
X133133804Y-139210997D01*
X135496114Y-136848688D01*
X135678665Y-136885000D01*
X135961335Y-136885000D01*
X136238574Y-136829853D01*
X136499727Y-136721680D01*
X136734759Y-136564637D01*
X136934637Y-136364759D01*
X137091680Y-136129727D01*
X137199853Y-135868574D01*
X137255000Y-135591335D01*
X137255000Y-135308665D01*
X137199853Y-135031426D01*
X137091680Y-134770273D01*
X136934637Y-134535241D01*
X136734759Y-134335363D01*
X136499727Y-134178320D01*
X136238574Y-134070147D01*
X135961335Y-134015000D01*
X135678665Y-134015000D01*
X135401426Y-134070147D01*
X135140273Y-134178320D01*
X134905241Y-134335363D01*
X134705363Y-134535241D01*
X134548320Y-134770273D01*
X134440147Y-135031426D01*
X134385000Y-135308665D01*
X134385000Y-135591335D01*
X134421312Y-135773886D01*
X132255199Y-137940000D01*
X129814802Y-137940000D01*
X127063804Y-135189003D01*
X127040001Y-135159999D01*
X126924276Y-135065026D01*
X126792247Y-134994454D01*
X126648986Y-134950997D01*
X126537333Y-134940000D01*
X126537322Y-134940000D01*
X126500000Y-134936324D01*
X126462678Y-134940000D01*
X121287323Y-134940000D01*
X121250000Y-134936324D01*
X121212677Y-134940000D01*
X121212667Y-134940000D01*
X121101014Y-134950997D01*
X120957753Y-134994454D01*
X120825723Y-135065026D01*
X120742083Y-135133668D01*
X120709999Y-135159999D01*
X120686201Y-135188997D01*
X119488998Y-136386201D01*
X119460000Y-136409999D01*
X119436202Y-136438997D01*
X119436201Y-136438998D01*
X119425601Y-136451914D01*
X119380820Y-136465498D01*
X119270506Y-136524463D01*
X119173815Y-136603815D01*
X119094463Y-136700506D01*
X119035498Y-136810820D01*
X118999188Y-136930518D01*
X118986928Y-137055000D01*
X118986928Y-138805000D01*
X118999188Y-138929482D01*
X119035498Y-139049180D01*
X119094463Y-139159494D01*
X119127705Y-139200000D01*
X119094463Y-139240506D01*
X119035498Y-139350820D01*
X118999188Y-139470518D01*
X118986928Y-139595000D01*
X118986928Y-140908270D01*
X118464646Y-141430552D01*
X118473072Y-141345000D01*
X118473072Y-139595000D01*
X118460812Y-139470518D01*
X118424502Y-139350820D01*
X118365537Y-139240506D01*
X118332295Y-139200000D01*
X118365537Y-139159494D01*
X118424502Y-139049180D01*
X118460812Y-138929482D01*
X118473072Y-138805000D01*
X118473072Y-137055000D01*
X118460812Y-136930518D01*
X118424502Y-136810820D01*
X118365537Y-136700506D01*
X118286185Y-136603815D01*
X118189494Y-136524463D01*
X118079180Y-136465498D01*
X117959482Y-136429188D01*
X117835000Y-136416928D01*
X117085000Y-136416928D01*
X116960518Y-136429188D01*
X116840820Y-136465498D01*
X116730506Y-136524463D01*
X116633815Y-136603815D01*
X116554463Y-136700506D01*
X116495498Y-136810820D01*
X116459188Y-136930518D01*
X116446928Y-137055000D01*
X116446928Y-138805000D01*
X116459188Y-138929482D01*
X116495498Y-139049180D01*
X116554463Y-139159494D01*
X116587705Y-139200000D01*
X116554463Y-139240506D01*
X116495498Y-139350820D01*
X116459188Y-139470518D01*
X116446928Y-139595000D01*
X116446928Y-141345000D01*
X116449892Y-141375090D01*
X115960000Y-140885199D01*
X115960000Y-134150000D01*
X128561928Y-134150000D01*
X128561928Y-135750000D01*
X128574188Y-135874482D01*
X128610498Y-135994180D01*
X128669463Y-136104494D01*
X128748815Y-136201185D01*
X128845506Y-136280537D01*
X128955820Y-136339502D01*
X129075518Y-136375812D01*
X129200000Y-136388072D01*
X130800000Y-136388072D01*
X130924482Y-136375812D01*
X131044180Y-136339502D01*
X131154494Y-136280537D01*
X131251185Y-136201185D01*
X131330537Y-136104494D01*
X131389502Y-135994180D01*
X131425812Y-135874482D01*
X131438072Y-135750000D01*
X131438072Y-134150000D01*
X131425812Y-134025518D01*
X131389502Y-133905820D01*
X131330537Y-133795506D01*
X131251185Y-133698815D01*
X131154494Y-133619463D01*
X131044180Y-133560498D01*
X130924482Y-133524188D01*
X130800000Y-133511928D01*
X129200000Y-133511928D01*
X129075518Y-133524188D01*
X128955820Y-133560498D01*
X128845506Y-133619463D01*
X128748815Y-133698815D01*
X128669463Y-133795506D01*
X128610498Y-133905820D01*
X128574188Y-134025518D01*
X128561928Y-134150000D01*
X115960000Y-134150000D01*
X115960000Y-132442702D01*
X129186903Y-132442702D01*
X129258486Y-132686671D01*
X129513996Y-132807571D01*
X129788184Y-132876300D01*
X130070512Y-132890217D01*
X130350130Y-132848787D01*
X130616292Y-132753603D01*
X130741514Y-132686671D01*
X130813097Y-132442702D01*
X130000000Y-131629605D01*
X129186903Y-132442702D01*
X115960000Y-132442702D01*
X115960000Y-131520512D01*
X128559783Y-131520512D01*
X128601213Y-131800130D01*
X128696397Y-132066292D01*
X128763329Y-132191514D01*
X129007298Y-132263097D01*
X129820395Y-131450000D01*
X130179605Y-131450000D01*
X130992702Y-132263097D01*
X131236671Y-132191514D01*
X131357571Y-131936004D01*
X131426300Y-131661816D01*
X131440217Y-131379488D01*
X131398787Y-131099870D01*
X131303603Y-130833708D01*
X131290218Y-130808665D01*
X134385000Y-130808665D01*
X134385000Y-131091335D01*
X134440147Y-131368574D01*
X134548320Y-131629727D01*
X134705363Y-131864759D01*
X134905241Y-132064637D01*
X135140273Y-132221680D01*
X135401426Y-132329853D01*
X135678665Y-132385000D01*
X135961335Y-132385000D01*
X136238574Y-132329853D01*
X136499727Y-132221680D01*
X136734759Y-132064637D01*
X136934637Y-131864759D01*
X137091680Y-131629727D01*
X137199853Y-131368574D01*
X137203933Y-131348061D01*
X137715000Y-131348061D01*
X137715000Y-131551939D01*
X137754774Y-131751898D01*
X137832795Y-131940256D01*
X137946063Y-132109774D01*
X137990001Y-132153712D01*
X137990000Y-134996289D01*
X137946063Y-135040226D01*
X137832795Y-135209744D01*
X137754774Y-135398102D01*
X137715000Y-135598061D01*
X137715000Y-135801939D01*
X137754774Y-136001898D01*
X137832795Y-136190256D01*
X137946063Y-136359774D01*
X138090226Y-136503937D01*
X138259744Y-136617205D01*
X138448102Y-136695226D01*
X138648061Y-136735000D01*
X138851939Y-136735000D01*
X139051898Y-136695226D01*
X139240256Y-136617205D01*
X139409774Y-136503937D01*
X139553937Y-136359774D01*
X139667205Y-136190256D01*
X139745226Y-136001898D01*
X139785000Y-135801939D01*
X139785000Y-135598061D01*
X139745226Y-135398102D01*
X139667205Y-135209744D01*
X139553937Y-135040226D01*
X139510000Y-134996289D01*
X139510000Y-132153711D01*
X139553937Y-132109774D01*
X139667205Y-131940256D01*
X139745226Y-131751898D01*
X139785000Y-131551939D01*
X139785000Y-131348061D01*
X139745226Y-131148102D01*
X139667205Y-130959744D01*
X139553937Y-130790226D01*
X139409774Y-130646063D01*
X139240256Y-130532795D01*
X139051898Y-130454774D01*
X138851939Y-130415000D01*
X138648061Y-130415000D01*
X138448102Y-130454774D01*
X138259744Y-130532795D01*
X138090226Y-130646063D01*
X137946063Y-130790226D01*
X137832795Y-130959744D01*
X137754774Y-131148102D01*
X137715000Y-131348061D01*
X137203933Y-131348061D01*
X137255000Y-131091335D01*
X137255000Y-130808665D01*
X137199853Y-130531426D01*
X137091680Y-130270273D01*
X136934637Y-130035241D01*
X136734759Y-129835363D01*
X136499727Y-129678320D01*
X136238574Y-129570147D01*
X135961335Y-129515000D01*
X135678665Y-129515000D01*
X135401426Y-129570147D01*
X135140273Y-129678320D01*
X134905241Y-129835363D01*
X134705363Y-130035241D01*
X134548320Y-130270273D01*
X134440147Y-130531426D01*
X134385000Y-130808665D01*
X131290218Y-130808665D01*
X131236671Y-130708486D01*
X130992702Y-130636903D01*
X130179605Y-131450000D01*
X129820395Y-131450000D01*
X129007298Y-130636903D01*
X128763329Y-130708486D01*
X128642429Y-130963996D01*
X128573700Y-131238184D01*
X128559783Y-131520512D01*
X115960000Y-131520512D01*
X115960000Y-130457298D01*
X129186903Y-130457298D01*
X130000000Y-131270395D01*
X130813097Y-130457298D01*
X130741514Y-130213329D01*
X130486004Y-130092429D01*
X130211816Y-130023700D01*
X129929488Y-130009783D01*
X129649870Y-130051213D01*
X129383708Y-130146397D01*
X129258486Y-130213329D01*
X129186903Y-130457298D01*
X115960000Y-130457298D01*
X115960000Y-123415340D01*
X116019369Y-123558669D01*
X116263962Y-123924729D01*
X116575271Y-124236038D01*
X116941331Y-124480631D01*
X117348075Y-124649110D01*
X117779872Y-124735000D01*
X118220128Y-124735000D01*
X118651925Y-124649110D01*
X119058669Y-124480631D01*
X119424729Y-124236038D01*
X119736038Y-123924729D01*
X119980631Y-123558669D01*
X120036204Y-123424503D01*
X122915950Y-123424503D01*
X123020407Y-123768861D01*
X123220118Y-124158835D01*
X123492071Y-124502354D01*
X123825816Y-124786217D01*
X124208527Y-124999516D01*
X124625497Y-125134053D01*
X124973000Y-125022642D01*
X124973000Y-123077000D01*
X125227000Y-123077000D01*
X125227000Y-125022642D01*
X125574503Y-125134053D01*
X125991473Y-124999516D01*
X126374184Y-124786217D01*
X126707929Y-124502354D01*
X126979882Y-124158835D01*
X127179593Y-123768861D01*
X127284050Y-123424503D01*
X127172362Y-123077000D01*
X125227000Y-123077000D01*
X124973000Y-123077000D01*
X123027638Y-123077000D01*
X122915950Y-123424503D01*
X120036204Y-123424503D01*
X120149110Y-123151925D01*
X120235000Y-122720128D01*
X120235000Y-122475497D01*
X122915950Y-122475497D01*
X123027638Y-122823000D01*
X124973000Y-122823000D01*
X124973000Y-120877358D01*
X125227000Y-120877358D01*
X125227000Y-122823000D01*
X127172362Y-122823000D01*
X127284050Y-122475497D01*
X127179593Y-122131139D01*
X126979882Y-121741165D01*
X126707929Y-121397646D01*
X126374184Y-121113783D01*
X125991473Y-120900484D01*
X125574503Y-120765947D01*
X125227000Y-120877358D01*
X124973000Y-120877358D01*
X124625497Y-120765947D01*
X124208527Y-120900484D01*
X123825816Y-121113783D01*
X123492071Y-121397646D01*
X123220118Y-121741165D01*
X123020407Y-122131139D01*
X122915950Y-122475497D01*
X120235000Y-122475497D01*
X120235000Y-122279872D01*
X120149110Y-121848075D01*
X119980631Y-121441331D01*
X119736038Y-121075271D01*
X119424729Y-120763962D01*
X119058669Y-120519369D01*
X118651925Y-120350890D01*
X118220128Y-120265000D01*
X118039803Y-120265000D01*
X118054803Y-120250000D01*
X127046289Y-120250000D01*
X127090226Y-120293937D01*
X127259744Y-120407205D01*
X127448102Y-120485226D01*
X127648061Y-120525000D01*
X127851939Y-120525000D01*
X128051898Y-120485226D01*
X128240256Y-120407205D01*
X128409774Y-120293937D01*
X128553937Y-120149774D01*
X128667205Y-119980256D01*
X128745226Y-119791898D01*
X128785000Y-119591939D01*
X128785000Y-119388061D01*
X128745226Y-119188102D01*
X128667205Y-118999744D01*
X128553937Y-118830226D01*
X128409774Y-118686063D01*
X128240256Y-118572795D01*
X128051898Y-118494774D01*
X127851939Y-118455000D01*
X127648061Y-118455000D01*
X127448102Y-118494774D01*
X127259744Y-118572795D01*
X127090226Y-118686063D01*
X127046289Y-118730000D01*
X117777322Y-118730000D01*
X117739999Y-118726324D01*
X117702676Y-118730000D01*
X117702667Y-118730000D01*
X117591014Y-118740997D01*
X117447753Y-118784454D01*
X117315724Y-118855026D01*
X117315722Y-118855027D01*
X117315723Y-118855027D01*
X117228996Y-118926201D01*
X117228992Y-118926205D01*
X117199999Y-118949999D01*
X117176205Y-118978992D01*
X114821078Y-121334121D01*
X114917205Y-121190256D01*
X114995226Y-121001898D01*
X115035000Y-120801939D01*
X115035000Y-120598061D01*
X114995226Y-120398102D01*
X114917205Y-120209744D01*
X114803937Y-120040226D01*
X114761886Y-119998175D01*
X114763676Y-119979999D01*
X114760000Y-119942676D01*
X114760000Y-119942667D01*
X114749003Y-119831014D01*
X114705546Y-119687753D01*
X114634974Y-119555724D01*
X114540001Y-119439999D01*
X114511004Y-119416202D01*
X111769801Y-116675000D01*
X111941335Y-116675000D01*
X112218574Y-116619853D01*
X112479727Y-116511680D01*
X112714759Y-116354637D01*
X112914637Y-116154759D01*
X113070000Y-115922241D01*
X113225363Y-116154759D01*
X113425241Y-116354637D01*
X113660273Y-116511680D01*
X113921426Y-116619853D01*
X114198665Y-116675000D01*
X114481335Y-116675000D01*
X114758574Y-116619853D01*
X115019727Y-116511680D01*
X115254759Y-116354637D01*
X115454637Y-116154759D01*
X115610000Y-115922241D01*
X115765363Y-116154759D01*
X115965241Y-116354637D01*
X116200273Y-116511680D01*
X116461426Y-116619853D01*
X116738665Y-116675000D01*
X117021335Y-116675000D01*
X117298574Y-116619853D01*
X117559727Y-116511680D01*
X117794759Y-116354637D01*
X117994637Y-116154759D01*
X118150000Y-115922241D01*
X118305363Y-116154759D01*
X118505241Y-116354637D01*
X118740273Y-116511680D01*
X119001426Y-116619853D01*
X119278665Y-116675000D01*
X119561335Y-116675000D01*
X119838574Y-116619853D01*
X120099727Y-116511680D01*
X120334759Y-116354637D01*
X120534637Y-116154759D01*
X120690000Y-115922241D01*
X120845363Y-116154759D01*
X121045241Y-116354637D01*
X121280273Y-116511680D01*
X121541426Y-116619853D01*
X121818665Y-116675000D01*
X122101335Y-116675000D01*
X122378574Y-116619853D01*
X122639727Y-116511680D01*
X122874759Y-116354637D01*
X123074637Y-116154759D01*
X123230000Y-115922241D01*
X123385363Y-116154759D01*
X123585241Y-116354637D01*
X123820273Y-116511680D01*
X124081426Y-116619853D01*
X124358665Y-116675000D01*
X124641335Y-116675000D01*
X124918574Y-116619853D01*
X125179727Y-116511680D01*
X125414759Y-116354637D01*
X125614637Y-116154759D01*
X125770000Y-115922241D01*
X125925363Y-116154759D01*
X126125241Y-116354637D01*
X126360273Y-116511680D01*
X126621426Y-116619853D01*
X126898665Y-116675000D01*
X127181335Y-116675000D01*
X127458574Y-116619853D01*
X127719727Y-116511680D01*
X127954759Y-116354637D01*
X128154637Y-116154759D01*
X128310000Y-115922241D01*
X128465363Y-116154759D01*
X128665241Y-116354637D01*
X128820001Y-116458044D01*
X128820000Y-119492677D01*
X128816324Y-119530000D01*
X128820000Y-119567322D01*
X128820000Y-119567332D01*
X128830997Y-119678985D01*
X128841521Y-119713677D01*
X128874454Y-119822246D01*
X128945026Y-119954276D01*
X128983375Y-120001004D01*
X129039999Y-120070001D01*
X129069003Y-120093804D01*
X139990001Y-131014804D01*
X139990000Y-137135198D01*
X135738998Y-141386201D01*
X135710000Y-141409999D01*
X135686202Y-141438997D01*
X135686201Y-141438998D01*
X135615026Y-141525724D01*
X135544454Y-141657754D01*
X135500998Y-141801015D01*
X135486324Y-141950000D01*
X135490001Y-141987332D01*
X135490000Y-144662677D01*
X135486324Y-144700000D01*
X135490000Y-144737322D01*
X135490000Y-144737332D01*
X135500997Y-144848985D01*
X135540253Y-144978397D01*
X135544454Y-144992246D01*
X135615026Y-145124276D01*
X135646453Y-145162569D01*
X135709999Y-145240001D01*
X135739003Y-145263804D01*
X137186201Y-146711003D01*
X137209999Y-146740001D01*
X137325724Y-146834974D01*
X137457753Y-146905546D01*
X137601014Y-146949003D01*
X137712667Y-146960000D01*
X137712676Y-146960000D01*
X137749999Y-146963676D01*
X137787322Y-146960000D01*
X144212678Y-146960000D01*
X144250000Y-146963676D01*
X144287322Y-146960000D01*
X144287333Y-146960000D01*
X144398986Y-146949003D01*
X144542247Y-146905546D01*
X144674276Y-146834974D01*
X144790001Y-146740001D01*
X144813804Y-146710998D01*
X145761003Y-145763799D01*
X145790001Y-145740001D01*
X145884974Y-145624276D01*
X145955546Y-145492247D01*
X145999003Y-145348986D01*
X146009387Y-145243552D01*
X146013677Y-145200000D01*
X146010000Y-145162667D01*
X146010000Y-144891655D01*
X146017028Y-144820298D01*
X146238505Y-144672312D01*
X146452312Y-144458505D01*
X146620299Y-144207095D01*
X146736011Y-143927743D01*
X146795000Y-143631184D01*
X146795000Y-143328816D01*
X146736011Y-143032257D01*
X146620299Y-142752905D01*
X146452312Y-142501495D01*
X146238505Y-142287688D01*
X145987095Y-142119701D01*
X145707743Y-142003989D01*
X145411184Y-141945000D01*
X145108816Y-141945000D01*
X144812257Y-142003989D01*
X144532905Y-142119701D01*
X144281495Y-142287688D01*
X144067688Y-142501495D01*
X144010000Y-142587831D01*
X143952312Y-142501495D01*
X143738505Y-142287688D01*
X143520000Y-142141687D01*
X143520000Y-136504801D01*
X147676114Y-132348688D01*
X147858665Y-132385000D01*
X148141335Y-132385000D01*
X148418574Y-132329853D01*
X148679727Y-132221680D01*
X148914759Y-132064637D01*
X149114637Y-131864759D01*
X149271680Y-131629727D01*
X149379853Y-131368574D01*
X149435000Y-131091335D01*
X149435000Y-131075000D01*
X152986928Y-131075000D01*
X152990000Y-131664250D01*
X153148750Y-131823000D01*
X154373000Y-131823000D01*
X154373000Y-130598750D01*
X154214250Y-130440000D01*
X153625000Y-130436928D01*
X153500518Y-130449188D01*
X153380820Y-130485498D01*
X153270506Y-130544463D01*
X153173815Y-130623815D01*
X153094463Y-130720506D01*
X153035498Y-130830820D01*
X152999188Y-130950518D01*
X152986928Y-131075000D01*
X149435000Y-131075000D01*
X149435000Y-130808665D01*
X149379853Y-130531426D01*
X149271680Y-130270273D01*
X149114637Y-130035241D01*
X148914759Y-129835363D01*
X148679727Y-129678320D01*
X148418574Y-129570147D01*
X148141335Y-129515000D01*
X147858665Y-129515000D01*
X147581426Y-129570147D01*
X147320273Y-129678320D01*
X147085241Y-129835363D01*
X146885363Y-130035241D01*
X146728320Y-130270273D01*
X146620147Y-130531426D01*
X146565000Y-130808665D01*
X146565000Y-131091335D01*
X146601312Y-131273886D01*
X142248998Y-135626201D01*
X142220000Y-135649999D01*
X142196202Y-135678997D01*
X142196201Y-135678998D01*
X142125026Y-135765724D01*
X142054454Y-135897754D01*
X142026472Y-135990001D01*
X142019254Y-136013799D01*
X142010998Y-136041015D01*
X141996324Y-136190000D01*
X142000001Y-136227332D01*
X142000000Y-142141687D01*
X141781495Y-142287688D01*
X141567688Y-142501495D01*
X141472262Y-142644310D01*
X141324080Y-142595525D01*
X140439605Y-143480000D01*
X141324080Y-144364475D01*
X141472262Y-144315690D01*
X141567688Y-144458505D01*
X141781495Y-144672312D01*
X142032905Y-144840299D01*
X142312257Y-144956011D01*
X142608816Y-145015000D01*
X142911184Y-145015000D01*
X143207743Y-144956011D01*
X143487095Y-144840299D01*
X143738505Y-144672312D01*
X143952312Y-144458505D01*
X144010000Y-144372169D01*
X144067688Y-144458505D01*
X144281495Y-144672312D01*
X144490000Y-144811631D01*
X144490000Y-144885198D01*
X143935199Y-145440000D01*
X138064802Y-145440000D01*
X137168882Y-144544080D01*
X139375525Y-144544080D01*
X139459208Y-144798261D01*
X139731775Y-144929158D01*
X140024642Y-145004365D01*
X140326553Y-145020991D01*
X140625907Y-144978397D01*
X140911199Y-144878222D01*
X141060792Y-144798261D01*
X141144475Y-144544080D01*
X140260000Y-143659605D01*
X139375525Y-144544080D01*
X137168882Y-144544080D01*
X137010000Y-144385199D01*
X137010000Y-143546553D01*
X138719009Y-143546553D01*
X138761603Y-143845907D01*
X138861778Y-144131199D01*
X138941739Y-144280792D01*
X139195920Y-144364475D01*
X140080395Y-143480000D01*
X139195920Y-142595525D01*
X138941739Y-142679208D01*
X138810842Y-142951775D01*
X138735635Y-143244642D01*
X138719009Y-143546553D01*
X137010000Y-143546553D01*
X137010000Y-142415920D01*
X139375525Y-142415920D01*
X140260000Y-143300395D01*
X141144475Y-142415920D01*
X141060792Y-142161739D01*
X140788225Y-142030842D01*
X140495358Y-141955635D01*
X140193447Y-141939009D01*
X139894093Y-141981603D01*
X139608801Y-142081778D01*
X139459208Y-142161739D01*
X139375525Y-142415920D01*
X137010000Y-142415920D01*
X137010000Y-142264801D01*
X141261004Y-138013798D01*
X141290001Y-137990001D01*
X141331036Y-137940000D01*
X141384974Y-137874277D01*
X141455546Y-137742247D01*
X141481846Y-137655546D01*
X141499003Y-137598986D01*
X141510000Y-137487333D01*
X141510000Y-137487324D01*
X141513676Y-137450001D01*
X141510000Y-137412678D01*
X141510000Y-130737322D01*
X141513676Y-130699999D01*
X141510000Y-130662676D01*
X141510000Y-130662667D01*
X141499003Y-130551014D01*
X141455546Y-130407753D01*
X141384974Y-130275724D01*
X141366871Y-130253665D01*
X141313799Y-130188996D01*
X141313795Y-130188992D01*
X141290001Y-130159999D01*
X141261008Y-130136205D01*
X136312874Y-125188072D01*
X139400000Y-125188072D01*
X139524482Y-125175812D01*
X139644180Y-125139502D01*
X139754494Y-125080537D01*
X139851185Y-125001185D01*
X139930537Y-124904494D01*
X139989502Y-124794180D01*
X140025812Y-124674482D01*
X140038072Y-124550000D01*
X140038072Y-122788967D01*
X140540000Y-122788967D01*
X140540000Y-123111033D01*
X140602832Y-123426912D01*
X140726082Y-123724463D01*
X140905013Y-123992252D01*
X141132748Y-124219987D01*
X141400537Y-124398918D01*
X141698088Y-124522168D01*
X142013967Y-124585000D01*
X142336033Y-124585000D01*
X142651912Y-124522168D01*
X142949463Y-124398918D01*
X143217252Y-124219987D01*
X143444987Y-123992252D01*
X143623918Y-123724463D01*
X143747168Y-123426912D01*
X143810000Y-123111033D01*
X143810000Y-122788967D01*
X143747168Y-122473088D01*
X143623918Y-122175537D01*
X143444987Y-121907748D01*
X143217252Y-121680013D01*
X142949463Y-121501082D01*
X142651912Y-121377832D01*
X142336033Y-121315000D01*
X142013967Y-121315000D01*
X141698088Y-121377832D01*
X141400537Y-121501082D01*
X141132748Y-121680013D01*
X140905013Y-121907748D01*
X140726082Y-122175537D01*
X140602832Y-122473088D01*
X140540000Y-122788967D01*
X140038072Y-122788967D01*
X140038072Y-121350000D01*
X140025812Y-121225518D01*
X139989502Y-121105820D01*
X139930537Y-120995506D01*
X139851185Y-120898815D01*
X139754494Y-120819463D01*
X139644180Y-120760498D01*
X139524482Y-120724188D01*
X139400000Y-120711928D01*
X136200000Y-120711928D01*
X136075518Y-120724188D01*
X135955820Y-120760498D01*
X135845506Y-120819463D01*
X135748815Y-120898815D01*
X135669463Y-120995506D01*
X135610498Y-121105820D01*
X135574188Y-121225518D01*
X135561928Y-121350000D01*
X135561928Y-124437126D01*
X130340000Y-119215199D01*
X130340000Y-116458043D01*
X130494759Y-116354637D01*
X130694637Y-116154759D01*
X130850000Y-115922241D01*
X131005363Y-116154759D01*
X131205241Y-116354637D01*
X131440273Y-116511680D01*
X131701426Y-116619853D01*
X131978665Y-116675000D01*
X132261335Y-116675000D01*
X132538574Y-116619853D01*
X132799727Y-116511680D01*
X133034759Y-116354637D01*
X133234637Y-116154759D01*
X133391680Y-115919727D01*
X133396067Y-115909135D01*
X133507615Y-116095131D01*
X133696586Y-116303519D01*
X133922580Y-116471037D01*
X134176913Y-116591246D01*
X134310961Y-116631904D01*
X134533000Y-116509915D01*
X134533000Y-115367000D01*
X134513000Y-115367000D01*
X134513000Y-115113000D01*
X134533000Y-115113000D01*
X134533000Y-113970085D01*
X134787000Y-113970085D01*
X134787000Y-115113000D01*
X134807000Y-115113000D01*
X134807000Y-115367000D01*
X134787000Y-115367000D01*
X134787000Y-116509915D01*
X135009039Y-116631904D01*
X135143087Y-116591246D01*
X135397420Y-116471037D01*
X135623414Y-116303519D01*
X135812385Y-116095131D01*
X135923933Y-115909135D01*
X135928320Y-115919727D01*
X136085363Y-116154759D01*
X136285241Y-116354637D01*
X136445203Y-116461520D01*
X136450144Y-116511680D01*
X136450998Y-116520355D01*
X136494454Y-116663616D01*
X136565026Y-116795646D01*
X136636201Y-116882372D01*
X136660000Y-116911371D01*
X136688998Y-116935169D01*
X139214830Y-119461002D01*
X139238629Y-119490001D01*
X139267627Y-119513799D01*
X139354354Y-119584974D01*
X139486383Y-119655546D01*
X139629644Y-119699003D01*
X139778630Y-119713677D01*
X139815963Y-119710000D01*
X141860199Y-119710000D01*
X144608823Y-122458625D01*
X144602832Y-122473088D01*
X144540000Y-122788967D01*
X144540000Y-123111033D01*
X144602832Y-123426912D01*
X144726082Y-123724463D01*
X144905013Y-123992252D01*
X145132748Y-124219987D01*
X145400537Y-124398918D01*
X145698088Y-124522168D01*
X146013967Y-124585000D01*
X146336033Y-124585000D01*
X146651912Y-124522168D01*
X146949463Y-124398918D01*
X147217252Y-124219987D01*
X147444987Y-123992252D01*
X147623918Y-123724463D01*
X147747168Y-123426912D01*
X147810000Y-123111033D01*
X147810000Y-122788967D01*
X147747168Y-122473088D01*
X147623918Y-122175537D01*
X147444987Y-121907748D01*
X147217252Y-121680013D01*
X146949463Y-121501082D01*
X146651912Y-121377832D01*
X146336033Y-121315000D01*
X146013967Y-121315000D01*
X145698088Y-121377832D01*
X145683625Y-121383823D01*
X142738804Y-118439003D01*
X142715001Y-118409999D01*
X142599276Y-118315026D01*
X142467247Y-118244454D01*
X142323986Y-118200997D01*
X142212333Y-118190000D01*
X142212322Y-118190000D01*
X142175000Y-118186324D01*
X142137678Y-118190000D01*
X140093432Y-118190000D01*
X138186414Y-116282982D01*
X138314637Y-116154759D01*
X138415879Y-116003240D01*
X138555455Y-116212131D01*
X138767869Y-116424545D01*
X139017642Y-116591438D01*
X139295174Y-116706395D01*
X139589801Y-116765000D01*
X139890199Y-116765000D01*
X140184826Y-116706395D01*
X140462358Y-116591438D01*
X140712131Y-116424545D01*
X140924545Y-116212131D01*
X140946906Y-116178665D01*
X144065000Y-116178665D01*
X144065000Y-116461335D01*
X144120147Y-116738574D01*
X144228320Y-116999727D01*
X144385363Y-117234759D01*
X144585241Y-117434637D01*
X144820273Y-117591680D01*
X145081426Y-117699853D01*
X145358665Y-117755000D01*
X145641335Y-117755000D01*
X145918574Y-117699853D01*
X146179727Y-117591680D01*
X146414759Y-117434637D01*
X146614637Y-117234759D01*
X146771680Y-116999727D01*
X146879853Y-116738574D01*
X146935000Y-116461335D01*
X146935000Y-116178665D01*
X146879853Y-115901426D01*
X146771680Y-115640273D01*
X146614637Y-115405241D01*
X146414759Y-115205363D01*
X146179727Y-115048320D01*
X145918574Y-114940147D01*
X145641335Y-114885000D01*
X145358665Y-114885000D01*
X145081426Y-114940147D01*
X144820273Y-115048320D01*
X144585241Y-115205363D01*
X144385363Y-115405241D01*
X144228320Y-115640273D01*
X144120147Y-115901426D01*
X144065000Y-116178665D01*
X140946906Y-116178665D01*
X141091438Y-115962358D01*
X141206395Y-115684826D01*
X141265000Y-115390199D01*
X141265000Y-115089801D01*
X141206395Y-114795174D01*
X141091438Y-114517642D01*
X140924545Y-114267869D01*
X140712131Y-114055455D01*
X140462358Y-113888562D01*
X140184826Y-113773605D01*
X139890199Y-113715000D01*
X139589801Y-113715000D01*
X139295174Y-113773605D01*
X139017642Y-113888562D01*
X138767869Y-114055455D01*
X138555455Y-114267869D01*
X138415879Y-114476760D01*
X138314637Y-114325241D01*
X138114759Y-114125363D01*
X137879727Y-113968320D01*
X137618574Y-113860147D01*
X137341335Y-113805000D01*
X137058665Y-113805000D01*
X136781426Y-113860147D01*
X136520273Y-113968320D01*
X136285241Y-114125363D01*
X136085363Y-114325241D01*
X135928320Y-114560273D01*
X135923933Y-114570865D01*
X135812385Y-114384869D01*
X135623414Y-114176481D01*
X135397420Y-114008963D01*
X135143087Y-113888754D01*
X135009039Y-113848096D01*
X134787000Y-113970085D01*
X134533000Y-113970085D01*
X134310961Y-113848096D01*
X134176913Y-113888754D01*
X133922580Y-114008963D01*
X133696586Y-114176481D01*
X133507615Y-114384869D01*
X133396067Y-114570865D01*
X133391680Y-114560273D01*
X133234637Y-114325241D01*
X133034759Y-114125363D01*
X132799727Y-113968320D01*
X132538574Y-113860147D01*
X132261335Y-113805000D01*
X131978665Y-113805000D01*
X131701426Y-113860147D01*
X131440273Y-113968320D01*
X131205241Y-114125363D01*
X131005363Y-114325241D01*
X130850000Y-114557759D01*
X130694637Y-114325241D01*
X130494759Y-114125363D01*
X130259727Y-113968320D01*
X129998574Y-113860147D01*
X129721335Y-113805000D01*
X129438665Y-113805000D01*
X129256114Y-113841312D01*
X122103804Y-106689003D01*
X122080001Y-106659999D01*
X121964276Y-106565026D01*
X121832247Y-106494454D01*
X121688986Y-106450997D01*
X121577333Y-106440000D01*
X121577322Y-106440000D01*
X121540000Y-106436324D01*
X121502678Y-106440000D01*
X120189800Y-106440000D01*
X115020777Y-101270978D01*
X115254759Y-101114637D01*
X115454637Y-100914759D01*
X115610000Y-100682241D01*
X115765363Y-100914759D01*
X115965241Y-101114637D01*
X116200273Y-101271680D01*
X116461426Y-101379853D01*
X116738665Y-101435000D01*
X117021335Y-101435000D01*
X117298574Y-101379853D01*
X117559727Y-101271680D01*
X117794759Y-101114637D01*
X117994637Y-100914759D01*
X118150000Y-100682241D01*
X118305363Y-100914759D01*
X118505241Y-101114637D01*
X118740273Y-101271680D01*
X119001426Y-101379853D01*
X119278665Y-101435000D01*
X119561335Y-101435000D01*
X119838574Y-101379853D01*
X120099727Y-101271680D01*
X120334759Y-101114637D01*
X120534637Y-100914759D01*
X120690000Y-100682241D01*
X120845363Y-100914759D01*
X121045241Y-101114637D01*
X121280273Y-101271680D01*
X121541426Y-101379853D01*
X121818665Y-101435000D01*
X122101335Y-101435000D01*
X122378574Y-101379853D01*
X122639727Y-101271680D01*
X122874759Y-101114637D01*
X123074637Y-100914759D01*
X123230000Y-100682241D01*
X123385363Y-100914759D01*
X123585241Y-101114637D01*
X123820273Y-101271680D01*
X124081426Y-101379853D01*
X124358665Y-101435000D01*
X124641335Y-101435000D01*
X124918574Y-101379853D01*
X125179727Y-101271680D01*
X125414759Y-101114637D01*
X125614637Y-100914759D01*
X125770000Y-100682241D01*
X125925363Y-100914759D01*
X126125241Y-101114637D01*
X126360273Y-101271680D01*
X126621426Y-101379853D01*
X126898665Y-101435000D01*
X127181335Y-101435000D01*
X127458574Y-101379853D01*
X127719727Y-101271680D01*
X127954759Y-101114637D01*
X128154637Y-100914759D01*
X128311680Y-100679727D01*
X128316067Y-100669135D01*
X128427615Y-100855131D01*
X128616586Y-101063519D01*
X128842580Y-101231037D01*
X129096913Y-101351246D01*
X129230961Y-101391904D01*
X129453000Y-101269915D01*
X129453000Y-100127000D01*
X129433000Y-100127000D01*
X129433000Y-99873000D01*
X129453000Y-99873000D01*
X129453000Y-99853000D01*
X129707000Y-99853000D01*
X129707000Y-99873000D01*
X129727000Y-99873000D01*
X129727000Y-100127000D01*
X129707000Y-100127000D01*
X129707000Y-101269915D01*
X129929039Y-101391904D01*
X130063087Y-101351246D01*
X130317420Y-101231037D01*
X130543414Y-101063519D01*
X130732385Y-100855131D01*
X130843933Y-100669135D01*
X130848320Y-100679727D01*
X131005363Y-100914759D01*
X131205241Y-101114637D01*
X131440273Y-101271680D01*
X131701426Y-101379853D01*
X131978665Y-101435000D01*
X132261335Y-101435000D01*
X132538574Y-101379853D01*
X132799727Y-101271680D01*
X133034759Y-101114637D01*
X133234637Y-100914759D01*
X133390000Y-100682241D01*
X133545363Y-100914759D01*
X133745241Y-101114637D01*
X133980273Y-101271680D01*
X134241426Y-101379853D01*
X134518665Y-101435000D01*
X134801335Y-101435000D01*
X135078574Y-101379853D01*
X135339727Y-101271680D01*
X135574759Y-101114637D01*
X135773357Y-100916039D01*
X135774188Y-100924482D01*
X135810498Y-101044180D01*
X135869463Y-101154494D01*
X135948815Y-101251185D01*
X136045506Y-101330537D01*
X136155820Y-101389502D01*
X136275518Y-101425812D01*
X136400000Y-101438072D01*
X138000000Y-101438072D01*
X138124482Y-101425812D01*
X138244180Y-101389502D01*
X138354494Y-101330537D01*
X138451185Y-101251185D01*
X138530537Y-101154494D01*
X138589502Y-101044180D01*
X138598347Y-101015023D01*
X138767869Y-101184545D01*
X139017642Y-101351438D01*
X139295174Y-101466395D01*
X139589801Y-101525000D01*
X139890199Y-101525000D01*
X140184826Y-101466395D01*
X140462358Y-101351438D01*
X140712131Y-101184545D01*
X140740000Y-101156676D01*
X140740001Y-106412668D01*
X140736324Y-106450000D01*
X140750998Y-106598985D01*
X140794454Y-106742246D01*
X140865026Y-106874276D01*
X140936201Y-106961002D01*
X140960000Y-106990001D01*
X140988998Y-107013799D01*
X143186201Y-109211003D01*
X143209999Y-109240001D01*
X143238997Y-109263799D01*
X143325724Y-109334974D01*
X143457753Y-109405546D01*
X143601014Y-109449003D01*
X143750000Y-109463677D01*
X143787333Y-109460000D01*
X144061928Y-109460000D01*
X144061928Y-109500000D01*
X144074188Y-109624482D01*
X144110498Y-109744180D01*
X144169463Y-109854494D01*
X144248815Y-109951185D01*
X144345506Y-110030537D01*
X144455820Y-110089502D01*
X144575518Y-110125812D01*
X144700000Y-110138072D01*
X146300000Y-110138072D01*
X146424482Y-110125812D01*
X146544180Y-110089502D01*
X146654494Y-110030537D01*
X146751185Y-109951185D01*
X146830537Y-109854494D01*
X146889502Y-109744180D01*
X146925812Y-109624482D01*
X146938072Y-109500000D01*
X146938072Y-107900000D01*
X146925812Y-107775518D01*
X146889502Y-107655820D01*
X146830537Y-107545506D01*
X146751185Y-107448815D01*
X146654494Y-107369463D01*
X146544180Y-107310498D01*
X146424482Y-107274188D01*
X146300000Y-107261928D01*
X144700000Y-107261928D01*
X144575518Y-107274188D01*
X144455820Y-107310498D01*
X144345506Y-107369463D01*
X144248815Y-107448815D01*
X144169463Y-107545506D01*
X144110498Y-107655820D01*
X144074188Y-107775518D01*
X144061928Y-107900000D01*
X144061928Y-107937126D01*
X142260000Y-106135199D01*
X142260000Y-99200000D01*
X143361928Y-99200000D01*
X143365000Y-99664250D01*
X143523750Y-99823000D01*
X144623000Y-99823000D01*
X144623000Y-98723750D01*
X144877000Y-98723750D01*
X144877000Y-99823000D01*
X145976250Y-99823000D01*
X146135000Y-99664250D01*
X146138072Y-99200000D01*
X146125812Y-99075518D01*
X146089502Y-98955820D01*
X146030537Y-98845506D01*
X145951185Y-98748815D01*
X145854494Y-98669463D01*
X145744180Y-98610498D01*
X145624482Y-98574188D01*
X145500000Y-98561928D01*
X145035750Y-98565000D01*
X144877000Y-98723750D01*
X144623000Y-98723750D01*
X144464250Y-98565000D01*
X144000000Y-98561928D01*
X143875518Y-98574188D01*
X143755820Y-98610498D01*
X143645506Y-98669463D01*
X143548815Y-98748815D01*
X143469463Y-98845506D01*
X143410498Y-98955820D01*
X143374188Y-99075518D01*
X143361928Y-99200000D01*
X142260000Y-99200000D01*
X142260000Y-98987333D01*
X142263677Y-98950000D01*
X142249003Y-98801014D01*
X142205546Y-98657753D01*
X142134974Y-98525724D01*
X142063799Y-98438997D01*
X142040001Y-98409999D01*
X142011004Y-98386202D01*
X141063804Y-97439002D01*
X141040001Y-97409999D01*
X140924276Y-97315026D01*
X140792247Y-97244454D01*
X140648986Y-97200997D01*
X140537333Y-97190000D01*
X140537322Y-97190000D01*
X140500000Y-97186324D01*
X140462678Y-97190000D01*
X137235286Y-97190000D01*
X137241514Y-97186671D01*
X137313097Y-96942702D01*
X136500000Y-96129605D01*
X135686903Y-96942702D01*
X135758486Y-97186671D01*
X135765522Y-97190000D01*
X134227140Y-97190000D01*
X134414759Y-97064637D01*
X134614637Y-96864759D01*
X134771680Y-96629727D01*
X134879853Y-96368574D01*
X134935000Y-96091335D01*
X134935000Y-96020512D01*
X135059783Y-96020512D01*
X135101213Y-96300130D01*
X135196397Y-96566292D01*
X135263329Y-96691514D01*
X135507298Y-96763097D01*
X136320395Y-95950000D01*
X136679605Y-95950000D01*
X137492702Y-96763097D01*
X137736671Y-96691514D01*
X137857571Y-96436004D01*
X137926300Y-96161816D01*
X137940217Y-95879488D01*
X137929724Y-95808665D01*
X147245000Y-95808665D01*
X147245000Y-96091335D01*
X147300147Y-96368574D01*
X147408320Y-96629727D01*
X147565363Y-96864759D01*
X147765241Y-97064637D01*
X148000273Y-97221680D01*
X148261426Y-97329853D01*
X148538665Y-97385000D01*
X148821335Y-97385000D01*
X149098574Y-97329853D01*
X149359727Y-97221680D01*
X149594759Y-97064637D01*
X149794637Y-96864759D01*
X149951680Y-96629727D01*
X150059853Y-96368574D01*
X150115000Y-96091335D01*
X150115000Y-95808665D01*
X150059853Y-95531426D01*
X149951680Y-95270273D01*
X149794637Y-95035241D01*
X149594759Y-94835363D01*
X149359727Y-94678320D01*
X149098574Y-94570147D01*
X148821335Y-94515000D01*
X148538665Y-94515000D01*
X148261426Y-94570147D01*
X148000273Y-94678320D01*
X147765241Y-94835363D01*
X147565363Y-95035241D01*
X147408320Y-95270273D01*
X147300147Y-95531426D01*
X147245000Y-95808665D01*
X137929724Y-95808665D01*
X137898787Y-95599870D01*
X137803603Y-95333708D01*
X137736671Y-95208486D01*
X137492702Y-95136903D01*
X136679605Y-95950000D01*
X136320395Y-95950000D01*
X135507298Y-95136903D01*
X135263329Y-95208486D01*
X135142429Y-95463996D01*
X135073700Y-95738184D01*
X135059783Y-96020512D01*
X134935000Y-96020512D01*
X134935000Y-95808665D01*
X134879853Y-95531426D01*
X134771680Y-95270273D01*
X134614637Y-95035241D01*
X134536694Y-94957298D01*
X135686903Y-94957298D01*
X136500000Y-95770395D01*
X137313097Y-94957298D01*
X137241514Y-94713329D01*
X136986004Y-94592429D01*
X136711816Y-94523700D01*
X136429488Y-94509783D01*
X136149870Y-94551213D01*
X135883708Y-94646397D01*
X135758486Y-94713329D01*
X135686903Y-94957298D01*
X134536694Y-94957298D01*
X134414759Y-94835363D01*
X134179727Y-94678320D01*
X133918574Y-94570147D01*
X133641335Y-94515000D01*
X133358665Y-94515000D01*
X133081426Y-94570147D01*
X132820273Y-94678320D01*
X132585241Y-94835363D01*
X132385363Y-95035241D01*
X132228320Y-95270273D01*
X132120147Y-95531426D01*
X132065000Y-95808665D01*
X132065000Y-96091335D01*
X132120147Y-96368574D01*
X132228320Y-96629727D01*
X132385363Y-96864759D01*
X132585241Y-97064637D01*
X132772860Y-97190000D01*
X123634802Y-97190000D01*
X122718688Y-96273886D01*
X122755000Y-96091335D01*
X122755000Y-95808665D01*
X122699853Y-95531426D01*
X122591680Y-95270273D01*
X122434637Y-95035241D01*
X122234759Y-94835363D01*
X121999727Y-94678320D01*
X121738574Y-94570147D01*
X121461335Y-94515000D01*
X121178665Y-94515000D01*
X120901426Y-94570147D01*
X120640273Y-94678320D01*
X120405241Y-94835363D01*
X120205363Y-95035241D01*
X120048320Y-95270273D01*
X119940147Y-95531426D01*
X119885000Y-95808665D01*
X119885000Y-96091335D01*
X119940147Y-96368574D01*
X120048320Y-96629727D01*
X120205363Y-96864759D01*
X120405241Y-97064637D01*
X120640273Y-97221680D01*
X120901426Y-97329853D01*
X121178665Y-97385000D01*
X121461335Y-97385000D01*
X121643886Y-97348688D01*
X122756200Y-98461002D01*
X122779999Y-98490001D01*
X122808997Y-98513799D01*
X122895723Y-98584974D01*
X122943475Y-98610498D01*
X123027753Y-98655546D01*
X123171014Y-98699003D01*
X123282667Y-98710000D01*
X123282676Y-98710000D01*
X123319999Y-98713676D01*
X123357322Y-98710000D01*
X123864501Y-98710000D01*
X123820273Y-98728320D01*
X123585241Y-98885363D01*
X123385363Y-99085241D01*
X123230000Y-99317759D01*
X123074637Y-99085241D01*
X122874759Y-98885363D01*
X122639727Y-98728320D01*
X122378574Y-98620147D01*
X122101335Y-98565000D01*
X121818665Y-98565000D01*
X121541426Y-98620147D01*
X121280273Y-98728320D01*
X121045241Y-98885363D01*
X120845363Y-99085241D01*
X120690000Y-99317759D01*
X120534637Y-99085241D01*
X120334759Y-98885363D01*
X120099727Y-98728320D01*
X119838574Y-98620147D01*
X119561335Y-98565000D01*
X119278665Y-98565000D01*
X119001426Y-98620147D01*
X118740273Y-98728320D01*
X118505241Y-98885363D01*
X118305363Y-99085241D01*
X118150000Y-99317759D01*
X117994637Y-99085241D01*
X117794759Y-98885363D01*
X117559727Y-98728320D01*
X117298574Y-98620147D01*
X117021335Y-98565000D01*
X116738665Y-98565000D01*
X116461426Y-98620147D01*
X116200273Y-98728320D01*
X115965241Y-98885363D01*
X115765363Y-99085241D01*
X115610000Y-99317759D01*
X115454637Y-99085241D01*
X115254759Y-98885363D01*
X115019727Y-98728320D01*
X114758574Y-98620147D01*
X114481335Y-98565000D01*
X114198665Y-98565000D01*
X113921426Y-98620147D01*
X113685001Y-98718077D01*
X113685001Y-96948564D01*
X113688677Y-96911241D01*
X113685001Y-96873918D01*
X113685001Y-96873908D01*
X113674004Y-96762255D01*
X113630547Y-96618994D01*
X113602377Y-96566292D01*
X113559975Y-96486964D01*
X113488800Y-96400238D01*
X113465002Y-96371240D01*
X113436004Y-96347442D01*
X110368434Y-93279872D01*
X115765000Y-93279872D01*
X115765000Y-93720128D01*
X115850890Y-94151925D01*
X116019369Y-94558669D01*
X116263962Y-94924729D01*
X116575271Y-95236038D01*
X116941331Y-95480631D01*
X117348075Y-95649110D01*
X117779872Y-95735000D01*
X118220128Y-95735000D01*
X118651925Y-95649110D01*
X119058669Y-95480631D01*
X119424729Y-95236038D01*
X119736038Y-94924729D01*
X119980631Y-94558669D01*
X120149110Y-94151925D01*
X120235000Y-93720128D01*
X120235000Y-93279872D01*
X151765000Y-93279872D01*
X151765000Y-93720128D01*
X151850890Y-94151925D01*
X152019369Y-94558669D01*
X152263962Y-94924729D01*
X152575271Y-95236038D01*
X152941331Y-95480631D01*
X153348075Y-95649110D01*
X153779872Y-95735000D01*
X154220128Y-95735000D01*
X154651925Y-95649110D01*
X155058669Y-95480631D01*
X155424729Y-95236038D01*
X155736038Y-94924729D01*
X155980631Y-94558669D01*
X156149110Y-94151925D01*
X156235000Y-93720128D01*
X156235000Y-93279872D01*
X156149110Y-92848075D01*
X155980631Y-92441331D01*
X155736038Y-92075271D01*
X155424729Y-91763962D01*
X155058669Y-91519369D01*
X154651925Y-91350890D01*
X154220128Y-91265000D01*
X153779872Y-91265000D01*
X153348075Y-91350890D01*
X152941331Y-91519369D01*
X152575271Y-91763962D01*
X152263962Y-92075271D01*
X152019369Y-92441331D01*
X151850890Y-92848075D01*
X151765000Y-93279872D01*
X120235000Y-93279872D01*
X120149110Y-92848075D01*
X119980631Y-92441331D01*
X119736038Y-92075271D01*
X119424729Y-91763962D01*
X119058669Y-91519369D01*
X118651925Y-91350890D01*
X118220128Y-91265000D01*
X117779872Y-91265000D01*
X117348075Y-91350890D01*
X116941331Y-91519369D01*
X116575271Y-91763962D01*
X116263962Y-92075271D01*
X116019369Y-92441331D01*
X115850890Y-92848075D01*
X115765000Y-93279872D01*
X110368434Y-93279872D01*
X109571401Y-92482840D01*
X109978827Y-92482840D01*
X110329213Y-92448330D01*
X110778799Y-92311950D01*
X111193140Y-92090480D01*
X111556312Y-91792432D01*
X111854360Y-91429260D01*
X112075830Y-91014919D01*
X112138396Y-90808665D01*
X119815000Y-90808665D01*
X119815000Y-91091335D01*
X119870147Y-91368574D01*
X119978320Y-91629727D01*
X120135363Y-91864759D01*
X120335241Y-92064637D01*
X120570273Y-92221680D01*
X120831426Y-92329853D01*
X121108665Y-92385000D01*
X121391335Y-92385000D01*
X121668574Y-92329853D01*
X121929727Y-92221680D01*
X122164759Y-92064637D01*
X122364637Y-91864759D01*
X122521680Y-91629727D01*
X122629853Y-91368574D01*
X122685000Y-91091335D01*
X122685000Y-90808665D01*
X131995000Y-90808665D01*
X131995000Y-91091335D01*
X132050147Y-91368574D01*
X132158320Y-91629727D01*
X132315363Y-91864759D01*
X132515241Y-92064637D01*
X132750273Y-92221680D01*
X133011426Y-92329853D01*
X133288665Y-92385000D01*
X133571335Y-92385000D01*
X133848574Y-92329853D01*
X134109727Y-92221680D01*
X134344759Y-92064637D01*
X134544637Y-91864759D01*
X134701680Y-91629727D01*
X134809853Y-91368574D01*
X134865000Y-91091335D01*
X134865000Y-90808665D01*
X135065000Y-90808665D01*
X135065000Y-91091335D01*
X135120147Y-91368574D01*
X135228320Y-91629727D01*
X135385363Y-91864759D01*
X135585241Y-92064637D01*
X135820273Y-92221680D01*
X136081426Y-92329853D01*
X136358665Y-92385000D01*
X136641335Y-92385000D01*
X136918574Y-92329853D01*
X137179727Y-92221680D01*
X137414759Y-92064637D01*
X137614637Y-91864759D01*
X137771680Y-91629727D01*
X137879853Y-91368574D01*
X137893684Y-91299039D01*
X147288096Y-91299039D01*
X147328754Y-91433087D01*
X147448963Y-91687420D01*
X147616481Y-91913414D01*
X147824869Y-92102385D01*
X148066119Y-92247070D01*
X148330960Y-92341909D01*
X148553000Y-92220624D01*
X148553000Y-91077000D01*
X148807000Y-91077000D01*
X148807000Y-92220624D01*
X149029040Y-92341909D01*
X149293881Y-92247070D01*
X149535131Y-92102385D01*
X149743519Y-91913414D01*
X149911037Y-91687420D01*
X150031246Y-91433087D01*
X150071904Y-91299039D01*
X149949915Y-91077000D01*
X148807000Y-91077000D01*
X148553000Y-91077000D01*
X147410085Y-91077000D01*
X147288096Y-91299039D01*
X137893684Y-91299039D01*
X137935000Y-91091335D01*
X137935000Y-90808665D01*
X137893685Y-90600961D01*
X147288096Y-90600961D01*
X147410085Y-90823000D01*
X148553000Y-90823000D01*
X148553000Y-89679376D01*
X148807000Y-89679376D01*
X148807000Y-90823000D01*
X149949915Y-90823000D01*
X150071904Y-90600961D01*
X150031246Y-90466913D01*
X149911037Y-90212580D01*
X149743519Y-89986586D01*
X149535131Y-89797615D01*
X149293881Y-89652930D01*
X149029040Y-89558091D01*
X148807000Y-89679376D01*
X148553000Y-89679376D01*
X148330960Y-89558091D01*
X148066119Y-89652930D01*
X147824869Y-89797615D01*
X147616481Y-89986586D01*
X147448963Y-90212580D01*
X147328754Y-90466913D01*
X147288096Y-90600961D01*
X137893685Y-90600961D01*
X137879853Y-90531426D01*
X137771680Y-90270273D01*
X137614637Y-90035241D01*
X137414759Y-89835363D01*
X137179727Y-89678320D01*
X136918574Y-89570147D01*
X136641335Y-89515000D01*
X136358665Y-89515000D01*
X136081426Y-89570147D01*
X135820273Y-89678320D01*
X135585241Y-89835363D01*
X135385363Y-90035241D01*
X135228320Y-90270273D01*
X135120147Y-90531426D01*
X135065000Y-90808665D01*
X134865000Y-90808665D01*
X134809853Y-90531426D01*
X134701680Y-90270273D01*
X134544637Y-90035241D01*
X134344759Y-89835363D01*
X134109727Y-89678320D01*
X133848574Y-89570147D01*
X133571335Y-89515000D01*
X133288665Y-89515000D01*
X133011426Y-89570147D01*
X132750273Y-89678320D01*
X132515241Y-89835363D01*
X132315363Y-90035241D01*
X132158320Y-90270273D01*
X132050147Y-90531426D01*
X131995000Y-90808665D01*
X122685000Y-90808665D01*
X122629853Y-90531426D01*
X122521680Y-90270273D01*
X122364637Y-90035241D01*
X122164759Y-89835363D01*
X121929727Y-89678320D01*
X121668574Y-89570147D01*
X121391335Y-89515000D01*
X121108665Y-89515000D01*
X120831426Y-89570147D01*
X120570273Y-89678320D01*
X120335241Y-89835363D01*
X120135363Y-90035241D01*
X119978320Y-90270273D01*
X119870147Y-90531426D01*
X119815000Y-90808665D01*
X112138396Y-90808665D01*
X112212210Y-90565333D01*
X112258260Y-90097780D01*
X112212210Y-89630227D01*
X112075830Y-89180641D01*
X111944243Y-88934460D01*
X112896335Y-88934460D01*
X113107169Y-88913695D01*
X113377686Y-88831634D01*
X113626996Y-88698375D01*
X113845518Y-88519038D01*
X114024855Y-88300516D01*
X114158114Y-88051206D01*
X114240175Y-87780689D01*
X114243567Y-87746240D01*
X153633365Y-87746240D01*
X153714025Y-87997868D01*
X153982329Y-88126267D01*
X154270526Y-88199855D01*
X154567543Y-88215804D01*
X154861963Y-88173501D01*
X155142474Y-88074572D01*
X155285975Y-87997868D01*
X155366635Y-87746240D01*
X154500000Y-86879605D01*
X153633365Y-87746240D01*
X114243567Y-87746240D01*
X114267883Y-87499360D01*
X114240175Y-87218031D01*
X114158114Y-86947514D01*
X114061918Y-86767543D01*
X152984196Y-86767543D01*
X153026499Y-87061963D01*
X153125428Y-87342474D01*
X153202132Y-87485975D01*
X153453760Y-87566635D01*
X154320395Y-86700000D01*
X154679605Y-86700000D01*
X155546240Y-87566635D01*
X155797868Y-87485975D01*
X155926267Y-87217671D01*
X155999855Y-86929474D01*
X156015804Y-86632457D01*
X155973501Y-86338037D01*
X155874572Y-86057526D01*
X155797868Y-85914025D01*
X155546240Y-85833365D01*
X154679605Y-86700000D01*
X154320395Y-86700000D01*
X153453760Y-85833365D01*
X153202132Y-85914025D01*
X153073733Y-86182329D01*
X153000145Y-86470526D01*
X152984196Y-86767543D01*
X114061918Y-86767543D01*
X114024855Y-86698204D01*
X113845518Y-86479682D01*
X113626996Y-86300345D01*
X113532208Y-86249680D01*
X113626996Y-86199015D01*
X113845518Y-86019678D01*
X114024855Y-85801156D01*
X114158114Y-85551846D01*
X114240175Y-85281329D01*
X114267883Y-85000000D01*
X114240175Y-84718671D01*
X114158114Y-84448154D01*
X114024855Y-84198844D01*
X113845518Y-83980322D01*
X113626996Y-83800985D01*
X113377686Y-83667726D01*
X113107169Y-83585665D01*
X112896335Y-83564900D01*
X111856185Y-83564900D01*
X111645351Y-83585665D01*
X111374834Y-83667726D01*
X111125524Y-83800985D01*
X110907002Y-83980322D01*
X110727665Y-84198844D01*
X110594406Y-84448154D01*
X110512345Y-84718671D01*
X110484637Y-85000000D01*
X110504219Y-85198822D01*
X110414653Y-85190000D01*
X110414642Y-85190000D01*
X110377320Y-85186324D01*
X110339998Y-85190000D01*
X108871600Y-85190000D01*
X108871600Y-82284740D01*
X109978827Y-82284740D01*
X110329213Y-82250230D01*
X110778799Y-82113850D01*
X111193140Y-81892380D01*
X111556312Y-81594332D01*
X111854360Y-81231160D01*
X112071457Y-80825000D01*
X152986928Y-80825000D01*
X152986928Y-82575000D01*
X152999188Y-82699482D01*
X153035498Y-82819180D01*
X153094463Y-82929494D01*
X153173815Y-83026185D01*
X153270506Y-83105537D01*
X153380820Y-83164502D01*
X153395564Y-83168974D01*
X153327107Y-83237431D01*
X153161856Y-83484747D01*
X153048029Y-83759549D01*
X152990000Y-84051278D01*
X152990000Y-84348722D01*
X153048029Y-84640451D01*
X153161856Y-84915253D01*
X153327107Y-85162569D01*
X153537431Y-85372893D01*
X153690593Y-85475232D01*
X153633365Y-85653760D01*
X154500000Y-86520395D01*
X155366635Y-85653760D01*
X155309407Y-85475232D01*
X155462569Y-85372893D01*
X155672893Y-85162569D01*
X155838144Y-84915253D01*
X155951971Y-84640451D01*
X156010000Y-84348722D01*
X156010000Y-84051278D01*
X155951971Y-83759549D01*
X155838144Y-83484747D01*
X155672893Y-83237431D01*
X155604436Y-83168974D01*
X155619180Y-83164502D01*
X155729494Y-83105537D01*
X155826185Y-83026185D01*
X155905537Y-82929494D01*
X155964502Y-82819180D01*
X156000812Y-82699482D01*
X156013072Y-82575000D01*
X156013072Y-80825000D01*
X156000812Y-80700518D01*
X155964502Y-80580820D01*
X155905537Y-80470506D01*
X155826185Y-80373815D01*
X155729494Y-80294463D01*
X155619180Y-80235498D01*
X155499482Y-80199188D01*
X155375000Y-80186928D01*
X153625000Y-80186928D01*
X153500518Y-80199188D01*
X153380820Y-80235498D01*
X153270506Y-80294463D01*
X153173815Y-80373815D01*
X153094463Y-80470506D01*
X153035498Y-80580820D01*
X152999188Y-80700518D01*
X152986928Y-80825000D01*
X112071457Y-80825000D01*
X112075830Y-80816819D01*
X112212210Y-80367233D01*
X112258260Y-79899680D01*
X112212210Y-79432127D01*
X112075830Y-78982541D01*
X111854360Y-78568200D01*
X111556312Y-78205028D01*
X111193140Y-77906980D01*
X110778799Y-77685510D01*
X110329213Y-77549130D01*
X109978827Y-77514620D01*
X106244373Y-77514620D01*
X105893987Y-77549130D01*
X105444401Y-77685510D01*
X105030060Y-77906980D01*
X104666888Y-78205028D01*
X104368840Y-78568200D01*
X104147370Y-78982541D01*
X104010990Y-79432127D01*
X103964940Y-79899680D01*
X104010990Y-80367233D01*
X104147370Y-80816819D01*
X104368840Y-81231160D01*
X104666888Y-81594332D01*
X105030060Y-81892380D01*
X105444401Y-82113850D01*
X105893987Y-82250230D01*
X106244373Y-82284740D01*
X107351600Y-82284740D01*
X107351601Y-85912657D01*
X107347923Y-85950000D01*
X107351600Y-85987333D01*
X107351600Y-87712720D01*
X106244373Y-87712720D01*
X105893987Y-87747230D01*
X105444401Y-87883610D01*
X105030060Y-88105080D01*
X104666888Y-88403128D01*
X104368840Y-88766300D01*
X104147370Y-89180641D01*
X104010990Y-89630227D01*
X103964940Y-90097780D01*
X104010990Y-90565333D01*
X104147370Y-91014919D01*
X104368840Y-91429260D01*
X104666888Y-91792432D01*
X105030060Y-92090480D01*
X105444401Y-92311950D01*
X105893987Y-92448330D01*
X106244373Y-92482840D01*
X107455632Y-92482840D01*
X107476626Y-92522116D01*
X107516471Y-92570666D01*
X107571599Y-92637841D01*
X107600603Y-92661644D01*
X112165002Y-97226044D01*
X112165001Y-98609491D01*
X111941335Y-98565000D01*
X111658665Y-98565000D01*
X111381426Y-98620147D01*
X111120273Y-98728320D01*
X110885241Y-98885363D01*
X110685363Y-99085241D01*
X110530000Y-99317759D01*
X110374637Y-99085241D01*
X110174759Y-98885363D01*
X109939727Y-98728320D01*
X109678574Y-98620147D01*
X109401335Y-98565000D01*
X109118665Y-98565000D01*
X108841426Y-98620147D01*
X108580273Y-98728320D01*
X108345241Y-98885363D01*
X108145363Y-99085241D01*
X107990000Y-99317759D01*
X107834637Y-99085241D01*
X107634759Y-98885363D01*
X107399727Y-98728320D01*
X107138574Y-98620147D01*
X106861335Y-98565000D01*
X106578665Y-98565000D01*
X106301426Y-98620147D01*
X106040273Y-98728320D01*
X105805241Y-98885363D01*
X105605363Y-99085241D01*
X105450000Y-99317759D01*
X105294637Y-99085241D01*
X105094759Y-98885363D01*
X104859727Y-98728320D01*
X104598574Y-98620147D01*
X104321335Y-98565000D01*
X104038665Y-98565000D01*
X103761426Y-98620147D01*
X103500273Y-98728320D01*
X103265241Y-98885363D01*
X103065363Y-99085241D01*
X102910000Y-99317759D01*
X102754637Y-99085241D01*
X102554759Y-98885363D01*
X102319727Y-98728320D01*
X102058574Y-98620147D01*
X101781335Y-98565000D01*
X101498665Y-98565000D01*
X101221426Y-98620147D01*
X100960273Y-98728320D01*
X100735000Y-98878842D01*
X100735000Y-74150000D01*
X145111928Y-74150000D01*
X145124188Y-74274482D01*
X145160498Y-74394180D01*
X145219463Y-74504494D01*
X145298815Y-74601185D01*
X145395506Y-74680537D01*
X145505820Y-74739502D01*
X145625518Y-74775812D01*
X145750000Y-74788072D01*
X147214250Y-74785000D01*
X147373000Y-74626250D01*
X147373000Y-72527000D01*
X147627000Y-72527000D01*
X147627000Y-74626250D01*
X147785750Y-74785000D01*
X149250000Y-74788072D01*
X149374482Y-74775812D01*
X149494180Y-74739502D01*
X149604494Y-74680537D01*
X149701185Y-74601185D01*
X149780537Y-74504494D01*
X149839502Y-74394180D01*
X149875812Y-74274482D01*
X149888072Y-74150000D01*
X149887128Y-73700000D01*
X150111928Y-73700000D01*
X150111928Y-77200000D01*
X150124188Y-77324482D01*
X150160498Y-77444180D01*
X150219463Y-77554494D01*
X150298815Y-77651185D01*
X150395506Y-77730537D01*
X150505820Y-77789502D01*
X150625518Y-77825812D01*
X150750000Y-77838072D01*
X154250000Y-77838072D01*
X154374482Y-77825812D01*
X154494180Y-77789502D01*
X154604494Y-77730537D01*
X154701185Y-77651185D01*
X154780537Y-77554494D01*
X154839502Y-77444180D01*
X154875812Y-77324482D01*
X154888072Y-77200000D01*
X154888072Y-73700000D01*
X154875812Y-73575518D01*
X154839502Y-73455820D01*
X154780537Y-73345506D01*
X154701185Y-73248815D01*
X154604494Y-73169463D01*
X154494180Y-73110498D01*
X154374482Y-73074188D01*
X154250000Y-73061928D01*
X150750000Y-73061928D01*
X150625518Y-73074188D01*
X150505820Y-73110498D01*
X150395506Y-73169463D01*
X150298815Y-73248815D01*
X150219463Y-73345506D01*
X150160498Y-73455820D01*
X150124188Y-73575518D01*
X150111928Y-73700000D01*
X149887128Y-73700000D01*
X149885000Y-72685750D01*
X149726250Y-72527000D01*
X147627000Y-72527000D01*
X147373000Y-72527000D01*
X145273750Y-72527000D01*
X145115000Y-72685750D01*
X145111928Y-74150000D01*
X100735000Y-74150000D01*
X100735000Y-70650000D01*
X145111928Y-70650000D01*
X145115000Y-72114250D01*
X145273750Y-72273000D01*
X147373000Y-72273000D01*
X147373000Y-70173750D01*
X147627000Y-70173750D01*
X147627000Y-72273000D01*
X149726250Y-72273000D01*
X149885000Y-72114250D01*
X149888072Y-70650000D01*
X149875812Y-70525518D01*
X149839502Y-70405820D01*
X149809666Y-70350000D01*
X150111928Y-70350000D01*
X150124188Y-70474482D01*
X150160498Y-70594180D01*
X150219463Y-70704494D01*
X150298815Y-70801185D01*
X150395506Y-70880537D01*
X150505820Y-70939502D01*
X150625518Y-70975812D01*
X150750000Y-70988072D01*
X152214250Y-70985000D01*
X152373000Y-70826250D01*
X152373000Y-68977000D01*
X152627000Y-68977000D01*
X152627000Y-70826250D01*
X152785750Y-70985000D01*
X154250000Y-70988072D01*
X154374482Y-70975812D01*
X154494180Y-70939502D01*
X154604494Y-70880537D01*
X154701185Y-70801185D01*
X154780537Y-70704494D01*
X154839502Y-70594180D01*
X154875812Y-70474482D01*
X154888072Y-70350000D01*
X154885000Y-69135750D01*
X154726250Y-68977000D01*
X152627000Y-68977000D01*
X152373000Y-68977000D01*
X150273750Y-68977000D01*
X150115000Y-69135750D01*
X150111928Y-70350000D01*
X149809666Y-70350000D01*
X149780537Y-70295506D01*
X149701185Y-70198815D01*
X149604494Y-70119463D01*
X149494180Y-70060498D01*
X149374482Y-70024188D01*
X149250000Y-70011928D01*
X147785750Y-70015000D01*
X147627000Y-70173750D01*
X147373000Y-70173750D01*
X147214250Y-70015000D01*
X145750000Y-70011928D01*
X145625518Y-70024188D01*
X145505820Y-70060498D01*
X145395506Y-70119463D01*
X145298815Y-70198815D01*
X145219463Y-70295506D01*
X145160498Y-70405820D01*
X145124188Y-70525518D01*
X145111928Y-70650000D01*
X100735000Y-70650000D01*
X100735000Y-68763931D01*
X101118628Y-68687623D01*
X101816554Y-68398533D01*
X102444670Y-67978839D01*
X102978839Y-67444670D01*
X103398533Y-66816554D01*
X103687623Y-66118628D01*
X103763931Y-65735000D01*
X150743427Y-65735000D01*
X150829534Y-65942882D01*
G37*
X150829534Y-65942882D02*
X151035825Y-66251618D01*
X151298382Y-66514175D01*
X151596999Y-66713705D01*
X150750000Y-66711928D01*
X150625518Y-66724188D01*
X150505820Y-66760498D01*
X150395506Y-66819463D01*
X150298815Y-66898815D01*
X150219463Y-66995506D01*
X150160498Y-67105820D01*
X150124188Y-67225518D01*
X150111928Y-67350000D01*
X150115000Y-68564250D01*
X150273750Y-68723000D01*
X152373000Y-68723000D01*
X152373000Y-68703000D01*
X152627000Y-68703000D01*
X152627000Y-68723000D01*
X154726250Y-68723000D01*
X154885000Y-68564250D01*
X154888072Y-67350000D01*
X154875812Y-67225518D01*
X154839502Y-67105820D01*
X154780537Y-66995506D01*
X154701185Y-66898815D01*
X154604494Y-66819463D01*
X154494180Y-66760498D01*
X154374482Y-66724188D01*
X154250000Y-66711928D01*
X153403001Y-66713705D01*
X153701618Y-66514175D01*
X153964175Y-66251618D01*
X154170466Y-65942882D01*
X154256573Y-65735000D01*
X156765000Y-65735000D01*
X156765001Y-127859869D01*
X153605433Y-124700302D01*
X153779872Y-124735000D01*
X154220128Y-124735000D01*
X154651925Y-124649110D01*
X155058669Y-124480631D01*
X155424729Y-124236038D01*
X155736038Y-123924729D01*
X155980631Y-123558669D01*
X156149110Y-123151925D01*
X156235000Y-122720128D01*
X156235000Y-122279872D01*
X156149110Y-121848075D01*
X155980631Y-121441331D01*
X155736038Y-121075271D01*
X155424729Y-120763962D01*
X155058669Y-120519369D01*
X154651925Y-120350890D01*
X154220128Y-120265000D01*
X153779872Y-120265000D01*
X153348075Y-120350890D01*
X152941331Y-120519369D01*
X152575271Y-120763962D01*
X152263962Y-121075271D01*
X152019369Y-121441331D01*
X151850890Y-121848075D01*
X151765000Y-122279872D01*
X151765000Y-122720128D01*
X151799698Y-122894567D01*
X151635000Y-122729869D01*
X151635000Y-117659088D01*
X151685506Y-117700537D01*
X151795820Y-117759502D01*
X151915518Y-117795812D01*
X152040000Y-117808072D01*
X154640000Y-117808072D01*
X154764482Y-117795812D01*
X154884180Y-117759502D01*
X154994494Y-117700537D01*
X155091185Y-117621185D01*
X155170537Y-117524494D01*
X155229502Y-117414180D01*
X155265812Y-117294482D01*
X155278072Y-117170000D01*
X155278072Y-114570000D01*
X155265812Y-114445518D01*
X155229502Y-114325820D01*
X155170537Y-114215506D01*
X155091185Y-114118815D01*
X154994494Y-114039463D01*
X154884180Y-113980498D01*
X154764482Y-113944188D01*
X154640000Y-113931928D01*
X152040000Y-113931928D01*
X151915518Y-113944188D01*
X151795820Y-113980498D01*
X151685506Y-114039463D01*
X151635000Y-114080912D01*
X151635000Y-110983706D01*
X151653567Y-110922499D01*
X151669990Y-110755752D01*
X151669990Y-110255742D01*
X151675480Y-110200001D01*
X151669990Y-110144259D01*
X151669990Y-109320729D01*
X151675480Y-109264987D01*
X151669990Y-109209245D01*
X151669990Y-103905141D01*
X152881989Y-102693143D01*
X152881993Y-102693138D01*
X153033241Y-102541891D01*
X153149419Y-102565000D01*
X153530581Y-102565000D01*
X153904419Y-102490639D01*
X154256566Y-102344775D01*
X154573491Y-102133013D01*
X154843013Y-101863491D01*
X155054775Y-101546566D01*
X155200639Y-101194419D01*
X155275000Y-100820581D01*
X155275000Y-100439419D01*
X155200639Y-100065581D01*
X155054775Y-99713434D01*
X154843013Y-99396509D01*
X154573491Y-99126987D01*
X154256566Y-98915225D01*
X153904419Y-98769361D01*
X153530581Y-98695000D01*
X153149419Y-98695000D01*
X152775581Y-98769361D01*
X152423434Y-98915225D01*
X152106509Y-99126987D01*
X151836987Y-99396509D01*
X151625225Y-99713434D01*
X151479361Y-100065581D01*
X151405000Y-100439419D01*
X151405000Y-100820581D01*
X151428109Y-100936759D01*
X151276862Y-101088007D01*
X151276857Y-101088011D01*
X149771850Y-102593019D01*
X149728542Y-102628561D01*
X149586707Y-102801387D01*
X149545606Y-102878282D01*
X149481314Y-102998564D01*
X149416413Y-103212512D01*
X149394499Y-103435010D01*
X149399991Y-103490771D01*
X149399991Y-106524857D01*
X147141998Y-104266865D01*
X147106451Y-104223551D01*
X146933625Y-104081716D01*
X146736449Y-103976324D01*
X146522501Y-103911423D01*
X146355754Y-103895000D01*
X146355753Y-103895000D01*
X146300002Y-103889509D01*
X146244251Y-103895000D01*
X145544286Y-103895000D01*
X145406043Y-103802629D01*
X145303127Y-103760000D01*
X145406043Y-103717371D01*
X145632886Y-103565799D01*
X145825799Y-103372886D01*
X145977371Y-103146043D01*
X146081775Y-102893989D01*
X146135000Y-102626411D01*
X146135000Y-102353589D01*
X146081775Y-102086011D01*
X145977371Y-101833957D01*
X145825799Y-101607114D01*
X145632886Y-101414201D01*
X145516517Y-101336445D01*
X145624482Y-101325812D01*
X145744180Y-101289502D01*
X145854494Y-101230537D01*
X145951185Y-101151185D01*
X146030537Y-101054494D01*
X146089502Y-100944180D01*
X146125812Y-100824482D01*
X146138072Y-100700000D01*
X146135000Y-100235750D01*
X145976250Y-100077000D01*
X144877000Y-100077000D01*
X144877000Y-100097000D01*
X144623000Y-100097000D01*
X144623000Y-100077000D01*
X143523750Y-100077000D01*
X143365000Y-100235750D01*
X143361928Y-100700000D01*
X143374188Y-100824482D01*
X143410498Y-100944180D01*
X143469463Y-101054494D01*
X143548815Y-101151185D01*
X143645506Y-101230537D01*
X143755820Y-101289502D01*
X143875518Y-101325812D01*
X143983483Y-101336445D01*
X143867114Y-101414201D01*
X143674201Y-101607114D01*
X143522629Y-101833957D01*
X143418225Y-102086011D01*
X143365000Y-102353589D01*
X143365000Y-102626411D01*
X143418225Y-102893989D01*
X143522629Y-103146043D01*
X143674201Y-103372886D01*
X143867114Y-103565799D01*
X144093957Y-103717371D01*
X144196873Y-103760000D01*
X144093957Y-103802629D01*
X143867114Y-103954201D01*
X143674201Y-104147114D01*
X143522629Y-104373957D01*
X143418225Y-104626011D01*
X143365000Y-104893589D01*
X143365000Y-105166411D01*
X143418225Y-105433989D01*
X143522629Y-105686043D01*
X143674201Y-105912886D01*
X143867114Y-106105799D01*
X144093957Y-106257371D01*
X144346011Y-106361775D01*
X144613589Y-106415000D01*
X144886411Y-106415000D01*
X145153989Y-106361775D01*
X145406043Y-106257371D01*
X145544286Y-106165000D01*
X145829871Y-106165000D01*
X149399990Y-109735120D01*
X149399990Y-109951285D01*
X149381423Y-110012492D01*
X149359509Y-110234990D01*
X149365000Y-110290742D01*
X149365001Y-123144239D01*
X149359509Y-123200000D01*
X149381423Y-123422498D01*
X149446324Y-123636446D01*
X149469716Y-123680209D01*
X149551717Y-123833623D01*
X149693552Y-124006449D01*
X149736860Y-124041991D01*
X155364990Y-129670122D01*
X155364990Y-130436980D01*
X154785750Y-130440000D01*
X154627000Y-130598750D01*
X154627000Y-131823000D01*
X154647000Y-131823000D01*
X154647000Y-132077000D01*
X154627000Y-132077000D01*
X154627000Y-132097000D01*
X154373000Y-132097000D01*
X154373000Y-132077000D01*
X153148750Y-132077000D01*
X152990000Y-132235750D01*
X152986928Y-132825000D01*
X152999188Y-132949482D01*
X153035498Y-133069180D01*
X153094463Y-133179494D01*
X153173815Y-133276185D01*
X153270506Y-133355537D01*
X153380820Y-133414502D01*
X153395564Y-133418974D01*
X153327107Y-133487431D01*
X153161856Y-133734747D01*
X153048029Y-134009549D01*
X152990000Y-134301278D01*
X152990000Y-134598722D01*
X153008156Y-134690000D01*
X149218043Y-134690000D01*
X149114637Y-134535241D01*
X148914759Y-134335363D01*
X148679727Y-134178320D01*
X148418574Y-134070147D01*
X148141335Y-134015000D01*
X147858665Y-134015000D01*
X147581426Y-134070147D01*
X147320273Y-134178320D01*
X147085241Y-134335363D01*
X146885363Y-134535241D01*
X146728320Y-134770273D01*
X146620147Y-135031426D01*
X146565000Y-135308665D01*
X146565000Y-135591335D01*
X146620147Y-135868574D01*
X146728320Y-136129727D01*
X146885363Y-136364759D01*
X147085241Y-136564637D01*
X147320273Y-136721680D01*
X147581426Y-136829853D01*
X147858665Y-136885000D01*
X148141335Y-136885000D01*
X148418574Y-136829853D01*
X148679727Y-136721680D01*
X148914759Y-136564637D01*
X149114637Y-136364759D01*
X149218043Y-136210000D01*
X153462678Y-136210000D01*
X153500000Y-136213676D01*
X153537322Y-136210000D01*
X153537333Y-136210000D01*
X153648986Y-136199003D01*
X153792247Y-136155546D01*
X153924276Y-136084974D01*
X154040001Y-135990001D01*
X154063804Y-135960998D01*
X154112331Y-135912470D01*
X154351278Y-135960000D01*
X154648722Y-135960000D01*
X154940451Y-135901971D01*
X155215253Y-135788144D01*
X155364990Y-135688093D01*
X155364991Y-140186928D01*
X153625000Y-140186928D01*
X153500518Y-140199188D01*
X153380820Y-140235498D01*
X153270506Y-140294463D01*
X153173815Y-140373815D01*
X153094463Y-140470506D01*
X153035498Y-140580820D01*
X152999188Y-140700518D01*
X152986928Y-140825000D01*
X152986928Y-142575000D01*
X152999188Y-142699482D01*
X153035498Y-142819180D01*
X153094463Y-142929494D01*
X153173815Y-143026185D01*
X153270506Y-143105537D01*
X153380820Y-143164502D01*
X153395564Y-143168974D01*
X153327107Y-143237431D01*
X153161856Y-143484747D01*
X153048029Y-143759549D01*
X152990000Y-144051278D01*
X152990000Y-144348722D01*
X153048029Y-144640451D01*
X153161856Y-144915253D01*
X153327107Y-145162569D01*
X153537431Y-145372893D01*
X153784747Y-145538144D01*
X154059549Y-145651971D01*
X154351278Y-145710000D01*
X154648722Y-145710000D01*
X154940451Y-145651971D01*
X155215253Y-145538144D01*
X155462569Y-145372893D01*
X155500462Y-145335000D01*
X155681685Y-145335000D01*
X155737436Y-145340491D01*
X155793187Y-145335000D01*
X155793188Y-145335000D01*
X155959935Y-145318577D01*
X156173883Y-145253676D01*
X156371059Y-145148284D01*
X156543885Y-145006449D01*
X156579432Y-144963135D01*
X156765001Y-144777566D01*
X156765001Y-149265000D01*
X127540567Y-149265000D01*
X127581449Y-149231449D01*
X127616996Y-149188135D01*
X129324496Y-147480636D01*
X129400000Y-147488072D01*
X131000000Y-147488072D01*
X131124482Y-147475812D01*
X131244180Y-147439502D01*
X131354494Y-147380537D01*
X131451185Y-147301185D01*
X131530537Y-147204494D01*
X131589502Y-147094180D01*
X131625812Y-146974482D01*
X131638072Y-146850000D01*
X131638072Y-145250000D01*
X131625812Y-145125518D01*
X131589502Y-145005820D01*
X131530537Y-144895506D01*
X131451185Y-144798815D01*
X131354494Y-144719463D01*
X131244180Y-144660498D01*
X131124482Y-144624188D01*
X131000000Y-144611928D01*
X129400000Y-144611928D01*
X129275518Y-144624188D01*
X129155820Y-144660498D01*
X129045506Y-144719463D01*
X128948815Y-144798815D01*
X128869463Y-144895506D01*
X128835317Y-144959387D01*
X128713553Y-144996324D01*
X128516377Y-145101716D01*
X128343551Y-145243551D01*
X128308009Y-145286859D01*
X126304869Y-147290000D01*
X117170132Y-147290000D01*
X116951342Y-147071210D01*
X117146353Y-147110000D01*
X117453647Y-147110000D01*
X117755035Y-147050050D01*
X118038937Y-146932454D01*
X118294442Y-146761731D01*
X118511731Y-146544442D01*
X118682454Y-146288937D01*
X118800050Y-146005035D01*
X118860000Y-145703647D01*
X118860000Y-145396353D01*
X121140000Y-145396353D01*
X121140000Y-145703647D01*
X121199950Y-146005035D01*
X121317546Y-146288937D01*
X121488269Y-146544442D01*
X121705558Y-146761731D01*
X121961063Y-146932454D01*
X122244965Y-147050050D01*
X122546353Y-147110000D01*
X122853647Y-147110000D01*
X123155035Y-147050050D01*
X123438937Y-146932454D01*
X123694442Y-146761731D01*
X123911731Y-146544442D01*
X124082454Y-146288937D01*
X124200050Y-146005035D01*
X124260000Y-145703647D01*
X124260000Y-145396353D01*
X124200050Y-145094965D01*
X124082454Y-144811063D01*
X123911731Y-144555558D01*
X123694442Y-144338269D01*
X123438937Y-144167546D01*
X123155035Y-144049950D01*
X122853647Y-143990000D01*
X122546353Y-143990000D01*
X122244965Y-144049950D01*
X121961063Y-144167546D01*
X121705558Y-144338269D01*
X121488269Y-144555558D01*
X121317546Y-144811063D01*
X121199950Y-145094965D01*
X121140000Y-145396353D01*
X118860000Y-145396353D01*
X118800050Y-145094965D01*
X118682454Y-144811063D01*
X118511731Y-144555558D01*
X118294442Y-144338269D01*
X118038937Y-144167546D01*
X117755035Y-144049950D01*
X117453647Y-143990000D01*
X117146353Y-143990000D01*
X116844965Y-144049950D01*
X116561063Y-144167546D01*
X116305558Y-144338269D01*
X116088269Y-144555558D01*
X115917546Y-144811063D01*
X115799950Y-145094965D01*
X115740000Y-145396353D01*
X115740000Y-145703647D01*
X115778790Y-145898659D01*
X113510000Y-143629869D01*
X113510000Y-143542702D01*
X129386903Y-143542702D01*
X129458486Y-143786671D01*
X129713996Y-143907571D01*
X129988184Y-143976300D01*
X130270512Y-143990217D01*
X130550130Y-143948787D01*
X130816292Y-143853603D01*
X130941514Y-143786671D01*
X131013097Y-143542702D01*
X130200000Y-142729605D01*
X129386903Y-143542702D01*
X113510000Y-143542702D01*
X113510000Y-142649870D01*
X113544180Y-142639502D01*
X113654494Y-142580537D01*
X113751185Y-142501185D01*
X113830537Y-142404494D01*
X113889502Y-142294180D01*
X113925812Y-142174482D01*
X113938072Y-142050000D01*
X113938072Y-140250000D01*
X113925812Y-140125518D01*
X113889502Y-140005820D01*
X113830537Y-139895506D01*
X113751185Y-139798815D01*
X113654494Y-139719463D01*
X113544180Y-139660498D01*
X113424482Y-139624188D01*
X113300000Y-139611928D01*
X111500000Y-139611928D01*
X111375518Y-139624188D01*
X111255820Y-139660498D01*
X111145506Y-139719463D01*
X111048815Y-139798815D01*
X110969463Y-139895506D01*
X110910498Y-140005820D01*
X110874188Y-140125518D01*
X110861928Y-140250000D01*
X110861928Y-142050000D01*
X110874188Y-142174482D01*
X110910498Y-142294180D01*
X110969463Y-142404494D01*
X111048815Y-142501185D01*
X111145506Y-142580537D01*
X111240000Y-142631046D01*
X111240000Y-143412203D01*
X111147743Y-143373989D01*
X110851184Y-143315000D01*
X110548816Y-143315000D01*
X110252257Y-143373989D01*
X109972905Y-143489701D01*
X109721495Y-143657688D01*
X109507688Y-143871495D01*
X109339701Y-144122905D01*
X109223989Y-144402257D01*
X109165000Y-144698816D01*
X109165000Y-145001184D01*
X109223989Y-145297743D01*
X109339701Y-145577095D01*
X109507688Y-145828505D01*
X109721495Y-146042312D01*
X109972905Y-146210299D01*
X110252257Y-146326011D01*
X110548816Y-146385000D01*
X110851184Y-146385000D01*
X111147743Y-146326011D01*
X111427095Y-146210299D01*
X111678505Y-146042312D01*
X111892312Y-145828505D01*
X112060299Y-145577095D01*
X112114972Y-145445103D01*
X115858009Y-149188141D01*
X115893551Y-149231449D01*
X115934433Y-149265000D01*
X103763931Y-149265000D01*
X103687623Y-148881372D01*
X103398533Y-148183446D01*
X102978839Y-147555330D01*
X102444670Y-147021161D01*
X101816554Y-146601467D01*
X101118628Y-146312377D01*
X100735000Y-146236069D01*
X100735000Y-144698816D01*
X105765000Y-144698816D01*
X105765000Y-145001184D01*
X105823989Y-145297743D01*
X105939701Y-145577095D01*
X106107688Y-145828505D01*
X106321495Y-146042312D01*
X106572905Y-146210299D01*
X106852257Y-146326011D01*
X107148816Y-146385000D01*
X107451184Y-146385000D01*
X107747743Y-146326011D01*
X108027095Y-146210299D01*
X108278505Y-146042312D01*
X108492312Y-145828505D01*
X108660299Y-145577095D01*
X108776011Y-145297743D01*
X108835000Y-145001184D01*
X108835000Y-144698816D01*
X108776011Y-144402257D01*
X108660299Y-144122905D01*
X108492312Y-143871495D01*
X108278505Y-143657688D01*
X108027095Y-143489701D01*
X107747743Y-143373989D01*
X107451184Y-143315000D01*
X107148816Y-143315000D01*
X106852257Y-143373989D01*
X106572905Y-143489701D01*
X106321495Y-143657688D01*
X106107688Y-143871495D01*
X105939701Y-144122905D01*
X105823989Y-144402257D01*
X105765000Y-144698816D01*
X100735000Y-144698816D01*
X100735000Y-141514740D01*
X104108964Y-141514740D01*
X104157606Y-141675107D01*
X104287764Y-141946414D01*
X104468351Y-142187116D01*
X104692427Y-142387962D01*
X104951380Y-142541234D01*
X105235259Y-142641041D01*
X105473000Y-142520992D01*
X105473000Y-141277000D01*
X105727000Y-141277000D01*
X105727000Y-142520992D01*
X105964741Y-142641041D01*
X106248620Y-142541234D01*
X106507573Y-142387962D01*
X106731649Y-142187116D01*
X106912236Y-141946414D01*
X107042394Y-141675107D01*
X107091036Y-141514740D01*
X107508964Y-141514740D01*
X107557606Y-141675107D01*
X107687764Y-141946414D01*
X107868351Y-142187116D01*
X108092427Y-142387962D01*
X108351380Y-142541234D01*
X108635259Y-142641041D01*
X108873000Y-142520992D01*
X108873000Y-141277000D01*
X109127000Y-141277000D01*
X109127000Y-142520992D01*
X109364741Y-142641041D01*
X109648620Y-142541234D01*
X109907573Y-142387962D01*
X110131649Y-142187116D01*
X110312236Y-141946414D01*
X110442394Y-141675107D01*
X110491036Y-141514740D01*
X110370378Y-141277000D01*
X109127000Y-141277000D01*
X108873000Y-141277000D01*
X107629622Y-141277000D01*
X107508964Y-141514740D01*
X107091036Y-141514740D01*
X106970378Y-141277000D01*
X105727000Y-141277000D01*
X105473000Y-141277000D01*
X104229622Y-141277000D01*
X104108964Y-141514740D01*
X100735000Y-141514740D01*
X100735000Y-140785260D01*
X104108964Y-140785260D01*
X104229622Y-141023000D01*
X105473000Y-141023000D01*
X105473000Y-139779008D01*
X105727000Y-139779008D01*
X105727000Y-141023000D01*
X106970378Y-141023000D01*
X107091036Y-140785260D01*
X107508964Y-140785260D01*
X107629622Y-141023000D01*
X108873000Y-141023000D01*
X108873000Y-139779008D01*
X109127000Y-139779008D01*
X109127000Y-141023000D01*
X110370378Y-141023000D01*
X110491036Y-140785260D01*
X110442394Y-140624893D01*
X110312236Y-140353586D01*
X110131649Y-140112884D01*
X109907573Y-139912038D01*
X109648620Y-139758766D01*
X109364741Y-139658959D01*
X109127000Y-139779008D01*
X108873000Y-139779008D01*
X108635259Y-139658959D01*
X108351380Y-139758766D01*
X108092427Y-139912038D01*
X107868351Y-140112884D01*
X107687764Y-140353586D01*
X107557606Y-140624893D01*
X107508964Y-140785260D01*
X107091036Y-140785260D01*
X107042394Y-140624893D01*
X106912236Y-140353586D01*
X106731649Y-140112884D01*
X106507573Y-139912038D01*
X106248620Y-139758766D01*
X105964741Y-139658959D01*
X105727000Y-139779008D01*
X105473000Y-139779008D01*
X105235259Y-139658959D01*
X104951380Y-139758766D01*
X104692427Y-139912038D01*
X104468351Y-140112884D01*
X104287764Y-140353586D01*
X104157606Y-140624893D01*
X104108964Y-140785260D01*
X100735000Y-140785260D01*
X100735000Y-135595793D01*
X103954054Y-135595793D01*
X104034431Y-135893169D01*
X104232877Y-136317251D01*
X104510245Y-136694469D01*
X104855875Y-137010327D01*
X105256484Y-137252687D01*
X105696678Y-137412235D01*
X106159540Y-137482840D01*
X107909600Y-137482840D01*
X107909600Y-135224780D01*
X108163600Y-135224780D01*
X108163600Y-137482840D01*
X109913660Y-137482840D01*
X110376522Y-137412235D01*
X110816716Y-137252687D01*
X111217325Y-137010327D01*
X111562955Y-136694469D01*
X111840323Y-136317251D01*
X112038769Y-135893169D01*
X112119146Y-135595793D01*
X112009345Y-135224780D01*
X108163600Y-135224780D01*
X107909600Y-135224780D01*
X104063855Y-135224780D01*
X103954054Y-135595793D01*
X100735000Y-135595793D01*
X100735000Y-134599767D01*
X103954054Y-134599767D01*
X104063855Y-134970780D01*
X107909600Y-134970780D01*
X107909600Y-132712720D01*
X108163600Y-132712720D01*
X108163600Y-134970780D01*
X112009345Y-134970780D01*
X112119146Y-134599767D01*
X112038769Y-134302391D01*
X111866598Y-133934460D01*
X112174260Y-133934460D01*
X112174260Y-132626360D01*
X112428260Y-132626360D01*
X112428260Y-133934460D01*
X112877840Y-133934460D01*
X113155374Y-133882108D01*
X113417362Y-133776618D01*
X113653736Y-133622044D01*
X113855412Y-133424326D01*
X114014640Y-133191062D01*
X114125301Y-132931216D01*
X114142843Y-132848415D01*
X114020856Y-132626360D01*
X112428260Y-132626360D01*
X112174260Y-132626360D01*
X110581664Y-132626360D01*
X110475689Y-132819268D01*
X110376522Y-132783325D01*
X109913660Y-132712720D01*
X108163600Y-132712720D01*
X107909600Y-132712720D01*
X106159540Y-132712720D01*
X105696678Y-132783325D01*
X105256484Y-132942873D01*
X104855875Y-133185233D01*
X104510245Y-133501091D01*
X104232877Y-133878309D01*
X104034431Y-134302391D01*
X103954054Y-134599767D01*
X100735000Y-134599767D01*
X100735000Y-130000000D01*
X110409637Y-130000000D01*
X110437345Y-130281329D01*
X110519406Y-130551846D01*
X110652665Y-130801156D01*
X110832002Y-131019678D01*
X111050524Y-131199015D01*
X111144032Y-131248996D01*
X110948784Y-131376676D01*
X110747108Y-131574394D01*
X110587880Y-131807658D01*
X110477219Y-132067504D01*
X110459677Y-132150305D01*
X110581664Y-132372360D01*
X112174260Y-132372360D01*
X112174260Y-132352360D01*
X112428260Y-132352360D01*
X112428260Y-132372360D01*
X114020856Y-132372360D01*
X114142843Y-132150305D01*
X114125301Y-132067504D01*
X114014640Y-131807658D01*
X113855412Y-131574394D01*
X113653736Y-131376676D01*
X113458488Y-131248996D01*
X113551996Y-131199015D01*
X113770518Y-131019678D01*
X113949855Y-130801156D01*
X114083114Y-130551846D01*
X114165175Y-130281329D01*
X114192883Y-130000000D01*
X114165175Y-129718671D01*
X114083114Y-129448154D01*
X113949855Y-129198844D01*
X113770518Y-128980322D01*
X113551996Y-128800985D01*
X113302686Y-128667726D01*
X113032169Y-128585665D01*
X112821335Y-128564900D01*
X111781185Y-128564900D01*
X111570351Y-128585665D01*
X111299834Y-128667726D01*
X111050524Y-128800985D01*
X110832002Y-128980322D01*
X110652665Y-129198844D01*
X110519406Y-129448154D01*
X110437345Y-129718671D01*
X110409637Y-130000000D01*
X100735000Y-130000000D01*
X100735000Y-125397693D01*
X103954054Y-125397693D01*
X104034431Y-125695069D01*
X104232877Y-126119151D01*
X104510245Y-126496369D01*
X104855875Y-126812227D01*
X105256484Y-127054587D01*
X105696678Y-127214135D01*
X106159540Y-127284740D01*
X107909600Y-127284740D01*
X107909600Y-125026680D01*
X108163600Y-125026680D01*
X108163600Y-127284740D01*
X109913660Y-127284740D01*
X110376522Y-127214135D01*
X110816716Y-127054587D01*
X111217325Y-126812227D01*
X111562955Y-126496369D01*
X111840323Y-126119151D01*
X112038769Y-125695069D01*
X112119146Y-125397693D01*
X112009345Y-125026680D01*
X108163600Y-125026680D01*
X107909600Y-125026680D01*
X104063855Y-125026680D01*
X103954054Y-125397693D01*
X100735000Y-125397693D01*
X100735000Y-124401667D01*
X103954054Y-124401667D01*
X104063855Y-124772680D01*
X107909600Y-124772680D01*
X107909600Y-122514620D01*
X108163600Y-122514620D01*
X108163600Y-124772680D01*
X112009345Y-124772680D01*
X112119146Y-124401667D01*
X112038769Y-124104291D01*
X111840323Y-123680209D01*
X111562955Y-123302991D01*
X111217325Y-122987133D01*
X110816716Y-122744773D01*
X110376522Y-122585225D01*
X109913660Y-122514620D01*
X108163600Y-122514620D01*
X107909600Y-122514620D01*
X106159540Y-122514620D01*
X105696678Y-122585225D01*
X105256484Y-122744773D01*
X104855875Y-122987133D01*
X104510245Y-123302991D01*
X104232877Y-123680209D01*
X104034431Y-124104291D01*
X103954054Y-124401667D01*
X100735000Y-124401667D01*
X100735000Y-116361158D01*
X100960273Y-116511680D01*
X101221426Y-116619853D01*
X101498665Y-116675000D01*
X101781335Y-116675000D01*
X102058574Y-116619853D01*
X102319727Y-116511680D01*
X102554759Y-116354637D01*
X102754637Y-116154759D01*
X102910000Y-115922241D01*
X103065363Y-116154759D01*
X103265241Y-116354637D01*
X103500273Y-116511680D01*
X103761426Y-116619853D01*
X104038665Y-116675000D01*
X104321335Y-116675000D01*
X104598574Y-116619853D01*
X104859727Y-116511680D01*
X105094759Y-116354637D01*
X105294637Y-116154759D01*
X105450000Y-115922241D01*
X105605363Y-116154759D01*
X105805241Y-116354637D01*
X106040273Y-116511680D01*
X106301426Y-116619853D01*
X106578665Y-116675000D01*
X106861335Y-116675000D01*
X107138574Y-116619853D01*
X107399727Y-116511680D01*
X107634759Y-116354637D01*
X107834637Y-116154759D01*
X107990000Y-115922241D01*
X108145363Y-116154759D01*
X108345241Y-116354637D01*
X108580273Y-116511680D01*
X108841426Y-116619853D01*
X109118665Y-116675000D01*
X109401335Y-116675000D01*
X109583887Y-116638688D01*
X113111693Y-120166495D01*
X113082795Y-120209744D01*
X113004774Y-120398102D01*
X112965000Y-120598061D01*
X112965000Y-120801939D01*
X113004774Y-121001898D01*
X113082795Y-121190256D01*
X113196063Y-121359774D01*
X113340226Y-121503937D01*
X113509744Y-121617205D01*
X113698102Y-121695226D01*
X113898061Y-121735000D01*
X114101939Y-121735000D01*
X114301898Y-121695226D01*
X114490256Y-121617205D01*
X114634947Y-121520526D01*
X114565026Y-121605724D01*
X114494454Y-121737754D01*
X114450998Y-121881015D01*
X114436324Y-122030000D01*
X114440001Y-122067333D01*
X114440000Y-141162678D01*
X114436324Y-141200000D01*
X114440000Y-141237322D01*
X114440000Y-141237332D01*
X114450997Y-141348985D01*
X114478302Y-141438998D01*
X114494454Y-141492246D01*
X114565026Y-141624276D01*
X114592500Y-141657753D01*
X114659999Y-141740001D01*
X114689003Y-141763804D01*
X116186201Y-143261003D01*
X116209999Y-143290001D01*
X116238997Y-143313799D01*
X116325723Y-143384974D01*
X116433658Y-143442667D01*
X116457753Y-143455546D01*
X116601014Y-143499003D01*
X116712667Y-143510000D01*
X116712677Y-143510000D01*
X116749999Y-143513676D01*
X116787322Y-143510000D01*
X118182678Y-143510000D01*
X118220000Y-143513676D01*
X118257322Y-143510000D01*
X118257333Y-143510000D01*
X118368986Y-143499003D01*
X118512247Y-143455546D01*
X118644276Y-143384974D01*
X118760001Y-143290001D01*
X118783804Y-143260997D01*
X119424289Y-142620512D01*
X128759783Y-142620512D01*
X128801213Y-142900130D01*
X128896397Y-143166292D01*
X128963329Y-143291514D01*
X129207298Y-143363097D01*
X130020395Y-142550000D01*
X130379605Y-142550000D01*
X131192702Y-143363097D01*
X131436671Y-143291514D01*
X131557571Y-143036004D01*
X131626300Y-142761816D01*
X131640217Y-142479488D01*
X131598787Y-142199870D01*
X131503603Y-141933708D01*
X131436671Y-141808486D01*
X131192702Y-141736903D01*
X130379605Y-142550000D01*
X130020395Y-142550000D01*
X129207298Y-141736903D01*
X128963329Y-141808486D01*
X128842429Y-142063996D01*
X128773700Y-142338184D01*
X128759783Y-142620512D01*
X119424289Y-142620512D01*
X120061730Y-141983072D01*
X120375000Y-141983072D01*
X120499482Y-141970812D01*
X120619180Y-141934502D01*
X120729494Y-141875537D01*
X120826185Y-141796185D01*
X120905537Y-141699494D01*
X120964502Y-141589180D01*
X121000812Y-141469482D01*
X121013072Y-141345000D01*
X121013072Y-139595000D01*
X121000812Y-139470518D01*
X120964502Y-139350820D01*
X120905537Y-139240506D01*
X120872295Y-139200000D01*
X120905537Y-139159494D01*
X120964502Y-139049180D01*
X121000812Y-138929482D01*
X121013072Y-138805000D01*
X121013072Y-137055000D01*
X121009192Y-137015609D01*
X121564802Y-136460000D01*
X121938944Y-136460000D01*
X121920820Y-136465498D01*
X121810506Y-136524463D01*
X121713815Y-136603815D01*
X121634463Y-136700506D01*
X121575498Y-136810820D01*
X121539188Y-136930518D01*
X121526928Y-137055000D01*
X121526928Y-138805000D01*
X121539188Y-138929482D01*
X121575498Y-139049180D01*
X121634463Y-139159494D01*
X121667705Y-139200000D01*
X121634463Y-139240506D01*
X121575498Y-139350820D01*
X121539188Y-139470518D01*
X121526928Y-139595000D01*
X121526928Y-141345000D01*
X121539188Y-141469482D01*
X121575498Y-141589180D01*
X121634463Y-141699494D01*
X121713815Y-141796185D01*
X121810506Y-141875537D01*
X121920820Y-141934502D01*
X122040518Y-141970812D01*
X122165000Y-141983072D01*
X122915000Y-141983072D01*
X123039482Y-141970812D01*
X123159180Y-141934502D01*
X123269494Y-141875537D01*
X123366185Y-141796185D01*
X123445537Y-141699494D01*
X123504502Y-141589180D01*
X123514173Y-141557298D01*
X129386903Y-141557298D01*
X130200000Y-142370395D01*
X131013097Y-141557298D01*
X130941514Y-141313329D01*
X130686004Y-141192429D01*
X130411816Y-141123700D01*
X130129488Y-141109783D01*
X129849870Y-141151213D01*
X129583708Y-141246397D01*
X129458486Y-141313329D01*
X129386903Y-141557298D01*
X123514173Y-141557298D01*
X123540812Y-141469482D01*
X123553072Y-141345000D01*
X123553072Y-139595000D01*
X123540812Y-139470518D01*
X123504502Y-139350820D01*
X123445537Y-139240506D01*
X123412295Y-139200000D01*
X123445537Y-139159494D01*
X123504502Y-139049180D01*
X123540812Y-138929482D01*
X123553072Y-138805000D01*
X123553072Y-137055000D01*
X123540812Y-136930518D01*
X123504502Y-136810820D01*
X123445537Y-136700506D01*
X123366185Y-136603815D01*
X123269494Y-136524463D01*
X123159180Y-136465498D01*
X123141056Y-136460000D01*
X126185199Y-136460000D01*
X128936201Y-139211003D01*
X128959999Y-139240001D01*
X129075724Y-139334974D01*
X129207753Y-139405546D01*
X129351014Y-139449003D01*
X129462667Y-139460000D01*
X129462675Y-139460000D01*
X129500000Y-139463676D01*
X129537325Y-139460000D01*
X132532678Y-139460000D01*
X132570000Y-139463676D01*
X132607322Y-139460000D01*
X132607333Y-139460000D01*
X132718986Y-139449003D01*
X132862247Y-139405546D01*
X132994276Y-139334974D01*
X133110001Y-139240001D01*
X133133804Y-139210997D01*
X135496114Y-136848688D01*
X135678665Y-136885000D01*
X135961335Y-136885000D01*
X136238574Y-136829853D01*
X136499727Y-136721680D01*
X136734759Y-136564637D01*
X136934637Y-136364759D01*
X137091680Y-136129727D01*
X137199853Y-135868574D01*
X137255000Y-135591335D01*
X137255000Y-135308665D01*
X137199853Y-135031426D01*
X137091680Y-134770273D01*
X136934637Y-134535241D01*
X136734759Y-134335363D01*
X136499727Y-134178320D01*
X136238574Y-134070147D01*
X135961335Y-134015000D01*
X135678665Y-134015000D01*
X135401426Y-134070147D01*
X135140273Y-134178320D01*
X134905241Y-134335363D01*
X134705363Y-134535241D01*
X134548320Y-134770273D01*
X134440147Y-135031426D01*
X134385000Y-135308665D01*
X134385000Y-135591335D01*
X134421312Y-135773886D01*
X132255199Y-137940000D01*
X129814802Y-137940000D01*
X127063804Y-135189003D01*
X127040001Y-135159999D01*
X126924276Y-135065026D01*
X126792247Y-134994454D01*
X126648986Y-134950997D01*
X126537333Y-134940000D01*
X126537322Y-134940000D01*
X126500000Y-134936324D01*
X126462678Y-134940000D01*
X121287323Y-134940000D01*
X121250000Y-134936324D01*
X121212677Y-134940000D01*
X121212667Y-134940000D01*
X121101014Y-134950997D01*
X120957753Y-134994454D01*
X120825723Y-135065026D01*
X120742083Y-135133668D01*
X120709999Y-135159999D01*
X120686201Y-135188997D01*
X119488998Y-136386201D01*
X119460000Y-136409999D01*
X119436202Y-136438997D01*
X119436201Y-136438998D01*
X119425601Y-136451914D01*
X119380820Y-136465498D01*
X119270506Y-136524463D01*
X119173815Y-136603815D01*
X119094463Y-136700506D01*
X119035498Y-136810820D01*
X118999188Y-136930518D01*
X118986928Y-137055000D01*
X118986928Y-138805000D01*
X118999188Y-138929482D01*
X119035498Y-139049180D01*
X119094463Y-139159494D01*
X119127705Y-139200000D01*
X119094463Y-139240506D01*
X119035498Y-139350820D01*
X118999188Y-139470518D01*
X118986928Y-139595000D01*
X118986928Y-140908270D01*
X118464646Y-141430552D01*
X118473072Y-141345000D01*
X118473072Y-139595000D01*
X118460812Y-139470518D01*
X118424502Y-139350820D01*
X118365537Y-139240506D01*
X118332295Y-139200000D01*
X118365537Y-139159494D01*
X118424502Y-139049180D01*
X118460812Y-138929482D01*
X118473072Y-138805000D01*
X118473072Y-137055000D01*
X118460812Y-136930518D01*
X118424502Y-136810820D01*
X118365537Y-136700506D01*
X118286185Y-136603815D01*
X118189494Y-136524463D01*
X118079180Y-136465498D01*
X117959482Y-136429188D01*
X117835000Y-136416928D01*
X117085000Y-136416928D01*
X116960518Y-136429188D01*
X116840820Y-136465498D01*
X116730506Y-136524463D01*
X116633815Y-136603815D01*
X116554463Y-136700506D01*
X116495498Y-136810820D01*
X116459188Y-136930518D01*
X116446928Y-137055000D01*
X116446928Y-138805000D01*
X116459188Y-138929482D01*
X116495498Y-139049180D01*
X116554463Y-139159494D01*
X116587705Y-139200000D01*
X116554463Y-139240506D01*
X116495498Y-139350820D01*
X116459188Y-139470518D01*
X116446928Y-139595000D01*
X116446928Y-141345000D01*
X116449892Y-141375090D01*
X115960000Y-140885199D01*
X115960000Y-134150000D01*
X128561928Y-134150000D01*
X128561928Y-135750000D01*
X128574188Y-135874482D01*
X128610498Y-135994180D01*
X128669463Y-136104494D01*
X128748815Y-136201185D01*
X128845506Y-136280537D01*
X128955820Y-136339502D01*
X129075518Y-136375812D01*
X129200000Y-136388072D01*
X130800000Y-136388072D01*
X130924482Y-136375812D01*
X131044180Y-136339502D01*
X131154494Y-136280537D01*
X131251185Y-136201185D01*
X131330537Y-136104494D01*
X131389502Y-135994180D01*
X131425812Y-135874482D01*
X131438072Y-135750000D01*
X131438072Y-134150000D01*
X131425812Y-134025518D01*
X131389502Y-133905820D01*
X131330537Y-133795506D01*
X131251185Y-133698815D01*
X131154494Y-133619463D01*
X131044180Y-133560498D01*
X130924482Y-133524188D01*
X130800000Y-133511928D01*
X129200000Y-133511928D01*
X129075518Y-133524188D01*
X128955820Y-133560498D01*
X128845506Y-133619463D01*
X128748815Y-133698815D01*
X128669463Y-133795506D01*
X128610498Y-133905820D01*
X128574188Y-134025518D01*
X128561928Y-134150000D01*
X115960000Y-134150000D01*
X115960000Y-132442702D01*
X129186903Y-132442702D01*
X129258486Y-132686671D01*
X129513996Y-132807571D01*
X129788184Y-132876300D01*
X130070512Y-132890217D01*
X130350130Y-132848787D01*
X130616292Y-132753603D01*
X130741514Y-132686671D01*
X130813097Y-132442702D01*
X130000000Y-131629605D01*
X129186903Y-132442702D01*
X115960000Y-132442702D01*
X115960000Y-131520512D01*
X128559783Y-131520512D01*
X128601213Y-131800130D01*
X128696397Y-132066292D01*
X128763329Y-132191514D01*
X129007298Y-132263097D01*
X129820395Y-131450000D01*
X130179605Y-131450000D01*
X130992702Y-132263097D01*
X131236671Y-132191514D01*
X131357571Y-131936004D01*
X131426300Y-131661816D01*
X131440217Y-131379488D01*
X131398787Y-131099870D01*
X131303603Y-130833708D01*
X131290218Y-130808665D01*
X134385000Y-130808665D01*
X134385000Y-131091335D01*
X134440147Y-131368574D01*
X134548320Y-131629727D01*
X134705363Y-131864759D01*
X134905241Y-132064637D01*
X135140273Y-132221680D01*
X135401426Y-132329853D01*
X135678665Y-132385000D01*
X135961335Y-132385000D01*
X136238574Y-132329853D01*
X136499727Y-132221680D01*
X136734759Y-132064637D01*
X136934637Y-131864759D01*
X137091680Y-131629727D01*
X137199853Y-131368574D01*
X137203933Y-131348061D01*
X137715000Y-131348061D01*
X137715000Y-131551939D01*
X137754774Y-131751898D01*
X137832795Y-131940256D01*
X137946063Y-132109774D01*
X137990001Y-132153712D01*
X137990000Y-134996289D01*
X137946063Y-135040226D01*
X137832795Y-135209744D01*
X137754774Y-135398102D01*
X137715000Y-135598061D01*
X137715000Y-135801939D01*
X137754774Y-136001898D01*
X137832795Y-136190256D01*
X137946063Y-136359774D01*
X138090226Y-136503937D01*
X138259744Y-136617205D01*
X138448102Y-136695226D01*
X138648061Y-136735000D01*
X138851939Y-136735000D01*
X139051898Y-136695226D01*
X139240256Y-136617205D01*
X139409774Y-136503937D01*
X139553937Y-136359774D01*
X139667205Y-136190256D01*
X139745226Y-136001898D01*
X139785000Y-135801939D01*
X139785000Y-135598061D01*
X139745226Y-135398102D01*
X139667205Y-135209744D01*
X139553937Y-135040226D01*
X139510000Y-134996289D01*
X139510000Y-132153711D01*
X139553937Y-132109774D01*
X139667205Y-131940256D01*
X139745226Y-131751898D01*
X139785000Y-131551939D01*
X139785000Y-131348061D01*
X139745226Y-131148102D01*
X139667205Y-130959744D01*
X139553937Y-130790226D01*
X139409774Y-130646063D01*
X139240256Y-130532795D01*
X139051898Y-130454774D01*
X138851939Y-130415000D01*
X138648061Y-130415000D01*
X138448102Y-130454774D01*
X138259744Y-130532795D01*
X138090226Y-130646063D01*
X137946063Y-130790226D01*
X137832795Y-130959744D01*
X137754774Y-131148102D01*
X137715000Y-131348061D01*
X137203933Y-131348061D01*
X137255000Y-131091335D01*
X137255000Y-130808665D01*
X137199853Y-130531426D01*
X137091680Y-130270273D01*
X136934637Y-130035241D01*
X136734759Y-129835363D01*
X136499727Y-129678320D01*
X136238574Y-129570147D01*
X135961335Y-129515000D01*
X135678665Y-129515000D01*
X135401426Y-129570147D01*
X135140273Y-129678320D01*
X134905241Y-129835363D01*
X134705363Y-130035241D01*
X134548320Y-130270273D01*
X134440147Y-130531426D01*
X134385000Y-130808665D01*
X131290218Y-130808665D01*
X131236671Y-130708486D01*
X130992702Y-130636903D01*
X130179605Y-131450000D01*
X129820395Y-131450000D01*
X129007298Y-130636903D01*
X128763329Y-130708486D01*
X128642429Y-130963996D01*
X128573700Y-131238184D01*
X128559783Y-131520512D01*
X115960000Y-131520512D01*
X115960000Y-130457298D01*
X129186903Y-130457298D01*
X130000000Y-131270395D01*
X130813097Y-130457298D01*
X130741514Y-130213329D01*
X130486004Y-130092429D01*
X130211816Y-130023700D01*
X129929488Y-130009783D01*
X129649870Y-130051213D01*
X129383708Y-130146397D01*
X129258486Y-130213329D01*
X129186903Y-130457298D01*
X115960000Y-130457298D01*
X115960000Y-123415340D01*
X116019369Y-123558669D01*
X116263962Y-123924729D01*
X116575271Y-124236038D01*
X116941331Y-124480631D01*
X117348075Y-124649110D01*
X117779872Y-124735000D01*
X118220128Y-124735000D01*
X118651925Y-124649110D01*
X119058669Y-124480631D01*
X119424729Y-124236038D01*
X119736038Y-123924729D01*
X119980631Y-123558669D01*
X120036204Y-123424503D01*
X122915950Y-123424503D01*
X123020407Y-123768861D01*
X123220118Y-124158835D01*
X123492071Y-124502354D01*
X123825816Y-124786217D01*
X124208527Y-124999516D01*
X124625497Y-125134053D01*
X124973000Y-125022642D01*
X124973000Y-123077000D01*
X125227000Y-123077000D01*
X125227000Y-125022642D01*
X125574503Y-125134053D01*
X125991473Y-124999516D01*
X126374184Y-124786217D01*
X126707929Y-124502354D01*
X126979882Y-124158835D01*
X127179593Y-123768861D01*
X127284050Y-123424503D01*
X127172362Y-123077000D01*
X125227000Y-123077000D01*
X124973000Y-123077000D01*
X123027638Y-123077000D01*
X122915950Y-123424503D01*
X120036204Y-123424503D01*
X120149110Y-123151925D01*
X120235000Y-122720128D01*
X120235000Y-122475497D01*
X122915950Y-122475497D01*
X123027638Y-122823000D01*
X124973000Y-122823000D01*
X124973000Y-120877358D01*
X125227000Y-120877358D01*
X125227000Y-122823000D01*
X127172362Y-122823000D01*
X127284050Y-122475497D01*
X127179593Y-122131139D01*
X126979882Y-121741165D01*
X126707929Y-121397646D01*
X126374184Y-121113783D01*
X125991473Y-120900484D01*
X125574503Y-120765947D01*
X125227000Y-120877358D01*
X124973000Y-120877358D01*
X124625497Y-120765947D01*
X124208527Y-120900484D01*
X123825816Y-121113783D01*
X123492071Y-121397646D01*
X123220118Y-121741165D01*
X123020407Y-122131139D01*
X122915950Y-122475497D01*
X120235000Y-122475497D01*
X120235000Y-122279872D01*
X120149110Y-121848075D01*
X119980631Y-121441331D01*
X119736038Y-121075271D01*
X119424729Y-120763962D01*
X119058669Y-120519369D01*
X118651925Y-120350890D01*
X118220128Y-120265000D01*
X118039803Y-120265000D01*
X118054803Y-120250000D01*
X127046289Y-120250000D01*
X127090226Y-120293937D01*
X127259744Y-120407205D01*
X127448102Y-120485226D01*
X127648061Y-120525000D01*
X127851939Y-120525000D01*
X128051898Y-120485226D01*
X128240256Y-120407205D01*
X128409774Y-120293937D01*
X128553937Y-120149774D01*
X128667205Y-119980256D01*
X128745226Y-119791898D01*
X128785000Y-119591939D01*
X128785000Y-119388061D01*
X128745226Y-119188102D01*
X128667205Y-118999744D01*
X128553937Y-118830226D01*
X128409774Y-118686063D01*
X128240256Y-118572795D01*
X128051898Y-118494774D01*
X127851939Y-118455000D01*
X127648061Y-118455000D01*
X127448102Y-118494774D01*
X127259744Y-118572795D01*
X127090226Y-118686063D01*
X127046289Y-118730000D01*
X117777322Y-118730000D01*
X117739999Y-118726324D01*
X117702676Y-118730000D01*
X117702667Y-118730000D01*
X117591014Y-118740997D01*
X117447753Y-118784454D01*
X117315724Y-118855026D01*
X117315722Y-118855027D01*
X117315723Y-118855027D01*
X117228996Y-118926201D01*
X117228992Y-118926205D01*
X117199999Y-118949999D01*
X117176205Y-118978992D01*
X114821078Y-121334121D01*
X114917205Y-121190256D01*
X114995226Y-121001898D01*
X115035000Y-120801939D01*
X115035000Y-120598061D01*
X114995226Y-120398102D01*
X114917205Y-120209744D01*
X114803937Y-120040226D01*
X114761886Y-119998175D01*
X114763676Y-119979999D01*
X114760000Y-119942676D01*
X114760000Y-119942667D01*
X114749003Y-119831014D01*
X114705546Y-119687753D01*
X114634974Y-119555724D01*
X114540001Y-119439999D01*
X114511004Y-119416202D01*
X111769801Y-116675000D01*
X111941335Y-116675000D01*
X112218574Y-116619853D01*
X112479727Y-116511680D01*
X112714759Y-116354637D01*
X112914637Y-116154759D01*
X113070000Y-115922241D01*
X113225363Y-116154759D01*
X113425241Y-116354637D01*
X113660273Y-116511680D01*
X113921426Y-116619853D01*
X114198665Y-116675000D01*
X114481335Y-116675000D01*
X114758574Y-116619853D01*
X115019727Y-116511680D01*
X115254759Y-116354637D01*
X115454637Y-116154759D01*
X115610000Y-115922241D01*
X115765363Y-116154759D01*
X115965241Y-116354637D01*
X116200273Y-116511680D01*
X116461426Y-116619853D01*
X116738665Y-116675000D01*
X117021335Y-116675000D01*
X117298574Y-116619853D01*
X117559727Y-116511680D01*
X117794759Y-116354637D01*
X117994637Y-116154759D01*
X118150000Y-115922241D01*
X118305363Y-116154759D01*
X118505241Y-116354637D01*
X118740273Y-116511680D01*
X119001426Y-116619853D01*
X119278665Y-116675000D01*
X119561335Y-116675000D01*
X119838574Y-116619853D01*
X120099727Y-116511680D01*
X120334759Y-116354637D01*
X120534637Y-116154759D01*
X120690000Y-115922241D01*
X120845363Y-116154759D01*
X121045241Y-116354637D01*
X121280273Y-116511680D01*
X121541426Y-116619853D01*
X121818665Y-116675000D01*
X122101335Y-116675000D01*
X122378574Y-116619853D01*
X122639727Y-116511680D01*
X122874759Y-116354637D01*
X123074637Y-116154759D01*
X123230000Y-115922241D01*
X123385363Y-116154759D01*
X123585241Y-116354637D01*
X123820273Y-116511680D01*
X124081426Y-116619853D01*
X124358665Y-116675000D01*
X124641335Y-116675000D01*
X124918574Y-116619853D01*
X125179727Y-116511680D01*
X125414759Y-116354637D01*
X125614637Y-116154759D01*
X125770000Y-115922241D01*
X125925363Y-116154759D01*
X126125241Y-116354637D01*
X126360273Y-116511680D01*
X126621426Y-116619853D01*
X126898665Y-116675000D01*
X127181335Y-116675000D01*
X127458574Y-116619853D01*
X127719727Y-116511680D01*
X127954759Y-116354637D01*
X128154637Y-116154759D01*
X128310000Y-115922241D01*
X128465363Y-116154759D01*
X128665241Y-116354637D01*
X128820001Y-116458044D01*
X128820000Y-119492677D01*
X128816324Y-119530000D01*
X128820000Y-119567322D01*
X128820000Y-119567332D01*
X128830997Y-119678985D01*
X128841521Y-119713677D01*
X128874454Y-119822246D01*
X128945026Y-119954276D01*
X128983375Y-120001004D01*
X129039999Y-120070001D01*
X129069003Y-120093804D01*
X139990001Y-131014804D01*
X139990000Y-137135198D01*
X135738998Y-141386201D01*
X135710000Y-141409999D01*
X135686202Y-141438997D01*
X135686201Y-141438998D01*
X135615026Y-141525724D01*
X135544454Y-141657754D01*
X135500998Y-141801015D01*
X135486324Y-141950000D01*
X135490001Y-141987332D01*
X135490000Y-144662677D01*
X135486324Y-144700000D01*
X135490000Y-144737322D01*
X135490000Y-144737332D01*
X135500997Y-144848985D01*
X135540253Y-144978397D01*
X135544454Y-144992246D01*
X135615026Y-145124276D01*
X135646453Y-145162569D01*
X135709999Y-145240001D01*
X135739003Y-145263804D01*
X137186201Y-146711003D01*
X137209999Y-146740001D01*
X137325724Y-146834974D01*
X137457753Y-146905546D01*
X137601014Y-146949003D01*
X137712667Y-146960000D01*
X137712676Y-146960000D01*
X137749999Y-146963676D01*
X137787322Y-146960000D01*
X144212678Y-146960000D01*
X144250000Y-146963676D01*
X144287322Y-146960000D01*
X144287333Y-146960000D01*
X144398986Y-146949003D01*
X144542247Y-146905546D01*
X144674276Y-146834974D01*
X144790001Y-146740001D01*
X144813804Y-146710998D01*
X145761003Y-145763799D01*
X145790001Y-145740001D01*
X145884974Y-145624276D01*
X145955546Y-145492247D01*
X145999003Y-145348986D01*
X146009387Y-145243552D01*
X146013677Y-145200000D01*
X146010000Y-145162667D01*
X146010000Y-144891655D01*
X146017028Y-144820298D01*
X146238505Y-144672312D01*
X146452312Y-144458505D01*
X146620299Y-144207095D01*
X146736011Y-143927743D01*
X146795000Y-143631184D01*
X146795000Y-143328816D01*
X146736011Y-143032257D01*
X146620299Y-142752905D01*
X146452312Y-142501495D01*
X146238505Y-142287688D01*
X145987095Y-142119701D01*
X145707743Y-142003989D01*
X145411184Y-141945000D01*
X145108816Y-141945000D01*
X144812257Y-142003989D01*
X144532905Y-142119701D01*
X144281495Y-142287688D01*
X144067688Y-142501495D01*
X144010000Y-142587831D01*
X143952312Y-142501495D01*
X143738505Y-142287688D01*
X143520000Y-142141687D01*
X143520000Y-136504801D01*
X147676114Y-132348688D01*
X147858665Y-132385000D01*
X148141335Y-132385000D01*
X148418574Y-132329853D01*
X148679727Y-132221680D01*
X148914759Y-132064637D01*
X149114637Y-131864759D01*
X149271680Y-131629727D01*
X149379853Y-131368574D01*
X149435000Y-131091335D01*
X149435000Y-131075000D01*
X152986928Y-131075000D01*
X152990000Y-131664250D01*
X153148750Y-131823000D01*
X154373000Y-131823000D01*
X154373000Y-130598750D01*
X154214250Y-130440000D01*
X153625000Y-130436928D01*
X153500518Y-130449188D01*
X153380820Y-130485498D01*
X153270506Y-130544463D01*
X153173815Y-130623815D01*
X153094463Y-130720506D01*
X153035498Y-130830820D01*
X152999188Y-130950518D01*
X152986928Y-131075000D01*
X149435000Y-131075000D01*
X149435000Y-130808665D01*
X149379853Y-130531426D01*
X149271680Y-130270273D01*
X149114637Y-130035241D01*
X148914759Y-129835363D01*
X148679727Y-129678320D01*
X148418574Y-129570147D01*
X148141335Y-129515000D01*
X147858665Y-129515000D01*
X147581426Y-129570147D01*
X147320273Y-129678320D01*
X147085241Y-129835363D01*
X146885363Y-130035241D01*
X146728320Y-130270273D01*
X146620147Y-130531426D01*
X146565000Y-130808665D01*
X146565000Y-131091335D01*
X146601312Y-131273886D01*
X142248998Y-135626201D01*
X142220000Y-135649999D01*
X142196202Y-135678997D01*
X142196201Y-135678998D01*
X142125026Y-135765724D01*
X142054454Y-135897754D01*
X142026472Y-135990001D01*
X142019254Y-136013799D01*
X142010998Y-136041015D01*
X141996324Y-136190000D01*
X142000001Y-136227332D01*
X142000000Y-142141687D01*
X141781495Y-142287688D01*
X141567688Y-142501495D01*
X141472262Y-142644310D01*
X141324080Y-142595525D01*
X140439605Y-143480000D01*
X141324080Y-144364475D01*
X141472262Y-144315690D01*
X141567688Y-144458505D01*
X141781495Y-144672312D01*
X142032905Y-144840299D01*
X142312257Y-144956011D01*
X142608816Y-145015000D01*
X142911184Y-145015000D01*
X143207743Y-144956011D01*
X143487095Y-144840299D01*
X143738505Y-144672312D01*
X143952312Y-144458505D01*
X144010000Y-144372169D01*
X144067688Y-144458505D01*
X144281495Y-144672312D01*
X144490000Y-144811631D01*
X144490000Y-144885198D01*
X143935199Y-145440000D01*
X138064802Y-145440000D01*
X137168882Y-144544080D01*
X139375525Y-144544080D01*
X139459208Y-144798261D01*
X139731775Y-144929158D01*
X140024642Y-145004365D01*
X140326553Y-145020991D01*
X140625907Y-144978397D01*
X140911199Y-144878222D01*
X141060792Y-144798261D01*
X141144475Y-144544080D01*
X140260000Y-143659605D01*
X139375525Y-144544080D01*
X137168882Y-144544080D01*
X137010000Y-144385199D01*
X137010000Y-143546553D01*
X138719009Y-143546553D01*
X138761603Y-143845907D01*
X138861778Y-144131199D01*
X138941739Y-144280792D01*
X139195920Y-144364475D01*
X140080395Y-143480000D01*
X139195920Y-142595525D01*
X138941739Y-142679208D01*
X138810842Y-142951775D01*
X138735635Y-143244642D01*
X138719009Y-143546553D01*
X137010000Y-143546553D01*
X137010000Y-142415920D01*
X139375525Y-142415920D01*
X140260000Y-143300395D01*
X141144475Y-142415920D01*
X141060792Y-142161739D01*
X140788225Y-142030842D01*
X140495358Y-141955635D01*
X140193447Y-141939009D01*
X139894093Y-141981603D01*
X139608801Y-142081778D01*
X139459208Y-142161739D01*
X139375525Y-142415920D01*
X137010000Y-142415920D01*
X137010000Y-142264801D01*
X141261004Y-138013798D01*
X141290001Y-137990001D01*
X141331036Y-137940000D01*
X141384974Y-137874277D01*
X141455546Y-137742247D01*
X141481846Y-137655546D01*
X141499003Y-137598986D01*
X141510000Y-137487333D01*
X141510000Y-137487324D01*
X141513676Y-137450001D01*
X141510000Y-137412678D01*
X141510000Y-130737322D01*
X141513676Y-130699999D01*
X141510000Y-130662676D01*
X141510000Y-130662667D01*
X141499003Y-130551014D01*
X141455546Y-130407753D01*
X141384974Y-130275724D01*
X141366871Y-130253665D01*
X141313799Y-130188996D01*
X141313795Y-130188992D01*
X141290001Y-130159999D01*
X141261008Y-130136205D01*
X136312874Y-125188072D01*
X139400000Y-125188072D01*
X139524482Y-125175812D01*
X139644180Y-125139502D01*
X139754494Y-125080537D01*
X139851185Y-125001185D01*
X139930537Y-124904494D01*
X139989502Y-124794180D01*
X140025812Y-124674482D01*
X140038072Y-124550000D01*
X140038072Y-122788967D01*
X140540000Y-122788967D01*
X140540000Y-123111033D01*
X140602832Y-123426912D01*
X140726082Y-123724463D01*
X140905013Y-123992252D01*
X141132748Y-124219987D01*
X141400537Y-124398918D01*
X141698088Y-124522168D01*
X142013967Y-124585000D01*
X142336033Y-124585000D01*
X142651912Y-124522168D01*
X142949463Y-124398918D01*
X143217252Y-124219987D01*
X143444987Y-123992252D01*
X143623918Y-123724463D01*
X143747168Y-123426912D01*
X143810000Y-123111033D01*
X143810000Y-122788967D01*
X143747168Y-122473088D01*
X143623918Y-122175537D01*
X143444987Y-121907748D01*
X143217252Y-121680013D01*
X142949463Y-121501082D01*
X142651912Y-121377832D01*
X142336033Y-121315000D01*
X142013967Y-121315000D01*
X141698088Y-121377832D01*
X141400537Y-121501082D01*
X141132748Y-121680013D01*
X140905013Y-121907748D01*
X140726082Y-122175537D01*
X140602832Y-122473088D01*
X140540000Y-122788967D01*
X140038072Y-122788967D01*
X140038072Y-121350000D01*
X140025812Y-121225518D01*
X139989502Y-121105820D01*
X139930537Y-120995506D01*
X139851185Y-120898815D01*
X139754494Y-120819463D01*
X139644180Y-120760498D01*
X139524482Y-120724188D01*
X139400000Y-120711928D01*
X136200000Y-120711928D01*
X136075518Y-120724188D01*
X135955820Y-120760498D01*
X135845506Y-120819463D01*
X135748815Y-120898815D01*
X135669463Y-120995506D01*
X135610498Y-121105820D01*
X135574188Y-121225518D01*
X135561928Y-121350000D01*
X135561928Y-124437126D01*
X130340000Y-119215199D01*
X130340000Y-116458043D01*
X130494759Y-116354637D01*
X130694637Y-116154759D01*
X130850000Y-115922241D01*
X131005363Y-116154759D01*
X131205241Y-116354637D01*
X131440273Y-116511680D01*
X131701426Y-116619853D01*
X131978665Y-116675000D01*
X132261335Y-116675000D01*
X132538574Y-116619853D01*
X132799727Y-116511680D01*
X133034759Y-116354637D01*
X133234637Y-116154759D01*
X133391680Y-115919727D01*
X133396067Y-115909135D01*
X133507615Y-116095131D01*
X133696586Y-116303519D01*
X133922580Y-116471037D01*
X134176913Y-116591246D01*
X134310961Y-116631904D01*
X134533000Y-116509915D01*
X134533000Y-115367000D01*
X134513000Y-115367000D01*
X134513000Y-115113000D01*
X134533000Y-115113000D01*
X134533000Y-113970085D01*
X134787000Y-113970085D01*
X134787000Y-115113000D01*
X134807000Y-115113000D01*
X134807000Y-115367000D01*
X134787000Y-115367000D01*
X134787000Y-116509915D01*
X135009039Y-116631904D01*
X135143087Y-116591246D01*
X135397420Y-116471037D01*
X135623414Y-116303519D01*
X135812385Y-116095131D01*
X135923933Y-115909135D01*
X135928320Y-115919727D01*
X136085363Y-116154759D01*
X136285241Y-116354637D01*
X136445203Y-116461520D01*
X136450144Y-116511680D01*
X136450998Y-116520355D01*
X136494454Y-116663616D01*
X136565026Y-116795646D01*
X136636201Y-116882372D01*
X136660000Y-116911371D01*
X136688998Y-116935169D01*
X139214830Y-119461002D01*
X139238629Y-119490001D01*
X139267627Y-119513799D01*
X139354354Y-119584974D01*
X139486383Y-119655546D01*
X139629644Y-119699003D01*
X139778630Y-119713677D01*
X139815963Y-119710000D01*
X141860199Y-119710000D01*
X144608823Y-122458625D01*
X144602832Y-122473088D01*
X144540000Y-122788967D01*
X144540000Y-123111033D01*
X144602832Y-123426912D01*
X144726082Y-123724463D01*
X144905013Y-123992252D01*
X145132748Y-124219987D01*
X145400537Y-124398918D01*
X145698088Y-124522168D01*
X146013967Y-124585000D01*
X146336033Y-124585000D01*
X146651912Y-124522168D01*
X146949463Y-124398918D01*
X147217252Y-124219987D01*
X147444987Y-123992252D01*
X147623918Y-123724463D01*
X147747168Y-123426912D01*
X147810000Y-123111033D01*
X147810000Y-122788967D01*
X147747168Y-122473088D01*
X147623918Y-122175537D01*
X147444987Y-121907748D01*
X147217252Y-121680013D01*
X146949463Y-121501082D01*
X146651912Y-121377832D01*
X146336033Y-121315000D01*
X146013967Y-121315000D01*
X145698088Y-121377832D01*
X145683625Y-121383823D01*
X142738804Y-118439003D01*
X142715001Y-118409999D01*
X142599276Y-118315026D01*
X142467247Y-118244454D01*
X142323986Y-118200997D01*
X142212333Y-118190000D01*
X142212322Y-118190000D01*
X142175000Y-118186324D01*
X142137678Y-118190000D01*
X140093432Y-118190000D01*
X138186414Y-116282982D01*
X138314637Y-116154759D01*
X138415879Y-116003240D01*
X138555455Y-116212131D01*
X138767869Y-116424545D01*
X139017642Y-116591438D01*
X139295174Y-116706395D01*
X139589801Y-116765000D01*
X139890199Y-116765000D01*
X140184826Y-116706395D01*
X140462358Y-116591438D01*
X140712131Y-116424545D01*
X140924545Y-116212131D01*
X140946906Y-116178665D01*
X144065000Y-116178665D01*
X144065000Y-116461335D01*
X144120147Y-116738574D01*
X144228320Y-116999727D01*
X144385363Y-117234759D01*
X144585241Y-117434637D01*
X144820273Y-117591680D01*
X145081426Y-117699853D01*
X145358665Y-117755000D01*
X145641335Y-117755000D01*
X145918574Y-117699853D01*
X146179727Y-117591680D01*
X146414759Y-117434637D01*
X146614637Y-117234759D01*
X146771680Y-116999727D01*
X146879853Y-116738574D01*
X146935000Y-116461335D01*
X146935000Y-116178665D01*
X146879853Y-115901426D01*
X146771680Y-115640273D01*
X146614637Y-115405241D01*
X146414759Y-115205363D01*
X146179727Y-115048320D01*
X145918574Y-114940147D01*
X145641335Y-114885000D01*
X145358665Y-114885000D01*
X145081426Y-114940147D01*
X144820273Y-115048320D01*
X144585241Y-115205363D01*
X144385363Y-115405241D01*
X144228320Y-115640273D01*
X144120147Y-115901426D01*
X144065000Y-116178665D01*
X140946906Y-116178665D01*
X141091438Y-115962358D01*
X141206395Y-115684826D01*
X141265000Y-115390199D01*
X141265000Y-115089801D01*
X141206395Y-114795174D01*
X141091438Y-114517642D01*
X140924545Y-114267869D01*
X140712131Y-114055455D01*
X140462358Y-113888562D01*
X140184826Y-113773605D01*
X139890199Y-113715000D01*
X139589801Y-113715000D01*
X139295174Y-113773605D01*
X139017642Y-113888562D01*
X138767869Y-114055455D01*
X138555455Y-114267869D01*
X138415879Y-114476760D01*
X138314637Y-114325241D01*
X138114759Y-114125363D01*
X137879727Y-113968320D01*
X137618574Y-113860147D01*
X137341335Y-113805000D01*
X137058665Y-113805000D01*
X136781426Y-113860147D01*
X136520273Y-113968320D01*
X136285241Y-114125363D01*
X136085363Y-114325241D01*
X135928320Y-114560273D01*
X135923933Y-114570865D01*
X135812385Y-114384869D01*
X135623414Y-114176481D01*
X135397420Y-114008963D01*
X135143087Y-113888754D01*
X135009039Y-113848096D01*
X134787000Y-113970085D01*
X134533000Y-113970085D01*
X134310961Y-113848096D01*
X134176913Y-113888754D01*
X133922580Y-114008963D01*
X133696586Y-114176481D01*
X133507615Y-114384869D01*
X133396067Y-114570865D01*
X133391680Y-114560273D01*
X133234637Y-114325241D01*
X133034759Y-114125363D01*
X132799727Y-113968320D01*
X132538574Y-113860147D01*
X132261335Y-113805000D01*
X131978665Y-113805000D01*
X131701426Y-113860147D01*
X131440273Y-113968320D01*
X131205241Y-114125363D01*
X131005363Y-114325241D01*
X130850000Y-114557759D01*
X130694637Y-114325241D01*
X130494759Y-114125363D01*
X130259727Y-113968320D01*
X129998574Y-113860147D01*
X129721335Y-113805000D01*
X129438665Y-113805000D01*
X129256114Y-113841312D01*
X122103804Y-106689003D01*
X122080001Y-106659999D01*
X121964276Y-106565026D01*
X121832247Y-106494454D01*
X121688986Y-106450997D01*
X121577333Y-106440000D01*
X121577322Y-106440000D01*
X121540000Y-106436324D01*
X121502678Y-106440000D01*
X120189800Y-106440000D01*
X115020777Y-101270978D01*
X115254759Y-101114637D01*
X115454637Y-100914759D01*
X115610000Y-100682241D01*
X115765363Y-100914759D01*
X115965241Y-101114637D01*
X116200273Y-101271680D01*
X116461426Y-101379853D01*
X116738665Y-101435000D01*
X117021335Y-101435000D01*
X117298574Y-101379853D01*
X117559727Y-101271680D01*
X117794759Y-101114637D01*
X117994637Y-100914759D01*
X118150000Y-100682241D01*
X118305363Y-100914759D01*
X118505241Y-101114637D01*
X118740273Y-101271680D01*
X119001426Y-101379853D01*
X119278665Y-101435000D01*
X119561335Y-101435000D01*
X119838574Y-101379853D01*
X120099727Y-101271680D01*
X120334759Y-101114637D01*
X120534637Y-100914759D01*
X120690000Y-100682241D01*
X120845363Y-100914759D01*
X121045241Y-101114637D01*
X121280273Y-101271680D01*
X121541426Y-101379853D01*
X121818665Y-101435000D01*
X122101335Y-101435000D01*
X122378574Y-101379853D01*
X122639727Y-101271680D01*
X122874759Y-101114637D01*
X123074637Y-100914759D01*
X123230000Y-100682241D01*
X123385363Y-100914759D01*
X123585241Y-101114637D01*
X123820273Y-101271680D01*
X124081426Y-101379853D01*
X124358665Y-101435000D01*
X124641335Y-101435000D01*
X124918574Y-101379853D01*
X125179727Y-101271680D01*
X125414759Y-101114637D01*
X125614637Y-100914759D01*
X125770000Y-100682241D01*
X125925363Y-100914759D01*
X126125241Y-101114637D01*
X126360273Y-101271680D01*
X126621426Y-101379853D01*
X126898665Y-101435000D01*
X127181335Y-101435000D01*
X127458574Y-101379853D01*
X127719727Y-101271680D01*
X127954759Y-101114637D01*
X128154637Y-100914759D01*
X128311680Y-100679727D01*
X128316067Y-100669135D01*
X128427615Y-100855131D01*
X128616586Y-101063519D01*
X128842580Y-101231037D01*
X129096913Y-101351246D01*
X129230961Y-101391904D01*
X129453000Y-101269915D01*
X129453000Y-100127000D01*
X129433000Y-100127000D01*
X129433000Y-99873000D01*
X129453000Y-99873000D01*
X129453000Y-99853000D01*
X129707000Y-99853000D01*
X129707000Y-99873000D01*
X129727000Y-99873000D01*
X129727000Y-100127000D01*
X129707000Y-100127000D01*
X129707000Y-101269915D01*
X129929039Y-101391904D01*
X130063087Y-101351246D01*
X130317420Y-101231037D01*
X130543414Y-101063519D01*
X130732385Y-100855131D01*
X130843933Y-100669135D01*
X130848320Y-100679727D01*
X131005363Y-100914759D01*
X131205241Y-101114637D01*
X131440273Y-101271680D01*
X131701426Y-101379853D01*
X131978665Y-101435000D01*
X132261335Y-101435000D01*
X132538574Y-101379853D01*
X132799727Y-101271680D01*
X133034759Y-101114637D01*
X133234637Y-100914759D01*
X133390000Y-100682241D01*
X133545363Y-100914759D01*
X133745241Y-101114637D01*
X133980273Y-101271680D01*
X134241426Y-101379853D01*
X134518665Y-101435000D01*
X134801335Y-101435000D01*
X135078574Y-101379853D01*
X135339727Y-101271680D01*
X135574759Y-101114637D01*
X135773357Y-100916039D01*
X135774188Y-100924482D01*
X135810498Y-101044180D01*
X135869463Y-101154494D01*
X135948815Y-101251185D01*
X136045506Y-101330537D01*
X136155820Y-101389502D01*
X136275518Y-101425812D01*
X136400000Y-101438072D01*
X138000000Y-101438072D01*
X138124482Y-101425812D01*
X138244180Y-101389502D01*
X138354494Y-101330537D01*
X138451185Y-101251185D01*
X138530537Y-101154494D01*
X138589502Y-101044180D01*
X138598347Y-101015023D01*
X138767869Y-101184545D01*
X139017642Y-101351438D01*
X139295174Y-101466395D01*
X139589801Y-101525000D01*
X139890199Y-101525000D01*
X140184826Y-101466395D01*
X140462358Y-101351438D01*
X140712131Y-101184545D01*
X140740000Y-101156676D01*
X140740001Y-106412668D01*
X140736324Y-106450000D01*
X140750998Y-106598985D01*
X140794454Y-106742246D01*
X140865026Y-106874276D01*
X140936201Y-106961002D01*
X140960000Y-106990001D01*
X140988998Y-107013799D01*
X143186201Y-109211003D01*
X143209999Y-109240001D01*
X143238997Y-109263799D01*
X143325724Y-109334974D01*
X143457753Y-109405546D01*
X143601014Y-109449003D01*
X143750000Y-109463677D01*
X143787333Y-109460000D01*
X144061928Y-109460000D01*
X144061928Y-109500000D01*
X144074188Y-109624482D01*
X144110498Y-109744180D01*
X144169463Y-109854494D01*
X144248815Y-109951185D01*
X144345506Y-110030537D01*
X144455820Y-110089502D01*
X144575518Y-110125812D01*
X144700000Y-110138072D01*
X146300000Y-110138072D01*
X146424482Y-110125812D01*
X146544180Y-110089502D01*
X146654494Y-110030537D01*
X146751185Y-109951185D01*
X146830537Y-109854494D01*
X146889502Y-109744180D01*
X146925812Y-109624482D01*
X146938072Y-109500000D01*
X146938072Y-107900000D01*
X146925812Y-107775518D01*
X146889502Y-107655820D01*
X146830537Y-107545506D01*
X146751185Y-107448815D01*
X146654494Y-107369463D01*
X146544180Y-107310498D01*
X146424482Y-107274188D01*
X146300000Y-107261928D01*
X144700000Y-107261928D01*
X144575518Y-107274188D01*
X144455820Y-107310498D01*
X144345506Y-107369463D01*
X144248815Y-107448815D01*
X144169463Y-107545506D01*
X144110498Y-107655820D01*
X144074188Y-107775518D01*
X144061928Y-107900000D01*
X144061928Y-107937126D01*
X142260000Y-106135199D01*
X142260000Y-99200000D01*
X143361928Y-99200000D01*
X143365000Y-99664250D01*
X143523750Y-99823000D01*
X144623000Y-99823000D01*
X144623000Y-98723750D01*
X144877000Y-98723750D01*
X144877000Y-99823000D01*
X145976250Y-99823000D01*
X146135000Y-99664250D01*
X146138072Y-99200000D01*
X146125812Y-99075518D01*
X146089502Y-98955820D01*
X146030537Y-98845506D01*
X145951185Y-98748815D01*
X145854494Y-98669463D01*
X145744180Y-98610498D01*
X145624482Y-98574188D01*
X145500000Y-98561928D01*
X145035750Y-98565000D01*
X144877000Y-98723750D01*
X144623000Y-98723750D01*
X144464250Y-98565000D01*
X144000000Y-98561928D01*
X143875518Y-98574188D01*
X143755820Y-98610498D01*
X143645506Y-98669463D01*
X143548815Y-98748815D01*
X143469463Y-98845506D01*
X143410498Y-98955820D01*
X143374188Y-99075518D01*
X143361928Y-99200000D01*
X142260000Y-99200000D01*
X142260000Y-98987333D01*
X142263677Y-98950000D01*
X142249003Y-98801014D01*
X142205546Y-98657753D01*
X142134974Y-98525724D01*
X142063799Y-98438997D01*
X142040001Y-98409999D01*
X142011004Y-98386202D01*
X141063804Y-97439002D01*
X141040001Y-97409999D01*
X140924276Y-97315026D01*
X140792247Y-97244454D01*
X140648986Y-97200997D01*
X140537333Y-97190000D01*
X140537322Y-97190000D01*
X140500000Y-97186324D01*
X140462678Y-97190000D01*
X137235286Y-97190000D01*
X137241514Y-97186671D01*
X137313097Y-96942702D01*
X136500000Y-96129605D01*
X135686903Y-96942702D01*
X135758486Y-97186671D01*
X135765522Y-97190000D01*
X134227140Y-97190000D01*
X134414759Y-97064637D01*
X134614637Y-96864759D01*
X134771680Y-96629727D01*
X134879853Y-96368574D01*
X134935000Y-96091335D01*
X134935000Y-96020512D01*
X135059783Y-96020512D01*
X135101213Y-96300130D01*
X135196397Y-96566292D01*
X135263329Y-96691514D01*
X135507298Y-96763097D01*
X136320395Y-95950000D01*
X136679605Y-95950000D01*
X137492702Y-96763097D01*
X137736671Y-96691514D01*
X137857571Y-96436004D01*
X137926300Y-96161816D01*
X137940217Y-95879488D01*
X137929724Y-95808665D01*
X147245000Y-95808665D01*
X147245000Y-96091335D01*
X147300147Y-96368574D01*
X147408320Y-96629727D01*
X147565363Y-96864759D01*
X147765241Y-97064637D01*
X148000273Y-97221680D01*
X148261426Y-97329853D01*
X148538665Y-97385000D01*
X148821335Y-97385000D01*
X149098574Y-97329853D01*
X149359727Y-97221680D01*
X149594759Y-97064637D01*
X149794637Y-96864759D01*
X149951680Y-96629727D01*
X150059853Y-96368574D01*
X150115000Y-96091335D01*
X150115000Y-95808665D01*
X150059853Y-95531426D01*
X149951680Y-95270273D01*
X149794637Y-95035241D01*
X149594759Y-94835363D01*
X149359727Y-94678320D01*
X149098574Y-94570147D01*
X148821335Y-94515000D01*
X148538665Y-94515000D01*
X148261426Y-94570147D01*
X148000273Y-94678320D01*
X147765241Y-94835363D01*
X147565363Y-95035241D01*
X147408320Y-95270273D01*
X147300147Y-95531426D01*
X147245000Y-95808665D01*
X137929724Y-95808665D01*
X137898787Y-95599870D01*
X137803603Y-95333708D01*
X137736671Y-95208486D01*
X137492702Y-95136903D01*
X136679605Y-95950000D01*
X136320395Y-95950000D01*
X135507298Y-95136903D01*
X135263329Y-95208486D01*
X135142429Y-95463996D01*
X135073700Y-95738184D01*
X135059783Y-96020512D01*
X134935000Y-96020512D01*
X134935000Y-95808665D01*
X134879853Y-95531426D01*
X134771680Y-95270273D01*
X134614637Y-95035241D01*
X134536694Y-94957298D01*
X135686903Y-94957298D01*
X136500000Y-95770395D01*
X137313097Y-94957298D01*
X137241514Y-94713329D01*
X136986004Y-94592429D01*
X136711816Y-94523700D01*
X136429488Y-94509783D01*
X136149870Y-94551213D01*
X135883708Y-94646397D01*
X135758486Y-94713329D01*
X135686903Y-94957298D01*
X134536694Y-94957298D01*
X134414759Y-94835363D01*
X134179727Y-94678320D01*
X133918574Y-94570147D01*
X133641335Y-94515000D01*
X133358665Y-94515000D01*
X133081426Y-94570147D01*
X132820273Y-94678320D01*
X132585241Y-94835363D01*
X132385363Y-95035241D01*
X132228320Y-95270273D01*
X132120147Y-95531426D01*
X132065000Y-95808665D01*
X132065000Y-96091335D01*
X132120147Y-96368574D01*
X132228320Y-96629727D01*
X132385363Y-96864759D01*
X132585241Y-97064637D01*
X132772860Y-97190000D01*
X123634802Y-97190000D01*
X122718688Y-96273886D01*
X122755000Y-96091335D01*
X122755000Y-95808665D01*
X122699853Y-95531426D01*
X122591680Y-95270273D01*
X122434637Y-95035241D01*
X122234759Y-94835363D01*
X121999727Y-94678320D01*
X121738574Y-94570147D01*
X121461335Y-94515000D01*
X121178665Y-94515000D01*
X120901426Y-94570147D01*
X120640273Y-94678320D01*
X120405241Y-94835363D01*
X120205363Y-95035241D01*
X120048320Y-95270273D01*
X119940147Y-95531426D01*
X119885000Y-95808665D01*
X119885000Y-96091335D01*
X119940147Y-96368574D01*
X120048320Y-96629727D01*
X120205363Y-96864759D01*
X120405241Y-97064637D01*
X120640273Y-97221680D01*
X120901426Y-97329853D01*
X121178665Y-97385000D01*
X121461335Y-97385000D01*
X121643886Y-97348688D01*
X122756200Y-98461002D01*
X122779999Y-98490001D01*
X122808997Y-98513799D01*
X122895723Y-98584974D01*
X122943475Y-98610498D01*
X123027753Y-98655546D01*
X123171014Y-98699003D01*
X123282667Y-98710000D01*
X123282676Y-98710000D01*
X123319999Y-98713676D01*
X123357322Y-98710000D01*
X123864501Y-98710000D01*
X123820273Y-98728320D01*
X123585241Y-98885363D01*
X123385363Y-99085241D01*
X123230000Y-99317759D01*
X123074637Y-99085241D01*
X122874759Y-98885363D01*
X122639727Y-98728320D01*
X122378574Y-98620147D01*
X122101335Y-98565000D01*
X121818665Y-98565000D01*
X121541426Y-98620147D01*
X121280273Y-98728320D01*
X121045241Y-98885363D01*
X120845363Y-99085241D01*
X120690000Y-99317759D01*
X120534637Y-99085241D01*
X120334759Y-98885363D01*
X120099727Y-98728320D01*
X119838574Y-98620147D01*
X119561335Y-98565000D01*
X119278665Y-98565000D01*
X119001426Y-98620147D01*
X118740273Y-98728320D01*
X118505241Y-98885363D01*
X118305363Y-99085241D01*
X118150000Y-99317759D01*
X117994637Y-99085241D01*
X117794759Y-98885363D01*
X117559727Y-98728320D01*
X117298574Y-98620147D01*
X117021335Y-98565000D01*
X116738665Y-98565000D01*
X116461426Y-98620147D01*
X116200273Y-98728320D01*
X115965241Y-98885363D01*
X115765363Y-99085241D01*
X115610000Y-99317759D01*
X115454637Y-99085241D01*
X115254759Y-98885363D01*
X115019727Y-98728320D01*
X114758574Y-98620147D01*
X114481335Y-98565000D01*
X114198665Y-98565000D01*
X113921426Y-98620147D01*
X113685001Y-98718077D01*
X113685001Y-96948564D01*
X113688677Y-96911241D01*
X113685001Y-96873918D01*
X113685001Y-96873908D01*
X113674004Y-96762255D01*
X113630547Y-96618994D01*
X113602377Y-96566292D01*
X113559975Y-96486964D01*
X113488800Y-96400238D01*
X113465002Y-96371240D01*
X113436004Y-96347442D01*
X110368434Y-93279872D01*
X115765000Y-93279872D01*
X115765000Y-93720128D01*
X115850890Y-94151925D01*
X116019369Y-94558669D01*
X116263962Y-94924729D01*
X116575271Y-95236038D01*
X116941331Y-95480631D01*
X117348075Y-95649110D01*
X117779872Y-95735000D01*
X118220128Y-95735000D01*
X118651925Y-95649110D01*
X119058669Y-95480631D01*
X119424729Y-95236038D01*
X119736038Y-94924729D01*
X119980631Y-94558669D01*
X120149110Y-94151925D01*
X120235000Y-93720128D01*
X120235000Y-93279872D01*
X151765000Y-93279872D01*
X151765000Y-93720128D01*
X151850890Y-94151925D01*
X152019369Y-94558669D01*
X152263962Y-94924729D01*
X152575271Y-95236038D01*
X152941331Y-95480631D01*
X153348075Y-95649110D01*
X153779872Y-95735000D01*
X154220128Y-95735000D01*
X154651925Y-95649110D01*
X155058669Y-95480631D01*
X155424729Y-95236038D01*
X155736038Y-94924729D01*
X155980631Y-94558669D01*
X156149110Y-94151925D01*
X156235000Y-93720128D01*
X156235000Y-93279872D01*
X156149110Y-92848075D01*
X155980631Y-92441331D01*
X155736038Y-92075271D01*
X155424729Y-91763962D01*
X155058669Y-91519369D01*
X154651925Y-91350890D01*
X154220128Y-91265000D01*
X153779872Y-91265000D01*
X153348075Y-91350890D01*
X152941331Y-91519369D01*
X152575271Y-91763962D01*
X152263962Y-92075271D01*
X152019369Y-92441331D01*
X151850890Y-92848075D01*
X151765000Y-93279872D01*
X120235000Y-93279872D01*
X120149110Y-92848075D01*
X119980631Y-92441331D01*
X119736038Y-92075271D01*
X119424729Y-91763962D01*
X119058669Y-91519369D01*
X118651925Y-91350890D01*
X118220128Y-91265000D01*
X117779872Y-91265000D01*
X117348075Y-91350890D01*
X116941331Y-91519369D01*
X116575271Y-91763962D01*
X116263962Y-92075271D01*
X116019369Y-92441331D01*
X115850890Y-92848075D01*
X115765000Y-93279872D01*
X110368434Y-93279872D01*
X109571401Y-92482840D01*
X109978827Y-92482840D01*
X110329213Y-92448330D01*
X110778799Y-92311950D01*
X111193140Y-92090480D01*
X111556312Y-91792432D01*
X111854360Y-91429260D01*
X112075830Y-91014919D01*
X112138396Y-90808665D01*
X119815000Y-90808665D01*
X119815000Y-91091335D01*
X119870147Y-91368574D01*
X119978320Y-91629727D01*
X120135363Y-91864759D01*
X120335241Y-92064637D01*
X120570273Y-92221680D01*
X120831426Y-92329853D01*
X121108665Y-92385000D01*
X121391335Y-92385000D01*
X121668574Y-92329853D01*
X121929727Y-92221680D01*
X122164759Y-92064637D01*
X122364637Y-91864759D01*
X122521680Y-91629727D01*
X122629853Y-91368574D01*
X122685000Y-91091335D01*
X122685000Y-90808665D01*
X131995000Y-90808665D01*
X131995000Y-91091335D01*
X132050147Y-91368574D01*
X132158320Y-91629727D01*
X132315363Y-91864759D01*
X132515241Y-92064637D01*
X132750273Y-92221680D01*
X133011426Y-92329853D01*
X133288665Y-92385000D01*
X133571335Y-92385000D01*
X133848574Y-92329853D01*
X134109727Y-92221680D01*
X134344759Y-92064637D01*
X134544637Y-91864759D01*
X134701680Y-91629727D01*
X134809853Y-91368574D01*
X134865000Y-91091335D01*
X134865000Y-90808665D01*
X135065000Y-90808665D01*
X135065000Y-91091335D01*
X135120147Y-91368574D01*
X135228320Y-91629727D01*
X135385363Y-91864759D01*
X135585241Y-92064637D01*
X135820273Y-92221680D01*
X136081426Y-92329853D01*
X136358665Y-92385000D01*
X136641335Y-92385000D01*
X136918574Y-92329853D01*
X137179727Y-92221680D01*
X137414759Y-92064637D01*
X137614637Y-91864759D01*
X137771680Y-91629727D01*
X137879853Y-91368574D01*
X137893684Y-91299039D01*
X147288096Y-91299039D01*
X147328754Y-91433087D01*
X147448963Y-91687420D01*
X147616481Y-91913414D01*
X147824869Y-92102385D01*
X148066119Y-92247070D01*
X148330960Y-92341909D01*
X148553000Y-92220624D01*
X148553000Y-91077000D01*
X148807000Y-91077000D01*
X148807000Y-92220624D01*
X149029040Y-92341909D01*
X149293881Y-92247070D01*
X149535131Y-92102385D01*
X149743519Y-91913414D01*
X149911037Y-91687420D01*
X150031246Y-91433087D01*
X150071904Y-91299039D01*
X149949915Y-91077000D01*
X148807000Y-91077000D01*
X148553000Y-91077000D01*
X147410085Y-91077000D01*
X147288096Y-91299039D01*
X137893684Y-91299039D01*
X137935000Y-91091335D01*
X137935000Y-90808665D01*
X137893685Y-90600961D01*
X147288096Y-90600961D01*
X147410085Y-90823000D01*
X148553000Y-90823000D01*
X148553000Y-89679376D01*
X148807000Y-89679376D01*
X148807000Y-90823000D01*
X149949915Y-90823000D01*
X150071904Y-90600961D01*
X150031246Y-90466913D01*
X149911037Y-90212580D01*
X149743519Y-89986586D01*
X149535131Y-89797615D01*
X149293881Y-89652930D01*
X149029040Y-89558091D01*
X148807000Y-89679376D01*
X148553000Y-89679376D01*
X148330960Y-89558091D01*
X148066119Y-89652930D01*
X147824869Y-89797615D01*
X147616481Y-89986586D01*
X147448963Y-90212580D01*
X147328754Y-90466913D01*
X147288096Y-90600961D01*
X137893685Y-90600961D01*
X137879853Y-90531426D01*
X137771680Y-90270273D01*
X137614637Y-90035241D01*
X137414759Y-89835363D01*
X137179727Y-89678320D01*
X136918574Y-89570147D01*
X136641335Y-89515000D01*
X136358665Y-89515000D01*
X136081426Y-89570147D01*
X135820273Y-89678320D01*
X135585241Y-89835363D01*
X135385363Y-90035241D01*
X135228320Y-90270273D01*
X135120147Y-90531426D01*
X135065000Y-90808665D01*
X134865000Y-90808665D01*
X134809853Y-90531426D01*
X134701680Y-90270273D01*
X134544637Y-90035241D01*
X134344759Y-89835363D01*
X134109727Y-89678320D01*
X133848574Y-89570147D01*
X133571335Y-89515000D01*
X133288665Y-89515000D01*
X133011426Y-89570147D01*
X132750273Y-89678320D01*
X132515241Y-89835363D01*
X132315363Y-90035241D01*
X132158320Y-90270273D01*
X132050147Y-90531426D01*
X131995000Y-90808665D01*
X122685000Y-90808665D01*
X122629853Y-90531426D01*
X122521680Y-90270273D01*
X122364637Y-90035241D01*
X122164759Y-89835363D01*
X121929727Y-89678320D01*
X121668574Y-89570147D01*
X121391335Y-89515000D01*
X121108665Y-89515000D01*
X120831426Y-89570147D01*
X120570273Y-89678320D01*
X120335241Y-89835363D01*
X120135363Y-90035241D01*
X119978320Y-90270273D01*
X119870147Y-90531426D01*
X119815000Y-90808665D01*
X112138396Y-90808665D01*
X112212210Y-90565333D01*
X112258260Y-90097780D01*
X112212210Y-89630227D01*
X112075830Y-89180641D01*
X111944243Y-88934460D01*
X112896335Y-88934460D01*
X113107169Y-88913695D01*
X113377686Y-88831634D01*
X113626996Y-88698375D01*
X113845518Y-88519038D01*
X114024855Y-88300516D01*
X114158114Y-88051206D01*
X114240175Y-87780689D01*
X114243567Y-87746240D01*
X153633365Y-87746240D01*
X153714025Y-87997868D01*
X153982329Y-88126267D01*
X154270526Y-88199855D01*
X154567543Y-88215804D01*
X154861963Y-88173501D01*
X155142474Y-88074572D01*
X155285975Y-87997868D01*
X155366635Y-87746240D01*
X154500000Y-86879605D01*
X153633365Y-87746240D01*
X114243567Y-87746240D01*
X114267883Y-87499360D01*
X114240175Y-87218031D01*
X114158114Y-86947514D01*
X114061918Y-86767543D01*
X152984196Y-86767543D01*
X153026499Y-87061963D01*
X153125428Y-87342474D01*
X153202132Y-87485975D01*
X153453760Y-87566635D01*
X154320395Y-86700000D01*
X154679605Y-86700000D01*
X155546240Y-87566635D01*
X155797868Y-87485975D01*
X155926267Y-87217671D01*
X155999855Y-86929474D01*
X156015804Y-86632457D01*
X155973501Y-86338037D01*
X155874572Y-86057526D01*
X155797868Y-85914025D01*
X155546240Y-85833365D01*
X154679605Y-86700000D01*
X154320395Y-86700000D01*
X153453760Y-85833365D01*
X153202132Y-85914025D01*
X153073733Y-86182329D01*
X153000145Y-86470526D01*
X152984196Y-86767543D01*
X114061918Y-86767543D01*
X114024855Y-86698204D01*
X113845518Y-86479682D01*
X113626996Y-86300345D01*
X113532208Y-86249680D01*
X113626996Y-86199015D01*
X113845518Y-86019678D01*
X114024855Y-85801156D01*
X114158114Y-85551846D01*
X114240175Y-85281329D01*
X114267883Y-85000000D01*
X114240175Y-84718671D01*
X114158114Y-84448154D01*
X114024855Y-84198844D01*
X113845518Y-83980322D01*
X113626996Y-83800985D01*
X113377686Y-83667726D01*
X113107169Y-83585665D01*
X112896335Y-83564900D01*
X111856185Y-83564900D01*
X111645351Y-83585665D01*
X111374834Y-83667726D01*
X111125524Y-83800985D01*
X110907002Y-83980322D01*
X110727665Y-84198844D01*
X110594406Y-84448154D01*
X110512345Y-84718671D01*
X110484637Y-85000000D01*
X110504219Y-85198822D01*
X110414653Y-85190000D01*
X110414642Y-85190000D01*
X110377320Y-85186324D01*
X110339998Y-85190000D01*
X108871600Y-85190000D01*
X108871600Y-82284740D01*
X109978827Y-82284740D01*
X110329213Y-82250230D01*
X110778799Y-82113850D01*
X111193140Y-81892380D01*
X111556312Y-81594332D01*
X111854360Y-81231160D01*
X112071457Y-80825000D01*
X152986928Y-80825000D01*
X152986928Y-82575000D01*
X152999188Y-82699482D01*
X153035498Y-82819180D01*
X153094463Y-82929494D01*
X153173815Y-83026185D01*
X153270506Y-83105537D01*
X153380820Y-83164502D01*
X153395564Y-83168974D01*
X153327107Y-83237431D01*
X153161856Y-83484747D01*
X153048029Y-83759549D01*
X152990000Y-84051278D01*
X152990000Y-84348722D01*
X153048029Y-84640451D01*
X153161856Y-84915253D01*
X153327107Y-85162569D01*
X153537431Y-85372893D01*
X153690593Y-85475232D01*
X153633365Y-85653760D01*
X154500000Y-86520395D01*
X155366635Y-85653760D01*
X155309407Y-85475232D01*
X155462569Y-85372893D01*
X155672893Y-85162569D01*
X155838144Y-84915253D01*
X155951971Y-84640451D01*
X156010000Y-84348722D01*
X156010000Y-84051278D01*
X155951971Y-83759549D01*
X155838144Y-83484747D01*
X155672893Y-83237431D01*
X155604436Y-83168974D01*
X155619180Y-83164502D01*
X155729494Y-83105537D01*
X155826185Y-83026185D01*
X155905537Y-82929494D01*
X155964502Y-82819180D01*
X156000812Y-82699482D01*
X156013072Y-82575000D01*
X156013072Y-80825000D01*
X156000812Y-80700518D01*
X155964502Y-80580820D01*
X155905537Y-80470506D01*
X155826185Y-80373815D01*
X155729494Y-80294463D01*
X155619180Y-80235498D01*
X155499482Y-80199188D01*
X155375000Y-80186928D01*
X153625000Y-80186928D01*
X153500518Y-80199188D01*
X153380820Y-80235498D01*
X153270506Y-80294463D01*
X153173815Y-80373815D01*
X153094463Y-80470506D01*
X153035498Y-80580820D01*
X152999188Y-80700518D01*
X152986928Y-80825000D01*
X112071457Y-80825000D01*
X112075830Y-80816819D01*
X112212210Y-80367233D01*
X112258260Y-79899680D01*
X112212210Y-79432127D01*
X112075830Y-78982541D01*
X111854360Y-78568200D01*
X111556312Y-78205028D01*
X111193140Y-77906980D01*
X110778799Y-77685510D01*
X110329213Y-77549130D01*
X109978827Y-77514620D01*
X106244373Y-77514620D01*
X105893987Y-77549130D01*
X105444401Y-77685510D01*
X105030060Y-77906980D01*
X104666888Y-78205028D01*
X104368840Y-78568200D01*
X104147370Y-78982541D01*
X104010990Y-79432127D01*
X103964940Y-79899680D01*
X104010990Y-80367233D01*
X104147370Y-80816819D01*
X104368840Y-81231160D01*
X104666888Y-81594332D01*
X105030060Y-81892380D01*
X105444401Y-82113850D01*
X105893987Y-82250230D01*
X106244373Y-82284740D01*
X107351600Y-82284740D01*
X107351601Y-85912657D01*
X107347923Y-85950000D01*
X107351600Y-85987333D01*
X107351600Y-87712720D01*
X106244373Y-87712720D01*
X105893987Y-87747230D01*
X105444401Y-87883610D01*
X105030060Y-88105080D01*
X104666888Y-88403128D01*
X104368840Y-88766300D01*
X104147370Y-89180641D01*
X104010990Y-89630227D01*
X103964940Y-90097780D01*
X104010990Y-90565333D01*
X104147370Y-91014919D01*
X104368840Y-91429260D01*
X104666888Y-91792432D01*
X105030060Y-92090480D01*
X105444401Y-92311950D01*
X105893987Y-92448330D01*
X106244373Y-92482840D01*
X107455632Y-92482840D01*
X107476626Y-92522116D01*
X107516471Y-92570666D01*
X107571599Y-92637841D01*
X107600603Y-92661644D01*
X112165002Y-97226044D01*
X112165001Y-98609491D01*
X111941335Y-98565000D01*
X111658665Y-98565000D01*
X111381426Y-98620147D01*
X111120273Y-98728320D01*
X110885241Y-98885363D01*
X110685363Y-99085241D01*
X110530000Y-99317759D01*
X110374637Y-99085241D01*
X110174759Y-98885363D01*
X109939727Y-98728320D01*
X109678574Y-98620147D01*
X109401335Y-98565000D01*
X109118665Y-98565000D01*
X108841426Y-98620147D01*
X108580273Y-98728320D01*
X108345241Y-98885363D01*
X108145363Y-99085241D01*
X107990000Y-99317759D01*
X107834637Y-99085241D01*
X107634759Y-98885363D01*
X107399727Y-98728320D01*
X107138574Y-98620147D01*
X106861335Y-98565000D01*
X106578665Y-98565000D01*
X106301426Y-98620147D01*
X106040273Y-98728320D01*
X105805241Y-98885363D01*
X105605363Y-99085241D01*
X105450000Y-99317759D01*
X105294637Y-99085241D01*
X105094759Y-98885363D01*
X104859727Y-98728320D01*
X104598574Y-98620147D01*
X104321335Y-98565000D01*
X104038665Y-98565000D01*
X103761426Y-98620147D01*
X103500273Y-98728320D01*
X103265241Y-98885363D01*
X103065363Y-99085241D01*
X102910000Y-99317759D01*
X102754637Y-99085241D01*
X102554759Y-98885363D01*
X102319727Y-98728320D01*
X102058574Y-98620147D01*
X101781335Y-98565000D01*
X101498665Y-98565000D01*
X101221426Y-98620147D01*
X100960273Y-98728320D01*
X100735000Y-98878842D01*
X100735000Y-74150000D01*
X145111928Y-74150000D01*
X145124188Y-74274482D01*
X145160498Y-74394180D01*
X145219463Y-74504494D01*
X145298815Y-74601185D01*
X145395506Y-74680537D01*
X145505820Y-74739502D01*
X145625518Y-74775812D01*
X145750000Y-74788072D01*
X147214250Y-74785000D01*
X147373000Y-74626250D01*
X147373000Y-72527000D01*
X147627000Y-72527000D01*
X147627000Y-74626250D01*
X147785750Y-74785000D01*
X149250000Y-74788072D01*
X149374482Y-74775812D01*
X149494180Y-74739502D01*
X149604494Y-74680537D01*
X149701185Y-74601185D01*
X149780537Y-74504494D01*
X149839502Y-74394180D01*
X149875812Y-74274482D01*
X149888072Y-74150000D01*
X149887128Y-73700000D01*
X150111928Y-73700000D01*
X150111928Y-77200000D01*
X150124188Y-77324482D01*
X150160498Y-77444180D01*
X150219463Y-77554494D01*
X150298815Y-77651185D01*
X150395506Y-77730537D01*
X150505820Y-77789502D01*
X150625518Y-77825812D01*
X150750000Y-77838072D01*
X154250000Y-77838072D01*
X154374482Y-77825812D01*
X154494180Y-77789502D01*
X154604494Y-77730537D01*
X154701185Y-77651185D01*
X154780537Y-77554494D01*
X154839502Y-77444180D01*
X154875812Y-77324482D01*
X154888072Y-77200000D01*
X154888072Y-73700000D01*
X154875812Y-73575518D01*
X154839502Y-73455820D01*
X154780537Y-73345506D01*
X154701185Y-73248815D01*
X154604494Y-73169463D01*
X154494180Y-73110498D01*
X154374482Y-73074188D01*
X154250000Y-73061928D01*
X150750000Y-73061928D01*
X150625518Y-73074188D01*
X150505820Y-73110498D01*
X150395506Y-73169463D01*
X150298815Y-73248815D01*
X150219463Y-73345506D01*
X150160498Y-73455820D01*
X150124188Y-73575518D01*
X150111928Y-73700000D01*
X149887128Y-73700000D01*
X149885000Y-72685750D01*
X149726250Y-72527000D01*
X147627000Y-72527000D01*
X147373000Y-72527000D01*
X145273750Y-72527000D01*
X145115000Y-72685750D01*
X145111928Y-74150000D01*
X100735000Y-74150000D01*
X100735000Y-70650000D01*
X145111928Y-70650000D01*
X145115000Y-72114250D01*
X145273750Y-72273000D01*
X147373000Y-72273000D01*
X147373000Y-70173750D01*
X147627000Y-70173750D01*
X147627000Y-72273000D01*
X149726250Y-72273000D01*
X149885000Y-72114250D01*
X149888072Y-70650000D01*
X149875812Y-70525518D01*
X149839502Y-70405820D01*
X149809666Y-70350000D01*
X150111928Y-70350000D01*
X150124188Y-70474482D01*
X150160498Y-70594180D01*
X150219463Y-70704494D01*
X150298815Y-70801185D01*
X150395506Y-70880537D01*
X150505820Y-70939502D01*
X150625518Y-70975812D01*
X150750000Y-70988072D01*
X152214250Y-70985000D01*
X152373000Y-70826250D01*
X152373000Y-68977000D01*
X152627000Y-68977000D01*
X152627000Y-70826250D01*
X152785750Y-70985000D01*
X154250000Y-70988072D01*
X154374482Y-70975812D01*
X154494180Y-70939502D01*
X154604494Y-70880537D01*
X154701185Y-70801185D01*
X154780537Y-70704494D01*
X154839502Y-70594180D01*
X154875812Y-70474482D01*
X154888072Y-70350000D01*
X154885000Y-69135750D01*
X154726250Y-68977000D01*
X152627000Y-68977000D01*
X152373000Y-68977000D01*
X150273750Y-68977000D01*
X150115000Y-69135750D01*
X150111928Y-70350000D01*
X149809666Y-70350000D01*
X149780537Y-70295506D01*
X149701185Y-70198815D01*
X149604494Y-70119463D01*
X149494180Y-70060498D01*
X149374482Y-70024188D01*
X149250000Y-70011928D01*
X147785750Y-70015000D01*
X147627000Y-70173750D01*
X147373000Y-70173750D01*
X147214250Y-70015000D01*
X145750000Y-70011928D01*
X145625518Y-70024188D01*
X145505820Y-70060498D01*
X145395506Y-70119463D01*
X145298815Y-70198815D01*
X145219463Y-70295506D01*
X145160498Y-70405820D01*
X145124188Y-70525518D01*
X145111928Y-70650000D01*
X100735000Y-70650000D01*
X100735000Y-68763931D01*
X101118628Y-68687623D01*
X101816554Y-68398533D01*
X102444670Y-67978839D01*
X102978839Y-67444670D01*
X103398533Y-66816554D01*
X103687623Y-66118628D01*
X103763931Y-65735000D01*
X150743427Y-65735000D01*
X150829534Y-65942882D01*
M02*
