M48
; DRILL file {KiCad 6.0.7-f9a2dced07~116~ubuntu20.04.1} date Thu 13 Oct 2022 01:02:21 BST
; FORMAT={-:-/ absolute / metric / decimal}
; #@! TF.CreationDate,2022-10-13T01:02:21+01:00
; #@! TF.GenerationSoftware,Kicad,Pcbnew,6.0.7-f9a2dced07~116~ubuntu20.04.1
; #@! TF.FileFunction,Plated,1,2,PTH
FMAT,2
METRIC
; #@! TA.AperFunction,Plated,PTH,ComponentDrill
T1C0.800
; #@! TA.AperFunction,Plated,PTH,ComponentDrill
T2C0.890
; #@! TA.AperFunction,Plated,PTH,ComponentDrill
T3C0.900
; #@! TA.AperFunction,Plated,PTH,ComponentDrill
T4C0.950
; #@! TA.AperFunction,Plated,PTH,ComponentDrill
T5C1.000
; #@! TA.AperFunction,Plated,PTH,ComponentDrill
T6C1.100
; #@! TA.AperFunction,Plated,PTH,ComponentDrill
T7C1.200
; #@! TA.AperFunction,Plated,PTH,ComponentDrill
T8C1.600
; #@! TA.AperFunction,Plated,PTH,ComponentDrill
T9C2.010
%
G90
G05
T1
X112.205Y-93.45
X119.825Y-93.45
X132.07Y-82.3
X134.1Y-133.95
X134.61Y-84.84
X137.15Y-82.3
X138.6Y-143.368
X138.6Y-145.868
X139.1Y-133.95
X145.147Y-105.15
X148.647Y-105.15
T2
X98.74Y-80.66
X98.74Y-85.74
X98.74Y-90.16
X98.74Y-95.24
X103.82Y-80.66
X103.82Y-83.2
X103.82Y-85.74
X103.82Y-90.16
X103.82Y-92.7
X103.82Y-95.24
X106.36Y-80.66
X106.36Y-83.2
X106.36Y-85.74
X106.36Y-90.16
X106.36Y-92.7
X106.36Y-95.24
X108.55Y-157.15
X108.55Y-159.69
X108.8Y-139.7
X108.8Y-142.24
T3
X101.975Y-99.425
X101.975Y-101.965
X101.975Y-106.425
X101.975Y-108.965
T4
X119.5Y-135.325
X122.0Y-135.325
X122.25Y-142.825
X124.5Y-135.325
X124.75Y-142.825
X127.0Y-135.325
X127.25Y-142.825
T5
X99.99Y-113.09
X99.99Y-128.33
X102.53Y-113.09
X102.53Y-128.33
X105.07Y-113.09
X105.07Y-128.33
X107.61Y-113.09
X107.61Y-128.33
X110.15Y-113.09
X110.15Y-128.33
X112.69Y-113.09
X112.69Y-128.33
X115.23Y-113.09
X115.23Y-128.33
X117.77Y-113.09
X117.77Y-128.33
X120.31Y-113.09
X120.31Y-128.33
X122.85Y-113.09
X122.85Y-128.33
X125.39Y-113.09
X125.39Y-128.33
X127.93Y-113.09
X127.93Y-128.33
X130.47Y-113.09
X130.47Y-128.33
X133.01Y-113.09
X133.01Y-128.33
X133.55Y-92.475
X135.55Y-113.09
X135.55Y-128.33
X136.05Y-92.475
X139.7Y-154.75
X143.7Y-154.75
T6
X144.35Y-134.95
X144.35Y-138.35
X144.35Y-141.75
X148.05Y-136.65
X148.05Y-140.05
T7
X106.38Y-101.7
X106.38Y-107.7
X114.6Y-137.93
X114.6Y-153.17
X120.38Y-151.95
X120.38Y-157.95
X121.62Y-101.7
X121.62Y-107.7
X125.63Y-101.95
X125.63Y-107.7
X125.8Y-81.33
X125.8Y-96.57
X135.62Y-151.95
X135.62Y-157.95
X140.87Y-101.95
X140.87Y-107.7
T8
X146.5Y-113.63
X146.5Y-128.87
T9
X103.47Y-152.07
X103.47Y-162.23
X103.72Y-134.62
X103.72Y-144.78
T5
G00X145.05Y-84.7
M15
G01X145.05Y-82.1
M16
G05
G00X146.85Y-78.6
M15
G01X149.05Y-78.6
M16
G05
G00X151.35Y-84.5
M15
G01X151.35Y-82.3
M16
G05
T0
M30
